<svg width="27" height="26" viewBox="0 0 27 26" fill="none" xmlns="http://www.w3.org/2000/svg">
<path d="M13.9921 15.8266C13.8547 15.9524 13.6831 16.0097 13.5114 16.0211C13.3283 16.0211 13.1452 15.9524 13.0193 15.8266L10.9938 13.9841L6.63379 17.9436H20.3891L16.0176 13.9841L13.9921 15.8266Z" fill="#F26522"/>
<path d="M20.3778 8.0564H6.62256L13.5002 14.3046L20.3778 8.0564Z" fill="#F26522"/>
<path d="M5.4668 8.9718V17.0396L9.90694 13L5.4668 8.9718Z" fill="#F26522"/>
<path d="M21.5339 17.0396V8.9718L17.0938 13L21.5339 17.0396Z" fill="#F26522"/>
<path d="M13.5 0C6.32482 0 0.5 5.82482 0.5 13C0.5 20.1752 6.32482 26 13.5 26C20.6752 26 26.5 20.1752 26.5 13C26.5 5.82482 20.6866 0 13.5 0ZM22.2658 19.397H4.7456C4.34507 19.397 4.02465 19.0766 4.02465 18.6761V7.33539C4.02465 6.93486 4.34507 6.61444 4.7456 6.61444H22.2658C22.6664 6.61444 22.9868 6.93486 22.9868 7.33539V18.6761C22.9868 19.0651 22.6664 19.397 22.2658 19.397Z" fill="#F26522"/>
</svg>
