<svg width="27" height="26" viewBox="0 0 27 26" fill="none" xmlns="http://www.w3.org/2000/svg">
<path d="M13.5002 10.7186C12.2328 10.7186 11.1826 11.7688 11.1826 13.0362C11.1826 14.3036 12.2328 15.3537 13.5002 15.3537C14.7676 15.3537 15.8177 14.3036 15.8177 13.0362C15.8177 11.7688 14.8038 10.7186 13.5002 10.7186Z" fill="url(#paint0_linear_3181_25074)"/>
<path d="M17.3748 6.91638H9.6255C8.3943 6.91638 7.38037 7.93031 7.38037 9.16151V16.9108C7.38037 18.142 8.3943 19.1559 9.6255 19.1559H17.3748C18.606 19.1559 19.6199 18.142 19.6199 16.9108V9.16151C19.6199 7.93031 18.606 6.91638 17.3748 6.91638ZM17.5196 13.0362C17.5196 15.2451 15.7091 17.0557 13.5001 17.0557C11.2912 17.0557 9.48065 15.2451 9.48065 13.0362C9.48065 10.8272 11.2912 9.01666 13.5001 9.01666C15.7091 9.01666 17.5196 10.8272 17.5196 13.0362ZM18.606 8.90803C18.606 9.4512 18.1715 9.84953 17.6645 9.84953C17.1213 9.84953 16.723 9.41499 16.723 8.90803C16.723 8.40106 17.1575 7.96652 17.6645 7.96652C18.1715 7.93031 18.606 8.36485 18.606 8.90803C18.606 8.87181 18.606 8.90803 18.606 8.90803Z" fill="url(#paint1_linear_3181_25074)"/>
<path d="M13.5 0C6.33008 0 0.5 5.83008 0.5 13C0.5 20.1699 6.33008 26 13.5 26C20.6699 26 26.5 20.1699 26.5 13C26.5 5.83008 20.6699 0 13.5 0ZM21.3217 16.9109C21.3217 19.0836 19.5474 20.8579 17.3746 20.8579H9.62535C7.45265 20.8579 5.67827 19.0836 5.67827 16.9109V9.16156C5.67827 6.98886 7.45265 5.21448 9.62535 5.21448H17.3746C19.5474 5.21448 21.3217 6.98886 21.3217 9.16156V16.9109Z" fill="url(#paint2_linear_3181_25074)"/>
<defs>
<linearGradient id="paint0_linear_3181_25074" x1="11.4938" y1="15.0517" x2="15.7886" y2="11.334" gradientUnits="userSpaceOnUse">
<stop stop-color="#FFDD55"/>
<stop offset="0.5" stop-color="#FF543E"/>
<stop offset="1" stop-color="#C837AB"/>
</linearGradient>
<linearGradient id="paint1_linear_3181_25074" x1="8.20216" y1="18.3585" x2="19.5429" y2="8.54129" gradientUnits="userSpaceOnUse">
<stop stop-color="#FFDD55"/>
<stop offset="0.5" stop-color="#FF543E"/>
<stop offset="1" stop-color="#C837AB"/>
</linearGradient>
<linearGradient id="paint2_linear_3181_25074" x1="2.24568" y1="24.3061" x2="26.3365" y2="3.45173" gradientUnits="userSpaceOnUse">
<stop stop-color="#FFDD55"/>
<stop offset="0.5" stop-color="#FF543E"/>
<stop offset="1" stop-color="#C837AB"/>
</linearGradient>
</defs>
</svg>
