<svg width="27" height="26" viewBox="0 0 27 26" fill="none" xmlns="http://www.w3.org/2000/svg">
<path d="M13.5 26C20.6797 26 26.5 20.1797 26.5 13C26.5 5.8203 20.6797 0 13.5 0C6.3203 0 0.5 5.8203 0.5 13C0.5 20.1797 6.3203 26 13.5 26Z" fill="#7B59E9"/>
<g clip-path="url(#clip0_2834_31594)">
<path d="M20.5798 9.57994V9.55994C20.2298 8.15994 18.6598 6.64994 17.2198 6.33994H17.1998C14.8698 5.88994 12.5198 5.88994 10.1898 6.33994H10.1698C8.73982 6.64994 7.16982 8.15994 6.82982 9.55994V9.57994C6.39982 11.5399 6.39982 13.5299 6.82982 15.4899V15.5099C7.16982 16.8499 8.61982 18.2899 9.99982 18.6899V20.2599C9.99982 20.8299 10.6898 21.1099 11.0798 20.6999L12.6698 19.0499C13.0098 19.0699 13.3598 19.0799 13.6998 19.0799C14.8698 19.0799 16.0398 18.9699 17.2098 18.7499H17.2298C18.6698 18.4299 20.2298 16.9299 20.5798 15.5199V15.4999C21.0098 13.5399 21.0098 11.5499 20.5798 9.58994V9.57994ZM19.3198 15.2099C19.0898 16.1299 17.8998 17.2699 16.9498 17.4799C15.7098 17.7199 14.4698 17.8199 13.2198 17.7799C13.1998 17.7799 13.1698 17.7799 13.1498 17.8099C12.9698 17.9899 11.9898 18.9999 11.9898 18.9999L10.7598 20.2699C10.6698 20.3599 10.5098 20.2999 10.5098 20.1699V17.5699C10.5098 17.5699 10.4798 17.4899 10.4398 17.4799C9.49982 17.2699 8.30982 16.1299 8.06982 15.2099C7.67982 13.4399 7.67982 11.6399 8.06982 9.86994C8.29982 8.94994 9.48982 7.80994 10.4398 7.59994C12.5998 7.18994 14.7898 7.18994 16.9498 7.59994C17.8998 7.80994 19.0798 8.94994 19.3198 9.86994C19.7098 11.6399 19.7098 13.4399 19.3198 15.2099Z" fill="white"/>
<path d="M15.75 16.4C15.6 16.36 15.47 16.33 15.34 16.27C14.01 15.72 12.78 15 11.81 13.91C11.26 13.29 10.83 12.59 10.46 11.84C10.29 11.49 10.14 11.12 9.99002 10.76C9.85002 10.43 10.05 10.09 10.26 9.83999C10.46 9.60999 10.71 9.42999 10.99 9.28999C11.2 9.18999 11.42 9.24999 11.57 9.42999C11.91 9.81999 12.22 10.24 12.47 10.69C12.63 10.97 12.58 11.31 12.3 11.5C12.23 11.55 12.17 11.6 12.11 11.65C12.05 11.7 12 11.74 11.96 11.8C11.89 11.91 11.89 12.05 11.93 12.17C12.28 13.12 12.86 13.86 13.82 14.26C13.97 14.32 14.13 14.4 14.3 14.38C14.6 14.35 14.69 14.02 14.9 13.85C15.1 13.68 15.36 13.68 15.58 13.82C15.8 13.96 16.01 14.11 16.22 14.26C16.43 14.41 16.63 14.55 16.82 14.72C17 14.88 17.07 15.09 16.96 15.31C16.77 15.71 16.5 16.04 16.1 16.26C15.99 16.32 15.85 16.34 15.73 16.38C15.58 16.34 15.86 16.34 15.73 16.38L15.75 16.4Z" fill="white"/>
<path d="M13.6998 8.83997C15.4398 8.88997 16.8698 10.05 17.1798 11.77C17.2298 12.06 17.2498 12.36 17.2698 12.66C17.2698 12.79 17.2098 12.9 17.0698 12.91C16.9298 12.91 16.8698 12.79 16.8598 12.67C16.8398 12.42 16.8298 12.17 16.7998 11.93C16.6198 10.63 15.5798 9.55997 14.2898 9.32997C14.0998 9.29997 13.8998 9.28997 13.6998 9.26997C13.5798 9.25997 13.4098 9.24997 13.3798 9.08997C13.3598 8.95997 13.4698 8.85997 13.5898 8.84997C13.6198 8.84997 13.6598 8.84997 13.6898 8.84997C15.4298 8.89997 13.6598 8.84997 13.6898 8.84997L13.6998 8.83997Z" fill="white"/>
<path d="M16.3497 12.2799C16.3497 12.2799 16.3497 12.3499 16.3297 12.3999C16.2797 12.5699 16.0197 12.5999 15.9597 12.4199C15.9397 12.3699 15.9397 12.3099 15.9397 12.2499C15.9397 11.8799 15.8597 11.5099 15.6697 11.1899C15.4797 10.8599 15.1897 10.5799 14.8397 10.4099C14.6297 10.3099 14.4097 10.2499 14.1797 10.2099C14.0797 10.1899 13.9797 10.1799 13.8797 10.1699C13.7597 10.1499 13.6897 10.0799 13.6997 9.9599C13.6997 9.8499 13.7897 9.7699 13.9097 9.7699C14.3097 9.7899 14.6997 9.8799 15.0497 10.0699C15.7697 10.4499 16.1897 11.0599 16.3097 11.8599C16.3097 11.8999 16.3197 11.9299 16.3297 11.9699C16.3297 12.0599 16.3397 12.1499 16.3497 12.2699C16.3497 12.2899 16.3497 12.1499 16.3497 12.2699V12.2799Z" fill="white"/>
<path d="M15.2699 12.23C15.1199 12.23 15.0499 12.15 15.0299 12.02C15.0199 11.93 15.0099 11.83 14.9899 11.74C14.9499 11.56 14.8499 11.4 14.6999 11.29C14.6299 11.24 14.5499 11.2 14.4599 11.18C14.3499 11.15 14.2399 11.16 14.1399 11.13C14.0199 11.1 13.9599 11.01 13.9799 10.9C13.9999 10.8 14.0899 10.72 14.1999 10.73C14.8799 10.78 15.3599 11.13 15.4299 11.92C15.4299 11.98 15.4399 12.04 15.4299 12.09C15.4099 12.18 15.3399 12.23 15.2699 12.23C15.3399 12.23 15.1199 12.23 15.2699 12.23Z" fill="white"/>
</g>
<defs>
<clipPath id="clip0_2834_31594">
<rect width="14.4" height="14.88" fill="white" transform="translate(6.5 6)"/>
</clipPath>
</defs>
</svg>
