<svg width="27" height="26" viewBox="0 0 27 26" fill="none" xmlns="http://www.w3.org/2000/svg">
<g clip-path="url(#clip0_2834_31597)">
<circle cx="13.5" cy="13" r="13" fill="#4C75A3"/>
<g clip-path="url(#clip1_2834_31597)">
<path d="M21.5399 9.7C21.3999 9.35 20.6399 9.45 20.6399 9.45L18.0699 9.47C18.0699 9.47 17.8799 9.45 17.7499 9.54C17.6099 9.63 17.5199 9.82 17.5199 9.82C17.5199 9.82 17.0999 10.89 16.5699 11.81C15.4299 13.76 14.9699 13.85 14.7899 13.73C14.3499 13.45 14.4699 12.59 14.4699 11.99C14.4699 10.11 14.7499 9.33 13.9099 9.12C13.6299 9.05 13.4199 9 12.6999 9C11.7599 8.98 10.9899 9 10.5499 9.22C10.2699 9.36 10.0399 9.68 10.1799 9.71C10.3699 9.73 10.7399 9.8 10.9399 10.08C11.1899 10.43 11.1899 11.24 11.1899 11.24C11.1899 11.24 11.3499 13.44 10.8399 13.72C10.4899 13.93 10.0299 13.53 9.00987 11.77C8.47987 10.87 8.07987 9.87 8.07987 9.87C8.07987 9.87 8.00987 9.68 7.86987 9.59C7.70987 9.47 7.47987 9.43 7.47987 9.43L5.04987 9.45C5.04987 9.45 4.68987 9.45 4.54987 9.61C4.43987 9.75 4.54987 10.05 4.54987 10.05C4.54987 10.05 6.46987 14.52 8.62987 16.77C10.6199 18.83 12.8699 18.69 12.8699 18.69H13.8899C13.8899 18.69 14.1899 18.64 14.3499 18.48C14.4899 18.34 14.4899 18.04 14.4899 18.04C14.4899 18.04 14.4699 16.67 15.0899 16.46C15.7199 16.25 16.5299 17.78 17.3799 18.36C18.0299 18.8 18.5199 18.71 18.5199 18.71L20.7899 18.69C20.7899 18.69 21.9999 18.62 21.3899 17.69C21.3399 17.6 21.0699 16.99 19.6999 15.72C18.2599 14.4 18.4699 14.61 20.1899 12.31C21.2599 10.92 21.6699 10.06 21.5299 9.69L21.5399 9.7Z" fill="white"/>
</g>
</g>
<defs>
<clipPath id="clip0_2834_31597">
<rect width="26" height="26" fill="white" transform="translate(0.5)"/>
</clipPath>
<clipPath id="clip1_2834_31597">
<rect width="17.07" height="9.72" fill="white" transform="translate(4.5 9)"/>
</clipPath>
</defs>
</svg>
