<svg width="26" height="26" viewBox="0 0 26 26" fill="none" xmlns="http://www.w3.org/2000/svg">
<circle cx="13" cy="13" r="13" fill="white"/>
<path d="M12.897 15.5987C10.0818 15.6559 8.44537 17.9561 8.28516 19.6269C11.4322 19.6269 14.5792 19.6269 17.7262 19.6269C17.5202 17.7959 15.7464 15.5415 12.897 15.5987Z" fill="#F222AB"/>
<path d="M13 0C5.82482 0 0 5.82482 0 13C0 20.1752 5.82482 26 13 26C20.1752 26 26 20.1752 26 13C26 5.82482 20.1866 0 13 0ZM13 4.84067C15.1285 4.84067 16.8565 6.56866 16.8451 8.69718C16.8451 10.8143 15.1056 12.5308 13 12.5308C10.8829 12.5308 9.16637 10.8028 9.16637 8.68574C9.16637 6.56866 10.8829 4.84067 13 4.84067ZM19.3398 21.1708C15.1171 21.1708 10.9058 21.1708 6.6831 21.1708C6.53433 18.6875 7.36972 16.6391 9.42958 15.1857C10.6426 14.316 12.0158 13.9613 13.5035 14.0871C16.353 14.3275 18.6417 16.353 19.2139 19.1452C19.3627 19.809 19.3627 20.4956 19.3398 21.1708Z" fill="#F222AB"/>
<path d="M12.988 10.9868C14.2583 10.9982 15.3111 9.95687 15.3111 8.68662C15.3111 7.42782 14.2697 6.375 13.0109 6.375C11.7407 6.375 10.6993 7.40493 10.6993 8.67518C10.6879 9.93398 11.7292 10.9754 12.988 10.9868Z" fill="#F222AB"/>
</svg>
