<svg width="26" height="26" viewBox="0 0 26 26" fill="none" xmlns="http://www.w3.org/2000/svg">
<circle cx="13.5" cy="13" r="13" fill="#34C456"/>
<g clip-path="url(#clip0_2834_31595)">
<path d="M14.1682 15.5364C14.6108 15.7279 14.9668 15.8429 15.2362 15.9291C15.6884 16.0728 16.0925 16.0536 16.41 16.0057C16.766 15.9482 17.5165 15.5555 17.6704 15.1245C17.8244 14.6935 17.8244 14.3199 17.7763 14.2433C17.7282 14.1666 17.6031 14.1187 17.4203 14.023C17.2375 13.9272 16.3138 13.477 16.1406 13.4195C15.9674 13.362 15.8423 13.3237 15.7173 13.5153C15.5922 13.6973 15.2362 14.1187 15.1207 14.2433C15.0149 14.3678 14.8994 14.3869 14.7166 14.2912C14.5338 14.1954 13.9276 14.0038 13.2156 13.3716C12.6576 12.8735 12.2824 12.2701 12.1765 12.0785C12.0707 11.8965 12.1765 11.8007 12.2631 11.6954C12.4652 11.4463 12.6672 11.1877 12.7346 11.0632C12.7923 10.9387 12.7634 10.8333 12.7153 10.7375C12.6672 10.6417 12.292 9.73177 12.138 9.35821C11.9841 8.99423 11.8301 9.04212 11.7147 9.04212C11.6088 9.04212 11.4838 9.04212 11.3587 9.04212C11.2336 9.04212 11.0316 9.09001 10.8584 9.272C10.6852 9.454 10.2041 9.90419 10.2041 10.8237C10.2041 11.7433 10.8776 12.6245 10.9642 12.749C11.0604 12.8735 12.2824 14.7509 14.1586 15.5555L14.1682 15.5364Z" fill="white"/>
<path d="M6.59622 20L10.4352 18.9943C11.5321 19.5881 12.7636 19.9042 14.0144 19.9042C18.1421 19.9042 21.5 16.5613 21.5 12.4521C21.5 10.4598 20.7207 8.59195 19.3063 7.18391C17.8919 5.77586 16.0157 5 14.0144 5C9.88679 5 6.52886 8.34291 6.52886 12.4521C6.52886 13.7644 6.87524 15.0479 7.52951 16.1782L6.5 19.9042C6.5 19.9042 6.55773 19.9713 6.59622 20.0096V20ZM14.0144 6.25479C15.679 6.25479 17.2377 6.89655 18.4115 8.07471C19.5853 9.2433 20.23 10.8046 20.23 12.4521C20.23 15.8621 17.4397 18.6398 14.0048 18.6398C12.8887 18.6398 11.7919 18.3429 10.8393 17.7778L10.6084 17.6437L8.25112 18.2567L8.87652 15.9674L8.7322 15.7375C8.1068 14.751 7.77967 13.6111 7.77967 12.4425C7.77967 9.03257 10.5699 6.25479 14.0048 6.25479H14.0144Z" fill="white"/>
</g>
<defs>
<clipPath id="clip0_2834_31595">
<rect width="15" height="15" fill="white" transform="translate(6.5 5)"/>
</clipPath>
</defs>
</svg>
