<svg width="26" height="26" viewBox="0 0 26 26" fill="none" xmlns="http://www.w3.org/2000/svg">
<circle cx="13" cy="13" r="10" fill="white"/>
<path d="M13.8125 26C13.2746 26 12.7254 26 12.1875 26C12.1188 25.9886 12.0502 25.9657 11.9815 25.9542C10.471 25.8513 9.02905 25.4853 7.65581 24.8447C3.6963 22.9688 1.21303 19.8803 0.263204 15.6023C0.137324 15.0189 0.0801056 14.4127 0 13.8179C0 13.2574 0 12.6969 0 12.1364C0.0572183 11.7589 0.102993 11.3929 0.160211 11.0154C0.93838 5.71931 5.09243 1.33832 10.3451 0.274527C10.9516 0.148702 11.5695 0.091509 12.1875 0C12.7254 0 13.2746 0 13.8125 0C13.8926 0.0114386 13.9727 0.0343159 14.0528 0.0457545C15.0942 0.125825 16.1127 0.308843 17.0854 0.66344C21.8574 2.40211 24.7641 5.75363 25.794 10.718C25.897 11.1984 25.9313 11.6903 26 12.1821C26 12.7198 26 13.2688 26 13.8064C25.9886 13.8865 25.9657 13.9666 25.9542 14.0352C25.7826 16.2314 25.096 18.2675 23.8715 20.0977C21.8803 23.0832 19.1109 24.9705 15.5977 25.714C15.0141 25.8513 14.4076 25.9085 13.8125 26ZM12.9771 7.26353C12.9771 7.27497 12.9771 7.29784 12.9771 7.30928C12.5766 7.30928 12.1646 7.28641 11.7641 7.30928C10.1734 7.38935 8.5713 7.45799 6.98063 7.58381C6.0537 7.65244 5.36708 8.28157 5.20687 9.18522C5.04665 10.0889 4.96655 11.004 4.90933 11.919C4.81778 13.4747 4.875 15.0418 5.14965 16.586C5.3213 17.5926 5.91637 18.1874 6.91197 18.3819C7.24384 18.4391 7.5757 18.4963 7.90757 18.5077C10.0132 18.5649 12.1303 18.6678 14.2359 18.6564C15.8266 18.645 17.4287 18.5306 19.0194 18.4048C19.9806 18.3247 20.6558 17.707 20.816 16.7576C20.9648 15.8654 21.0563 14.9503 21.1021 14.0466C21.1822 12.4795 21.1364 10.9125 20.8618 9.3568C20.6787 8.37308 20.0722 7.77827 19.088 7.59525C18.7676 7.53806 18.4472 7.4923 18.1268 7.48086C16.4102 7.40079 14.6937 7.33216 12.9771 7.26353Z" fill="#C50815"/>
<path d="M15.6214 12.9953C14.191 13.8189 12.8177 14.6082 11.4102 15.4203C11.4102 13.796 11.4102 12.206 11.4102 10.5703C12.8063 11.3825 14.1795 12.1717 15.6214 12.9953Z" fill="#C50815"/>
</svg>
