<?xml version="1.0" encoding="UTF-8"?>
<svg width="50" height="50" viewBox="0 0 50 50" fill="none" xmlns="http://www.w3.org/2000/svg">
<g clip-path="url(#clip0)">
<path d="M30.5308 30.2161C35.0491 28.381 37.9774 23.9605 37.9048 19.0844C37.9048 12.3826 32.1148 6.93042 24.998 6.93042C17.8812 6.93042 12.0912 12.3826 12.0912 19.0844C12.0186 23.9605 14.9468 28.381 19.4652 30.2161L19.5652 30.2703L20.2485 31.3915C19.0286 32.0976 18.6121 33.6589 19.3181 34.8787C19.411 35.039 19.521 35.1889 19.6463 35.3255C18.6897 36.3741 18.7642 37.9996 19.8128 38.9564C20.2892 39.3909 20.9115 39.6305 21.5562 39.6277H28.4398C29.8593 39.634 31.015 38.4883 31.0212 37.0688C31.024 36.424 30.7844 35.8017 30.3498 35.3255C31.3027 34.2868 31.233 32.6723 30.1943 31.7196C30.0577 31.5943 29.908 31.4843 29.7475 31.3915L30.4308 30.2703L30.5308 30.2161ZM28.4397 37.9068H21.5561C21.0809 37.9068 20.6956 37.5216 20.6956 37.0464C20.6956 36.5712 21.0809 36.1859 21.5561 36.1859H28.4397C28.9149 36.1859 29.3002 36.5712 29.3002 37.0464C29.3002 37.5216 28.9149 37.9068 28.4397 37.9068ZM28.4397 34.465H21.5561C21.0809 34.465 20.6956 34.0797 20.6956 33.6045C20.6956 33.1294 21.0809 32.7441 21.5561 32.7441H28.4397C28.9149 32.7441 29.3002 33.1294 29.3002 33.6045C29.3002 34.0797 28.9149 34.465 28.4397 34.465ZM29.7498 28.6818L29.4057 28.8687C29.2725 28.9413 29.1608 29.0477 29.0817 29.1771L27.9566 31.0232H27.5793V24.4958L31.6294 20.4456L30.4127 19.2288L26.1105 23.5311C25.9491 23.6924 25.8585 23.9112 25.8584 24.1394V31.0231H24.1374V24.1394C24.1373 23.9112 24.0467 23.6924 23.8853 23.5311L19.583 19.2288L18.3664 20.4455L22.4165 24.4957V31.0231H22.0392L20.9141 29.177C20.835 29.0476 20.7233 28.9412 20.5901 28.8686L20.246 28.6817C20.2184 28.6669 20.1901 28.6536 20.1612 28.6418C16.2709 27.0767 13.7468 23.277 13.812 19.0844C13.812 13.3318 18.8297 8.65133 24.9979 8.65133C31.1661 8.65133 36.1838 13.3318 36.1838 19.0844C36.249 23.277 33.7247 27.0767 29.8346 28.6418C29.8057 28.6537 29.7773 28.667 29.7498 28.6818Z" fill="white"/>
<path d="M7.31256 7.02149L6.54297 8.56067L11.7054 11.1419L12.475 9.60269L7.31256 7.02149Z" fill="white"/>
<path d="M42.7917 7.35222L37.3164 9.17847L37.8609 10.8109L43.3362 8.98468L42.7917 7.35222Z" fill="white"/>
<path d="M8.64906 18.1163H3.48633V19.8372H8.64906V18.1163Z" fill="white"/>
<path d="M46.5104 18.1163H41.3477V19.8372H46.5104V18.1163Z" fill="white"/>
<path d="M11.7054 28.5317L6.54297 31.1129L7.31256 32.6521L12.475 30.0709L11.7054 28.5317Z" fill="white"/>
<path d="M38.2891 28.5348L37.5195 30.074L42.6819 32.6552L43.4515 31.116L38.2891 28.5348Z" fill="white"/>
<path d="M25.8596 0.907227H24.1387V5.2095H25.8596V0.907227Z" fill="white"/>
<path d="M49.9513 41.3486V39.6277C38.7255 39.6277 26.7964 42.3413 26.7195 47.3718H23.2768C23.1999 42.3413 11.2707 39.6277 0.0449219 39.6277V41.3486C12.6505 41.3486 21.4527 44.5123 21.5517 47.3718H0.0449219V49.0927H49.9513V47.3718H28.4446C28.5435 44.5123 37.3458 41.3486 49.9513 41.3486Z" fill="white"/>
<path d="M0.09052 43.9323L0 45.6508L16.3515 46.512L16.4421 44.7936L0.09052 43.9323Z" fill="white"/>
<path d="M49.9082 43.9306L33.5566 44.7936L33.6473 46.5121L49.9989 45.6491L49.9082 43.9306Z" fill="white"/>
</g>
<defs>
<clipPath id="clip0">
<rect width="50" height="50" fill="white"/>
</clipPath>
</defs>
</svg>
