<?xml version="1.0" encoding="UTF-8"?>
<svg width="50" height="50" viewBox="0 0 50 50" fill="none" xmlns="http://www.w3.org/2000/svg">
<path d="M43.3594 50C43.7914 50 44.1406 49.6508 44.1406 49.2188V41.4062V0.78125C44.1406 0.349219 43.7914 0 43.3594 0H10.5469C7.96172 0 5.85938 2.10234 5.85938 4.6875V45.3125C5.85938 47.8977 7.96172 50 10.5469 50H43.3594ZM42.5781 40.625H12.8906V1.5625H42.5781V40.625ZM41.0156 42.1875H42.5781V48.4375H41.0156V42.1875ZM10.5469 1.5625H11.3281V40.625H10.5469C9.34609 40.625 8.25156 41.0828 7.42188 41.8281V4.6875C7.42188 2.96406 8.82344 1.5625 10.5469 1.5625ZM7.42188 45.3125C7.42188 43.5891 8.82344 42.1875 10.5469 42.1875H39.4531V44.5328H10.5469C10.1148 44.5328 9.76562 44.882 9.76562 45.3141C9.76562 45.7461 10.1148 46.0953 10.5469 46.0953H39.4531V48.4375H10.5469C8.82344 48.4375 7.42188 47.0359 7.42188 45.3125Z" fill="white"/>
<path d="M16.7988 13.2805C16.7988 15.5985 18.491 17.5235 20.7043 17.8969V24.9985C20.7043 25.4305 21.0535 25.7797 21.4855 25.7797H33.9863C34.4184 25.7797 34.7676 25.4305 34.7676 24.9985V17.8969C36.9801 17.5227 38.6723 15.5985 38.6723 13.2805C38.6723 10.6954 36.5699 8.59302 33.9848 8.59302H32.2168C31.2269 7.17817 29.5887 6.24927 27.7355 6.24927C25.8824 6.24927 24.2434 7.17817 23.2543 8.59302H21.4855C18.9004 8.5938 16.7988 10.6954 16.7988 13.2805ZM22.2668 23.4375H33.2051V24.2172H22.2668V23.4375ZM21.4863 10.1555H22.4973C22.3496 10.6516 22.2668 11.175 22.2668 11.718C22.2668 12.15 22.616 12.4993 23.048 12.4993C23.4801 12.4993 23.8293 12.15 23.8293 11.718C23.8293 9.56411 25.5816 7.81177 27.7355 7.81177C29.8894 7.81177 31.6418 9.56411 31.6418 11.718C31.6418 12.15 31.991 12.4993 32.423 12.4993C32.8551 12.4993 33.2043 12.15 33.2043 11.718C33.2043 11.175 33.1223 10.6516 32.9738 10.1555H33.9848C35.7082 10.1555 37.1098 11.5571 37.1098 13.2805C37.1098 15.0016 35.7113 16.4016 33.991 16.4047C33.9894 16.4047 33.9879 16.404 33.9863 16.404C33.7707 16.404 33.5746 16.4915 33.4332 16.6336C33.291 16.775 33.2035 16.9711 33.2035 17.1868C33.2035 17.1891 33.2051 17.1915 33.2051 17.1946V21.875H22.2668V17.1907C22.2668 17.1891 22.2676 17.1883 22.2676 17.1868C22.2676 17.0782 22.2457 16.975 22.2059 16.8813C22.0879 16.6008 21.8098 16.404 21.4855 16.404C21.484 16.404 21.4824 16.4047 21.4809 16.4047C19.7598 16.4016 18.3613 15.0024 18.3613 13.2805C18.3613 11.5571 19.7629 10.1555 21.4863 10.1555Z" fill="white"/>
<path d="M36.3273 28.9055H19.1445C18.7125 28.9055 18.3633 29.2547 18.3633 29.6868C18.3633 30.1188 18.7125 30.468 19.1445 30.468H36.3273C36.7594 30.468 37.1086 30.1188 37.1086 29.6868C37.1086 29.2547 36.7594 28.9055 36.3273 28.9055Z" fill="white"/>
<path d="M36.3273 31.2493H19.1445C18.7125 31.2493 18.3633 31.5985 18.3633 32.0305C18.3633 32.4625 18.7125 32.8118 19.1445 32.8118H36.3273C36.7594 32.8118 37.1086 32.4625 37.1086 32.0305C37.1086 31.5985 36.7594 31.2493 36.3273 31.2493Z" fill="white"/>
<path d="M32.4226 33.6133H23.0508C22.6187 33.6133 22.2695 33.9625 22.2695 34.3945C22.2695 34.8266 22.6187 35.1758 23.0508 35.1758H32.4226C32.8547 35.1758 33.2039 34.8266 33.2039 34.3945C33.2039 33.9625 32.8547 33.6133 32.4226 33.6133Z" fill="white"/>
</svg>
