<?xml version="1.0" encoding="utf-8"?><svg width="51" height="61" viewBox="0 0 51 61" fill="none" xmlns="http://www.w3.org/2000/svg">
<path fill-rule="evenodd" clip-rule="evenodd" d="M3.8685 10.0015L0.747946 9.87688C0.0751022 11.1142 -0.0411918 16.5926 0.0109559 18.2243C0.316458 27.7815 3.60453 38.5271 8.72885 46.1959C10.0441 48.1639 11.3533 49.7705 12.7327 51.385C12.9113 51.5943 13.1083 51.758 13.2892 51.9668C15.731 54.7814 19.6333 57.762 22.8097 59.6737L25.0552 60.845C25.4175 61.0115 25.4489 61.071 25.8495 60.885C29.8801 59.0137 34.7141 55.3261 37.6002 52.0636C37.9731 51.6422 38.3677 51.2873 38.7295 50.8431C39.4051 50.0137 40.1089 49.216 40.7605 48.3132C41.4273 47.3885 42.0332 46.5889 42.6613 45.5833C47.4524 37.9117 50.999 27.7252 50.999 16.6349C50.999 15.2362 50.7599 10.9341 50.2578 9.8913C49.3865 9.92851 47.8655 10.0318 47.0657 10.0015C42.3983 10.0015 38.0216 8.6131 34.4732 6.80743C32.7237 5.91716 30.9992 4.82175 29.623 3.75845C29.2552 3.47425 28.9363 3.23377 28.545 2.91422C27.1208 1.75091 26.3308 0.713645 25.5015 0.00012207C25.3326 0.107104 24.7285 0.752252 24.5518 0.949471C23.7026 1.89835 22.4068 2.97283 21.3726 3.751C19.9572 4.81617 18.3102 5.89902 16.5187 6.79441C12.8633 8.62147 8.69378 10.0015 3.86712 10.0015H3.8685ZM3.62622 13.4645C3.45178 13.9706 3.44024 16.1293 3.44071 16.7782C3.4444 21.4602 4.19062 26.2056 5.39325 30.3923C6.52665 34.3372 8.07908 38.3466 9.90148 41.5128C10.8941 43.2376 11.8605 44.7525 12.9644 46.2187C13.2537 46.6029 13.5195 46.942 13.8103 47.2959C16.6539 50.757 19.1547 53.0548 22.9444 55.6763C23.2495 55.8875 25.1143 57.0945 25.3889 57.1545C25.921 57.2708 29.641 54.5577 30.1246 54.1804C34.6587 50.6398 38.0719 46.7638 40.994 41.6873C44.7625 35.1409 47.548 25.6339 47.548 16.6358C47.548 15.9037 47.5475 14.085 47.3745 13.4682C42.3637 13.2198 39.466 12.8333 34.8175 10.823C31.9904 9.60013 28.8869 7.71259 26.5698 5.76599C26.2625 5.50783 25.8296 5.09851 25.5029 4.88734C25.1448 5.11246 24.8088 5.44085 24.4682 5.72691C24.1277 6.01297 23.7755 6.2795 23.3907 6.57114C17.6586 10.9169 11.148 13.3571 3.62622 13.4654V13.4645Z" fill="white"/>
<path fill-rule="evenodd" clip-rule="evenodd" d="M9.1884 16.5079L7.93962 16.4828C6.66177 26.2042 10.2997 37.5108 15.9985 44.3023C16.5071 44.9079 16.9833 45.4396 17.4979 46.0084C19.2174 47.9085 22.4676 50.4835 24.6804 51.6385C25.1059 51.8603 25.3431 52.1417 25.8055 51.905C26.1946 51.7059 26.4756 51.5459 26.8623 51.3217C28.9671 50.1021 30.6119 48.7634 32.3111 47.162C33.9489 45.6186 35.493 43.8683 36.7459 41.978C39.5047 37.8155 41.3289 33.4241 42.448 28.2717C42.838 26.4749 43.1255 24.5539 43.2445 22.6375C43.3267 21.31 43.4162 17.6359 43.024 16.4977L41.7475 16.5121C36.0232 16.613 30.4144 13.9194 26.2527 10.302C25.9458 10.035 25.8101 9.70386 25.405 9.60339C25.0173 10.1137 24.4788 10.5295 23.937 10.9793C20.0711 14.1864 14.4341 16.6219 9.18932 16.5079H9.1884ZM24.6518 33.8353L21.8511 31.0398C21.1491 30.3332 19.9802 28.7387 18.1213 29.4248C16.874 29.8848 15.8615 31.4612 16.6949 33.0929C17.1236 33.932 21.451 38.0927 22.1972 38.8416C23.2544 39.9025 24.1013 41.1426 25.8258 40.7672C27.3575 40.4342 27.7451 39.0299 28.4577 37.7727C29.1485 36.5535 29.7771 35.38 30.4545 34.1362C31.7725 31.7156 33.0868 29.2657 34.439 26.8573C34.8635 26.1014 36.1949 23.9134 36.2821 23.0696C36.452 21.4342 35.1132 20.0644 33.5151 20.1769C31.7831 20.2988 31.3323 21.7175 30.6405 22.9571L24.6513 33.8353H24.6518Z" fill="white"/>
</svg>
