<?xml version="1.0" encoding="utf-8"?>
<!-- Generator: Adobe Illustrator 22.0.1, SVG Export Plug-In . SVG Version: 6.00 Build 0)  -->
<svg version="1.1" id="Слой_1" xmlns="http://www.w3.org/2000/svg" xmlns:xlink="http://www.w3.org/1999/xlink" x="0px" y="0px"
	 viewBox="0 0 198.5 134.4" style="enable-background:new 0 0 198.5 134.4;" xml:space="preserve">
<style type="text/css">
	.st0{fill:none;stroke:#FFFFFF;stroke-width:9.1822;stroke-linecap:round;stroke-miterlimit:10;}
</style>
<title>Ресурс 4img</title>
<g id="Слой_2_1_">
	<g id="Слой_1-2">
		<path class="st0" d="M150,26.7L150,26.7c10,0,18.2,8.1,18.2,18.2v64.7c0,10-8.1,18.2-18.2,18.2l0,0c-10,0-18.2-8.1-18.2-18.2V44.8
			C131.8,34.8,140,26.7,150,26.7z"/>
		<path class="st0" d="M34.5,126.8L34.5,126.8c10.1,0,19-7.3,19.9-17.3c1.9-21.5,3.9-35.4,5.8-56.9c0.9-10-6.7-26.9-25.7-26.9l0,0
			c-20,0-26.5,16.9-25.6,26.9c1.9,21.5,3.9,35.4,5.8,56.9C15.5,119.5,24.4,126.8,34.5,126.8z"/>
		<path class="st0" d="M104.4,26.5L104.4,26.5c-10-1.7-19.9,4.1-22.5,13.8c-5.5,20.9-9.7,34.3-15.1,55.1
			c-2.5,9.7,2.2,27.6,20.9,30.8l0,0c19.8,3.3,29-12.3,29.8-22.3c1.6-21.5,2-35.5,3.7-57.1C121.9,36.8,114.3,28.1,104.4,26.5z"/>
		<line class="st0" x1="162.4" y1="6.7" x2="162.7" y2="18.6"/>
		<line class="st0" x1="181.3" y1="9" x2="171.9" y2="21.3"/>
		<line class="st0" x1="190.8" y1="29.1" x2="176.9" y2="29.7"/>
		<path class="st0" d="M20.4,55.8c0,0-2.8-15,9-19.8"/>
		<path class="st0" d="M91.8,115.4c0,0,12.5,0,16.1-12.2"/>
		<path class="st0" d="M142,47.2c0.1-5.3,3.9-9.9,9.2-10.8"/>
	</g>
</g>
</svg>
