<svg width="14" height="14" viewBox="0 0 14 14" fill="none" xmlns="http://www.w3.org/2000/svg">
<ellipse cx="7.0018" cy="6.99985" rx="5.38462" ry="5.38461" fill="white"/>
<path d="M7 0C3.13191 0 0 3.13191 0 7C0 10.8681 3.13191 14 7 14C10.8681 14 14 10.8681 14 7C14 3.13191 10.8681 0 7 0ZM8.93405 4.27986H7.91087C7.74866 4.27986 7.51159 4.3672 7.51159 4.71658V5.66488H8.92157L8.75936 7.27451H7.51159V11.8538H5.61497V7.27451H4.71658V5.66488H5.61497V4.62923C5.61497 3.88057 5.96435 2.72014 7.52406 2.72014H8.92157V4.27986H8.93405Z" fill="#00A6CA"/>
</svg>
