<svg width="22" height="33" viewBox="0 0 22 33" fill="none" xmlns="http://www.w3.org/2000/svg">
<path fill-rule="evenodd" clip-rule="evenodd" d="M21.4918 30.0814L21.0154 27.6862L20.1459 27.8043L20.6293 30.2378C20.6537 30.4047 20.678 30.7941 20.4763 31.0235C20.1355 31.4163 19.4017 31.2147 17.5272 31.2668V27.1473C17.5272 26.5737 16.6543 26.5737 16.6543 27.1473V31.2668H4.88566V27.1473C4.88566 26.5737 4.00927 26.5737 4.00927 27.1473V31.2668H1.80092C1.09146 31.2668 0.795852 30.954 0.893228 30.2344L2.16608 23.8517C2.44082 22.4681 3.72758 22.2456 3.79365 22.2143L8.15472 21.1401C8.8607 23.8134 12.6792 23.7926 13.3748 21.1366L17.7324 22.2178C17.8054 22.2525 19.0852 22.475 19.36 23.8552L19.739 25.7533C19.7599 25.861 20.0938 27.5992 20.1494 27.8043L21.0188 27.6862C20.9736 27.5123 20.6189 25.6768 20.598 25.5829L20.219 23.6848C19.9373 22.2769 18.9148 21.7033 18.3271 21.4842C18.0176 21.373 16.5986 21.0462 13.4617 20.2606V19.5861C13.2635 19.1307 13.2218 19.0925 12.8079 18.9187C11.3055 19.607 9.74752 19.4714 8.48163 18.79C8.16168 19.3532 8.2834 19.2281 8.0643 19.5618V20.2675L3.55717 21.38C3.53282 21.3904 1.70006 21.7276 1.31056 23.6883L0.0377076 30.0849C-0.181389 31.319 0.573278 32.1498 1.80787 32.1498H19.7286C20.3546 32.1498 20.831 31.9656 21.144 31.6041C21.5022 31.1904 21.5892 30.5507 21.4953 30.0849L21.4918 30.0814ZM12.5819 20.5734C12.5227 21.5294 11.7229 22.2803 10.763 22.2803C9.80664 22.2803 9.01024 21.5329 8.94417 20.5839C8.93721 20.4552 8.94069 20.2293 8.94069 19.9477C10.0849 20.3301 11.3716 20.3544 12.5888 19.9581C12.5853 20.2571 12.5923 20.4518 12.5853 20.5769L12.5819 20.5734Z" fill="white"/>
<path d="M15.3438 16.2321C16.1368 16.0165 16.8706 15.1474 17.2322 13.9689C16.9436 13.6978 16.6862 13.3641 16.4776 12.9643C16.5193 13.1103 16.5228 13.291 16.488 13.4405C16.3385 14.0698 15.7472 15.429 14.9578 15.429C14.7248 15.4256 14.5266 15.6098 14.5196 15.8462C14.5022 16.1973 14.3353 17.9877 12.8746 18.895C11.7687 19.632 9.77251 19.5903 8.65964 18.8881C7.21986 17.9807 7.02859 16.1904 7.00424 15.8427C6.99381 15.5994 6.79558 15.4325 6.55562 15.4325C5.65141 15.4325 4.56288 13.0964 5.20626 12.7453C5.5123 12.5819 5.62358 13.1381 6.05482 12.9956C6.37477 12.8878 6.40607 12.5089 6.39216 12.2238C6.32261 11.7614 6.30174 11.6085 6.35391 10.8471C6.29826 11.087 5.34884 10.9062 5.08454 11.0279C5.17496 11.452 5.08801 11.4312 5.21321 11.8657C4.34726 11.9526 4.02383 12.8774 4.20467 13.6422C4.52115 14.991 5.32102 16.0061 6.18698 16.239C6.29131 16.9517 6.65299 18.4431 7.90497 19.406C8.35708 19.7398 8.71876 19.8719 8.90656 19.9657C11.8209 21.0886 14.9195 19.4338 15.3404 16.2356L15.3438 16.2321ZM15.9803 10.6907L15.7855 10.5586C15.7333 11.3755 15.5421 12.1821 15.1804 12.8322C15.3195 13.1485 15.8133 13.1798 15.9663 12.8183C16.1472 12.641 16.2828 12.6549 16.3767 12.7592C16.0776 12.1125 15.8272 11.4103 15.9803 10.6872V10.6907Z" fill="white"/>
<path d="M14.238 2.25282C11.3063 0.271274 8.2772 0.910932 7.72424 2.30497C6.19404 1.43587 5.35938 3.41742 3.91265 5.26339C3.54401 5.89261 4.37171 5.48935 4.37171 5.45806C4.72296 5.04785 6.62528 1.60621 7.6199 3.04544C7.7764 3.19145 8.03375 3.1393 8.1207 2.94115C9.44223 -0.104177 13.539 2.41969 13.9841 2.70128C17.7088 5.08609 17.9348 8.77803 20.0354 11.2497C19.7259 11.5626 18.1852 10.8604 17.7436 10.7422C17.6045 10.6588 17.1628 10.4467 17.1558 10.9821C17.4549 12.6264 18.2096 13.7249 18.8425 15.1503C17.3993 14.9938 16.0777 12.8315 16.1403 11.507C16.1403 9.86962 15.5178 8.40953 14.3876 7.39442C14.2102 7.23451 13.925 7.32837 13.8729 7.56129C13.5981 8.84408 13.6572 10.1616 14.0398 11.4097C13.1808 10.9821 12.3879 10.4467 11.6749 9.80357C11.4524 9.60193 11.0976 9.80704 11.1602 10.1025C11.2054 10.3111 11.2576 10.5197 11.3202 10.7248C9.89086 9.95305 8.77799 8.72936 8.14852 7.21017C8.07201 7.02245 7.83552 6.95987 7.67555 7.07807C6.27402 8.11751 5.47415 9.77575 5.52979 11.5174C5.5437 11.9276 6.16622 11.9068 6.1523 11.4966C6.10709 10.0921 6.69483 8.74674 7.74163 7.82549C8.56585 9.54284 9.97433 10.8813 11.7514 11.6148C12.0088 11.7191 12.2661 11.4618 12.1583 11.208L12.0436 10.9125C12.7843 11.4688 13.5946 11.9276 14.4641 12.2857C14.7214 12.39 14.9788 12.1328 14.871 11.879C14.3945 10.7318 14.2311 9.50112 14.3841 8.28438C15.1179 9.14305 15.5143 10.3563 15.5143 11.5974C15.5143 14.4202 17.754 16.0228 19.1486 15.7413C19.3225 15.7413 19.4616 15.6022 19.4616 15.4284C19.2425 14.0239 18.2096 12.7585 17.8792 11.4444C17.8792 11.4444 17.8514 11.3888 17.8444 11.2949C18.2513 11.7538 19.4511 11.8998 20.6509 11.7121C20.7692 11.6356 20.8005 11.4757 20.7205 11.3575C20.2093 10.5962 19.6111 9.88352 19.1903 9.07005C18.3696 7.47785 17.8236 6.19159 17.3054 5.34334C16.4777 3.98755 15.6048 3.16712 14.238 2.24587V2.25282ZM4.47952 4.60287C2.93541 6.41755 2.79978 6.36888 0.455788 9.42116C0.351456 9.51502 0.341023 9.67494 0.438399 9.78271C0.967014 10.2416 2.52851 9.68189 3.15798 8.95532C3.0919 9.41769 3.03278 9.69927 3.03278 10.1721V13.2556C3.03278 13.4295 3.17189 13.5685 3.34578 13.5685C5.05334 12.3796 5.56109 12.0598 5.5437 10.9821C5.5437 10.2277 4.36823 12.8211 3.65877 12.6751V10.1721C3.65877 9.49417 3.66573 9.15348 3.80832 8.51034C3.90569 8.1627 3.67964 7.99931 3.44663 8.15575L3.20319 8.35043C2.51112 8.8267 1.28001 9.63322 1.08526 9.29601C2.79978 7.53695 2.83108 7.47785 3.54401 6.53923C3.92308 6.09425 4.0135 5.96562 4.23608 5.69794C4.38562 5.54845 4.56994 4.84274 4.483 4.60287H4.47952Z" fill="white"/>
<path d="M14.238 2.25282L14.154 2.3771L14.388 2.53526V2.25282H14.238ZM7.72424 2.30497L7.65016 2.4354L7.80009 2.52056L7.86367 2.36028L7.72424 2.30497ZM3.91265 5.26339L3.79459 5.17086L3.78834 5.17883L3.78322 5.18756L3.91265 5.26339ZM4.37171 5.45806L4.25777 5.3605L4.22171 5.40262V5.45806H4.37171ZM7.6199 3.04544L7.49651 3.13072L7.50572 3.14406L7.51758 3.15512L7.6199 3.04544ZM8.1207 2.94115L8.25806 3.00142L8.2583 3.00086L8.1207 2.94115ZM13.9841 2.70128L14.065 2.57495L14.0643 2.57451L13.9841 2.70128ZM20.0354 11.2497L20.142 11.3552L20.2388 11.2574L20.1497 11.1526L20.0354 11.2497ZM17.7436 10.7422L17.6664 10.8708L17.6845 10.8817L17.7048 10.8871L17.7436 10.7422ZM17.1558 10.9821L17.0058 10.9801L17.0057 10.9946L17.0083 11.0089L17.1558 10.9821ZM18.8425 15.1503L18.8264 15.2994L19.0853 15.3275L18.9796 15.0894L18.8425 15.1503ZM16.1403 11.507L16.2903 11.5141V11.507H16.1403ZM14.3876 7.39442L14.2871 7.50582L14.2873 7.50602L14.3876 7.39442ZM13.8729 7.56129L13.7265 7.5285L13.7262 7.52987L13.8729 7.56129ZM14.0398 11.4097L13.9729 11.5439L14.2855 11.6995L14.1832 11.3657L14.0398 11.4097ZM11.6749 9.80357L11.5742 9.91473L11.5745 9.91494L11.6749 9.80357ZM11.1602 10.1025L11.0135 10.1336L11.0136 10.1343L11.1602 10.1025ZM11.3202 10.7248L11.2489 10.8568L11.5703 11.0303L11.4637 10.681L11.3202 10.7248ZM8.14852 7.21017L8.00961 7.26679L8.00994 7.26759L8.14852 7.21017ZM7.67555 7.07807L7.58641 6.95742L7.58619 6.95759L7.67555 7.07807ZM5.52979 11.5174L5.37987 11.5222L5.37988 11.5225L5.52979 11.5174ZM6.1523 11.4966L6.00238 11.5014L6.00239 11.5017L6.1523 11.4966ZM7.74163 7.82549L7.87686 7.76059L7.79118 7.58207L7.64253 7.71289L7.74163 7.82549ZM11.7514 11.6148L11.6942 11.7534L11.6951 11.7538L11.7514 11.6148ZM12.1583 11.208L12.0184 11.2624L12.0203 11.2667L12.1583 11.208ZM12.0436 10.9125L12.1336 10.7926L11.7136 10.4772L11.9037 10.9668L12.0436 10.9125ZM14.4641 12.2857L14.4069 12.4244L14.4077 12.4247L14.4641 12.2857ZM14.871 11.879L14.7324 11.9365L14.7329 11.9376L14.871 11.879ZM14.3841 8.28438L14.4981 8.18693L14.2776 7.9289L14.2353 8.26566L14.3841 8.28438ZM19.1486 15.7413V15.5913H19.1336L19.1189 15.5942L19.1486 15.7413ZM19.4616 15.4284H19.6116V15.4168L19.6098 15.4053L19.4616 15.4284ZM17.8792 11.4444L18.0247 11.4079L18.0207 11.392L18.0134 11.3773L17.8792 11.4444ZM17.8444 11.2949L17.9567 11.1954L17.662 10.8631L17.6948 11.306L17.8444 11.2949ZM20.6509 11.7121L20.6741 11.8603L20.7056 11.8554L20.7324 11.8381L20.6509 11.7121ZM20.7205 11.3575L20.596 11.4411L20.5963 11.4416L20.7205 11.3575ZM19.1903 9.07005L19.057 9.13877L19.0571 9.13896L19.1903 9.07005ZM17.3054 5.34334L17.1773 5.4215L17.1774 5.42154L17.3054 5.34334ZM14.238 2.24587L14.3219 2.12149L14.088 1.96387V2.24587H14.238ZM4.47952 4.60287V4.45287H4.4102L4.36528 4.50566L4.47952 4.60287ZM0.455788 9.42116L0.556111 9.53267L0.566359 9.52346L0.574755 9.51252L0.455788 9.42116ZM0.438399 9.78271L0.327103 9.88327L0.3332 9.89002L0.340068 9.89598L0.438399 9.78271ZM3.15798 8.95532L3.30647 8.97655L3.37864 8.47155L3.04461 8.8571L3.15798 8.95532ZM3.34578 13.5685V13.7185H3.39286L3.43149 13.6916L3.34578 13.5685ZM5.5437 10.9821H5.39368L5.39372 10.9845L5.5437 10.9821ZM3.65877 12.6751H3.50877V12.7973L3.62854 12.822L3.65877 12.6751ZM3.80832 8.51034L3.66366 8.46983L3.66187 8.47788L3.80832 8.51034ZM3.44663 8.15575L3.36273 8.03078L3.35295 8.0386L3.44663 8.15575ZM3.20319 8.35043L3.28845 8.47432L3.29687 8.46758L3.20319 8.35043ZM1.08526 9.29601L0.977839 9.19131L0.898552 9.27266L0.955363 9.37103L1.08526 9.29601ZM3.54401 6.53923L3.42965 6.4418L3.42456 6.4485L3.54401 6.53923ZM4.23608 5.69794L4.12958 5.5914L4.12074 5.60203L4.23608 5.69794ZM4.483 4.60287L4.62402 4.55176L4.58818 4.45287H4.483V4.60287ZM14.322 2.12855C12.8303 1.1203 11.307 0.774364 10.0782 0.863444C8.86118 0.951674 7.8925 1.47395 7.58481 2.24966L7.86367 2.36028C8.10893 1.74195 8.93128 1.24738 10.0999 1.16266C11.2569 1.07879 12.714 1.40379 14.154 2.3771L14.322 2.12855ZM7.79832 2.17454C7.38642 1.94059 7.00559 1.89143 6.64448 1.99701C6.29088 2.10038 5.97565 2.34666 5.67788 2.66326C5.37941 2.98059 5.08613 3.38228 4.78093 3.81349C4.47381 4.24741 4.15335 4.71309 3.79459 5.17086L4.03071 5.35591C4.39531 4.8907 4.72171 4.41645 5.0258 3.98681C5.33181 3.55446 5.61409 3.16896 5.89641 2.86879C6.17942 2.56789 6.45019 2.36637 6.72866 2.28495C6.99963 2.20573 7.29695 2.23479 7.65016 2.4354L7.79832 2.17454ZM3.78322 5.18756C3.73362 5.27223 3.69878 5.34829 3.68127 5.4163C3.66423 5.48248 3.65872 5.56066 3.6954 5.63215C3.73499 5.70928 3.80507 5.74367 3.86442 5.75641C3.92087 5.76853 3.97914 5.7644 4.02794 5.75649C4.12689 5.74045 4.23245 5.70093 4.30977 5.66609C4.34926 5.64829 4.38502 5.63007 4.41249 5.61403C4.4257 5.60632 4.4402 5.59726 4.45301 5.58757C4.45893 5.58309 4.46889 5.5752 4.47887 5.56454C4.48379 5.55928 4.49209 5.5498 4.49996 5.53659C4.50656 5.52552 4.52171 5.49738 4.52171 5.45806H4.22171C4.22171 5.41972 4.23645 5.39275 4.24226 5.383C4.24934 5.37113 4.25646 5.36315 4.25982 5.35955C4.26369 5.35542 4.26686 5.35259 4.26851 5.35117C4.27029 5.34964 4.27154 5.34868 4.272 5.34833C4.27287 5.34767 4.26994 5.34987 4.26124 5.35495C4.24489 5.3645 4.21886 5.378 4.18651 5.39258C4.12016 5.42248 4.04183 5.45032 3.97994 5.46035C3.94831 5.46548 3.93192 5.46407 3.92737 5.46309C3.92573 5.46274 3.94848 5.46823 3.96231 5.49517C3.97324 5.51647 3.96354 5.52317 3.9718 5.49109C3.97959 5.46083 3.99951 5.41185 4.04207 5.33921L3.78322 5.18756ZM4.48565 5.55562C4.53654 5.49618 4.61005 5.38914 4.6959 5.26115C4.7845 5.12906 4.8902 4.96856 5.0116 4.78997C5.25395 4.43349 5.55156 4.01601 5.86716 3.65729C6.18663 3.29417 6.50869 3.00999 6.79682 2.89724C6.93726 2.84228 7.05975 2.83196 7.16745 2.86315C7.27441 2.89413 7.38669 2.97181 7.49651 3.13072L7.7433 2.96016C7.60447 2.75926 7.43972 2.62967 7.2509 2.57499C7.06281 2.52052 6.87076 2.54615 6.6875 2.61787C6.32823 2.75846 5.96626 3.09047 5.64192 3.45913C5.31371 3.83219 5.00771 4.26209 4.7635 4.62131C4.64163 4.80058 4.53331 4.965 4.44676 5.09403C4.35746 5.22715 4.29469 5.31739 4.25777 5.3605L4.48565 5.55562ZM7.51758 3.15512C7.7497 3.37169 8.12961 3.29417 8.25806 3.00142L7.98334 2.88088C7.9379 2.98444 7.8031 3.01121 7.72223 2.93576L7.51758 3.15512ZM8.2583 3.00086C8.57243 2.27698 9.04419 1.89529 9.57809 1.722C10.119 1.54643 10.7386 1.5802 11.3475 1.71983C12.5662 1.99928 13.6836 2.68864 13.904 2.82804L14.0643 2.57451C13.8396 2.43233 12.686 1.71896 11.4146 1.42742C10.7785 1.28154 10.0983 1.23774 9.48548 1.43665C8.86564 1.63783 8.32973 2.08266 7.9831 2.88144L8.2583 3.00086ZM13.9033 2.8276C15.7338 3.99963 16.7063 5.49233 17.4853 7.01137C17.6804 7.39175 17.863 7.77312 18.0444 8.1523C18.2255 8.53085 18.4055 8.90744 18.594 9.27509C18.971 10.0105 19.3852 10.7162 19.9211 11.3469L20.1497 11.1526C19.6354 10.5474 19.2335 9.86479 18.861 9.13822C18.6747 8.7749 18.4965 8.40214 18.315 8.02283C18.1339 7.64414 17.9495 7.25912 17.7523 6.87447C16.962 5.33342 15.9592 3.78774 14.065 2.57495L13.9033 2.8276ZM19.9288 11.1443C19.922 11.1511 19.9004 11.1661 19.8447 11.1742C19.7902 11.182 19.7174 11.1812 19.6269 11.1702C19.4461 11.1482 19.2213 11.0894 18.9842 11.0146C18.7484 10.9402 18.5079 10.8522 18.2961 10.7745C18.0886 10.6984 17.9011 10.6291 17.7823 10.5973L17.7048 10.8871C17.8069 10.9144 17.9776 10.9772 18.1928 11.0562C18.4038 11.1336 18.6506 11.2239 18.8939 11.3007C19.1359 11.3771 19.3818 11.4426 19.5907 11.468C19.6951 11.4806 19.7969 11.4842 19.8877 11.4711C19.9772 11.4581 20.0714 11.4266 20.142 11.3552L19.9288 11.1443ZM17.8207 10.6136C17.7807 10.5896 17.7189 10.5562 17.6474 10.529C17.5774 10.5024 17.4881 10.4777 17.3961 10.4801C17.3001 10.4827 17.1941 10.5159 17.1153 10.6116C17.0404 10.7025 17.0078 10.8287 17.0058 10.9801L17.3058 10.984C17.3073 10.8677 17.3326 10.8197 17.3468 10.8024C17.3571 10.7899 17.3715 10.7809 17.4042 10.78C17.4409 10.779 17.4885 10.7895 17.5407 10.8094C17.5913 10.8286 17.6369 10.8531 17.6664 10.8708L17.8207 10.6136ZM17.0083 11.0089C17.1609 11.848 17.4296 12.5464 17.7379 13.2114C17.8916 13.5431 18.0559 13.8679 18.2198 14.196C18.3842 14.5249 18.5487 14.8582 18.7054 15.2112L18.9796 15.0894C18.8199 14.7297 18.6527 14.3912 18.4882 14.0619C18.3233 13.7317 18.1615 13.4119 18.0101 13.0852C17.708 12.4335 17.4499 11.7605 17.3034 10.9552L17.0083 11.0089ZM18.8587 15.0011C18.2013 14.9299 17.5435 14.3932 17.05 13.6812C16.5582 12.9715 16.261 12.1321 16.2902 11.5141L15.9905 11.4999C15.9571 12.2064 16.2894 13.1104 16.8035 13.8521C17.3159 14.5915 18.0405 15.2142 18.8264 15.2994L18.8587 15.0011ZM16.2903 11.507C16.2903 9.83074 15.6524 8.32876 14.4878 7.28282L14.2873 7.50602C15.3833 8.4903 15.9903 9.90849 15.9903 11.507H16.2903ZM14.488 7.28302C14.2234 7.04445 13.8032 7.18618 13.7265 7.5285L14.0192 7.59407C14.0469 7.47056 14.197 7.42456 14.2871 7.50582L14.488 7.28302ZM13.7262 7.52987C13.4461 8.83776 13.5064 10.1813 13.8964 11.4536L14.1832 11.3657C13.8081 10.142 13.7502 8.8504 14.0195 7.5927L13.7262 7.52987ZM14.1066 11.2754C13.2595 10.8537 12.4779 10.3259 11.7754 9.69219L11.5745 9.91494C12.2978 10.5675 13.1021 11.1105 13.9729 11.5439L14.1066 11.2754ZM11.7756 9.6924C11.4435 9.39149 10.9212 9.69814 11.0135 10.1336L11.307 10.0715C11.274 9.91595 11.4612 9.81238 11.5742 9.91473L11.7756 9.6924ZM11.0136 10.1343C11.0595 10.3459 11.1127 10.5587 11.1767 10.7686L11.4637 10.681C11.4025 10.4808 11.3514 10.2763 11.3068 10.0708L11.0136 10.1343ZM11.3915 10.5928C9.9923 9.83735 8.90329 8.63991 8.2871 7.15275L8.00994 7.26759C8.65268 8.8188 9.78942 10.0687 11.2489 10.8568L11.3915 10.5928ZM8.28743 7.15356C8.17326 6.87343 7.82354 6.78223 7.58641 6.95742L7.76469 7.19871C7.84751 7.13751 7.97076 7.17146 8.00961 7.26678L8.28743 7.15356ZM7.58619 6.95759C6.1451 8.02638 5.32266 9.73146 5.37987 11.5222L5.67971 11.5126C5.62564 9.82005 6.40295 8.20865 7.7649 7.19855L7.58619 6.95759ZM5.37988 11.5225C5.38476 11.6664 5.4449 11.7831 5.53973 11.8609C5.63158 11.9363 5.74721 11.9682 5.8565 11.9646C5.96579 11.9609 6.07903 11.9213 6.16561 11.8399C6.25499 11.7558 6.3071 11.6353 6.30222 11.4915L6.00239 11.5017C6.00447 11.5629 5.98398 11.5989 5.96012 11.6213C5.93345 11.6464 5.8928 11.6632 5.84646 11.6647C5.80012 11.6663 5.75838 11.6522 5.73004 11.629C5.70467 11.6081 5.68178 11.5736 5.67971 11.5123L5.37988 11.5225ZM6.30223 11.4917C6.25846 10.1323 6.82739 8.8299 7.84072 7.9381L7.64253 7.71289C6.56227 8.66358 5.95572 10.0519 6.00238 11.5014L6.30223 11.4917ZM7.60639 7.8904C8.44659 9.64101 9.8828 11.0057 11.6942 11.7534L11.8087 11.4761C10.0659 10.7568 8.68511 9.44466 7.87686 7.76059L7.60639 7.8904ZM11.6951 11.7538C12.0723 11.9066 12.4582 11.5304 12.2964 11.1494L12.0203 11.2667C12.0741 11.3933 11.9453 11.5315 11.8078 11.4758L11.6951 11.7538ZM12.2982 11.1537L12.1834 10.8582L11.9037 10.9668L12.0185 11.2623L12.2982 11.1537ZM11.9535 11.0325C12.7047 11.5965 13.5261 12.0616 14.4069 12.4244L14.5212 12.147C13.6632 11.7937 12.864 11.341 12.1336 10.7926L11.9535 11.0325ZM14.4077 12.4247C14.7849 12.5776 15.1709 12.2013 15.009 11.8203L14.7329 11.9376C14.7867 12.0642 14.658 12.2024 14.5204 12.1467L14.4077 12.4247ZM15.0095 11.8214C14.5431 10.6984 14.3831 9.49402 14.5329 8.3031L14.2353 8.26566C14.079 9.50822 14.246 10.7652 14.7324 11.9365L15.0095 11.8214ZM14.2701 8.38183C14.9769 9.20893 15.3643 10.3858 15.3643 11.5974H15.6643C15.6643 10.3268 15.2589 9.07717 14.4981 8.18693L14.2701 8.38183ZM15.3643 11.5974C15.3643 13.0503 15.9414 14.195 16.7036 14.9407C17.4601 15.6808 18.4166 16.0421 19.1783 15.8883L19.1189 15.5942C18.486 15.722 17.6254 15.4228 16.9134 14.7263C16.2072 14.0354 15.6643 12.9673 15.6643 11.5974H15.3643ZM19.1486 15.8913C19.4052 15.8913 19.6116 15.6851 19.6116 15.4284H19.3116C19.3116 15.5193 19.2397 15.5913 19.1486 15.5913V15.8913ZM19.6098 15.4053C19.4962 14.6773 19.1728 13.9908 18.8464 13.3356C18.5161 12.6726 18.1849 12.0452 18.0247 11.4079L17.7337 11.481C17.9039 12.1577 18.2543 12.82 18.5779 13.4694C18.9053 14.1266 19.2078 14.775 19.3134 15.4515L19.6098 15.4053ZM17.8792 11.4444C18.0134 11.3773 18.0134 11.3774 18.0134 11.3774C18.0134 11.3774 18.0134 11.3775 18.0134 11.3775C18.0135 11.3775 18.0135 11.3776 18.0135 11.3776C18.0135 11.3777 18.0136 11.3778 18.0136 11.3779C18.0137 11.3781 18.0138 11.3782 18.0139 11.3784C18.014 11.3787 18.0141 11.3789 18.0142 11.3791C18.0144 11.3796 18.0145 11.3798 18.0146 11.3798C18.0146 11.3799 18.0143 11.3792 18.0137 11.3778C18.0125 11.3749 18.0104 11.3693 18.0079 11.3611C18.0029 11.3447 17.9966 11.3183 17.994 11.2839L17.6948 11.306C17.6992 11.3655 17.7103 11.4138 17.721 11.4487C17.7263 11.4661 17.7315 11.4802 17.7358 11.4908C17.7379 11.496 17.7399 11.5004 17.7414 11.5039C17.7422 11.5056 17.7429 11.5071 17.7435 11.5084C17.7438 11.509 17.7441 11.5096 17.7444 11.5101C17.7445 11.5104 17.7446 11.5107 17.7447 11.5109C17.7448 11.511 17.7448 11.5111 17.7449 11.5112C17.7449 11.5113 17.7449 11.5113 17.745 11.5114C17.745 11.5114 17.745 11.5114 17.745 11.5115C17.745 11.5115 17.745 11.5115 17.8792 11.4444ZM17.7322 11.3945C17.9727 11.6657 18.4207 11.823 18.9295 11.8945C19.4471 11.9673 20.062 11.9561 20.6741 11.8603L20.6278 11.5639C20.0401 11.6559 19.4552 11.6655 18.9712 11.5975C18.4784 11.5282 18.123 11.383 17.9567 11.1954L17.7322 11.3945ZM20.7324 11.8381C20.923 11.7148 20.9707 11.4595 20.8447 11.2734L20.5963 11.4416C20.6303 11.4919 20.6154 11.5565 20.5695 11.5862L20.7324 11.8381ZM20.845 11.2739C20.5882 10.8915 20.3063 10.5166 20.0438 10.1465C19.7791 9.77331 19.5291 9.3985 19.3235 9.00113L19.0571 9.13896C19.2723 9.55507 19.5318 9.94333 19.7992 10.3201C20.0687 10.7001 20.3415 11.0622 20.596 11.4411L20.845 11.2739ZM19.3236 9.00132C18.9144 8.20734 18.5738 7.49015 18.2693 6.86226C17.9658 6.23635 17.6968 5.69638 17.4334 5.26515L17.1774 5.42154C17.4321 5.83855 17.6952 6.36583 17.9994 6.99316C18.3027 7.61852 18.6455 8.34056 19.057 9.13877L19.3236 9.00132ZM17.4334 5.26518C16.5919 3.88681 15.7019 3.05172 14.3219 2.12149L14.1542 2.37025C15.5076 3.28251 16.3634 4.08828 17.1773 5.4215L17.4334 5.26518ZM14.088 2.24587V2.25282H14.388V2.24587H14.088ZM4.36528 4.50566C2.82794 6.31238 2.6835 6.27401 0.33682 9.3298L0.574755 9.51252C2.91605 6.46375 3.04287 6.52272 4.59376 4.70008L4.36528 4.50566ZM0.355464 9.30965C0.189791 9.4587 0.173796 9.7136 0.327103 9.88327L0.549696 9.68214C0.508249 9.63627 0.513122 9.57135 0.556111 9.53267L0.355464 9.30965ZM0.340068 9.89598C0.51073 10.0441 0.749418 10.0984 0.997365 10.0992C1.24816 10.1 1.52879 10.0463 1.8066 9.95626C2.3593 9.77718 2.93367 9.44331 3.27135 9.05354L3.04461 8.8571C2.75282 9.1939 2.23171 9.50317 1.71414 9.67086C1.45682 9.75424 1.20861 9.79984 0.998284 9.7992C0.785106 9.79854 0.630376 9.75073 0.536731 9.66943L0.340068 9.89598ZM3.00949 8.9341C2.94439 9.3896 2.88278 9.6856 2.88278 10.1721H3.18278C3.18278 9.71295 3.23941 9.44577 3.30647 8.97655L3.00949 8.9341ZM2.88278 10.1721V13.2556H3.18278V10.1721H2.88278ZM2.88278 13.2556C2.88278 13.5123 3.0891 13.7185 3.34578 13.7185V13.4185C3.25468 13.4185 3.18278 13.3466 3.18278 13.2556H2.88278ZM3.43149 13.6916C4.27739 13.1026 4.84926 12.714 5.20139 12.3358C5.38124 12.1426 5.50883 11.9474 5.58892 11.7243C5.66869 11.5021 5.69822 11.2608 5.69368 10.9796L5.39372 10.9845C5.39788 11.2422 5.37046 11.445 5.30656 11.623C5.24297 11.8001 5.14016 11.9613 4.98181 12.1314C4.65751 12.4797 4.12173 12.8455 3.26007 13.4454L3.43149 13.6916ZM5.6937 10.9821C5.6937 10.9295 5.68918 10.8728 5.67004 10.8238C5.64865 10.769 5.59591 10.6989 5.49882 10.6944C5.4269 10.691 5.36994 10.7287 5.3406 10.7506C5.30531 10.7771 5.27046 10.8119 5.23745 10.8485C5.10866 10.9916 4.93123 11.2527 4.74521 11.5133C4.55371 11.7815 4.34662 12.0591 4.14632 12.2602C4.04613 12.3608 3.95338 12.4363 3.87072 12.4821C3.78745 12.5283 3.72913 12.5364 3.68901 12.5282L3.62854 12.822C3.76578 12.8502 3.89939 12.8093 4.01619 12.7445C4.13361 12.6794 4.24909 12.5821 4.35887 12.4719C4.57851 12.2514 4.7983 11.9552 4.98936 11.6876C5.18589 11.4123 5.34667 11.1756 5.46044 11.0492C5.48808 11.0185 5.5079 11.0002 5.52049 10.9907C5.53904 10.9768 5.52319 10.9958 5.4848 10.994C5.42123 10.9911 5.39444 10.9427 5.39061 10.933C5.38904 10.9289 5.3937 10.9404 5.3937 10.9821H5.6937ZM3.80877 12.6751V10.1721H3.50877V12.6751H3.80877ZM3.80877 10.1721C3.80877 9.49794 3.8157 9.17005 3.95476 8.54281L3.66187 8.47788C3.51576 9.13691 3.50877 9.49039 3.50877 10.1721H3.80877ZM3.95276 8.5508C4.00943 8.34847 3.98485 8.14985 3.85055 8.03149C3.71002 7.90764 3.5163 7.9283 3.36302 8.03122L3.53024 8.28029C3.60997 8.22676 3.64578 8.25091 3.65219 8.25655C3.66482 8.26768 3.70458 8.32458 3.66388 8.46989L3.95276 8.5508ZM3.35295 8.0386L3.10951 8.23328L3.29687 8.46758L3.54032 8.2729L3.35295 8.0386ZM3.11816 8.22686C2.77227 8.4649 2.29803 8.78096 1.8882 8.99537C1.68177 9.10336 1.50166 9.18017 1.36713 9.21138C1.29938 9.22709 1.25492 9.22835 1.22938 9.22393C1.21776 9.22192 1.21353 9.21931 1.21337 9.2192C1.2133 9.21916 1.21377 9.21947 1.21441 9.22012C1.21505 9.22079 1.21528 9.22121 1.21515 9.22099L0.955363 9.37103C1.00699 9.46042 1.09169 9.50456 1.1782 9.51953C1.25996 9.53369 1.34904 9.52354 1.43492 9.50362C1.60762 9.46356 1.81506 9.3722 2.02726 9.26119C2.4547 9.03757 2.94205 8.71223 3.28823 8.474L3.11816 8.22686ZM1.19267 9.40071C2.90948 7.6393 2.9454 7.57533 3.66346 6.62995L3.42456 6.4485C2.71675 7.38037 2.69007 7.4346 0.977839 9.19131L1.19267 9.40071ZM3.65819 6.6365C4.03566 6.1934 4.13573 6.05323 4.35141 5.79384L4.12074 5.60203C3.89127 5.87801 3.8105 5.99509 3.42982 6.44195L3.65819 6.6365ZM4.34212 5.80402C4.40232 5.74385 4.45105 5.64719 4.48894 5.55397C4.52921 5.45485 4.56571 5.33775 4.59409 5.21923C4.62246 5.10079 4.64362 4.97717 4.65173 4.86496C4.65949 4.7577 4.6569 4.64247 4.62402 4.55176L4.34197 4.65398C4.35257 4.68321 4.35954 4.74615 4.35251 4.84333C4.34584 4.93559 4.32788 5.04271 4.30234 5.14936C4.27682 5.25594 4.24463 5.35829 4.21101 5.44103C4.17499 5.52967 4.14461 5.57728 4.13003 5.59185L4.34212 5.80402ZM4.483 4.45287H4.47952V4.75287H4.483V4.45287Z" fill="white"/>
</svg>
