<svg width="22" height="33" viewBox="0 0 22 33" fill="none" xmlns="http://www.w3.org/2000/svg">
<path fill-rule="evenodd" clip-rule="evenodd" d="M21.4918 30.0814L21.0154 27.6862L20.1459 27.8043L20.6293 30.2378C20.6537 30.4047 20.678 30.7941 20.4763 31.0235C20.1355 31.4163 19.4017 31.2147 17.5272 31.2668V27.1473C17.5272 26.5737 16.6543 26.5737 16.6543 27.1473V31.2668H4.88566V27.1473C4.88566 26.5737 4.00927 26.5737 4.00927 27.1473V31.2668H1.80092C1.09146 31.2668 0.795852 30.954 0.893228 30.2344L2.16608 23.8517C2.44082 22.4681 3.72758 22.2456 3.79365 22.2143L8.15472 21.1401C8.8607 23.8134 12.6792 23.7926 13.3748 21.1366L17.7324 22.2178C17.8054 22.2525 19.0852 22.475 19.36 23.8552L19.739 25.7533C19.7599 25.861 20.0938 27.5992 20.1494 27.8043L21.0188 27.6862C20.9736 27.5123 20.6189 25.6768 20.598 25.5829L20.219 23.6848C19.9373 22.2769 18.9148 21.7033 18.3271 21.4842C18.0176 21.373 16.5986 21.0462 13.4617 20.2606V19.5861C13.2635 19.1307 13.2218 19.0925 12.8079 18.9187C11.3055 19.607 9.74752 19.4714 8.48163 18.79C8.16168 19.3532 8.2834 19.2281 8.0643 19.5618V20.2675L3.55717 21.38C3.53282 21.3904 1.70006 21.7276 1.31056 23.6883L0.0377076 30.0849C-0.181389 31.319 0.573278 32.1498 1.80787 32.1498H19.7286C20.3546 32.1498 20.831 31.9656 21.144 31.6041C21.5022 31.1904 21.5892 30.5507 21.4953 30.0849L21.4918 30.0814ZM12.5819 20.5734C12.5227 21.5294 11.7229 22.2803 10.763 22.2803C9.80664 22.2803 9.01024 21.5329 8.94417 20.5839C8.93721 20.4552 8.94069 20.2293 8.94069 19.9477C10.0849 20.3301 11.3716 20.3544 12.5888 19.9581C12.5853 20.2571 12.5923 20.4518 12.5853 20.5769L12.5819 20.5734Z" fill="white"/>
<path d="M15.3438 16.2321C16.1368 16.0165 16.8706 15.1474 17.2322 13.9689C16.9436 13.6978 16.6862 13.3641 16.4776 12.9643C16.5193 13.1103 16.5228 13.291 16.488 13.4405C16.3385 14.0698 15.7472 15.429 14.9578 15.429C14.7248 15.4256 14.5266 15.6098 14.5196 15.8462C14.5022 16.1973 14.3353 17.9877 12.8746 18.895C11.7687 19.632 9.77251 19.5903 8.65964 18.8881C7.21986 17.9807 7.02859 16.1904 7.00424 15.8427C6.99381 15.5994 6.79558 15.4325 6.55562 15.4325C5.65141 15.4325 4.56288 13.0964 5.20626 12.7453C5.5123 12.5819 5.62358 13.1381 6.05482 12.9956C6.37477 12.8878 6.40607 12.5089 6.39216 12.2238C6.32261 11.7614 6.30174 11.6085 6.35391 10.8471C6.29826 11.087 5.34884 10.9062 5.08454 11.0279C5.17496 11.452 5.08801 11.4312 5.21321 11.8657C4.34726 11.9526 4.02383 12.8774 4.20467 13.6422C4.52115 14.991 5.32102 16.0061 6.18698 16.239C6.29131 16.9517 6.65299 18.4431 7.90497 19.406C8.35708 19.7398 8.71876 19.8719 8.90656 19.9657C11.8209 21.0886 14.9195 19.4338 15.3404 16.2356L15.3438 16.2321ZM15.9803 10.6907L15.7855 10.5586C15.7333 11.3755 15.5421 12.1821 15.1804 12.8322C15.3195 13.1485 15.8133 13.1798 15.9663 12.8183C16.1472 12.641 16.2828 12.6549 16.3767 12.7592C16.0776 12.1125 15.8272 11.4103 15.9803 10.6872V10.6907Z" fill="white"/>
<path d="M14.237 2.25282C11.3053 0.271274 8.27622 0.910932 7.72326 2.30497C6.19306 1.43587 5.35841 3.41742 3.91167 5.26339C3.54303 5.89261 4.37073 5.48935 4.37073 5.45806C4.72198 5.04785 6.6243 1.60621 7.61893 3.04544C7.77543 3.19145 8.03278 3.1393 8.11972 2.94115C9.44126 -0.104177 13.538 2.41969 13.9832 2.70128C17.7078 5.08609 17.9339 8.77803 20.0344 11.2497C19.7249 11.5626 18.1843 10.8604 17.7426 10.7422C17.6035 10.6588 17.1618 10.4467 17.1549 10.9821C17.4539 12.6264 18.2086 13.7249 18.8416 15.1503C17.3983 14.9938 16.0768 12.8315 16.1394 11.507C16.1394 9.86962 15.5168 8.40953 14.3866 7.39442C14.2092 7.23451 13.924 7.32837 13.8719 7.56129C13.5971 8.84408 13.6563 10.1616 14.0388 11.4097C13.1798 10.9821 12.3869 10.4467 11.674 9.80357C11.4514 9.60193 11.0967 9.80704 11.1593 10.1025C11.2045 10.3111 11.2566 10.5197 11.3192 10.7248C9.88988 9.95305 8.77701 8.72936 8.14754 7.21017C8.07103 7.02245 7.83455 6.95987 7.67457 7.07807C6.27305 8.11751 5.47317 9.77575 5.52881 11.5174C5.54273 11.9276 6.16524 11.9068 6.15133 11.4966C6.10612 10.0921 6.69385 8.74674 7.74065 7.82549C8.56487 9.54284 9.97335 10.8813 11.7505 11.6148C12.0078 11.7191 12.2652 11.4618 12.1574 11.208L12.0426 10.9125C12.7834 11.4688 13.5937 11.9276 14.4631 12.2857C14.7204 12.39 14.9778 12.1328 14.87 11.879C14.3935 10.7318 14.2301 9.50112 14.3831 8.28438C15.1169 9.14305 15.5134 10.3563 15.5134 11.5974C15.5134 14.4202 17.753 16.0228 19.1476 15.7413C19.3215 15.7413 19.4606 15.6022 19.4606 15.4284C19.2415 14.0239 18.2086 12.7585 17.8782 11.4444C17.8782 11.4444 17.8504 11.3888 17.8434 11.2949C18.2503 11.7538 19.4502 11.8998 20.65 11.7121C20.7682 11.6356 20.7995 11.4757 20.7195 11.3575C20.2083 10.5962 19.6101 9.88352 19.1893 9.07005C18.3686 7.47785 17.8226 6.19159 17.3044 5.34334C16.4767 3.98755 15.6038 3.16712 14.237 2.24587V2.25282ZM4.47854 4.60287C2.93443 6.41755 2.7988 6.36888 0.454811 9.42116C0.350479 9.51502 0.340046 9.67494 0.437423 9.78271C0.966037 10.2416 2.52754 9.68189 3.15701 8.95532C3.09093 9.41769 3.03181 9.69927 3.03181 10.1721V13.2556C3.03181 13.4295 3.17092 13.5685 3.3448 13.5685C5.05237 12.3796 5.56011 12.0598 5.54273 10.9821C5.54273 10.2277 4.36725 12.8211 3.6578 12.6751V10.1721C3.6578 9.49417 3.66475 9.15348 3.80734 8.51034C3.90472 8.1627 3.67866 7.99931 3.44566 8.15575L3.20222 8.35043C2.51015 8.8267 1.27903 9.63322 1.08428 9.29601C2.7988 7.53695 2.8301 7.47785 3.54303 6.53923C3.9221 6.09425 4.01253 5.96562 4.2351 5.69794C4.38464 5.54845 4.56896 4.84274 4.48202 4.60287H4.47854Z" fill="white"/>
<path d="M14.237 2.25282L14.153 2.3771L14.387 2.53526V2.25282H14.237ZM7.72326 2.30497L7.64918 2.4354L7.79911 2.52056L7.86269 2.36028L7.72326 2.30497ZM3.91167 5.26339L3.79361 5.17086L3.78736 5.17883L3.78225 5.18756L3.91167 5.26339ZM4.37073 5.45806L4.25679 5.3605L4.22073 5.40262V5.45806H4.37073ZM7.61893 3.04544L7.49553 3.13072L7.50475 3.14406L7.5166 3.15512L7.61893 3.04544ZM8.11972 2.94115L8.25708 3.00142L8.25732 3.00086L8.11972 2.94115ZM13.9832 2.70128L14.0641 2.57495L14.0634 2.57451L13.9832 2.70128ZM20.0344 11.2497L20.1411 11.3552L20.2378 11.2574L20.1487 11.1526L20.0344 11.2497ZM17.7426 10.7422L17.6654 10.8708L17.6835 10.8817L17.7038 10.8871L17.7426 10.7422ZM17.1549 10.9821L17.0049 10.9801L17.0047 10.9946L17.0073 11.0089L17.1549 10.9821ZM18.8416 15.1503L18.8254 15.2994L19.0844 15.3275L18.9786 15.0894L18.8416 15.1503ZM16.1394 11.507L16.2894 11.5141V11.507H16.1394ZM14.3866 7.39442L14.2861 7.50582L14.2864 7.50602L14.3866 7.39442ZM13.8719 7.56129L13.7255 7.5285L13.7252 7.52987L13.8719 7.56129ZM14.0388 11.4097L13.972 11.5439L14.2846 11.6995L14.1822 11.3657L14.0388 11.4097ZM11.674 9.80357L11.5733 9.91473L11.5735 9.91494L11.674 9.80357ZM11.1593 10.1025L11.0125 10.1336L11.0127 10.1343L11.1593 10.1025ZM11.3192 10.7248L11.248 10.8568L11.5693 11.0303L11.4627 10.681L11.3192 10.7248ZM8.14754 7.21017L8.00863 7.26679L8.00897 7.26759L8.14754 7.21017ZM7.67457 7.07807L7.58544 6.95742L7.58522 6.95759L7.67457 7.07807ZM5.52881 11.5174L5.37889 11.5222L5.3789 11.5225L5.52881 11.5174ZM6.15133 11.4966L6.00141 11.5014L6.00141 11.5017L6.15133 11.4966ZM7.74065 7.82549L7.87588 7.76059L7.7902 7.58207L7.64155 7.71289L7.74065 7.82549ZM11.7505 11.6148L11.6932 11.7534L11.6941 11.7538L11.7505 11.6148ZM12.1574 11.208L12.0175 11.2624L12.0193 11.2667L12.1574 11.208ZM12.0426 10.9125L12.1327 10.7926L11.7126 10.4772L11.9028 10.9668L12.0426 10.9125ZM14.4631 12.2857L14.406 12.4244L14.4068 12.4247L14.4631 12.2857ZM14.87 11.879L14.7315 11.9365L14.7319 11.9376L14.87 11.879ZM14.3831 8.28438L14.4971 8.18693L14.2766 7.9289L14.2343 8.26566L14.3831 8.28438ZM19.1476 15.7413V15.5913H19.1326L19.1179 15.5942L19.1476 15.7413ZM19.4606 15.4284H19.6106V15.4168L19.6088 15.4053L19.4606 15.4284ZM17.8782 11.4444L18.0237 11.4079L18.0197 11.392L18.0124 11.3773L17.8782 11.4444ZM17.8434 11.2949L17.9557 11.1954L17.661 10.8631L17.6939 11.306L17.8434 11.2949ZM20.65 11.7121L20.6732 11.8603L20.7047 11.8554L20.7314 11.8381L20.65 11.7121ZM20.7195 11.3575L20.595 11.4411L20.5953 11.4416L20.7195 11.3575ZM19.1893 9.07005L19.056 9.13877L19.0561 9.13896L19.1893 9.07005ZM17.3044 5.34334L17.1764 5.4215L17.1764 5.42154L17.3044 5.34334ZM14.237 2.24587L14.3209 2.12149L14.087 1.96387V2.24587H14.237ZM4.47854 4.60287V4.45287H4.40922L4.3643 4.50566L4.47854 4.60287ZM0.454811 9.42116L0.555135 9.53267L0.565383 9.52346L0.573779 9.51252L0.454811 9.42116ZM0.437423 9.78271L0.326126 9.88327L0.332223 9.89002L0.339091 9.89598L0.437423 9.78271ZM3.15701 8.95532L3.3055 8.97655L3.37767 8.47155L3.04363 8.8571L3.15701 8.95532ZM3.3448 13.5685V13.7185H3.39188L3.43051 13.6916L3.3448 13.5685ZM5.54273 10.9821H5.39271L5.39275 10.9845L5.54273 10.9821ZM3.6578 12.6751H3.5078V12.7973L3.62756 12.822L3.6578 12.6751ZM3.80734 8.51034L3.66268 8.46983L3.6609 8.47788L3.80734 8.51034ZM3.44566 8.15575L3.36175 8.03078L3.35197 8.0386L3.44566 8.15575ZM3.20222 8.35043L3.28747 8.47432L3.2959 8.46758L3.20222 8.35043ZM1.08428 9.29601L0.976863 9.19131L0.897575 9.27266L0.954387 9.37103L1.08428 9.29601ZM3.54303 6.53923L3.42867 6.4418L3.42358 6.4485L3.54303 6.53923ZM4.2351 5.69794L4.1286 5.5914L4.11976 5.60203L4.2351 5.69794ZM4.48202 4.60287L4.62304 4.55176L4.5872 4.45287H4.48202V4.60287ZM14.321 2.12855C12.8293 1.1203 11.3061 0.774364 10.0773 0.863444C8.86021 0.951674 7.89152 1.47395 7.58383 2.24966L7.86269 2.36028C8.10795 1.74195 8.9303 1.24738 10.099 1.16266C11.2559 1.07879 12.713 1.40379 14.153 2.3771L14.321 2.12855ZM7.79734 2.17454C7.38544 1.94059 7.00461 1.89143 6.6435 1.99701C6.2899 2.10038 5.97467 2.34666 5.6769 2.66326C5.37844 2.98059 5.08516 3.38228 4.77995 3.81349C4.47283 4.24741 4.15237 4.71309 3.79361 5.17086L4.02973 5.35591C4.39434 4.8907 4.72073 4.41645 5.02482 3.98681C5.33083 3.55446 5.61312 3.16896 5.89543 2.86879C6.17844 2.56789 6.44921 2.36637 6.72768 2.28495C6.99865 2.20573 7.29598 2.23479 7.64918 2.4354L7.79734 2.17454ZM3.78225 5.18756C3.73265 5.27223 3.6978 5.34829 3.68029 5.4163C3.66326 5.48248 3.65774 5.56066 3.69443 5.63215C3.73401 5.70928 3.8041 5.74367 3.86345 5.75641C3.91989 5.76853 3.97817 5.7644 4.02696 5.75649C4.12591 5.74045 4.23147 5.70093 4.30879 5.66609C4.34828 5.64829 4.38404 5.63007 4.41151 5.61403C4.42472 5.60632 4.43922 5.59726 4.45203 5.58757C4.45795 5.58309 4.46791 5.5752 4.47789 5.56454C4.48281 5.55928 4.49111 5.5498 4.49898 5.53659C4.50558 5.52552 4.52073 5.49738 4.52073 5.45806H4.22073C4.22073 5.41972 4.23547 5.39275 4.24128 5.383C4.24836 5.37113 4.25548 5.36315 4.25885 5.35955C4.26271 5.35542 4.26589 5.35259 4.26753 5.35117C4.26931 5.34964 4.27056 5.34868 4.27102 5.34833C4.27189 5.34767 4.26896 5.34987 4.26026 5.35495C4.24391 5.3645 4.21788 5.378 4.18553 5.39258C4.11918 5.42248 4.04086 5.45032 3.97896 5.46035C3.94734 5.46548 3.93095 5.46407 3.9264 5.46309C3.92475 5.46274 3.94751 5.46823 3.96133 5.49517C3.97226 5.51647 3.96256 5.52317 3.97082 5.49109C3.97861 5.46083 3.99854 5.41185 4.0411 5.33921L3.78225 5.18756ZM4.48467 5.55562C4.53557 5.49618 4.60907 5.38914 4.69492 5.26115C4.78353 5.12906 4.88922 4.96856 5.01063 4.78997C5.25297 4.43349 5.55058 4.01601 5.86618 3.65729C6.18565 3.29417 6.50771 3.00999 6.79585 2.89724C6.93628 2.84228 7.05877 2.83196 7.16647 2.86315C7.27344 2.89413 7.38571 2.97181 7.49553 3.13072L7.74233 2.96016C7.60349 2.75926 7.43874 2.62967 7.24992 2.57499C7.06183 2.52052 6.86978 2.54615 6.68652 2.61787C6.32725 2.75846 5.96529 3.09047 5.64094 3.45913C5.31273 3.83219 5.00674 4.26209 4.76253 4.62131C4.64066 4.80058 4.53233 4.965 4.44578 5.09403C4.35649 5.22715 4.29371 5.31739 4.25679 5.3605L4.48467 5.55562ZM7.5166 3.15512C7.74873 3.37169 8.12863 3.29417 8.25708 3.00142L7.98236 2.88088C7.93692 2.98444 7.80213 3.01121 7.72126 2.93576L7.5166 3.15512ZM8.25732 3.00086C8.57146 2.27698 9.04322 1.89529 9.57712 1.722C10.118 1.54643 10.7377 1.5802 11.3466 1.71983C12.5652 1.99928 13.6826 2.68864 13.903 2.82804L14.0634 2.57451C13.8386 2.43233 12.685 1.71896 11.4136 1.42742C10.7775 1.28154 10.0973 1.23774 9.4845 1.43665C8.86467 1.63783 8.32875 2.08266 7.98212 2.88144L8.25732 3.00086ZM13.9023 2.8276C15.7328 3.99963 16.7053 5.49233 17.4844 7.01137C17.6794 7.39175 17.862 7.77312 18.0434 8.1523C18.2245 8.53085 18.4045 8.90744 18.593 9.27509C18.9701 10.0105 19.3842 10.7162 19.9201 11.3469L20.1487 11.1526C19.6344 10.5474 19.2325 9.86479 18.86 9.13822C18.6737 8.7749 18.4955 8.40214 18.3141 8.02283C18.1329 7.64414 17.9486 7.25912 17.7513 6.87447C16.961 5.33342 15.9582 3.78774 14.0641 2.57495L13.9023 2.8276ZM19.9278 11.1443C19.921 11.1511 19.8994 11.1661 19.8437 11.1742C19.7892 11.182 19.7165 11.1812 19.6259 11.1702C19.4451 11.1482 19.2203 11.0894 18.9832 11.0146C18.7474 10.9402 18.5069 10.8522 18.2952 10.7745C18.0876 10.6984 17.9001 10.6291 17.7814 10.5973L17.7038 10.8871C17.8059 10.9144 17.9766 10.9772 18.1918 11.0562C18.4029 11.1336 18.6496 11.2239 18.8929 11.3007C19.1349 11.3771 19.3809 11.4426 19.5898 11.468C19.6941 11.4806 19.7959 11.4842 19.8867 11.4711C19.9762 11.4581 20.0705 11.4266 20.1411 11.3552L19.9278 11.1443ZM17.8197 10.6136C17.7798 10.5896 17.718 10.5562 17.6464 10.529C17.5765 10.5024 17.4871 10.4777 17.3951 10.4801C17.2991 10.4827 17.1931 10.5159 17.1143 10.6116C17.0394 10.7025 17.0068 10.8287 17.0049 10.9801L17.3048 10.984C17.3064 10.8677 17.3316 10.8197 17.3458 10.8024C17.3561 10.7899 17.3705 10.7809 17.4032 10.78C17.4399 10.779 17.4875 10.7895 17.5397 10.8094C17.5903 10.8286 17.6359 10.8531 17.6654 10.8708L17.8197 10.6136ZM17.0073 11.0089C17.1599 11.848 17.4287 12.5464 17.7369 13.2114C17.8907 13.5431 18.0549 13.8679 18.2189 14.196C18.3832 14.5249 18.5477 14.8582 18.7045 15.2112L18.9786 15.0894C18.8189 14.7297 18.6518 14.3912 18.4872 14.0619C18.3223 13.7317 18.1605 13.4119 18.0091 13.0852C17.707 12.4335 17.4489 11.7605 17.3024 10.9552L17.0073 11.0089ZM18.8577 15.0011C18.2003 14.9299 17.5425 14.3932 17.049 13.6812C16.5572 12.9715 16.26 12.1321 16.2892 11.5141L15.9895 11.4999C15.9561 12.2064 16.2884 13.1104 16.8025 13.8521C17.315 14.5915 18.0396 15.2142 18.8254 15.2994L18.8577 15.0011ZM16.2894 11.507C16.2894 9.83074 15.6514 8.32876 14.4868 7.28282L14.2864 7.50602C15.3823 8.4903 15.9894 9.90849 15.9894 11.507H16.2894ZM14.487 7.28302C14.2224 7.04445 13.8022 7.18618 13.7255 7.5285L14.0183 7.59407C14.0459 7.47056 14.196 7.42456 14.2861 7.50582L14.487 7.28302ZM13.7252 7.52987C13.4451 8.83776 13.5054 10.1813 13.8954 11.4536L14.1822 11.3657C13.8071 10.142 13.7492 8.8504 14.0186 7.5927L13.7252 7.52987ZM14.1057 11.2754C13.2585 10.8537 12.477 10.3259 11.7744 9.69219L11.5735 9.91494C12.2968 10.5675 13.1011 11.1105 13.972 11.5439L14.1057 11.2754ZM11.7747 9.6924C11.4425 9.39149 10.9203 9.69814 11.0125 10.1336L11.306 10.0715C11.2731 9.91595 11.4603 9.81238 11.5733 9.91473L11.7747 9.6924ZM11.0127 10.1343C11.0585 10.3459 11.1117 10.5587 11.1758 10.7686L11.4627 10.681C11.4016 10.4808 11.3504 10.2763 11.3059 10.0708L11.0127 10.1343ZM11.3905 10.5928C9.99133 9.83735 8.90232 8.63991 8.28612 7.15275L8.00897 7.26759C8.65171 8.8188 9.78844 10.0687 11.248 10.8568L11.3905 10.5928ZM8.28645 7.15356C8.17228 6.87343 7.82256 6.78223 7.58544 6.95742L7.76371 7.19871C7.84654 7.13751 7.96979 7.17146 8.00864 7.26678L8.28645 7.15356ZM7.58522 6.95759C6.14412 8.02638 5.32168 9.73146 5.37889 11.5222L5.67874 11.5126C5.62466 9.82005 6.40197 8.20865 7.76393 7.19855L7.58522 6.95759ZM5.3789 11.5225C5.38378 11.6664 5.44392 11.7831 5.53875 11.8609C5.63061 11.9363 5.74624 11.9682 5.85553 11.9646C5.96482 11.9609 6.07805 11.9213 6.16463 11.8399C6.25401 11.7558 6.30612 11.6353 6.30124 11.4915L6.00141 11.5017C6.00349 11.5629 5.983 11.5989 5.95914 11.6213C5.93248 11.6464 5.89182 11.6632 5.84548 11.6647C5.79914 11.6663 5.75741 11.6522 5.72906 11.629C5.70369 11.6081 5.68081 11.5736 5.67873 11.5123L5.3789 11.5225ZM6.30125 11.4917C6.25749 10.1323 6.82641 8.8299 7.83975 7.9381L7.64155 7.71289C6.5613 8.66358 5.95475 10.0519 6.00141 11.5014L6.30125 11.4917ZM7.60542 7.8904C8.44561 9.64101 9.88182 11.0057 11.6932 11.7534L11.8077 11.4761C10.0649 10.7568 8.68413 9.44466 7.87588 7.76059L7.60542 7.8904ZM11.6941 11.7538C12.0713 11.9066 12.4573 11.5304 12.2954 11.1494L12.0193 11.2667C12.0731 11.3933 11.9444 11.5315 11.8068 11.4758L11.6941 11.7538ZM12.2972 11.1537L12.1824 10.8582L11.9028 10.9668L12.0175 11.2623L12.2972 11.1537ZM11.9525 11.0325C12.7037 11.5965 13.5251 12.0616 14.406 12.4244L14.5202 12.147C13.6622 11.7937 12.863 11.341 12.1327 10.7926L11.9525 11.0325ZM14.4068 12.4247C14.7839 12.5776 15.1699 12.2013 15.008 11.8203L14.7319 11.9376C14.7857 12.0642 14.657 12.2024 14.5194 12.1467L14.4068 12.4247ZM15.0085 11.8214C14.5421 10.6984 14.3822 9.49402 14.5319 8.3031L14.2343 8.26566C14.078 9.50822 14.245 10.7652 14.7315 11.9365L15.0085 11.8214ZM14.2691 8.38183C14.9759 9.20893 15.3634 10.3858 15.3634 11.5974H15.6634C15.6634 10.3268 15.2579 9.07717 14.4971 8.18693L14.2691 8.38183ZM15.3634 11.5974C15.3634 13.0503 15.9404 14.195 16.7026 14.9407C17.4591 15.6808 18.4156 16.0421 19.1773 15.8883L19.1179 15.5942C18.485 15.722 17.6244 15.4228 16.9124 14.7263C16.2062 14.0354 15.6634 12.9673 15.6634 11.5974H15.3634ZM19.1476 15.8913C19.4043 15.8913 19.6106 15.6851 19.6106 15.4284H19.3106C19.3106 15.5193 19.2387 15.5913 19.1476 15.5913V15.8913ZM19.6088 15.4053C19.4952 14.6773 19.1718 13.9908 18.8454 13.3356C18.5151 12.6726 18.1839 12.0452 18.0237 11.4079L17.7327 11.481C17.9029 12.1577 18.2534 12.82 18.5769 13.4694C18.9043 14.1266 19.2069 14.775 19.3124 15.4515L19.6088 15.4053ZM17.8782 11.4444C18.0124 11.3773 18.0124 11.3774 18.0124 11.3774C18.0124 11.3774 18.0124 11.3775 18.0125 11.3775C18.0125 11.3775 18.0125 11.3776 18.0125 11.3776C18.0126 11.3777 18.0126 11.3778 18.0127 11.3779C18.0127 11.3781 18.0128 11.3782 18.0129 11.3784C18.013 11.3787 18.0132 11.3789 18.0133 11.3791C18.0135 11.3796 18.0136 11.3798 18.0136 11.3798C18.0136 11.3799 18.0133 11.3792 18.0127 11.3778C18.0116 11.3749 18.0094 11.3693 18.0069 11.3611C18.0019 11.3447 17.9956 11.3183 17.993 11.2839L17.6939 11.306C17.6983 11.3655 17.7093 11.4138 17.72 11.4487C17.7253 11.4661 17.7305 11.4802 17.7348 11.4908C17.737 11.496 17.7389 11.5004 17.7404 11.5039C17.7412 11.5056 17.7419 11.5071 17.7425 11.5084C17.7429 11.509 17.7431 11.5096 17.7434 11.5101C17.7435 11.5104 17.7436 11.5107 17.7437 11.5109C17.7438 11.511 17.7439 11.5111 17.7439 11.5112C17.7439 11.5113 17.744 11.5113 17.744 11.5114C17.744 11.5114 17.744 11.5114 17.744 11.5115C17.744 11.5115 17.7441 11.5115 17.8782 11.4444ZM17.7312 11.3945C17.9718 11.6657 18.4197 11.823 18.9285 11.8945C19.4461 11.9673 20.061 11.9561 20.6732 11.8603L20.6268 11.5639C20.0391 11.6559 19.4542 11.6655 18.9702 11.5975C18.4775 11.5282 18.122 11.383 17.9557 11.1954L17.7312 11.3945ZM20.7314 11.8381C20.922 11.7148 20.9697 11.4595 20.8438 11.2734L20.5953 11.4416C20.6293 11.4919 20.6144 11.5565 20.5685 11.5862L20.7314 11.8381ZM20.8441 11.2739C20.5873 10.8915 20.3054 10.5166 20.0429 10.1465C19.7781 9.77331 19.5281 9.3985 19.3226 9.00113L19.0561 9.13896C19.2713 9.55507 19.5309 9.94333 19.7982 10.3201C20.0678 10.7001 20.3406 11.0622 20.595 11.4411L20.8441 11.2739ZM19.3227 9.00132C18.9134 8.20734 18.5728 7.49015 18.2684 6.86226C17.9648 6.23635 17.6958 5.69638 17.4324 5.26515L17.1764 5.42154C17.4311 5.83855 17.6942 6.36583 17.9984 6.99316C18.3017 7.61852 18.6445 8.34056 19.056 9.13877L19.3227 9.00132ZM17.4324 5.26518C16.5909 3.88681 15.701 3.05172 14.3209 2.12149L14.1532 2.37025C15.5066 3.28251 16.3625 4.08828 17.1764 5.4215L17.4324 5.26518ZM14.087 2.24587V2.25282H14.387V2.24587H14.087ZM4.3643 4.50566C2.82697 6.31238 2.68253 6.27401 0.335844 9.3298L0.573779 9.51252C2.91507 6.46375 3.04189 6.52272 4.59278 4.70008L4.3643 4.50566ZM0.354488 9.30965C0.188814 9.4587 0.17282 9.7136 0.326126 9.88327L0.548719 9.68214C0.507273 9.63627 0.512145 9.57135 0.555135 9.53267L0.354488 9.30965ZM0.339091 9.89598C0.509753 10.0441 0.748441 10.0984 0.996388 10.0992C1.24719 10.1 1.52781 10.0463 1.80563 9.95626C2.35833 9.77718 2.9327 9.44331 3.27038 9.05354L3.04363 8.8571C2.75185 9.1939 2.23073 9.50317 1.71316 9.67086C1.45584 9.75424 1.20763 9.79984 0.997307 9.7992C0.784129 9.79854 0.629399 9.75073 0.535754 9.66943L0.339091 9.89598ZM3.00851 8.9341C2.94342 9.3896 2.88181 9.6856 2.88181 10.1721H3.18181C3.18181 9.71295 3.23844 9.44577 3.3055 8.97655L3.00851 8.9341ZM2.88181 10.1721V13.2556H3.18181V10.1721H2.88181ZM2.88181 13.2556C2.88181 13.5123 3.08813 13.7185 3.3448 13.7185V13.4185C3.25371 13.4185 3.18181 13.3466 3.18181 13.2556H2.88181ZM3.43051 13.6916C4.27642 13.1026 4.84829 12.714 5.20041 12.3358C5.38026 12.1426 5.50785 11.9474 5.58794 11.7243C5.66772 11.5021 5.69724 11.2608 5.69271 10.9796L5.39275 10.9845C5.3969 11.2422 5.36948 11.445 5.30558 11.623C5.242 11.8001 5.13919 11.9613 4.98083 12.1314C4.65654 12.4797 4.12075 12.8455 3.25909 13.4454L3.43051 13.6916ZM5.69273 10.9821C5.69273 10.9295 5.6882 10.8728 5.66907 10.8238C5.64768 10.769 5.59493 10.6989 5.49784 10.6944C5.42592 10.691 5.36896 10.7287 5.33963 10.7506C5.30433 10.7771 5.26948 10.8119 5.23648 10.8485C5.10768 10.9916 4.93025 11.2527 4.74423 11.5133C4.55274 11.7815 4.34564 12.0591 4.14534 12.2602C4.04515 12.3608 3.95241 12.4363 3.86975 12.4821C3.78647 12.5283 3.72816 12.5364 3.68803 12.5282L3.62756 12.822C3.7648 12.8502 3.89842 12.8093 4.01522 12.7445C4.13263 12.6794 4.24812 12.5821 4.3579 12.4719C4.57753 12.2514 4.79733 11.9552 4.98839 11.6876C5.18491 11.4123 5.34569 11.1756 5.45947 11.0492C5.48711 11.0185 5.50692 11.0002 5.51951 10.9907C5.53807 10.9768 5.52221 10.9958 5.48382 10.994C5.42026 10.9911 5.39346 10.9427 5.38964 10.933C5.38806 10.9289 5.39273 10.9404 5.39273 10.9821H5.69273ZM3.8078 12.6751V10.1721H3.5078V12.6751H3.8078ZM3.8078 10.1721C3.8078 9.49794 3.81472 9.17005 3.95378 8.54281L3.6609 8.47788C3.51478 9.13691 3.5078 9.49039 3.5078 10.1721H3.8078ZM3.95178 8.5508C4.00846 8.34847 3.98387 8.14985 3.84957 8.03149C3.70904 7.90764 3.51533 7.9283 3.36204 8.03122L3.52927 8.28029C3.60899 8.22676 3.64481 8.25091 3.65121 8.25655C3.66385 8.26768 3.7036 8.32458 3.6629 8.46989L3.95178 8.5508ZM3.35197 8.0386L3.10853 8.23328L3.2959 8.46758L3.53934 8.2729L3.35197 8.0386ZM3.11718 8.22686C2.77129 8.4649 2.29705 8.78096 1.88722 8.99537C1.68079 9.10336 1.50068 9.18017 1.36615 9.21138C1.29841 9.22709 1.25395 9.22835 1.2284 9.22393C1.21678 9.22192 1.21256 9.21931 1.21239 9.2192C1.21232 9.21916 1.21279 9.21947 1.21343 9.22012C1.21407 9.22079 1.2143 9.22121 1.21417 9.22099L0.954387 9.37103C1.00601 9.46042 1.09071 9.50456 1.17723 9.51953C1.25899 9.53369 1.34807 9.52354 1.43394 9.50362C1.60664 9.46356 1.81409 9.3722 2.02629 9.26119C2.45372 9.03757 2.94107 8.71223 3.28725 8.474L3.11718 8.22686ZM1.1917 9.40071C2.9085 7.6393 2.94442 7.57533 3.66248 6.62995L3.42358 6.4485C2.71578 7.38037 2.6891 7.4346 0.976863 9.19131L1.1917 9.40071ZM3.65722 6.6365C4.03469 6.1934 4.13476 6.05323 4.35044 5.79384L4.11976 5.60203C3.8903 5.87801 3.80952 5.99509 3.42885 6.44195L3.65722 6.6365ZM4.34115 5.80402C4.40134 5.74385 4.45008 5.64719 4.48796 5.55397C4.52824 5.45485 4.56473 5.33775 4.59312 5.21923C4.62148 5.10079 4.64264 4.97717 4.65076 4.86496C4.65851 4.7577 4.65592 4.64247 4.62304 4.55176L4.341 4.65398C4.35159 4.68321 4.35856 4.74615 4.35154 4.84333C4.34487 4.93559 4.32691 5.04271 4.30137 5.14936C4.27584 5.25594 4.24365 5.35829 4.21003 5.44103C4.17401 5.52967 4.14363 5.57728 4.12905 5.59185L4.34115 5.80402ZM4.48202 4.45287H4.47854V4.75287H4.48202V4.45287Z" fill="white"/>
</svg>
