<svg width="29" height="29" viewBox="0 0 29 29" fill="none" xmlns="http://www.w3.org/2000/svg">
<path d="M24.1167 7.15122C25.1421 6.51005 25.8281 5.37406 25.8281 4.07812C25.8281 2.07939 24.2019 0.453125 22.2031 0.453125C20.2044 0.453125 18.5781 2.07939 18.5781 4.07812C18.5781 5.3718 19.2614 6.50597 20.2841 7.14759C19.1232 7.58667 18.1322 8.41816 17.4974 9.51427C17.1612 9.29087 16.7969 9.10827 16.4135 8.96327C17.439 8.32255 18.125 7.18656 18.125 5.89062C18.125 3.89189 16.4987 2.26562 14.5 2.26562C12.5013 2.26562 10.875 3.89189 10.875 5.89062C10.875 7.18656 11.561 8.32255 12.5865 8.96372C12.2031 9.10827 11.8388 9.29133 11.5026 9.51472C10.8678 8.41861 9.87722 7.58712 8.71631 7.14805C9.73856 6.50642 10.4219 5.3718 10.4219 4.07812C10.4219 2.07939 8.79561 0.453125 6.79688 0.453125C4.79814 0.453125 3.17188 2.07939 3.17188 4.07812C3.17188 5.37406 3.85791 6.51005 4.88333 7.15122C2.8275 7.92788 1.35938 9.9103 1.35938 12.2344V15.8594C1.35938 16.859 2.17228 17.6719 3.17188 17.6719H3.625V24.9219C3.625 25.9215 4.43791 26.7344 5.4375 26.7344C5.9817 26.7344 6.46428 26.4888 6.79688 26.1082C7.12947 26.4888 7.61205 26.7344 8.15625 26.7344C9.15584 26.7344 9.96875 25.9215 9.96875 24.9219V19.2324C10.2365 19.3883 10.5433 19.4844 10.875 19.4844H11.3281V26.7344C11.3281 27.734 12.141 28.5469 13.1406 28.5469C13.6848 28.5469 14.1674 28.3013 14.5 27.9207C14.8326 28.3013 15.3152 28.5469 15.8594 28.5469C16.859 28.5469 17.6719 27.734 17.6719 26.7344V19.4844H18.125C18.4567 19.4844 18.7635 19.3883 19.0312 19.2324V24.9219C19.0312 25.9215 19.8442 26.7344 20.8438 26.7344C21.388 26.7344 21.8705 26.4888 22.2031 26.1082C22.5357 26.4888 23.0183 26.7344 23.5625 26.7344C24.5621 26.7344 25.375 25.9215 25.375 24.9219V17.6719H25.8281C26.8277 17.6719 27.6406 16.859 27.6406 15.8594V12.2344C27.6406 9.9103 26.1725 7.92788 24.1167 7.15122ZM21.2262 7.82184C21.5443 7.75116 21.8692 7.70312 22.2031 7.70312C22.5407 7.70312 22.8688 7.743 23.186 7.81369L22.2031 9.18937L21.2262 7.82184ZM21.6109 9.91981L21.0187 10.512L20.1468 8.20836C20.2058 8.17845 20.2615 8.14266 20.3218 8.11502L21.6109 9.91981ZM22.7949 9.91981L24.0827 8.11683C24.143 8.14447 24.2023 8.17302 24.2612 8.20292L23.3867 10.512L22.7949 9.91981ZM19.4844 4.07812C19.4844 2.57873 20.7037 1.35938 22.2031 1.35938C23.7025 1.35938 24.9219 2.57873 24.9219 4.07812C24.9219 5.57752 23.7025 6.79688 22.2031 6.79688C20.7037 6.79688 19.4844 5.57752 19.4844 4.07812ZM14.9432 13.0187L14.5 13.683L14.0568 13.0187L14.3142 9.52469C14.3763 9.52242 14.4375 9.51562 14.5 9.51562C14.5625 9.51562 14.6237 9.52242 14.6858 9.52514L14.9432 13.0187ZM11.7812 5.89062C11.7812 4.39123 13.0006 3.17188 14.5 3.17188C15.9994 3.17188 17.2188 4.39123 17.2188 5.89062C17.2188 7.39002 15.9994 8.60938 14.5 8.60938C13.0006 8.60938 11.7812 7.39002 11.7812 5.89062ZM6.79688 7.70312C7.07827 7.70312 7.35286 7.73802 7.62292 7.78831C7.48064 8.26908 7.15892 8.60938 6.79688 8.60938C6.43347 8.60938 6.11039 8.26636 5.96902 7.78242C6.23772 7.73258 6.51367 7.70312 6.79688 7.70312ZM4.07812 4.07812C4.07812 2.57873 5.29748 1.35938 6.79688 1.35938C8.29627 1.35938 9.51562 2.57873 9.51562 4.07812C9.51562 5.57752 8.29627 6.79688 6.79688 6.79688C5.29748 6.79688 4.07812 5.57752 4.07812 4.07812ZM9.0625 24.9219C9.0625 25.4217 8.65605 25.8281 8.15625 25.8281C7.65645 25.8281 7.25 25.4217 7.25 24.9219V15.4062H6.34375V24.9219C6.34375 25.4217 5.9373 25.8281 5.4375 25.8281C4.9377 25.8281 4.53125 25.4217 4.53125 24.9219V10.4219H3.625V16.7656H3.17188C2.67208 16.7656 2.26562 16.3592 2.26562 15.8594V12.2344C2.26562 10.3353 3.44148 8.70816 5.10219 8.03527C5.3573 8.90662 6.0175 9.51562 6.79688 9.51562C7.57398 9.51562 8.23192 8.91025 8.4893 8.04297C9.45672 8.43447 10.2701 9.15176 10.778 10.0938C9.72451 11.0857 9.0625 12.489 9.0625 14.0469V15.4307V17.6719V24.9219ZM18.125 18.5781H17.6719V12.2344H16.7656V26.7344C16.7656 27.2342 16.3592 27.6406 15.8594 27.6406C15.3596 27.6406 14.9531 27.2342 14.9531 26.7344V17.2188H14.0469V26.7344C14.0469 27.2342 13.6404 27.6406 13.1406 27.6406C12.6408 27.6406 12.2344 27.2342 12.2344 26.7344V12.2344H11.3281V18.5781H10.875C10.3752 18.5781 9.96875 18.1717 9.96875 17.6719V15.4307V14.0469C9.96875 11.9299 11.4305 10.1523 13.3962 9.65745L13.1307 13.2625L14.5 15.317L15.8693 13.2625L15.6038 9.65745C17.5695 10.1523 19.0312 11.9299 19.0312 14.0469V15.4062V17.6719C19.0312 18.1717 18.6248 18.5781 18.125 18.5781ZM26.7344 15.8594C26.7344 16.3592 26.3279 16.7656 25.8281 16.7656H25.375V10.875H24.4688V24.9219C24.4688 25.4217 24.0623 25.8281 23.5625 25.8281C23.0627 25.8281 22.6562 25.4217 22.6562 24.9219V15.4062H21.75V24.9219C21.75 25.4217 21.3435 25.8281 20.8438 25.8281C20.344 25.8281 19.9375 25.4217 19.9375 24.9219V17.6719V15.4062V14.0469C19.9375 12.489 19.2755 11.0857 18.222 10.0938C18.5133 9.55323 18.9026 9.08606 19.3684 8.71223L20.6684 12.1447L22.2031 10.6099L23.7379 12.1447L25.0397 8.70634C26.0715 9.53783 26.7344 10.8093 26.7344 12.2344V15.8594Z" fill="white"/>
</svg>
