<svg width="21" height="30" viewBox="0 0 21 30" fill="none" xmlns="http://www.w3.org/2000/svg">
<path fill-rule="evenodd" clip-rule="evenodd" d="M20.1921 28.0726L19.7485 25.8427L18.9391 25.9527L19.3891 28.2182C19.4118 28.3736 19.4344 28.7361 19.2466 28.9497C18.9293 29.3154 18.2462 29.1277 16.5011 29.1762V25.341C16.5011 24.807 15.6884 24.807 15.6884 25.341V29.1762H4.73205V25.341C4.73205 24.807 3.91615 24.807 3.91615 25.341V29.1762H1.86021C1.19972 29.1762 0.924517 28.8849 1.01517 28.215L2.20017 22.2728C2.45595 20.9847 3.6539 20.7776 3.71541 20.7485L7.77548 19.7484C8.43274 22.2372 11.9877 22.2178 12.6353 19.7452L16.6921 20.7517C16.7601 20.7841 17.9516 20.9912 18.2073 22.2761L18.5603 24.0432C18.5797 24.1435 18.8905 25.7617 18.9423 25.9527L19.7517 25.8427C19.7096 25.6808 19.3794 23.972 19.36 23.8846L19.0071 22.1175C18.7448 20.8067 17.7929 20.2727 17.2457 20.0688C16.9576 19.9652 15.6366 19.661 12.7162 18.9296V18.3017C12.5317 17.8777 12.4928 17.8421 12.1075 17.6803C10.7088 18.3211 9.25835 18.1949 8.07983 17.5605C7.78196 18.0849 7.89528 17.9683 7.6913 18.279V18.936L3.49525 19.9717C3.47258 19.9814 1.76632 20.2954 1.4037 22.1207L0.218699 28.0758C0.0147239 29.2248 0.717304 29.9983 1.86669 29.9983H18.5505C19.1333 29.9983 19.5769 29.8267 19.8683 29.4901C20.2018 29.105 20.2827 28.5095 20.1953 28.0758L20.1921 28.0726ZM11.8971 19.2209C11.842 20.1109 11.0974 20.81 10.2038 20.81C9.31339 20.81 8.57196 20.1141 8.51044 19.2306C8.50397 19.1108 8.5072 18.9004 8.5072 18.6383C9.5724 18.9943 10.7704 19.017 11.9035 18.648C11.9003 18.9263 11.9068 19.1076 11.9003 19.2241L11.8971 19.2209Z" fill="white"/>
<path d="M14.4701 15.1823C15.2083 14.9816 15.8915 14.1725 16.2282 13.0754C15.9595 12.8229 15.7199 12.5122 15.5256 12.14C15.5645 12.276 15.5677 12.4443 15.5353 12.5834C15.3961 13.1692 14.8457 14.4347 14.1107 14.4347C13.8938 14.4314 13.7093 14.603 13.7028 14.8231C13.6866 15.1499 13.5312 16.8167 12.1713 17.6614C11.1418 18.3476 9.28332 18.3087 8.24726 17.655C6.90685 16.8102 6.72878 15.1435 6.70611 14.8198C6.6964 14.5933 6.51185 14.4379 6.28845 14.4379C5.44665 14.4379 4.43325 12.263 5.03222 11.9361C5.31714 11.784 5.42075 12.3018 5.82222 12.1692C6.12009 12.0688 6.14923 11.716 6.13628 11.4507C6.07152 11.0202 6.0521 10.8778 6.10066 10.169C6.04886 10.3923 5.16497 10.224 4.9189 10.3373C5.00308 10.7322 4.92214 10.7127 5.0387 11.1173C4.23251 11.1982 3.93141 12.0591 4.09977 12.7711C4.3944 14.0269 5.13907 14.9719 5.94525 15.1888C6.04239 15.8522 6.37911 17.2407 7.54468 18.1372C7.96558 18.4479 8.3023 18.5709 8.47714 18.6583C11.1903 19.7036 14.0751 18.1631 14.4669 15.1855L14.4701 15.1823ZM15.0626 10.0234L14.8813 9.90039C14.8327 10.661 14.6547 11.4118 14.3179 12.017C14.4474 12.3116 14.9072 12.3407 15.0497 12.0041C15.218 11.839 15.3443 11.852 15.4317 11.9491C15.1533 11.3471 14.9202 10.6933 15.0626 10.0201V10.0234Z" fill="white"/>
<path d="M13.4372 2.16635C10.7078 0.32157 7.88777 0.917079 7.37298 2.2149C5.94839 1.40579 5.17135 3.25057 3.82446 4.96913C3.48127 5.55493 4.25184 5.1795 4.25184 5.15037C4.57885 4.76847 6.34987 1.56437 7.27585 2.90427C7.42154 3.0402 7.66113 2.99165 7.74208 2.80717C8.9724 -0.0279682 12.7864 2.3217 13.2008 2.58386C16.6684 4.80407 16.8789 8.24119 18.8344 10.5423C18.5463 10.8336 17.112 10.1798 16.7008 10.0698C16.5713 9.99212 16.1601 9.7947 16.1536 10.2931C16.4321 11.824 17.1346 12.8467 17.7239 14.1736C16.3803 14.028 15.1499 12.0149 15.2082 10.7818C15.2082 9.25744 14.6287 7.89813 13.5764 6.95308C13.4113 6.80421 13.1458 6.89159 13.0972 7.10843C12.8415 8.30269 12.8965 9.52931 13.2526 10.6912C12.4529 10.2931 11.7147 9.7947 11.051 9.19595C10.8438 9.00824 10.5135 9.19919 10.5718 9.47429C10.6139 9.66848 10.6625 9.86266 10.7208 10.0536C9.39007 9.33512 8.354 8.19588 7.76798 6.78155C7.69675 6.60678 7.47659 6.54852 7.32765 6.65856C6.02286 7.62627 5.27819 9.17006 5.32999 10.7915C5.34294 11.1734 5.92249 11.154 5.90954 10.7721C5.86745 9.46458 6.41462 8.21207 7.38917 7.3544C8.1565 8.95322 9.46777 10.1993 11.1222 10.8821C11.3618 10.9792 11.6014 10.7397 11.501 10.5035L11.3942 10.2284C12.0838 10.7462 12.8382 11.1734 13.6476 11.5068C13.8872 11.6039 14.1268 11.3644 14.0264 11.1281C13.5829 10.0601 13.4307 8.91438 13.5732 7.78162C14.2563 8.58102 14.6254 9.71055 14.6254 10.866C14.6254 13.494 16.7105 14.986 18.0088 14.7238C18.1707 14.7238 18.3002 14.5944 18.3002 14.4325C18.0962 13.125 17.1346 11.9469 16.8271 10.7236C16.8271 10.7236 16.8012 10.6718 16.7947 10.5844C17.1735 11.0116 18.2905 11.1475 19.4075 10.9728C19.5176 10.9016 19.5467 10.7527 19.4723 10.6427C18.9963 9.93387 18.4394 9.27039 18.0477 8.51306C17.2836 7.03076 16.7753 5.83327 16.2928 5.04357C15.5223 3.78135 14.7096 3.01754 13.4372 2.15988V2.16635ZM4.35221 4.3542C2.91467 6.04364 2.7884 5.99833 0.606192 8.83994C0.509061 8.92733 0.499348 9.0762 0.590004 9.17653C1.08213 9.60375 2.53586 9.08267 3.12188 8.40625C3.06037 8.8367 3.00533 9.09886 3.00533 9.53902V12.4098C3.00533 12.5716 3.13483 12.701 3.29672 12.701C4.88643 11.5942 5.35913 11.2964 5.34294 10.2931C5.34294 9.5908 4.2486 12.0052 3.58811 11.8693V9.53902C3.58811 8.90791 3.59459 8.59073 3.72733 7.99199C3.81799 7.66834 3.60754 7.51623 3.39061 7.66187L3.16397 7.84311C2.51967 8.28651 1.37353 9.03736 1.19222 8.72343C2.7884 7.08578 2.81754 7.03076 3.48127 6.15691C3.83418 5.74265 3.91836 5.6229 4.12557 5.37369C4.26479 5.23452 4.43639 4.57752 4.35545 4.3542H4.35221Z" fill="white"/>
<path d="M13.4372 2.16635L13.3652 2.27288L13.5658 2.40844V2.16635H13.4372ZM7.37298 2.2149L7.30948 2.3267L7.438 2.39969L7.49249 2.26231L7.37298 2.2149ZM3.82446 4.96913L3.72327 4.88982L3.71791 4.89665L3.71353 4.90414L3.82446 4.96913ZM4.25184 5.15037L4.15418 5.06675L4.12327 5.10285V5.15037H4.25184ZM7.27585 2.90427L7.17008 2.97736L7.17798 2.9888L7.18814 2.99828L7.27585 2.90427ZM7.74208 2.80717L7.85982 2.85883L7.86002 2.85836L7.74208 2.80717ZM13.2008 2.58386L13.2702 2.47558L13.2696 2.4752L13.2008 2.58386ZM18.8344 10.5423L18.9258 10.6327L19.0088 10.5489L18.9324 10.4591L18.8344 10.5423ZM16.7008 10.0698L16.6347 10.1801L16.6501 10.1893L16.6675 10.194L16.7008 10.0698ZM16.1536 10.2931L16.0251 10.2914L16.0249 10.3039L16.0271 10.3161L16.1536 10.2931ZM17.7239 14.1736L17.71 14.3015L17.932 14.3255L17.8414 14.1215L17.7239 14.1736ZM15.2082 10.7818L15.3368 10.7879V10.7818H15.2082ZM13.5764 6.95308L13.4903 7.04857L13.4905 7.04874L13.5764 6.95308ZM13.0972 7.10843L12.9718 7.08033L12.9715 7.08151L13.0972 7.10843ZM13.2526 10.6912L13.1953 10.8063L13.4633 10.9397L13.3756 10.6535L13.2526 10.6912ZM11.051 9.19595L10.9647 9.29124L10.9649 9.29142L11.051 9.19595ZM10.5718 9.47429L10.446 9.50093L10.4462 9.50152L10.5718 9.47429ZM10.7208 10.0536L10.6597 10.1667L10.9351 10.3155L10.8437 10.0161L10.7208 10.0536ZM7.76798 6.78155L7.64891 6.83008L7.6492 6.83077L7.76798 6.78155ZM7.32765 6.65856L7.25125 6.55516L7.25106 6.55529L7.32765 6.65856ZM5.32999 10.7915L5.20149 10.7956L5.20149 10.7959L5.32999 10.7915ZM5.90954 10.7721L5.78104 10.7762L5.78104 10.7765L5.90954 10.7721ZM7.38917 7.3544L7.50508 7.29877L7.43164 7.14575L7.30423 7.25789L7.38917 7.3544ZM11.1222 10.8821L11.0732 11.001L11.0739 11.0013L11.1222 10.8821ZM11.501 10.5035L11.3811 10.5501L11.3827 10.5538L11.501 10.5035ZM11.3942 10.2284L11.4714 10.1256L11.1113 9.8552L11.2744 10.2749L11.3942 10.2284ZM13.6476 11.5068L13.5987 11.6257L13.5993 11.6259L13.6476 11.5068ZM14.0264 11.1281L13.9077 11.1774L13.9081 11.1784L14.0264 11.1281ZM13.5732 7.78162L13.6709 7.69809L13.4819 7.47692L13.4456 7.76557L13.5732 7.78162ZM18.0088 14.7238V14.5953H17.996L17.9834 14.5978L18.0088 14.7238ZM18.3002 14.4325H18.4288V14.4226L18.4272 14.4127L18.3002 14.4325ZM16.8271 10.7236L16.9517 10.6922L16.9483 10.6786L16.942 10.666L16.8271 10.7236ZM16.7947 10.5844L16.8909 10.4991L16.6383 10.2143L16.6665 10.5939L16.7947 10.5844ZM19.4075 10.9728L19.4274 11.0998L19.4544 11.0956L19.4773 11.0807L19.4075 10.9728ZM19.4723 10.6427L19.3655 10.7143L19.3658 10.7147L19.4723 10.6427ZM18.0477 8.51306L17.9334 8.57197L17.9335 8.57213L18.0477 8.51306ZM16.2928 5.04357L16.1831 5.11056L16.1831 5.1106L16.2928 5.04357ZM13.4372 2.15988L13.509 2.05327L13.3086 1.91817V2.15988H13.4372ZM4.35221 4.3542V4.22563H4.29279L4.25429 4.27088L4.35221 4.3542ZM0.606192 8.83994L0.692184 8.93552L0.700968 8.92762L0.708164 8.91825L0.606192 8.83994ZM0.590004 9.17653L0.494607 9.26273L0.499833 9.26851L0.50572 9.27362L0.590004 9.17653ZM3.12188 8.40625L3.24916 8.42444L3.31102 7.99159L3.02471 8.32207L3.12188 8.40625ZM3.29672 12.701V12.8296H3.33707L3.37019 12.8066L3.29672 12.701ZM5.34294 10.2931H5.21435L5.21439 10.2952L5.34294 10.2931ZM3.58811 11.8693H3.45954V11.9741L3.56219 11.9952L3.58811 11.8693ZM3.72733 7.99199L3.60334 7.95726L3.60181 7.96416L3.72733 7.99199ZM3.39061 7.66187L3.3187 7.55475L3.31031 7.56146L3.39061 7.66187ZM3.16397 7.84311L3.23705 7.9493L3.24427 7.94352L3.16397 7.84311ZM1.19222 8.72343L1.10014 8.63369L1.03218 8.70341L1.08088 8.78773L1.19222 8.72343ZM3.48127 6.15691L3.38324 6.07341L3.37888 6.07915L3.48127 6.15691ZM4.12557 5.37369L4.03429 5.28237L4.02671 5.29149L4.12557 5.37369ZM4.35545 4.3542L4.47632 4.31039L4.4456 4.22563H4.35545V4.3542ZM13.5092 2.05983C12.1223 1.12247 10.7066 0.801176 9.56532 0.883915C8.43404 0.965926 7.53762 1.45113 7.25347 2.16749L7.49249 2.26231C7.72313 1.68085 8.49412 1.21939 9.58391 1.14039C10.6636 1.06211 12.0227 1.36546 13.3652 2.27288L13.5092 2.05983ZM7.43648 2.1031C7.05517 1.88654 6.70371 1.84151 6.37085 1.93883C6.04443 2.03426 5.7526 2.26189 5.47593 2.55605C5.19866 2.85085 4.92603 3.22421 4.64186 3.6257C4.35605 4.02952 4.05749 4.46337 3.72327 4.88982L3.92566 5.04844C4.26488 4.61561 4.56853 4.1744 4.85175 3.77426C5.1366 3.3718 5.39981 3.0123 5.66324 2.73222C5.92726 2.45151 6.18098 2.26224 6.44301 2.18564C6.6986 2.11091 6.97849 2.13871 7.30948 2.3267L7.43648 2.1031ZM3.71353 4.90414C3.66761 4.98252 3.63572 5.05233 3.61978 5.11425C3.60424 5.1746 3.59967 5.24426 3.63207 5.30738C3.66695 5.37535 3.72877 5.4059 3.78189 5.4173C3.83253 5.42816 3.88523 5.42453 3.93003 5.41726C4.02078 5.40255 4.11805 5.3662 4.18963 5.33394C4.22612 5.31749 4.25905 5.3007 4.28422 5.28601C4.29635 5.27893 4.30942 5.27075 4.32084 5.2621C4.32614 5.2581 4.33485 5.25119 4.34351 5.24193C4.34779 5.23736 4.35495 5.22918 4.36173 5.21781C4.36741 5.20827 4.38041 5.18411 4.38041 5.15037H4.12327C4.12327 5.11755 4.13589 5.09447 4.14084 5.08616C4.14688 5.07603 4.15294 5.06925 4.15576 5.06623C4.15902 5.06275 4.16167 5.06039 4.16299 5.05925C4.16443 5.058 4.16541 5.05726 4.16569 5.05704C4.166 5.05681 4.16284 5.05911 4.15458 5.06394C4.13894 5.07307 4.11435 5.08581 4.08397 5.0995C4.02179 5.12752 3.94787 5.15387 3.88888 5.16343C3.8588 5.16831 3.842 5.1672 3.83585 5.16588C3.83218 5.16509 3.84994 5.16874 3.86084 5.18998C3.86926 5.20638 3.86079 5.20948 3.8688 5.17835C3.87641 5.14879 3.89552 5.1022 3.9354 5.03412L3.71353 4.90414ZM4.3495 5.234C4.39637 5.17926 4.46441 5.08022 4.54446 4.96088C4.62687 4.83802 4.72536 4.68845 4.83841 4.52217C5.0641 4.19019 5.34148 3.80106 5.63576 3.46657C5.93336 3.12831 6.23467 2.86198 6.50554 2.75598C6.63786 2.7042 6.75447 2.69402 6.8577 2.72392C6.9603 2.75363 7.06677 2.82787 7.17008 2.97736L7.38162 2.83117C7.25344 2.64569 7.10199 2.52696 6.92923 2.47692C6.75709 2.42707 6.58086 2.45037 6.41183 2.51652C6.07999 2.64638 5.74448 2.95371 5.4427 3.29672C5.1376 3.6435 4.85304 4.04327 4.62575 4.3776C4.51231 4.54447 4.41156 4.6974 4.33091 4.81763C4.2479 4.94138 4.18906 5.02601 4.15418 5.06675L4.3495 5.234ZM7.18814 2.99828C7.39866 3.19469 7.7433 3.12439 7.85981 2.85883L7.62434 2.75551C7.57897 2.85891 7.44443 2.88571 7.36356 2.81026L7.18814 2.99828ZM7.86002 2.85836C8.15367 2.18167 8.59524 1.82399 9.09547 1.66163C9.6017 1.49732 10.1808 1.52913 10.7487 1.65935C11.8852 1.91996 12.9268 2.56263 13.1321 2.69251L13.2696 2.4752C13.0605 2.34294 11.9878 1.67969 10.8062 1.40871C10.2149 1.27314 9.58395 1.23273 9.01608 1.41705C8.4422 1.60332 7.94564 2.01511 7.62413 2.75599L7.86002 2.85836ZM13.1315 2.69214C14.838 3.78478 15.7446 5.1764 16.4702 6.59142C16.6519 6.9457 16.822 7.30088 16.9909 7.65387C17.1595 8.00633 17.327 8.35678 17.5024 8.6989C17.8532 9.38318 18.2383 10.0394 18.7365 10.6256L18.9324 10.4591C18.4528 9.89467 18.0782 9.25833 17.7312 8.58158C17.5577 8.24318 17.3918 7.896 17.2228 7.5429C17.0542 7.19033 16.8826 6.83201 16.699 6.47408C15.9637 5.04019 15.0312 3.60315 13.2702 2.47558L13.1315 2.69214ZM18.743 10.4519C18.7343 10.4607 18.7115 10.4752 18.6585 10.4829C18.6064 10.4904 18.5376 10.4895 18.4528 10.4792C18.2834 10.4586 18.0733 10.4037 17.8524 10.3339C17.6327 10.2646 17.4085 10.1826 17.2114 10.1103C17.0179 10.0393 16.844 9.97502 16.734 9.9456L16.6675 10.194C16.7632 10.2196 16.9228 10.2783 17.1228 10.3517C17.3193 10.4238 17.5488 10.5078 17.775 10.5792C18.0001 10.6502 18.2284 10.711 18.4218 10.7345C18.5184 10.7462 18.6121 10.7494 18.6953 10.7374C18.7774 10.7255 18.8625 10.6968 18.9258 10.6327L18.743 10.4519ZM16.7669 9.95954C16.7301 9.93744 16.6731 9.90673 16.6073 9.88167C16.5428 9.85713 16.4612 9.83464 16.3776 9.8369C16.2906 9.83925 16.1952 9.86926 16.1244 9.95529C16.0569 10.0372 16.0269 10.1518 16.0251 10.2914L16.2822 10.2948C16.2836 10.1852 16.3074 10.1376 16.3229 10.1188C16.335 10.1041 16.3518 10.0948 16.3845 10.0939C16.4207 10.093 16.4666 10.1032 16.5158 10.122C16.5637 10.1402 16.6067 10.1633 16.6347 10.1801L16.7669 9.95954ZM16.0271 10.3161C16.169 11.096 16.4188 11.7453 16.7056 12.3639C16.8486 12.6725 17.0014 12.9747 17.1541 13.2802C17.3071 13.5865 17.4604 13.8969 17.6064 14.2258L17.8414 14.1215C17.6928 13.7868 17.5373 13.4719 17.3841 13.1653C17.2306 12.858 17.0799 12.5601 16.9388 12.2558C16.6574 11.6485 16.4167 11.021 16.2801 10.2701L16.0271 10.3161ZM17.7378 14.0458C17.121 13.979 16.5061 13.4761 16.046 12.8123C15.5873 12.1504 15.3093 11.3665 15.3366 10.7879L15.0798 10.7757C15.0488 11.4302 15.3569 12.2694 15.8347 12.9588C16.3111 13.6461 16.9832 14.2227 17.71 14.3015L17.7378 14.0458ZM15.3368 10.7818C15.3368 9.22412 14.744 7.8289 13.6623 6.85743L13.4905 7.04874C14.5133 7.96736 15.0796 9.29077 15.0796 10.7818H15.3368ZM13.6625 6.85759C13.4226 6.6413 13.0413 6.76971 12.9718 7.08033L13.2227 7.13653C13.2503 7.01347 13.4 6.96711 13.4903 7.04857L13.6625 6.85759ZM12.9715 7.08151C12.7111 8.29727 12.7672 9.54613 13.1297 10.7289L13.3756 10.6535C13.0258 9.51249 12.9718 8.3081 13.2229 7.13536L12.9715 7.08151ZM13.3099 10.5761C12.5204 10.1831 11.7919 9.69118 11.1371 9.10048L10.9649 9.29142C11.6375 9.89822 12.3855 10.4032 13.1953 10.8063L13.3099 10.5761ZM11.1373 9.10067C10.8362 8.82785 10.3623 9.10584 10.446 9.50093L10.6976 9.44764C10.6647 9.29254 10.8514 9.18862 10.9647 9.29124L11.1373 9.10067ZM10.4462 9.50152C10.4888 9.69832 10.5382 9.89605 10.5978 10.0911L10.8437 10.0161C10.7867 9.82927 10.739 9.63863 10.6975 9.44705L10.4462 9.50152ZM10.7818 9.94048C9.47701 9.23595 8.46141 8.11922 7.88676 6.73234L7.6492 6.83077C8.2466 8.27255 9.30312 9.43429 10.6597 10.1667L10.7818 9.94048ZM7.88704 6.73303C7.78353 6.47906 7.46631 6.39626 7.25125 6.55516L7.40405 6.76197C7.48686 6.70079 7.60997 6.73451 7.64892 6.83008L7.88704 6.73303ZM7.25106 6.55529C5.91235 7.54815 5.14834 9.13209 5.20149 10.7956L5.4585 10.7874C5.40804 9.20803 6.13337 7.70438 7.40424 6.76183L7.25106 6.55529ZM5.20149 10.7959C5.20593 10.9268 5.26055 11.0324 5.34627 11.1027C5.42944 11.171 5.53436 11.2001 5.63379 11.1967C5.73321 11.1934 5.83595 11.1573 5.91434 11.0836C5.99513 11.0077 6.04248 10.8986 6.03804 10.7678L5.78104 10.7765C5.78308 10.8365 5.76284 10.8731 5.7382 10.8963C5.71117 10.9217 5.67064 10.9382 5.62517 10.9397C5.57971 10.9413 5.53813 10.9275 5.5094 10.9039C5.48321 10.8824 5.46053 10.8473 5.45849 10.7872L5.20149 10.7959ZM6.03805 10.768C5.9972 9.499 6.52824 8.28334 7.47411 7.45092L7.30423 7.25789C6.301 8.14079 5.7377 9.43015 5.78104 10.7762L6.03805 10.768ZM7.27326 7.41004C8.05428 9.03737 9.38932 10.306 11.0732 11.001L11.1713 10.7633C9.54622 10.0925 8.25873 8.86906 7.50508 7.29877L7.27326 7.41004ZM11.0739 11.0013C11.4162 11.14 11.7661 10.7985 11.6194 10.4532L11.3827 10.5538C11.4368 10.681 11.3074 10.8185 11.1705 10.763L11.0739 11.0013ZM11.6209 10.4569L11.514 10.1818L11.2744 10.2749L11.3812 10.55L11.6209 10.4569ZM11.317 10.3312C12.0155 10.8557 12.7794 11.2883 13.5987 11.6257L13.6966 11.3879C12.897 11.0586 12.1521 10.6367 11.4714 10.1256L11.317 10.3312ZM13.5993 11.6259C13.9416 11.7646 14.2915 11.4231 14.1448 11.0778L13.9081 11.1784C13.9622 11.3056 13.8328 11.4431 13.6959 11.3876L13.5993 11.6259ZM14.1452 11.0788C13.7102 10.0315 13.5611 8.90829 13.7007 7.79766L13.4456 7.76557C13.3004 8.92047 13.4556 10.0887 13.9077 11.1774L14.1452 11.0788ZM13.4754 7.86515C14.1355 8.6375 14.4969 9.73582 14.4969 10.866H14.754C14.754 9.68528 14.3772 8.52455 13.6709 7.69809L13.4754 7.86515ZM14.4969 10.866C14.4969 12.2155 15.0328 13.2784 15.7403 13.9706C16.443 14.658 17.3299 14.9921 18.0343 14.8499L17.9834 14.5978C17.3894 14.7177 16.5847 14.4369 15.9202 13.7868C15.2606 13.1416 14.754 12.1444 14.754 10.866H14.4969ZM18.0088 14.8524C18.2417 14.8524 18.4288 14.6654 18.4288 14.4325H18.1716C18.1716 14.5233 18.0997 14.5953 18.0088 14.5953V14.8524ZM18.4272 14.4127C18.3218 13.7369 18.0215 13.0992 17.7176 12.4892C17.4103 11.8725 17.1013 11.287 16.9517 10.6922L16.7024 10.7549C16.8604 11.3835 17.186 11.9988 17.4874 12.6038C17.7922 13.2156 18.0746 13.8207 18.1732 14.4524L18.4272 14.4127ZM16.8271 10.7236C16.942 10.666 16.9421 10.6661 16.9421 10.6661C16.9421 10.6661 16.9421 10.6662 16.9421 10.6662C16.9421 10.6662 16.9421 10.6663 16.9422 10.6663C16.9422 10.6664 16.9422 10.6665 16.9423 10.6665C16.9424 10.6667 16.9424 10.6668 16.9425 10.6669C16.9426 10.6672 16.9427 10.6674 16.9428 10.6676C16.9429 10.6679 16.943 10.668 16.943 10.668C16.943 10.6679 16.9426 10.6671 16.942 10.6657C16.9408 10.6628 16.9387 10.6572 16.9363 10.6492C16.9314 10.6332 16.9253 10.6079 16.9229 10.5749L16.6665 10.5939C16.6705 10.6483 16.6806 10.6925 16.6903 10.7243C16.6952 10.7402 16.6999 10.753 16.7038 10.7625C16.7057 10.7673 16.7075 10.7713 16.7089 10.7744C16.7096 10.7759 16.7102 10.7772 16.7107 10.7784C16.711 10.7789 16.7113 10.7794 16.7115 10.7799C16.7116 10.7801 16.7117 10.7803 16.7118 10.7805C16.7118 10.7806 16.7119 10.7807 16.7119 10.7808C16.712 10.7809 16.712 10.7809 16.712 10.7809C16.712 10.781 16.712 10.781 16.712 10.781C16.712 10.781 16.7121 10.7811 16.8271 10.7236ZM16.6985 10.6697C16.9197 10.9192 17.3333 11.0651 17.8064 11.1316C18.287 11.1992 18.8584 11.1888 19.4274 11.0998L19.3876 10.8457C18.8396 10.9315 18.294 10.9405 17.8422 10.877C17.3828 10.8124 17.0485 10.6768 16.8909 10.4991L16.6985 10.6697ZM19.4773 11.0807C19.6494 10.9694 19.6926 10.7388 19.5787 10.5706L19.3658 10.7147C19.4009 10.7666 19.3858 10.8337 19.3377 10.8648L19.4773 11.0807ZM19.579 10.571C19.34 10.2151 19.0779 9.86652 18.8333 9.52167C18.5867 9.17406 18.3536 8.82463 18.1619 8.45398L17.9335 8.57213C18.1335 8.95882 18.3748 9.31979 18.6235 9.67045C18.8742 10.0239 19.1285 10.3614 19.3655 10.7143L19.579 10.571ZM18.1619 8.45415C17.7808 7.71481 17.4637 7.04694 17.1803 6.46249C16.8977 5.87972 16.6475 5.37749 16.4026 4.97654L16.1831 5.1106C16.4206 5.49935 16.6657 5.99071 16.9489 6.57469C17.2313 7.15698 17.5504 7.829 17.9334 8.57197L18.1619 8.45415ZM16.4026 4.97658C15.6202 3.695 14.7929 2.91863 13.509 2.05327L13.3653 2.26649C14.6263 3.11646 15.4243 3.86769 16.1831 5.11056L16.4026 4.97658ZM13.3086 2.15988V2.16635H13.5658V2.15988H13.3086ZM4.25429 4.27088C2.82256 5.95349 2.68874 5.91701 0.50422 8.76163L0.708164 8.91825C2.88806 6.07964 3.00678 6.13378 4.45013 4.43752L4.25429 4.27088ZM0.520201 8.74436C0.370491 8.87905 0.356011 9.10934 0.494607 9.26273L0.685401 9.09033C0.642685 9.04306 0.647632 8.97561 0.692184 8.93552L0.520201 8.74436ZM0.50572 9.27362C0.66176 9.40908 0.880874 9.4594 1.11042 9.4601C1.34242 9.46081 1.60248 9.41112 1.86036 9.32757C2.37362 9.16127 2.90638 8.85135 3.21906 8.49044L3.02471 8.32207C2.75136 8.63758 2.26425 8.9264 1.7811 9.08294C1.54079 9.16081 1.30851 9.20356 1.11121 9.20296C0.911464 9.20235 0.764313 9.15759 0.674288 9.07944L0.50572 9.27362ZM2.9946 8.38806C2.93393 8.81263 2.87675 9.08713 2.87675 9.53902H3.1339C3.1339 9.11058 3.1868 8.86078 3.24916 8.42444L2.9946 8.38806ZM2.87675 9.53902V12.4098H3.1339V9.53902H2.87675ZM2.87675 12.4098C2.87675 12.6426 3.06387 12.8296 3.29672 12.8296V12.5725C3.2058 12.5725 3.1339 12.5005 3.1339 12.4098H2.87675ZM3.37019 12.8066C4.15829 12.2578 4.68936 11.8969 5.01615 11.5458C5.18279 11.3668 5.30066 11.1864 5.37461 10.9804C5.4483 10.7752 5.47571 10.5519 5.4715 10.291L5.21439 10.2952C5.21827 10.5359 5.19267 10.7262 5.13259 10.8935C5.07279 11.0601 4.97616 11.2114 4.82794 11.3706C4.525 11.696 4.02486 12.0374 3.22325 12.5955L3.37019 12.8066ZM5.47151 10.2931C5.47151 10.2445 5.4673 10.1934 5.45025 10.1498C5.43127 10.1012 5.3851 10.0403 5.30064 10.0363C5.23776 10.0334 5.18742 10.0664 5.1605 10.0865C5.12848 10.1105 5.09659 10.1423 5.06606 10.1762C4.94671 10.3088 4.78214 10.551 4.60857 10.7941C4.43031 11.0438 4.23704 11.3029 4.04985 11.4908C3.95622 11.5849 3.86904 11.6559 3.7908 11.6993C3.71204 11.743 3.65497 11.7518 3.61403 11.7433L3.56219 11.9952C3.68638 12.0208 3.80799 11.9838 3.91549 11.9242C4.02352 11.8643 4.1302 11.7746 4.23204 11.6723C4.43581 11.4677 4.63996 11.1927 4.81785 10.9435C5.00042 10.6878 5.15072 10.4665 5.2572 10.3482C5.28313 10.3194 5.30213 10.3017 5.31469 10.2923C5.33236 10.2791 5.32029 10.2947 5.28862 10.2932C5.23538 10.2907 5.21336 10.2501 5.21074 10.2434C5.21004 10.2416 5.21437 10.2539 5.21437 10.2931H5.47151ZM3.71668 11.8693V9.53902H3.45954V11.8693H3.71668ZM3.71668 9.53902C3.71668 8.91114 3.72313 8.60493 3.85286 8.01982L3.60181 7.96416C3.46604 8.57653 3.45954 8.90467 3.45954 9.53902H3.71668ZM3.85114 8.02667C3.90331 7.8404 3.87987 7.66072 3.75932 7.55449C3.63345 7.44355 3.45893 7.46114 3.31894 7.55512L3.46228 7.76861C3.53922 7.71696 3.57839 7.73778 3.58931 7.7474C3.60556 7.76173 3.64201 7.81993 3.60353 7.95731L3.85114 8.02667ZM3.31031 7.56146L3.08367 7.7427L3.24427 7.94352L3.47091 7.76228L3.31031 7.56146ZM3.09108 7.7372C2.76906 7.95881 2.32706 8.2534 1.94487 8.45335C1.75248 8.554 1.58379 8.62605 1.45714 8.65543C1.3934 8.67021 1.35036 8.67171 1.3245 8.66724C1.31256 8.66517 1.3072 8.66231 1.30559 8.6613C1.3046 8.66068 1.30431 8.66044 1.30355 8.65913L1.08088 8.78773C1.12693 8.86746 1.20252 8.90709 1.28064 8.92061C1.35468 8.93343 1.43596 8.92431 1.51524 8.90592C1.67461 8.86895 1.86673 8.78444 2.06407 8.68119C2.46136 8.47335 2.91459 8.17081 3.23686 7.94902L3.09108 7.7372ZM1.28429 8.81317C2.88243 7.17351 2.91553 7.11431 3.58365 6.23468L3.37888 6.07915C2.71955 6.9472 2.69437 6.99805 1.10014 8.63369L1.28429 8.81317ZM3.57914 6.24029C3.93067 5.82764 4.02313 5.69799 4.22443 5.45589L4.02671 5.29149C3.81359 5.5478 3.73768 5.65766 3.38339 6.07354L3.57914 6.24029ZM4.21647 5.46462C4.27082 5.41029 4.31552 5.32211 4.35072 5.23549C4.38797 5.14382 4.42179 5.03535 4.4481 4.92544C4.47441 4.81561 4.49399 4.70113 4.50149 4.59741C4.50868 4.49792 4.50611 4.39257 4.47632 4.31039L4.23457 4.39802C4.24525 4.42749 4.25158 4.48802 4.24502 4.57887C4.23875 4.66549 4.22192 4.76583 4.19803 4.86556C4.17417 4.96522 4.14404 5.06105 4.11249 5.13868C4.07889 5.22137 4.04993 5.26751 4.03467 5.28276L4.21647 5.46462ZM4.35545 4.22563H4.35221V4.48277H4.35545V4.22563Z" fill="white"/>
</svg>
