<?xml version="1.0" encoding="utf-8"?><svg width="29" height="29" viewBox="0 0 29 29" fill="none" xmlns="http://www.w3.org/2000/svg">
<path d="M26.825 29H2.175C0.97585 29 0 28.0241 0 26.825V2.175C0 0.97585 0.97585 0 2.175 0H26.825C28.0241 0 29 0.97585 29 2.175V26.825C29 28.0241 28.0241 29 26.825 29ZM2.175 0.966667C1.50897 0.966667 0.966667 1.50897 0.966667 2.175V26.825C0.966667 27.491 1.50897 28.0333 2.175 28.0333H26.825C27.4915 28.0333 28.0333 27.491 28.0333 26.825V2.175C28.0333 1.50897 27.491 0.966667 26.825 0.966667H2.175Z" fill="white"/>
<path d="M4.35002 4.83335H2.41668C2.14988 4.83335 1.93335 4.61682 1.93335 4.35002V2.41668C1.93335 2.14988 2.14988 1.93335 2.41668 1.93335H4.35002C4.61682 1.93335 4.83335 2.14988 4.83335 2.41668V4.35002C4.83335 4.61682 4.61682 4.83335 4.35002 4.83335ZM2.90002 3.86668H3.86668V2.90002H2.90002V3.86668Z" fill="white"/>
<path d="M8.21671 4.83335H6.28338C6.01658 4.83335 5.80005 4.61682 5.80005 4.35002V2.41668C5.80005 2.14988 6.01658 1.93335 6.28338 1.93335H8.21671C8.48351 1.93335 8.70004 2.14988 8.70004 2.41668V4.35002C8.70004 4.61682 8.48351 4.83335 8.21671 4.83335ZM6.76671 3.86668H7.73337V2.90002H6.76671V3.86668Z" fill="white"/>
<path d="M12.0834 4.83335H10.1501C9.88328 4.83335 9.66675 4.61682 9.66675 4.35002V2.41668C9.66675 2.14988 9.88328 1.93335 10.1501 1.93335H12.0834C12.3502 1.93335 12.5667 2.14988 12.5667 2.41668V4.35002C12.5667 4.61682 12.3502 4.83335 12.0834 4.83335ZM10.6334 3.86668H11.6001V2.90002H10.6334V3.86668Z" fill="white"/>
<path d="M28.5167 6.76667H0.483333C0.216533 6.76667 0 6.55013 0 6.28333V2.175C0 0.97585 0.97585 0 2.175 0H26.825C28.0241 0 29 0.97585 29 2.175V6.28333C29 6.55013 28.7835 6.76667 28.5167 6.76667ZM0.966667 5.8H28.0333V2.175C28.0333 1.50897 27.491 0.966667 26.825 0.966667H2.175C1.50897 0.966667 0.966667 1.50897 0.966667 2.175V5.8Z" fill="white"/>
<path d="M13.05 18.3669H2.41668C2.14988 18.3669 1.93335 18.1503 1.93335 17.8835V8.21685C1.93335 7.95005 2.14988 7.73352 2.41668 7.73352H13.05C13.3168 7.73352 13.5334 7.95005 13.5334 8.21685V17.8835C13.5334 18.1503 13.3168 18.3669 13.05 18.3669ZM2.90002 17.4002H12.5667V8.70019H2.90002V17.4002Z" fill="white"/>
<path d="M7.73297 18.3668C7.60924 18.3668 7.48551 18.3194 7.39126 18.2252L4.83298 15.6669L2.75803 17.7418C2.56905 17.9308 2.26358 17.9308 2.0746 17.7418C1.88562 17.5529 1.88562 17.2474 2.0746 17.0584L4.49126 14.6417C4.68024 14.4528 4.98571 14.4528 5.17469 14.6417L8.07469 17.5417C8.26367 17.7307 8.26367 18.0362 8.07469 18.2252C7.98044 18.3194 7.85671 18.3668 7.73297 18.3668Z" fill="white"/>
<path d="M5.80004 13.5332C4.7338 13.5332 3.8667 12.6661 3.8667 11.5998C3.8667 10.5336 4.7338 9.6665 5.80004 9.6665C6.86627 9.6665 7.73338 10.5336 7.73338 11.5998C7.73338 12.6661 6.86627 13.5332 5.80004 13.5332ZM5.80004 10.6332C5.26692 10.6332 4.83337 11.0667 4.83337 11.5998C4.83337 12.133 5.26692 12.5665 5.80004 12.5665C6.33316 12.5665 6.76671 12.133 6.76671 11.5998C6.76671 11.0667 6.33316 10.6332 5.80004 10.6332Z" fill="white"/>
<path d="M13.05 17.4C12.9262 17.4 12.8025 17.3526 12.7082 17.2583L9.6816 14.2317L7.02037 17.1327C6.84009 17.3299 6.53462 17.3429 6.33742 17.1622C6.1407 16.9819 6.12717 16.6759 6.30794 16.4792L9.30992 13.2066C9.39885 13.1094 9.52404 13.0529 9.6555 13.05C9.7889 13.0442 9.91457 13.0983 10.0079 13.1916L13.3912 16.5749C13.5802 16.7639 13.5802 17.0694 13.3912 17.2583C13.2974 17.3526 13.1737 17.4 13.05 17.4Z" fill="white"/>
<path d="M26.583 27.0667H15.9496C15.6828 27.0667 15.4663 26.8502 15.4663 26.5834V16.9167C15.4663 16.6499 15.6828 16.4333 15.9496 16.4333H26.583C26.8498 16.4333 27.0663 16.6499 27.0663 16.9167V26.5834C27.0663 26.8502 26.8498 27.0667 26.583 27.0667ZM16.433 26.1H26.0996V17.4H16.433V26.1Z" fill="white"/>
<path d="M21.2669 27.0666C21.1432 27.0666 21.0195 27.0193 20.9252 26.925L18.3669 24.3667L16.292 26.4417C16.103 26.6307 15.7975 26.6307 15.6085 26.4417C15.4196 26.2527 15.4196 25.9472 15.6085 25.7582L18.0252 23.3416C18.2142 23.1526 18.5197 23.1526 18.7086 23.3416L21.6086 26.2416C21.7976 26.4306 21.7976 26.736 21.6086 26.925C21.5144 27.0193 21.3907 27.0666 21.2669 27.0666Z" fill="white"/>
<path d="M19.333 22.2334C18.2668 22.2334 17.3997 21.3663 17.3997 20.3C17.3997 19.2338 18.2668 18.3667 19.333 18.3667C20.3992 18.3667 21.2663 19.2338 21.2663 20.3C21.2663 21.3663 20.3992 22.2334 19.333 22.2334ZM19.333 19.3334C18.7999 19.3334 18.3663 19.7669 18.3663 20.3C18.3663 20.8331 18.7999 21.2667 19.333 21.2667C19.8661 21.2667 20.2997 20.8331 20.2997 20.3C20.2997 19.7669 19.8661 19.3334 19.333 19.3334Z" fill="white"/>
<path d="M26.5834 26.1C26.4596 26.1 26.3359 26.0526 26.2417 25.9584L23.215 22.9317L20.5538 25.8327C20.3735 26.0299 20.0681 26.043 19.8709 25.8622C19.6742 25.6819 19.6606 25.376 19.8414 25.1792L22.8434 21.9066C22.9323 21.8094 23.0575 21.7529 23.1889 21.75C23.318 21.7447 23.448 21.7983 23.5413 21.8916L26.9246 25.2749C27.1136 25.4639 27.1136 25.7694 26.9246 25.9584C26.8308 26.0526 26.7071 26.1 26.5834 26.1Z" fill="white"/>
<path d="M23.683 10.6332H15.9496C15.6828 10.6332 15.4663 10.4166 15.4663 10.1498C15.4663 9.88304 15.6828 9.6665 15.9496 9.6665H23.683C23.9498 9.6665 24.1663 9.88304 24.1663 10.1498C24.1663 10.4166 23.9498 10.6332 23.683 10.6332Z" fill="white"/>
<path d="M26.5833 10.6332H25.6166C25.3498 10.6332 25.1333 10.4166 25.1333 10.1498C25.1333 9.88304 25.3498 9.6665 25.6166 9.6665H26.5833C26.8501 9.6665 27.0666 9.88304 27.0666 10.1498C27.0666 10.4166 26.8501 10.6332 26.5833 10.6332Z" fill="white"/>
<path d="M23.683 14.5H15.9496C15.6828 14.5 15.4663 14.2835 15.4663 14.0167C15.4663 13.7499 15.6828 13.5333 15.9496 13.5333H23.683C23.9498 13.5333 24.1663 13.7499 24.1663 14.0167C24.1663 14.2835 23.9498 14.5 23.683 14.5Z" fill="white"/>
<path d="M26.5833 14.5H25.6166C25.3498 14.5 25.1333 14.2835 25.1333 14.0167C25.1333 13.7499 25.3498 13.5333 25.6166 13.5333H26.5833C26.8501 13.5333 27.0666 13.7499 27.0666 14.0167C27.0666 14.2835 26.8501 14.5 26.5833 14.5Z" fill="white"/>
<path d="M26.5834 12.5666H18.85C18.5832 12.5666 18.3667 12.3501 18.3667 12.0833C18.3667 11.8165 18.5832 11.6 18.85 11.6H26.5834C26.8502 11.6 27.0667 11.8165 27.0667 12.0833C27.0667 12.3501 26.8502 12.5666 26.5834 12.5666Z" fill="white"/>
<path d="M16.9163 12.5666H15.9496C15.6828 12.5666 15.4663 12.3501 15.4663 12.0833C15.4663 11.8165 15.6828 11.6 15.9496 11.6H16.9163C17.1831 11.6 17.3996 11.8165 17.3996 12.0833C17.3996 12.3501 17.1831 12.5666 16.9163 12.5666Z" fill="white"/>
<path d="M10.15 21.2668H2.41668C2.14988 21.2668 1.93335 21.0503 1.93335 20.7835C1.93335 20.5167 2.14988 20.3002 2.41668 20.3002H10.15C10.4168 20.3002 10.6333 20.5167 10.6333 20.7835C10.6333 21.0503 10.4168 21.2668 10.15 21.2668Z" fill="white"/>
<path d="M13.0503 21.2668H12.0837C11.8169 21.2668 11.6003 21.0503 11.6003 20.7835C11.6003 20.5167 11.8169 20.3002 12.0837 20.3002H13.0503C13.3171 20.3002 13.5337 20.5167 13.5337 20.7835C13.5337 21.0503 13.3171 21.2668 13.0503 21.2668Z" fill="white"/>
<path d="M10.15 25.1333H2.41668C2.14988 25.1333 1.93335 24.9168 1.93335 24.65C1.93335 24.3832 2.14988 24.1666 2.41668 24.1666H10.15C10.4168 24.1666 10.6333 24.3832 10.6333 24.65C10.6333 24.9168 10.4168 25.1333 10.15 25.1333Z" fill="white"/>
<path d="M13.0503 25.1333H12.0837C11.8169 25.1333 11.6003 24.9168 11.6003 24.65C11.6003 24.3832 11.8169 24.1666 12.0837 24.1666H13.0503C13.3171 24.1666 13.5337 24.3832 13.5337 24.65C13.5337 24.9168 13.3171 25.1333 13.0503 25.1333Z" fill="white"/>
<path d="M13.0499 23.2002H5.31659C5.04979 23.2002 4.83325 22.9837 4.83325 22.7169C4.83325 22.4501 5.04979 22.2335 5.31659 22.2335H13.0499C13.3167 22.2335 13.5333 22.4501 13.5333 22.7169C13.5333 22.9837 13.3167 23.2002 13.0499 23.2002Z" fill="white"/>
<path d="M3.38335 23.2002H2.41668C2.14988 23.2002 1.93335 22.9837 1.93335 22.7169C1.93335 22.4501 2.14988 22.2335 2.41668 22.2335H3.38335C3.65015 22.2335 3.86669 22.4501 3.86669 22.7169C3.86669 22.9837 3.65015 23.2002 3.38335 23.2002Z" fill="white"/>
</svg>
