<svg width="26" height="26" viewBox="0 0 26 26" fill="none" xmlns="http://www.w3.org/2000/svg">
<path d="M13.0011 10.7188C11.7337 10.7188 10.6836 11.7689 10.6836 13.0363C10.6836 14.3037 11.7337 15.3538 13.0011 15.3538C14.2685 15.3538 15.3187 14.3037 15.3187 13.0363C15.3187 11.7689 14.3048 10.7188 13.0011 10.7188Z" fill="white"/>
<path d="M16.8733 6.91602H9.12403C7.89283 6.91602 6.87891 7.92994 6.87891 9.16114V16.9104C6.87891 18.1416 7.89283 19.1556 9.12403 19.1556H16.8733C18.1045 19.1556 19.1185 18.1416 19.1185 16.9104V9.16114C19.1185 7.92994 18.1045 6.91602 16.8733 6.91602ZM17.0182 13.0358C17.0182 15.2447 15.2076 17.0553 12.9987 17.0553C10.7898 17.0553 8.97918 15.2447 8.97918 13.0358C8.97918 10.8269 10.7898 9.01629 12.9987 9.01629C15.2076 9.01629 17.0182 10.8269 17.0182 13.0358ZM18.1045 8.90766C18.1045 9.45083 17.67 9.84916 17.163 9.84916C16.6199 9.84916 16.2215 9.41462 16.2215 8.90766C16.2215 8.4007 16.6561 7.96615 17.163 7.96615C17.67 7.92994 18.1045 8.36448 18.1045 8.90766C18.1045 8.90766 18.1045 8.87145 18.1045 8.90766Z" fill="white"/>
<path d="M13 0C5.83008 0 0 5.83008 0 13C0 20.1699 5.83008 26 13 26C20.1699 26 26 20.1699 26 13C26 5.83008 20.1699 0 13 0ZM20.8217 16.9109C20.8217 19.0836 19.0474 20.8579 16.8746 20.8579H9.12535C6.95265 20.8579 5.17827 19.0836 5.17827 16.9109V9.16156C5.17827 6.98886 6.95265 5.21448 9.12535 5.21448H16.8746C19.0474 5.21448 20.8217 6.98886 20.8217 9.16156V16.9109V16.9109Z" fill="white"/>
</svg>
