<svg width="28" height="28" viewBox="0 0 28 28" fill="none" xmlns="http://www.w3.org/2000/svg">
<path d="M13.8884 16.798C10.8567 16.8596 9.09441 19.3368 8.92188 21.1361C12.311 21.1361 15.7001 21.1361 19.0891 21.1361C18.8673 19.1642 16.9571 16.7364 13.8884 16.798Z" fill="white"/>
<path d="M14 0C6.27289 0 0 6.27289 0 14C0 21.7271 6.27289 28 14 28C21.7271 28 28 21.7271 28 14C28 6.27289 21.7394 0 14 0ZM14 5.21303C16.2923 5.21303 18.1532 7.07394 18.1408 9.3662C18.1408 11.6461 16.2676 13.4947 14 13.4947C11.7201 13.4947 9.87148 11.6338 9.87148 9.35387C9.87148 7.07394 11.7201 5.21303 14 5.21303ZM20.8275 22.7993C16.2799 22.7993 11.7447 22.7993 7.19718 22.7993C7.03697 20.125 7.93662 17.919 10.1549 16.3539C11.4613 15.4173 12.9401 15.0352 14.5423 15.1708C17.6109 15.4296 20.0757 17.6109 20.6919 20.618C20.8521 21.3327 20.8521 22.0722 20.8275 22.7993Z" fill="white"/>
<path d="M13.9883 11.8318C15.3563 11.8441 16.4901 10.7226 16.4901 9.35467C16.4901 7.99904 15.3686 6.86523 14.013 6.86523C12.645 6.86523 11.5235 7.97439 11.5235 9.34235C11.5112 10.698 12.6327 11.8195 13.9883 11.8318Z" fill="white"/>
</svg>
