<svg width="206" height="14" viewBox="0 0 206 14" fill="none" xmlns="http://www.w3.org/2000/svg">
<path d="M6.31039 13H0.820391V0.399999H6.45439C7.83439 0.399999 8.87839 0.627999 9.58639 1.084C10.4024 1.672 10.8104 2.518 10.8104 3.622C10.8104 4.714 10.4024 5.614 9.58639 6.322C10.6784 6.838 11.2244 7.816 11.2244 9.256C11.2244 10.168 10.9724 10.918 10.4684 11.506C9.97639 12.082 9.38239 12.478 8.68639 12.694C7.99039 12.898 7.19839 13 6.31039 13ZM6.16639 7.834H3.61039V10.39H6.02239C6.32239 10.39 6.57439 10.378 6.77839 10.354C6.99439 10.33 7.23439 10.282 7.49839 10.21C7.76239 10.138 7.96039 10.006 8.09239 9.814C8.23639 9.622 8.30839 9.382 8.30839 9.094C8.30839 8.806 8.24239 8.572 8.11039 8.392C7.99039 8.212 7.81039 8.086 7.57039 8.014C7.33039 7.93 7.10839 7.882 6.90439 7.87C6.71239 7.846 6.46639 7.834 6.16639 7.834ZM5.98639 3.01H3.61039V5.314H6.22039C6.66439 5.314 7.05439 5.236 7.39039 5.08C7.73839 4.924 7.91239 4.648 7.91239 4.252C7.91239 3.976 7.85839 3.748 7.75039 3.568C7.65439 3.388 7.49839 3.262 7.28239 3.19C7.07839 3.118 6.88039 3.07 6.68839 3.046C6.50839 3.022 6.27439 3.01 5.98639 3.01ZM12.3896 6.7C12.3896 4.876 13.0196 3.334 14.2796 2.074C15.5516 0.814 17.0876 0.184 18.8876 0.184C20.1596 0.184 21.3356 0.526 22.4156 1.21C23.5076 1.894 24.2996 2.812 24.7916 3.964C25.1756 4.9 25.3676 5.812 25.3676 6.7C25.3676 8.512 24.7376 10.054 23.4776 11.326C22.2176 12.586 20.6876 13.216 18.8876 13.216C17.0636 13.216 15.5216 12.586 14.2616 11.326C13.0136 10.054 12.3896 8.512 12.3896 6.7ZM16.2956 4C15.6236 4.744 15.2876 5.644 15.2876 6.7C15.2876 7.756 15.6296 8.656 16.3136 9.4C16.9976 10.144 17.8556 10.516 18.8876 10.516C19.9676 10.516 20.8316 10.15 21.4796 9.418C22.1396 8.686 22.4696 7.78 22.4696 6.7C22.4696 5.656 22.1276 4.762 21.4436 4.018C20.7596 3.262 19.9076 2.884 18.8876 2.884C17.8316 2.884 16.9676 3.256 16.2956 4ZM30.8081 13H27.0821V0.399999H31.0781C33.2861 0.399999 35.0441 0.903999 36.3521 1.912C37.6721 2.908 38.3321 4.45 38.3321 6.538C38.3321 7.438 38.2001 8.254 37.9361 8.986C37.6721 9.706 37.3121 10.312 36.8561 10.804C36.4001 11.296 35.8481 11.71 35.2001 12.046C34.5641 12.382 33.8801 12.628 33.1481 12.784C32.4161 12.928 31.6361 13 30.8081 13ZM31.0421 3.01H29.8721V10.39H31.0421C33.9821 10.39 35.4521 9.106 35.4521 6.538C35.4521 4.186 33.9821 3.01 31.0421 3.01ZM47.8451 0.399999H51.0671L45.9551 8.482V13H43.1651V8.482L38.1071 0.399999H41.4371L44.6051 5.44L47.8451 0.399999ZM61.8045 13H56.3145V0.399999H61.9485C63.3285 0.399999 64.3725 0.627999 65.0805 1.084C65.8965 1.672 66.3045 2.518 66.3045 3.622C66.3045 4.714 65.8965 5.614 65.0805 6.322C66.1725 6.838 66.7185 7.816 66.7185 9.256C66.7185 10.168 66.4665 10.918 65.9625 11.506C65.4705 12.082 64.8765 12.478 64.1805 12.694C63.4845 12.898 62.6925 13 61.8045 13ZM61.6605 7.834H59.1045V10.39H61.5165C61.8165 10.39 62.0685 10.378 62.2725 10.354C62.4885 10.33 62.7285 10.282 62.9925 10.21C63.2565 10.138 63.4545 10.006 63.5865 9.814C63.7305 9.622 63.8025 9.382 63.8025 9.094C63.8025 8.806 63.7365 8.572 63.6045 8.392C63.4845 8.212 63.3045 8.086 63.0645 8.014C62.8245 7.93 62.6025 7.882 62.3985 7.87C62.2065 7.846 61.9605 7.834 61.6605 7.834ZM61.4805 3.01H59.1045V5.314H61.7145C62.1585 5.314 62.5485 5.236 62.8845 5.08C63.2325 4.924 63.4065 4.648 63.4065 4.252C63.4065 3.976 63.3525 3.748 63.2445 3.568C63.1485 3.388 62.9925 3.262 62.7765 3.19C62.5725 3.118 62.3745 3.07 62.1825 3.046C62.0025 3.022 61.7685 3.01 61.4805 3.01ZM70.1518 13H67.2717L72.7978 0.399999H74.8678L80.3938 13H77.4778L76.4518 10.66H71.1778L70.1518 13ZM75.4258 8.302L73.8058 4.54L72.1498 8.302H75.4258ZM91.0804 13H81.4864V0.399999H84.2764V10.39H91.0804V13ZM94.0756 13H91.1956L96.7216 0.399999H98.7916L104.318 13H101.402L100.376 10.66H95.1016L94.0756 13ZM99.3496 8.302L97.7296 4.54L96.0736 8.302H99.3496ZM116.39 0.399999V13H114.23L108.128 5.53V13H105.41V0.399999H107.552L113.672 7.888V0.399999H116.39ZM128.256 8.842L129.912 10.624C129.372 11.452 128.604 12.094 127.608 12.55C126.624 12.994 125.604 13.216 124.548 13.216C122.592 13.216 121.026 12.61 119.85 11.398C118.686 10.186 118.104 8.62 118.104 6.7C118.104 4.828 118.728 3.274 119.976 2.038C121.224 0.802 122.772 0.184 124.62 0.184C125.628 0.184 126.606 0.388 127.554 0.795999C128.514 1.204 129.234 1.798 129.714 2.578L127.824 4.306C127.476 3.874 127.026 3.532 126.474 3.28C125.934 3.016 125.382 2.884 124.818 2.884C123.678 2.884 122.754 3.238 122.046 3.946C121.35 4.642 121.002 5.56 121.002 6.7C121.002 7.804 121.356 8.716 122.064 9.436C122.772 10.156 123.678 10.516 124.782 10.516C126.21 10.516 127.368 9.958 128.256 8.842ZM141.06 13H131.268V0.399999H140.898V3.01H134.058V5.35H140.448V7.87H134.058V10.39H141.06V13ZM156.733 8.842L158.389 10.624C157.849 11.452 157.081 12.094 156.085 12.55C155.101 12.994 154.081 13.216 153.025 13.216C151.069 13.216 149.503 12.61 148.327 11.398C147.163 10.186 146.581 8.62 146.581 6.7C146.581 4.828 147.205 3.274 148.453 2.038C149.701 0.802 151.249 0.184 153.097 0.184C154.105 0.184 155.083 0.388 156.031 0.795999C156.991 1.204 157.711 1.798 158.191 2.578L156.301 4.306C155.953 3.874 155.503 3.532 154.951 3.28C154.411 3.016 153.859 2.884 153.295 2.884C152.155 2.884 151.231 3.238 150.523 3.946C149.827 4.642 149.479 5.56 149.479 6.7C149.479 7.804 149.833 8.716 150.541 9.436C151.249 10.156 152.155 10.516 153.259 10.516C154.687 10.516 155.845 9.958 156.733 8.842ZM169.338 13H159.744V0.399999H162.534V10.39H169.338V13ZM173.575 13H170.785V0.399999H173.575V13ZM186.984 0.399999V13H184.824L178.722 5.53V13H176.004V0.399999H178.146L184.266 7.888V0.399999H186.984ZM192.208 13H189.418V0.399999H192.208V13ZM204.159 8.842L205.815 10.624C205.275 11.452 204.507 12.094 203.511 12.55C202.527 12.994 201.507 13.216 200.451 13.216C198.495 13.216 196.929 12.61 195.753 11.398C194.589 10.186 194.007 8.62 194.007 6.7C194.007 4.828 194.631 3.274 195.879 2.038C197.127 0.802 198.675 0.184 200.523 0.184C201.531 0.184 202.509 0.388 203.457 0.795999C204.417 1.204 205.137 1.798 205.617 2.578L203.727 4.306C203.379 3.874 202.929 3.532 202.377 3.28C201.837 3.016 201.285 2.884 200.721 2.884C199.581 2.884 198.657 3.238 197.949 3.946C197.253 4.642 196.905 5.56 196.905 6.7C196.905 7.804 197.259 8.716 197.967 9.436C198.675 10.156 199.581 10.516 200.685 10.516C202.113 10.516 203.271 9.958 204.159 8.842Z" fill="white"/>
</svg>
