<svg width="72" height="72" viewBox="0 0 72 72" fill="none" xmlns="http://www.w3.org/2000/svg">
<path d="M36 70C54.7777 70 70 54.7777 70 36C70 17.2223 54.7777 2 36 2C17.2223 2 2 17.2223 2 36C2 54.7777 17.2223 70 36 70Z" fill="url(#paint0_radial_3166_29230)"/>
<path fill-rule="evenodd" clip-rule="evenodd" d="M72 36C72 55.8823 55.8823 72 36 72C16.1177 72 0 55.8823 0 36C0 16.1177 16.1177 0 36 0C55.8823 0 72 16.1177 72 36ZM70 36C70 54.7777 54.7777 70 36 70C17.2223 70 2 54.7777 2 36C2 17.2223 17.2223 2 36 2C54.7777 2 70 17.2223 70 36Z" fill="#00A6CA"/>
<path d="M36 70C54.7777 70 70 54.7777 70 36C70 17.2223 54.7777 2 36 2C17.2223 2 2 17.2223 2 36C2 54.7777 17.2223 70 36 70Z" fill="#438FAE"/>
<path d="M36 70C54.7777 70 70 54.7777 70 36C70 17.2223 54.7777 2 36 2C17.2223 2 2 17.2223 2 36C2 54.7777 17.2223 70 36 70Z" fill="url(#paint1_radial_3166_29230)"/>
<path d="M39.4097 66.3599C54.2952 66.3599 66.3623 54.2927 66.3623 39.4072C66.3623 24.5217 54.2952 12.4546 39.4097 12.4546C24.5241 12.4546 12.457 24.5217 12.457 39.4072C12.457 54.2927 24.5241 66.3599 39.4097 66.3599Z" fill="url(#paint2_radial_3166_29230)"/>
<path d="M58.1548 14.5139C52.6539 10.9311 46.0916 8.85144 39.0391 8.85144C21.9438 8.85144 7.70408 21.0654 4.57381 37.2394C4.55224 36.8568 4.54688 36.4743 4.54688 36.0864C4.54688 18.8834 18.4903 4.93994 35.6879 4.93994C44.5184 4.93994 52.4869 8.61438 58.1548 14.5139Z" fill="#72C5D5"/>
<path d="M63.7103 34.1117C65.9837 36.7115 66.7419 40.3227 65.9037 43.673C62.5172 57.2083 50.2722 67.2332 35.687 67.2332C20.6122 67.2332 8.03722 56.517 5.16016 42.2826C7.64928 44.1683 17.7836 50.2295 36.2635 41.3667C53.1827 33.2508 59.2289 28.9868 63.7103 34.1117Z" fill="#296289"/>
<path d="M54.3625 59.5459C54.3625 59.5459 61.4062 53.789 63.911 45.8257C65.6078 40.4313 61.356 34.9816 55.7111 35.3186C55.6291 35.3235 55.5464 35.3291 55.463 35.3355C47.1177 35.9775 24.558 52.9431 8.23438 45.9734C8.23438 45.9734 9.70167 54.5479 19.2391 60.2108C19.2391 60.2108 13.0948 54.4653 12.6363 50.2194C12.6363 50.2194 31.5908 53.9886 48.7844 44.7503C49.937 44.131 51.1604 43.6412 52.4451 43.3936C54.4252 43.0121 57.0211 43.024 58.5711 45.0587C58.7054 45.235 58.8207 45.4287 58.9014 45.6352C60.5652 49.8924 54.3625 59.5459 54.3625 59.5459Z" fill="#17395D"/>
<path d="M40.9151 7.0528C38.095 7.25974 35.2916 7.50328 32.5498 8.02412C29.8107 8.5464 27.1363 9.33466 24.6036 10.4684C22.0568 11.5754 19.6504 12.9884 17.3917 14.6233C15.1328 16.2623 13.0343 18.1326 10.9883 20.0846C12.6996 17.8338 14.6661 15.7595 16.8785 13.9572C19.0838 12.1465 21.5513 10.641 24.1698 9.48277C26.7945 8.33079 29.5879 7.55877 32.4175 7.197C35.2473 6.82283 38.0985 6.81413 40.9151 7.0528Z" fill="#5EB3C8"/>
<path d="M40.9193 7.0716C38.0583 6.98784 35.2173 7.11775 32.4351 7.57744C29.6568 8.04186 26.938 8.81416 24.3703 9.9431C21.795 11.0549 19.3797 12.5232 17.1471 14.2407C14.9157 15.965 12.8836 17.9545 10.9922 20.1027C12.5247 17.6845 14.427 15.4813 16.6147 13.5899C18.7973 11.6913 21.28 10.1243 23.9399 8.95594C26.6076 7.80602 29.4447 7.05143 32.3217 6.7475C35.1967 6.43427 38.1055 6.54391 40.9193 7.0716Z" fill="#9FE5EF"/>
<g style="mix-blend-mode:overlay">
<path d="M50.04 53.1038C49.7493 53.8599 49.1328 54.449 48.3701 54.7221C46.3076 55.4608 41.8882 56.8592 39.5622 56.2172C36.6513 55.4188 29.8959 50.9387 25.3922 44.5685C24.3899 43.1507 23.6001 41.5918 23.0269 39.9528C20.4773 32.6626 20.698 24.6835 21.7087 21.864C22.5227 19.5904 26.2113 16.7784 28.0014 15.5166C28.6626 15.0505 29.4977 14.885 30.2825 15.0809C37.1616 16.798 36.7017 25.1647 36.7017 25.1647C34.4232 26.601 32.1398 28.037 29.8608 29.4732C29.6267 29.6207 29.5421 29.9198 29.6657 30.1673C30.2945 31.427 30.9263 32.6993 31.5535 33.9758C32.1514 35.1959 32.7498 36.4048 33.3313 37.6186C33.9913 38.8082 34.6511 40.0033 35.3106 41.204C35.9936 42.4534 36.6723 43.6981 37.3428 44.938C37.4743 45.1813 37.7676 45.2842 38.0227 45.1774C40.5079 44.1359 42.9934 43.0944 45.4838 42.0531C45.4838 42.0531 52.585 46.4848 50.04 53.1038Z" fill="#CCCCCC"/>
</g>
<defs>
<radialGradient id="paint0_radial_3166_29230" cx="0" cy="0" r="1" gradientUnits="userSpaceOnUse" gradientTransform="translate(36 36.4127) scale(34)">
<stop offset="0.932961" stop-color="#438FAE"/>
<stop offset="0.965357" stop-color="#4490B0"/>
<stop offset="0.981361" stop-color="#4794B8"/>
<stop offset="0.993732" stop-color="#4C9CC5"/>
<stop offset="1" stop-color="#50A1CF"/>
</radialGradient>
<radialGradient id="paint1_radial_3166_29230" cx="0" cy="0" r="1" gradientUnits="userSpaceOnUse" gradientTransform="translate(36 36.4127) scale(34)">
<stop offset="0.932961" stop-color="#438FAE"/>
<stop offset="0.965357" stop-color="#4490B0"/>
<stop offset="0.981361" stop-color="#4794B8"/>
<stop offset="0.993732" stop-color="#4C9CC5"/>
<stop offset="1" stop-color="#50A1CF"/>
</radialGradient>
<radialGradient id="paint2_radial_3166_29230" cx="0" cy="0" r="1" gradientUnits="userSpaceOnUse" gradientTransform="translate(39.4097 39.4072) scale(26.9526)">
<stop stop-color="#3584A6"/>
<stop offset="0.608809" stop-color="#3786A7"/>
<stop offset="0.909299" stop-color="#3F8CAC"/>
<stop offset="1" stop-color="#438FAE"/>
</radialGradient>
</defs>
</svg>
