<svg width="26" height="26" viewBox="0 0 26 26" fill="none" xmlns="http://www.w3.org/2000/svg">
<g clip-path="url(#clip0_2727_18033)">
<path d="M13 26C20.1797 26 26 20.1797 26 13C26 5.8203 20.1797 0 13 0C5.8203 0 0 5.8203 0 13C0 20.1797 5.8203 26 13 26Z" fill="#F0F0F0"/>
<path d="M25.1914 17.5219C25.714 16.1136 26 14.5904 26 13.0002C26 11.4101 25.714 9.88683 25.1914 8.47852H0.80859C0.286051 9.88683 0 11.4101 0 13.0002C0 14.5904 0.286051 16.1136 0.80859 17.5219L13 18.6524L25.1914 17.5219Z" fill="#0052B4"/>
<path d="M13 25.9998C18.5895 25.9998 23.3546 22.4719 25.1914 17.5215H0.808594C2.6454 22.4719 7.41046 25.9998 13 25.9998Z" fill="#D80027"/>
</g>
<defs>
<clipPath id="clip0_2727_18033">
<rect width="26" height="26" fill="white"/>
</clipPath>
</defs>
</svg>
