<svg width="20" height="20" viewBox="0 0 20 20" fill="none" xmlns="http://www.w3.org/2000/svg">
<path fill-rule="evenodd" clip-rule="evenodd" d="M0 1.82582V18.1742C0 18.7493 0.58469 19.0909 1.25007 19.0909H17.3047C18.043 19.0909 18.5548 18.7078 18.5548 18.0214V9.84732C18.5548 9.55219 18.4497 9.30768 18.2925 9.14886C17.5936 8.44277 16.5235 8.9344 16.5235 9.77093V17.0665H2.03133V2.93365H13.2814C14.941 2.93365 14.9401 0.90918 13.2814 0.90918H1.25016C0.580408 0.90918 9.51488e-05 1.23882 9.51488e-05 1.82591L0 1.82582Z" fill="black"/>
<path fill-rule="evenodd" clip-rule="evenodd" d="M9.25811 11.3368C9.08161 11.2211 5.63399 7.81266 5.20544 7.39295C4.91 7.1035 4.79259 6.98236 4.33625 6.98236C3.51712 6.98236 2.96249 7.99939 3.70132 8.71087L8.62651 13.5204C8.69692 13.5724 8.85877 13.6645 8.96153 13.6898C9.25107 13.7613 9.57619 13.7189 9.78904 13.5749C9.85022 13.5334 9.86345 13.5134 9.91721 13.471C9.9741 13.4264 10.0133 13.4026 10.0691 13.3521C10.1629 13.2672 10.2307 13.1931 10.3224 13.1034L19.131 4.48999C19.5958 4.03549 20.0002 3.78148 20.0002 3.12443C20.0002 2.86364 19.8486 2.63801 19.7048 2.4965C19.2617 2.0607 18.6478 2.13001 18.1933 2.57996L9.85374 10.7353C9.68752 10.8978 9.37257 11.1695 9.25801 11.3369L9.25811 11.3368Z" fill="black"/>
</svg>
