<svg width="26" height="26" viewBox="0 0 26 26" fill="none" xmlns="http://www.w3.org/2000/svg">
<path d="M15.1628 16.6187C14.5997 16.9002 14.0717 17.1818 13.535 17.437C12.9015 17.7273 12.2152 17.8593 11.5288 17.9473C9.98902 18.1321 8.5284 17.8593 7.14696 17.173C6.53104 16.8738 5.9855 16.4779 5.47517 16.0203C4.84164 15.4572 4.3225 14.7973 3.90895 14.0582C3.46901 13.2663 3.20504 12.4128 3.07305 11.5153C2.90587 10.3362 3.02906 9.19235 3.40741 8.06608C3.70658 7.17739 4.18172 6.37669 4.78885 5.66397C5.24639 5.12724 5.77433 4.67849 6.35506 4.28254C7.15576 3.7282 8.05326 3.37625 9.00354 3.18267C10.9481 2.76912 12.7871 3.05948 14.5029 4.03617C15.9371 4.85447 17.0018 6.02473 17.6617 7.52935C18.26 8.89318 18.436 10.3186 18.1632 11.7968C17.9433 13.0375 17.4417 14.155 16.6498 15.1316C16.6058 15.1844 16.5706 15.2372 16.6146 15.2196C17.2218 15.8619 17.8201 16.5219 18.4448 17.1554C19.2455 17.9649 20.0638 18.7568 20.8821 19.5487C21.2341 19.9007 21.5948 20.2438 21.9556 20.587C22.3427 20.9741 22.3515 21.4141 21.9556 21.7836C21.7884 21.942 21.6036 22.0916 21.4013 22.1796C21.1109 22.3028 20.8469 22.1796 20.6269 21.9684C19.7207 21.0709 18.8056 20.1822 17.8993 19.2935C17.1954 18.5984 16.4826 17.9121 15.7699 17.2258C15.5588 17.0058 15.3476 16.8034 15.1628 16.6187ZM16.4123 10.4946C16.3595 10.081 16.3331 9.65869 16.2363 9.25394C15.9723 8.12768 15.4004 7.17739 14.5469 6.39428C13.8606 5.76076 13.0599 5.32081 12.1712 5.09204C10.9921 4.79288 9.80425 4.81927 8.65158 5.25042C7.6485 5.61998 6.80381 6.20951 6.14388 7.04541C5.1496 8.29486 4.76245 9.71149 4.98242 11.2953C5.1496 12.5271 5.70394 13.5654 6.57503 14.4365C7.20856 15.07 7.96527 15.51 8.81876 15.8004C9.81304 16.1435 10.8337 16.1787 11.8368 15.9675C13.4382 15.6244 14.6965 14.7621 15.5588 13.3454C16.1043 12.4656 16.3859 11.5241 16.4123 10.4946Z" fill="white"/>
</svg>
