<svg width="9" height="9" viewBox="0 0 9 9" fill="none" xmlns="http://www.w3.org/2000/svg">
<g clip-path="url(#clip0_698_6587)">
<path d="M7.21484 6.1875C6.43976 6.1875 5.80859 6.81825 5.80859 7.59375C5.80859 8.36925 6.43976 9 7.21484 9C7.99 9 8.62109 8.36925 8.62109 7.59375C8.62109 6.81825 7.99 6.1875 7.21484 6.1875ZM7.21484 8.4375C6.74985 8.4375 6.37109 8.05916 6.37109 7.59375C6.37109 7.12834 6.74985 6.75 7.21484 6.75C7.67984 6.75 8.05859 7.12834 8.05859 7.59375C8.05859 8.05916 7.67984 8.4375 7.21484 8.4375Z" fill="white"/>
<path d="M7.21484 0.000976086C6.43976 0.000976086 5.80859 0.631729 5.80859 1.40723C5.80859 2.18272 6.43976 2.81348 7.21484 2.81348C7.99 2.81348 8.62109 2.18272 8.62109 1.40723C8.62109 0.631729 7.99 0.000976086 7.21484 0.000976086ZM7.21484 2.25098C6.74985 2.25098 6.37109 1.87263 6.37109 1.40723C6.37109 0.941818 6.74985 0.563476 7.21484 0.563476C7.67984 0.563476 8.05859 0.941818 8.05859 1.40723C8.05859 1.87263 7.67984 2.25098 7.21484 2.25098Z" fill="white"/>
<path d="M1.77734 3.09375C1.00219 3.09375 0.371094 3.7245 0.371094 4.5C0.371094 5.2755 1.00219 5.90625 1.77734 5.90625C2.5525 5.90625 3.18359 5.2755 3.18359 4.5C3.18359 3.7245 2.5525 3.09375 1.77734 3.09375ZM1.77734 5.34375C1.31235 5.34375 0.933594 4.96541 0.933594 4.5C0.933594 4.03459 1.31235 3.65625 1.77734 3.65625C2.24234 3.65625 2.62109 4.03459 2.62109 4.5C2.62109 4.96541 2.24234 5.34375 1.77734 5.34375Z" fill="white"/>
<path d="M2.75415 4.77382C2.65623 4.77382 2.561 4.82484 2.50963 4.91554C2.43273 5.05054 2.47963 5.22234 2.61462 5.29917L6.09426 7.28296C6.22884 7.36055 6.40099 7.31331 6.47748 7.1779C6.55438 7.04291 6.50748 6.87118 6.37249 6.79427L2.89285 4.81055C2.84897 4.78583 2.80139 4.77382 2.75415 4.77382Z" fill="white"/>
<path d="M6.23301 1.68086C6.18577 1.68086 6.13811 1.69287 6.09424 1.71794L2.61459 3.70172C2.4796 3.77855 2.43277 3.95035 2.5096 4.08535C2.5861 4.22068 2.75789 4.26758 2.89289 4.19033L6.37246 2.20662C6.50746 2.12972 6.55436 1.95799 6.47752 1.82299C6.42575 1.73187 6.33051 1.68086 6.23301 1.68086Z" fill="white"/>
</g>
<defs>
<clipPath id="clip0_698_6587">
<rect width="9" height="9" fill="white" transform="matrix(1 0 0 -1 0 9)"/>
</clipPath>
</defs>
</svg>
