<svg width="10" height="6" viewBox="0 0 10 6" fill="none" xmlns="http://www.w3.org/2000/svg">
<path fill-rule="evenodd" clip-rule="evenodd" d="M7.55057 5.22398H8.77057C8.77057 5.22398 9.42057 5.17398 9.09057 4.67398C9.06057 4.60398 8.90057 4.28398 8.18057 3.61398C7.85057 3.31398 7.69057 3.16398 7.67057 2.99398C7.65057 2.76398 7.91057 2.49398 8.44057 1.78398C9.01057 1.03398 9.24057 0.573978 9.16057 0.373978C9.09057 0.183978 8.67057 0.233978 8.67057 0.233978H7.28057C7.28057 0.233978 7.18057 0.233978 7.11057 0.283978C7.04057 0.333978 6.99057 0.433978 6.99057 0.433978C6.99057 0.433978 6.77057 1.00398 6.48057 1.50398C5.87057 2.55398 5.62057 2.60398 5.52057 2.54398C5.32057 2.42398 5.33057 2.07398 5.34057 1.78398C5.34057 1.72398 5.34057 1.66398 5.34057 1.61398C5.34057 1.38398 5.34057 1.18398 5.35057 1.01398C5.37057 0.423978 5.38057 0.153978 5.04057 0.0639784C4.89057 0.0239784 4.78057 0.00397838 4.39057 0.00397838C3.91057 -0.00602162 3.50057 -0.00602162 3.26057 0.113978C3.11057 0.183978 2.99057 0.363978 3.06057 0.373978C3.16057 0.383978 3.36057 0.423978 3.47057 0.573978C3.61057 0.763978 3.61057 1.19398 3.61057 1.19398C3.61057 1.19398 3.70057 2.38398 3.42057 2.53398C3.23057 2.64398 2.98057 2.43398 2.43057 1.48398C2.14057 0.993978 1.93057 0.463978 1.93057 0.463978C1.93057 0.463978 1.89057 0.363978 1.82057 0.313978C1.73057 0.253978 1.61057 0.223978 1.61057 0.223978H0.300573C0.300573 0.223978 0.100573 0.233978 0.0305729 0.323978C-0.0294271 0.393978 0.0305729 0.563978 0.0305729 0.563978C0.0305729 0.563978 1.06057 2.96398 2.22057 4.17398C3.29057 5.28398 4.50057 5.21398 4.50057 5.21398H5.05057C5.05057 5.21398 5.21057 5.19398 5.30057 5.10398C5.37057 5.03398 5.37057 4.86398 5.37057 4.86398C5.37057 4.86398 5.36057 4.12398 5.69057 4.01398C5.89057 3.94398 6.13057 4.22398 6.39057 4.51398C6.56057 4.70398 6.74057 4.91398 6.92057 5.03398C7.27057 5.27398 7.53057 5.22398 7.53057 5.22398H7.55057Z" fill="white"/>
</svg>
