<svg width="14" height="15" viewBox="0 0 14 15" fill="none" xmlns="http://www.w3.org/2000/svg">
<g clip-path="url(#clip0_698_6602)">
<ellipse cx="7.0018" cy="7.84458" rx="5.38462" ry="5.38461" fill="white"/>
<path d="M7 0.844727C3.13191 0.844727 0 3.97663 0 7.84473C0 11.7128 3.13191 14.8447 7 14.8447C10.8681 14.8447 14 11.7128 14 7.84473C14 3.97663 10.8681 0.844727 7 0.844727ZM11.0053 10.9142L9.78253 10.9267C9.78253 10.9267 9.5205 10.9766 9.17112 10.7396C8.70945 10.4276 8.27273 9.60408 7.93583 9.71638C7.59893 9.82868 7.61141 10.5649 7.61141 10.5649C7.61141 10.5649 7.61141 10.7271 7.53654 10.8019C7.4492 10.8893 7.28699 10.9142 7.28699 10.9142H6.73797C6.73797 10.9142 5.52763 10.9891 4.45455 9.87859C3.29412 8.66826 2.25847 6.26006 2.25847 6.26006C2.25847 6.26006 2.19608 6.09785 2.25847 6.02298C2.33333 5.93564 2.53298 5.93564 2.53298 5.93564L3.84314 5.92316C3.84314 5.92316 3.96791 5.94811 4.05526 6.0105C4.13012 6.06041 4.16756 6.16023 4.16756 6.16023C4.16756 6.16023 4.37968 6.69678 4.66667 7.18341C5.21569 8.13171 5.46524 8.34383 5.65241 8.23154C5.92692 8.0818 5.83957 6.89642 5.83957 6.89642C5.83957 6.89642 5.83957 6.4597 5.70232 6.27253C5.59002 6.1228 5.39037 6.08537 5.29055 6.07289C5.21569 6.06041 5.34046 5.88572 5.4902 5.81086C5.72727 5.69856 6.13904 5.68608 6.63815 5.69856C7.02496 5.69856 7.13725 5.72351 7.28699 5.76095C7.73619 5.87325 7.58645 6.29749 7.58645 7.30818C7.58645 7.6326 7.52406 8.09428 7.76114 8.24401C7.86096 8.3064 8.11052 8.25649 8.72192 7.20836C9.00891 6.70925 9.23351 6.13528 9.23351 6.13528C9.23351 6.13528 9.28342 6.03546 9.35829 5.98555C9.43316 5.93564 9.53298 5.94811 9.53298 5.94811L10.918 5.93564C10.918 5.93564 11.3298 5.88572 11.4046 6.07289C11.4795 6.27253 11.2549 6.73421 10.6809 7.48287C9.75758 8.71817 9.64528 8.60587 10.4189 9.3171C11.1551 10.0034 11.3048 10.3278 11.3298 10.3777C11.6542 10.8768 11.0053 10.9142 11.0053 10.9142Z" fill="#00A6CA"/>
</g>
<defs>
<clipPath id="clip0_698_6602">
<rect width="14" height="14" fill="white" transform="translate(0 0.844727)"/>
</clipPath>
</defs>
</svg>
