<svg width="700" height="700" viewBox="0 0 700 700" fill="none" xmlns="http://www.w3.org/2000/svg">
<path d="M645.545 201.499C638.43 174.916 617.538 154.026 590.955 146.91C542.823 134 349.727 134 349.727 134C349.727 134 156.633 134 108.499 146.91C81.9164 154.026 61.0261 174.916 53.9103 201.499C41 249.633 41 350.12 41 350.12C41 350.12 41 450.607 53.9103 498.741C61.0261 525.324 81.9164 546.214 108.499 553.328C156.633 566.239 349.727 566.239 349.727 566.239C349.727 566.239 542.823 566.239 590.955 553.328C617.538 546.214 638.43 525.324 645.545 498.741C658.456 450.607 658.456 350.12 658.456 350.12C658.456 350.12 658.404 249.633 645.545 201.499Z" fill="#FF0000"/>
<path d="M287.934 442.736L448.346 350.128L287.934 257.52V442.736Z" fill="white"/>
</svg>
