<svg width="26" height="26" viewBox="0 0 26 26" fill="none" xmlns="http://www.w3.org/2000/svg">
<circle cx="13" cy="14" r="10" fill="white"/>
<path d="M13 0C5.8214 0 0 5.8214 0 13C0 20.1786 5.8214 26 13 26C20.1786 26 26 20.1786 26 13C26 5.8214 20.1786 0 13 0ZM13.2755 20.569C13.2753 20.569 13.2757 20.569 13.2755 20.569H13.2724C11.9701 20.5684 10.6904 20.2419 9.55402 19.6222L5.42943 20.7039L6.53333 16.6731C5.85234 15.4936 5.49409 14.1555 5.49469 12.7846C5.49648 8.49594 8.98689 5.00691 13.2755 5.00691C15.3568 5.00771 17.3105 5.81783 18.7793 7.2879C20.2484 8.75818 21.057 10.7125 21.0562 12.7907C21.0544 17.0796 17.5636 20.569 13.2755 20.569Z" fill="#34C456"/>
<path d="M13.2785 6.32031C9.71126 6.32031 6.81018 9.2202 6.80859 12.7848C6.8082 14.0063 7.15018 15.1959 7.79744 16.2252L7.95117 16.4698L7.29776 18.8555L9.74538 18.2136L9.98163 18.3537C10.9744 18.9428 12.1127 19.2545 13.2731 19.2549H13.2757C16.8401 19.2549 19.7412 16.3548 19.7428 12.79C19.7434 11.0624 19.0713 9.4382 17.8504 8.21628C16.6294 6.99435 15.0056 6.32091 13.2785 6.32031ZM17.0823 15.5643C16.9202 16.0181 16.1436 16.4325 15.7701 16.4885C15.4351 16.5385 15.0114 16.5593 14.5456 16.4115C14.2631 16.3218 13.9011 16.2022 13.4371 16.0021C11.487 15.1602 10.2133 13.1972 10.1161 13.0675C10.0189 12.9377 9.32227 12.0136 9.32227 11.0569C9.32227 10.1003 9.82453 9.63002 10.0027 9.43562C10.181 9.24103 10.3917 9.19243 10.5212 9.19243C10.6507 9.19243 10.7804 9.19362 10.8937 9.19917C11.0131 9.20512 11.1734 9.15375 11.3311 9.53282C11.4932 9.92201 11.882 10.8785 11.9306 10.9757C11.9792 11.0731 12.0115 11.1866 11.9468 11.3163C11.882 11.446 11.6665 11.7259 11.4608 11.981C11.3745 12.088 11.2621 12.1832 11.3755 12.3778C11.4888 12.5722 11.8792 13.2087 12.457 13.7241C13.1997 14.3862 13.8261 14.5913 14.0205 14.6887C14.2147 14.7859 14.3282 14.7696 14.4417 14.6401C14.5549 14.5104 14.9277 14.0726 15.0572 13.878C15.1867 13.6834 15.3164 13.7159 15.4946 13.7808C15.6729 13.8455 16.6286 14.3158 16.823 14.413C17.0174 14.5104 17.147 14.559 17.1956 14.6401C17.2444 14.7212 17.2444 15.1102 17.0823 15.5643Z" fill="#34C456"/>
</svg>
