<svg width="26" height="26" viewBox="0 0 26 26" fill="none" xmlns="http://www.w3.org/2000/svg">
<path d="M13 26C20.1797 26 26 20.1797 26 13C26 5.8203 20.1797 0 13 0C5.8203 0 0 5.8203 0 13C0 20.1797 5.8203 26 13 26Z" fill="#7B59E9"/>
<path d="M18.6392 7.13222C15.4749 6.36796 12.305 5.47401 9.05994 6.60978C6.95891 7.39765 6.95891 9.67377 7.04646 11.5997C7.04646 12.1249 6.43368 12.8253 6.69627 13.4381C7.2215 15.1889 7.65924 16.9398 9.49762 17.8152C9.76026 17.9903 9.49762 18.3404 9.67271 18.603C9.58517 18.603 9.41007 18.6906 9.41007 18.7781C9.41007 19.1977 9.59837 19.8396 9.4733 20.2533L15.0595 25.8372C20.8024 24.9227 25.2908 20.2478 25.9224 14.4155L18.6392 7.13222Z" fill="#7B59E9"/>
<path d="M19.877 9.13641L19.8727 9.11925C19.5254 7.71499 17.9594 6.20821 16.5213 5.89474L16.5051 5.89139C14.179 5.44766 11.8204 5.44766 9.49486 5.89139L9.47816 5.89474C8.04054 6.20821 6.4745 7.7151 6.1267 9.11925L6.12284 9.13641C5.69343 11.0974 5.69343 13.0862 6.12284 15.0472L6.1267 15.0644C6.45972 16.4087 7.90907 17.8463 9.29352 18.2416V19.8092C9.29352 20.3765 9.9849 20.6552 10.3781 20.2457L11.9662 18.5949C12.3107 18.6141 12.6554 18.6249 12.9999 18.6249C14.1708 18.6249 15.3422 18.5141 16.505 18.2923L16.5212 18.289C17.9593 17.9755 19.5253 16.4686 19.8727 15.0645L19.8769 15.0473C20.3063 13.0862 20.3063 11.0975 19.877 9.13641ZM18.6201 14.7629C18.3882 15.6791 17.1992 16.818 16.2545 17.0284C15.0177 17.2636 13.7711 17.3641 12.5257 17.3297C12.5009 17.329 12.4771 17.3386 12.4599 17.3564C12.2831 17.5378 11.3003 18.5468 11.3003 18.5468L10.0669 19.8127C9.97673 19.9067 9.81829 19.8427 9.81829 19.7129V17.1162C9.81829 17.0733 9.78767 17.0369 9.74552 17.0285C9.74527 17.0284 9.74506 17.0284 9.74481 17.0284C8.80007 16.8179 7.61149 15.679 7.37916 14.7629C6.99267 12.9903 6.99267 11.1934 7.37916 9.42079C7.61149 8.50464 8.80007 7.36572 9.74481 7.15528C11.9048 6.74446 14.0949 6.74446 16.2545 7.15528C17.1997 7.36572 18.3882 8.50464 18.6202 9.42079C19.0071 11.1934 19.0071 12.9904 18.6201 14.7629Z" fill="white"/>
<path d="M15.0552 15.9617C14.91 15.9175 14.7716 15.8879 14.643 15.8347C13.3109 15.282 12.0851 14.569 11.1141 13.4762C10.5619 12.8547 10.1297 12.1531 9.76439 11.4105C9.59112 11.0584 9.44512 10.6925 9.29628 10.329C9.1606 9.99745 9.36047 9.65498 9.57091 9.40514C9.7684 9.17068 10.0226 8.99132 10.2978 8.85904C10.5126 8.75585 10.7245 8.81537 10.8814 8.99742C11.2205 9.39107 11.5321 9.80484 11.7843 10.2612C11.9394 10.5418 11.8968 10.8849 11.6157 11.0759C11.5473 11.1223 11.4851 11.1768 11.4214 11.2293C11.3656 11.2752 11.3131 11.3216 11.2748 11.3838C11.2048 11.4976 11.2015 11.6319 11.2465 11.7557C11.5932 12.7084 12.1775 13.4493 13.1365 13.8484C13.29 13.9122 13.444 13.9865 13.6209 13.966C13.9169 13.9314 14.0128 13.6066 14.2203 13.4369C14.4231 13.2711 14.6822 13.2689 14.9007 13.4072C15.1192 13.5455 15.3309 13.6939 15.5415 13.8439C15.7481 13.9912 15.9539 14.1352 16.1444 14.3031C16.3278 14.4645 16.3909 14.6763 16.2876 14.8953C16.0987 15.2965 15.8238 15.6302 15.4272 15.8433C15.3152 15.9033 15.1815 15.9228 15.0552 15.9617C14.91 15.9175 15.1815 15.9228 15.0552 15.9617Z" fill="white"/>
<path d="M13.0034 8.40108C14.7457 8.44993 16.1768 9.60617 16.4834 11.3287C16.5357 11.6222 16.5543 11.9222 16.5775 12.2201C16.5873 12.3454 16.5163 12.4644 16.3812 12.4661C16.2415 12.4678 16.1787 12.3509 16.1696 12.2257C16.1516 11.9778 16.1392 11.7287 16.105 11.4829C15.9247 10.185 14.8898 9.11125 13.5979 8.88086C13.4034 8.84618 13.2046 8.83709 13.0076 8.81642C12.8831 8.80337 12.7201 8.79585 12.6926 8.64107C12.6695 8.51133 12.7789 8.40804 12.9025 8.40138C12.936 8.3994 12.9697 8.40098 13.0034 8.40108C14.7458 8.44993 12.9697 8.40098 13.0034 8.40108Z" fill="white"/>
<path d="M15.6516 11.8319C15.6487 11.8537 15.6472 11.9048 15.6345 11.9529C15.5882 12.1278 15.323 12.1497 15.262 11.9733C15.2438 11.9209 15.2412 11.8613 15.241 11.8049C15.2404 11.4359 15.1603 11.0673 14.9741 10.7462C14.7828 10.4161 14.4906 10.1388 14.1478 9.9709C13.9405 9.86944 13.7164 9.80632 13.4892 9.76879C13.39 9.75234 13.2896 9.74243 13.1898 9.72852C13.0689 9.71171 13.0043 9.63468 13.0101 9.51554C13.0155 9.40393 13.0971 9.32354 13.2187 9.3305C13.6185 9.35315 14.0048 9.43968 14.3603 9.62787C15.0831 10.0107 15.4961 10.6149 15.6166 11.4218C15.6221 11.4584 15.6308 11.4945 15.6336 11.5312C15.6404 11.6217 15.6447 11.7123 15.6516 11.8319C15.6487 11.8536 15.6447 11.7123 15.6516 11.8319Z" fill="white"/>
<path d="M14.5669 11.7904C14.4212 11.793 14.3432 11.7123 14.3281 11.5787C14.3177 11.4856 14.3094 11.3911 14.2871 11.3004C14.2433 11.1218 14.1484 10.9564 13.9982 10.8469C13.9273 10.7953 13.8469 10.7577 13.7628 10.7333C13.6559 10.7024 13.5448 10.7109 13.4382 10.6848C13.3224 10.6564 13.2583 10.5626 13.2765 10.4539C13.2931 10.355 13.3892 10.2778 13.4974 10.2857C14.1728 10.3345 14.6556 10.6837 14.7245 11.4789C14.7295 11.535 14.7352 11.5943 14.7227 11.6481C14.7013 11.7398 14.6332 11.7859 14.5669 11.7904C14.4211 11.7929 14.6332 11.7859 14.5669 11.7904Z" fill="white"/>
<path d="M19.8772 9.13764L19.8729 9.12048C19.6782 8.33332 19.1005 7.51402 18.377 6.89062L17.399 7.75736C17.9806 8.22074 18.4788 8.86266 18.6204 9.42197C19.0074 11.1946 19.0074 12.9915 18.6204 14.7642C18.3885 15.6803 17.1995 16.8192 16.2548 17.0297C15.018 17.2649 13.7714 17.3654 12.526 17.3309C12.5012 17.3302 12.4774 17.3398 12.4602 17.3576C12.2834 17.539 11.3006 18.548 11.3006 18.548L10.0672 19.8139C9.97705 19.9079 9.81861 19.844 9.81861 19.7142V17.1174C9.81861 17.0745 9.78799 17.0381 9.74584 17.0298C9.74559 17.0298 9.74539 17.0297 9.74513 17.0297C9.20822 16.9101 8.5928 16.4905 8.11871 15.9825L7.15234 16.8388C7.75588 17.4954 8.5343 18.0261 9.29369 18.243V19.8105C9.29369 20.3779 9.98507 20.6565 10.3782 20.2471L11.9664 18.5962C12.3109 18.6155 12.6555 18.6262 13.0001 18.6262C14.171 18.6262 15.3424 18.5155 16.5052 18.2937L16.5214 18.2904C17.9595 17.9769 19.5255 16.4701 19.8728 15.0658L19.8771 15.0487C20.3066 13.0875 20.3066 11.0988 19.8772 9.13764Z" fill="white"/>
<path d="M15.0557 15.9628C15.182 15.9239 14.9105 15.9187 15.0557 15.9628V15.9628Z" fill="white"/>
<path d="M16.1441 14.3034C15.9535 14.1356 15.7477 13.9915 15.5411 13.8442C15.3306 13.6942 15.1188 13.5458 14.9003 13.4075C14.6819 13.2692 14.4227 13.2714 14.2199 13.4372C14.0124 13.6069 13.9166 13.9317 13.6205 13.9663C13.4437 13.9868 13.2896 13.9125 13.1362 13.8487C12.5461 13.6032 12.0984 13.2278 11.7601 12.7539L11.041 13.3912C11.0654 13.4195 11.0888 13.4485 11.1136 13.4765C12.0846 14.5693 13.3105 15.2823 14.6425 15.835C14.771 15.8883 14.9095 15.9179 15.0547 15.962C14.9095 15.9178 15.1811 15.9231 15.0547 15.962C15.1811 15.9231 15.3147 15.9036 15.4268 15.8435C15.8235 15.6305 16.0983 15.2967 16.2872 14.8956C16.3905 14.6766 16.3274 14.4648 16.1441 14.3034Z" fill="white"/>
<path d="M13.0039 8.40039C13.0054 8.40039 13.0068 8.40054 13.0083 8.40054C13.105 8.404 14.6776 8.44731 13.0039 8.40039Z" fill="white"/>
<path d="M15.5038 9.4375L15.1973 9.70923C15.679 10.1779 16.0112 10.7991 16.1062 11.4828C16.1403 11.7286 16.1529 11.9776 16.1708 12.2255C16.1799 12.3508 16.2427 12.4677 16.3824 12.466C16.5176 12.4644 16.5886 12.3454 16.5788 12.2201C16.5555 11.9222 16.5369 11.6221 16.4847 11.3286C16.3505 10.5746 16.0007 9.92911 15.5038 9.4375Z" fill="white"/>
<path d="M15.6168 11.4235C15.529 10.8355 15.2851 10.3558 14.8799 9.99023L14.5742 10.2612C14.7323 10.4015 14.8691 10.5662 14.9744 10.748C15.1605 11.0691 15.2407 11.4378 15.2413 11.8067C15.2414 11.8631 15.2441 11.9227 15.2622 11.9752C15.3233 12.1517 15.5885 12.1299 15.6347 11.9549C15.6475 11.9066 15.649 11.8555 15.6518 11.8338C15.649 11.8556 15.6448 11.7143 15.6518 11.8338C15.6448 11.7143 15.6406 11.6236 15.6337 11.533C15.631 11.4962 15.6222 11.46 15.6168 11.4235Z" fill="white"/>
<path d="M15.6523 11.8338C15.6454 11.7142 15.6494 11.8555 15.6523 11.8338V11.8338Z" fill="white"/>
<path d="M14.5675 11.7906C14.5698 11.7905 14.5719 11.7893 14.5741 11.7891C14.568 11.7891 14.5585 11.7892 14.5488 11.7896C14.5551 11.7897 14.5609 11.7907 14.5675 11.7906Z" fill="white"/>
<path d="M14.568 11.7921C14.5614 11.7922 14.5556 11.7912 14.5493 11.791C14.5178 11.7919 14.4852 11.7936 14.568 11.7921Z" fill="white"/>
<path d="M14.575 11.7891C14.5727 11.7893 14.5705 11.7905 14.5684 11.7906C14.5854 11.7895 14.5839 11.7891 14.575 11.7891Z" fill="white"/>
<path d="M14.2604 10.5391L13.9492 10.8149C13.9664 10.8253 13.9832 10.8362 13.9995 10.848C14.1497 10.9574 14.2446 11.1229 14.2884 11.3015C14.3106 11.3922 14.3189 11.4865 14.3294 11.5798C14.3437 11.7074 14.4162 11.7858 14.5496 11.7904C14.5593 11.7902 14.5688 11.79 14.5749 11.7899C14.639 11.7828 14.7034 11.7378 14.724 11.649C14.7364 11.5954 14.7307 11.536 14.7258 11.4799C14.6871 11.0353 14.519 10.7303 14.2604 10.5391Z" fill="white"/>
</svg>
