<svg width="26" height="26" viewBox="0 0 26 26" fill="none" xmlns="http://www.w3.org/2000/svg">
<circle cx="13.0117" cy="13" r="10" fill="white"/>
<path d="M12.9992 10.7188C11.7318 10.7188 10.6816 11.7689 10.6816 13.0363C10.6816 14.3037 11.7318 15.3538 12.9992 15.3538C14.2666 15.3538 15.3167 14.3037 15.3167 13.0363C15.3167 11.7689 14.3028 10.7188 12.9992 10.7188Z" fill="url(#paint0_linear_2724_19367)"/>
<path d="M16.8753 6.91602H9.12598C7.89479 6.91602 6.88086 7.92994 6.88086 9.16114V16.9104C6.88086 18.1416 7.89479 19.1556 9.12598 19.1556H16.8753C18.1065 19.1556 19.1204 18.1416 19.1204 16.9104V9.16114C19.1204 7.92994 18.1065 6.91602 16.8753 6.91602ZM17.0201 13.0358C17.0201 15.2447 15.2095 17.0553 13.0006 17.0553C10.7917 17.0553 8.98114 15.2447 8.98114 13.0358C8.98114 10.8269 10.7917 9.01629 13.0006 9.01629C15.2095 9.01629 17.0201 10.8269 17.0201 13.0358ZM18.1065 8.90766C18.1065 9.45083 17.6719 9.84916 17.165 9.84916C16.6218 9.84916 16.2235 9.41462 16.2235 8.90766C16.2235 8.4007 16.658 7.96615 17.165 7.96615C17.6719 7.92994 18.1065 8.36448 18.1065 8.90766C18.1065 8.87145 18.1065 8.90766 18.1065 8.90766Z" fill="url(#paint1_linear_2724_19367)"/>
<path d="M13 0C5.83008 0 0 5.83008 0 13C0 20.1699 5.83008 26 13 26C20.1699 26 26 20.1699 26 13C26 5.83008 20.1699 0 13 0ZM20.8217 16.9109C20.8217 19.0836 19.0474 20.8579 16.8746 20.8579H9.12535C6.95265 20.8579 5.17827 19.0836 5.17827 16.9109V9.16156C5.17827 6.98886 6.95265 5.21448 9.12535 5.21448H16.8746C19.0474 5.21448 20.8217 6.98886 20.8217 9.16156V16.9109Z" fill="url(#paint2_linear_2724_19367)"/>
<defs>
<linearGradient id="paint0_linear_2724_19367" x1="10.9928" y1="15.0519" x2="15.2876" y2="11.3341" gradientUnits="userSpaceOnUse">
<stop stop-color="#FFDD55"/>
<stop offset="0.5" stop-color="#FF543E"/>
<stop offset="1" stop-color="#C837AB"/>
</linearGradient>
<linearGradient id="paint1_linear_2724_19367" x1="7.70264" y1="18.3582" x2="19.0434" y2="8.54093" gradientUnits="userSpaceOnUse">
<stop stop-color="#FFDD55"/>
<stop offset="0.5" stop-color="#FF543E"/>
<stop offset="1" stop-color="#C837AB"/>
</linearGradient>
<linearGradient id="paint2_linear_2724_19367" x1="1.74568" y1="24.3061" x2="25.8365" y2="3.45173" gradientUnits="userSpaceOnUse">
<stop stop-color="#FFDD55"/>
<stop offset="0.5" stop-color="#FF543E"/>
<stop offset="1" stop-color="#C837AB"/>
</linearGradient>
</defs>
</svg>
