<svg width="26" height="26" viewBox="0 0 26 26" fill="none" xmlns="http://www.w3.org/2000/svg">
<circle cx="13" cy="13" r="13" fill="white"/>
<path d="M13.4911 15.8268C13.3538 15.9527 13.1821 16.0099 13.0104 16.0213C12.8274 16.0213 12.6443 15.9527 12.5184 15.8268L10.4928 13.9844L6.13281 17.9439H19.8881L15.5166 13.9844L13.4911 15.8268Z" fill="#F26522"/>
<path d="M19.8783 8.05664H6.12305L13.0007 14.3049L19.8783 8.05664Z" fill="#F26522"/>
<path d="M4.9668 8.97266V17.0404L9.40694 13.0008L4.9668 8.97266Z" fill="#F26522"/>
<path d="M21.0339 17.0404V8.97266L16.5938 13.0008L21.0339 17.0404Z" fill="#F26522"/>
<path d="M13 0C5.82482 0 0 5.82482 0 13C0 20.1752 5.82482 26 13 26C20.1752 26 26 20.1752 26 13C26 5.82482 20.1866 0 13 0ZM21.7658 19.397H4.2456C3.84507 19.397 3.52465 19.0766 3.52465 18.6761V7.33539C3.52465 6.93486 3.84507 6.61444 4.2456 6.61444H21.7658C22.1664 6.61444 22.4868 6.93486 22.4868 7.33539V18.6761C22.4868 19.0651 22.1664 19.397 21.7658 19.397Z" fill="#F26522"/>
</svg>
