<svg width="30" height="30" viewBox="0 0 30 30" fill="none" xmlns="http://www.w3.org/2000/svg">
<path fill-rule="evenodd" clip-rule="evenodd" d="M15.7992 6.3757C15.4722 6.42911 13.1025 6.96146 13.1025 11.0829C13.1025 12.9644 13.5746 14.0978 14.1169 14.7792C14.6391 15.4351 15.4489 15.7954 16.2873 15.7954H17.7543V6.37036H15.8688C15.8454 6.37036 15.8227 6.37175 15.7992 6.3757Z" fill="#00A29D"/>
<path fill-rule="evenodd" clip-rule="evenodd" d="M0 0V30H30V0H0ZM20.0188 25.3846H17.8157V17.6318H16.2651L12.756 25.3846H9.98116L14.3881 17.4277C14.3881 17.4277 10.6753 15.7141 10.6753 11.4703C10.6753 7.2271 13.634 4.61539 16.1173 4.61539H20.0188V25.3846Z" fill="#00A29D"/>
</svg>
