<svg width="30" height="30" viewBox="0 0 30 30" fill="none" xmlns="http://www.w3.org/2000/svg">
<g clip-path="url(#clip0)">
<path d="M15 30C23.2843 30 30 23.2843 30 15C30 6.71573 23.2843 0 15 0C6.71573 0 0 6.71573 0 15C0 23.2843 6.71573 30 15 30Z" fill="#00A29D"/>
<path d="M5.22255 15.6718C5.16934 18.2527 6.94694 20.7156 9.39222 21.5188C11.6955 22.2926 14.5274 21.7137 16.0601 19.7412C17.1791 18.3591 17.4334 16.5165 17.3123 14.7951C15.3398 14.7774 13.3672 14.7833 11.3976 14.7862C11.3944 15.4889 11.3976 16.189 11.4006 16.8917C12.5816 16.9243 13.763 16.9093 14.944 16.9331C14.6459 17.9548 13.9667 18.9056 12.9359 19.2746C10.9457 20.1517 8.40635 19.0059 7.78013 16.9181C7.02422 14.9189 8.26169 12.5062 10.3048 11.9246C11.5717 11.4789 12.8768 11.9808 13.9608 12.6394C14.51 12.1254 15.024 11.5762 15.5288 11.0211C14.2972 9.99061 12.7145 9.35876 11.0875 9.49754C7.8951 9.53551 5.10142 12.4827 5.22255 15.6718Z" fill="#00A29D"/>
<path d="M21.1514 13.0132C21.1455 13.6009 21.1394 14.1916 21.1364 14.779C20.5458 14.7849 19.9583 14.7878 19.3706 14.7908C19.3706 15.3785 19.3706 15.963 19.3706 16.5507C19.9583 16.5537 20.549 16.5566 21.1364 16.5628C21.1423 17.1505 21.1423 17.738 21.1482 18.3286C21.733 18.3286 22.3207 18.3257 22.9082 18.3286C22.9114 17.738 22.914 17.1505 22.9202 16.5598C23.5077 16.5569 24.0983 16.554 24.686 16.551C24.686 15.9633 24.686 15.3788 24.686 14.7911C24.0986 14.7881 23.5079 14.7852 22.9202 14.7793C22.917 14.1916 22.9114 13.6009 22.9082 13.0135C22.3207 13.0132 21.7359 13.0132 21.1514 13.0132Z" fill="#00A29D"/>
<path d="M7.00501 15.0102C6.84512 10.8857 10.5326 7.07406 14.7466 7.0246C16.8944 6.84512 18.984 7.66229 20.6094 8.99507C19.9426 9.71333 19.2642 10.4233 18.5396 11.088C17.1087 10.2362 15.3858 9.58711 13.7135 10.1636C11.0161 10.9161 9.38259 14.0364 10.3808 16.6217C11.2074 19.3219 14.5595 20.8037 17.1867 19.6694C18.547 19.1922 19.4439 17.9625 19.8374 16.6411C18.2784 16.6107 16.719 16.6297 15.1599 16.5875C15.156 15.6787 15.1522 14.7733 15.156 13.8645C17.756 13.8607 20.3598 13.8531 22.9636 13.8759C23.1235 16.1027 22.7882 18.4857 21.3107 20.2729C19.2875 22.824 15.5496 23.5726 12.5088 22.5719C9.28164 21.5334 6.93477 18.348 7.00501 15.0102Z" fill="white"/>
</g>
<defs>
<clipPath id="clip0">
<rect width="30" height="30" fill="white"/>
</clipPath>
</defs>
</svg>
