<svg width="19" height="19" viewBox="0 0 19 19" fill="none" xmlns="http://www.w3.org/2000/svg">
<path d="M6.37305 4.14675C7.24467 3.11719 8.37042 2.49731 9.60067 2.49731C12.3664 2.49731 14.6084 5.63231 14.6084 9.5C14.6084 13.3677 12.3664 16.5039 9.60067 16.5039C8.37042 16.5039 7.24467 15.8828 6.37305 14.8544C7.7363 16.6238 9.76217 17.746 12.0244 17.746C13.4161 17.746 14.7176 17.3209 15.8315 16.5823C17.7754 14.8426 18.9997 12.3144 18.9997 9.5C18.9997 6.68563 17.7754 4.15744 15.8315 2.41894C14.7176 1.68031 13.4161 1.25519 12.0244 1.25519C9.76217 1.254 7.73511 2.37738 6.37305 4.14675Z" fill="#D32F2F"/>
<path d="M9.5 0C4.25362 0 0 4.25362 0 9.5C0 14.5944 4.01137 18.753 9.04756 18.9893C9.19719 18.9964 9.348 19 9.5 19C11.932 19 14.1502 18.0856 15.8306 16.5823C14.7167 17.3209 13.4152 17.746 12.0234 17.746C9.76125 17.746 7.73537 16.6238 6.37212 14.8544C5.32119 13.6147 4.64075 11.7824 4.59562 9.72444C4.59562 9.71969 4.59562 9.28269 4.59562 9.27675C4.64194 7.22 5.32237 5.3865 6.37212 4.14675C7.73537 2.37738 9.76125 1.25519 12.0234 1.25519C13.4152 1.25519 14.7167 1.68031 15.8306 2.41894C14.1597 0.922687 11.9546 0.0095 9.53562 0C9.52375 0 9.51187 0 9.5 0Z" fill="#F44336"/>
</svg>
