<svg width="16" height="16" viewBox="0 0 16 16" fill="none" xmlns="http://www.w3.org/2000/svg">
<path d="M14.8281 0.791992H1.17188C0.525688 0.791992 0 1.30427 0 1.93397V11.5266C0 12.1563 0.525688 12.6686 1.17188 12.6686H5.93928L5.65719 13.6307C5.54391 14.0171 5.09984 14.3435 4.6875 14.3435H3.15625C3.02681 14.3435 2.92188 14.4458 2.92188 14.5719C2.92188 14.698 3.02681 14.8003 3.15625 14.8003H12.8438C12.9732 14.8003 13.0781 14.698 13.0781 14.5719C13.0781 14.4458 12.9732 14.3435 12.8438 14.3435H11.3125C10.9002 14.3435 10.4561 14.0171 10.3428 13.6307L10.0607 12.6686H14.8281C15.4743 12.6686 16 12.1563 16 11.5266V1.93397C16 1.30427 15.4743 0.791992 14.8281 0.791992ZM9.89209 13.7562C9.95641 13.9756 10.0842 14.1772 10.2518 14.3435H5.74816C5.91575 14.1772 6.04359 13.9756 6.10791 13.7562L6.42678 12.6686H9.57319L9.89209 13.7562ZM15.5312 11.5266C15.5312 11.9045 15.2158 12.2118 14.8281 12.2118H1.17188C0.784156 12.2118 0.46875 11.9045 0.46875 11.5266V1.93397C0.46875 1.55615 0.784156 1.24878 1.17188 1.24878H14.8281C15.2158 1.24878 15.5312 1.55615 15.5312 1.93397V11.5266Z" fill="black"/>
<path d="M15.0625 10.613V1.93396C15.0625 1.80783 14.9576 1.70557 14.8281 1.70557H1.17188C1.04244 1.70557 0.9375 1.80783 0.9375 1.93396L0.9375 6.77185C0.9375 6.89798 1.04244 7.00024 1.17188 7.00024C1.30131 7.00024 1.40625 6.89798 1.40625 6.77185V2.16236H14.5938V10.3846H1.40625V6.73029C1.40625 6.60415 1.30131 6.50189 1.17188 6.50189C1.04244 6.50189 0.9375 6.60415 0.9375 6.73029V10.613C0.9375 10.7392 1.04244 10.8414 1.17188 10.8414H14.8281C14.9576 10.8414 15.0625 10.7392 15.0625 10.613Z" fill="black"/>
</svg>
