<svg width="14" height="14" viewBox="0 0 14 14" fill="none" xmlns="http://www.w3.org/2000/svg">
<path d="M7 14C10.866 14 14 10.866 14 7C14 3.13401 10.866 0 7 0C3.13401 0 0 3.13401 0 7C0 10.866 3.13401 14 7 14Z" fill="#1DA2F8"/>
<path d="M7.0004 1.03606C6.95326 1.03606 6.91504 0.997834 6.91504 0.950693V0.56006C6.91504 0.51292 6.95326 0.474693 7.0004 0.474693C7.04754 0.474693 7.08577 0.51292 7.08577 0.56006V0.950693C7.08577 0.997834 7.04754 1.03606 7.0004 1.03606Z" fill="#F2F2F2"/>
<path d="M7.0004 13.5253C6.95326 13.5253 6.91504 13.4871 6.91504 13.44V13.0493C6.91504 13.0022 6.95326 12.964 7.0004 12.964C7.04754 12.964 7.08577 13.0022 7.08577 13.0493V13.44C7.08577 13.4871 7.04754 13.5253 7.0004 13.5253Z" fill="#F2F2F2"/>
<path d="M5.94905 1.128C5.90836 1.128 5.87235 1.09885 5.86505 1.05742L5.79721 0.672725C5.78903 0.626295 5.82004 0.581998 5.86644 0.57385C5.91301 0.565756 5.95719 0.596682 5.96534 0.643111L6.03318 1.02781C6.04136 1.07424 6.01035 1.11854 5.96395 1.12669C5.95892 1.12753 5.95397 1.128 5.94905 1.128Z" fill="#F2F2F2"/>
<path d="M8.11799 13.4275C8.07731 13.4275 8.04129 13.3984 8.03399 13.3569L7.96615 12.9722C7.95798 12.9258 7.98898 12.8815 8.03539 12.8734C8.08195 12.8652 8.12614 12.8962 8.13429 12.9426L8.20213 13.3273C8.21031 13.3737 8.1793 13.418 8.1329 13.4262C8.12786 13.4271 8.12292 13.4275 8.11799 13.4275Z" fill="#F2F2F2"/>
<path d="M4.93089 1.40088C4.89603 1.40088 4.8633 1.37933 4.85069 1.34469L4.71706 0.977626C4.70098 0.933302 4.72382 0.884329 4.76811 0.868196C4.81227 0.852145 4.86141 0.874895 4.87749 0.91922L5.01109 1.28628C5.02722 1.33061 5.00436 1.37958 4.96007 1.39571C4.95044 1.39921 4.9406 1.40088 4.93089 1.40088Z" fill="#F2F2F2"/>
<path d="M9.20237 13.137C9.16751 13.137 9.13478 13.1154 9.12217 13.0808L8.98857 12.7137C8.97244 12.6694 8.9953 12.6204 9.03959 12.6043C9.08375 12.5882 9.13289 12.611 9.14897 12.6553L9.28259 13.0224C9.29867 13.0667 9.27584 13.1157 9.23154 13.1318C9.22192 13.1353 9.21208 13.137 9.20237 13.137Z" fill="#F2F2F2"/>
<path d="M3.97511 1.84654C3.94561 1.84654 3.91693 1.83122 3.90109 1.80382L3.70578 1.46553C3.68223 1.4247 3.69618 1.37251 3.73703 1.34894C3.7778 1.32526 3.83005 1.33934 3.85365 1.38016L4.04897 1.71846C4.07251 1.75928 4.05857 1.81148 4.01772 1.83505C4.00432 1.84284 3.98961 1.84654 3.97511 1.84654Z" fill="#F2F2F2"/>
<path d="M10.2202 12.6625C10.1907 12.6625 10.162 12.6472 10.1462 12.6198L9.95089 12.2815C9.92735 12.2407 9.9413 12.1885 9.98215 12.1649C10.0229 12.1413 10.0751 12.1553 10.0988 12.1962L10.2941 12.5345C10.3176 12.5753 10.3037 12.6275 10.2628 12.6511C10.2494 12.6588 10.2347 12.6625 10.2202 12.6625Z" fill="#F2F2F2"/>
<path d="M3.1119 2.45132C3.08756 2.45132 3.06334 2.44096 3.04647 2.42083L2.79537 2.12161C2.76505 2.08549 2.76978 2.03165 2.80592 2.00133C2.84199 1.97106 2.89586 1.97573 2.92618 2.01185L3.17728 2.31108C3.2076 2.3472 3.20287 2.40104 3.16672 2.43136C3.15076 2.44479 3.13129 2.45132 3.1119 2.45132Z" fill="#F2F2F2"/>
<path d="M11.1392 12.0186C11.1149 12.0186 11.0907 12.0083 11.0738 11.9882L10.8227 11.6889C10.7924 11.6528 10.7971 11.599 10.8333 11.5687C10.8693 11.5384 10.9232 11.5431 10.9535 11.5792L11.2046 11.8784C11.2349 11.9145 11.2302 11.9684 11.194 11.9987C11.1781 12.0121 11.1586 12.0186 11.1392 12.0186Z" fill="#F2F2F2"/>
<path d="M2.36599 3.19695C2.34663 3.19695 2.32713 3.19042 2.31119 3.17699L2.01197 2.9259C1.97582 2.89557 1.97112 2.84176 2.00141 2.80561C2.03174 2.76946 2.0856 2.76481 2.12167 2.79508L2.42089 3.04618C2.45704 3.07651 2.46175 3.13032 2.43145 3.16647C2.41455 3.18656 2.39032 3.19695 2.36599 3.19695Z" fill="#F2F2F2"/>
<path d="M11.9334 11.2249C11.914 11.2249 11.8945 11.2184 11.8785 11.2049L11.5793 10.9538C11.5432 10.9235 11.5385 10.8697 11.5688 10.8335C11.5991 10.7974 11.6529 10.7927 11.6891 10.823L11.9883 11.0741C12.0243 11.1044 12.0291 11.1583 11.9988 11.1944C11.9819 11.2145 11.9577 11.2249 11.9334 11.2249Z" fill="#F2F2F2"/>
<path d="M1.76051 4.06072C1.74604 4.06072 1.73136 4.05703 1.7179 4.04926L1.37961 3.85395C1.33876 3.83038 1.32481 3.77818 1.34835 3.73735C1.37195 3.69655 1.42401 3.68247 1.46498 3.70613L1.80327 3.90144C1.84412 3.92501 1.85807 3.97721 1.83453 4.01804C1.81872 4.04541 1.79004 4.06072 1.76051 4.06072Z" fill="#F2F2F2"/>
<path d="M12.5769 10.3053C12.5624 10.3053 12.5477 10.3017 12.5343 10.2939L12.196 10.0986C12.1552 10.075 12.1412 10.0228 12.1648 9.98198C12.1883 9.94115 12.2405 9.92704 12.2814 9.95075L12.6196 10.1461C12.6605 10.1696 12.6744 10.2218 12.6509 10.2627C12.635 10.29 12.6064 10.3053 12.5769 10.3053Z" fill="#F2F2F2"/>
<path d="M1.31575 5.01642C1.30604 5.01642 1.2962 5.01475 1.28657 5.01125L0.919481 4.87765C0.875157 4.86151 0.852325 4.81254 0.868458 4.76822C0.884536 4.72389 0.933645 4.70114 0.977833 4.71719L1.34492 4.85079C1.38925 4.86693 1.41208 4.9159 1.39595 4.96022C1.38334 4.99487 1.35061 5.01642 1.31575 5.01642Z" fill="#F2F2F2"/>
<path d="M13.0511 9.28797C13.0414 9.28797 13.0315 9.2863 13.0218 9.2828L12.6548 9.1492C12.6105 9.13307 12.5877 9.08409 12.6038 9.03977C12.6199 8.99544 12.6689 8.97272 12.7132 8.98874L13.0803 9.12235C13.1246 9.13848 13.1474 9.18745 13.1313 9.23178C13.1187 9.26648 13.0859 9.28797 13.0511 9.28797Z" fill="#F2F2F2"/>
<path d="M1.04241 6.03493C1.03749 6.03493 1.03251 6.03449 1.02751 6.03362L0.642809 5.96578C0.596379 5.95758 0.565399 5.91331 0.573574 5.8669C0.58175 5.8205 0.625828 5.78952 0.672476 5.79764L1.05718 5.86548C1.1036 5.87368 1.13459 5.91795 1.12641 5.96436C1.11911 6.00578 1.0831 6.03493 1.04241 6.03493Z" fill="#F2F2F2"/>
<path d="M13.3422 8.20368C13.3373 8.20368 13.3323 8.20324 13.3273 8.20237L12.9426 8.13453C12.8962 8.12632 12.8652 8.08205 12.8734 8.03565C12.8816 7.98925 12.9256 7.95827 12.9723 7.96639L13.357 8.03423C13.4034 8.04243 13.4344 8.0867 13.4262 8.13311C13.4189 8.17453 13.3829 8.20368 13.3422 8.20368Z" fill="#F2F2F2"/>
<path d="M0.950582 7.08537H0.559977C0.512836 7.08537 0.474609 7.04714 0.474609 7C0.474609 6.95286 0.512836 6.91464 0.559977 6.91464H0.950582C0.997723 6.91464 1.03595 6.95286 1.03595 7C1.03595 7.04714 0.997723 7.08537 0.950582 7.08537Z" fill="#F2F2F2"/>
<path d="M13.4399 7.08537H13.0492C13.0021 7.08537 12.9639 7.04714 12.9639 7C12.9639 6.95286 13.0021 6.91464 13.0492 6.91464H13.4399C13.487 6.91464 13.5253 6.95286 13.5253 7C13.5253 7.04714 13.487 7.08537 13.4399 7.08537Z" fill="#F2F2F2"/>
<path d="M0.657574 8.20368C0.616887 8.20368 0.580875 8.17454 0.573574 8.13311C0.565399 8.08671 0.596379 8.04238 0.642809 8.03423L1.02751 7.96639C1.0741 7.95827 1.11826 7.9892 1.12641 8.03565C1.13459 8.08206 1.1036 8.12638 1.05718 8.13453L0.672476 8.20237C0.667445 8.20325 0.662469 8.20368 0.657574 8.20368Z" fill="#F2F2F2"/>
<path d="M12.9574 6.03493C12.9167 6.03493 12.8807 6.00578 12.8734 5.96435C12.8652 5.91795 12.8962 5.87363 12.9426 5.86548L13.3273 5.79764C13.3738 5.78952 13.4181 5.82044 13.4262 5.8669C13.4344 5.9133 13.4034 5.95763 13.357 5.96578L12.9723 6.03361C12.9673 6.03449 12.9623 6.03493 12.9574 6.03493Z" fill="#F2F2F2"/>
<path d="M0.948654 9.28796C0.913791 9.28796 0.88106 9.26642 0.868455 9.23177C0.852322 9.18745 0.875181 9.13848 0.919478 9.12235L1.28657 8.98875C1.33073 8.97269 1.37986 8.99547 1.39594 9.03977C1.41208 9.08409 1.38922 9.13306 1.34492 9.1492L0.97783 9.2828C0.968232 9.28632 0.958388 9.28796 0.948654 9.28796Z" fill="#F2F2F2"/>
<path d="M12.684 5.01641C12.6491 5.01641 12.6164 4.99486 12.6038 4.96022C12.5877 4.9159 12.6105 4.86692 12.6548 4.85079L13.0218 4.71719C13.0662 4.70114 13.1152 4.72391 13.1313 4.76821C13.1474 4.81254 13.1245 4.86151 13.0803 4.87764L12.7132 5.01124C12.7035 5.01474 12.6937 5.01641 12.684 5.01641Z" fill="#F2F2F2"/>
<path d="M1.42237 10.3053C1.39287 10.3053 1.36419 10.29 1.34835 10.2626C1.32481 10.2218 1.33876 10.1696 1.37961 10.146L1.7179 9.95073C1.75878 9.92705 1.8109 9.94113 1.83453 9.98195C1.85807 10.0228 1.84412 10.075 1.80327 10.0985L1.46498 10.2939C1.45152 10.3017 1.43687 10.3053 1.42237 10.3053Z" fill="#F2F2F2"/>
<path d="M12.2388 4.06072C12.2093 4.06072 12.1806 4.04541 12.1648 4.01801C12.1412 3.97719 12.1552 3.92499 12.196 3.90142L12.5343 3.7061C12.5751 3.68245 12.6273 3.69653 12.6509 3.73733C12.6744 3.77815 12.6605 3.83035 12.6197 3.85392L12.2814 4.04924C12.268 4.05703 12.2532 4.06072 12.2388 4.06072Z" fill="#F2F2F2"/>
<path d="M2.06686 11.2249C2.04252 11.2249 2.0183 11.2145 2.00142 11.1944C1.9711 11.1583 1.97583 11.1044 2.01198 11.0741L2.3112 10.823C2.34727 10.7927 2.40114 10.7974 2.43146 10.8335C2.46178 10.8697 2.45705 10.9235 2.42091 10.9538L2.12168 11.2049C2.10571 11.2184 2.08624 11.2249 2.06686 11.2249Z" fill="#F2F2F2"/>
<path d="M11.6342 3.19696C11.6099 3.19696 11.5857 3.1866 11.5688 3.16647C11.5385 3.13035 11.5432 3.07654 11.5793 3.04619L11.8785 2.79509C11.9147 2.76482 11.9685 2.7695 11.9988 2.80562C12.0291 2.84174 12.0244 2.89555 11.9883 2.9259L11.6891 3.177C11.6731 3.1904 11.6536 3.19696 11.6342 3.19696Z" fill="#F2F2F2"/>
<path d="M2.85973 12.0186C2.84037 12.0186 2.82088 12.0121 2.80494 11.9987C2.76879 11.9684 2.76408 11.9145 2.79438 11.8784L3.04548 11.5792C3.07583 11.5431 3.1297 11.5384 3.16574 11.5687C3.20188 11.599 3.20659 11.6528 3.17629 11.6889L2.92519 11.9882C2.9083 12.0083 2.88407 12.0186 2.85973 12.0186Z" fill="#F2F2F2"/>
<path d="M10.8881 2.45132C10.8687 2.45132 10.8492 2.44479 10.8333 2.43136C10.7971 2.40104 10.7924 2.34723 10.8227 2.31108L11.0738 2.01185C11.1041 1.97573 11.158 1.97106 11.194 2.00133C11.2302 2.03165 11.2349 2.08549 11.2046 2.12161L10.9535 2.42083C10.9366 2.44096 10.9124 2.45132 10.8881 2.45132Z" fill="#F2F2F2"/>
<path d="M3.77963 12.6625C3.76517 12.6625 3.75048 12.6588 3.73703 12.6511C3.69618 12.6275 3.68223 12.5753 3.70578 12.5345L3.90109 12.1962C3.92469 12.1554 3.97675 12.1413 4.01772 12.165C4.05857 12.1885 4.07251 12.2407 4.04897 12.2816L3.85365 12.6199C3.83782 12.6472 3.80914 12.6625 3.77963 12.6625Z" fill="#F2F2F2"/>
<path d="M10.0247 1.84654C10.0103 1.84654 9.9956 1.84285 9.98215 1.83508C9.9413 1.81151 9.92735 1.75931 9.95089 1.71849L10.1462 1.38019C10.1698 1.33936 10.2219 1.32526 10.2628 1.34896C10.3037 1.37253 10.3176 1.42473 10.2941 1.46556L10.0988 1.80385C10.0829 1.83122 10.0543 1.84654 10.0247 1.84654Z" fill="#F2F2F2"/>
<path d="M4.7973 13.137C4.7876 13.137 4.77775 13.1353 4.76813 13.1318C4.7238 13.1157 4.70097 13.0667 4.71708 13.0224L4.8507 12.6553C4.86684 12.6109 4.91584 12.5881 4.96008 12.6043C5.0044 12.6204 5.02723 12.6694 5.0111 12.7137L4.8775 13.0808C4.8649 13.1154 4.83214 13.137 4.7973 13.137Z" fill="#F2F2F2"/>
<path d="M9.06877 1.40088C9.05907 1.40088 9.04922 1.39921 9.0396 1.39571C8.99527 1.37958 8.97244 1.33061 8.98858 1.28629L9.12218 0.919223C9.13825 0.874871 9.18736 0.852148 9.23155 0.868199C9.27587 0.884332 9.29871 0.933305 9.2826 0.977629L9.14897 1.34469C9.13642 1.37936 9.10364 1.40088 9.06877 1.40088Z" fill="#F2F2F2"/>
<path d="M5.88232 13.4275C5.8774 13.4275 5.87242 13.4271 5.86742 13.4262C5.82101 13.418 5.79001 13.3738 5.79818 13.3273L5.86602 12.9427C5.8742 12.8962 5.91828 12.8652 5.96492 12.8734C6.01133 12.8816 6.04233 12.9258 6.03416 12.9723L5.96632 13.357C5.95899 13.3983 5.92301 13.4275 5.88232 13.4275Z" fill="#F2F2F2"/>
<path d="M8.05029 1.12799C8.04537 1.12799 8.04039 1.12756 8.03539 1.12668C7.98898 1.11848 7.95798 1.07424 7.96615 1.02781L8.03399 0.643108C8.04217 0.596706 8.08625 0.565807 8.1329 0.573846C8.1793 0.58205 8.21031 0.626292 8.20213 0.672721L8.13429 1.05742C8.12696 1.09882 8.09098 1.12799 8.05029 1.12799Z" fill="#F2F2F2"/>
<path d="M6.52805 1.69043C6.48425 1.69043 6.44698 1.65693 6.44312 1.61252L6.35384 0.592029C6.34974 0.545052 6.38447 0.503654 6.43145 0.499552C6.47848 0.495259 6.51982 0.530204 6.52389 0.577154L6.61317 1.59765C6.61727 1.64463 6.58255 1.68602 6.53557 1.69013C6.53306 1.69032 6.53051 1.69043 6.52805 1.69043Z" fill="#F2F2F2"/>
<path d="M7.56126 13.5008C7.51745 13.5008 7.48018 13.4673 7.47633 13.4229L7.38705 12.4024C7.38295 12.3554 7.41767 12.314 7.46465 12.3099C7.51196 12.3056 7.55297 12.3406 7.5571 12.3875L7.64638 13.408C7.65048 13.455 7.61575 13.4964 7.56878 13.5005C7.56626 13.5007 7.56372 13.5008 7.56126 13.5008Z" fill="#F2F2F2"/>
<path d="M5.59852 1.85438C5.56081 1.85438 5.52633 1.82923 5.51613 1.79111L5.25098 0.80162C5.23878 0.756065 5.26577 0.70928 5.31132 0.697085C5.35685 0.684643 5.40369 0.711905 5.41586 0.757433L5.68101 1.74692C5.69321 1.79248 5.66622 1.83926 5.62066 1.85146C5.61328 1.85345 5.60582 1.85438 5.59852 1.85438Z" fill="#F2F2F2"/>
<path d="M8.66684 13.3059C8.62914 13.3059 8.59466 13.2807 8.58446 13.2426L8.31934 12.2531C8.30714 12.2076 8.33413 12.1608 8.37968 12.1486C8.42537 12.1362 8.47199 12.1634 8.48422 12.2089L8.74934 13.1984C8.76154 13.244 8.73455 13.2908 8.68899 13.303C8.68153 13.305 8.67415 13.3059 8.66684 13.3059Z" fill="#F2F2F2"/>
<path d="M4.71172 2.17723C4.67956 2.17723 4.64877 2.15896 4.63431 2.12793L4.20137 1.19949C4.18147 1.15678 4.19992 1.10598 4.24263 1.08607C4.28532 1.06617 4.3362 1.08462 4.35608 1.12736L4.78902 2.05579C4.80892 2.0985 4.79047 2.14931 4.74776 2.16921C4.73611 2.17466 4.7238 2.17723 4.71172 2.17723Z" fill="#F2F2F2"/>
<path d="M9.72145 12.922C9.68929 12.922 9.6585 12.9037 9.64404 12.8727L9.21114 11.9442C9.19123 11.9015 9.20969 11.8507 9.2524 11.8308C9.29511 11.8109 9.34597 11.8294 9.36585 11.8721L9.79875 12.8005C9.81866 12.8432 9.8002 12.894 9.75749 12.9139C9.74581 12.9194 9.73354 12.922 9.72145 12.922Z" fill="#F2F2F2"/>
<path d="M3.89374 2.6492C3.86683 2.6492 3.84033 2.63651 3.82371 2.61281L3.23612 1.77366C3.20913 1.73502 3.21848 1.68181 3.25709 1.65477C3.29587 1.62767 3.34899 1.63716 3.37601 1.67574L3.9636 2.51489C3.99059 2.55353 3.98124 2.60674 3.94263 2.63378C3.9277 2.6442 3.91061 2.6492 3.89374 2.6492Z" fill="#F2F2F2"/>
<path d="M10.6935 12.3607C10.6666 12.3607 10.6401 12.348 10.6235 12.3243L10.0359 11.4851C10.0089 11.4465 10.0183 11.3933 10.0569 11.3662C10.0957 11.3391 10.1488 11.3486 10.1758 11.3872L10.7633 12.2264C10.7903 12.265 10.781 12.3182 10.7424 12.3452C10.7275 12.3557 10.7104 12.3607 10.6935 12.3607Z" fill="#F2F2F2"/>
<path d="M3.17104 3.25601C3.14922 3.25601 3.12734 3.24767 3.11069 3.23102L2.38633 2.50663C2.353 2.47333 2.353 2.41924 2.38633 2.38591C2.41966 2.35258 2.47369 2.35258 2.50705 2.38591L3.23141 3.11027C3.26475 3.14357 3.26475 3.19766 3.23141 3.23099C3.21473 3.24764 3.19291 3.25601 3.17104 3.25601Z" fill="#F2F2F2"/>
<path d="M11.5539 11.6391C11.532 11.6391 11.5102 11.6308 11.4935 11.6141L10.7691 10.8897C10.7358 10.8564 10.7358 10.8023 10.7691 10.769C10.8025 10.7357 10.8565 10.7357 10.8899 10.769L11.6142 11.4934C11.6476 11.5267 11.6476 11.5808 11.6142 11.6141C11.5975 11.6308 11.5757 11.6391 11.5539 11.6391Z" fill="#F2F2F2"/>
<path d="M2.56405 3.97915C2.54715 3.97915 2.53009 3.97415 2.51516 3.9637L1.67604 3.37614C1.63743 3.34912 1.62808 3.29589 1.65506 3.25725C1.68216 3.21861 1.73529 3.20923 1.77398 3.23628L2.61311 3.82381C2.65172 3.85083 2.66107 3.90406 2.63408 3.9427C2.61745 3.96643 2.59096 3.97915 2.56405 3.97915Z" fill="#F2F2F2"/>
<path d="M12.275 10.7792C12.2581 10.7792 12.2411 10.7742 12.2261 10.7637L11.387 10.1762C11.3484 10.1492 11.339 10.0959 11.366 10.0573C11.3931 10.0187 11.4462 10.0093 11.4849 10.0363L12.3241 10.6239C12.3627 10.6509 12.372 10.7042 12.345 10.7428C12.3284 10.7665 12.3019 10.7792 12.275 10.7792Z" fill="#F2F2F2"/>
<path d="M2.09089 4.79668C2.07881 4.79668 2.06656 4.79411 2.05488 4.78864L1.12648 4.35573C1.08371 4.33582 1.06525 4.28502 1.08516 4.24231C1.10507 4.1996 1.1559 4.18114 1.19858 4.20102L2.12701 4.63393C2.16978 4.65383 2.18824 4.70464 2.16833 4.74735C2.15384 4.77841 2.12305 4.79668 2.09089 4.79668Z" fill="#F2F2F2"/>
<path d="M12.836 9.80704C12.8239 9.80704 12.8117 9.80447 12.8 9.799L11.8716 9.36609C11.8288 9.34618 11.8104 9.29538 11.8303 9.25267C11.8502 9.20996 11.9011 9.19147 11.9437 9.21138L12.8721 9.64429C12.9149 9.66419 12.9333 9.715 12.9134 9.75771C12.899 9.78877 12.8681 9.80704 12.836 9.80704Z" fill="#F2F2F2"/>
<path d="M1.76929 5.68376C1.76202 5.68376 1.75458 5.68283 1.74714 5.6808L0.757624 5.41568C0.712042 5.40348 0.685054 5.35667 0.697277 5.31114C0.709445 5.26561 0.756175 5.23846 0.801812 5.25079L1.79133 5.51592C1.83691 5.52811 1.8639 5.57493 1.85168 5.62045C1.84145 5.65857 1.80694 5.68376 1.76929 5.68376Z" fill="#F2F2F2"/>
<path d="M13.2205 8.75217C13.2132 8.75217 13.2058 8.75124 13.1983 8.74922L12.2088 8.48406C12.1632 8.47187 12.1362 8.42505 12.1484 8.37953C12.1606 8.334 12.2073 8.3069 12.253 8.31918L13.2425 8.58433C13.2881 8.59653 13.3151 8.64334 13.3028 8.68887C13.2927 8.72704 13.2581 8.75217 13.2205 8.75217Z" fill="#F2F2F2"/>
<path d="M1.60497 6.61336C1.60245 6.61336 1.59997 6.61325 1.59742 6.61301L0.576927 6.52373C0.529977 6.51963 0.495251 6.47826 0.499352 6.43125C0.503427 6.38428 0.544962 6.34941 0.591829 6.35365L1.61233 6.44293C1.65927 6.44703 1.694 6.4884 1.6899 6.53541C1.68607 6.57987 1.6488 6.61336 1.60497 6.61336Z" fill="#F2F2F2"/>
<path d="M13.4155 7.64666C13.4131 7.64666 13.4105 7.64655 13.408 7.6463L12.3875 7.55703C12.3405 7.55293 12.3058 7.51156 12.3099 7.46455C12.314 7.4176 12.355 7.38282 12.4024 7.38695L13.4229 7.47623C13.4699 7.48033 13.5046 7.5217 13.5005 7.5687C13.4966 7.61319 13.4593 7.64666 13.4155 7.64666Z" fill="#F2F2F2"/>
<path d="M0.584282 7.64665C0.540477 7.64665 0.503208 7.61316 0.499352 7.56875C0.495251 7.52177 0.529977 7.48038 0.576927 7.47627L1.59742 7.387C1.64514 7.3829 1.68583 7.41768 1.6899 7.4646C1.694 7.51157 1.65927 7.55297 1.61233 7.55707L0.591829 7.64635C0.589286 7.64654 0.586743 7.64665 0.584282 7.64665Z" fill="#F2F2F2"/>
<path d="M12.3948 6.61335C12.351 6.61335 12.3138 6.57986 12.3099 6.53545C12.3058 6.48848 12.3405 6.44708 12.3875 6.44298L13.408 6.3537C13.4553 6.34927 13.4964 6.38438 13.5005 6.4313C13.5046 6.47828 13.4699 6.51967 13.4229 6.52378L12.4023 6.61305C12.3998 6.61325 12.3973 6.61335 12.3948 6.61335Z" fill="#F2F2F2"/>
<path d="M0.779652 8.75217C0.741945 8.75217 0.707465 8.72704 0.697266 8.6889C0.68507 8.64334 0.712058 8.59655 0.757613 8.58436L1.74713 8.31921C1.79255 8.30682 1.83944 8.33403 1.85166 8.37955C1.86386 8.42511 1.83687 8.47189 1.79132 8.48409L0.801801 8.74924C0.794418 8.75124 0.786926 8.75217 0.779652 8.75217Z" fill="#F2F2F2"/>
<path d="M12.2308 5.68376C12.1931 5.68376 12.1586 5.65861 12.1484 5.62049C12.1362 5.57493 12.1632 5.52815 12.2088 5.51595L13.1983 5.25083C13.2438 5.23849 13.2906 5.26565 13.3028 5.31117C13.315 5.35673 13.288 5.40351 13.2425 5.41571L12.253 5.68084C12.2456 5.6828 12.2381 5.68376 12.2308 5.68376Z" fill="#F2F2F2"/>
<path d="M1.16257 9.80704C1.13041 9.80704 1.09962 9.78877 1.08516 9.75771C1.06525 9.715 1.08371 9.66419 1.12648 9.64429L2.0549 9.21138C2.09742 9.19147 2.14839 9.20996 2.16833 9.25267C2.18826 9.29538 2.16978 9.34618 2.12701 9.36609L1.19858 9.799C1.18696 9.80444 1.17466 9.80704 1.16257 9.80704Z" fill="#F2F2F2"/>
<path d="M11.9077 4.79667C11.8755 4.79667 11.8447 4.7784 11.8303 4.74737C11.8104 4.70466 11.8288 4.65385 11.8715 4.63395L12.7999 4.20104C12.8426 4.18116 12.8935 4.19962 12.9134 4.24233C12.9333 4.28504 12.9148 4.33584 12.8721 4.35575L11.9437 4.78866C11.9321 4.7941 11.9198 4.79667 11.9077 4.79667Z" fill="#F2F2F2"/>
<path d="M1.72509 10.7792C1.69819 10.7792 1.67169 10.7665 1.65506 10.7428C1.62808 10.7042 1.63743 10.6509 1.67604 10.6239L2.51516 10.0363C2.55393 10.0092 2.60706 10.0187 2.63408 10.0573C2.66107 10.0959 2.65172 10.1492 2.61311 10.1762L1.77398 10.7637C1.75908 10.7742 1.74199 10.7792 1.72509 10.7792Z" fill="#F2F2F2"/>
<path d="M11.436 3.97914C11.4091 3.97914 11.3826 3.96645 11.366 3.94274C11.339 3.90411 11.3484 3.8509 11.387 3.82385L12.2261 3.23632C12.2649 3.20922 12.318 3.21871 12.345 3.25729C12.372 3.29593 12.3627 3.34914 12.3241 3.37618L11.4849 3.96372C11.47 3.97411 11.4529 3.97914 11.436 3.97914Z" fill="#F2F2F2"/>
<path d="M2.44667 11.6391C2.42485 11.6391 2.40298 11.6308 2.38633 11.6141C2.353 11.5808 2.353 11.5267 2.38633 11.4934L3.11069 10.769C3.14402 10.7357 3.19805 10.7357 3.23141 10.769C3.26475 10.8023 3.26475 10.8564 3.23141 10.8897L2.50705 11.6141C2.49037 11.6308 2.46849 11.6391 2.44667 11.6391Z" fill="#F2F2F2"/>
<path d="M10.8295 3.25602C10.8077 3.25602 10.7858 3.24768 10.7691 3.23103C10.7358 3.19773 10.7358 3.14364 10.7691 3.11031L11.4935 2.38595C11.5268 2.35261 11.5809 2.35261 11.6142 2.38595C11.6476 2.41925 11.6476 2.47334 11.6142 2.50667L10.8899 3.23103C10.8731 3.24766 10.8513 3.25602 10.8295 3.25602Z" fill="#F2F2F2"/>
<path d="M3.30598 12.3607C3.28908 12.3607 3.27202 12.3557 3.25709 12.3452C3.21848 12.3182 3.20913 12.265 3.23612 12.2263L3.82371 11.3872C3.85081 11.3486 3.90394 11.3392 3.94263 11.3662C3.98124 11.3932 3.99059 11.4465 3.9636 11.4851L3.37601 12.3242C3.35936 12.348 3.33292 12.3607 3.30598 12.3607Z" fill="#F2F2F2"/>
<path d="M10.1058 2.6492C10.0889 2.6492 10.0718 2.6442 10.0569 2.63375C10.0183 2.60674 10.0089 2.5535 10.0359 2.51486L10.6235 1.67571C10.6506 1.63707 10.7038 1.62769 10.7424 1.65474C10.781 1.68175 10.7904 1.73499 10.7634 1.77363L10.1758 2.61278C10.1592 2.63651 10.1327 2.6492 10.1058 2.6492Z" fill="#F2F2F2"/>
<path d="M4.27774 12.922C4.26565 12.922 4.25337 12.9194 4.24167 12.9139C4.19896 12.894 4.18047 12.8432 4.20041 12.8005L4.63334 11.8721C4.65322 11.8293 4.70411 11.8109 4.74679 11.8308C4.7895 11.8507 4.80798 11.9015 4.78805 11.9442L4.35512 12.8726C4.34068 12.9037 4.30989 12.922 4.27774 12.922Z" fill="#F2F2F2"/>
<path d="M9.28848 2.17722C9.27639 2.17722 9.26411 2.17465 9.25241 2.16918C9.2097 2.14927 9.19122 2.09847 9.21115 2.05576L9.64405 1.12733C9.66393 1.08459 9.71482 1.06613 9.7575 1.08604C9.80021 1.10594 9.8187 1.15675 9.79877 1.19946L9.36586 2.12789C9.35137 2.15898 9.32058 2.17722 9.28848 2.17722Z" fill="#F2F2F2"/>
<path d="M5.33251 13.3059C5.32523 13.3059 5.31777 13.305 5.31036 13.3029C5.26478 13.2907 5.23779 13.2439 5.25001 13.1984L5.51516 12.2089C5.52736 12.1634 5.57422 12.1362 5.6197 12.1486C5.66528 12.1608 5.69227 12.2076 5.68004 12.2531L5.41489 13.2426C5.40469 13.2808 5.37019 13.3059 5.33251 13.3059Z" fill="#F2F2F2"/>
<path d="M8.40184 1.85439C8.39457 1.85439 8.38713 1.85346 8.3797 1.85143C8.33411 1.83924 8.30712 1.79243 8.31935 1.7469L8.58447 0.757408C8.59667 0.711881 8.64329 0.684646 8.68901 0.69706C8.73459 0.709256 8.76158 0.756068 8.74936 0.801596L8.48423 1.79109C8.47403 1.8292 8.43952 1.85439 8.40184 1.85439Z" fill="#F2F2F2"/>
<path d="M6.43897 13.5008C6.43651 13.5008 6.43397 13.5007 6.43145 13.5005C6.38447 13.4964 6.34972 13.455 6.35385 13.408L6.44313 12.3875C6.4472 12.3405 6.4886 12.3056 6.53557 12.3099C6.58255 12.314 6.6173 12.3554 6.61318 12.4024L6.5239 13.4229C6.52002 13.4673 6.48277 13.5008 6.43897 13.5008Z" fill="#F2F2F2"/>
<path d="M7.4712 1.69042C7.46873 1.69042 7.46619 1.69032 7.46368 1.69007C7.4167 1.68597 7.38195 1.6446 7.38608 1.59759L7.47535 0.577097C7.47943 0.530147 7.52039 0.495175 7.5678 0.499495C7.61478 0.503597 7.64953 0.544968 7.6454 0.591972L7.55612 1.61247C7.55227 1.65696 7.51503 1.69042 7.4712 1.69042Z" fill="#F2F2F2"/>
<path d="M7.84623 7.84569L11.6183 2.38227L6.15486 6.15432L2.38281 11.6177L7.84623 7.84569Z" fill="#F2F2F2"/>
<path d="M7.84623 7.84569L11.6183 2.38227L2.38281 11.6177L7.84623 7.84569Z" fill="#CCCCCC"/>
<path d="M7.84567 7.8457L11.6177 2.38227L6.1543 6.15432L7.84567 7.8457Z" fill="#FF525D"/>
<path d="M7.84569 7.8457L11.6177 2.38227L7 7.00001L7.84569 7.8457Z" fill="#EF4152"/>
</svg>
