<svg width="19" height="19" viewBox="0 0 19 19" fill="none" xmlns="http://www.w3.org/2000/svg">
<path d="M13.4895 0H10.79C8.05512 0 5.29544 2.01957 5.29544 6.53147C5.29544 8.86855 6.28593 10.6887 8.10162 11.7239L4.7784 17.739C4.62083 18.0235 4.61671 18.3459 4.76734 18.6014C4.9144 18.851 5.18334 19 5.48644 19H7.16754C7.54943 19 7.8472 18.8154 7.98999 18.492L11.1059 12.3975H11.3333V18.2404C11.3333 18.6522 11.6807 19 12.092 19H13.5606C14.0218 19 14.3438 18.678 14.3438 18.2168V0.831361C14.3439 0.341889 13.9926 0 13.4895 0ZM11.3333 9.69022H10.9321C9.3767 9.69022 8.44811 8.42056 8.44811 6.29386C8.44811 3.64948 9.62113 2.70731 10.719 2.70731H11.3333V9.69022Z" fill="#D7143A"/>
</svg>
