<svg width="19" height="19" viewBox="0 0 19 19" fill="none" xmlns="http://www.w3.org/2000/svg">
<g clip-path="url(#clip0)">
<path d="M18.3028 5.93805H9.49987C7.53246 5.93612 5.93597 7.52945 5.93401 9.49686C5.93341 10.108 6.09001 10.7089 6.38876 11.242L1.9873 3.6898C5.19315 -0.459397 11.1556 -1.22411 15.3048 1.98173C16.6373 3.01129 17.672 4.37674 18.3028 5.93805Z" fill="#F44336"/>
<path d="M18.9996 9.5004C18.9952 14.7451 14.7446 18.9956 9.49995 19C9.10275 19.0015 8.70595 18.975 8.3125 18.9208L12.5873 11.2816C13.5671 9.57595 12.983 7.39917 11.2811 6.41303C10.7423 6.10107 10.1305 5.93716 9.50785 5.93805H18.3029C18.7652 7.06873 19.0019 8.27889 18.9996 9.5004Z" fill="#FFC107"/>
<path d="M12.5877 11.2816L8.31288 18.9208H8.30498C3.10292 18.2636 -0.581355 13.5136 0.0758968 8.31158C0.288635 6.62782 0.948819 5.03186 1.98776 3.68982L6.38922 11.242L6.41297 11.2816C7.3945 12.9867 9.57243 13.5732 11.2775 12.5917C11.8222 12.2782 12.2742 11.8262 12.5877 11.2816Z" fill="#4CAF50"/>
<path d="M12.5875 11.2815C11.6059 12.9866 9.428 13.5732 7.7229 12.5917C7.17827 12.2782 6.72626 11.8262 6.41273 11.2815L6.38898 11.2419C5.42711 9.52567 6.03872 7.35461 7.75499 6.39275C8.28809 6.09399 8.88905 5.9374 9.5001 5.93799H9.508C10.1306 5.9371 10.7424 6.10101 11.2813 6.41297C12.9832 7.39914 13.5672 9.57591 12.5875 11.2815Z" fill="#F44336"/>
<path d="M12.5875 11.2815C11.6059 12.9866 9.428 13.5732 7.7229 12.5917C7.17827 12.2782 6.72626 11.8262 6.41273 11.2815L6.38898 11.2419C5.42711 9.52567 6.03872 7.35461 7.75499 6.39275C8.28809 6.09399 8.88905 5.9374 9.5001 5.93799H9.508C10.1306 5.9371 10.7424 6.10101 11.2813 6.41297C12.9832 7.39914 13.5672 9.57591 12.5875 11.2815Z" fill="#2196F3"/>
<path d="M9.48768 13.4585C8.79755 13.4584 8.11959 13.2766 7.52205 12.9313C6.91953 12.5828 6.41913 12.0821 6.07099 11.4794C4.97798 9.58628 5.62662 7.16552 7.51978 6.07251C8.12215 5.72474 8.80557 5.54184 9.50115 5.54221C11.6872 5.5405 13.4607 7.31128 13.4624 9.49729C13.4629 10.1931 13.28 10.8768 12.9321 11.4794C12.2187 12.7059 10.9065 13.4598 9.48768 13.4585ZM9.50824 6.33383C8.37226 6.32778 7.32055 6.93237 6.75414 7.9171C5.87973 9.43332 6.40002 11.3713 7.91624 12.2458C9.43246 13.1202 11.3705 12.5999 12.2449 11.0836C13.1193 9.56914 12.6004 7.63252 11.0859 6.75808C10.6064 6.48125 10.0627 6.33498 9.50902 6.33386H9.50824V6.33383Z" fill="#FAFAFA"/>
</g>
<defs>
<clipPath id="clip0">
<rect width="19" height="19" fill="white"/>
</clipPath>
</defs>
</svg>
