<svg width="24" height="24" viewBox="0 0 24 24" fill="none" xmlns="http://www.w3.org/2000/svg">
<path d="M8.89221 8.25H11.469C11.556 8.25 11.6395 8.21543 11.701 8.15389C11.7626 8.09236 11.7971 8.0089 11.7971 7.92188C11.7971 7.83485 11.7626 7.75139 11.701 7.68986C11.6395 7.62832 11.556 7.59375 11.469 7.59375H8.89221C8.80519 7.59375 8.72173 7.62832 8.66019 7.68986C8.59866 7.75139 8.56409 7.83485 8.56409 7.92188C8.56409 8.0089 8.59866 8.09236 8.66019 8.15389C8.72173 8.21543 8.80519 8.25 8.89221 8.25Z" fill="#00A29D"/>
<path d="M6.92346 10.3125H5.32971C5.24269 10.3125 5.15923 10.3471 5.09769 10.4086C5.03616 10.4701 5.00159 10.5536 5.00159 10.6406V12.2344C5.00159 12.3214 5.03616 12.4049 5.09769 12.4664C5.15923 12.5279 5.24269 12.5625 5.32971 12.5625H6.92346C7.01049 12.5625 7.09395 12.5279 7.15548 12.4664C7.21702 12.4049 7.25159 12.3214 7.25159 12.2344V10.6406C7.25159 10.5536 7.21702 10.4701 7.15548 10.4086C7.09395 10.3471 7.01049 10.3125 6.92346 10.3125ZM6.59534 11.9062H5.65784V10.9688H6.59534V11.9062Z" fill="#00A29D"/>
<path d="M8.89221 11.766H13.7672C13.8543 11.766 13.9377 11.7314 13.9992 11.6699C14.0608 11.6084 14.0954 11.5249 14.0954 11.4379C14.0954 11.3508 14.0608 11.2674 13.9992 11.2058C13.9377 11.1443 13.8543 11.1097 13.7672 11.1097H8.89221C8.80519 11.1097 8.72173 11.1443 8.66019 11.2058C8.59866 11.2674 8.56409 11.3508 8.56409 11.4379C8.56409 11.5249 8.59866 11.6084 8.66019 11.6699C8.72173 11.7314 8.80519 11.766 8.89221 11.766Z" fill="#00A29D"/>
<path d="M6.92346 13.8289H5.32971C5.24269 13.8289 5.15923 13.8634 5.09769 13.925C5.03616 13.9865 5.00159 14.07 5.00159 14.157V15.75C5.00159 15.837 5.03616 15.9205 5.09769 15.982C5.15923 16.0435 5.24269 16.0781 5.32971 16.0781H6.92346C7.01049 16.0781 7.09395 16.0435 7.15548 15.982C7.21702 15.9205 7.25159 15.837 7.25159 15.75V14.1562C7.25139 14.0693 7.21673 13.9861 7.15522 13.9247C7.0937 13.8633 7.01036 13.8289 6.92346 13.8289ZM6.59534 15.4226H5.65784V14.4851H6.59534V15.4226Z" fill="#00A29D"/>
<path d="M8.89221 15.2812H11.469C11.556 15.2812 11.6395 15.2467 11.701 15.1851C11.7626 15.1236 11.7971 15.0401 11.7971 14.9531C11.7971 14.8661 11.7626 14.7826 11.701 14.7211C11.6395 14.6596 11.556 14.625 11.469 14.625H8.89221C8.80519 14.625 8.72173 14.6596 8.66019 14.7211C8.59866 14.7826 8.56409 14.8661 8.56409 14.9531C8.56409 15.0401 8.59866 15.1236 8.66019 15.1851C8.72173 15.2467 8.80519 15.2812 8.89221 15.2812Z" fill="#00A29D"/>
<path d="M6.92346 17.3449H5.32971C5.24269 17.3449 5.15923 17.3794 5.09769 17.441C5.03616 17.5025 5.00159 17.586 5.00159 17.673V19.2668C5.00159 19.3538 5.03616 19.4372 5.09769 19.4988C5.15923 19.5603 5.24269 19.5949 5.32971 19.5949H6.92346C7.01049 19.5949 7.09395 19.5603 7.15548 19.4988C7.21702 19.4372 7.25159 19.3538 7.25159 19.2668V17.673C7.25159 17.586 7.21702 17.5025 7.15548 17.441C7.09395 17.3794 7.01049 17.3449 6.92346 17.3449ZM6.59534 18.9386H5.65784V18.0011H6.59534V18.9386Z" fill="#00A29D"/>
<path d="M20.9403 6.49556C20.8347 6.19003 20.6408 5.92266 20.3833 5.72726C20.1258 5.53186 19.8161 5.4172 19.4934 5.39778C19.1707 5.37835 18.8495 5.45503 18.5704 5.61813C18.2913 5.78122 18.0668 6.0234 17.9253 6.31406L17.2184 7.767L16.4395 9.36806V4.82812C16.4395 4.74112 16.4049 4.65769 16.3433 4.59619L13.5773 1.83056C13.5158 1.76902 13.4324 1.73442 13.3454 1.73438H3.29858C3.21156 1.73438 3.1281 1.76895 3.06656 1.83048C3.00503 1.89202 2.97046 1.97548 2.97046 2.0625V21.9375C2.97046 22.0245 3.00503 22.108 3.06656 22.1695C3.1281 22.2311 3.21156 22.2656 3.29858 22.2656H16.111C16.198 22.2656 16.2815 22.2311 16.343 22.1695C16.4046 22.108 16.4391 22.0245 16.4391 21.9375V16.8414L20.8641 7.7445C20.9588 7.55171 21.0143 7.34205 21.0274 7.12766C21.0405 6.91327 21.0108 6.69842 20.9403 6.49556ZM15.8568 16.5384L14.1434 17.8239L14.0971 15.6823L17.6645 8.34919L19.4253 9.20625L15.8568 16.5384ZM13.6735 2.85469L15.319 4.5H13.6735V2.85469ZM3.62671 21.6094V2.39062H13.0173V4.82812C13.0173 4.91515 13.0518 4.99861 13.1134 5.06014C13.1749 5.12168 13.2584 5.15625 13.3454 5.15625H15.7829V10.7171L13.4723 15.4665C13.4495 15.5132 13.4382 15.5646 13.4391 15.6165L13.4937 18.141H8.89227C8.80525 18.141 8.72179 18.1756 8.66025 18.2371C8.59872 18.2986 8.56415 18.3821 8.56415 18.4691C8.56415 18.5561 8.59872 18.6396 8.66025 18.7011C8.72179 18.7627 8.80525 18.7972 8.89227 18.7972H13.7673C13.7783 18.7967 13.7892 18.7956 13.8001 18.7939C13.8098 18.7939 13.8188 18.7972 13.8291 18.7972C13.9002 18.7973 13.9693 18.7742 14.026 18.7314L15.7829 17.4133V21.6094H3.62671ZM20.275 7.45725L19.7116 8.61544L17.9515 7.75931L18.514 6.60113C18.5702 6.48556 18.6487 6.38219 18.7448 6.29694C18.841 6.21168 18.953 6.14619 19.0745 6.10423C19.1959 6.06226 19.3245 6.04462 19.4528 6.05233C19.581 6.06004 19.7065 6.09294 19.8221 6.14916C19.9377 6.20537 20.041 6.2838 20.1263 6.37996C20.2116 6.47612 20.277 6.58813 20.319 6.7096C20.361 6.83107 20.3786 6.95961 20.3709 7.08789C20.3632 7.21618 20.3303 7.34168 20.2741 7.45725H20.275Z" fill="#00A29D"/>
<path d="M7.19128 7.32038C7.12202 7.26767 7.03467 7.24462 6.94843 7.25629C6.86218 7.26797 6.7841 7.31341 6.73134 7.38263L6.09366 8.22113L5.79065 7.91813C5.72924 7.85636 5.64581 7.82153 5.55871 7.82128C5.47161 7.82103 5.38798 7.8554 5.32622 7.91681C5.26445 7.97823 5.22962 8.06166 5.22937 8.14876C5.22913 8.23586 5.26349 8.31949 5.3249 8.38125L5.8934 8.94994C5.95491 9.01148 6.03833 9.04608 6.12534 9.04612H6.14728C6.19398 9.04292 6.23947 9.02979 6.28069 9.00761C6.32192 8.98543 6.35794 8.95471 6.38634 8.9175L7.25353 7.78125C7.27975 7.74692 7.29894 7.70775 7.31 7.666C7.32107 7.62424 7.32378 7.58071 7.318 7.5379C7.31222 7.49509 7.29805 7.45384 7.27631 7.41652C7.25456 7.37919 7.22567 7.34652 7.19128 7.32038Z" fill="#00A29D"/>
</svg>
