<svg width="20" height="20" viewBox="0 0 20 20" fill="none" xmlns="http://www.w3.org/2000/svg">
<path d="M19.6667 3.33333H15.3333V0.333333C15.3333 0.14925 15.1841 0 15 0H12.3333C11.5416 0.001 10.8595 0.557875 10.7 1.33333H9.3C9.14054 0.557875 8.45837 0.001 7.66667 0H5C4.81592 0 4.66667 0.14925 4.66667 0.333333V3.33333H0.333333C0.14925 3.33333 0 3.48258 0 3.66667V7.66667C0 7.85075 0.14925 8 0.333333 8H1V19.6667C1 19.8507 1.14925 20 1.33333 20H18.6667C18.8507 20 19 19.8507 19 19.6667V8H19.6667C19.8507 8 20 7.85075 20 7.66667V3.66667C20 3.48258 19.8507 3.33333 19.6667 3.33333ZM11.3333 1.66667C11.3333 1.11437 11.781 0.666667 12.3333 0.666667H14.6667V3.33333H11.3333V1.66667ZM9.33333 2H10.6667V3.33333H9.33333V2ZM5.33333 0.666667H7.66667C8.21896 0.666667 8.66667 1.11437 8.66667 1.66667V3.33333H5.33333V0.666667ZM7.66667 19.3333H1.66667V8H7.66667V19.3333ZM7.66667 7.33333H0.666667V4H7.66667V7.33333ZM11.6667 19.3333H8.33333V8H11.6667V19.3333ZM11.6667 7.33333H8.33333V4H11.6667V7.33333ZM18.3333 19.3333H12.3333V8H18.3333V19.3333ZM19.3333 7.33333H12.3333V4H19.3333V7.33333Z" fill="#00A29D"/>
</svg>
