<svg width="24" height="24" viewBox="0 0 24 24" fill="none" xmlns="http://www.w3.org/2000/svg">
<path d="M22.875 6C22.7755 6 22.6802 6.03951 22.6098 6.10983C22.5395 6.18016 22.5 6.27554 22.5 6.375V19.875H20.4637C18.0506 19.8752 15.6452 20.1492 13.2938 20.6917C13.1463 20.7255 12.992 20.7137 12.8514 20.6578C12.7107 20.602 12.5904 20.5048 12.5062 20.379C13.8451 19.5594 15.3843 19.1255 16.9541 19.125H21.375C21.4745 19.125 21.5698 19.0855 21.6402 19.0152C21.7105 18.9448 21.75 18.8495 21.75 18.75V16.125C21.75 16.0255 21.7105 15.9302 21.6402 15.8598C21.5698 15.7895 21.4745 15.75 21.375 15.75C21.2755 15.75 21.1802 15.7895 21.1098 15.8598C21.0395 15.9302 21 16.0255 21 16.125V18.375H16.9541C15.3492 18.3735 13.7714 18.7885 12.375 19.5795V9.375C12.375 9.27554 12.3355 9.18016 12.2652 9.10983C12.1948 9.03951 12.0995 9 12 9C11.9005 9 11.8052 9.03951 11.7348 9.10983C11.6645 9.18016 11.625 9.27554 11.625 9.375V19.5791C10.2286 18.7882 8.65074 18.3733 7.04587 18.375H3V4.875H8.775C9.53104 4.8755 10.2559 5.17618 10.7904 5.71096C11.3248 6.24573 11.625 6.97084 11.625 7.72687C11.625 7.82633 11.6645 7.92171 11.7348 7.99204C11.8052 8.06237 11.9005 8.10187 12 8.10187C12.0995 8.10187 12.1948 8.06237 12.2652 7.99204C12.3355 7.92171 12.375 7.82633 12.375 7.72687C12.375 6.97084 12.6752 6.24573 13.2096 5.71096C13.7441 5.17618 14.469 4.8755 15.225 4.875H21V14.625C21 14.7245 21.0395 14.8198 21.1098 14.8902C21.1802 14.9605 21.2755 15 21.375 15C21.4745 15 21.5698 14.9605 21.6402 14.8902C21.7105 14.8198 21.75 14.7245 21.75 14.625V4.5C21.75 4.40054 21.7105 4.30516 21.6402 4.23484C21.5698 4.16451 21.4745 4.125 21.375 4.125H15.225C14.5547 4.1255 13.8978 4.31287 13.3281 4.66608C12.7584 5.01929 12.2985 5.52434 12 6.1245C11.7015 5.52434 11.2416 5.01929 10.6719 4.66608C10.1022 4.31287 9.4453 4.1255 8.775 4.125H2.625C2.52554 4.125 2.43016 4.16451 2.35984 4.23484C2.28951 4.30516 2.25 4.40054 2.25 4.5V18.75C2.25 18.8495 2.28951 18.9448 2.35984 19.0152C2.43016 19.0855 2.52554 19.125 2.625 19.125H7.04587C8.61594 19.1253 10.1554 19.5593 11.4945 20.379C11.4101 20.5044 11.2897 20.6014 11.1491 20.6572C11.0086 20.7131 10.8545 20.7251 10.707 20.6917C8.35534 20.1491 5.9497 19.8751 3.53625 19.875H1.5V6.375C1.5 6.27554 1.46049 6.18016 1.39017 6.10983C1.31984 6.03951 1.22446 6 1.125 6C1.02554 6 0.930161 6.03951 0.859835 6.10983C0.789509 6.18016 0.75 6.27554 0.75 6.375V20.25C0.75 20.3495 0.789509 20.4448 0.859835 20.5152C0.930161 20.5855 1.02554 20.625 1.125 20.625H3.53625C5.89265 20.6254 8.2414 20.893 10.5375 21.4226C10.8015 21.4836 11.0771 21.4715 11.3347 21.3877C11.5924 21.304 11.8223 21.1517 12 20.9471C12.1776 21.1517 12.4076 21.3041 12.6653 21.3879C12.9229 21.4716 13.1985 21.4837 13.4625 21.4226C15.7586 20.893 18.1074 20.6255 20.4637 20.625H22.875C22.9745 20.625 23.0698 20.5855 23.1402 20.5152C23.2105 20.4448 23.25 20.3495 23.25 20.25V6.375C23.25 6.27554 23.2105 6.18016 23.1402 6.10983C23.0698 6.03951 22.9745 6 22.875 6Z" fill="#00A29D"/>
<path d="M10.7711 7.35487C10.1802 6.96026 9.48556 6.74976 8.775 6.75H4.5C4.40054 6.75 4.30516 6.78951 4.23484 6.85983C4.16451 6.93016 4.125 7.02554 4.125 7.125C4.125 7.22445 4.16451 7.31984 4.23484 7.39016C4.30516 7.46049 4.40054 7.5 4.5 7.5H8.775C9.33805 7.49935 9.8886 7.66603 10.3568 7.97887C10.4395 8.03407 10.5408 8.05413 10.6383 8.03465C10.7359 8.01517 10.8217 7.95774 10.8769 7.875C10.9321 7.79225 10.9521 7.69096 10.9327 7.59342C10.9132 7.49588 10.8557 7.41007 10.773 7.35487H10.7711Z" fill="#00A29D"/>
<path d="M19.5 6.75H15.225C14.5138 6.74944 13.8184 6.95995 13.227 7.35488C13.186 7.38221 13.1508 7.41734 13.1234 7.45827C13.096 7.4992 13.077 7.54513 13.0673 7.59343C13.0577 7.64172 13.0576 7.69145 13.0672 7.73976C13.0768 7.78807 13.0958 7.83403 13.1231 7.875C13.1504 7.91597 13.1856 7.95116 13.2265 7.97856C13.2674 8.00595 13.3134 8.02501 13.3617 8.03466C13.41 8.04431 13.4597 8.04434 13.508 8.03477C13.5563 8.0252 13.6023 8.00621 13.6432 7.97888C14.1114 7.66614 14.6619 7.49947 15.225 7.5H19.5C19.5994 7.5 19.6948 7.46049 19.7651 7.39017C19.8355 7.31984 19.875 7.22446 19.875 7.125C19.875 7.02554 19.8355 6.93016 19.7651 6.85984C19.6948 6.78951 19.5994 6.75 19.5 6.75Z" fill="#00A29D"/>
<path d="M10.7711 9.22987C10.1802 8.83526 9.48556 8.62476 8.775 8.625H4.5C4.40054 8.625 4.30516 8.66451 4.23484 8.73483C4.16451 8.80516 4.125 8.90054 4.125 9C4.125 9.09945 4.16451 9.19484 4.23484 9.26516C4.30516 9.33549 4.40054 9.375 4.5 9.375H8.775C9.33805 9.37435 9.8886 9.54103 10.3568 9.85387C10.4395 9.90907 10.5408 9.92913 10.6383 9.90965C10.7359 9.89017 10.8217 9.83274 10.8769 9.75C10.9321 9.66725 10.9521 9.56596 10.9327 9.46842C10.9132 9.37088 10.8557 9.28507 10.773 9.22987H10.7711Z" fill="#00A29D"/>
<path d="M19.5 8.625H15.225C14.5138 8.62444 13.8184 8.83495 13.227 9.22988C13.186 9.25721 13.1508 9.29234 13.1234 9.33327C13.096 9.3742 13.077 9.42013 13.0673 9.46843C13.0577 9.51672 13.0576 9.56645 13.0672 9.61476C13.0768 9.66307 13.0958 9.70903 13.1231 9.75C13.1504 9.79097 13.1856 9.82616 13.2265 9.85356C13.2674 9.88095 13.3134 9.90001 13.3617 9.90966C13.41 9.91931 13.4597 9.91934 13.508 9.90977C13.5563 9.9002 13.6023 9.88121 13.6432 9.85388C14.1114 9.54114 14.6619 9.37447 15.225 9.375H19.5C19.5994 9.375 19.6948 9.33549 19.7651 9.26517C19.8355 9.19484 19.875 9.09946 19.875 9C19.875 8.90054 19.8355 8.80516 19.7651 8.73484C19.6948 8.66451 19.5994 8.625 19.5 8.625Z" fill="#00A29D"/>
<path d="M10.7711 11.1049C10.1802 10.7103 9.48556 10.4998 8.775 10.5H4.5C4.40054 10.5 4.30516 10.5395 4.23484 10.6098C4.16451 10.6802 4.125 10.7755 4.125 10.875C4.125 10.9745 4.16451 11.0698 4.23484 11.1402C4.30516 11.2105 4.40054 11.25 4.5 11.25H8.775C9.33805 11.2494 9.8886 11.416 10.3568 11.7289C10.4395 11.7841 10.5408 11.8041 10.6383 11.7847C10.7359 11.7652 10.8217 11.7077 10.8769 11.625C10.9321 11.5422 10.9521 11.441 10.9327 11.3434C10.9132 11.2459 10.8557 11.1601 10.773 11.1049H10.7711Z" fill="#00A29D"/>
<path d="M19.5 10.5H15.225C14.5138 10.4994 13.8184 10.7099 13.227 11.1049C13.186 11.1322 13.1508 11.1673 13.1234 11.2083C13.096 11.2492 13.077 11.2951 13.0673 11.3434C13.0577 11.3917 13.0576 11.4414 13.0672 11.4898C13.0768 11.5381 13.0958 11.584 13.1231 11.625C13.1504 11.666 13.1856 11.7012 13.2265 11.7286C13.2674 11.7559 13.3134 11.775 13.3617 11.7847C13.41 11.7943 13.4597 11.7943 13.508 11.7848C13.5563 11.7752 13.6023 11.7562 13.6432 11.7289C14.1114 11.4161 14.6619 11.2495 15.225 11.25H19.5C19.5994 11.25 19.6948 11.2105 19.7651 11.1402C19.8355 11.0698 19.875 10.9745 19.875 10.875C19.875 10.7755 19.8355 10.6802 19.7651 10.6098C19.6948 10.5395 19.5994 10.5 19.5 10.5Z" fill="#00A29D"/>
<path d="M10.7711 12.9799C10.1802 12.5853 9.48556 12.3748 8.775 12.375H4.5C4.40054 12.375 4.30516 12.4145 4.23484 12.4848C4.16451 12.5552 4.125 12.6505 4.125 12.75C4.125 12.8495 4.16451 12.9448 4.23484 13.0152C4.30516 13.0855 4.40054 13.125 4.5 13.125H8.775C9.33805 13.1244 9.8886 13.291 10.3568 13.6039C10.3977 13.6312 10.4437 13.6502 10.492 13.6598C10.5403 13.6693 10.59 13.6693 10.6383 13.6597C10.6866 13.65 10.7325 13.6309 10.7735 13.6036C10.8144 13.5762 10.8495 13.541 10.8769 13.5C10.9042 13.459 10.9232 13.4131 10.9328 13.3648C10.9423 13.3164 10.9423 13.2667 10.9327 13.2184C10.923 13.1701 10.9039 13.1242 10.8766 13.0833C10.8492 13.0423 10.814 13.0072 10.773 12.9799H10.7711Z" fill="#00A29D"/>
<path d="M19.5 12.375H15.225C14.5138 12.3744 13.8184 12.5849 13.227 12.9799C13.1442 13.0351 13.0868 13.1209 13.0673 13.2184C13.0478 13.316 13.0679 13.4173 13.1231 13.5C13.1783 13.5827 13.2641 13.6402 13.3617 13.6597C13.4592 13.6791 13.5605 13.6591 13.6432 13.6039C14.1114 13.2911 14.6619 13.1245 15.225 13.125H19.5C19.5994 13.125 19.6948 13.0855 19.7651 13.0152C19.8355 12.9448 19.875 12.8495 19.875 12.75C19.875 12.6505 19.8355 12.5552 19.7651 12.4848C19.6948 12.4145 19.5994 12.375 19.5 12.375Z" fill="#00A29D"/>
<path d="M10.7711 14.8549C10.1802 14.4603 9.48556 14.2498 8.775 14.25H4.5C4.40054 14.25 4.30516 14.2895 4.23484 14.3598C4.16451 14.4302 4.125 14.5255 4.125 14.625C4.125 14.7245 4.16451 14.8198 4.23484 14.8902C4.30516 14.9605 4.40054 15 4.5 15H8.775C9.33805 14.9994 9.8886 15.166 10.3568 15.4789C10.4395 15.5341 10.5408 15.5541 10.6383 15.5347C10.7359 15.5152 10.8217 15.4578 10.8769 15.375C10.9321 15.2923 10.9521 15.191 10.9327 15.0934C10.9132 14.9959 10.8557 14.9101 10.773 14.8549H10.7711Z" fill="#00A29D"/>
<path d="M19.5 14.25H15.225C14.5138 14.2494 13.8184 14.4599 13.227 14.8549C13.186 14.8822 13.1508 14.9173 13.1234 14.9583C13.096 14.9992 13.077 15.0451 13.0673 15.0934C13.0577 15.1417 13.0576 15.1914 13.0672 15.2398C13.0768 15.2881 13.0958 15.334 13.1231 15.375C13.1783 15.4577 13.2641 15.5152 13.3617 15.5346C13.41 15.5443 13.4597 15.5443 13.508 15.5348C13.5563 15.5252 13.6023 15.5062 13.6432 15.4789C14.1114 15.1661 14.6619 14.9995 15.225 15H19.5C19.5994 15 19.6948 14.9605 19.7651 14.8902C19.8355 14.8198 19.875 14.7245 19.875 14.625C19.875 14.5255 19.8355 14.4302 19.7651 14.3598C19.6948 14.2895 19.5994 14.25 19.5 14.25Z" fill="#00A29D"/>
<path d="M8.775 16.125H4.5C4.40054 16.125 4.30516 16.1645 4.23484 16.2348C4.16451 16.3052 4.125 16.4005 4.125 16.5C4.125 16.5995 4.16451 16.6948 4.23484 16.7652C4.30516 16.8355 4.40054 16.875 4.5 16.875H8.775C9.33805 16.8744 9.8886 17.041 10.3568 17.3539C10.3977 17.3812 10.4437 17.4002 10.492 17.4098C10.5403 17.4193 10.59 17.4193 10.6383 17.4096C10.6866 17.4 10.7325 17.3809 10.7735 17.3535C10.8144 17.3262 10.8495 17.291 10.8769 17.25C10.9042 17.209 10.9232 17.1631 10.9328 17.1148C10.9423 17.0664 10.9423 17.0167 10.9327 16.9684C10.923 16.9201 10.9039 16.8742 10.8766 16.8333C10.8492 16.7923 10.814 16.7572 10.773 16.7299C10.1816 16.3349 9.48619 16.1244 8.775 16.125Z" fill="#00A29D"/>
<path d="M19.5 16.125H15.225C14.5138 16.1244 13.8184 16.3349 13.227 16.7299C13.186 16.7572 13.1508 16.7923 13.1234 16.8333C13.096 16.8742 13.077 16.9201 13.0673 16.9684C13.0577 17.0167 13.0576 17.0664 13.0672 17.1148C13.0768 17.1631 13.0958 17.209 13.1231 17.25C13.1504 17.291 13.1856 17.3261 13.2265 17.3535C13.2674 17.3809 13.3134 17.4 13.3617 17.4096C13.41 17.4193 13.4597 17.4193 13.508 17.4098C13.5563 17.4002 13.6023 17.3812 13.6432 17.3539C14.1114 17.0411 14.6619 16.8745 15.225 16.875H19.5C19.5994 16.875 19.6948 16.8355 19.7651 16.7652C19.8355 16.6948 19.875 16.5995 19.875 16.5C19.875 16.4005 19.8355 16.3052 19.7651 16.2348C19.6948 16.1645 19.5994 16.125 19.5 16.125Z" fill="#00A29D"/>
</svg>
