<svg width="20" height="20" viewBox="0 0 20 20" fill="none" xmlns="http://www.w3.org/2000/svg">
<g clip-path="url(#clip0)">
<path d="M19.4753 15.4289L15.4272 12.7293C14.9135 12.3895 14.2249 12.5013 13.8451 12.9863L12.666 14.5024C12.5144 14.7022 12.239 14.7602 12.0197 14.6384L11.7954 14.5147C11.0519 14.1094 10.1267 13.6049 8.26263 11.7401C6.39857 9.87541 5.89299 8.94953 5.48769 8.20734L5.3647 7.98303C5.24125 7.76385 5.29811 7.48721 5.498 7.33446L7.01309 6.15565C7.49786 5.77582 7.60984 5.08741 7.2704 4.57354L4.5708 0.52547C4.22292 0.00218837 3.52498 -0.154898 2.98642 0.168843L1.29367 1.18568C0.761793 1.49837 0.371578 2.00478 0.204845 2.59879C-0.404713 4.81979 0.0538513 8.65289 5.70036 14.3001C10.192 18.7914 13.5359 19.9992 15.8342 19.9992C16.3631 20.0015 16.89 19.9327 17.4007 19.7946C17.9948 19.6281 18.5013 19.2378 18.8138 18.7058L19.8316 17.014C20.1558 16.4754 19.9988 15.777 19.4753 15.4289ZM19.2573 16.6721L18.2418 18.3648C18.0174 18.7488 17.6532 19.0312 17.2253 19.1527C15.1749 19.7156 11.5928 19.2494 6.17193 13.8285C0.751053 8.40762 0.284833 4.82581 0.847757 2.77514C0.969458 2.34676 1.25215 1.98201 1.63662 1.75728L3.32938 0.741766C3.56306 0.601162 3.86598 0.669316 4.01694 0.896391L5.4834 3.09806L6.71423 4.94411C6.86163 5.16701 6.8132 5.46575 6.60292 5.63069L5.08748 6.8095C4.6263 7.16214 4.4946 7.80021 4.77854 8.30662L4.89887 8.52526C5.32483 9.30647 5.8544 10.2783 7.78778 12.2114C9.72117 14.1444 10.6927 14.674 11.4736 15.0999L11.6925 15.2206C12.1989 15.5045 12.837 15.3728 13.1896 14.9117L14.3684 13.3962C14.5334 13.1861 14.8321 13.1377 15.055 13.2849L19.1027 15.9845C19.33 16.1353 19.3981 16.4384 19.2573 16.6721Z" fill="#00A29D"/>
<path d="M11.3328 3.33506C14.4605 3.33854 16.9951 5.8732 16.9986 9.00091C16.9986 9.18498 17.1478 9.33418 17.3319 9.33418C17.516 9.33418 17.6652 9.18498 17.6652 9.00091C17.6613 5.50521 14.8285 2.67235 11.3328 2.66852C11.1487 2.66852 10.9995 2.81772 10.9995 3.00179C10.9995 3.18586 11.1487 3.33506 11.3328 3.33506Z" fill="#00A29D"/>
<path d="M11.3328 5.33475C13.3565 5.33714 14.9965 6.97713 14.9989 9.00089C14.9989 9.18496 15.1482 9.33416 15.3322 9.33416C15.5163 9.33416 15.6655 9.18496 15.6655 9.00089C15.6627 6.60914 13.7245 4.67095 11.3328 4.66821C11.1487 4.66821 10.9995 4.81741 10.9995 5.00148C10.9995 5.18556 11.1487 5.33475 11.3328 5.33475Z" fill="#00A29D"/>
<path d="M11.3328 7.33446C12.2526 7.33556 12.9981 8.08099 12.9992 9.0009C12.9992 9.18497 13.1485 9.33417 13.3325 9.33417C13.5165 9.33417 13.6658 9.18497 13.6658 9.0009C13.6643 7.71304 12.6206 6.66937 11.3328 6.66792C11.1487 6.66792 10.9995 6.81712 10.9995 7.00119C10.9995 7.18527 11.1487 7.33446 11.3328 7.33446Z" fill="#00A29D"/>
</g>
<defs>
<clipPath id="clip0">
<rect width="20" height="20" fill="white"/>
</clipPath>
</defs>
</svg>
