<svg width="53" height="53" viewBox="0 0 53 53" fill="none" xmlns="http://www.w3.org/2000/svg">
<path d="M17.076 34.2641H17.0785C17.0805 34.2641 17.0825 34.2637 17.0845 34.2637H45.2363C45.9294 34.2637 46.5388 33.8039 46.7292 33.1375L52.9402 11.3993C53.074 10.9306 52.9802 10.4268 52.687 10.0378C52.3935 9.64879 51.9345 9.41992 51.4473 9.41992H13.495L12.3851 4.42489C12.227 3.71443 11.597 3.20898 10.8691 3.20898H1.55273C0.695091 3.20898 0 3.90408 0 4.76172C0 5.61936 0.695091 6.31445 1.55273 6.31445H9.62372C9.82024 7.19959 14.9354 30.2181 15.2297 31.5423C13.5796 32.2597 12.4219 33.905 12.4219 35.8164C12.4219 38.3849 14.5116 40.4746 17.0801 40.4746H45.2363C46.094 40.4746 46.7891 39.7795 46.7891 38.9219C46.7891 38.0642 46.094 37.3691 45.2363 37.3691H17.0801C16.2241 37.3691 15.5273 36.6724 15.5273 35.8164C15.5273 34.9616 16.2216 34.2661 17.076 34.2641ZM49.3887 12.5254L44.0649 31.1582H18.3255L14.1849 12.5254H49.3887Z" fill="#00A29D"/>
<path d="M15.5273 45.1328C15.5273 47.7013 17.6171 49.791 20.1855 49.791C22.754 49.791 24.8437 47.7013 24.8437 45.1328C24.8437 42.5643 22.754 40.4746 20.1855 40.4746C17.6171 40.4746 15.5273 42.5643 15.5273 45.1328ZM20.1855 43.5801C21.0416 43.5801 21.7383 44.2768 21.7383 45.1328C21.7383 45.9888 21.0416 46.6855 20.1855 46.6855C19.3295 46.6855 18.6328 45.9888 18.6328 45.1328C18.6328 44.2768 19.3295 43.5801 20.1855 43.5801Z" fill="#00A29D"/>
<path d="M37.4727 45.1328C37.4727 47.7013 39.5624 49.791 42.1309 49.791C44.6993 49.791 46.7891 47.7013 46.7891 45.1328C46.7891 42.5643 44.6993 40.4746 42.1309 40.4746C39.5624 40.4746 37.4727 42.5643 37.4727 45.1328ZM42.1309 43.5801C42.9869 43.5801 43.6836 44.2768 43.6836 45.1328C43.6836 45.9888 42.9869 46.6855 42.1309 46.6855C41.2748 46.6855 40.5781 45.9888 40.5781 45.1328C40.5781 44.2768 41.2748 43.5801 42.1309 43.5801Z" fill="#00A29D"/>
</svg>
