<svg width="43" height="43" viewBox="0 0 43 43" fill="none" xmlns="http://www.w3.org/2000/svg">
<circle cx="21.5" cy="21.5" r="21.5" fill="#168DE2"/>
<g clip-path="url(#clip0)">
<path d="M21.5174 9.0354C14.6346 9.0354 9.03516 14.6349 9.03516 21.5176C9.03516 28.4004 14.6346 34 21.5174 34C23.7115 34 25.8691 33.4226 27.7596 32.3289C28.3015 32.0153 28.4877 31.3216 28.1729 30.7786C27.8593 30.2356 27.1645 30.0483 26.6226 30.3653C25.0778 31.2585 23.3125 31.7305 21.5173 31.7305C15.8856 31.7305 11.3045 27.1493 11.3045 21.5177C11.3045 15.8861 15.8857 11.305 21.5173 11.305C27.1489 11.305 31.73 15.8861 31.73 21.5177V22.6525C31.73 23.9036 30.7116 24.922 29.4606 24.922C28.2095 24.922 27.1911 23.9036 27.1911 22.6525V18.1135C27.1911 17.4862 26.6836 16.9787 26.0563 16.9787C25.7511 16.9787 25.4769 17.1022 25.2731 17.2978C24.2702 16.4041 22.9631 15.8439 21.5173 15.8439C18.389 15.8439 15.8436 18.3893 15.8436 21.5176C15.8436 24.6459 18.389 27.1915 21.5174 27.1915C23.2085 27.1915 24.7121 26.4328 25.7525 25.2551C26.5745 26.4228 27.927 27.1915 29.4607 27.1915C31.964 27.1915 33.9996 25.1558 33.9996 22.6524V21.5176C33.9996 14.635 28.4002 9.0354 21.5174 9.0354ZM21.5174 24.922C19.6402 24.922 18.1131 23.395 18.1131 21.5177C18.1131 19.6405 19.6402 18.1135 21.5174 18.1135C23.3946 18.1135 24.9216 19.6405 24.9216 21.5177C24.9216 23.395 23.3946 24.922 21.5174 24.922Z" fill="#FFA930"/>
</g>
<defs>
<clipPath id="clip0">
<rect width="25" height="25" fill="white" transform="translate(9 9)"/>
</clipPath>
</defs>
</svg>
