<svg width="43" height="43" viewBox="0 0 43 43" fill="none" xmlns="http://www.w3.org/2000/svg">
<circle cx="21.5004" cy="21.4999" r="16.5385" fill="white"/>
<path d="M21.5 0C9.61943 0 0 9.61943 0 21.5C0 33.3806 9.61943 43 21.5 43C33.3806 43 43 33.3806 43 21.5C43 9.61943 33.3806 0 21.5 0ZM33.8021 30.9278L30.0463 30.9661C30.0463 30.9661 29.2415 31.1194 28.1684 30.3913C26.7504 29.4332 25.4091 26.9037 24.3743 27.2487C23.3396 27.5936 23.3779 29.8547 23.3779 29.8547C23.3779 29.8547 23.3779 30.3529 23.148 30.5829C22.8797 30.8512 22.3815 30.9278 22.3815 30.9278H20.6952C20.6952 30.9278 16.9777 31.1578 13.6818 27.7469C10.1176 24.0294 6.93672 16.6328 6.93672 16.6328C6.93672 16.6328 6.7451 16.1346 6.93672 15.9046C7.16667 15.6364 7.77986 15.6364 7.77986 15.6364L11.8039 15.598C11.8039 15.598 12.1872 15.6747 12.4554 15.8663C12.6854 16.0196 12.8004 16.3262 12.8004 16.3262C12.8004 16.3262 13.4519 17.9742 14.3333 19.4688C16.0196 22.3815 16.7861 23.033 17.361 22.6881C18.2041 22.2282 17.9358 18.5873 17.9358 18.5873C17.9358 18.5873 17.9358 17.246 17.5143 16.6711C17.1693 16.2112 16.5562 16.0963 16.2496 16.0579C16.0196 16.0196 16.4029 15.4831 16.8627 15.2531C17.5909 14.9082 18.8556 14.8699 20.3886 14.9082C21.5766 14.9082 21.9216 14.9848 22.3815 15.0998C23.7611 15.4447 23.3012 16.7478 23.3012 19.8521C23.3012 20.8485 23.1096 22.2665 23.8378 22.7264C24.1444 22.918 24.9109 22.7647 26.7888 19.5455C27.6702 18.0125 28.3601 16.2496 28.3601 16.2496C28.3601 16.2496 28.5134 15.943 28.7433 15.7897C28.9733 15.6364 29.2799 15.6747 29.2799 15.6747L33.5339 15.6364C33.5339 15.6364 34.7986 15.4831 35.0285 16.0579C35.2585 16.6711 34.5686 18.0891 32.8057 20.3886C29.9697 24.1827 29.6248 23.8378 32.0009 26.0223C34.262 28.1301 34.7219 29.1266 34.7986 29.2799C35.795 30.8128 33.8021 30.9278 33.8021 30.9278Z" fill="#4C75A3"/>
</svg>
