<svg width="43" height="43" viewBox="0 0 43 43" fill="none" xmlns="http://www.w3.org/2000/svg">
<path d="M21.5207 17.8188C23.5737 17.8113 25.2088 16.1622 25.2013 14.1048C25.1938 12.0465 23.5552 10.4087 21.5013 10.407C19.4303 10.4048 17.7763 12.0729 17.7921 14.1496C17.8075 16.1996 19.4611 17.8263 21.5207 17.8188Z" fill="#FFC107"/>
<path d="M21.5 0C9.62584 0 0 9.62628 0 21.5C0 33.3737 9.62584 43 21.5 43C33.3742 43 43 33.3737 43 21.5C43 9.62628 33.3742 0 21.5 0ZM21.5308 6.5382C25.7186 6.54964 29.0799 9.97512 29.0583 14.2091C29.0372 18.3455 25.621 21.698 21.4402 21.6839C17.3021 21.6698 13.9082 18.239 13.9329 14.0943C13.9562 9.9043 17.3518 6.52676 21.5308 6.5382ZM30.0129 24.6593C29.0869 25.61 27.9722 26.298 26.7343 26.7779C25.5642 27.2314 24.2819 27.4597 23.0124 27.6119C23.2046 27.8204 23.2948 27.9229 23.4144 28.0426C25.1371 29.7745 26.8681 31.4976 28.585 33.2343C29.1701 33.8264 29.2919 34.5601 28.9699 35.2477C28.6184 35.9999 27.8297 36.4944 27.0559 36.4411C26.5659 36.4072 26.1836 36.164 25.8444 35.8222C24.5441 34.5139 23.2191 33.229 21.9461 31.8961C21.5743 31.5081 21.3966 31.582 21.0689 31.919C19.7611 33.2659 18.4317 34.5914 17.0949 35.9097C16.4944 36.5018 15.78 36.6092 15.0832 36.2704C14.3429 35.9124 13.8722 35.1562 13.9082 34.3956C13.9338 33.8827 14.1863 33.4894 14.5391 33.1384C16.2445 31.4364 17.9447 29.7292 19.6454 28.0232C19.7584 27.9102 19.8631 27.7901 20.0272 27.6141C17.7076 27.3718 15.6159 26.8008 13.8251 25.4006C13.6025 25.2264 13.3733 25.0583 13.171 24.863C12.3866 24.1104 12.3079 23.2477 12.9277 22.36C13.4587 21.5999 14.349 21.3966 15.275 21.8334C15.4545 21.9175 15.6252 22.0239 15.7888 22.1365C19.1259 24.4297 23.7105 24.4926 27.0607 22.239C27.3924 21.9856 27.7474 21.7771 28.1587 21.672C28.9576 21.4661 29.7037 21.7604 30.1321 22.4599C30.6226 23.2591 30.6169 24.0386 30.0129 24.6593Z" fill="#FFC107"/>
</svg>
