<svg width="18" height="32" viewBox="0 0 18 32" fill="none" xmlns="http://www.w3.org/2000/svg">
<path d="M1.18733 2.28975L1.18734 2.28976L14.8982 15.9993L1.18867 29.7102C1.18867 29.7102 1.18867 29.7102 1.18866 29.7103C0.836689 30.0622 0.836692 30.634 1.18867 30.986C1.54066 31.338 2.11246 31.338 2.46444 30.986L16.8126 16.6379L16.8135 16.6369C16.9877 16.4609 17.0763 16.2302 17.0763 15.9993C17.0763 15.7689 16.988 15.5373 16.8109 15.3617C16.8108 15.3615 16.8106 15.3614 16.8104 15.3612L2.46316 1.01393L2.46311 1.01389C2.11109 0.662029 1.53932 0.661995 1.18733 1.01399C0.835345 1.36597 0.835344 1.93777 1.18733 2.28975Z" fill="black" stroke="black" stroke-width="0.5"/>
</svg>
