<svg width="41" height="42" viewBox="0 0 41 42" fill="none" xmlns="http://www.w3.org/2000/svg">
<path d="M19.0064 1.40298C19.8448 0.615408 21.1552 0.615408 21.9936 1.40298C22.6585 2.02755 23.6444 2.1714 24.4591 1.76094C25.4809 1.24608 26.727 1.61245 27.3076 2.59845L27.3269 2.63125C27.7894 3.4167 28.6917 3.83146 29.589 3.67103C30.7132 3.47001 31.8019 4.17071 32.0847 5.27717L32.0993 5.33447C32.3254 6.21919 33.0743 6.87239 33.9815 6.97614C35.1185 7.10615 35.9661 8.08579 35.9313 9.22962L35.9294 9.29098C35.9015 10.2072 36.4377 11.0471 37.2806 11.4074C38.3385 11.8597 38.878 13.043 38.5257 14.1383L38.5122 14.1804C38.2302 15.0571 38.5102 16.0172 39.2194 16.6049C40.1114 17.3441 40.2932 18.6456 39.6451 19.606C39.1278 20.3724 39.1278 21.3854 39.6451 22.1519C40.2932 23.1122 40.1114 24.4137 39.2194 25.153C38.5102 25.7406 38.2302 26.7007 38.5122 27.5775L38.5257 27.6195C38.878 28.7148 38.3385 29.8982 37.2806 30.3504C36.4377 30.7107 35.9015 31.5506 35.9294 32.4668L35.9313 32.5282C35.9661 33.672 35.1185 34.6517 33.9815 34.7817C33.0743 34.8854 32.3254 35.5386 32.0993 36.4233L32.0847 36.4806C31.8019 37.5871 30.7132 38.2878 29.589 38.0868C28.6917 37.9263 27.7894 38.3411 27.3269 39.1266L27.3076 39.1594C26.727 40.1454 25.4809 40.5117 24.4591 39.9969C23.6444 39.5864 22.6585 39.7303 21.9936 40.3548C21.1552 41.1424 19.8448 41.1424 19.0064 40.3548C18.3415 39.7303 17.3556 39.5864 16.5409 39.9969C15.5191 40.5117 14.273 40.1454 13.6924 39.1594L13.6731 39.1266C13.2106 38.3411 12.3083 37.9263 11.411 38.0868C10.2868 38.2878 9.19806 37.5871 8.91533 36.4806L8.90069 36.4233C8.67461 35.5386 7.92569 34.8854 7.01845 34.7817C5.88151 34.6517 5.03391 33.672 5.06873 32.5282L5.0706 32.4668C5.09849 31.5506 4.56233 30.7107 3.71943 30.3504C2.66153 29.8982 2.12195 28.7148 2.47426 27.6195L2.48779 27.5775C2.76981 26.7007 2.48977 25.7406 1.78063 25.153C0.888555 24.4137 0.70679 23.1122 1.35491 22.1519C1.87216 21.3854 1.87216 20.3724 1.35491 19.606C0.70679 18.6456 0.888555 17.3441 1.78063 16.6049C2.48977 16.0172 2.76981 15.0571 2.48779 14.1804L2.47426 14.1383C2.12195 13.043 2.66153 11.8597 3.71943 11.4074C4.56233 11.0471 5.09849 10.2072 5.0706 9.29098L5.06873 9.22962C5.03391 8.08579 5.88151 7.10615 7.01845 6.97614C7.92569 6.87239 8.67461 6.21919 8.90069 5.33447L8.91533 5.27717C9.19806 4.17071 10.2868 3.47001 11.411 3.67103C12.3083 3.83146 13.2106 3.4167 13.6731 2.63125L13.6924 2.59845C14.273 1.61245 15.5191 1.24608 16.5409 1.76094C17.3556 2.1714 18.3415 2.02755 19.0064 1.40298Z" fill="white"/>
<path d="M22.0862 8.9375C17.3294 8.9375 13.2307 11.7893 11.3436 15.9061H14.3245C15.9697 13.3139 18.8308 11.6007 22.0862 11.6007C27.1873 11.6007 31.3209 15.8107 31.3209 21.006C31.3209 26.2014 27.1873 30.4114 22.0862 30.4114C18.737 30.4114 15.8041 28.596 14.1851 25.8796H11.2434C13.0803 30.1162 17.2444 33.0746 22.0862 33.0746C28.6298 33.0746 33.9357 27.6706 33.9357 21.006C33.9357 14.3415 28.6298 8.9375 22.0862 8.9375Z" fill="#4BB362"/>
<path d="M13.8714 20.9344C13.8714 18.6929 12.0846 16.873 9.88375 16.873C8.65045 16.873 7.54785 17.4434 6.81567 18.34L8.16671 19.7137C8.54368 19.1611 9.17339 18.7994 9.88375 18.7994C10.8346 18.7994 11.6371 19.4459 11.8934 20.3301H9.73517V21.6476H11.8575C11.5687 22.4751 10.7949 23.0693 9.88375 23.0693C9.17339 23.0693 8.54368 22.7076 8.16671 22.155L6.81791 23.5287C7.54785 24.4253 8.65045 24.9957 9.88375 24.9957C12.0846 24.9957 13.8714 23.1781 13.8714 20.9344Z" fill="#4BB362"/>
<path d="M14.2832 16.873V24.9957H15.7158V22.2614L16.7046 21.321L19.3877 24.9957H21.168L17.7465 20.3301L21.168 16.873H19.2625L15.7158 20.3601V16.873H14.2832Z" fill="#4BB362"/>
<path d="M24.1923 22.159C24.2106 22.3276 24.2084 22.4463 24.2014 22.529C24.197 22.5824 24.1839 22.7036 24.2283 22.8375C24.2336 22.8534 24.3071 23.077 24.4079 23.0614C24.532 23.0424 24.4977 22.9018 24.4892 22.8017C24.4871 22.766 24.4678 22.735 24.455 22.704C24.4486 22.5968 24.4357 22.5086 24.425 22.4491C24.4123 22.3871 24.4015 22.3419 24.4208 22.3228C24.4464 22.2966 24.517 22.3371 24.5405 22.3514C24.7885 22.4276 25.0345 22.4086 25.274 22.3037C25.3603 22.2448 25.4841 22.1453 25.5987 21.9884C25.8521 21.6415 25.8839 21.2556 25.8941 21.1124C25.9034 20.9808 25.8881 20.8261 25.8577 20.5167C25.8141 20.0738 25.7673 19.9355 25.8302 19.7407C25.8884 19.5605 26.0055 19.4408 26.0966 19.3673C25.9486 19.3126 25.8216 19.2872 25.7301 19.2743C25.5679 19.2515 25.1437 19.1983 24.6966 19.4587C24.6921 19.4614 24.6716 19.4736 24.6449 19.4902C24.4971 19.5828 23.8607 19.9866 23.7557 20.7597C23.6921 21.2291 23.8555 21.606 23.9057 21.7179C23.9975 21.9225 24.1101 22.0678 24.1923 22.159Z" fill="#4BB362"/>
<path d="M24.8144 25.2987C27.1176 25.2987 28.9872 23.3968 28.9872 21.0488C28.9872 18.703 27.1176 16.7988 24.8144 16.7988C22.509 16.7988 20.6416 18.703 20.6416 21.0488C20.6416 23.3968 22.509 25.2987 24.8144 25.2987ZM24.8144 18.2924C26.3092 18.2924 27.5186 19.5263 27.5186 21.0488C27.5186 22.5712 26.3092 23.8051 24.8144 23.8051C23.3196 23.8051 22.1081 22.5712 22.1081 21.0488C22.1081 19.5263 23.3196 18.2924 24.8144 18.2924Z" fill="#4BB362"/>
</svg>
