<svg width="71" height="71" viewBox="0 0 71 71" fill="none" xmlns="http://www.w3.org/2000/svg">
<path d="M32.9179 2.38069C34.3766 1.03577 36.6234 1.03577 38.0821 2.38069C39.2414 3.44955 40.9398 3.69349 42.3532 2.9945C44.1315 2.11507 46.2875 2.74775 47.3081 4.44898C48.1192 5.80106 49.6802 6.51346 51.2332 6.2409C53.187 5.89799 55.0777 7.11227 55.5774 9.03193C55.9746 10.5577 57.2718 11.6809 58.8385 11.8568C60.8097 12.078 62.2817 13.7757 62.2203 15.7583C62.1714 17.3341 63.0994 18.7772 64.5531 19.3872C66.3821 20.1546 67.3161 22.1983 66.6984 24.0831C66.2074 25.5812 66.6909 27.2271 67.9139 28.2219C69.4528 29.4736 69.7728 31.6975 68.6489 33.332C67.7557 34.6311 67.7557 36.3464 68.6489 37.6455C69.7728 39.2801 69.4528 41.5039 67.9139 42.7556C66.6909 43.7504 66.2074 45.3963 66.6984 46.8944C67.3161 48.7793 66.3821 50.8229 64.5531 51.5904C63.0994 52.2004 62.1714 53.6435 62.2203 55.2192C62.2817 57.2018 60.8097 58.8995 58.8385 59.1208C57.2718 59.2966 55.9746 60.4199 55.5774 61.9456C55.0777 63.8653 53.187 65.0796 51.2332 64.7366C49.6802 64.4641 48.1192 65.1765 47.3081 66.5286C46.2875 68.2298 44.1315 68.8625 42.3532 67.983C40.9398 67.284 39.2414 67.528 38.0821 68.5968C36.6234 69.9418 34.3766 69.9418 32.9179 68.5968C31.7586 67.528 30.0602 67.284 28.6468 67.983C26.8685 68.8625 24.7125 68.2298 23.6919 66.5286C22.8808 65.1765 21.3198 64.4641 19.7668 64.7366C17.813 65.0796 15.9223 63.8653 15.4226 61.9456C15.0254 60.4199 13.7282 59.2966 12.1615 59.1208C10.1903 58.8995 8.71825 57.2018 8.77974 55.2192C8.82861 53.6435 7.90063 52.2004 6.44691 51.5904C4.61789 50.8229 3.68393 48.7793 4.30163 46.8944C4.79259 45.3963 4.30909 43.7504 3.08607 42.7556C1.54721 41.5039 1.2272 39.2801 2.35107 37.6455C3.24431 36.3464 3.24431 34.6311 2.35107 33.332C1.2272 31.6975 1.54721 29.4736 3.08607 28.2219C4.30909 27.2271 4.79259 25.5812 4.30163 24.0831C3.68393 22.1983 4.61789 20.1546 6.44691 19.3872C7.90063 18.7772 8.82861 17.3341 8.77974 15.7583C8.71825 13.7757 10.1903 12.078 12.1615 11.8568C13.7282 11.6809 15.0254 10.5577 15.4226 9.03193C15.9223 7.11227 17.813 5.89799 19.7668 6.2409C21.3198 6.51346 22.8808 5.80106 23.6919 4.44898C24.7125 2.74775 26.8685 2.11507 28.6468 2.9945C30.0602 3.69349 31.7586 3.44955 32.9179 2.38069Z" fill="white"/>
<path d="M38.247 15.1904C30.0096 15.1904 22.9119 20.0377 19.644 27.0352H24.806C27.6551 22.6293 32.6096 19.7171 38.247 19.7171C47.0807 19.7171 54.2388 26.873 54.2388 35.7038C54.2388 44.5346 47.0807 51.6906 38.247 51.6906C32.4472 51.6906 27.3682 48.6049 24.5646 43.9876H19.4705C22.6514 51.1888 29.8625 56.2172 38.247 56.2172C49.5786 56.2172 58.7669 47.0318 58.7669 35.7038C58.7669 24.3758 49.5786 15.1904 38.247 15.1904Z" fill="#4BB362"/>
<path d="M24.0211 35.5838C24.0211 31.7739 20.9269 28.6807 17.1157 28.6807C14.98 28.6807 13.0706 29.6501 11.8027 31.1741L14.1423 33.5091C14.7951 32.5698 15.8856 31.955 17.1157 31.955C18.7624 31.955 20.1521 33.0538 20.5958 34.5568H16.8584V36.7961H20.5337C20.0336 38.2027 18.6936 39.2127 17.1157 39.2127C15.8856 39.2127 14.7951 38.5979 14.1423 37.6586L11.8066 39.9936C13.0706 41.5176 14.98 42.487 17.1157 42.487C20.9269 42.487 24.0211 39.3976 24.0211 35.5838Z" fill="#4BB362"/>
<path d="M24.7344 28.6807V42.487H27.2153V37.8395L28.9275 36.2411L33.5739 42.487H36.6569L30.7318 34.5568L36.6569 28.6807H33.3571L27.2153 34.6078V28.6807H24.7344Z" fill="#4BB362"/>
<path d="M41.894 37.6634C41.9256 37.95 41.9218 38.1518 41.9098 38.2924C41.902 38.3832 41.8794 38.5892 41.9563 38.8167C41.9655 38.8437 42.0927 39.2238 42.2674 39.1974C42.4821 39.165 42.4229 38.9261 42.4081 38.756C42.4044 38.6952 42.371 38.6426 42.3489 38.5899C42.3378 38.4077 42.3155 38.2578 42.297 38.1566C42.2748 38.0512 42.2562 37.9743 42.2896 37.9419C42.334 37.8974 42.4561 37.9662 42.497 37.9905C42.9264 38.1201 43.3523 38.0877 43.7671 37.9095C43.9166 37.8093 44.131 37.6403 44.3294 37.3735C44.7682 36.7838 44.8234 36.1279 44.841 35.8845C44.8571 35.6609 44.8307 35.398 44.778 34.872C44.7025 34.1193 44.6214 33.8841 44.7303 33.5531C44.8311 33.2467 45.0339 33.0432 45.1917 32.9184C44.9354 32.8253 44.7155 32.7822 44.557 32.7603C44.2762 32.7215 43.5415 32.6311 42.7673 33.0738C42.7594 33.0783 42.724 33.099 42.6778 33.1273C42.4217 33.2846 41.3197 33.971 41.1379 35.2851C41.0277 36.083 41.3107 36.7235 41.3976 36.9137C41.5565 37.2615 41.7517 37.5084 41.894 37.6634Z" fill="#4BB362"/>
<path d="M42.9712 42.9994C46.9597 42.9994 50.1973 39.7666 50.1973 35.7756C50.1973 31.7883 46.9597 28.5518 42.9712 28.5518C38.9789 28.5518 35.7451 31.7883 35.7451 35.7756C35.7451 39.7666 38.9789 42.9994 42.9712 42.9994ZM42.9712 31.0905C45.5597 31.0905 47.6541 33.1878 47.6541 35.7756C47.6541 38.3633 45.5597 40.4607 42.9712 40.4607C40.3827 40.4607 38.2846 38.3633 38.2846 35.7756C38.2846 33.1878 40.3827 31.0905 42.9712 31.0905Z" fill="#4BB362"/>
</svg>
