<svg width="31" height="31" viewBox="0 0 31 31" fill="none" xmlns="http://www.w3.org/2000/svg">
<path d="M17.2126 15.4628L30.6453 2.06229C31.1183 1.5905 31.1183 0.825579 30.6453 0.353845C30.1724 -0.117888 29.4056 -0.117948 28.9328 0.353845L15.5 13.7543L2.06726 0.353845C1.59433 -0.117948 0.827568 -0.117948 0.354698 0.353845C-0.118172 0.825639 -0.118233 1.59056 0.354698 2.06229L13.7874 15.4627L0.354698 28.8632C-0.118233 29.335 -0.118233 30.0999 0.354698 30.5717C0.591133 30.8075 0.901072 30.9254 1.21101 30.9254C1.52095 30.9254 1.83083 30.8075 2.06732 30.5717L15.5 17.1712L28.9327 30.5717C29.1691 30.8075 29.4791 30.9254 29.789 30.9254C30.099 30.9254 30.4088 30.8075 30.6453 30.5717C31.1183 30.0999 31.1183 29.3349 30.6453 28.8632L17.2126 15.4628Z" fill="white"/>
</svg>
