<svg width="312" height="89" viewBox="0 0 312 89" fill="none" xmlns="http://www.w3.org/2000/svg">
<g filter="url(#filter0_d_2834_31405)">
<path d="M299.999 34.9783V45.0911C299.999 53.5664 293.313 60.3889 285.122 60.3889H59.8832C51.693 60.3889 45.0117 53.5668 45.0117 45.0911V34.9783C45.0117 26.5026 51.693 19.6804 59.8832 19.6804H285.122C293.313 19.6804 299.999 26.503 299.999 34.9783Z" fill="white" stroke="#00A6CA" stroke-width="2"/>
<path d="M107.554 61.3897H106.382L88.3711 18.6812H89.543L107.554 61.3897Z" fill="#F7F7F7"/>
<path d="M107.801 64.2133H68.8672V63.8352H107.644L107.801 64.2133Z" fill="#8ECAE8"/>
<path d="M107.644 63.835H68.8672V16.4553H88.8606V18.6805L107.644 63.835Z" fill="#65B8D7"/>
<path d="M102.416 58.0337C101.472 55.7601 98.8632 50.3157 94.7239 48.3152C92.6292 47.301 90.5065 47.0948 90.5065 47.0948C89.6128 47.0056 88.0487 46.8719 86.2053 47.496C85.7193 47.6632 84.6803 48.0589 83.457 48.9895C81.1835 50.7281 80.2563 52.8067 79.4128 54.2667C78.4464 55.9329 76.8488 58.0727 74.0391 60.2126C77.4298 55.2419 79.653 49.413 80.3065 43.1216H96.6511L102.416 58.0337Z" fill="#2F6EA0"/>
<path d="M104.35 63.044H71.9062C72.6603 62.1357 73.3754 61.1884 74.0401 60.2132C76.8498 58.0733 78.4474 55.9335 79.4138 54.2673C80.2573 52.8073 81.1845 50.7287 83.4581 48.99C84.6814 48.0594 85.7204 47.6638 86.2063 47.4966C88.0497 46.8725 89.6138 47.0062 90.5075 47.0954C90.5075 47.0954 92.6302 47.3016 94.725 48.3158C98.8642 50.3163 101.473 55.7607 102.417 58.0343C102.428 58.0622 102.439 58.0956 102.45 58.1235C102.473 58.1792 102.495 58.2293 102.512 58.2739L102.763 58.9259C102.774 58.9482 102.78 58.9705 102.786 58.9872C102.797 59.0095 102.802 59.0318 102.808 59.0429L104.35 63.044Z" fill="#4993BC"/>
<path d="M91.2549 27.1642C88.5339 24.141 84.5807 22.8653 81.1473 23.9196C79.3897 24.4614 78.1343 25.4982 77.3226 26.3836C76.5519 24.5895 75.6409 22.8594 74.6133 21.2167C76.9956 20.0226 83.3895 17.378 88.5339 20.4304L91.2549 27.1642Z" fill="#A0D9E9"/>
<path d="M88.5311 20.4302C83.3868 17.3778 76.9929 20.0224 74.6105 21.2166C73.8456 19.9816 73.0047 18.7875 72.1055 17.6458H87.8493L87.8596 18.7642L88.5311 20.4302Z" fill="#C4EDF5"/>
<path d="M108.693 59.3261L103.27 45.6619C103.27 45.6619 108.693 51.7559 116.691 51.7559C124.689 51.7559 268.158 51.7559 268.158 51.7559C268.158 51.7559 293.07 53.2964 293.07 40.5378C293.07 40.5378 296.183 51.8954 289.209 56.5749C289.209 56.5749 292.151 53.8238 291.875 48.5048C291.875 48.5048 290.036 54.374 267.882 54.374H192.792H117.702C117.702 54.374 110.991 54.8325 106.763 50.614L108.693 59.3261Z" fill="#DCDFE0"/>
<path d="M117.507 45.198C120.464 45.198 122.498 43.706 122.498 41.2077C122.498 40.2188 122.272 39.0564 120.846 38.4839C121.768 37.9461 122.098 37.1827 122.098 36.1764C122.098 33.9731 120.464 32.6372 117.403 32.6372C114.759 32.6372 113.159 33.5914 112.064 35.0834L114.151 36.4887C114.951 35.5866 115.838 35.1528 117.246 35.1528C118.168 35.1528 119.385 35.4131 119.385 36.4193C119.385 37.096 118.585 37.547 117.142 37.547H115.333V40.0627H117.246C118.916 40.0627 119.785 40.4443 119.785 41.3639C119.785 42.1272 119.229 42.6824 117.438 42.6824C115.751 42.6824 114.603 42.1446 113.768 41.0342L111.629 42.4742C112.968 44.452 114.985 45.198 117.507 45.198Z" fill="#1D5E7E"/>
<path d="M122.751 44.9898H125.534L126.525 42.7344H131.621L132.612 44.9898H135.429L130.09 32.8454H128.09L122.751 44.9898ZM129.064 36.8357L130.63 40.4617H127.464L129.064 36.8357Z" fill="#1D5E7E"/>
<path d="M144.572 44.9898H147.268V32.8454H136.485V44.9898H139.181V35.361H144.572V44.9898Z" fill="#1D5E7E"/>
<path d="M151.737 44.9898L157.667 37.5817V44.9898H160.363V32.8454H158.12L152.224 40.2882V32.8454H149.528V44.9898H151.737Z" fill="#1D5E7E"/>
<path d="M171.822 40.9822C170.988 42.0231 169.822 42.5957 168.466 42.5957C166.362 42.5957 164.814 41.1036 164.814 38.9176C164.814 36.6622 166.327 35.2396 168.501 35.2396C169.492 35.2396 170.675 35.708 171.405 36.6102L173.231 34.9447C172.362 33.5741 170.536 32.6372 168.309 32.6372C164.536 32.6372 162.014 35.4478 162.014 38.9176C162.014 42.6824 164.449 45.198 168.24 45.198C170.396 45.198 172.327 44.2959 173.422 42.6997L171.822 40.9822Z" fill="#1D5E7E"/>
<path d="M179.706 39.386C181.271 39.386 182.053 39.8545 182.053 40.8954C182.053 41.9537 181.253 42.4742 179.653 42.4742H177.445V39.386H179.706ZM177.445 32.8454H174.732V44.9898H179.601C182.888 44.9898 184.853 43.6019 184.853 40.8954C184.853 38.2583 183.166 36.8704 179.74 36.8704H177.445V32.8454Z" fill="#1D5E7E"/>
<path d="M198.376 44.9898H201.071V32.8454H198.376V37.6164H192.967V32.8454H190.272V44.9898H192.967V40.1321H198.376V44.9898Z" fill="#1D5E7E"/>
<path d="M202.132 44.9898H204.914L205.906 42.7344H211.001L211.993 44.9898H214.81L209.471 32.8454H207.471L202.132 44.9898ZM208.445 36.8357L210.01 40.4617H206.845L208.445 36.8357Z" fill="#1D5E7E"/>
<path d="M228.062 44.9898H230.758V32.8454H219.976V44.9898H222.671V35.361H228.062V44.9898Z" fill="#1D5E7E"/>
<path d="M235.714 44.9898V41.173H238.062C241.906 41.173 243.227 39.0738 243.227 37.0266C243.227 35.0314 242.201 32.8454 238.062 32.8454H233.019V44.9898H235.714ZM238.132 35.361C239.836 35.361 240.427 36.055 240.427 37.0092C240.427 38.0328 239.714 38.6574 238.027 38.6574H235.714V35.361H238.132Z" fill="#1D5E7E"/>
<path d="M246.997 44.9898L252.927 37.5817V44.9898H255.623V32.8454H253.38L247.484 40.2882V32.8454H244.788V44.9898H246.997Z" fill="#1D5E7E"/>
<path d="M257.883 44.9898H267.343V42.4742H260.578V40.0453H266.752V37.6164H260.578V35.361H267.187V32.8454H257.883V44.9898Z" fill="#1D5E7E"/>
<path d="M269.177 44.9898H271.872V37.6511L275.142 42.5436H275.855L279.02 37.7032V44.9898H281.715V32.8454H279.281L275.576 38.6574L271.681 32.8454H269.177V44.9898Z" fill="#1D5E7E"/>
<path d="M209.481 53.1635H211.427C212.435 53.1635 213.169 52.7753 213.169 51.8396C213.169 51.2859 212.952 50.974 212.588 50.8022C212.837 50.5858 213.022 50.2866 213.022 49.8475C213.022 49.1792 212.646 48.7082 211.478 48.7082H209.481V53.1635ZM211.376 51.3368C211.937 51.3368 212.135 51.4705 212.135 51.7824C212.135 52.107 211.918 52.2406 211.325 52.2406H210.47V51.3368H211.376ZM211.312 49.6311C211.854 49.6311 211.995 49.7775 211.995 50.0702C211.995 50.2994 211.791 50.4458 211.395 50.4458H210.47V49.6311H211.312Z" fill="#1D5E7E"/>
<path d="M213.582 50.9358C213.582 52.2597 214.609 53.2399 215.885 53.2399C217.161 53.2399 218.182 52.247 218.182 50.9358C218.182 49.612 217.161 48.6318 215.885 48.6318C214.59 48.6318 213.582 49.6502 213.582 50.9358ZM214.609 50.9358C214.609 50.1084 215.209 49.5865 215.885 49.5865C216.536 49.5865 217.155 50.1084 217.155 50.9358C217.155 51.7633 216.587 52.2852 215.885 52.2852C215.209 52.2852 214.609 51.7633 214.609 50.9358Z" fill="#1D5E7E"/>
<path d="M218.79 53.1635H220.11C221.986 53.1635 222.777 52.1515 222.777 50.8786C222.777 49.7138 222.12 48.7082 220.206 48.7082H218.79V53.1635ZM220.193 49.6311C221.354 49.6311 221.756 50.1275 221.756 50.8786C221.756 51.706 221.31 52.2406 220.193 52.2406H219.778V49.6311H220.193Z" fill="#1D5E7E"/>
<path d="M227.291 48.7082H226.149L225.001 50.4903L223.878 48.7082H222.697L224.49 51.566V53.1635H225.479V51.566L227.291 48.7082Z" fill="#1D5E7E"/>
<path d="M229.151 53.1635H231.097C232.105 53.1635 232.839 52.7753 232.839 51.8396C232.839 51.2859 232.622 50.974 232.258 50.8022C232.507 50.5858 232.692 50.2866 232.692 49.8475C232.692 49.1792 232.315 48.7082 231.148 48.7082H229.151V53.1635ZM231.046 51.3368C231.607 51.3368 231.805 51.4705 231.805 51.7824C231.805 52.107 231.588 52.2406 230.995 52.2406H230.14V51.3368H231.046ZM230.982 49.6311C231.524 49.6311 231.665 49.7775 231.665 50.0702C231.665 50.2994 231.461 50.4458 231.065 50.4458H230.14V49.6311H230.982Z" fill="#1D5E7E"/>
<path d="M233.035 53.1635H234.055L234.419 52.3361H236.289L236.652 53.1635H237.686L235.727 48.7082H234.993L233.035 53.1635ZM235.351 50.1721L235.925 51.5023H234.764L235.351 50.1721Z" fill="#1D5E7E"/>
<path d="M238.073 53.1635H241.474V52.2406H239.062V48.7082H238.073V53.1635Z" fill="#1D5E7E"/>
<path d="M241.514 53.1635H242.535L242.899 52.3361H244.768L245.132 53.1635H246.166L244.207 48.7082H243.473L241.514 53.1635ZM243.83 50.1721L244.405 51.5023H243.243L243.83 50.1721Z" fill="#1D5E7E"/>
<path d="M250.445 53.1635V48.7082H249.481V51.3559L247.312 48.7082H246.553V53.1635H247.516V50.5221L249.679 53.1635H250.445Z" fill="#1D5E7E"/>
<path d="M254.651 51.6932C254.344 52.0751 253.917 52.2852 253.419 52.2852C252.647 52.2852 252.079 51.7378 252.079 50.9358C252.079 50.1084 252.635 49.5865 253.432 49.5865C253.796 49.5865 254.23 49.7584 254.497 50.0893L255.167 49.4783C254.848 48.9755 254.178 48.6318 253.362 48.6318C251.977 48.6318 251.052 49.6629 251.052 50.9358C251.052 52.317 251.945 53.2399 253.336 53.2399C254.127 53.2399 254.836 52.9089 255.238 52.3234L254.651 51.6932Z" fill="#1D5E7E"/>
<path d="M255.718 53.1635H259.189V52.2406H256.707V51.3496H258.972V50.4585H256.707V49.6311H259.131V48.7082H255.718V53.1635Z" fill="#1D5E7E"/>
<path d="M264.744 51.6932C264.438 52.0751 264.01 52.2852 263.513 52.2852C262.741 52.2852 262.173 51.7378 262.173 50.9358C262.173 50.1084 262.728 49.5865 263.525 49.5865C263.889 49.5865 264.323 49.7584 264.591 50.0893L265.261 49.4783C264.942 48.9755 264.272 48.6318 263.455 48.6318C262.071 48.6318 261.146 49.6629 261.146 50.9358C261.146 52.317 262.039 53.2399 263.43 53.2399C264.221 53.2399 264.929 52.9089 265.331 52.3234L264.744 51.6932Z" fill="#1D5E7E"/>
<path d="M265.811 53.1635H269.212V52.2406H266.8V48.7082H265.811V53.1635Z" fill="#1D5E7E"/>
<path d="M269.725 53.1635H270.714V48.7082H269.725V53.1635Z" fill="#1D5E7E"/>
<path d="M275.466 53.1635V48.7082H274.503V51.3559L272.334 48.7082H271.575V53.1635H272.538V50.5221L274.701 53.1635H275.466Z" fill="#1D5E7E"/>
<path d="M276.329 53.1635H277.318V48.7082H276.329V53.1635Z" fill="#1D5E7E"/>
<path d="M281.554 51.6932C281.248 52.0751 280.82 52.2852 280.323 52.2852C279.551 52.2852 278.983 51.7378 278.983 50.9358C278.983 50.1084 279.538 49.5865 280.335 49.5865C280.699 49.5865 281.133 49.7584 281.401 50.0893L282.071 49.4783C281.752 48.9755 281.082 48.6318 280.265 48.6318C278.881 48.6318 277.956 49.6629 277.956 50.9358C277.956 52.317 278.849 53.2399 280.24 53.2399C281.031 53.2399 281.739 52.9089 282.141 52.3234L281.554 51.6932Z" fill="#1D5E7E"/>
<path d="M45.0819 74C63.9049 74 79.1639 58.7777 79.1639 40C79.1639 21.2223 63.9049 6 45.0819 6C26.259 6 11 21.2223 11 40C11 58.7777 26.259 74 45.0819 74Z" fill="#438FAE"/>
<path d="M45.0819 74C63.9049 74 79.1639 58.7777 79.1639 40C79.1639 21.2223 63.9049 6 45.0819 6C26.259 6 11 21.2223 11 40C11 58.7777 26.259 74 45.0819 74Z" fill="url(#paint0_radial_2834_31405)"/>
<path d="M48.4981 70.3606C63.4194 70.3606 75.5156 58.2935 75.5156 43.408C75.5156 28.5224 63.4194 16.4553 48.4981 16.4553C33.5767 16.4553 21.4805 28.5224 21.4805 43.408C21.4805 58.2935 33.5767 70.3606 48.4981 70.3606Z" fill="url(#paint1_radial_2834_31405)"/>
<path d="M67.2918 18.5142C61.7776 14.9313 55.1996 12.8517 48.13 12.8517C30.9936 12.8517 16.7195 25.0656 13.5817 41.2396C13.5601 40.8571 13.5547 40.4746 13.5547 40.0866C13.5547 22.8836 27.5317 8.94019 44.7708 8.94019C53.6225 8.94019 61.6102 12.6146 67.2918 18.5142Z" fill="#72C5D5"/>
<path d="M72.8592 38.1119C75.1381 40.7118 75.8981 44.3229 75.0578 47.6733C71.6633 61.2086 59.3887 71.2334 44.7684 71.2334C29.6572 71.2334 17.052 60.5172 14.168 46.2829C16.6631 48.1686 26.8218 54.2298 45.3463 45.3669C62.3062 37.251 68.367 32.987 72.8592 38.1119Z" fill="#296289"/>
<path d="M63.4893 63.5447C63.4893 63.5447 70.55 57.7878 73.0608 49.8245C74.7617 44.4301 70.4997 38.9804 64.8411 39.3174C64.759 39.3223 64.6761 39.3279 64.5924 39.3343C56.227 39.9763 33.613 56.9419 17.25 49.9722C17.25 49.9722 18.7208 58.5467 28.2812 64.2096C28.2812 64.2096 22.1221 58.464 21.6625 54.2181C21.6625 54.2181 40.6627 57.9874 57.8978 48.7491C59.0531 48.1298 60.2794 47.6399 61.5673 47.3924C63.5521 47.0109 66.1543 47.0228 67.708 49.0575C67.8426 49.2338 67.9583 49.4275 68.0391 49.6339C69.707 53.8912 63.4893 63.5447 63.4893 63.5447Z" fill="#17395D"/>
<path d="M50.0067 11.0527C47.1799 11.2596 44.3697 11.5032 41.6213 12.024C38.8756 12.5463 36.1948 13.3345 33.6559 14.4683C31.103 15.5753 28.6908 16.9883 26.4266 18.6232C24.1623 20.2622 22.0587 22.1325 20.0078 24.0845C21.7233 21.8337 23.6945 19.7594 25.9123 17.9571C28.1229 16.1464 30.5963 14.6409 33.2211 13.4826C35.8521 12.3307 38.6522 11.5587 41.4886 11.1969C44.3253 10.8227 47.1834 10.814 50.0067 11.0527Z" fill="#5EB3C8"/>
<path d="M50.011 11.0721C47.1431 10.9883 44.2952 11.1182 41.5063 11.5779C38.7213 12.0424 35.996 12.8146 33.4221 13.9436C30.8406 15.0554 28.4194 16.5237 26.1815 18.2412C23.9447 19.9655 21.9077 21.955 20.0117 24.1032C21.5479 21.685 23.4548 19.4818 25.6478 17.5904C27.8356 15.6918 30.3244 14.1248 32.9907 12.9564C35.6648 11.8065 38.5087 11.0519 41.3927 10.748C44.2745 10.4348 47.1904 10.5444 50.011 11.0721Z" fill="#9FE5EF"/>
<g clip-path="url(#clip0_2834_31405)">
<g clip-path="url(#clip1_2834_31405)">
<path d="M46.2126 40.4169L59.6453 27.0164C60.1183 26.5446 60.1183 25.7797 59.6453 25.3079C59.1724 24.8362 58.4056 24.8362 57.9328 25.3079L44.5 38.7084L31.0673 25.3079C30.5943 24.8362 29.8276 24.8362 29.3547 25.3079C28.8818 25.7797 28.8818 26.5447 29.3547 27.0164L42.7874 40.4168L29.3547 53.8173C28.8818 54.2891 28.8818 55.054 29.3547 55.5258C29.5911 55.7616 29.9011 55.8795 30.211 55.8795C30.5209 55.8795 30.8308 55.7616 31.0673 55.5258L44.5 42.1253L57.9327 55.5258C58.1691 55.7616 58.4791 55.8795 58.789 55.8795C59.099 55.8795 59.4088 55.7616 59.6453 55.5258C60.1183 55.054 60.1183 54.289 59.6453 53.8173L46.2126 40.4169Z" fill="white"/>
</g>
</g>
</g>
<defs>
<filter id="filter0_d_2834_31405" x="0.738648" y="0.0592175" width="310.522" height="88.5227" filterUnits="userSpaceOnUse" color-interpolation-filters="sRGB">
<feFlood flood-opacity="0" result="BackgroundImageFix"/>
<feColorMatrix in="SourceAlpha" type="matrix" values="0 0 0 0 0 0 0 0 0 0 0 0 0 0 0 0 0 0 127 0" result="hardAlpha"/>
<feOffset dy="4.32057"/>
<feGaussianBlur stdDeviation="5.13068"/>
<feComposite in2="hardAlpha" operator="out"/>
<feColorMatrix type="matrix" values="0 0 0 0 0 0 0 0 0 0 0 0 0 0 0 0 0 0 0.2 0"/>
<feBlend mode="normal" in2="BackgroundImageFix" result="effect1_dropShadow_2834_31405"/>
<feBlend mode="normal" in="SourceGraphic" in2="effect1_dropShadow_2834_31405" result="shape"/>
</filter>
<radialGradient id="paint0_radial_2834_31405" cx="0" cy="0" r="1" gradientUnits="userSpaceOnUse" gradientTransform="translate(45.0819 40.4127) scale(34.0819 34)">
<stop offset="0.932961" stop-color="#438FAE"/>
<stop offset="0.965357" stop-color="#4490B0"/>
<stop offset="0.981361" stop-color="#4794B8"/>
<stop offset="0.993732" stop-color="#4C9CC5"/>
<stop offset="1" stop-color="#50A1CF"/>
</radialGradient>
<radialGradient id="paint1_radial_2834_31405" cx="0" cy="0" r="1" gradientUnits="userSpaceOnUse" gradientTransform="translate(48.4981 43.408) scale(27.0176 26.9526)">
<stop stop-color="#3584A6"/>
<stop offset="0.608809" stop-color="#3786A7"/>
<stop offset="0.909299" stop-color="#3F8CAC"/>
<stop offset="1" stop-color="#438FAE"/>
</radialGradient>
<clipPath id="clip0_2834_31405">
<rect width="32" height="31.9231" fill="white" transform="translate(29 23.9565)"/>
</clipPath>
<clipPath id="clip1_2834_31405">
<rect width="31" height="30.9255" fill="white" transform="translate(29 24.9541)"/>
</clipPath>
</defs>
</svg>
