<svg width="30" height="42" viewBox="0 0 30 42" fill="none" xmlns="http://www.w3.org/2000/svg">
<path d="M29.11 38.1038C28.8186 38.8599 28.2006 39.449 27.4361 39.7221C25.3685 40.4608 20.9386 41.8592 18.6069 41.2172C15.689 40.4188 8.91733 35.9387 4.40282 29.5685C3.39805 28.1507 2.60636 26.5918 2.03177 24.9528C-0.523982 17.6626 -0.302689 9.6835 0.710363 6.86398C1.5264 4.59041 5.22388 1.77835 7.01825 0.51659C7.68107 0.050512 8.51813 -0.115018 9.30492 0.0809051C16.2005 1.79802 15.7396 10.1647 15.7396 10.1647C13.4556 11.601 11.1667 13.037 8.88213 14.4732C8.64753 14.6207 8.56272 14.9198 8.68657 15.1673C9.31693 16.427 9.95026 17.6993 10.579 18.9758C11.1783 20.1959 11.7781 21.4048 12.3611 22.6186C13.0226 23.8082 13.684 25.0033 14.3451 26.204C15.0297 27.4534 15.7101 28.6981 16.3822 29.938C16.514 30.1813 16.808 30.2842 17.0637 30.1774C19.5549 29.1359 22.0464 28.0944 24.5428 27.0531C24.5428 27.0531 31.6612 31.4848 29.11 38.1038Z" fill="white"/>
</svg>
