<svg width="313" height="93" viewBox="0 0 313 93" fill="none" xmlns="http://www.w3.org/2000/svg">
<g filter="url(#filter0_d_2834_32731)">
<path d="M304 47.0917V36.9787C304 27.4481 296.467 19.6804 287.123 19.6804H61.8842C52.5397 19.6804 45.0127 27.4485 45.0127 36.9787V47.0917C45.0127 56.622 52.5397 64.39 61.8842 64.39H287.123C296.467 64.39 304 56.6224 304 47.0917Z" fill="white" stroke="#00A6CA" stroke-width="2"/>
<path d="M109.643 66.835H111.142L110.567 65.4509L91.8596 20.4808V18.4553V17.4553H90.8596H70.8662H69.8662V18.4553V65.835V66.835H70.8662H109.643Z" fill="#65B8D7" stroke="#00A6CA" stroke-width="2"/>
<path d="M47.0819 77C66.4549 77 82.1639 61.3322 82.1639 42C82.1639 22.6678 66.4549 7 47.0819 7C27.709 7 12 22.6678 12 42C12 61.3322 27.709 77 47.0819 77Z" fill="url(#paint0_radial_2834_32731)" stroke="#00A6CA" stroke-width="2"/>
<path d="M303 36.9787V47.0917C303 56.0948 295.89 63.39 287.123 63.39H61.8842C53.1168 63.39 46.0127 56.0948 46.0127 47.0917V36.9787C46.0127 27.9756 53.1168 20.6804 61.8842 20.6804H287.123C295.89 20.6804 303 27.9756 303 36.9787Z" fill="white"/>
<path d="M109.553 63.39H108.382L90.3701 20.6804H91.5421L109.553 63.39Z" fill="#F7F7F7"/>
<path d="M109.8 66.2133H70.8662V65.8352H109.643L109.8 66.2133Z" fill="#8ECAE8"/>
<path d="M109.643 65.835H70.8662V18.4553H90.8596V20.6805L109.643 65.835Z" fill="#65B8D7"/>
<path d="M104.417 60.0336C103.473 57.76 100.864 52.3156 96.7249 50.3151C94.6302 49.3009 92.5075 49.0947 92.5075 49.0947C91.6137 49.0055 90.0496 48.8718 88.2063 49.4959C87.7203 49.6631 86.6813 50.0587 85.458 50.9893C83.1845 52.728 82.2572 54.8066 81.4137 56.2666C80.4474 57.9327 78.8498 60.0726 76.04 62.2125C79.4307 57.2418 81.6539 51.4129 82.3075 45.1215H98.6521L104.417 60.0336Z" fill="#2F6EA0"/>
<path d="M106.35 65.044H73.9062C74.6603 64.1357 75.3754 63.1884 76.0401 62.2132C78.8498 60.0733 80.4474 57.9335 81.4138 56.2673C82.2573 54.8073 83.1845 52.7287 85.4581 50.99C86.6814 50.0594 87.7204 49.6638 88.2063 49.4966C90.0497 48.8725 91.6138 49.0062 92.5075 49.0954C92.5075 49.0954 94.6302 49.3016 96.725 50.3158C100.864 52.3163 103.473 57.7607 104.417 60.0343C104.428 60.0622 104.439 60.0956 104.45 60.1235C104.473 60.1792 104.495 60.2293 104.512 60.2739L104.763 60.9259C104.774 60.9482 104.78 60.9705 104.786 60.9872C104.797 61.0095 104.802 61.0318 104.808 61.0429L106.35 65.044Z" fill="#4993BC"/>
<path d="M93.251 29.1642C90.53 26.141 86.5768 24.8653 83.1434 25.9196C81.3858 26.4614 80.1304 27.4982 79.3187 28.3836C78.5479 26.5895 77.637 24.8594 76.6094 23.2167C78.9917 22.0226 85.3856 19.378 90.53 22.4304L93.251 29.1642Z" fill="#A0D9E9"/>
<path d="M90.5311 22.4302C85.3868 19.3778 78.9929 22.0224 76.6105 23.2166C75.8456 21.9816 75.0047 20.7875 74.1055 19.6458H89.8493L89.8596 20.7642L90.5311 22.4302Z" fill="#C4EDF5"/>
<path d="M110.694 61.3266L105.271 47.6635C105.271 47.6635 110.694 53.757 118.692 53.757C126.69 53.757 270.159 53.757 270.159 53.757C270.159 53.757 295.071 55.2974 295.071 42.5398C295.071 42.5398 298.184 53.8965 291.21 58.5756C291.21 58.5756 294.152 55.8246 293.876 50.5061C293.876 50.5061 292.037 56.3748 269.883 56.3748H194.793H119.703C119.703 56.3748 112.992 56.8333 108.764 52.6152L110.694 61.3266Z" fill="#F4F4F4"/>
<path d="M119.508 47.24C116.818 47.24 114.859 46.3299 113.63 44.5096L115.769 43.0662C116.592 44.1676 117.815 44.7183 119.438 44.7183C121.004 44.7183 121.786 44.2778 121.786 43.3966C121.786 42.5271 120.94 42.0923 119.247 42.0923H117.334V39.5706H119.143C119.456 39.5706 119.757 39.5474 120.047 39.501C120.349 39.4546 120.644 39.3445 120.934 39.1706C121.236 38.9851 121.386 38.7416 121.386 38.4402C121.386 38.1155 121.259 37.8547 121.004 37.6576C120.749 37.4489 120.47 37.3155 120.169 37.2576C119.879 37.1996 119.572 37.1706 119.247 37.1706C117.983 37.1706 116.952 37.617 116.152 38.5097L114.065 37.1011C115.259 35.4663 117.039 34.6489 119.404 34.6489C120.018 34.6489 120.592 34.7127 121.125 34.8402C121.659 34.9562 122.151 35.1475 122.604 35.4141C123.067 35.6692 123.433 36.0344 123.699 36.5098C123.966 36.9851 124.099 37.5474 124.099 38.1967C124.099 39.2517 123.682 40.0227 122.847 40.5097C123.949 40.9503 124.499 41.8604 124.499 43.2401C124.499 43.9241 124.354 44.5328 124.064 45.0661C123.786 45.5879 123.404 46.0053 122.917 46.3183C122.43 46.6197 121.896 46.8516 121.317 47.0139C120.749 47.1647 120.146 47.24 119.508 47.24Z" fill="#1D5E7E"/>
<path d="M127.535 47.0313H124.752L130.091 34.8576H132.091L137.43 47.0313H134.613L133.622 44.7705H128.526L127.535 47.0313ZM132.631 42.4923L131.065 38.8576L129.465 42.4923H132.631Z" fill="#1D5E7E"/>
<path d="M149.269 47.0313H146.573V37.3793H141.182V47.0313H138.486V34.8576H149.269V47.0313Z" fill="#1D5E7E"/>
<path d="M159.668 39.6054L153.738 47.0313H151.529V34.8576H154.225V42.3184L160.121 34.8576H162.364V47.0313H159.668V39.6054Z" fill="#1D5E7E"/>
<path d="M173.823 43.014L175.423 44.7357C174.902 45.5357 174.16 46.156 173.197 46.5966C172.247 47.0255 171.261 47.24 170.241 47.24C168.351 47.24 166.838 46.6545 165.702 45.4835C164.577 44.3125 164.015 42.7995 164.015 40.9445C164.015 39.1358 164.618 37.6344 165.824 36.4402C167.029 35.246 168.525 34.6489 170.31 34.6489C171.284 34.6489 172.229 34.846 173.145 35.2402C174.073 35.6344 174.768 36.2083 175.232 36.9619L173.406 38.6315C173.07 38.2141 172.635 37.8837 172.102 37.6402C171.58 37.3851 171.047 37.2576 170.502 37.2576C169.4 37.2576 168.508 37.5996 167.824 38.2836C167.151 38.9561 166.815 39.843 166.815 40.9445C166.815 42.0111 167.157 42.8923 167.841 43.5879C168.525 44.2835 169.4 44.6314 170.467 44.6314C171.847 44.6314 172.965 44.0922 173.823 43.014Z" fill="#1D5E7E"/>
<path d="M181.707 41.414H179.446V44.5096H181.654C183.254 44.5096 184.054 43.9821 184.054 42.927C184.054 41.9184 183.272 41.414 181.707 41.414ZM176.733 34.8576H179.446V38.8923H181.741C182.46 38.8923 183.109 38.9619 183.689 39.101C184.28 39.2286 184.82 39.443 185.307 39.7445C185.793 40.0343 186.17 40.4517 186.437 40.9966C186.715 41.53 186.854 42.1734 186.854 42.927C186.854 43.6691 186.709 44.3183 186.42 44.8748C186.141 45.4198 185.747 45.8429 185.237 46.1444C184.727 46.4458 184.17 46.6719 183.567 46.8226C182.976 46.9618 182.321 47.0313 181.602 47.0313H176.733V34.8576Z" fill="#1D5E7E"/>
<path d="M203.072 47.0313H200.377V42.1618H194.968V47.0313H192.273V34.8576H194.968V39.6401H200.377V34.8576H203.072V47.0313Z" fill="#1D5E7E"/>
<path d="M206.915 47.0313H204.133L209.472 34.8576H211.472L216.811 47.0313H213.994L213.002 44.7705H207.907L206.915 47.0313ZM212.011 42.4923L210.446 38.8576L208.846 42.4923H212.011Z" fill="#1D5E7E"/>
<path d="M232.759 47.0313H230.063V37.3793H224.672V47.0313H221.977V34.8576H232.759V47.0313Z" fill="#1D5E7E"/>
<path d="M237.715 43.2053V47.0313H235.02V34.8576H240.063C241.049 34.8576 241.912 34.9852 242.654 35.2402C243.397 35.4953 244.011 35.9475 244.498 36.5967C244.985 37.2344 245.228 38.0518 245.228 39.0489C245.228 40.0112 244.973 40.8169 244.463 41.4662C243.953 42.1039 243.321 42.556 242.568 42.8227C241.826 43.0778 240.991 43.2053 240.063 43.2053H237.715ZM240.133 37.3793H237.715V40.6836H240.028C241.628 40.6836 242.428 40.1329 242.428 39.0315C242.428 37.93 241.663 37.3793 240.133 37.3793Z" fill="#1D5E7E"/>
<path d="M254.928 39.6054L248.998 47.0313H246.789V34.8576H249.485V42.3184L255.381 34.8576H257.624V47.0313H254.928V39.6054Z" fill="#1D5E7E"/>
<path d="M269.344 47.0313H259.884V34.8576H269.188V37.3793H262.579V39.6401H268.753V42.0749H262.579V44.5096H269.344V47.0313Z" fill="#1D5E7E"/>
<path d="M273.873 47.0313H271.178V34.8576H273.682L277.577 40.6836L281.282 34.8576H283.716V47.0313H281.021V39.7271L277.856 44.5792H277.143L273.873 39.6749V47.0313Z" fill="#1D5E7E"/>
<path d="M213.428 55.1785H211.482V50.7125H213.479C213.968 50.7125 214.338 50.7933 214.589 50.9549C214.878 51.1634 215.023 51.4632 215.023 51.8545C215.023 52.2416 214.878 52.5606 214.589 52.8115C214.976 52.9944 215.17 53.3411 215.17 53.8515C215.17 54.1747 215.08 54.4406 214.902 54.649C214.727 54.8532 214.517 54.9935 214.27 55.0701C214.023 55.1424 213.743 55.1785 213.428 55.1785ZM213.377 53.3475H212.471V54.2534H213.326C213.432 54.2534 213.522 54.2492 213.594 54.2407C213.67 54.2322 213.756 54.2152 213.849 54.1896C213.943 54.1641 214.013 54.1173 214.06 54.0493C214.111 53.9812 214.136 53.8961 214.136 53.7941C214.136 53.692 214.113 53.609 214.066 53.5452C214.023 53.4814 213.96 53.4368 213.875 53.4113C213.79 53.3815 213.711 53.3645 213.639 53.3602C213.57 53.3517 213.483 53.3475 213.377 53.3475ZM213.313 51.6376H212.471V52.4543H213.396C213.553 52.4543 213.692 52.4266 213.811 52.3713C213.934 52.316 213.996 52.2182 213.996 52.0778C213.996 51.98 213.977 51.8992 213.938 51.8354C213.904 51.7716 213.849 51.7269 213.773 51.7014C213.7 51.6759 213.63 51.6589 213.562 51.6504C213.498 51.6419 213.415 51.6376 213.313 51.6376Z" fill="#1D5E7E"/>
<path d="M215.583 52.9455C215.583 52.299 215.806 51.7524 216.253 51.3058C216.704 50.8592 217.248 50.6359 217.886 50.6359C218.337 50.6359 218.754 50.7572 219.136 50.9996C219.524 51.242 219.804 51.5674 219.979 51.9757C220.115 52.3075 220.183 52.6308 220.183 52.9455C220.183 53.5878 219.96 54.1343 219.513 54.5852C219.066 55.0318 218.524 55.2551 217.886 55.2551C217.239 55.2551 216.693 55.0318 216.246 54.5852C215.804 54.1343 215.583 53.5878 215.583 52.9455ZM216.967 51.9885C216.729 52.2522 216.61 52.5712 216.61 52.9455C216.61 53.3198 216.731 53.6388 216.974 53.9025C217.216 54.1662 217.52 54.2981 217.886 54.2981C218.269 54.2981 218.575 54.1684 218.805 53.9089C219.039 53.6495 219.156 53.3283 219.156 52.9455C219.156 52.5755 219.034 52.2586 218.792 51.9949C218.55 51.7269 218.248 51.5929 217.886 51.5929C217.512 51.5929 217.205 51.7248 216.967 51.9885Z" fill="#1D5E7E"/>
<path d="M222.111 55.1785H220.791V50.7125H222.207C222.99 50.7125 223.613 50.8911 224.076 51.2484C224.544 51.6014 224.778 52.148 224.778 52.8881C224.778 53.2071 224.731 53.4963 224.638 53.7558C224.544 54.011 224.417 54.2258 224.255 54.4002C224.093 54.5746 223.898 54.7213 223.668 54.8404C223.442 54.9595 223.2 55.0467 222.941 55.102C222.681 55.153 222.405 55.1785 222.111 55.1785ZM222.194 51.6376H221.779V54.2534H222.194C223.236 54.2534 223.757 53.7983 223.757 52.8881C223.757 52.0544 223.236 51.6376 222.194 51.6376Z" fill="#1D5E7E"/>
<path d="M228.15 50.7125H229.292L227.48 53.5771V55.1785H226.491V53.5771L224.698 50.7125H225.879L227.002 52.4989L228.15 50.7125Z" fill="#1D5E7E"/>
<path d="M233.098 55.1785H231.152V50.7125H233.149C233.638 50.7125 234.008 50.7933 234.259 50.9549C234.548 51.1634 234.693 51.4632 234.693 51.8545C234.693 52.2416 234.548 52.5606 234.259 52.8115C234.646 52.9944 234.84 53.3411 234.84 53.8515C234.84 54.1747 234.75 54.4406 234.572 54.649C234.397 54.8532 234.187 54.9935 233.94 55.0701C233.693 55.1424 233.413 55.1785 233.098 55.1785ZM233.047 53.3475H232.141V54.2534H232.996C233.102 54.2534 233.191 54.2492 233.264 54.2407C233.34 54.2322 233.425 54.2152 233.519 54.1896C233.612 54.1641 233.683 54.1173 233.729 54.0493C233.78 53.9812 233.806 53.8961 233.806 53.7941C233.806 53.692 233.783 53.609 233.736 53.5452C233.693 53.4814 233.629 53.4368 233.544 53.4113C233.459 53.3815 233.381 53.3645 233.308 53.3602C233.24 53.3517 233.153 53.3475 233.047 53.3475ZM232.983 51.6376H232.141V52.4543H233.066C233.223 52.4543 233.362 52.4266 233.481 52.3713C233.604 52.316 233.666 52.2182 233.666 52.0778C233.666 51.98 233.646 51.8992 233.608 51.8354C233.574 51.7716 233.519 51.7269 233.442 51.7014C233.37 51.6759 233.3 51.6589 233.232 51.6504C233.168 51.6419 233.085 51.6376 232.983 51.6376Z" fill="#1D5E7E"/>
<path d="M236.056 55.1785H235.036L236.994 50.7125H237.728L239.687 55.1785H238.653L238.289 54.3491H236.42L236.056 55.1785ZM237.926 53.5133L237.352 52.1799L236.765 53.5133H237.926Z" fill="#1D5E7E"/>
<path d="M243.475 55.1785H240.074V50.7125H241.063V54.2534H243.475V55.1785Z" fill="#1D5E7E"/>
<path d="M244.536 55.1785H243.515L245.474 50.7125H246.208L248.167 55.1785H247.133L246.769 54.3491H244.9L244.536 55.1785ZM246.406 53.5133L245.831 52.1799L245.244 53.5133H246.406Z" fill="#1D5E7E"/>
<path d="M252.446 50.7125V55.1785H251.68L249.517 52.5308V55.1785H248.554V50.7125H249.313L251.482 53.3666V50.7125H252.446Z" fill="#1D5E7E"/>
<path d="M256.652 53.7047L257.239 54.3364C257.047 54.6299 256.775 54.8574 256.422 55.019C256.073 55.1764 255.712 55.2551 255.337 55.2551C254.644 55.2551 254.089 55.0403 253.672 54.6107C253.26 54.1811 253.053 53.6261 253.053 52.9455C253.053 52.282 253.274 51.7312 253.717 51.2931C254.159 50.855 254.708 50.6359 255.363 50.6359C255.72 50.6359 256.067 50.7082 256.403 50.8529C256.743 50.9975 256.998 51.208 257.168 51.4845L256.498 52.097C256.375 51.9438 256.216 51.8226 256.02 51.7333C255.829 51.6397 255.633 51.5929 255.433 51.5929C255.029 51.5929 254.701 51.7184 254.45 51.9694C254.204 52.2161 254.08 52.5414 254.08 52.9455C254.08 53.3368 254.206 53.6601 254.457 53.9153C254.708 54.1705 255.029 54.2981 255.42 54.2981C255.926 54.2981 256.337 54.1003 256.652 53.7047Z" fill="#1D5E7E"/>
<path d="M261.19 55.1785H257.719V50.7125H261.132V51.6376H258.708V52.467H260.973V53.3602H258.708V54.2534H261.19V55.1785Z" fill="#1D5E7E"/>
<path d="M266.745 53.7047L267.332 54.3364C267.141 54.6299 266.868 54.8574 266.515 55.019C266.167 55.1764 265.805 55.2551 265.431 55.2551C264.737 55.2551 264.182 55.0403 263.766 54.6107C263.353 54.1811 263.147 53.6261 263.147 52.9455C263.147 52.282 263.368 51.7312 263.81 51.2931C264.253 50.855 264.801 50.6359 265.456 50.6359C265.814 50.6359 266.16 50.7082 266.496 50.8529C266.837 50.9975 267.092 51.208 267.262 51.4845L266.592 52.097C266.469 51.9438 266.309 51.8226 266.113 51.7333C265.922 51.6397 265.726 51.5929 265.526 51.5929C265.122 51.5929 264.795 51.7184 264.544 51.9694C264.297 52.2161 264.174 52.5414 264.174 52.9455C264.174 53.3368 264.299 53.6601 264.55 53.9153C264.801 54.1705 265.122 54.2981 265.514 54.2981C266.02 54.2981 266.43 54.1003 266.745 53.7047Z" fill="#1D5E7E"/>
<path d="M271.213 55.1785H267.812V50.7125H268.801V54.2534H271.213V55.1785Z" fill="#1D5E7E"/>
<path d="M272.715 55.1785H271.726V50.7125H272.715V55.1785Z" fill="#1D5E7E"/>
<path d="M277.467 50.7125V55.1785H276.702L274.539 52.5308V55.1785H273.576V50.7125H274.335L276.504 53.3666V50.7125H277.467Z" fill="#1D5E7E"/>
<path d="M279.319 55.1785H278.33V50.7125H279.319V55.1785Z" fill="#1D5E7E"/>
<path d="M283.555 53.7047L284.142 54.3364C283.951 54.6299 283.678 54.8574 283.325 55.019C282.977 55.1764 282.615 55.2551 282.241 55.2551C281.547 55.2551 280.992 55.0403 280.576 54.6107C280.163 54.1811 279.957 53.6261 279.957 52.9455C279.957 52.282 280.178 51.7312 280.62 51.2931C281.063 50.855 281.611 50.6359 282.266 50.6359C282.624 50.6359 282.97 50.7082 283.306 50.8529C283.646 50.9975 283.902 51.208 284.072 51.4845L283.402 52.097C283.279 51.9438 283.119 51.8226 282.923 51.7333C282.732 51.6397 282.536 51.5929 282.336 51.5929C281.932 51.5929 281.605 51.7184 281.354 51.9694C281.107 52.2161 280.984 52.5414 280.984 52.9455C280.984 53.3368 281.109 53.6601 281.36 53.9153C281.611 54.1705 281.932 54.2981 282.324 54.2981C282.83 54.2981 283.24 54.1003 283.555 53.7047Z" fill="#1D5E7E"/>
<path d="M47.0819 76C65.9049 76 81.1639 60.7777 81.1639 42C81.1639 23.2223 65.9049 8 47.0819 8C28.259 8 13 23.2223 13 42C13 60.7777 28.259 76 47.0819 76Z" fill="#438FAE"/>
<path d="M47.0819 76C65.9049 76 81.1639 60.7777 81.1639 42C81.1639 23.2223 65.9049 8 47.0819 8C28.259 8 13 23.2223 13 42C13 60.7777 28.259 76 47.0819 76Z" fill="url(#paint1_radial_2834_32731)"/>
<path d="M50.4971 72.3606C65.4185 72.3606 77.5147 60.2935 77.5147 45.408C77.5147 30.5224 65.4185 18.4553 50.4971 18.4553C35.5757 18.4553 23.4795 30.5224 23.4795 45.408C23.4795 60.2935 35.5757 72.3606 50.4971 72.3606Z" fill="url(#paint2_radial_2834_32731)"/>
<path d="M69.2918 20.5139C63.7776 16.9311 57.1996 14.8514 50.13 14.8514C32.9936 14.8514 18.7195 27.0654 15.5817 43.2394C15.5601 42.8568 15.5547 42.4743 15.5547 42.0864C15.5547 24.8834 29.5317 10.9399 46.7708 10.9399C55.6225 10.9399 63.6102 14.6144 69.2918 20.5139Z" fill="#72C5D5"/>
<path d="M74.8592 40.1119C77.1381 42.7118 77.8981 46.3229 77.0578 49.6733C73.6633 63.2086 61.3887 73.2334 46.7684 73.2334C31.6572 73.2334 19.052 62.5172 16.168 48.2829C18.6631 50.1686 28.8218 56.2298 47.3463 47.3669C64.3062 39.251 70.367 34.987 74.8592 40.1119Z" fill="#296289"/>
<path d="M65.4893 65.5464C65.4893 65.5464 72.55 59.7892 75.0609 51.8253C76.7617 46.4305 72.4997 40.9805 66.8412 41.3175C66.759 41.3224 66.6761 41.328 66.5924 41.3344C58.2271 41.9764 35.613 58.9432 19.25 51.973C19.25 51.973 20.7208 60.5481 30.2813 66.2113C30.2813 66.2113 24.1221 60.4654 23.6625 56.2192C23.6625 56.2192 42.6627 59.9887 59.8978 50.7498C61.0531 50.1305 62.2795 49.6406 63.5673 49.3931C65.5522 49.0116 68.1544 49.0234 69.708 51.0583C69.8427 51.2346 69.9583 51.4283 70.0392 51.6347C71.707 55.8923 65.4893 65.5464 65.4893 65.5464Z" fill="#17395D"/>
<g style="mix-blend-mode:overlay">
<path d="M60.2887 59.772C59.9973 60.5281 59.3793 61.1172 58.6148 61.3903C56.5473 62.129 52.1173 63.5274 49.7856 62.8854C46.8677 62.0871 40.096 57.6069 35.5815 51.2367C34.5768 49.8189 33.7851 48.26 33.2105 46.621C30.6547 39.3309 30.876 31.3517 31.8891 28.5322C32.7051 26.2586 36.4026 23.4466 38.197 22.1848C38.8598 21.7187 39.6968 21.5532 40.4836 21.7491C47.3792 23.4662 46.9183 31.8329 46.9183 31.8329C44.6343 33.2692 42.3454 34.7052 40.0608 36.1414C39.8262 36.2889 39.7414 36.588 39.8653 36.8355C40.4956 38.0952 41.129 39.3675 41.7577 40.6441C42.357 41.8641 42.9568 43.0731 43.5398 44.2868C44.2013 45.4764 44.8627 46.6715 45.5238 47.8722C46.2084 49.1216 46.8888 50.3663 47.5609 51.6062C47.6928 51.8495 47.9868 51.9524 48.2424 51.8456C50.7336 50.8041 53.2251 49.7626 55.7215 48.7213C55.7215 48.7213 62.8399 53.153 60.2887 59.772Z" fill="#CCCCCC"/>
</g>
<path d="M52.0067 13.0535C49.1799 13.2605 46.3697 13.504 43.6213 14.0248C40.8756 14.5471 38.1948 15.3354 35.6559 16.4692C33.103 17.5761 30.6908 18.9892 28.4266 20.6241C26.1623 22.263 24.0587 24.1333 22.0078 26.0853C23.7233 23.8345 25.6945 21.7602 27.9123 19.9579C30.1229 18.1472 32.5963 16.6417 35.2211 15.4835C37.8521 14.3315 40.6522 13.5595 43.4886 13.1977C46.3253 12.8236 49.1834 12.8149 52.0067 13.0535Z" fill="#5EB3C8"/>
<path d="M52.0149 13.0714C49.147 12.9876 46.2991 13.1175 43.5102 13.5772C40.7252 14.0416 37.9999 14.8139 35.426 15.9429C32.8445 17.0547 30.4234 18.5229 28.1854 20.2405C25.9486 21.9647 23.9116 23.9543 22.0156 26.1025C23.5518 23.6842 25.4587 21.4811 27.6517 19.5897C29.8395 17.6911 32.3283 16.1241 34.9946 14.9557C37.6687 13.8058 40.5126 13.0512 43.3966 12.7473C46.2784 12.434 49.1943 12.5437 52.0149 13.0714Z" fill="#9FE5EF"/>
</g>
<defs>
<filter id="filter0_d_2834_32731" x="0.738648" y="0.0592175" width="314.522" height="92.5227" filterUnits="userSpaceOnUse" color-interpolation-filters="sRGB">
<feFlood flood-opacity="0" result="BackgroundImageFix"/>
<feColorMatrix in="SourceAlpha" type="matrix" values="0 0 0 0 0 0 0 0 0 0 0 0 0 0 0 0 0 0 127 0" result="hardAlpha"/>
<feOffset dy="4.32057"/>
<feGaussianBlur stdDeviation="5.13068"/>
<feComposite in2="hardAlpha" operator="out"/>
<feColorMatrix type="matrix" values="0 0 0 0 0 0 0 0 0 0 0 0 0 0 0 0 0 0 0.2 0"/>
<feBlend mode="normal" in2="BackgroundImageFix" result="effect1_dropShadow_2834_32731"/>
<feBlend mode="normal" in="SourceGraphic" in2="effect1_dropShadow_2834_32731" result="shape"/>
</filter>
<radialGradient id="paint0_radial_2834_32731" cx="0" cy="0" r="1" gradientUnits="userSpaceOnUse" gradientTransform="translate(47.0819 42.4127) scale(34.0819 34)">
<stop offset="0.932961" stop-color="#438FAE"/>
<stop offset="0.965357" stop-color="#4490B0"/>
<stop offset="0.981361" stop-color="#4794B8"/>
<stop offset="0.993732" stop-color="#4C9CC5"/>
<stop offset="1" stop-color="#50A1CF"/>
</radialGradient>
<radialGradient id="paint1_radial_2834_32731" cx="0" cy="0" r="1" gradientUnits="userSpaceOnUse" gradientTransform="translate(47.0819 42.4127) scale(34.0819 34)">
<stop offset="0.932961" stop-color="#438FAE"/>
<stop offset="0.965357" stop-color="#4490B0"/>
<stop offset="0.981361" stop-color="#4794B8"/>
<stop offset="0.993732" stop-color="#4C9CC5"/>
<stop offset="1" stop-color="#50A1CF"/>
</radialGradient>
<radialGradient id="paint2_radial_2834_32731" cx="0" cy="0" r="1" gradientUnits="userSpaceOnUse" gradientTransform="translate(50.4971 45.408) scale(27.0176 26.9526)">
<stop stop-color="#3584A6"/>
<stop offset="0.608809" stop-color="#3786A7"/>
<stop offset="0.909299" stop-color="#3F8CAC"/>
<stop offset="1" stop-color="#438FAE"/>
</radialGradient>
</defs>
</svg>
