<svg width="7387" height="1810" viewBox="0 0 7387 1810" fill="none" xmlns="http://www.w3.org/2000/svg">
<path d="M7336.74 778.36V1032.46C7336.74 1258.67 7158.11 1441.97 6937.83 1441.97H1278.51C1058.22 1441.97 879.725 1258.67 879.725 1032.46V778.36C879.725 552.15 1058.22 368.852 1278.51 368.852H6937.83C7158.11 368.852 7336.74 552.15 7336.74 778.36Z" fill="white"/>
<path fill-rule="evenodd" clip-rule="evenodd" d="M7386.99 778.36V1032.46C7386.99 1285.18 7187.09 1492.22 6937.83 1492.22H1278.51C1029.22 1492.22 829.472 1285.16 829.472 1032.46V778.36C829.472 525.662 1029.22 318.6 1278.51 318.6H6937.83C7187.09 318.6 7386.99 525.64 7386.99 778.36ZM7336.74 1032.46V778.36C7336.74 552.15 7158.11 368.852 6937.83 368.852H1278.51C1058.22 368.852 879.723 552.15 879.723 778.36V1032.46C879.723 1258.67 1058.22 1441.97 1278.51 1441.97H6937.83C7158.11 1441.97 7336.74 1258.67 7336.74 1032.46Z" fill="#00A6CA"/>
<path d="M2478.5 1503.4H1504.19V312.945H2006.54V368.853L2478.5 1503.4Z" fill="#65B8D7"/>
<path fill-rule="evenodd" clip-rule="evenodd" d="M2553.83 1553.65H1453.94V262.692H2056.79V358.817L2553.83 1553.65ZM2006.54 368.852V312.944H1504.19V1503.4H2478.5L2006.54 368.852Z" fill="#00A6CA"/>
<path d="M906.591 1758.81C1379.53 1758.81 1762.93 1376.34 1762.93 904.53C1762.93 432.725 1379.53 50.2515 906.591 50.2515C433.648 50.2515 50.2529 432.725 50.2529 904.53C50.2529 1376.34 433.648 1758.81 906.591 1758.81Z" fill="url(#paint0_radial_3522_25806)"/>
<path fill-rule="evenodd" clip-rule="evenodd" d="M1813.18 904.531C1813.18 1404.2 1407.17 1809.06 906.589 1809.06C406.008 1809.06 0 1404.2 0 904.531C0 404.858 406.008 0 906.589 0C1407.17 0 1813.18 404.858 1813.18 904.531ZM1762.93 904.531C1762.93 1376.34 1379.53 1758.81 906.589 1758.81C433.647 1758.81 50.2517 1376.34 50.2517 904.531C50.2517 432.725 433.647 50.2517 906.589 50.2517C1379.53 50.2517 1762.93 432.725 1762.93 904.531Z" fill="#00A6CA"/>
<path d="M7336.74 778.372V1032.47C7336.74 1258.68 7158.11 1441.98 6937.83 1441.98H1278.51C1058.22 1441.98 879.725 1258.68 879.725 1032.47V778.372C879.725 552.162 1058.22 368.864 1278.51 368.864H6937.83C7158.11 368.864 7336.74 552.162 7336.74 778.372Z" fill="white"/>
<path d="M2476.24 1441.98H2446.79L1994.24 368.864H2023.69L2476.24 1441.98Z" fill="#F7F7F7"/>
<path d="M2482.43 1512.9H1504.19V1503.4H2478.5L2482.43 1512.9Z" fill="#8ECAE8"/>
<path d="M2478.5 1503.4H1504.19V312.945H2006.54V368.853L2478.5 1503.4Z" fill="#65B8D7"/>
<path d="M2347.18 1357.64C2323.46 1300.52 2257.91 1163.72 2153.91 1113.46C2101.28 1087.97 2047.95 1082.79 2047.95 1082.79C2025.49 1080.55 1986.19 1077.19 1939.87 1092.87C1927.66 1097.07 1901.56 1107.02 1870.82 1130.4C1813.7 1174.08 1790.4 1226.31 1769.21 1262.99C1744.92 1304.86 1704.78 1358.62 1634.19 1412.39C1719.38 1287.5 1775.24 1141.04 1791.66 982.963H2202.33L2347.18 1357.64Z" fill="#2F6EA0"/>
<path d="M2395.74 1483.54H1580.57C1599.52 1460.72 1617.49 1436.91 1634.19 1412.41C1704.78 1358.64 1744.93 1304.88 1769.21 1263.01C1790.4 1226.33 1813.7 1174.1 1870.82 1130.42C1901.56 1107.04 1927.66 1097.1 1939.88 1092.9C1986.19 1077.21 2025.49 1080.57 2047.95 1082.81C2047.95 1082.81 2101.28 1088 2153.91 1113.48C2257.91 1163.74 2323.46 1300.54 2347.18 1357.66C2347.46 1358.36 2347.74 1359.2 2348.02 1359.9C2348.58 1361.3 2349.14 1362.56 2349.56 1363.68L2355.88 1380.07C2356.16 1380.63 2356.3 1381.19 2356.44 1381.61C2356.72 1382.17 2356.86 1382.73 2357 1383.01L2395.74 1483.54Z" fill="#4993BC"/>
<path d="M2066.63 582.021C1998.26 506.059 1898.93 474.006 1812.66 500.497C1768.5 514.109 1736.96 540.161 1716.57 562.408C1697.2 517.328 1674.31 473.859 1648.49 432.585C1708.35 402.581 1869 336.133 1998.26 412.827L2066.63 582.021Z" fill="#A0D9E9"/>
<path d="M1998.29 412.816C1869.03 336.122 1708.38 402.571 1648.52 432.575C1629.3 401.546 1608.17 371.542 1585.58 342.855H1981.16L1981.41 370.956L1998.29 412.816Z" fill="#C4EDF5"/>
<path d="M2504.9 1390.13L2368.63 1046.84C2368.63 1046.84 2504.9 1199.94 2705.85 1199.94C2906.8 1199.94 6511.58 1199.94 6511.58 1199.94C6511.58 1199.94 7137.52 1238.64 7137.52 918.1C7137.52 918.1 7215.75 1203.45 7040.51 1321.01C7040.51 1321.01 7114.42 1251.89 7107.49 1118.26C7107.49 1118.26 7061.3 1265.72 6504.65 1265.72H4617.95H2731.26C2731.26 1265.72 2562.65 1277.24 2456.4 1171.25L2504.9 1390.13Z" fill="#F4F4F4"/>
<path d="M5086.18 1235.65H5037.28V1123.44H5087.46C5099.75 1123.44 5109.05 1125.47 5115.35 1129.53C5122.62 1134.77 5126.25 1142.3 5126.25 1152.13C5126.25 1161.86 5122.62 1169.87 5115.35 1176.18C5125.08 1180.77 5129.94 1189.48 5129.94 1202.31C5129.94 1210.43 5127.7 1217.11 5123.21 1222.35C5118.82 1227.48 5113.53 1231 5107.34 1232.93C5101.14 1234.74 5094.08 1235.65 5086.18 1235.65ZM5084.89 1189.65H5062.13V1212.41H5083.61C5086.28 1212.41 5088.53 1212.3 5090.34 1212.09C5092.27 1211.87 5094.4 1211.45 5096.76 1210.81C5099.11 1210.16 5100.87 1208.99 5102.05 1207.28C5103.33 1205.57 5103.97 1203.43 5103.97 1200.87C5103.97 1198.3 5103.38 1196.22 5102.21 1194.61C5101.14 1193.01 5099.53 1191.89 5097.4 1191.25C5095.26 1190.5 5093.28 1190.07 5091.47 1189.97C5089.76 1189.75 5087.57 1189.65 5084.89 1189.65ZM5083.29 1146.68H5062.13V1167.2H5085.37C5089.33 1167.2 5092.8 1166.51 5095.79 1165.12C5098.89 1163.73 5100.44 1161.27 5100.44 1157.74C5100.44 1155.29 5099.96 1153.26 5099 1151.65C5098.15 1150.05 5096.76 1148.93 5094.83 1148.29C5093.02 1147.65 5091.25 1147.22 5089.54 1147C5087.94 1146.79 5085.86 1146.68 5083.29 1146.68Z" fill="#1D5E7E"/>
<path d="M5140.32 1179.55C5140.32 1163.3 5145.93 1149.57 5157.15 1138.35C5168.48 1127.13 5182.16 1121.52 5198.19 1121.52C5209.51 1121.52 5219.99 1124.56 5229.61 1130.65C5239.33 1136.74 5246.38 1144.92 5250.77 1155.18C5254.19 1163.52 5255.9 1171.64 5255.9 1179.55C5255.9 1195.68 5250.29 1209.42 5239.06 1220.74C5227.84 1231.97 5214.22 1237.58 5198.19 1237.58C5181.94 1237.58 5168.21 1231.97 5156.99 1220.74C5145.87 1209.42 5140.32 1195.68 5140.32 1179.55ZM5175.1 1155.5C5169.12 1162.13 5166.13 1170.14 5166.13 1179.55C5166.13 1188.95 5169.17 1196.97 5175.26 1203.59C5181.35 1210.22 5189 1213.53 5198.19 1213.53C5207.8 1213.53 5215.5 1210.27 5221.27 1203.75C5227.15 1197.23 5230.09 1189.16 5230.09 1179.55C5230.09 1170.25 5227.04 1162.29 5220.95 1155.66C5214.86 1148.93 5207.27 1145.56 5198.19 1145.56C5188.78 1145.56 5181.09 1148.87 5175.1 1155.5Z" fill="#1D5E7E"/>
<path d="M5304.35 1235.65H5271.17V1123.44H5306.75C5326.42 1123.44 5342.07 1127.93 5353.72 1136.9C5365.48 1145.78 5371.36 1159.51 5371.36 1178.1C5371.36 1186.12 5370.18 1193.39 5367.83 1199.9C5365.48 1206.32 5362.27 1211.71 5358.21 1216.1C5354.15 1220.48 5349.23 1224.16 5343.46 1227.16C5337.8 1230.15 5331.71 1232.34 5325.19 1233.73C5318.67 1235.01 5311.72 1235.65 5304.35 1235.65ZM5306.43 1146.68H5296.01V1212.41H5306.43C5332.62 1212.41 5345.71 1200.97 5345.71 1178.1C5345.71 1157.16 5332.62 1146.68 5306.43 1146.68Z" fill="#1D5E7E"/>
<path d="M5456.08 1123.44H5484.77L5439.24 1195.42V1235.65H5414.4V1195.42L5369.35 1123.44H5399.01L5427.22 1168.32L5456.08 1123.44Z" fill="#1D5E7E"/>
<path d="M5580.4 1235.65H5531.5V1123.44H5581.68C5593.97 1123.44 5603.27 1125.47 5609.57 1129.53C5616.84 1134.77 5620.47 1142.3 5620.47 1152.13C5620.47 1161.86 5616.84 1169.87 5609.57 1176.18C5619.3 1180.77 5624.16 1189.48 5624.16 1202.31C5624.16 1210.43 5621.92 1217.11 5617.43 1222.35C5613.05 1227.48 5607.76 1231 5601.56 1232.93C5595.36 1234.74 5588.31 1235.65 5580.4 1235.65ZM5579.11 1189.65H5556.35V1212.41H5577.83C5580.5 1212.41 5582.75 1212.3 5584.56 1212.09C5586.49 1211.87 5588.63 1211.45 5590.98 1210.81C5593.33 1210.16 5595.09 1208.99 5596.27 1207.28C5597.55 1205.57 5598.19 1203.43 5598.19 1200.87C5598.19 1198.3 5597.6 1196.22 5596.43 1194.61C5595.36 1193.01 5593.76 1191.89 5591.62 1191.25C5589.48 1190.5 5587.5 1190.07 5585.69 1189.97C5583.98 1189.75 5581.79 1189.65 5579.11 1189.65ZM5577.51 1146.68H5556.35V1167.2H5579.6C5583.55 1167.2 5587.02 1166.51 5590.02 1165.12C5593.11 1163.73 5594.66 1161.27 5594.66 1157.74C5594.66 1155.29 5594.18 1153.26 5593.22 1151.65C5592.37 1150.05 5590.98 1148.93 5589.05 1148.29C5587.24 1147.65 5585.47 1147.22 5583.76 1147C5582.16 1146.79 5580.08 1146.68 5577.51 1146.68Z" fill="#1D5E7E"/>
<path d="M5654.74 1235.65H5629.09L5678.3 1123.44H5696.74L5745.95 1235.65H5719.98L5710.84 1214.81H5663.87L5654.74 1235.65ZM5701.7 1193.81L5687.28 1160.31L5672.53 1193.81H5701.7Z" fill="#1D5E7E"/>
<path d="M5841.12 1235.65H5755.68V1123.44H5780.53V1212.41H5841.12V1235.65Z" fill="#1D5E7E"/>
<path d="M5867.8 1235.65H5842.15L5891.36 1123.44H5909.8L5959.01 1235.65H5933.04L5923.9 1214.81H5876.93L5867.8 1235.65ZM5914.77 1193.81L5900.34 1160.31L5885.59 1193.81H5914.77Z" fill="#1D5E7E"/>
<path d="M6066.53 1123.44V1235.65H6047.29L5992.95 1169.13V1235.65H5968.74V1123.44H5987.82L6042.32 1190.13V1123.44H6066.53Z" fill="#1D5E7E"/>
<path d="M6172.21 1198.62L6186.95 1214.49C6182.14 1221.87 6175.3 1227.58 6166.43 1231.64C6157.67 1235.6 6148.59 1237.58 6139.18 1237.58C6121.76 1237.58 6107.82 1232.18 6097.34 1221.39C6086.98 1210.59 6081.79 1196.65 6081.79 1179.55C6081.79 1162.87 6087.35 1149.03 6098.47 1138.03C6109.58 1127.02 6123.37 1121.52 6139.82 1121.52C6148.8 1121.52 6157.51 1123.33 6165.95 1126.97C6174.5 1130.6 6180.92 1135.89 6185.19 1142.84L6168.36 1158.23C6165.26 1154.38 6161.25 1151.33 6156.34 1149.09C6151.53 1146.74 6146.61 1145.56 6141.59 1145.56C6131.43 1145.56 6123.21 1148.71 6116.9 1155.02C6110.7 1161.22 6107.6 1169.39 6107.6 1179.55C6107.6 1189.38 6110.76 1197.5 6117.06 1203.91C6123.37 1210.32 6131.43 1213.53 6141.27 1213.53C6153.98 1213.53 6164.3 1208.56 6172.21 1198.62Z" fill="#1D5E7E"/>
<path d="M6286.23 1235.65H6199.02V1123.44H6284.79V1146.68H6223.87V1167.52H6280.78V1189.97H6223.87V1212.41H6286.23V1235.65Z" fill="#1D5E7E"/>
<path d="M6425.81 1198.62L6440.56 1214.49C6435.75 1221.87 6428.91 1227.58 6420.04 1231.64C6411.28 1235.6 6402.19 1237.58 6392.79 1237.58C6375.37 1237.58 6361.42 1232.18 6350.95 1221.39C6340.58 1210.59 6335.4 1196.65 6335.4 1179.55C6335.4 1162.87 6340.96 1149.03 6352.07 1138.03C6363.19 1127.02 6376.97 1121.52 6393.43 1121.52C6402.41 1121.52 6411.12 1123.33 6419.56 1126.97C6428.11 1130.6 6434.52 1135.89 6438.8 1142.84L6421.97 1158.23C6418.87 1154.38 6414.86 1151.33 6409.94 1149.09C6405.13 1146.74 6400.22 1145.56 6395.19 1145.56C6385.04 1145.56 6376.81 1148.71 6370.51 1155.02C6364.31 1161.22 6361.21 1169.39 6361.21 1179.55C6361.21 1189.38 6364.36 1197.5 6370.67 1203.91C6376.97 1210.32 6385.04 1213.53 6394.87 1213.53C6407.59 1213.53 6417.9 1208.56 6425.81 1198.62Z" fill="#1D5E7E"/>
<path d="M6538.07 1235.65H6452.63V1123.44H6477.48V1212.41H6538.07V1235.65Z" fill="#1D5E7E"/>
<path d="M6575.81 1235.65H6550.96V1123.44H6575.81V1235.65Z" fill="#1D5E7E"/>
<path d="M6695.22 1123.44V1235.65H6675.99L6621.64 1169.13V1235.65H6597.44V1123.44H6616.51L6671.02 1190.13V1123.44H6695.22Z" fill="#1D5E7E"/>
<path d="M6741.75 1235.65H6716.9V1123.44H6741.75V1235.65Z" fill="#1D5E7E"/>
<path d="M6848.18 1198.62L6862.93 1214.49C6858.12 1221.87 6851.28 1227.58 6842.41 1231.64C6833.64 1235.6 6824.56 1237.58 6815.15 1237.58C6797.73 1237.58 6783.79 1232.18 6773.32 1221.39C6762.95 1210.59 6757.77 1196.65 6757.77 1179.55C6757.77 1162.87 6763.32 1149.03 6774.44 1138.03C6785.55 1127.02 6799.34 1121.52 6815.8 1121.52C6824.77 1121.52 6833.48 1123.33 6841.93 1126.97C6850.48 1130.6 6856.89 1135.89 6861.16 1142.84L6844.33 1158.23C6841.23 1154.38 6837.22 1151.33 6832.31 1149.09C6827.5 1146.74 6822.58 1145.56 6817.56 1145.56C6807.41 1145.56 6799.18 1148.71 6792.87 1155.02C6786.67 1161.22 6783.57 1169.39 6783.57 1179.55C6783.57 1189.38 6786.73 1197.5 6793.03 1203.91C6799.34 1210.32 6807.41 1213.53 6817.24 1213.53C6829.96 1213.53 6840.27 1208.56 6848.18 1198.62Z" fill="#1D5E7E"/>
<path d="M906.591 1758.81C1379.53 1758.81 1762.93 1376.34 1762.93 904.53C1762.93 432.725 1379.53 50.2515 906.591 50.2515C433.648 50.2515 50.2529 432.725 50.2529 904.53C50.2529 1376.34 433.648 1758.81 906.591 1758.81Z" fill="#438FAE"/>
<path d="M906.591 1758.81C1379.53 1758.81 1762.93 1376.34 1762.93 904.53C1762.93 432.725 1379.53 50.2515 906.591 50.2515C433.648 50.2515 50.2529 432.725 50.2529 904.53C50.2529 1376.34 433.648 1758.81 906.591 1758.81Z" fill="url(#paint1_radial_3522_25806)"/>
<path d="M992.397 1667.36C1367.31 1667.36 1671.24 1364.16 1671.24 990.153C1671.24 616.141 1367.31 312.945 992.397 312.945C617.485 312.945 313.558 616.141 313.558 990.153C313.558 1364.16 617.485 1667.36 992.397 1667.36Z" fill="url(#paint2_radial_3522_25806)"/>
<path d="M1464.63 364.675C1326.08 274.653 1160.8 222.4 983.175 222.4C552.607 222.4 193.959 529.286 115.119 935.671C114.575 926.059 114.44 916.448 114.44 906.701C114.44 474.461 465.625 124.12 898.772 124.12C1121.18 124.12 1321.88 216.443 1464.63 364.675Z" fill="#72C5D5"/>
<path d="M1604.52 857.086C1661.78 922.408 1680.87 1013.14 1659.76 1097.32C1574.47 1437.41 1266.06 1689.29 898.712 1689.29C519.03 1689.29 202.312 1420.04 129.85 1062.39C192.542 1109.77 447.789 1262.06 913.232 1039.37C1339.36 835.454 1491.65 728.317 1604.52 857.086Z" fill="#296289"/>
<path d="M1369.09 1496.16C1369.09 1496.16 1546.5 1351.5 1609.58 1151.4C1652.32 1015.85 1545.23 878.918 1403.06 887.385C1400.99 887.508 1398.91 887.65 1396.81 887.812C1186.62 903.942 618.423 1330.25 207.288 1155.12C207.288 1155.12 244.244 1370.57 484.458 1512.86C484.458 1512.86 329.705 1368.49 318.156 1261.8C318.156 1261.8 795.552 1356.52 1228.6 1124.38C1257.63 1108.82 1288.44 1096.51 1320.8 1090.29C1370.67 1080.71 1436.05 1081 1475.09 1132.13C1478.47 1136.56 1481.38 1141.43 1483.41 1146.62C1525.31 1253.59 1369.09 1496.16 1369.09 1496.16Z" fill="#17395D"/>
<path d="M1030.33 177.236C959.302 182.436 888.695 188.555 819.639 201.641C750.65 214.764 683.292 234.57 619.502 263.057C555.358 290.87 494.75 326.374 437.859 367.452C380.967 408.632 328.112 455.625 276.581 504.671C319.684 448.118 369.212 395.999 424.936 350.715C480.478 305.22 542.626 267.392 608.577 238.291C674.682 209.347 745.038 189.949 816.305 180.859C887.578 171.458 959.39 171.239 1030.33 177.236Z" fill="#5EB3C8"/>
<path d="M1030.53 177.68C958.477 175.576 886.92 178.84 816.846 190.39C746.871 202.059 678.396 221.464 613.724 249.829C548.861 277.764 488.029 314.656 431.797 357.811C375.596 401.134 324.416 451.123 276.777 505.099C315.376 444.338 363.287 388.982 418.388 341.459C473.359 293.755 535.891 254.383 602.884 225.026C670.073 196.133 741.53 177.173 813.992 169.537C886.401 161.667 959.664 164.422 1030.53 177.68Z" fill="#9FE5EF"/>
<defs>
<radialGradient id="paint0_radial_3522_25806" cx="0" cy="0" r="1" gradientUnits="userSpaceOnUse" gradientTransform="translate(906.591 914.899) scale(856.338 854.279)">
<stop offset="0.932961" stop-color="#438FAE"/>
<stop offset="0.965357" stop-color="#4490B0"/>
<stop offset="0.981361" stop-color="#4794B8"/>
<stop offset="0.993732" stop-color="#4C9CC5"/>
<stop offset="1" stop-color="#50A1CF"/>
</radialGradient>
<radialGradient id="paint1_radial_3522_25806" cx="0" cy="0" r="1" gradientUnits="userSpaceOnUse" gradientTransform="translate(906.591 914.899) scale(856.338 854.279)">
<stop offset="0.932961" stop-color="#438FAE"/>
<stop offset="0.965357" stop-color="#4490B0"/>
<stop offset="0.981361" stop-color="#4794B8"/>
<stop offset="0.993732" stop-color="#4C9CC5"/>
<stop offset="1" stop-color="#50A1CF"/>
</radialGradient>
<radialGradient id="paint2_radial_3522_25806" cx="0" cy="0" r="1" gradientUnits="userSpaceOnUse" gradientTransform="translate(992.397 990.153) scale(678.84 677.208)">
<stop stop-color="#3584A6"/>
<stop offset="0.608809" stop-color="#3786A7"/>
<stop offset="0.909299" stop-color="#3F8CAC"/>
<stop offset="1" stop-color="#438FAE"/>
</radialGradient>
</defs>
</svg>
