<svg width="7817" height="2240" viewBox="0 0 7817 2240" fill="none" xmlns="http://www.w3.org/2000/svg">
<g filter="url(#filter0_f_3172_24972)">
<path fill-rule="evenodd" clip-rule="evenodd" d="M1121.59 215C1370.76 215 1596.5 315.31 1760.39 477.693H2271.79V533.6H7152.83C7402.1 533.6 7602 740.639 7602 993.359V1247.46C7602 1500.18 7402.1 1707.22 7152.83 1707.22H2743.27L2768.83 1768.65H1752.96C1589.7 1926.75 1367.01 2024.06 1121.59 2024.06C621.008 2024.06 215 1619.2 215 1119.53C215 619.858 621.008 215 1121.59 215Z" fill="black" fill-opacity="0.19"/>
</g>
<path d="M7551.74 831.36V1085.46C7551.74 1311.67 7373.11 1494.97 7152.83 1494.97H1493.51C1273.22 1494.97 1094.72 1311.67 1094.72 1085.46V831.36C1094.72 605.149 1273.22 421.852 1493.51 421.852H7152.83C7373.11 421.852 7551.74 605.149 7551.74 831.36Z" fill="white"/>
<path fill-rule="evenodd" clip-rule="evenodd" d="M7601.99 831.359V1085.46C7601.99 1338.18 7402.09 1545.22 7152.83 1545.22H1493.51C1244.22 1545.22 1044.47 1338.16 1044.47 1085.46V831.359C1044.47 578.661 1244.22 371.6 1493.51 371.6H7152.83C7402.09 371.6 7601.99 578.639 7601.99 831.359ZM7551.74 1085.46V831.359C7551.74 605.149 7373.11 421.851 7152.83 421.851H1493.51C1273.22 421.851 1094.72 605.149 1094.72 831.359V1085.46C1094.72 1311.67 1273.22 1494.97 1493.51 1494.97H7152.83C7373.11 1494.97 7551.74 1311.67 7551.74 1085.46Z" fill="#00A6CA"/>
<path d="M2693.5 1556.4H1719.19V365.944H2221.54V421.853L2693.5 1556.4Z" fill="#65B8D7"/>
<path fill-rule="evenodd" clip-rule="evenodd" d="M2768.83 1606.65H1668.94V315.692H2271.79V411.817L2768.83 1606.65ZM2221.54 421.852V365.944H1719.19V1556.4H2693.5L2221.54 421.852Z" fill="#00A6CA"/>
<path d="M1121.59 1811.81C1594.53 1811.81 1977.93 1429.34 1977.93 957.531C1977.93 485.726 1594.53 103.252 1121.59 103.252C648.648 103.252 265.253 485.726 265.253 957.531C265.253 1429.34 648.648 1811.81 1121.59 1811.81Z" fill="url(#paint0_radial_3172_24972)"/>
<path fill-rule="evenodd" clip-rule="evenodd" d="M2028.18 957.531C2028.18 1457.2 1622.17 1862.06 1121.59 1862.06C621.008 1862.06 215 1457.2 215 957.531C215 457.858 621.008 53 1121.59 53C1622.17 53 2028.18 457.858 2028.18 957.531ZM1977.93 957.531C1977.93 1429.34 1594.53 1811.81 1121.59 1811.81C648.647 1811.81 265.252 1429.34 265.252 957.531C265.252 485.725 648.647 103.252 1121.59 103.252C1594.53 103.252 1977.93 485.725 1977.93 957.531Z" fill="#00A6CA"/>
<path d="M7551.74 831.372V1085.47C7551.74 1311.68 7373.11 1494.98 7152.83 1494.98H1493.51C1273.22 1494.98 1094.72 1311.68 1094.72 1085.47V831.372C1094.72 605.162 1273.22 421.864 1493.51 421.864H7152.83C7373.11 421.864 7551.74 605.162 7551.74 831.372Z" fill="white"/>
<path d="M2691.24 1494.98H2661.79L2209.24 421.864H2238.69L2691.24 1494.98Z" fill="#F7F7F7"/>
<path d="M2697.43 1565.9H1719.19V1556.4H2693.5L2697.43 1565.9Z" fill="#8ECAE8"/>
<path d="M2693.5 1556.4H1719.19V365.944H2221.54V421.853L2693.5 1556.4Z" fill="#65B8D7"/>
<path d="M2562.18 1410.64C2538.46 1353.52 2472.91 1216.72 2368.91 1166.46C2316.28 1140.97 2262.95 1135.79 2262.95 1135.79C2240.49 1133.55 2201.19 1130.19 2154.87 1145.87C2142.66 1150.07 2116.56 1160.02 2085.82 1183.4C2028.7 1227.08 2005.4 1279.31 1984.21 1315.99C1959.92 1357.86 1919.78 1411.62 1849.19 1465.39C1934.38 1340.5 1990.24 1194.04 2006.66 1035.96H2417.33L2562.18 1410.64Z" fill="#2F6EA0"/>
<path d="M2610.74 1536.54H1795.57C1814.52 1513.72 1832.49 1489.91 1849.19 1465.41C1919.78 1411.64 1959.93 1357.88 1984.21 1316.01C2005.4 1279.33 2028.7 1227.1 2085.82 1183.42C2116.56 1160.04 2142.66 1150.1 2154.88 1145.9C2201.19 1130.21 2240.49 1133.57 2262.95 1135.81C2262.95 1135.81 2316.28 1141 2368.91 1166.48C2472.91 1216.74 2538.46 1353.54 2562.18 1410.66C2562.46 1411.36 2562.74 1412.2 2563.02 1412.9C2563.58 1414.3 2564.14 1415.56 2564.56 1416.68L2570.88 1433.07C2571.16 1433.63 2571.3 1434.19 2571.44 1434.61C2571.72 1435.17 2571.86 1435.73 2572 1436.01L2610.74 1536.54Z" fill="#4993BC"/>
<path d="M2281.63 635.021C2213.26 559.06 2113.93 527.006 2027.66 553.498C1983.5 567.109 1951.96 593.161 1931.57 615.408C1912.2 570.329 1889.31 526.86 1863.49 485.586C1923.35 455.582 2084 389.133 2213.26 465.827L2281.63 635.021Z" fill="#A0D9E9"/>
<path d="M2213.29 465.816C2084.03 389.122 1923.38 455.57 1863.52 485.574C1844.3 454.546 1823.17 424.542 1800.58 395.854H2196.16L2196.41 423.956L2213.29 465.816Z" fill="#C4EDF5"/>
<path d="M2719.9 1443.13L2583.63 1099.84C2583.63 1099.84 2719.9 1252.94 2920.85 1252.94C3121.8 1252.94 6726.58 1252.94 6726.58 1252.94C6726.58 1252.94 7352.52 1291.64 7352.52 971.1C7352.52 971.1 7430.75 1256.45 7255.51 1374.01C7255.51 1374.01 7329.42 1304.89 7322.49 1171.26C7322.49 1171.26 7276.3 1318.72 6719.65 1318.72H4832.95H2946.26C2946.26 1318.72 2777.65 1330.24 2671.4 1224.25L2719.9 1443.13Z" fill="#F4F4F4"/>
<path d="M2941.36 1089.19C2873.77 1089.19 2824.54 1066.32 2793.66 1020.59L2847.41 984.319C2868.09 1011.99 2898.83 1025.83 2939.61 1025.83C2978.94 1025.83 2998.6 1014.76 2998.6 992.621C2998.6 970.773 2977.33 959.849 2934.8 959.849H2886.74V896.489H2932.18C2940.05 896.489 2947.62 895.906 2954.9 894.741C2962.48 893.576 2969.91 890.808 2977.19 886.439C2984.76 881.778 2988.55 875.66 2988.55 868.086C2988.55 859.93 2985.34 853.375 2978.94 848.423C2972.53 843.179 2965.54 839.829 2957.96 838.373C2950.68 836.916 2942.96 836.188 2934.8 836.188C2903.05 836.188 2877.12 847.403 2857.02 869.834L2804.59 834.44C2834.59 793.365 2879.31 772.828 2938.74 772.828C2954.17 772.828 2968.59 774.43 2981.99 777.635C2995.39 780.548 3007.78 785.354 3019.14 792.055C3030.79 798.463 3039.97 807.64 3046.67 819.583C3053.37 831.527 3056.72 845.655 3056.72 861.969C3056.72 888.478 3046.23 907.85 3025.25 920.085C3052.93 931.155 3066.77 954.023 3066.77 988.688C3066.77 1005.88 3063.12 1021.17 3055.84 1034.57C3048.85 1047.68 3039.24 1058.17 3027 1066.03C3014.77 1073.61 3001.37 1079.43 2986.8 1083.51C2972.53 1087.3 2957.38 1089.19 2941.36 1089.19Z" fill="#1D5E7E"/>
<path d="M3143.04 1083.95H3073.13L3207.27 778.072H3257.52L3391.67 1083.95H3320.88L3295.98 1027.14H3167.95L3143.04 1083.95ZM3271.07 969.899L3231.74 878.573L3191.54 969.899H3271.07Z" fill="#1D5E7E"/>
<path d="M3689.12 1083.95H3621.39V841.431H3485.93V1083.95H3418.2V778.072H3689.12V1083.95Z" fill="#1D5E7E"/>
<path d="M3950.42 897.363L3801.41 1083.95H3745.92V778.072H3813.65V965.529L3961.78 778.072H4018.15V1083.95H3950.42V897.363Z" fill="#1D5E7E"/>
<path d="M4306.08 983.008L4346.28 1026.27C4333.17 1046.37 4314.53 1061.95 4290.35 1073.02C4266.46 1083.8 4241.7 1089.19 4216.06 1089.19C4168.58 1089.19 4130.56 1074.48 4102.02 1045.06C4073.76 1015.63 4059.63 977.619 4059.63 931.009C4059.63 885.565 4074.78 847.84 4105.07 817.835C4135.37 787.831 4172.95 772.828 4217.81 772.828C4242.28 772.828 4266.02 777.78 4289.04 787.685C4312.34 797.589 4329.82 812.009 4341.47 830.944L4295.59 872.893C4287.14 862.406 4276.22 854.103 4262.82 847.986C4249.71 841.577 4236.31 838.373 4222.62 838.373C4194.94 838.373 4172.51 846.966 4155.32 864.154C4138.43 881.05 4129.98 903.335 4129.98 931.009C4129.98 957.81 4138.57 979.949 4155.76 997.428C4172.95 1014.91 4194.94 1023.65 4221.74 1023.65C4256.41 1023.65 4284.52 1010.1 4306.08 983.008Z" fill="#1D5E7E"/>
<path d="M4504.15 942.807H4447.34V1020.59H4502.84C4543.04 1020.59 4563.14 1007.33 4563.14 980.823C4563.14 955.479 4543.48 942.807 4504.15 942.807ZM4379.18 778.072H4447.34V879.447H4505.02C4523.08 879.447 4539.4 881.195 4553.96 884.691C4568.82 887.895 4582.37 893.285 4594.6 900.859C4606.84 908.141 4616.3 918.628 4623 932.32C4629.99 945.72 4633.49 961.888 4633.49 980.823C4633.49 999.467 4629.85 1015.78 4622.57 1029.76C4615.57 1043.45 4605.67 1054.09 4592.85 1061.66C4580.03 1069.24 4566.05 1074.92 4550.9 1078.7C4536.05 1082.2 4519.59 1083.95 4501.53 1083.95H4379.18V778.072Z" fill="#1D5E7E"/>
<path d="M5040.98 1083.95H4973.25V961.597H4837.36V1083.95H4769.63V778.072H4837.36V898.237H4973.25V778.072H5040.98V1083.95Z" fill="#1D5E7E"/>
<path d="M5137.54 1083.95H5067.63L5201.78 778.072H5252.03L5386.17 1083.95H5315.39L5290.48 1027.14H5162.45L5137.54 1083.95ZM5265.57 969.899L5226.25 878.573L5186.04 969.899H5265.57Z" fill="#1D5E7E"/>
<path d="M5786.88 1083.95H5719.15V841.431H5583.7V1083.95H5515.97V778.072H5786.88V1083.95Z" fill="#1D5E7E"/>
<path d="M5911.42 987.814V1083.95H5843.69V778.072H5970.41C5995.17 778.072 6016.87 781.276 6035.52 787.685C6054.16 794.094 6069.6 805.455 6081.83 821.768C6094.07 837.79 6100.19 858.327 6100.19 883.38C6100.19 907.559 6093.78 927.805 6080.96 944.118C6068.14 960.14 6052.27 971.501 6033.33 978.201C6014.69 984.61 5993.71 987.814 5970.41 987.814H5911.42ZM5972.16 841.431H5911.42V924.455H5969.53C6009.74 924.455 6029.84 910.617 6029.84 882.943C6029.84 855.269 6010.61 841.431 5972.16 841.431Z" fill="#1D5E7E"/>
<path d="M6343.91 897.363L6194.9 1083.95H6139.41V778.072H6207.14V965.529L6355.27 778.072H6411.64V1083.95H6343.91V897.363Z" fill="#1D5E7E"/>
<path d="M6706.12 1083.95H6468.41V778.072H6702.19V841.431H6536.14V898.237H6691.26V959.412H6536.14V1020.59H6706.12V1083.95Z" fill="#1D5E7E"/>
<path d="M6819.91 1083.95H6752.18V778.072H6815.1L6912.98 924.455L7006.06 778.072H7067.23V1083.95H6999.5V900.422L6919.98 1022.33H6902.06L6819.91 899.111V1083.95Z" fill="#1D5E7E"/>
<path d="M5301.18 1288.65H5252.28V1176.44H5302.46C5314.75 1176.44 5324.05 1178.47 5330.35 1182.53C5337.62 1187.77 5341.25 1195.3 5341.25 1205.13C5341.25 1214.86 5337.62 1222.87 5330.35 1229.18C5340.08 1233.77 5344.94 1242.48 5344.94 1255.31C5344.94 1263.43 5342.69 1270.11 5338.21 1275.35C5333.82 1280.48 5328.53 1284 5322.34 1285.93C5316.14 1287.74 5309.08 1288.65 5301.18 1288.65ZM5299.89 1242.64H5277.13V1265.41H5298.61C5301.28 1265.41 5303.53 1265.3 5305.34 1265.09C5307.27 1264.87 5309.4 1264.45 5311.76 1263.8C5314.11 1263.16 5315.87 1261.99 5317.05 1260.28C5318.33 1258.57 5318.97 1256.43 5318.97 1253.87C5318.97 1251.3 5318.38 1249.22 5317.21 1247.61C5316.14 1246.01 5314.53 1244.89 5312.4 1244.25C5310.26 1243.5 5308.28 1243.07 5306.47 1242.97C5304.76 1242.75 5302.57 1242.64 5299.89 1242.64ZM5298.29 1199.68H5277.13V1220.2H5300.37C5304.33 1220.2 5307.8 1219.51 5310.79 1218.12C5313.89 1216.73 5315.44 1214.27 5315.44 1210.74C5315.44 1208.29 5314.96 1206.26 5314 1204.65C5313.15 1203.05 5311.76 1201.93 5309.83 1201.29C5308.02 1200.64 5306.25 1200.22 5304.54 1200C5302.94 1199.79 5300.86 1199.68 5298.29 1199.68Z" fill="#1D5E7E"/>
<path d="M5355.32 1232.55C5355.32 1216.3 5360.93 1202.57 5372.15 1191.35C5383.48 1180.13 5397.16 1174.52 5413.19 1174.52C5424.51 1174.52 5434.99 1177.56 5444.61 1183.65C5454.33 1189.74 5461.38 1197.92 5465.77 1208.18C5469.19 1216.52 5470.9 1224.64 5470.9 1232.55C5470.9 1248.68 5465.29 1262.42 5454.06 1273.74C5442.84 1284.97 5429.22 1290.58 5413.19 1290.58C5396.94 1290.58 5383.21 1284.97 5371.99 1273.74C5360.87 1262.42 5355.32 1248.68 5355.32 1232.55ZM5390.1 1208.5C5384.12 1215.13 5381.13 1223.14 5381.13 1232.55C5381.13 1241.95 5384.17 1249.97 5390.26 1256.59C5396.35 1263.22 5404 1266.53 5413.19 1266.53C5422.8 1266.53 5430.5 1263.27 5436.27 1256.75C5442.15 1250.23 5445.09 1242.16 5445.09 1232.55C5445.09 1223.25 5442.04 1215.29 5435.95 1208.66C5429.86 1201.93 5422.27 1198.56 5413.19 1198.56C5403.78 1198.56 5396.09 1201.87 5390.1 1208.5Z" fill="#1D5E7E"/>
<path d="M5519.35 1288.65H5486.17V1176.44H5521.75C5541.42 1176.44 5557.07 1180.93 5568.72 1189.9C5580.48 1198.77 5586.36 1212.51 5586.36 1231.1C5586.36 1239.12 5585.18 1246.39 5582.83 1252.9C5580.48 1259.32 5577.27 1264.71 5573.21 1269.1C5569.15 1273.48 5564.23 1277.16 5558.46 1280.16C5552.8 1283.15 5546.71 1285.34 5540.19 1286.73C5533.67 1288.01 5526.72 1288.65 5519.35 1288.65ZM5521.43 1199.68H5511.01V1265.41H5521.43C5547.62 1265.41 5560.71 1253.97 5560.71 1231.1C5560.71 1210.16 5547.62 1199.68 5521.43 1199.68Z" fill="#1D5E7E"/>
<path d="M5671.08 1176.44H5699.77L5654.24 1248.42V1288.65H5629.4V1248.42L5584.35 1176.44H5614.01L5642.22 1221.32L5671.08 1176.44Z" fill="#1D5E7E"/>
<path d="M5795.4 1288.65H5746.5V1176.44H5796.68C5808.97 1176.44 5818.27 1178.47 5824.57 1182.53C5831.84 1187.77 5835.47 1195.3 5835.47 1205.13C5835.47 1214.86 5831.84 1222.87 5824.57 1229.18C5834.3 1233.77 5839.16 1242.48 5839.16 1255.31C5839.16 1263.43 5836.92 1270.11 5832.43 1275.35C5828.05 1280.48 5822.76 1284 5816.56 1285.93C5810.36 1287.74 5803.3 1288.65 5795.4 1288.65ZM5794.11 1242.64H5771.35V1265.41H5792.83C5795.5 1265.41 5797.75 1265.3 5799.56 1265.09C5801.49 1264.87 5803.63 1264.45 5805.98 1263.8C5808.33 1263.16 5810.09 1261.99 5811.27 1260.28C5812.55 1258.57 5813.19 1256.43 5813.19 1253.87C5813.19 1251.3 5812.6 1249.22 5811.43 1247.61C5810.36 1246.01 5808.76 1244.89 5806.62 1244.25C5804.48 1243.5 5802.5 1243.07 5800.69 1242.97C5798.98 1242.75 5796.79 1242.64 5794.11 1242.64ZM5792.51 1199.68H5771.35V1220.2H5794.59C5798.55 1220.2 5802.02 1219.51 5805.01 1218.12C5808.11 1216.73 5809.66 1214.27 5809.66 1210.74C5809.66 1208.29 5809.18 1206.26 5808.22 1204.65C5807.37 1203.05 5805.98 1201.93 5804.05 1201.29C5802.24 1200.64 5800.47 1200.22 5798.76 1200C5797.16 1199.79 5795.08 1199.68 5792.51 1199.68Z" fill="#1D5E7E"/>
<path d="M5869.74 1288.65H5844.09L5893.3 1176.44H5911.74L5960.95 1288.65H5934.98L5925.84 1267.81H5878.87L5869.74 1288.65ZM5916.7 1246.81L5902.28 1213.31L5887.53 1246.81H5916.7Z" fill="#1D5E7E"/>
<path d="M6056.12 1288.65H5970.68V1176.44H5995.53V1265.41H6056.12V1288.65Z" fill="#1D5E7E"/>
<path d="M6082.8 1288.65H6057.15L6106.36 1176.44H6124.8L6174.01 1288.65H6148.04L6138.9 1267.81H6091.93L6082.8 1288.65ZM6129.77 1246.81L6115.34 1213.31L6100.59 1246.81H6129.77Z" fill="#1D5E7E"/>
<path d="M6281.53 1176.44V1288.65H6262.29L6207.95 1222.13V1288.65H6183.74V1176.44H6202.82L6257.32 1243.13V1176.44H6281.53Z" fill="#1D5E7E"/>
<path d="M6387.21 1251.62L6401.95 1267.49C6397.14 1274.87 6390.3 1280.58 6381.43 1284.64C6372.67 1288.6 6363.59 1290.58 6354.18 1290.58C6336.76 1290.58 6322.82 1285.18 6312.34 1274.39C6301.98 1263.59 6296.79 1249.64 6296.79 1232.55C6296.79 1215.87 6302.35 1202.03 6313.47 1191.03C6324.58 1180.02 6338.37 1174.52 6354.82 1174.52C6363.8 1174.52 6372.51 1176.33 6380.95 1179.97C6389.5 1183.6 6395.92 1188.89 6400.19 1195.84L6383.36 1211.23C6380.26 1207.38 6376.25 1204.33 6371.34 1202.09C6366.53 1199.74 6361.61 1198.56 6356.59 1198.56C6346.43 1198.56 6338.21 1201.71 6331.9 1208.02C6325.7 1214.22 6322.6 1222.39 6322.6 1232.55C6322.6 1242.38 6325.76 1250.5 6332.06 1256.91C6338.37 1263.32 6346.43 1266.53 6356.27 1266.53C6368.98 1266.53 6379.3 1261.56 6387.21 1251.62Z" fill="#1D5E7E"/>
<path d="M6501.23 1288.65H6414.02V1176.44H6499.79V1199.68H6438.87V1220.52H6495.78V1242.97H6438.87V1265.41H6501.23V1288.65Z" fill="#1D5E7E"/>
<path d="M6640.81 1251.62L6655.56 1267.49C6650.75 1274.87 6643.91 1280.58 6635.04 1284.64C6626.28 1288.6 6617.19 1290.58 6607.79 1290.58C6590.37 1290.58 6576.42 1285.18 6565.95 1274.39C6555.58 1263.59 6550.4 1249.64 6550.4 1232.55C6550.4 1215.87 6555.96 1202.03 6567.07 1191.03C6578.19 1180.02 6591.97 1174.52 6608.43 1174.52C6617.41 1174.52 6626.12 1176.33 6634.56 1179.97C6643.11 1183.6 6649.52 1188.89 6653.8 1195.84L6636.97 1211.23C6633.87 1207.38 6629.86 1204.33 6624.94 1202.09C6620.13 1199.74 6615.22 1198.56 6610.19 1198.56C6600.04 1198.56 6591.81 1201.71 6585.51 1208.02C6579.31 1214.22 6576.21 1222.39 6576.21 1232.55C6576.21 1242.38 6579.36 1250.5 6585.67 1256.91C6591.97 1263.32 6600.04 1266.53 6609.87 1266.53C6622.59 1266.53 6632.9 1261.56 6640.81 1251.62Z" fill="#1D5E7E"/>
<path d="M6753.07 1288.65H6667.63V1176.44H6692.48V1265.41H6753.07V1288.65Z" fill="#1D5E7E"/>
<path d="M6790.81 1288.65H6765.96V1176.44H6790.81V1288.65Z" fill="#1D5E7E"/>
<path d="M6910.22 1176.44V1288.65H6890.99L6836.64 1222.13V1288.65H6812.44V1176.44H6831.51L6886.02 1243.13V1176.44H6910.22Z" fill="#1D5E7E"/>
<path d="M6956.75 1288.65H6931.9V1176.44H6956.75V1288.65Z" fill="#1D5E7E"/>
<path d="M7063.18 1251.62L7077.93 1267.49C7073.12 1274.87 7066.28 1280.58 7057.41 1284.64C7048.64 1288.6 7039.56 1290.58 7030.15 1290.58C7012.73 1290.58 6998.79 1285.18 6988.32 1274.39C6977.95 1263.59 6972.77 1249.64 6972.77 1232.55C6972.77 1215.87 6978.32 1202.03 6989.44 1191.03C7000.55 1180.02 7014.34 1174.52 7030.8 1174.52C7039.77 1174.52 7048.48 1176.33 7056.93 1179.97C7065.48 1183.6 7071.89 1188.89 7076.16 1195.84L7059.33 1211.23C7056.23 1207.38 7052.22 1204.33 7047.31 1202.09C7042.5 1199.74 7037.58 1198.56 7032.56 1198.56C7022.41 1198.56 7014.18 1201.71 7007.87 1208.02C7001.67 1214.22 6998.57 1222.39 6998.57 1232.55C6998.57 1242.38 7001.73 1250.5 7008.03 1256.91C7014.34 1263.32 7022.41 1266.53 7032.24 1266.53C7044.96 1266.53 7055.27 1261.56 7063.18 1251.62Z" fill="#1D5E7E"/>
<path d="M1121.59 1811.81C1594.53 1811.81 1977.93 1429.34 1977.93 957.531C1977.93 485.726 1594.53 103.252 1121.59 103.252C648.648 103.252 265.253 485.726 265.253 957.531C265.253 1429.34 648.648 1811.81 1121.59 1811.81Z" fill="#438FAE"/>
<path d="M1121.59 1811.81C1594.53 1811.81 1977.93 1429.34 1977.93 957.531C1977.93 485.726 1594.53 103.252 1121.59 103.252C648.648 103.252 265.253 485.726 265.253 957.531C265.253 1429.34 648.648 1811.81 1121.59 1811.81Z" fill="url(#paint1_radial_3172_24972)"/>
<path d="M1207.4 1720.36C1582.31 1720.36 1886.24 1417.16 1886.24 1043.15C1886.24 669.141 1582.31 365.944 1207.4 365.944C832.485 365.944 528.558 669.141 528.558 1043.15C528.558 1417.16 832.485 1720.36 1207.4 1720.36Z" fill="url(#paint2_radial_3172_24972)"/>
<path d="M1679.63 417.675C1541.08 327.653 1375.8 275.4 1198.18 275.4C767.607 275.4 408.959 582.286 330.119 988.671C329.575 979.059 329.44 969.448 329.44 959.701C329.44 527.461 680.625 177.12 1113.77 177.12C1336.18 177.12 1536.88 269.443 1679.63 417.675Z" fill="#72C5D5"/>
<path d="M1819.52 910.086C1876.78 975.408 1895.87 1066.14 1874.76 1150.32C1789.47 1490.41 1481.06 1742.29 1113.71 1742.29C734.03 1742.29 417.312 1473.04 344.85 1115.39C407.542 1162.77 662.789 1315.06 1128.23 1092.37C1554.36 888.454 1706.65 781.317 1819.52 910.086Z" fill="#296289"/>
<path d="M1584.09 1549.16C1584.09 1549.16 1761.5 1404.5 1824.58 1204.4C1867.32 1068.85 1760.23 931.918 1618.06 940.385C1615.99 940.508 1613.91 940.65 1611.81 940.812C1401.62 956.942 833.423 1383.25 422.288 1208.12C422.288 1208.12 459.244 1423.57 699.458 1565.86C699.458 1565.86 544.705 1421.49 533.156 1314.8C533.156 1314.8 1010.55 1409.52 1443.6 1177.38C1472.63 1161.82 1503.44 1149.51 1535.8 1143.29C1585.67 1133.71 1651.05 1134 1690.09 1185.13C1693.47 1189.56 1696.38 1194.43 1698.41 1199.62C1740.31 1306.59 1584.09 1549.16 1584.09 1549.16Z" fill="#17395D"/>
<path d="M1245.33 230.235C1174.3 235.435 1103.69 241.554 1034.64 254.64C965.65 267.763 898.292 287.569 834.502 316.056C770.358 343.869 709.75 379.373 652.859 420.451C595.967 461.631 543.112 508.624 491.581 557.67C534.684 501.117 584.212 448.998 639.936 403.714C695.478 358.219 757.626 320.391 823.577 291.29C889.682 262.346 960.038 242.948 1031.3 233.858C1102.58 224.457 1174.39 224.238 1245.33 230.235Z" fill="#5EB3C8"/>
<path d="M1245.53 230.68C1173.48 228.575 1101.92 231.84 1031.85 243.39C961.871 255.059 893.396 274.463 828.724 302.829C763.861 330.764 703.029 367.656 646.797 410.81C590.596 454.134 539.416 504.122 491.777 558.098C530.376 497.338 578.287 441.982 633.388 394.458C688.359 346.755 750.891 307.382 817.884 278.026C885.073 249.133 956.53 230.173 1028.99 222.536C1101.4 214.667 1174.66 217.421 1245.53 230.68Z" fill="#9FE5EF"/>
<defs>
<filter id="filter0_f_3172_24972" x="0" y="0" width="7817" height="2239.06" filterUnits="userSpaceOnUse" color-interpolation-filters="sRGB">
<feFlood flood-opacity="0" result="BackgroundImageFix"/>
<feBlend mode="normal" in="SourceGraphic" in2="BackgroundImageFix" result="shape"/>
<feGaussianBlur stdDeviation="107.5" result="effect1_foregroundBlur_3172_24972"/>
</filter>
<radialGradient id="paint0_radial_3172_24972" cx="0" cy="0" r="1" gradientUnits="userSpaceOnUse" gradientTransform="translate(1121.59 967.9) scale(856.338 854.279)">
<stop offset="0.932961" stop-color="#438FAE"/>
<stop offset="0.965357" stop-color="#4490B0"/>
<stop offset="0.981361" stop-color="#4794B8"/>
<stop offset="0.993732" stop-color="#4C9CC5"/>
<stop offset="1" stop-color="#50A1CF"/>
</radialGradient>
<radialGradient id="paint1_radial_3172_24972" cx="0" cy="0" r="1" gradientUnits="userSpaceOnUse" gradientTransform="translate(1121.59 967.9) scale(856.338 854.279)">
<stop offset="0.932961" stop-color="#438FAE"/>
<stop offset="0.965357" stop-color="#4490B0"/>
<stop offset="0.981361" stop-color="#4794B8"/>
<stop offset="0.993732" stop-color="#4C9CC5"/>
<stop offset="1" stop-color="#50A1CF"/>
</radialGradient>
<radialGradient id="paint2_radial_3172_24972" cx="0" cy="0" r="1" gradientUnits="userSpaceOnUse" gradientTransform="translate(1207.4 1043.15) scale(678.84 677.208)">
<stop stop-color="#3584A6"/>
<stop offset="0.608809" stop-color="#3786A7"/>
<stop offset="0.909299" stop-color="#3F8CAC"/>
<stop offset="1" stop-color="#438FAE"/>
</radialGradient>
</defs>
</svg>
