<svg width="14" height="14" viewBox="0 0 14 14" fill="none" xmlns="http://www.w3.org/2000/svg">
<ellipse cx="7.20883" cy="6.99985" rx="5.38462" ry="5.38461" fill="white"/>
<path d="M7.00696 5.80085C7.67538 5.79842 8.20774 5.26148 8.2053 4.59162C8.20287 3.92149 7.66936 3.38827 7.00066 3.3877C6.32637 3.38698 5.78785 3.93008 5.79301 4.60623C5.79802 5.27365 6.33639 5.80329 7.00696 5.80085Z" fill="#00A6CA"/>
<path d="M7 0C3.13399 0 0 3.13414 0 7C0 10.8659 3.13399 14 7 14C10.866 14 14 10.8659 14 7C14 3.13414 10.866 0 7 0ZM7.01003 2.12872C8.3735 2.13244 9.46787 3.24771 9.46085 4.62623C9.45397 5.97295 8.34171 7.06445 6.98052 7.05987C5.63323 7.05528 4.52827 5.93829 4.53629 4.58885C4.54388 3.22466 5.64941 2.12499 7.01003 2.12872ZM9.77164 8.02862C9.47016 8.33813 9.10723 8.56213 8.7042 8.71838C8.32323 8.86605 7.90574 8.94038 7.4924 8.98993C7.55499 9.05782 7.58435 9.09119 7.6233 9.13015C8.18416 9.69402 8.74774 10.255 9.30674 10.8205C9.49723 11.0132 9.5369 11.2521 9.43206 11.476C9.31763 11.7209 9.06083 11.8819 8.8089 11.8646C8.64935 11.8535 8.52489 11.7743 8.41447 11.663C7.9911 11.2371 7.55971 10.8187 7.14523 10.3848C7.0242 10.2585 6.96634 10.2825 6.85964 10.3922C6.43384 10.8308 6.00102 11.2623 5.56577 11.6915C5.37027 11.8843 5.13768 11.9193 4.91081 11.809C4.66977 11.6924 4.51652 11.4462 4.52827 11.1986C4.53657 11.0316 4.61878 10.9035 4.73365 10.7892C5.28892 10.2351 5.84248 9.67926 6.39617 9.12385C6.43298 9.08704 6.46707 9.04794 6.52049 8.99065C5.76528 8.91173 5.08426 8.72583 4.5012 8.26995C4.42873 8.21324 4.35411 8.15853 4.28823 8.09494C4.03286 7.84988 4.00722 7.56902 4.20902 7.28C4.38189 7.03251 4.67177 6.96634 4.97326 7.10856C5.03169 7.13592 5.08726 7.17058 5.14054 7.20724C6.22703 7.95386 7.71969 7.97434 8.81048 7.24061C8.91847 7.15812 9.03405 7.09023 9.16796 7.056C9.42805 6.98897 9.67096 7.08479 9.81046 7.31251C9.97015 7.57275 9.96829 7.82654 9.77164 8.02862Z" fill="#00A6CA"/>
</svg>
