<svg width="6" height="10" viewBox="0 0 6 10" fill="none" xmlns="http://www.w3.org/2000/svg">
<path fill-rule="evenodd" clip-rule="evenodd" d="M5.52265 2.56855C5.52265 1.15071 4.40469 0 3.00981 0C1.60467 0 0.476456 1.13016 0.466199 2.52746C0.466199 3.91447 1.59441 5.06519 2.96878 5.06519C4.36366 5.06519 5.50213 3.9453 5.51239 2.56855H5.52265ZM4.74315 6.7707C5.15341 6.60632 5.5329 6.38028 5.8406 6.06178C6.04573 5.8563 6.04573 5.58917 5.88162 5.32204C5.73803 5.08573 5.49188 4.99327 5.22521 5.05491C5.09187 5.08573 4.9688 5.15765 4.85597 5.23985C3.73802 5.98986 2.2098 5.96932 1.09185 5.20902C1.04056 5.16793 0.979024 5.1371 0.917485 5.10628C0.60979 4.96244 0.312352 5.02409 0.137992 5.28094C-0.0671377 5.5789 -0.0466247 5.86657 0.220044 6.11315C0.271326 6.16453 0.332865 6.2159 0.394404 6.25699L0.43543 6.28782C1.03031 6.76043 1.72775 6.94537 2.50724 7.02756L2.45596 7.0892C2.45596 7.0892 2.40467 7.14058 2.38416 7.1714L2.13801 7.41798C1.65595 7.91114 1.16364 8.39403 0.671329 8.88719C0.558508 9.00021 0.466199 9.13377 0.455943 9.30843C0.445687 9.56529 0.599534 9.81187 0.845689 9.93516C1.08159 10.0482 1.31749 10.0174 1.51236 9.81187C1.96365 9.37008 2.40467 8.92829 2.83545 8.47622C2.94827 8.36321 2.99955 8.34266 3.13288 8.47622C3.42007 8.77418 3.7175 9.07213 4.01494 9.37008C4.15853 9.51392 4.30212 9.64748 4.43546 9.79132C4.54828 9.90434 4.67136 9.98653 4.83546 9.99681C5.09187 10.0174 5.35854 9.85297 5.47136 9.59611C5.57393 9.37008 5.54316 9.1235 5.33803 8.91801C4.97905 8.55842 4.63033 8.19882 4.27135 7.8495C4.05597 7.62346 3.83033 7.40771 3.61494 7.18167C3.58417 7.15085 3.56366 7.1303 3.52263 7.0892L3.48161 7.03783C3.90212 6.98646 4.33289 6.91454 4.72264 6.76043L4.74315 6.7707ZM2.99955 3.77064C3.68674 3.77064 4.23033 3.21583 4.23033 2.52746C4.23033 1.83908 3.67648 1.29455 2.99955 1.29455C2.31237 1.29455 1.75852 1.84936 1.75852 2.548C1.75852 3.23638 2.31237 3.78091 2.99955 3.77064Z" fill="white"/>
</svg>
