<svg xmlns="http://www.w3.org/2000/svg" viewBox="0 0 512 512"><defs><style>.cls-1{fill:#f0f0f0;}.cls-2{fill:none;}.cls-3{fill:#d80027;}.cls-4{fill:#0052b4;}</style></defs><title>eng</title><g id="Слой_2" data-name="Слой 2"><g id="Слой_1-2" data-name="Слой 1"><path class="cls-1" d="M512,256a256.46,256.46,0,0,1-4.5,48,254.7,254.7,0,0,1-37.67,92.82q-4.49,6.78-9.38,13.27A256.39,256.39,0,0,1,208,507.5a252.4,252.4,0,0,1-29.92-7.58A255.7,255.7,0,0,1,86.66,448q-6-5.3-11.68-11a258.91,258.91,0,0,1-23.43-26.93,256,256,0,0,1-39.47-76.18A252.24,252.24,0,0,1,4.5,304a258.25,258.25,0,0,1,0-96,252.24,252.24,0,0,1,7.58-29.91,255,255,0,0,1,30.09-62.91q4.5-6.78,9.38-13.27a257.14,257.14,0,0,1,48.7-49.09,255.11,255.11,0,0,1,77.84-40.74A252.24,252.24,0,0,1,208,4.5,255.62,255.62,0,0,1,425.34,64q6,5.3,11.68,11a256.29,256.29,0,0,1,42.19,55.6A254.16,254.16,0,0,1,507.5,208,256.46,256.46,0,0,1,512,256Z"/><path class="cls-2" d="M256,0a256.46,256.46,0,0,0-48,4.5,252.24,252.24,0,0,0-29.91,7.58A256.42,256.42,0,0,0,75,75a258.91,258.91,0,0,0-23.43,26.93q-4.89,6.48-9.38,13.27a255,255,0,0,0-30.09,62.91A252.24,252.24,0,0,0,4.5,208,256.46,256.46,0,0,0,0,256V0Z"/><path class="cls-2" d="M512,0V256a256.46,256.46,0,0,0-4.5-48,255.53,255.53,0,0,0-47.05-106.09A256.56,256.56,0,0,0,437,75q-5.67-5.67-11.68-11A255.08,255.08,0,0,0,256,0Z"/><path class="cls-2" d="M256,512H0V256a256.46,256.46,0,0,0,4.5,48,254.16,254.16,0,0,0,28.29,77.42,255.49,255.49,0,0,0,18.76,28.67A258.91,258.91,0,0,0,75,437q5.67,5.67,11.68,11a255.7,255.7,0,0,0,91.42,51.93A252.4,252.4,0,0,0,208,507.5,256.46,256.46,0,0,0,256,512Z"/><path class="cls-2" d="M512,256V512H256A256.2,256.2,0,0,0,460.45,410.09q4.89-6.48,9.38-13.27A255.28,255.28,0,0,0,512,256Z"/><path class="cls-3" d="M512,256a256.46,256.46,0,0,1-4.5,48H304V507.51a258.53,258.53,0,0,1-96,0V304H4.5a258.25,258.25,0,0,1,0-96H208V4.5a258.53,258.53,0,0,1,96,0V208H507.5A256.46,256.46,0,0,1,512,256Z"/><path class="cls-4" d="M499.92,333.91a254.6,254.6,0,0,1-30.09,62.91l-62.91-62.91Z"/><path class="cls-4" d="M460.45,410.09A256.56,256.56,0,0,1,437,437L333.91,333.91h50.36Z"/><path class="cls-4" d="M411.75,459.19a255.23,255.23,0,0,1-77.84,40.74V381.34Z"/><path class="cls-1" d="M460.45,410.09A256.56,256.56,0,0,1,437,437L333.91,333.91h50.36Z"/><path class="cls-3" d="M460.45,410.09A256.56,256.56,0,0,1,437,437L333.91,333.91h50.36Z"/><path class="cls-4" d="M80.3,333.91,32.79,381.42a253.18,253.18,0,0,1-20.71-47.51Z"/><path class="cls-4" d="M178.08,356.56V499.92A255.7,255.7,0,0,1,86.66,448Z"/><path class="cls-3" d="M178.08,333.92,75,437a258.91,258.91,0,0,1-23.43-26.93l76.17-76.17Z"/><path class="cls-4" d="M105.08,178.09h-93a255,255,0,0,1,30.09-62.91Z"/><path class="cls-4" d="M178.09,178.09H127.73L51.55,101.91A258.91,258.91,0,0,1,75,75Z"/><path class="cls-4" d="M178.09,12.08V130.66L100.25,52.82A255.11,255.11,0,0,1,178.09,12.08Z"/><path class="cls-1" d="M178.09,178.09H127.73L51.55,101.91A258.91,258.91,0,0,1,75,75Z"/><path class="cls-3" d="M178.09,178.09H127.73L51.55,101.91A258.91,258.91,0,0,1,75,75Z"/><path class="cls-4" d="M499.92,178.09H431.7l47.51-47.51A253.18,253.18,0,0,1,499.92,178.09Z"/><path class="cls-4" d="M425.34,64l-91.42,91.43V12.08A255.38,255.38,0,0,1,425.34,64Z"/><path class="cls-3" d="M460.45,101.91l-76.17,76.17H333.92L437,75A256.56,256.56,0,0,1,460.45,101.91Z"/><path class="cls-2" d="M512,256a256.46,256.46,0,0,1-4.5,48,254.7,254.7,0,0,1-37.67,92.82q-4.49,6.78-9.38,13.27A256.39,256.39,0,0,1,208,507.5a252.4,252.4,0,0,1-29.92-7.58A255.7,255.7,0,0,1,86.66,448q-6-5.3-11.68-11a258.91,258.91,0,0,1-23.43-26.93,256,256,0,0,1-39.47-76.18A252.24,252.24,0,0,1,4.5,304a258.25,258.25,0,0,1,0-96,252.24,252.24,0,0,1,7.58-29.91,255,255,0,0,1,30.09-62.91q4.5-6.78,9.38-13.27a257.14,257.14,0,0,1,48.7-49.09,255.11,255.11,0,0,1,77.84-40.74A252.24,252.24,0,0,1,208,4.5,255.62,255.62,0,0,1,425.34,64q6,5.3,11.68,11a256.29,256.29,0,0,1,42.19,55.6A254.16,254.16,0,0,1,507.5,208,256.46,256.46,0,0,1,512,256Z"/></g></g></svg>