<?xml version="1.0" encoding="utf-8"?>
<!-- Generator: Adobe Illustrator 22.0.1, SVG Export Plug-In . SVG Version: 6.00 Build 0)  -->
<svg version="1.1" id="Слой_1" xmlns="http://www.w3.org/2000/svg" xmlns:xlink="http://www.w3.org/1999/xlink" x="0px" y="0px"
	 viewBox="0 0 150.8 148.4" style="enable-background:new 0 0 150.8 148.4;" xml:space="preserve">
<style type="text/css">
	.st0{fill:#FFFFFF;stroke:#FFFFFF;stroke-width:4;stroke-miterlimit:10;}
</style>
<title>Ресурс 1img</title>
<g id="Слой_2_1_">
	<g id="Слой_1-2">
		<path class="st0" d="M133.6,85l-9.7,0.7l1.2-14.7l14.2-0.3L137.9,81C137.6,83.2,135.8,84.9,133.6,85L133.6,85z M52.8,90.9
			c-3.3,0.3-6.3-1.8-7.2-5l-4-13.2l16.2-0.4l3.3,17.9C61.1,90.3,52.8,90.9,52.8,90.9z M49.4,27.6l3.2,17.2L33,44l-5.6-18.5
			L49.4,27.6z M20,23.4L7.4,10.8C6.6,9.7,6.8,8.2,7.9,7.4c0.9-0.6,2.1-0.6,2.9,0L23.4,20c1,0.9,1,2.5,0.1,3.4c0,0,0,0-0.1,0.1
			C22.5,24.4,21,24.4,20,23.4C20.1,23.5,20,23.4,20,23.4L20,23.4z M103.9,67.2l0.4-16.3l18.1,0.7l-1.2,15.2
			C121.1,66.8,103.9,67.2,103.9,67.2z M100,50.8l-0.4,16.5l-17,0.4l-1-17.6L100,50.8L100,50.8z M104.7,32.6l19,1.7l-1,13l-18.3-0.7
			C104.4,46.6,104.7,32.6,104.7,32.6z M100.1,46.5l-18.9-0.7l-1-15.4l20.2,1.8L100.1,46.5L100.1,46.5z M76,30l1,15.6l-20-0.7
			L53.8,28L76,30z M57.8,49.2l19.5,0.7l1.1,17.8l-17,0.4L57.8,49.2z M34.2,48.4l19.2,0.7L57,68.2l-16.7,0.4L34.2,48.4z M65.4,90
			l-3.2-17.6l16.5-0.3l1,16.9L65.4,90L65.4,90z M83.9,88.7l-1-16.7l16.5-0.4l-0.4,16L83.9,88.7L83.9,88.7z M103.3,87.3l0.4-15.8
			l17.1-0.4l-1.2,15L103.3,87.3L103.3,87.3z M139.8,66.4l-14.4,0.3l1.2-15l15,0.6L139.8,66.4z M142.2,48L127,47.5l1-12.7l15.8,1.4
			L142.2,48z M147.8,32.9c-0.4-0.5-0.9-0.7-1.5-0.8l-118-10.7c-0.1-1.7-0.8-3.3-1.9-4.5L13.9,4.4c-2.6-2.6-6.9-2.6-9.5,0
			c-1.3,1.3-2,3-2,4.7c0,1.8,0.7,3.5,1.9,4.7L17,26.4c1.3,1.3,3,2,4.7,1.9c0.7,0,1.3-0.1,1.9-0.3l17.9,59.2c1.4,4.8,5.8,8,10.8,8
			c0.3,0,0.6,0,0.8,0l80.8-5.9c4.2-0.3,7.7-3.6,8.3-7.8l6.1-47C148.4,34,148.2,33.4,147.8,32.9L147.8,32.9z"/>
		<path class="st0" d="M130.3,137c0,2.6-2.1,4.7-4.7,4.7c-2.6,0-4.7-2.1-4.7-4.7c0-2.6,2.1-4.7,4.7-4.7l0,0
			C128.2,132.3,130.3,134.4,130.3,137z M52.7,137c0,2.6-2.1,4.7-4.7,4.7c-2.6,0-4.7-2.1-4.7-4.7c0-2.6,2.1-4.7,4.7-4.7l0,0
			C50.5,132.3,52.6,134.4,52.7,137L52.7,137z M132.5,123.2c1.2-0.1,2.1-1.1,2-2.3c-0.1-1.1-0.9-1.9-2-2h-89c-1.3,0-2.4-1.1-2.4-2.5
			c0-0.3,0.1-0.6,0.2-0.9l6-14.1c0.3-1.1-0.4-2.3-1.5-2.6c-0.9-0.3-1.9,0.1-2.4,1l-6,14.1c-1.5,3.4,0.1,7.3,3.5,8.8
			c0.8,0.4,1.7,0.5,2.6,0.5h2.3v5.1c-4.8,1.2-7.8,6-6.6,10.9c1.2,4.8,6,7.8,10.9,6.6c4.8-1.2,7.8-6,6.6-10.9
			c-0.8-3.3-3.3-5.8-6.6-6.6v-5.1h73.4v5.1c-4.8,1.2-7.8,6-6.6,10.9s6,7.8,10.9,6.6c4.8-1.2,7.8-6,6.6-10.9
			c-0.8-3.3-3.3-5.8-6.6-6.6v-5.1L132.5,123.2z"/>
	</g>
</g>
</svg>
