<?xml version="1.0" encoding="utf-8"?>
<!-- Generator: Adobe Illustrator 22.0.1, SVG Export Plug-In . SVG Version: 6.00 Build 0)  -->
<svg version="1.1" id="Слой_1" xmlns="http://www.w3.org/2000/svg" xmlns:xlink="http://www.w3.org/1999/xlink" x="0px" y="0px"
	 viewBox="0 0 149.6 142.6" style="enable-background:new 0 0 149.6 142.6;" xml:space="preserve">
<style type="text/css">
	.st0{fill:#FFFFFF;stroke:#FFFFFF;stroke-width:2.7682;stroke-miterlimit:10;}
</style>
<title>Ресурс 3img</title>
<g id="Слой_2_1_">
	<g id="Слой_1-2">
		<path class="st0" d="M140.9,74.5c0,3.6-3,6.5-6.7,6.5c0,0,0,0,0,0h-6.7V48.1c0-1.1-0.9-2-2.1-2c-1.1,0-2.1,0.9-2.1,2c0,0,0,0,0,0
			v41.2c0,3.6-3,6.5-6.7,6.5h-6.8V47c0-5.7-4.8-10.4-10.8-10.4H26.3v-4.4c0-3.6,3-6.4,6.7-6.4h83.5c3.7,0,6.7,2.9,6.7,6.5v6.5
			c0,1.1,0.9,2,2.1,2c1.1,0,2.1-0.9,2.1-2v-6.5c0-5.8-4.9-10.4-10.9-10.4H43.9v-4.3c0-3.6,3-6.5,6.7-6.5h83.6c3.7,0,6.7,2.9,6.7,6.5
			V74.5L140.9,74.5z M105.7,104c0,3.6-3,6.5-6.7,6.5l0,0H55c-0.5,0-0.9,0.2-1.3,0.5l-23,18.4v-16.9c0-1.1-0.9-2-2.1-2c0,0,0,0,0,0
			H15.5c-3.7,0-6.7-2.9-6.7-6.5l0,0v-57c0-3.6,3-6.5,6.7-6.5h0H99c3.7,0,6.7,2.9,6.7,6.5l0,0C105.7,47.1,105.7,104,105.7,104z
			 M134.2,7.1H50.6c-6,0-10.8,4.7-10.8,10.4v4.3H33c-6,0-10.8,4.7-10.9,10.4v4.4h-6.7c-6,0-10.8,4.7-10.9,10.4v57
			c0,5.8,4.9,10.4,10.9,10.4h11.1v19.1c0,1.1,1,2,2.1,2c0.5,0,0.9-0.2,1.3-0.4l25.8-20.7H99c6,0,10.8-4.7,10.8-10.4v-4.3h6.7
			c6,0,10.8-4.7,10.9-10.4v-4.3h6.7c6,0,10.8-4.7,10.8-10.4v-57C145,11.8,140.2,7.1,134.2,7.1z"/>
		<path class="st0" d="M30.8,59.6h17.6c1.1,0,2.1-0.9,2.1-2c0-1.1-0.9-2-2.1-2H30.8c-1.1,0-2.1,0.9-2.1,2
			C28.8,58.7,29.7,59.6,30.8,59.6L30.8,59.6z"/>
		<path class="st0" d="M57.2,59.6h13.2c1.1,0,2.1-0.9,2.1-2c0-1.1-0.9-2-2.1-2H57.2c-1.1,0-2.1,0.9-2.1,2
			C55.2,58.7,56.1,59.6,57.2,59.6z"/>
		<path class="st0" d="M30.8,76.5h28.6c1.1,0,2.1-0.9,2.1-2c0-1.1-0.9-2-2.1-2c0,0,0,0,0,0H30.8c-1.1,0-2.1,0.9-2.1,2
			C28.8,75.6,29.7,76.5,30.8,76.5C30.8,76.5,30.8,76.5,30.8,76.5z"/>
		<path class="st0" d="M94.6,72.5H70.4c-1.1,0-2.1,0.9-2.1,2c0,1.1,0.9,2,2.1,2h24.2c1.1,0,2.1-0.9,2.1-2S95.7,72.5,94.6,72.5
			C94.6,72.5,94.6,72.5,94.6,72.5z"/>
		<path class="st0" d="M30.8,87h17.6c1.1,0,2.1-0.9,2.1-2c0-1.1-0.9-2-2.1-2H30.8c-1.1,0-2.1,0.9-2.1,2C28.8,86.1,29.7,87,30.8,87
			C30.8,87,30.8,87,30.8,87z"/>
		<path class="st0" d="M94.6,83.1H57.2c-1.1,0-2.1,0.9-2.1,2c0,1.1,0.9,2,2.1,2c0,0,0,0,0,0h37.4c1.1,0,2.1-0.9,2.1-2
			S95.7,83.1,94.6,83.1C94.6,83.1,94.6,83.1,94.6,83.1z"/>
		<path class="st0" d="M70.4,93.6H30.9c-1.1-0.1-2.1,0.8-2.2,1.8c-0.1,1.1,0.8,2,1.9,2.1c0.1,0,0.2,0,0.3,0h39.5
			c1.1,0.1,2.1-0.8,2.2-1.8c0.1-1.1-0.8-2-1.9-2.1C70.6,93.6,70.5,93.6,70.4,93.6z"/>
	</g>
</g>
</svg>
