<svg xmlns="http://www.w3.org/2000/svg" viewBox="0 0 480 478.76"><defs><style>.cls-1{fill:#fff;}</style></defs><title>Ресурс 3imga</title><g id="Слой_2" data-name="Слой 2"><g id="Слой_1-2" data-name="Слой 1"><path class="cls-1" d="M424,478.76c-4.07-.72-8.22-1.17-12.21-2.21-21.52-5.62-35.63-19.16-40.87-40.75s1.23-39.79,17.57-54.48c2.79-2.52,3.41-4.49,2.36-8q-16.44-55.43-32.48-111c-1.24-4.32-3.18-5.69-7.56-5.75-15.31-.23-29-5.52-41-14.83-3.07-2.37-5.13-2.36-8.21-.21q-23.11,16.2-46.52,32c-3.34,2.24-3.6,4.23-2.31,7.77,19.58,54-15.14,112.83-71.92,122.09-50.93,8.3-99.47-27.8-105.64-79.11-4.3-35.77,8.7-64.55,37.24-86.28,3.3-2.52,3.78-4.34,2.28-8.14q-15.6-39.42-30.64-79.05c-1.38-3.62-2.93-4.81-7.19-4.63A72.94,72.94,0,0,1,1.21,83.49,44.34,44.34,0,0,0,0,78.76v-11C1.08,62.93,2,58,3.28,53.28,12.3,20.91,43.56-1.65,76.84.09a73,73,0,0,1,69,64.57c3,26.15-6.12,47.7-25.93,64.73-3,2.54-3.41,4.52-2,8q15.6,39.7,30.88,79.51c1.12,2.91,2.19,4.68,6,4.25q41.75-4.74,73.4,23.05a4.89,4.89,0,0,0,4.57.19c16.58-11.17,33-22.57,49.55-33.77,2.85-1.92,2.07-3.91,1.34-6.43-10.92-38,9.59-77.82,46.58-90.45,43.69-14.91,90.56,13.49,96.65,58.9,4,29.54-6.72,53.2-30.55,70.83-3.39,2.51-4.18,4.46-3,8.47q16.45,55.44,32.46,111c1,3.47,2.51,4.86,6.26,5.52,26.1,4.6,42.1,21,46.94,47.53a16.16,16.16,0,0,0,1.05,2.78v8a28.64,28.64,0,0,0-1.12,3.78c-3.44,23.17-19.44,40.69-42.26,46.1-3.51.84-7.08,1.42-10.62,2.12ZM221.57,312.3a55.56,55.56,0,0,0-55.16-55.46c-30.43-.09-55.67,25.15-55.63,55.62s25.36,55.63,55.79,55.46S221.6,342.76,221.57,312.3Zm132.54-92.17a36.84,36.84,0,1,0,.17-73.67c-20.56,0-37.39,16.75-37.17,37A36.9,36.9,0,0,0,354.11,220.13ZM73.67,36.66c-19.84-.09-36.73,16.7-36.74,36.54s16.87,36.67,36.7,36.61,36.23-16.55,36.47-36.32S93.57,36.75,73.67,36.66Zm332.11,386a18.63,18.63,0,1,0,19.13-18.2A18.66,18.66,0,0,0,405.78,422.7Z"/></g></g></svg>