<?xml version="1.0" encoding="utf-8"?>
<!-- Generator: Adobe Illustrator 22.0.1, SVG Export Plug-In . SVG Version: 6.00 Build 0)  -->
<svg version="1.1" id="Слой_1" xmlns="http://www.w3.org/2000/svg" xmlns:xlink="http://www.w3.org/1999/xlink" x="0px" y="0px"
	 viewBox="0 0 142.4 134.8" style="enable-background:new 0 0 142.4 134.8;" xml:space="preserve">
<style type="text/css">
	.st0{fill:#FFFFFF;}
</style>
<title>Ресурс 5img</title>
<g>
	<path class="st0" d="M3.6,115.7c0.2-0.8,0.3-1.5,0.5-2.3c0.9-4.4,3.2-7.9,6.7-10.6C23.5,92.9,36.2,83,48.9,73.1
		c0.8-0.6,1.7-1.3,2.7-2.1c1.7,1.8,3.4,3.5,4.9,5.1c3-3,5.9-5.9,8.7-8.7c-3.3-3.3-6.7-6.7-10.2-10.2c0.1-0.1-0.1,0-0.2,0.1
		c-8.4,5.9-16.9,5.3-25.3,0.1c-6.9-4.3-12-10.3-16.4-17.1c-4-6.2-7.2-12.9-8.6-20.2c-0.7-3.6-0.9-7.3,0.2-10.8
		C6.2,3.8,10.9,0.4,16.8,0c7-0.4,13.5,1.7,19.6,4.7c8.5,4.1,16,9.5,22.1,16.8c3.3,4,5.8,8.5,6.6,13.7c0.8,5.3-0.3,10.1-3.2,14.6
		c-0.3,0.5-0.7,1-0.9,1.4c3.5,3.5,6.9,6.9,10.2,10.2c3.7-3.7,7.4-7.4,11.5-11.5c-0.8-0.6-1.8-1.3-2.6-2.1c-5-5-5.1-12-0.1-17.1
		c10-10.1,20.1-20.2,30.2-30.3c0.2-0.2,0.4-0.3,0.6-0.5c1.8,1.8,3.5,3.5,5.3,5.4c-7.4,7.4-15,14.9-22.4,22.4c2.1,2,3.9,3.9,5.8,5.8
		c7.4-7.5,14.9-15,22.4-22.5c1.9,2,3.7,3.7,5.5,5.6c-7.4,7.4-14.9,14.9-22.3,22.3c1.9,1.9,3.8,3.8,5.6,5.6
		c7.3-7.3,14.8-14.8,22.3-22.3c2,2,3.7,3.8,5.5,5.6c-0.2,0.3-0.6,0.6-0.9,1c-9.7,9.7-19.5,19.5-29.2,29.2c-5.5,5.5-12.4,5.5-17.9,0
		c-0.7-0.7-1.4-1.5-2-2.1c-3.9,3.9-7.7,7.7-11.4,11.4C80,70.1,82.9,73,86,76c1.5-1.6,3.2-3.4,4.9-5.2c1.9,1.5,3.6,2.8,5.2,4
		c11.6,9,23.2,18.1,34.8,27.1c4.5,3.5,7.4,7.8,7.8,13.6c0,0.3,0.2,0.7,0.2,1c0,0.2,0,0.4,0,0.5c-0.1,0.6-0.2,1.2-0.3,1.8
		c-0.9,8.8-8.7,16.3-18.6,15.7c-5.6-0.3-10-2.8-13.5-7.3c-8.8-11.3-17.6-22.6-26.4-33.9c-1.7-2.1-3.3-4.3-5.3-6.8
		c1.8-1.7,3.6-3.4,5-4.8c-3-2.9-5.9-5.9-8.6-8.6c-2.8,2.7-5.7,5.6-8.9,8.7c1.8,1.6,3.5,3.3,5.3,4.9c-2.6,3.3-5,6.4-7.4,9.5
		c-8.2,10.5-16.3,21-24.5,31.4c-4.4,5.6-10.3,7.9-17.3,6.6c-7.2-1.4-11.8-5.8-13.9-12.9c-0.3-1.1-0.5-2.2-0.7-3.3
		C3.6,117.4,3.6,116.5,3.6,115.7z M11.3,15.1c0.2,1.5,0.4,3.2,0.8,4.9c1.9,7.8,5.7,14.6,10.6,20.9c3.4,4.4,7.3,8.4,12.3,11
		c2.7,1.4,5.5,2.3,8.6,1.9c5.5-0.7,9.2-4,12.1-8.5c2-3.1,2.5-6.4,1.6-10c-0.7-2.8-2-5.3-3.8-7.6c-6.8-8.6-15.6-14.5-25.8-18.2
		c-3.1-1.1-6.2-1.9-9.5-1.8c-3.6,0-5.7,1.5-6.4,4.4C11.6,12.9,11.5,13.9,11.3,15.1z M11.2,117c0.4,1.5,0.6,3,1.3,4.4
		c3.2,6.7,12.2,7.8,17,1.9c2.9-3.6,5.7-7.3,8.5-10.9c6.1-7.9,12.3-15.8,18.4-23.6c0.6-0.8,0.7-1.2-0.1-2c-1.6-1.5-3.2-3.1-4.7-4.7
		c-0.7-0.7-1.1-0.7-1.9-0.1c-1.3,1.1-2.7,2.1-4,3.2c-10,7.8-19.9,15.5-29.9,23.3C13.1,110.7,11.5,113.4,11.2,117z M121,127.1
		c0.4,0,1,0,1.6-0.2c4.2-0.9,6.9-3.4,8-7.5c1.1-4.2-0.3-7.7-3.6-10.5c-1.9-1.5-3.8-3-5.7-4.5c-9.5-7.4-19.1-14.9-28.6-22.3
		c-0.9-0.7-1.4-0.7-2.2,0.1c-1.4,1.6-2.9,3-4.5,4.5c-0.7,0.7-0.8,1.1-0.1,2c3.5,4.4,7,8.9,10.5,13.4c5.4,6.9,10.8,13.8,16.1,20.7
		C114.6,125.6,117.3,127.1,121,127.1z M104.8,50.7C99.1,45,93.5,39.4,88,33.8c-1,1-2.3,2-3.3,3.2c-1.2,1.4-1,3.6,0.4,5
		c3.8,3.9,7.6,7.7,11.5,11.5c1.5,1.5,3.8,1.4,5.4,0C103,52.6,103.9,51.6,104.8,50.7z"/>
</g>
</svg>
