<?xml version="1.0" encoding="utf-8"?>
<!-- Generator: Adobe Illustrator 22.0.1, SVG Export Plug-In . SVG Version: 6.00 Build 0)  -->
<svg version="1.1" id="Слой_1" xmlns="http://www.w3.org/2000/svg" xmlns:xlink="http://www.w3.org/1999/xlink" x="0px" y="0px"
	 viewBox="0 0 166.4 120.9" style="enable-background:new 0 0 166.4 120.9;" xml:space="preserve">
<style type="text/css">
	.st0{fill:#FFFFFF;stroke:#FFFFFF;stroke-width:3;stroke-miterlimit:10;}
</style>
<title>Ресурс 6img</title>
<g id="Слой_2_1_">
	<g id="Слой_1-2">
		<path class="st0" d="M13.8,101.4c0.4,0.3,0.9,0.4,1.4,0.4c0.3,0,0.7,0,1-0.2c22.9-8.6,44.5-8.6,66.1,0h0.1c0.1,0,0.2,0.1,0.3,0.1
			l0.3,0.1h0.6c0.1,0,0.2,0,0.3-0.1c0.1,0,0.2,0,0.3-0.1h0.1c21.6-8.6,43.2-8.6,66.1,0c0.3,0.1,0.6,0.2,1,0.2c0.5,0,1-0.1,1.4-0.4
			c0.7-0.4,1.1-1.2,1.1-2V14c0-0.9-0.6-1.8-1.5-2.2c-20.4-8.6-43.7-8.7-69.1-0.3c-25.5-8.4-48.7-8.3-69.1,0.3
			c-0.9,0.4-1.5,1.2-1.5,2.2v85.4C12.7,100.2,13.1,100.9,13.8,101.4z M148.7,15.6V96c-10.2-3.6-21-5.5-31.9-5.5
			c-10.6,0-21.1,1.9-31,5.5V15.7C109,8.2,130.2,8.2,148.7,15.6L148.7,15.6z M17.7,15.6c18.6-7.4,39.8-7.4,63,0.1v80.2
			c-20.4-7.3-41.6-7.3-63,0.1C17.7,96,17.7,15.6,17.7,15.6z"/>
		<path class="st0" d="M160.9,14.3c-1.4,0-2.5,1.1-2.5,2.4v89.5H96.9c-0.1,0-0.2,0-0.3,0.1c-0.7-0.1-1.4,0-2,0.4
			c-7.3,5.5-14.8,5.5-22.9-0.1c-0.1,0-0.2-0.1-0.3-0.1c-0.1-0.1-0.3-0.1-0.5-0.2s-0.3-0.1-0.5-0.1c-0.1,0-0.2,0-0.3-0.1H8V16.7
			c-0.1-1.3-1.3-2.3-2.7-2.2c-1.3,0.1-2.3,1-2.4,2.2v91.9c0,1.3,1.1,2.4,2.5,2.4h64.1c4.7,3.1,9.4,4.6,14,4.6S92.6,114,97,111h64
			c1.4,0,2.5-1.1,2.5-2.4l0,0V16.7C163.5,15.4,162.4,14.3,160.9,14.3C161,14.3,161,14.3,160.9,14.3L160.9,14.3z"/>
	</g>
</g>
</svg>
