<?xml version="1.0" encoding="utf-8"?>
<svg width="190" height="54" version="1.1" id="Слой_1" xmlns="http://www.w3.org/2000/svg" xmlns:xlink="http://www.w3.org/1999/xlink" x="0px" y="0px"
     viewBox="0 0 190 60" style="enable-background:new 0 0 190 60;" xml:space="preserve">
	<style type="text/css">
		.st0{fill:#00A29D;}
	</style>
    <g>
		<path class="st0" d="M17.3,24.1c1.2-1.3,2-3.1,2-5.1c0-2.7-1.5-5.1-3.6-6.3c0.3-0.2,0.6-0.4,0.9-0.7c0.8-0.9,1.3-2,1.3-3.4
			c0-4-3.1-7.2-6.8-7.2H0v24.8h12.5C14.4,26.2,16.1,25.4,17.3,24.1z M4.6,5.5h6c1.5,0,2.7,1.3,2.7,2.8c0,0.8-0.3,1.5-0.8,2
			c-0.5,0.5-1.1,0.8-1.9,0.8h-6V5.5z M4.6,22.1v-6.5h7.3c1.7,0,3.1,1.5,3.1,3.3c0,0.9-0.3,1.7-0.9,2.3c-0.6,0.6-1.3,1-2.2,1H4.6z"/>
        <path class="st0" d="M17.2,42.1c1.5-1.2,2.5-3.1,2.5-5.2v-0.3c0-4-3.1-7.2-6.8-7.2H0v28.3h12.9c4.4,0,8-3.8,8-8.4v-0.7
			C20.9,45.8,19.4,43.3,17.2,42.1z M6.5,35.6h4.9c1,0,1.9,0.9,1.9,2c0,0.6-0.2,1.1-0.6,1.4c-0.3,0.4-0.8,0.6-1.3,0.6H6.5V35.6z
			 M13.9,50.4c-0.4,0.5-1,0.7-1.7,0.7H6.5V46h5.7c1.3,0,2.4,1.1,2.4,2.5C14.6,49.3,14.3,49.9,13.9,50.4z"/>
        <path class="st0" d="M70.8,14.1v-0.7c0-6.7-5.1-12-11.4-12h-8.8v24.8h8.8C65.7,26.2,70.8,20.8,70.8,14.1z M54.8,21.9V5.7h4.3
			c4.2,0,7.6,3.6,7.6,8.1c0,2.2-0.9,4.2-2.2,5.7c-1.4,1.5-3.3,2.4-5.4,2.4H54.8z"/>
        <path class="st0" d="M34.7,26.8C41.5,26.8,47,21,47,13.9C47,6.8,41.5,1,34.7,1C28,1,22.5,6.8,22.5,13.9C22.5,21,28,26.8,34.7,26.8z
			 M34.7,5.5c4.4,0,7.9,3.7,7.9,8.3c0,4.6-3.5,8.3-7.9,8.3s-7.9-3.7-7.9-8.3C26.8,9.3,30.4,5.5,34.7,5.5z"/>
        <polygon class="st0" points="81.5,26.5 85.7,26.5 85.7,16.3 94.7,1.4 89.8,1.4 83.6,11.6 77.5,1.4 72.6,1.4 81.5,16.3 	"/>
        <path class="st0" d="M32.2,29.2L21.5,57.7h7.2l1.5-4.1h9l1.5,4.1h7.6L37.3,29.2H32.2z M32.5,47.1l2.4-6.7l2,6.7H32.5z"/>
        <path class="st0" d="M81.1,29.2L70.5,57.7h7.2l1.5-4.1h9l1.5,4.1h7.6L86.3,29.2H81.1z M81.5,47.1l2.4-6.7l2,6.7H81.5z"/>
        <polygon class="st0" points="57.4,29.5 50.6,29.5 50.6,57.7 68.5,57.7 68.5,50.9 57.4,50.9 	"/>
        <path class="st0" d="M136.2,51.5c-4.2,0-7.5-3.5-7.5-7.9c0-4.4,3.4-7.9,7.5-7.9c3.3,0,6.2,2.3,7.1,5.4h6.6
			c-1.1-7-6.9-12.2-13.8-12.2c-7.7,0-14,6.6-14,14.7c0,8.1,6.3,14.7,14,14.7c7,0,12.8-5.4,13.8-12.5h-6.6
			C142.5,49.1,139.7,51.5,136.2,51.5z"/>
        <polygon class="st0" points="113.3,43.6 103.8,29.4 98.8,29.4 98.8,57.7 105.4,57.7 105.4,44 114.5,57.7 119.7,57.7 119.7,29.4
			113.3,29.4 	"/>
        <polygon class="st0" points="152.8,57.7 170.4,57.7 170.4,51 159.2,51 159.2,46.9 170.4,46.9 170.4,40.1 159.2,40.1 159.2,36.1
			170.4,36.1 170.4,29.4 152.8,29.4 	"/>
        <polygon class="st0" points="185.1,40.6 185.1,35.5 179.6,35.5 179.6,40.6 174.7,40.6 174.7,46.4 179.6,46.4 179.6,51.5
			185.1,51.5 185.1,46.4 190,46.4 190,40.6 	"/>
        <path class="st0" d="M148.3,11.2c-8.5-0.1-26.2-0.4-27.5-0.6c-0.5-0.1-1.5-0.2-1.5-0.2c-0.2,0-1.1-0.2-1.3-0.2l-0.2,0
			c-1.6-0.3-3.1-1-4.6-1.8c-0.9-0.6-2-0.9-3.1-0.9c-3.2,0-5.8,2.7-5.8,6.1s2.6,6.1,5.8,6.1c1.1,0,2.2-0.3,3.1-0.9
			c1.4-0.9,3-1.5,4.6-1.8l0.2,0c0.2,0,1.1-0.2,1.3-0.2c0,0,0.9-0.2,1.5-0.2c1.3-0.2,19-0.5,27.5-0.6V11.2z"/>
        <polygon class="st0" points="149.7,15.6 151.7,15.6 151.7,11.2 149.7,11.2 	"/>
        <polygon class="st0" points="155,11.3 153.1,11.2 153.1,15.6 155,15.5 	"/>
        <path class="st0" d="M168.6,11.4l-12.2-0.2v4.2l12.2-0.2c1,0,1.8-0.9,1.8-2S169.6,11.4,168.6,11.4z"/>
	</g>
</svg>
