<?xml version="1.0" encoding="utf-8"?>
<!-- Generator: Adobe Illustrator 22.0.1, SVG Export Plug-In . SVG Version: 6.00 Build 0)  -->
<svg version="1.1" id="Слой_1" xmlns="http://www.w3.org/2000/svg" xmlns:xlink="http://www.w3.org/1999/xlink" x="0px" y="0px"
	 viewBox="0 0 227.3 227.3" style="enable-background:new 0 0 227.3 227.3;" xml:space="preserve">
<style type="text/css">
	.st0{fill:#FFFFFF;}
</style>
<title>Ресурс 1img</title>
<g>
	<path class="st0" d="M112.7,136.3c-24.6,0.5-38.9,20.6-40.3,35.2c27.5,0,55,0,82.5,0C153.1,155.5,137.6,135.8,112.7,136.3z"/>
	<path class="st0" d="M113.6,0C50.9,0,0,50.9,0,113.6s50.9,113.6,113.6,113.6s113.6-50.9,113.6-113.6S176.4,0,113.6,0z M113.6,42.3
		c18.6,0,33.7,15.1,33.6,33.7c0,18.5-15.2,33.5-33.6,33.5c-18.5,0-33.5-15.1-33.5-33.6C80.1,57.4,95.1,42.3,113.6,42.3z M169,185
		c-36.9,0-73.7,0-110.6,0c-1.3-21.7,6-39.6,24-52.3C93,125.1,105,122,118,123.1c24.9,2.1,44.9,19.8,49.9,44.2
		C169.2,173.1,169.2,179.1,169,185z"/>
	<path class="st0" d="M113.5,96c11.1,0.1,20.3-9,20.3-20.1c0-11-9.1-20.2-20.1-20.2c-11.1,0-20.2,9-20.2,20.1
		C93.4,86.8,102.5,95.9,113.5,96z"/>
</g>
</svg>
