<svg width="30" height="30" viewBox="0 0 30 30" fill="none" xmlns="http://www.w3.org/2000/svg">
<path d="M15.0003 12.3677C13.5379 12.3677 12.3262 13.5794 12.3262 15.0418C12.3262 16.5042 13.5379 17.7159 15.0003 17.7159C16.4627 17.7159 17.6744 16.5042 17.6744 15.0418C17.6744 13.5794 16.5044 12.3677 15.0003 12.3677Z" fill="#00A29D"/>
<path d="M19.471 7.98047H10.5295C9.10888 7.98047 7.93896 9.15038 7.93896 10.571V19.5125C7.93896 20.9331 9.10888 22.103 10.5295 22.103H19.471C20.8916 22.103 22.0615 20.9331 22.0615 19.5125V10.571C22.0615 9.15038 20.8916 7.98047 19.471 7.98047ZM19.6381 15.0417C19.6381 17.5905 17.549 19.6796 15.0002 19.6796C12.4515 19.6796 10.3624 17.5905 10.3624 15.0417C10.3624 12.493 12.4515 10.4039 15.0002 10.4039C17.549 10.4039 19.6381 12.493 19.6381 15.0417ZM20.8916 10.2785C20.8916 10.9053 20.3902 11.3649 19.8053 11.3649C19.1785 11.3649 18.7189 10.8635 18.7189 10.2785C18.7189 9.69356 19.2203 9.19217 19.8053 9.19217C20.3902 9.15039 20.8916 9.65178 20.8916 10.2785C20.8916 10.2367 20.8916 10.2785 20.8916 10.2785Z" fill="#00A29D"/>
<path d="M15 0C6.72702 0 0 6.72702 0 15C0 23.273 6.72702 30 15 30C23.273 30 30 23.273 30 15C30 6.72702 23.273 0 15 0ZM24.0251 19.5125C24.0251 22.0195 21.9777 24.0669 19.4708 24.0669H10.5292C8.02228 24.0669 5.97493 22.0195 5.97493 19.5125V10.571C5.97493 8.06407 8.02228 6.01671 10.5292 6.01671H19.4708C21.9777 6.01671 24.0251 8.06407 24.0251 10.571V19.5125Z" fill="#00A29D"/>
</svg>
