<?xml version="1.0" encoding="UTF-8"?>
<!DOCTYPE svg PUBLIC "-//W3C//DTD SVG 1.1//EN" "http://www.w3.org/Graphics/SVG/1.1/DTD/svg11.dtd">
<!-- Creator: CorelDRAW 2018 (64-Bit) -->
<svg xmlns="http://www.w3.org/2000/svg" xml:space="preserve" width="92.0353mm" height="75.536mm" version="1.1" style="shape-rendering:geometricPrecision; text-rendering:geometricPrecision; image-rendering:optimizeQuality; fill-rule:evenodd; clip-rule:evenodd"
viewBox="0 0 93275.08 76553.52"
 xmlns:xlink="http://www.w3.org/1999/xlink">
 <defs>
  <style type="text/css">
   <![CDATA[
    .fil2 {fill:none;fill-rule:nonzero}
    .fil0 {fill:#FEFEFE}
    .fil1 {fill:#FEFEFE;fill-rule:nonzero}
   ]]>
  </style>
 </defs>
 <g id="Слой_x0020_1">
  <metadata id="CorelCorpID_0Corel-Layer"/>
  <g id="_2764183251600">
   <path class="fil0" d="M49734.96 24403.46c143.61,-1986.5 1089.99,-3759.06 1808.13,-4345.36 -1047.22,119.69 -1501.86,640.31 -1759.18,1256.5 -155.57,-103.17 -1247.08,-218 -690.68,637.68 556.29,855.77 -482.31,1552.33 -877.16,1731.92 -275.16,-239.38 -897.43,-1280.52 -981.24,-1687.43 -83.81,-406.81 478.76,-358.97 478.76,-718.04 0,-359.07 -538.56,-502.58 -47.84,-993.3 490.62,-490.62 -747.94,-1184.75 -748.35,-1184.75 -0.41,0 -1238.97,694.13 -748.35,1184.75 490.72,490.72 -47.84,634.23 -47.84,993.3 0,359.07 562.48,311.24 478.66,718.04 -83.71,406.91 -705.98,1448.05 -981.14,1687.43 -394.85,-179.59 -1433.55,-876.15 -877.16,-1731.92 556.29,-855.67 -535.21,-740.85 -690.78,-637.68 -257.22,-616.19 -711.86,-1136.81 -1759.08,-1256.5 718.04,586.29 1664.42,2358.85 1808.13,4345.36 1878.67,-2.84 3756.33,-2.84 5635.1,0z"/>
   <path class="fil1" d="M49577.26 24232.39c81.28,-867.23 308.7,-1688.95 598.86,-2386.22 255.19,-613.35 561.36,-1134.07 861.45,-1508.25 -227.93,73.68 -412.38,174.72 -563.08,295.63 -250.73,201.38 -413.7,462.55 -532.38,746.73l-80.06 191.55 -172.59 -114.42c-45,-29.8 -225.5,-58.38 -394.14,-35.07 -59.09,8.21 -112.29,23.41 -148.27,47.94 -20.88,14.19 -35.37,33.65 -38.61,59.09 -8.51,67.6 26.35,173.1 128.2,329.78 37.19,57.16 68.21,113.41 93.04,168.13 171.68,376.61 96.08,720.58 -84.62,1009.92 -167.93,269.08 -429.41,486.97 -656.32,634.43 -113.61,73.78 -220.02,130.94 -301.61,168.03l-100.33 45.71 -82.6 -71.86c-155.87,-135.6 -403.46,-488.49 -616.09,-854.15 -200.67,-345.19 -376.2,-711.46 -420.79,-928.44 -68.11,-330.7 119.18,-450.39 307.99,-570.69 82.9,-52.9 166.72,-106.41 166.72,-181.51 0,-75 -51.59,-152.32 -101.85,-227.73 -159.93,-239.58 -313.16,-469.44 104.29,-886.89 45.5,-45.5 64.66,-90.91 64.66,-134.59 0,-49.86 -20.37,-104.89 -53.41,-161.14 -39.02,-66.28 -96.99,-134.79 -162.97,-200.77 -224.48,-224.99 -475.22,-395.35 -475.32,-395.35 -0.1,0 -250.83,170.36 -475.62,395.05 -65.17,65.77 -122.93,134.39 -162.66,201.78 -33.14,55.84 -53.41,110.77 -53.41,160.43 0,43.68 19.15,89.08 64.66,134.59 417.45,417.45 264.21,647.2 104.29,886.89 -50.27,75.4 -101.85,152.73 -101.85,227.73 0,75.1 83.81,128.61 166.72,181.51 188.71,120.3 376,239.89 307.89,570.69 -44.59,216.98 -220.02,583.15 -420.69,928.34 -212.63,365.76 -460.22,718.65 -616.09,854.25l-82.9 72.06 -99.32 -45.2c-81.08,-36.79 -187.59,-94.15 -302.52,-168.84 -226.92,-147.46 -488.29,-365.36 -656.22,-634.43 -180.7,-289.35 -256.21,-633.22 -84.83,-1009.92 26.05,-55.64 56.86,-111.89 93.34,-168.03 101.85,-156.68 136.72,-262.08 128.2,-329.78 -3.14,-25.44 -17.74,-44.9 -38.61,-59.09 -35.98,-24.53 -89.19,-39.73 -148.37,-47.94 -168.64,-23.31 -349.14,5.27 -394.14,35.07l-172.8 114.52 -79.86 -191.65c-118.58,-284.18 -281.54,-545.35 -532.27,-746.73 -150.7,-121.01 -335.15,-222.05 -563.19,-295.73 300.09,374.27 606.26,895 861.55,1508.45 290.16,697.27 517.48,1518.89 598.76,2386.12l2659.96 -2.64 2659.85 2.64zm915.27 -2254.87c-295.12,709.43 -522.75,1552.33 -586.7,2438.01l-11.55 159.11 -2976.87 -1.72 -2976.97 1.72 -11.45 -159.11c-64.05,-885.67 -291.58,-1728.58 -586.7,-2437.9 -349.04,-838.65 -787.87,-1484.33 -1158.5,-1786.85l-452.21 -369 579.6 66.08c558.63,63.75 962.8,237.56 1263.6,478.97 258.44,207.46 437.11,462.14 570.08,738.92 128.1,-27.87 294.01,-42.87 441.37,-22.5 107.23,14.8 210.9,47.33 294.51,104.29 98.71,67.29 167.73,164.18 184.76,298.87 18.14,143.71 -29.9,327.25 -180.5,559.03 -27.26,42.06 -50.17,83.51 -68.41,123.54 -114.12,252.56 -60.81,487.38 63.95,687.13 137.43,220.13 358.36,403.06 551.63,528.63 53.61,34.76 105.1,65.17 152.22,90.71 128.41,-147.16 304.85,-410.76 465.99,-687.84 185.47,-319.04 345.39,-647 381.98,-824.97 20.78,-100.94 -67.6,-157.49 -156.48,-214.15 -162.36,-103.58 -326.24,-208.07 -326.24,-469.74 0,-176.95 81.38,-298.97 160.84,-418.06 79.86,-119.69 156.58,-234.62 -62.73,-453.93 -116.45,-116.45 -165.2,-244.65 -165.2,-377.21 0,-114.52 38.71,-227.02 101.65,-334.04 56.35,-96.28 132.16,-187.39 215.26,-270.5 282.76,-281.95 717.74,-495.89 717.94,-495.89 0.2,0 435.18,213.94 717.23,495.89 83.31,82.6 159.01,173.71 215.97,270.5 62.94,107.02 101.65,219.52 101.65,334.04 0,132.56 -48.75,260.77 -165.2,377.21 -219.32,219.32 -142.6,334.24 -62.73,453.93 79.46,119.08 160.84,241.1 160.84,418.06 0,261.68 -163.88,366.17 -326.24,469.74 -88.98,56.65 -177.36,113.2 -156.58,214.15 36.59,177.97 196.61,506.03 382.08,825.07 161.14,277.08 337.69,540.79 466.2,687.94 46.62,-25.44 98,-55.84 151.82,-90.81 193.27,-125.57 414.31,-308.5 551.73,-528.63 124.76,-199.76 178.17,-434.68 63.44,-686.93 -18.65,-41.75 -41.35,-83.1 -67.8,-123.85 -150.7,-231.78 -198.64,-415.42 -180.5,-559.03 17.13,-134.69 86.04,-231.58 184.76,-298.87 83.61,-56.96 187.29,-89.49 294.41,-104.29 147.36,-20.37 313.26,-5.37 441.37,22.5 133.07,-276.68 311.74,-531.46 570.18,-738.92 300.8,-241.41 705.07,-415.22 1263.6,-478.97l579.5 -66.18 -452.11 369.11c-370.63,302.62 -809.56,948 -1158.5,1786.75z"/>
   <path class="fil1" d="M38210.89 52423.09c-86.55,650.75 -207.96,1200.76 -366.78,1647.5 -158.81,448.06 -300.8,671.42 -423.43,671.42 -33.65,0 -62.02,-15.51 -87.87,-45.2 -24.53,-31.01 -37.4,-64.56 -37.4,-101.96 0,-197.63 100.74,-632.71 302.12,-1306.67 202.69,-674.06 463.56,-1393.22 783.72,-2157.58 339.61,-813.51 668.89,-1421.6 985.19,-1821.92 316.3,-401.54 624.91,-601.7 928.34,-601.7 251.85,0 453.22,117.56 603.02,353.8 149.79,235.02 224.69,556.5 224.69,961.99 0,902.5 -211.82,1642.33 -636.56,2219.5 -424.85,577.17 -967.16,865.1 -1624.29,865.1 -103.37,0 -180.8,-12.87 -232.49,-37.5 -52.9,-25.74 -78.75,-61.92 -78.75,-109.66 0,-50.37 19.36,-87.87 56.86,-111.08 38.71,-24.53 96.79,-36.18 174.32,-36.18 23.21,0 50.37,1.32 83.92,3.85 32.23,2.64 56.75,3.95 71.04,3.95 494.47,0 930.87,-278.91 1309.2,-835.4 378.33,-557.81 566.83,-1229.24 566.83,-2015.59 0,-302.12 -49.05,-537.14 -145.94,-703.65 -96.79,-166.61 -232.39,-249.21 -406.71,-249.21 -281.44,0 -590.04,277.59 -924.49,831.55 -334.34,555.18 -708.82,1412.47 -1124.55,2574.62zm4495.86 1150.39c-9.02,24.53 -18.04,49.05 -25.84,71.04 -7.7,23.21 -11.55,38.71 -11.55,49.05 0,18.04 5.17,34.86 15.51,49.05 10.24,15.51 20.57,23.21 33.55,23.21 40.03,0 179.49,-85.13 418.36,-255.6 238.88,-170.47 546.16,-405.49 921.85,-704.97l0 309.82 -94.25 72.36c-886.99,689.46 -1417.74,1035.46 -1594.59,1035.46 -37.5,0 -71.04,-18.04 -102.06,-51.59 -29.69,-34.86 -45.1,-77.53 -45.1,-127.8 0,-24.63 9.02,-65.88 25.74,-121.41 18.14,-55.54 42.67,-121.41 76.21,-197.53l247.89 -564.3c-253.06,377.01 -472.58,644.36 -659.77,801.86 -188.51,158.81 -374.48,237.56 -557.81,237.56 -192.36,0 -348.63,-81.38 -468.73,-242.73 -121.31,-161.45 -182.02,-371.84 -182.02,-631.39 0,-192.36 36.18,-374.48 109.76,-547.48 73.58,-173 183.34,-342.15 333.13,-508.66 251.75,-275.06 550.01,-494.57 896.11,-658.55 344.68,-163.98 679.13,-246.58 1000.6,-246.58 134.28,0 253.06,12.87 356.44,40.03 103.27,27.06 204.01,70.94 302.12,131.65l-15.51 294.41c-105.91,-69.73 -210.5,-121.41 -315.09,-153.64 -104.59,-32.33 -216.88,-49.05 -334.34,-49.05 -282.86,0 -578.49,73.58 -889.62,219.52 -309.92,145.84 -561.67,331.81 -755.34,556.5 -123.95,143.3 -219.52,294.31 -285.39,451.91 -67.09,157.49 -100.74,311.14 -100.74,463.46 0,175.63 37.5,315.09 111.08,417.04 74.9,102.06 174.32,153.64 296.95,153.64 153.64,0 348.63,-127.8 584.87,-382.18 235.02,-255.6 614.67,-765.68 1136.3,-1531.25l303.43 29.69 -732.13 1567.43zm2683.06 -3.85c-10.34,25.84 -18.04,50.37 -25.84,76.21 -7.7,24.53 -11.55,41.25 -11.55,47.73 0,18.04 3.85,33.55 12.87,47.73 9.02,14.19 19.36,21.99 32.33,24.53 41.25,0 176.85,-83.92 409.24,-251.75 232.49,-167.83 540.99,-404.17 924.49,-708.82l0 311.14 -178.17 136.92c-832.77,646.8 -1336.36,969.59 -1510.68,969.59 -42.57,0 -77.43,-20.57 -105.91,-60.61 -27.06,-41.35 -41.25,-93.04 -41.25,-156.28 0,-28.38 7.7,-65.88 23.21,-113.61 14.19,-49.05 36.18,-104.59 63.24,-167.83l650.75 -1448.76c19.46,-45.2 47.84,-105.81 82.7,-182.02 68.41,-143.3 101.96,-228.54 101.96,-256.91 -2.53,-65.88 -112.29,-107.23 -329.18,-123.95 -107.23,-7.8 -194.99,-15.51 -260.87,-23.31 -153.64,307.28 -336.98,587.51 -550.01,836.72 -211.82,250.43 -457.08,475.12 -734.66,673.96l0 -311.14c214.25,-151.11 411.87,-338.3 591.36,-560.35 180.7,-222.15 333.03,-463.56 455.76,-725.65 -50.37,-29.69 -86.55,-64.56 -107.23,-104.59 -21.89,-38.82 -32.23,-89.08 -32.23,-149.79 0,-98.1 24.53,-178.17 74.9,-240.19 50.37,-61.92 114.93,-92.94 193.67,-92.94 64.56,0 118.78,23.21 161.34,68.41 43.98,45.2 64.56,103.27 64.56,171.78 0,32.23 -2.53,63.24 -7.7,90.3 -5.17,28.48 -11.65,56.86 -21.99,87.87 63.34,0 126.58,-1.32 192.46,-3.95 20.57,-2.53 32.23,-3.85 37.4,-3.85 211.71,0 362.82,28.38 454.54,85.23 90.3,56.86 135.5,148.47 135.5,277.59 0,45.2 -11.55,102.06 -33.55,169.15 -23.21,68.41 -76.21,194.99 -158.81,382.18l-552.65 1229.24zm1567.54 -127.8l324.11 -776.01c-131.75,122.63 -250.53,228.54 -358.97,314.99 -108.44,87.87 -210.5,160.13 -305.97,218.2l0 -311.14c241.41,-185.97 451.91,-360.19 628.76,-522.95 178.17,-162.66 272.42,-262.08 285.39,-296.95l458.29 -1137.52 -715.31 0 125.26 -247.89 695.95 0 449.37 -1098.8c7.7,-16.82 18.04,-42.57 30.91,-74.9 121.41,-307.28 227.32,-460.93 317.62,-460.93 42.67,0 77.53,11.55 102.06,36.18 25.84,23.21 37.4,52.9 37.4,87.77 0,38.71 -10.34,92.94 -33.55,162.66 -21.89,71.04 -58.07,158.81 -105.91,264.72l-457.08 1083.3 566.83 0 -94.25 247.89 -572 0 -1001.92 2442.87c-7.7,20.67 -20.67,50.37 -37.4,90.4 -55.54,126.58 -84.02,211.82 -84.02,254.38 0,42.57 10.34,74.9 29.8,95.57 20.57,19.36 51.59,29.69 95.47,29.69 80.06,0 450.69,-250.53 1111.78,-750.17 166.51,-126.58 296.95,-224.69 389.88,-295.73l0 318.94 -3.85 0c-952.87,721.79 -1541.69,1083.3 -1768.91,1083.3 -92.94,0 -162.66,-21.89 -206.65,-64.56 -43.88,-42.57 -65.77,-108.44 -65.77,-197.53 0,-77.53 34.86,-198.84 105.81,-362.82 24.53,-58.07 43.98,-103.27 56.86,-132.97zm1756.04 -242.83l0 -311.14c200.16,-145.94 375.69,-293.1 526.8,-444.2 151.11,-149.69 244.04,-259.45 280.22,-330.49l340.83 -694.63 333.13 0 -928.34 1949.61c737.2,-728.18 1296.33,-1248.49 1678.51,-1559.73 380.86,-311.14 648.22,-467.41 799.22,-467.41 37.5,0 67.19,16.82 87.87,49.05 19.36,33.65 29.69,81.38 29.69,144.62 0,32.33 -6.49,68.51 -19.46,109.76 -11.55,40.03 -37.4,104.59 -74.79,192.46l-798.01 1732.73c-16.72,40.03 -29.69,68.41 -36.18,86.45 -6.38,18.14 -9.02,29.8 -9.02,37.5 0,20.67 3.85,37.4 12.97,49.05 9.02,12.87 19.36,20.67 32.23,23.21 42.67,0 183.34,-85.13 420.89,-255.6 237.66,-169.15 544.94,-405.49 920.64,-704.97l0 309.82 -178.17 136.92c-832.77,646.9 -1336.36,970.9 -1510.68,970.9 -43.88,0 -80.06,-20.57 -109.76,-63.24 -31.01,-41.35 -46.52,-95.57 -46.52,-161.34 0,-28.48 9.12,-65.88 25.84,-112.39 15.51,-46.42 38.71,-100.74 69.73,-161.34l756.66 -1592.06c42.57,-86.55 68.41,-140.77 78.75,-162.66 10.34,-23.31 15.51,-40.03 15.51,-49.05 0,-23.31 -2.53,-40.03 -7.7,-51.69 -5.17,-11.65 -12.97,-16.82 -21.99,-16.82 -33.55,0 -129.12,59.49 -286.61,178.27 -157.59,117.46 -335.76,268.57 -534.61,449.27 -245.26,214.35 -475.12,431.23 -690.78,650.75 -215.57,219.52 -406.71,428.7 -573.22,627.54 -25.84,31.01 -60.71,73.58 -105.91,129.12 -161.45,209.18 -296.95,312.45 -405.39,312.45 -47.84,0 -85.23,-18.04 -113.71,-54.22 -27.06,-37.4 -41.25,-85.23 -41.25,-145.94 0,-73.58 114.93,-317.62 344.68,-732.03 108.44,-193.67 193.67,-351.27 257.02,-470.05 -95.57,89.08 -187.29,166.61 -272.52,232.39 -85.13,67.19 -167.83,124.05 -246.58,169.15zm6108.59 -393.73l0 309.82c-569.37,455.86 -982.56,750.17 -1236.94,883.24 -254.38,134.28 -490.62,201.38 -707.61,201.38 -251.75,0 -446.74,-74.9 -583.56,-224.69 -138.14,-151.01 -206.65,-364.04 -206.65,-641.73 0,-219.42 51.69,-437.62 153.64,-651.97 102.06,-214.35 251.85,-421 452.01,-621.05 220.73,-219.52 445.42,-389.98 670.11,-512.61 225.9,-122.73 431.23,-183.34 614.57,-183.34 156.28,0 278.91,37.4 365.36,110.98 86.55,74.9 130.43,179.49 130.43,312.45 0,348.63 -178.17,658.55 -534.5,932.29 -357.65,273.74 -787.67,410.56 -1291.16,410.56 -55.54,0 -96.89,0 -123.95,-1.32 -25.84,-1.22 -51.69,-3.85 -77.53,-6.38 -11.65,40.03 -20.67,78.75 -25.84,113.61 -5.17,34.86 -7.7,72.26 -7.7,109.76 0,185.87 42.57,327.96 129.12,423.53 85.23,95.47 211.71,143.3 378.33,143.3 188.51,0 402.85,-64.56 642.95,-194.99 238.88,-129.12 658.55,-433.87 1258.93,-912.83zm-2330.58 46.42c41.35,5.17 81.38,9.12 121.41,11.65 40.03,2.53 82.6,3.85 125.16,3.85 349.95,0 672.74,-116.14 967.16,-349.85 295.63,-232.49 442.89,-461.03 442.89,-685.61 0,-60.71 -20.67,-108.54 -62.02,-143.41 -42.57,-34.86 -98.1,-52.9 -169.15,-52.9 -201.38,0 -444.1,116.25 -726.96,347.32 -283.97,232.39 -516.46,521.63 -698.48,868.95zm3663.09 717.94c-10.34,25.84 -18.04,50.37 -25.84,76.21 -7.7,24.53 -11.55,41.25 -11.55,47.73 0,18.04 3.85,33.55 12.87,47.73 9.02,14.19 19.36,21.99 32.33,24.53 41.25,0 176.85,-83.92 409.24,-251.75 232.49,-167.83 540.99,-404.17 924.49,-708.82l0 311.14 -178.17 136.92c-832.77,646.8 -1336.36,969.59 -1510.68,969.59 -42.57,0 -77.43,-20.57 -105.91,-60.61 -27.06,-41.35 -41.25,-93.04 -41.25,-156.28 0,-28.38 7.7,-65.88 23.21,-113.61 14.19,-49.05 36.18,-104.59 63.24,-167.83l650.75 -1448.76c19.46,-45.2 47.84,-105.81 82.7,-182.02 68.41,-143.3 101.96,-228.54 101.96,-256.91 -2.53,-65.88 -112.29,-107.23 -329.18,-123.95 -107.23,-7.8 -194.99,-15.51 -260.87,-23.31 -153.64,307.28 -336.98,587.51 -550.01,836.72 -211.82,250.43 -457.08,475.12 -734.66,673.96l0 -311.14c214.25,-151.11 411.87,-338.3 591.36,-560.35 180.7,-222.15 333.03,-463.56 455.76,-725.65 -50.37,-29.69 -86.55,-64.56 -107.23,-104.59 -21.89,-38.82 -32.23,-89.08 -32.23,-149.79 0,-98.1 24.53,-178.17 74.9,-240.19 50.37,-61.92 114.93,-92.94 193.67,-92.94 64.56,0 118.78,23.21 161.34,68.41 43.98,45.2 64.56,103.27 64.56,171.78 0,32.23 -2.53,63.24 -7.7,90.3 -5.17,28.48 -11.65,56.86 -21.99,87.87 63.34,0 126.58,-1.32 192.46,-3.95 20.57,-2.53 32.23,-3.85 37.4,-3.85 211.71,0 362.82,28.38 454.54,85.23 90.3,56.86 135.5,148.47 135.5,277.59 0,45.2 -11.55,102.06 -33.55,169.15 -23.21,68.41 -76.21,194.99 -158.81,382.18l-552.65 1229.24z"/>
   <path class="fil1" d="M38294.4 52444.37c-43.28,322.89 -95.27,622.37 -156.38,897.43 -61.92,279.11 -133.07,531.97 -213.13,757.27 -81.28,229.15 -159.22,402.75 -233.2,520.11 -87.67,138.95 -178.37,208.67 -271,208.67 -30.2,0 -58.98,-7.3 -86.15,-21.49 -24.22,-12.16 -46.01,-30.3 -66.08,-53.21l-2.64 -3.45c-17.74,-22.4 -31.62,-46.42 -40.94,-71.65 -10.13,-26.86 -15.3,-54.52 -15.3,-83.21 0,-104.49 26.15,-269.18 77.94,-493.76 50.98,-220.43 127.19,-499.74 227.93,-837.33 101.85,-338.9 218.61,-689.67 350.26,-1051.98 130.74,-359.98 276.37,-731.62 436.5,-1114.01 170.77,-409.04 339.11,-766.79 504.4,-1072.56 166.31,-307.69 330.9,-564.3 492.65,-769.22 163.68,-208.27 326.95,-365.05 489.61,-470.45 168.95,-109.56 337.79,-164.38 505.92,-164.38 141.08,0 268.98,33.65 383.4,100.64 112.39,65.98 209.99,163.78 291.98,293.1 80.06,126.08 140.06,274.04 179.49,443.29 39.12,167.32 58.68,355.83 58.68,564.6 0,458.7 -54.12,877.36 -162.46,1255.18 -108.75,379.65 -272.42,717.94 -490.93,1014.89 -219.92,298.77 -471.26,523.36 -753.31,673.55 -283.87,151.21 -597.54,226.81 -939.99,226.81 -54.73,0 -104.39,-3.65 -148.78,-10.84 -47.53,-7.7 -88.07,-19.56 -120.6,-35.07 -40.03,-19.46 -70.54,-44.19 -92.02,-74.08 -23.82,-33.24 -35.67,-70.94 -35.67,-113 0,-38.51 8.11,-73.48 23.72,-104.18 17.03,-32.94 41.55,-59.49 73.07,-79.25 28.07,-17.74 62.02,-30.61 101.35,-38.71 35.57,-7.3 75.4,-10.95 118.88,-10.95l154.96 8.11c231.07,-0.3 448.56,-65.47 652.27,-195.5 208.17,-132.97 403.77,-333.94 586.19,-602.31 183.74,-270.9 321.78,-570.08 413.6,-897.23 92.12,-327.76 138.14,-684.6 138.14,-1070.43 0,-145.94 -11.65,-274.55 -34.56,-385.12 -22.3,-108.14 -55.64,-200.16 -99.62,-275.66 -40.94,-70.64 -89.49,-123.04 -144.82,-156.89 -53.71,-32.84 -116.45,-49.36 -187.8,-49.36 -118.88,0 -247.49,62.13 -385.12,185.87 -147.76,132.87 -303.23,334.45 -465.99,604.03 -165.4,274.75 -341.13,624.7 -526.7,1049.65 -185.06,423.63 -380.96,924.29 -587.71,1502.06zm-323.2 860.54c60.2,-271.41 111.89,-569.37 154.86,-892.87l4.05 -17.74c207.86,-581.23 406.3,-1087.96 595.11,-1520.31 189.01,-432.85 368.09,-789.39 536.84,-1069.72 171.48,-284.08 337.79,-498.63 498.22,-642.95 170.57,-153.34 337.38,-230.26 499.64,-230.26 102.97,0 195.5,25.03 276.98,74.9 80.06,48.95 148.27,121.52 203.81,217.29 53,91.01 92.83,200.26 119.08,327.15 25.64,123.64 38.61,263.6 38.61,419.37 0,400.32 -48.34,772.57 -145.03,1116.64 -96.69,344.48 -242.42,660.17 -436.91,946.89 -195.7,287.83 -407.82,504.91 -635.85,650.55 -232.49,148.37 -480.59,222.76 -744.09,222.76 -40.84,-6.28 -113.41,-6.99 -154.96,-7.8 -33.85,0 -62.33,2.33 -84.62,6.89 -18.45,3.75 -33.24,9.12 -43.78,15.81 -5.98,3.65 -9.93,7.6 -12.16,11.55 -3.04,6.28 -4.76,15.51 -4.76,27.16 0,5.47 1.22,10.03 3.45,13.07 4.56,6.38 13.38,12.87 26.35,19.15 19.15,9.12 43.98,16.32 73.98,21.08 33.04,5.27 73.68,8.01 121.62,8.01 314.99,0 601.8,-68.61 859.52,-205.94 259.04,-137.93 491.23,-346 695.75,-623.89 206.24,-280.22 361,-600.58 464.17,-960.57 103.78,-361.81 155.57,-764.87 155.57,-1208.36 0,-196.71 -18.04,-372.25 -53.82,-525.69 -35.17,-151.11 -87.77,-281.54 -157.09,-390.39 -67.8,-106.52 -146.04,-185.87 -234.11,-237.56 -86.65,-50.77 -185.77,-76.31 -296.85,-76.31 -135.1,0 -272.72,45.4 -412.69,136.21 -146.45,94.96 -295.93,239.18 -448.26,432.55 -154.96,195.7 -313.97,444.1 -476.43,744.7 -162.76,301.1 -328.67,653.79 -497.11,1057.15 -159.22,380.15 -303.84,749.26 -433.66,1106.71 -130.13,358.26 -245.87,705.88 -347.01,1042.46 -100.33,336.17 -175.63,611.83 -225.29,826.59 -48.55,210.6 -73.07,362.62 -73.07,455.66 0,8.51 1.42,16.52 4.16,23.92 2.43,7.3 6.59,14.59 11.76,21.69 5.78,6.59 11.35,11.45 16.22,13.99l7.3 1.72c30.1,0 72.46,-42.77 126.28,-128.2 66.89,-106.21 139.25,-268.27 216.38,-485.86 78.65,-221.24 147.97,-467.21 207.86,-737.2zm4815.2 299.99l-17.43 47.73 39.42 -23.72c68.31,-41.75 161.55,-104.69 278.81,-188.4 117.56,-83.92 253.57,-184.86 407.21,-302.42 111.38,-85.13 232.19,-179.18 362.21,-281.85l0 -11.25 36.59 -25.84c103.68,-73.17 203.71,-155.26 299.08,-245.67 95.98,-90.91 187.8,-190.53 274.85,-298.26 88.37,-108.54 169.76,-221.95 243.94,-339.82 61.72,-98.21 118.68,-199.76 170.36,-304.45l-16.62 -15.2c-23.92,-23.31 -43.58,-49.15 -57.87,-76.62 -14.9,-26.76 -25.74,-56.65 -32.74,-89.49 -6.59,-31.72 -9.93,-65.37 -9.93,-100.84 0,-56.96 7.6,-110.06 22.6,-158.81 15.61,-50.47 39.63,-95.67 71.75,-135.3 33.24,-40.84 71.96,-71.96 115.74,-92.94 44.29,-21.28 92.63,-31.92 144.32,-31.92 43.48,0 84.42,8.21 122.33,24.32 37.8,16.01 71.96,40.03 101.35,71.25 29.59,30.71 51.59,65.88 66.08,104.59 14.8,39.22 21.99,81.48 21.99,125.87l-2.33 54.52 -4.46 36.69 74.69 -2.23 46.42 -4.46c110.16,0 206.34,7.7 288.03,23.01 86.35,16.11 156.99,41.35 211.71,75.3 59.09,37.19 103.48,86.25 133.17,146.95 28.58,58.48 42.97,126.28 42.97,203.4 0,27.77 -3.45,58.88 -10.13,92.43 -6.28,31.52 -15.71,66.18 -27.77,103.17l-0.41 1.01c-12.16,35.98 -31.92,86.55 -59.19,151.92l-102.26 237.35 -551.63 1226.5 -18.34 53.41c57.87,-34.46 159.82,-104.59 305.97,-210.09 113.2,-81.69 248.6,-182.93 405.69,-303.43l368.09 -286.41 0 -8.82 33.55 -25.94c121.52,-93.64 234.01,-183.24 336.27,-268.16 101.55,-84.42 197.53,-167.83 286.81,-250.12 87.67,-80.06 153.74,-143.51 198.84,-190.33 40.44,-42.26 62.02,-66.79 64.46,-73.38l411.47 -1021.88 -727.77 0 212.02 -419.58 691.49 0c152.53,-373.06 306.47,-745.91 457.78,-1119.28 62.53,-158.91 122.63,-280.02 179.69,-362.82 69.93,-101.65 142.49,-152.53 217.49,-152.53 30.4,0 59.59,4.76 86.85,14.39 27.16,9.32 51.48,23.92 72.16,43.58 22.7,20.17 39.42,44.19 50.47,71.04 10.74,25.94 15.81,53 15.81,80.77 0,23.92 -3.24,52.9 -10.13,86.85 -6.18,29.9 -15.2,63.75 -27.47,100.94 -11.65,38.01 -27.06,80.17 -45.5,125.97 -17.43,43.58 -39.12,93.34 -64.15,148.78l-406.2 962.29 562.07 0 -159.52 419.58 -573.73 0c-299.18,729.6 -803.38,1766.18 -1018.03,2481.58 -27.06,61.72 -47.33,112.6 -60.2,151.41 -10.84,32.84 -16.42,56.04 -16.42,68.81 0,12.77 1.22,23.11 3.45,30.3l1.62 4.36 3.34 1.22c7.3,2.23 17.63,3.55 31.01,3.55 22.6,0 119.49,-57.77 290.06,-172.9 184.25,-124.35 441.16,-311.14 770.14,-559.84l229.15 -173.3 0 -6.69 35.57 -25.94c98.41,-71.65 190.94,-143.91 277.18,-216.48 83,-69.93 162.86,-143.1 239.18,-219.42 73.78,-72.67 133.27,-135.91 178.57,-189.42 42.06,-49.66 70.84,-89.49 85.94,-119.29l364.24 -741.56 521.94 0 -778.95 1635.94c229.75,-223.37 439.44,-423.23 628.96,-599.37 280.83,-260.97 517.78,-470.35 710.44,-627.24 193.37,-158 359.07,-277.39 496.4,-357.65 146.65,-86.15 265.83,-129.22 356.74,-129.22 33.24,0 64.25,8.01 91.92,23.51 27.26,15.3 50.17,37.4 68,65.17l2.03 3.34c14.39,24.93 25.13,54.22 32.03,87.46 6.18,30.51 9.43,63.85 9.43,100.03 0,40.74 -7.91,85.44 -23.51,135.2 -6.89,23.41 -17.03,51.59 -29.69,84.02 -255.8,619.33 -565.62,1240.29 -846.86,1851l-18.85 44.29 34.56 -20.67c67.7,-41.05 160.33,-103.78 277.18,-187.59 117.46,-83.71 253.06,-184.65 406.5,-302.32l322.39 -250.94c24.83,-81.79 56.35,-162.97 94.56,-243.23 53.11,-111.48 118.88,-221.24 197.32,-329.28 78.34,-107.83 168.95,-213.13 271.41,-315.59 112.7,-111.68 226.21,-211.11 339.92,-298.16 115.64,-88.48 232.69,-164.79 350.05,-228.84 118.17,-64.25 231.38,-112.39 338.8,-144.42 111.08,-33.14 216.88,-49.66 316.61,-49.66 85.74,0 163.88,10.74 233.5,31.92 72.56,21.99 135.3,55.44 187.19,99.52 54.02,47.03 94.56,102.66 121.41,167.12 26.25,62.73 39.53,133.27 39.53,210.7 0,376.61 -189.52,709.33 -568.35,1000.3 -186.38,142.6 -392.21,249.92 -617,321.37 -224.18,71.25 -466.3,107.02 -726.15,107.02 -53,0 -92.73,-0.1 -128,-1.72l-8.41 -0.51 -6.08 34.66 -5.17 47.13 -1.52 50.27c0,85.54 9.43,159.62 28.28,221.54 17.74,58.17 43.88,106.72 78.34,144.72 33.95,37.5 75.81,65.88 125.47,84.62 52.9,20.07 116.25,30.1 189.52,30.1 86.75,0 179.59,-14.9 277.89,-44.69 101.35,-30.71 209.59,-77.33 324.21,-139.55 116.14,-62.84 277.69,-169.45 484.44,-319.45 173.71,-125.97 378.63,-282.25 614.67,-468.43l0 -10.13 36.59 -25.84c103.68,-73.17 203.71,-155.26 299.08,-245.67 95.98,-90.91 187.8,-190.53 274.85,-298.26 88.37,-108.54 169.76,-221.95 243.94,-339.82 61.72,-98.21 118.68,-199.76 170.36,-304.45l-16.62 -15.2c-23.92,-23.31 -43.58,-49.15 -57.87,-76.62 -14.9,-26.76 -25.74,-56.65 -32.74,-89.49 -6.59,-31.72 -9.93,-65.37 -9.93,-100.84 0,-56.96 7.6,-110.06 22.6,-158.81 15.61,-50.47 39.63,-95.67 71.75,-135.3 33.24,-40.84 71.96,-71.96 115.74,-92.94 44.29,-21.28 92.63,-31.92 144.32,-31.92 43.48,0 84.42,8.21 122.33,24.32 37.8,16.01 71.96,40.03 101.35,71.25 29.59,30.71 51.59,65.88 66.08,104.59 14.8,39.22 21.99,81.48 21.99,125.87l-2.33 54.52 -4.46 36.69 74.69 -2.23 46.42 -4.46c110.16,0 206.34,7.7 288.03,23.01 86.35,16.11 156.99,41.35 211.71,75.3 59.09,37.19 103.48,86.25 133.17,146.95 28.58,58.48 42.97,126.28 42.97,203.4 0,27.77 -3.45,58.88 -10.13,92.43 -6.28,31.52 -15.71,66.18 -27.77,103.17l-0.41 1.01c-12.16,35.98 -31.92,86.55 -59.19,151.92l-102.26 237.35 -551.63 1226.5 -18.34 53.41c57.87,-34.46 159.82,-104.59 305.97,-210.09 113.2,-81.69 248.6,-182.93 405.69,-303.43 152.73,-117.06 324.82,-251.64 515.45,-403.06l139.15 -110.47 0 530.35 -211.61 162.56c-417.04,324.31 -753.21,568.15 -1007.69,731.52 -266.54,170.97 -451.7,256.51 -555.38,256.51 -36.08,0 -69.73,-9.22 -100.84,-27.06 -28.48,-16.32 -53.41,-39.93 -74.79,-69.83l-2.03 -2.94c-18.34,-28.17 -32.63,-60 -41.86,-94.46 -8.82,-33.85 -13.48,-70.03 -13.48,-108.44 0,-18.95 2.64,-41.35 7.8,-66.69 4.46,-22.2 11.25,-46.72 19.76,-73.07 8.11,-27.67 17.63,-55.23 28.17,-83 195.5,-476.94 679.33,-1322.48 772.57,-1726.35 34.26,-72.06 59.19,-127.29 74.29,-165.4l18.95 -52.6c-2.43,-1.22 -11.55,3.65 -27.87,-2.33 -47.33,-17.63 -121.21,-30.61 -221.54,-38.21l-204.92 -17.13c-70.54,136.72 -148.17,269.48 -232.19,397.28 -93.44,142.29 -194.38,276.88 -302.12,403.06 -108.04,127.9 -224.59,249.11 -349.44,363.63 -93.24,85.54 -191.04,167.43 -292.79,245.16 -280.12,224.08 -523.05,409.34 -727.57,555.48 -209.69,149.59 -380.86,259.25 -512.51,328.06 -132.36,70.03 -260.77,122.73 -383.9,157.8 -126.28,35.78 -247.59,53.82 -363.43,53.82 -276.78,0 -493.05,-84.42 -646.9,-252.86 -77.23,-84.83 -135.2,-186.58 -173.3,-304.85 -26.35,-82.29 -43.48,-172.29 -51.08,-270.29 -335.86,256.61 -612.54,454.95 -829.73,594.6 -266.04,170.97 -450.99,256.61 -554.67,256.61 -36.89,0 -71.25,-9.02 -102.77,-27.06 -28.48,-16.62 -53.61,-40.13 -75.4,-70.74 -21.69,-28.88 -37.9,-62.13 -48.55,-98.81 -10.24,-36.08 -15.4,-74.08 -15.4,-113.81 0,-20.17 3.24,-42.97 9.12,-68.51 5.37,-23.41 12.87,-47.73 21.79,-72.67 8.51,-24.63 19.15,-51.99 31.92,-81.48 10.64,-25.74 24.63,-54.93 41.25,-87.56 266.04,-559.94 523.56,-1140.66 804.9,-1691.08 -39.02,26.25 -86.25,60.3 -141.38,101.96 -79.15,58.78 -162.05,125.06 -248.3,197.63 -87.87,74.39 -181.51,156.78 -280.22,246.58l-1.32 1.01c-120.81,105.6 -239.08,212.93 -354.11,321.37 -114.62,108.04 -225.5,216.58 -332.01,325.02 -105.7,107.73 -206.85,214.15 -302.62,319.14 -92.94,101.35 -181.51,202.69 -265.63,303.03l-104.29 126.89c-84.93,109.96 -164.08,193.07 -237.15,249.42 -83.51,64.36 -162.36,96.48 -235.83,96.48 -36.79,0 -70.44,-7.5 -101.04,-21.99 -30.71,-15 -57.16,-36.79 -79.66,-65.17l-2.33 -2.94c-19.15,-26.65 -33.95,-56.75 -43.58,-90.4 -9.43,-32.53 -14.19,-67.6 -14.19,-105.5 0,-48.95 31.62,-140.57 94.56,-274.35 57.67,-122.83 145.03,-289.45 261.27,-499.24l13.07 -23.72 -44.19 0 -39.93 26.25c-451.6,340.42 -820.2,598.35 -1105.7,773.28 -308.5,189.01 -527.51,283.77 -656.93,283.77 -54.42,0 -103.68,-6.89 -146.75,-20.27 -47.63,-14.8 -87.77,-37.9 -119.59,-68.81 -31.52,-30.71 -55.34,-69.52 -70.74,-115.74 -14.09,-42.36 -21.18,-90.3 -21.18,-143.1 0,-46.21 10.13,-104.39 30.3,-173.81 18.55,-63.34 46.11,-137.93 82.7,-222.46l235.02 -560.04 -81.08 66.48c-54.83,44.29 -108.24,84.93 -159.62,121.62 -37.6,26.86 -75.3,52.19 -112.6,76.01l-98 75.3c-417.04,324.31 -753.21,568.15 -1007.69,731.52 -266.54,170.97 -451.7,256.51 -555.38,256.51 -36.08,0 -69.73,-9.22 -100.84,-27.06 -28.48,-16.32 -53.41,-39.93 -74.79,-69.83l-2.03 -2.94c-18.34,-28.17 -32.63,-60 -41.86,-94.46 -8.82,-33.85 -13.48,-70.03 -13.48,-108.44 0,-18.95 2.64,-41.35 7.8,-66.69 4.46,-22.2 11.25,-46.72 19.76,-73.07 8.11,-27.67 17.63,-55.23 28.17,-83 195.5,-476.94 679.33,-1322.48 772.57,-1726.35 34.26,-72.06 59.19,-127.29 74.29,-165.4l18.95 -52.6c-2.43,-1.22 -11.55,3.65 -27.87,-2.33 -47.33,-17.63 -121.21,-30.61 -221.54,-38.21l-204.92 -17.13c-70.54,136.72 -148.17,269.48 -232.19,397.28 -93.44,142.29 -194.38,276.88 -302.12,403.06 -108.04,127.9 -224.59,249.11 -349.44,363.63 -79.66,73.07 -162.56,143.41 -248.5,210.9l-127.6 98.91c-444.2,345.39 -800.74,605.85 -1069.52,780.47 -279.92,181.92 -472.48,273.23 -577.58,273.23 -32.53,0 -63.34,-7.91 -92.33,-22.6 -26.25,-13.78 -50.47,-32.94 -72.36,-56.55l-2.74 -2.94c-21.28,-25.13 -38.01,-53.71 -49.05,-85.33 -10.84,-30.51 -16.52,-63.34 -16.52,-97.8 0,-17.84 2.94,-40.23 8.61,-66.89 4.76,-22.4 11.96,-49.05 20.88,-78.95 10.03,-33.65 25.03,-72.56 37.7,-105.91 -83.1,94.46 -161.95,173.1 -236.34,235.73 -100.94,84.93 -201.58,148.88 -301.81,191.55 -104.08,44.29 -207.86,66.48 -310.93,66.48 -109.66,0 -209.89,-23.61 -300.39,-70.44 -89.89,-46.52 -169.05,-115.74 -237.05,-207.15 -66.48,-88.98 -116.65,-191.04 -149.89,-306.07 -32.74,-114.22 -49.25,-239.69 -49.25,-376.3 0,-101.55 9.63,-200.87 28.99,-297.76 19.26,-96.38 48.55,-190.94 87.87,-283.27 38.92,-91.52 87.16,-181.72 145.03,-270.19 57.87,-88.37 125.67,-176.04 203.2,-262.18 130.54,-142.29 272.32,-269.89 425.76,-382.69 153.64,-112.9 319.75,-211.82 497.51,-296.03 177.36,-84.32 352.79,-148.07 525.28,-190.53 174.01,-42.77 344.88,-64.46 511.8,-64.46 69.02,0 135.6,3.55 199.25,10.54 63.34,6.99 123.14,17.94 178.98,32.53 55.54,14.59 110.87,33.95 165.4,57.57 53.82,23.51 107.33,51.69 159.82,84.12l43.17 26.76 -26.05 493.86 -124.45 -82.09c-49.76,-32.84 -99.52,-61.52 -148.37,-85.44 -49.46,-23.72 -97.8,-43.28 -144.93,-57.77 -47.73,-14.7 -98,-26.05 -150.2,-33.75 -50.77,-7.4 -104.08,-11.25 -159.01,-11.25 -135.1,0 -273.03,17.53 -413.7,52.3 -142.9,35.27 -289.55,88.37 -439.74,158.81 -149.18,70.13 -284.79,150.4 -406.3,239.89 -120.81,88.98 -227.93,187.59 -320.56,295.12 -59.09,68.31 -111.68,138.74 -156.99,210.6 -44.8,71.04 -82.9,143.91 -114.02,218.2 -31.52,73.98 -55.03,146.65 -70.74,219.01 -15.4,70.84 -23.21,141.38 -23.21,211.61 0,80.47 8.41,151.92 24.83,213.64 15.71,59.59 39.02,110.77 69.32,152.93 29.59,40.03 63.34,70.03 100.94,89.49 36.99,19.05 79.46,28.78 127.09,28.78 59.79,0 131.45,-27.26 214.55,-81.58 91.92,-60 194.59,-151.21 307.39,-272.62 116.45,-126.89 269.48,-317.62 458.39,-572.21 187.39,-252.56 410.96,-569.17 670.11,-949.42l28.48 -41.75 474.2 46.42 -780.98 1672.13zm-185.97 10.44c180.5,-496.3 482.21,-1048.54 709.83,-1535.91l-132.56 -13.07c-247.29,362.11 -462.65,666.56 -645.68,913.14 -193.17,260.26 -349.95,455.76 -469.85,586.09 -123.34,132.76 -236.54,233 -339.51,300.29 -111.79,73.07 -214.75,109.76 -308.4,109.76 -74.9,0 -143.51,-16.11 -205.53,-48.24 -61.31,-31.72 -115.03,-78.75 -160.43,-140.67 -43.28,-60.2 -75.71,-130.23 -96.89,-209.79 -20.57,-76.92 -31.01,-163.07 -31.01,-257.83 0,-82.09 9.12,-164.69 27.26,-247.89 17.84,-81.79 44.69,-164.49 80.27,-248.4 34.66,-82.9 77.33,-164.38 127.39,-243.74 49.76,-78.95 107.53,-156.28 172.39,-231.27 101.14,-117.36 217.59,-224.79 348.74,-321.27 129.83,-95.57 274.95,-181.41 435.08,-256.71 160.84,-75.4 318.03,-132.36 471.16,-170.16 155.47,-38.41 306.98,-57.77 454.64,-57.77 61.92,0 123.34,4.56 183.44,13.28 59.9,8.82 118.88,22.2 176.04,39.83 57.36,17.63 113.91,40.34 169.45,67.4l42.57 22.2 5.27 -101.25c-31.32,-17.53 -63.14,-33.44 -95.06,-47.33 -45.91,-19.97 -92.94,-36.38 -140.67,-48.85 -47.43,-12.36 -99.02,-21.79 -154.25,-27.87 -55.03,-6.08 -115.23,-9.12 -180.4,-9.12 -154.35,0 -311.54,19.86 -470.86,58.98 -161.14,39.73 -326.03,99.62 -493.26,179.18 -168.03,79.56 -324.61,172.8 -469.34,279.21 -144.72,106.52 -278.2,226.31 -399.71,359.07 -71.86,80.06 -134.18,160.53 -186.88,241.31 -52.8,81.08 -96.48,162.36 -131.04,243.74 -34.15,80.47 -60,163.78 -77.13,249.62 -17.03,85.33 -25.54,173.61 -25.54,264.31 0,122.53 13.99,232.29 41.65,328.67 27.57,95.06 68.61,178.98 122.93,251.44 52.4,70.33 111.99,122.83 178.37,157.19 65.47,33.85 139.55,50.98 221.95,50.98 80.57,0 161.95,-17.43 243.84,-52.3 85.33,-36.28 171.88,-91.42 259.04,-164.79 89.29,-75.1 187.39,-177.76 294.11,-307.59 107.83,-131.04 224.38,-290.06 349.55,-476.53l536.94 -800.24 -635.34 1446.32 -42.26 102.87 -30.91 86.85 -16.82 63.65 -4.56 31.42c0,15.51 2.23,29.19 6.28,40.84 3.75,11.25 9.93,21.59 18.04,31.21 8.01,8.31 15.61,14.49 22.4,17.94 4.76,2.13 9.73,3.55 14.59,3.55 71.75,0 233.3,-81.89 484.34,-245.06 251.54,-163.37 585.68,-406.91 1002.53,-729.5l0 -88.48 -258.23 200.06c-153.34,117.36 -290.97,219.42 -412.08,305.87 -121.31,86.55 -217.79,151.72 -288.74,195.09 -83.61,50.98 -143.41,76.62 -179.18,76.62 -24.22,0 -45.91,-7.2 -66.38,-21.28 -15.4,-10.64 -27.47,-24.02 -38.21,-40.13 -19.97,-28.88 -30.3,-62.13 -30.3,-96.69 0,-10.95 2.03,-24.12 5.68,-39.32l11.25 -38.92zm1544.02 -771.96l0 92.02c45.3,-38.01 89.49,-76.82 132.56,-116.25 119.59,-109.66 231.27,-225.9 334.75,-348.13 104.39,-122.02 201.17,-251.04 290.06,-386.34 89.19,-135.7 172.29,-280.43 248.6,-433.26l26.86 -53.82 172.19 18.24 144.62 11.65c116.65,8.92 206.44,25.34 269.08,48.95 90.1,33.95 136.72,86.65 139.45,157.09l0.41 3.34c0,24.42 -10.74,63.85 -32.03,117.66 -18.65,47.03 -44.9,105.81 -78.34,176.14 -250.12,538.96 -488.7,1085.22 -732.23,1627.43l-35.27 86.04 -25.13 74.39c-6.79,20.98 -11.96,39.63 -15.1,55.03 -2.43,12.16 -3.75,23.11 -3.75,32.43 0,24.53 2.64,46.11 7.3,64.25 4.46,16.52 10.95,31.42 19.05,44.09 6.59,8.92 13.28,15.51 19.56,19.15 3.85,2.23 9.12,3.55 15.4,3.55 70.74,0 225.09,-76.31 462.95,-228.94 248.6,-159.52 580.52,-400.52 995.13,-722.5l30.1 -22.7 0 -90.3 -264.11 204.72c-152.63,117.06 -289.55,219.32 -409.75,306.07 -247.59,178.78 -399.61,268.27 -459.2,268.27l-16.72 -2.03c-19.46,-3.95 -36.89,-11.55 -52.5,-23.31 -13.58,-10.24 -25.03,-23.11 -35.17,-38.82 -9.53,-15.3 -16.32,-30.61 -20.57,-46.52 -3.95,-16.72 -6.08,-32.33 -6.08,-47.43 0,-8.72 2.03,-21.79 5.78,-37.6 116.35,-425.66 406.81,-938.37 591.87,-1350.04l100.84 -234.01c25.44,-61.21 43.88,-107.93 54.83,-140.16 9.83,-30.51 17.53,-58.48 22.4,-83.41 4.36,-22.4 6.69,-42.36 6.69,-59.29 0,-51.89 -8.31,-94.76 -24.73,-128.41 -15.2,-31.01 -38.71,-56.65 -70.03,-76.52 -36.79,-22.7 -87.97,-40.34 -152.83,-52.5 -69.22,-12.87 -154.25,-19.46 -255.09,-19.56l-35.57 3.45c-72.56,2.84 -137.12,4.36 -195.8,4.36l-118.68 0 37.6 -112.7 10.95 -38.11 7.7 -38.01 4.76 -35.07 1.52 -40.13c0,-24.83 -3.45,-46.92 -10.44,-65.47 -6.49,-17.23 -16.42,-33.04 -29.59,-46.62l-1.01 -1.01c-12.97,-13.78 -27.77,-24.32 -43.78,-31.11 -15.81,-6.69 -34.36,-10.13 -55.23,-10.13 -26.76,0 -50.47,4.86 -70.54,14.49 -20.57,9.83 -39.63,25.54 -56.75,46.52 -17.94,22.2 -31.72,48.34 -40.94,78.04 -9.63,31.01 -14.49,67.29 -14.49,108.24 0,24.93 2.03,47.03 5.78,65.37 3.65,16.52 8.72,30.91 15.3,42.57l1.42 2.64c5.98,11.55 14.8,23.01 25.74,33.75 13.28,12.97 29.69,25.34 48.65,36.38l67.09 39.53 -32.94 70.33c-62.84,134.39 -133.58,263.71 -211.21,387.25 -77.63,123.44 -162.86,242.22 -255.29,355.83 -92.23,114.12 -189.11,219.32 -290.26,315.09 -53.92,51.18 -109.25,99.83 -165.8,145.84zm2672.72 -3.85l0 115.74 51.38 -40.84c52.09,-41.75 108.14,-89.19 168.03,-141.89 62.63,-55.23 124.45,-111.58 186.58,-169.35l289.85 -269.79 -476.64 1141.27 -57.16 133.68c-34.05,78.24 -59.29,146.14 -75.91,203.1 -15.2,52.19 -22.8,94.46 -22.8,126.18 0,36.08 3.95,66.08 11.65,89.39 6.38,19.26 15.91,35.07 27.97,46.82 12.06,11.65 29.19,21.08 50.77,27.87 25.74,8.01 58.07,12.16 96.18,12.16 97.6,0 286.91,-86.15 567.75,-258.23 258.84,-158.51 589.84,-388.56 992.69,-689.57l0 -99.93 -125.97 95.47c-331.81,250.83 -591.16,439.34 -777.43,565.11 -199.76,134.89 -328.57,202.49 -385.93,202.49 -30.3,0 -57.67,-4.05 -81.89,-11.65 -28.38,-8.92 -52.3,-23.11 -71.86,-41.25l-4.36 -4.36c-18.45,-19.76 -32.53,-44.19 -41.45,-72.67 -7.6,-24.42 -11.55,-51.69 -11.55,-81.18 0,-29.69 8.72,-70.64 25.94,-122.53 15.2,-45.91 37.19,-101.55 65.47,-166.01 364.24,-853.65 709.02,-1725.03 1060.5,-2584.96l570.38 0 28.99 -76.21 -571.7 0c162.16,-383.7 374.07,-821.62 508.05,-1204.31 22.7,-50.27 43.28,-97.7 61.31,-142.39 17.03,-42.06 30.81,-79.76 40.84,-112.29l0.71 -2.03c10.44,-31.52 18.04,-59.09 22.7,-82.5 4.16,-20.67 6.08,-38.31 6.08,-53l-1.93 -15.1c-9.22,-12.06 -8.21,-11.15 -21.69,-18.95 -7.3,-2.74 -17.53,-4.05 -30,-4.05 -15.4,0 -41.15,26.05 -76.82,77.94 -48.65,70.64 -102.46,180.4 -161.04,328.67l-502.99 1228.02 -700.51 0 -38.51 76.21 702.84 0 -505.62 1255.18c-11.55,28.78 -45.2,72.36 -100.74,130.33 -49.66,51.59 -118.47,117.97 -206.44,198.13 -87.06,80.17 -185.26,165.4 -293.2,255.09l-192.56 156.18zm2108.53 -5.27l0 113.81c36.18,-28.28 74.39,-59.69 114.52,-93.75 43.38,-36.89 88.27,-76.82 133.98,-119.49l374.27 -349.04 -352.49 659.47 -145.84 264.11c-113.31,204.11 -198.64,367.18 -255.8,488.49 -51.69,109.66 -77.73,177.15 -77.73,201.68 0,22.6 2.43,42.16 6.99,58.27 3.85,14.29 9.93,26.65 17.33,37.09 5.37,6.28 11.25,11.15 17.43,13.99 7.2,3.14 16.42,4.97 27.36,4.97 35.27,0 79.15,-20.07 131.24,-60.2 61.52,-47.43 130.54,-120.4 206.44,-218.71l107.63 -131.45c82.5,-98.41 172.8,-201.48 271.1,-309.01 94.76,-104.18 197.53,-212.32 307.08,-323.91 108.95,-110.87 221.24,-220.94 336.67,-329.68 114.42,-107.83 233.71,-216.17 357.55,-324.31 99.83,-90.91 194.99,-174.72 284.99,-250.53 91.92,-77.02 177.26,-145.43 255.7,-203.81 80.47,-60.91 146.04,-107.12 196.11,-138.14 61.62,-38.31 109.15,-57.67 141.99,-57.67 23.31,0 45.1,7.09 64.76,22.09 14.49,11.25 26.55,26.25 34.96,45 6.18,13.48 10.54,28.68 12.87,45.3l2.94 41.96c0,12.67 -2.74,27.97 -8.01,44.9 -157.29,524.47 -635.14,1335.25 -890.13,1877.56 -10.95,24.63 -19.97,48.14 -27.26,69.83l-0.3 1.62c-7.6,21.18 -13.38,39.32 -16.52,53.21 -2.74,11.86 -4.26,22.09 -4.26,30.4 0,25.74 2.64,48.04 7.8,66.18 4.97,16.82 12.06,31.62 21.28,43.88l1.62 2.33c7.3,10.34 14.8,18.04 21.99,22.3 4.76,2.53 10.84,4.05 17.74,4.05 70.64,0 224.79,-76.42 462.24,-229.04 233.3,-150.1 540.28,-371.94 920.23,-665.14l8.72 -93.85 -162.46 125.57c-153.24,117.46 -290.46,219.62 -410.96,305.36 -119.59,85.74 -215.97,150.8 -288.33,194.69 -84.52,51.28 -145.33,77.02 -182.12,77.02l-17.13 -2.03c-18.24,-3.75 -35.57,-11.25 -50.98,-22.5 -12.47,-9.12 -23.21,-20.37 -32.74,-33.34 -11.35,-15 -19.26,-32.23 -24.12,-50.88l-0.3 -1.01c-3.75,-15.51 -5.78,-31.82 -5.78,-48.34 0,-9.93 1.62,-21.28 4.56,-34.26 169.35,-558.42 592.37,-1305.96 846.45,-1857.69l45.4 -110.16c12.06,-30.81 20.67,-54.73 25.34,-70.84l0.3 -1.62c10.24,-32.53 15.4,-60.5 15.4,-84.32 0,-26.25 -1.93,-48.04 -5.27,-65.17 -3.04,-14.29 -6.99,-26.05 -11.65,-34.86l-6.28 -6.59 -8.51 -1.22c-60,0 -150.3,35.27 -270.19,105.3 -129.42,75.3 -288.03,189.82 -475.12,342.65 -189.21,154.05 -423.23,360.9 -701.73,619.74 -278.7,259.04 -602.41,570.79 -970.7,934.62l-347.52 343.36 1079.95 -2268.15 -144.22 0 -317.42 647.71c-20.88,41.05 -56.96,91.82 -108.04,152.12 -47.84,56.45 -110.57,123.14 -188.1,199.96 -74.39,74.79 -158.1,151.11 -250.53,228.94l-124.45 101.14zm0 328.77l0 18.04 16.92 -30.51 -16.92 12.47zm3299.05 -180.3l-6.18 4.97 -9.43 37.6 -14.8 71.55 30.4 -23.41 0 -90.71zm116.85 -311.64l54.83 -43.68 0 221.54 19.26 -36.79c93.85,-179.18 200.67,-343.06 320.05,-491.63 120.4,-149.89 253.77,-284.79 399.81,-404.17 147.05,-119.79 284.38,-210.3 411.77,-271.2 133.17,-63.65 256.51,-95.57 369.51,-95.57 43.48,0 83.81,5.98 120.7,17.63 39.02,12.06 73.38,30.61 102.77,54.73l1.01 1.01c61.62,51.99 92.53,121.72 92.53,208.77 0,128.81 -41.45,257.62 -124.35,386.03 -79.05,122.53 -196.31,245.06 -351.47,366.98 -154.15,122.22 -316.41,214.15 -485.86,275.46 -171.28,61.92 -349.55,92.83 -534.2,92.83 -122.73,-2.64 -219.52,-11.65 -341.54,-26.55l0 105.7 130.94 11.65 120.3 0.91c243.64,0 468.63,-32.94 674.46,-98.31 205.43,-65.27 393.73,-163.57 564.71,-294.41 333.63,-256.31 500.65,-543.73 500.65,-864.29 0,-55.23 -8.72,-103.88 -25.94,-145.03 -16.52,-39.53 -41.35,-73.68 -73.88,-102.16 -34.56,-29.19 -76.82,-51.59 -126.28,-66.59 -51.89,-15.81 -113.51,-23.82 -183.84,-23.82 -83.92,0 -173.4,13.99 -267.76,42.16 -96.99,28.88 -199.25,72.46 -305.97,130.43 -108.64,59.29 -218.3,130.94 -327.76,214.65 -108.04,82.7 -216.07,177.36 -322.69,283.37 -97.19,97.6 -182.12,196.01 -253.98,294.92 -60.81,83.61 -113.41,168.84 -157.8,255.39zm-2.13 529.44l-166.41 128.51 0 4.26c0,130.33 15.71,244.45 47.13,342.25 30.61,95.06 76.31,175.74 136.72,241.81 119.89,130.94 293.81,196.51 520.52,196.51 101.04,0 206.75,-15.71 316.61,-46.82 112.29,-32.03 229.65,-80.27 351.17,-144.42 123.85,-64.56 288.23,-170.16 492.95,-316.2 167.73,-119.79 362.32,-266.95 583.15,-441.16l0 -92.33c-193.98,151.62 -365.46,281.44 -514.13,389.27 -212.63,154.25 -380.66,264.92 -503.59,331.3 -124.76,67.6 -243.54,118.58 -355.93,152.63 -116.14,35.17 -225.5,52.8 -327.55,52.8 -93.24,0 -176.75,-13.99 -249.92,-41.65 -76.42,-28.88 -140.77,-72.56 -192.46,-130.54 -51.28,-57.16 -89.49,-127.19 -114.52,-209.28 -24.22,-79.76 -36.38,-170.36 -36.38,-271.2l2.33 -62.43 6.38 -59.69 3.95 -23.61zm2568.34 -356.13l0 92.12c45.81,-38.41 90.4,-77.53 133.88,-117.36 119.59,-109.66 231.27,-225.9 334.75,-348.13 104.39,-122.02 201.17,-251.04 290.06,-386.34 89.19,-135.7 172.29,-280.43 248.6,-433.26l26.86 -53.82 172.19 18.24 144.62 11.65c116.65,8.92 206.44,25.34 269.08,48.95 90.1,33.95 136.72,86.65 139.45,157.09l0.41 3.34c0,24.42 -10.74,63.85 -32.03,117.66 -18.65,47.03 -44.9,105.81 -78.34,176.14 -250.12,538.96 -488.7,1085.22 -732.23,1627.43l-35.27 86.04 -25.13 74.39c-6.79,20.98 -11.96,39.63 -15.1,55.03 -2.43,12.16 -3.75,23.11 -3.75,32.43 0,24.53 2.64,46.11 7.3,64.25 4.46,16.52 10.95,31.42 19.05,44.09 6.59,8.92 13.28,15.51 19.56,19.15 3.85,2.23 9.12,3.55 15.4,3.55 70.74,0 225.09,-76.31 462.95,-228.94 248.6,-159.52 580.52,-400.52 995.13,-722.5l144.93 -110.87 0 -92.33c-136.62,107.73 -263,206.04 -378.94,294.92 -152.63,117.06 -289.55,219.32 -409.75,306.07 -247.59,178.78 -399.61,268.27 -459.2,268.27l-16.72 -2.03c-19.46,-3.95 -36.89,-11.55 -52.5,-23.31 -13.58,-10.24 -25.03,-23.11 -35.17,-38.82 -9.53,-15.3 -16.32,-30.61 -20.57,-46.52 -3.95,-16.72 -6.08,-32.33 -6.08,-47.43 0,-8.72 2.03,-21.79 5.78,-37.6 116.35,-425.66 406.81,-938.37 591.87,-1350.04l100.84 -234.01c25.44,-61.21 43.88,-107.93 54.83,-140.16 9.83,-30.51 17.53,-58.48 22.4,-83.41 4.36,-22.4 6.69,-42.36 6.69,-59.29 0,-51.89 -8.31,-94.76 -24.73,-128.41 -15.2,-31.01 -38.71,-56.65 -70.03,-76.52 -36.79,-22.7 -87.97,-40.34 -152.83,-52.5 -69.22,-12.87 -154.25,-19.46 -255.09,-19.56l-35.57 3.45c-72.56,2.84 -137.12,4.36 -195.8,4.36l-118.68 0 37.6 -112.7 10.95 -38.11 7.7 -38.01 4.76 -35.07 1.52 -40.13c0,-24.83 -3.45,-46.92 -10.44,-65.47 -6.49,-17.23 -16.42,-33.04 -29.59,-46.62l-1.01 -1.01c-12.97,-13.78 -27.77,-24.32 -43.78,-31.11 -15.81,-6.69 -34.36,-10.13 -55.23,-10.13 -26.76,0 -50.47,4.86 -70.54,14.49 -20.57,9.83 -39.63,25.54 -56.75,46.52 -17.94,22.2 -31.72,48.34 -40.94,78.04 -9.63,31.01 -14.49,67.29 -14.49,108.24 0,24.93 2.03,47.03 5.78,65.37 3.65,16.52 8.72,30.91 15.3,42.57l1.42 2.64c5.98,11.55 14.8,23.01 25.74,33.75 13.28,12.97 29.69,25.34 48.65,36.38l67.09 39.53 -32.94 70.33c-62.84,134.39 -133.58,263.71 -211.21,387.25 -77.63,123.44 -162.86,242.22 -255.29,355.83 -92.23,114.12 -189.11,219.32 -290.26,315.09 -54.32,51.59 -110.16,100.54 -167.12,146.85zm-2278.69 -65.77l108.85 2.74c165.6,0 324.31,-27.36 475.82,-82.09 152.22,-55.03 298.37,-138.03 438.02,-248.91 140.77,-110.67 245.16,-219.01 313.57,-325.02 64.56,-99.93 96.79,-197.93 96.79,-293.6 0,-33.55 -10.13,-59.49 -30.4,-77.13 -13.07,-10.54 -28.28,-18.75 -45.1,-24.02 -19.26,-6.28 -42.46,-9.32 -69.83,-9.32 -88.17,0 -186.88,26.15 -295.73,78.14 -114.93,54.93 -240.8,138.24 -377.11,249.52 -137.53,112.9 -262.79,239.28 -374.88,378.84 -87.46,108.75 -167.43,225.7 -239.99,350.86z"/>
   <path class="fil2" d="M595.52 53686.28c30060.66,-10361.93 64101.82,-10113.53 92679.56,185.06"/>
   <path class="fil1" d="M84462.85 44090.23l-533.09 -138.74 -536.63 -123.34 -154.55 -100.03 -22.6 -182.73 69.02 -581.43 130.43 -567.24 352.79 -1113.4 114.93 -570.79 391.1 -1701.82 84.42 -577.88 172.8 -541.4 84.83 -158 182.63 -22.6 533.19 138.64 551.94 126.89 97.8 -74.39 11.65 -191.04 81.99 -497.61 66.79 -501.16 225.5 -981.24 103.68 -169.86 -9.63 -99.02 -553.15 -191.75 -574.23 -99.73 -570.79 -115.03 -574.44 -99.73 -1134.48 -260.77 -574.23 -99.73 -577.88 -84.32 -556.7 -176.45 -577.88 -84.32 -41.15 39.02 14.19 148.57 -194.79 988.24 -174.11 476.53 -158.81 479.98 -57.57 180.5 33.14 136.82 620.35 110.16 616.8 125.67 74.39 97.8 -16.42 141.48 -178.67 636.86 -209.28 629.87 22.6 182.73 -55.44 100.23 -654.4 -102.06 -648.82 -197.42 -1280.72 -326.64 -651.05 -117.26 -633.32 -194.08 -28.38 -87.16 81.28 -142.8 295.93 -1287.82 1.11 -145.03 78.95 -62.53 604.94 106.62 608.49 91.52 71.96 -31.92 1.01 -145.03 82.09 -497.61 66.69 -501.26 208.37 -484.74 143.41 -483.63 -75.71 -162.66 -192.15 -76.42 -491.94 -177.66 -1042.56 -239.58 -509.37 -100.94 -517.78 -135.1 -514.24 -150.4 -1049.55 -208.98 -510.79 -165.91 -512.92 -85.54 -201.68 34.36 -130.64 147.46 -112.8 490.72 -54.93 520.01 -177.56 491.84 -112.8 490.62 60.2 159.11 192.36 76.52 388.06 137.53 406.91 125.87 154.45 100.03 26.15 167.43 -106.72 605.04 -164.59 575.45 -274.85 1195.9 -103.17 589.74 -91.52 608.49 -195.19 568.46 -183.34 587.41 -76.11 611.93 -149.28 579.1 -80.17 -2.23 -154.55 -100.13 -421 -64.46 -417.45 -79.76 -127.39 -77.73 -71.96 31.92 -218.81 530.75 -384 1671.21 -50.67 149.69 43.68 90.81 553.15 191.65 577.98 84.42 563.69 145.74 560.25 160.94 581.33 69.02 562.48 80.98 567.24 130.33 563.79 145.74 553.15 191.65 570.79 115.03 97.8 -74.39 19.97 -156.78 223.06 -1110.97 157.49 -544.84 80.77 -562.58 -74.29 -97.7 -156.89 -19.97 -497.61 -82.09 -449.47 -151.72 -81.28 -67.09 179.69 -781.89 118.68 -376.3 145.94 -353.8 4.56 -160.33 75.3 -47.33 646.29 67.9 1250.22 319.45 628.55 144.52 635.65 113.81 599.16 202.29 28.38 87.26 -81.28 142.7 -127.9 696.96 -146.65 708.72 -31.72 138.03 -78.95 62.53 -981.34 -225.5 -186.17 37.9 -103.68 169.86 -158.71 480.08 -85.54 512.92 -97.5 494.27 -100.94 509.37 -100.13 154.55 9.53 99.12 560.25 160.94 596.73 72.67 1141.57 230.06 1701.82 391.1 570.79 115.13 556.7 176.24 558.93 96.28 60.2 -50.77 -29.69 -152.12 116.35 -505.92 97.39 -494.17 116.35 -505.92 158.61 -480.08 81.28 -142.7 -43.68 -90.71zm-13545.44 -11872.81l-277.69 -63.34 -298.77 -18.04 -583.66 -19.05 -1144.51 -98.41 -578.39 -65.77 -576.56 -81.48 -578.39 -65.77 -1713.88 -242.52 -582.04 -34.56 -580.11 -50.07 -574.74 -97.09 -557.31 -110.98 -581.83 -34.46 -580.11 -50.17 -574.84 -96.99 -569.87 -1.52 -95.47 4.97 -81.69 22.3 -38.31 58.98 -26.45 91.92 -151.01 632.1 -74.69 656.42 -25.94 646.19 -27.77 661.8 -104.29 637.27 -41.55 644.47 3.14 111.18 24.12 66.08 43.38 36.59 105.81 43.68 541.7 109.25 550.72 30.91 557.31 110.87 262.18 61.52 300.6 2.53 113 -18.85 85.23 -53.71 53.92 -57.06 43.78 -105.91 77.02 -260.36 54.83 -342.15 55.44 -627.03 76.72 -117.87 144.32 -15.3 302.32 -12.97 284.89 0.61 92.02 26.35 100.43 90.6 38.01 83.51 18.85 112.9 -46.52 548.9 -316.51 2782.18 -95.37 559.13 -93.44 543.52 -64.05 562.68 -93.54 543.52 -3.85 173.71 -55.74 72.77 -501.97 -41.15 -201.48 -38.82 -316.1 -4.26 -177.36 27.36 -54.02 57.06 -41.86 90.3 -78.95 276.07 -10.95 236.24 -10.03 505.42 -74.39 514.13 -41.25 501.97 -21.28 187.49 83.1 104.49 307.28 82.4 250.12 28.48 583.66 18.95 2257.91 193.47 562.68 64.05 564.4 48.34 573.02 112.7 279.62 47.53 271 -16.52 85.33 -53.71 15.91 -140.67 46.72 -548.79 62.23 -547.17 122.83 -524.27 39.12 -343.87 -8.11 -206.75 -51.89 -100.84 -138.85 -31.72 -552.44 -15.3 -529.54 -76.11 -34.56 -114.72 64.76 -151.01 32.63 -566.23 46.72 -548.9 79.56 -560.85 93.54 -543.42 79.66 -560.96 77.83 -545.35 126.28 -1109.75 32.74 -566.23 46.62 -548.9 45.5 -121.41 52.19 -41.55 212.12 -55.03 237.96 -4.66 236.24 11.05 92.02 26.25 84.93 88.88 36.18 99.12 15.2 144.22 -17.03 568.05 45.3 575.14 4.97 95.57 22.4 81.69 41.65 52.3 91.92 26.25 309.01 66.89 236.34 10.95 571.6 -14.09 539.88 124.76 326.44 52.9 237.96 -4.56 80.06 -6.69 83.51 -38.01 55.64 -72.87 26.45 -91.92 96.58 -432.45 7.5 -204.92 25.94 -646.19 90.4 -654.7 104.18 -637.27 57.26 -642.64 43.38 -660.07 -27.26 -177.26 -57.26 -54.02 -90.3 -41.86zm-18560.5 9741.48l-1191.74 -101.14 -615.28 11.25 -595.72 -50.67 -183.03 -105.2 -52.7 -176.45 -16.82 -521.03 77.43 -515.45 -1.93 -504.4 92.23 -498.83 58.07 -185.77 178.27 -84.02 361.2 21.08 359.38 52.5 142.29 -7.4 68.31 -90.5 130.03 -606.97 35.88 -612.54 -11.35 -615.18 4.46 -614.37 20.17 -613.35 35.78 -612.44 67.19 -610.72 83 -609.7 67.19 -610.62 4.46 -614.26 -107.23 -53.61 -175.43 36.99 -392.72 -22.9 -388.87 -85.84 -184.76 -73.88 -70.23 -145.84 14.59 -519.2 29.39 -502.48 -1.11 -520.11 61.82 -516.46 88.58 -168.13 193.07 -67.4 534.81 15.4 530.35 94.05 1085.43 32.03 532.17 62.63 532.88 47.03 535.92 -0.2 1089.08 -30.81 532.07 62.53 182.93 105.4 83.21 193.88 -30.4 518.29 -108.75 513.63 16.82 520.92 -45.1 501.67 -88.68 168.24 -160.74 53.61 -426.77 22.2 -439.74 -25.74 -156.07 -24.83 -82.19 58.27 -64.56 563.49 29.8 569.06 -64.46 563.49 -79.25 546.97 -52.09 1698.78 -16.52 550.62 -48.75 564.3 -33.04 565.42 -28.58 219.01 86.85 131.04 592.17 113.51 629.97 5.37 613.45 20.07 601.29 -43.58 190.33 -20.37 101.55 -120.2 70.94 -673.35 86.65 -672.64 73.78 -184.65 161.75 -69.32 583.76 -13.18 594.91 66.28 582.95 2.64 579.2 65.37 167.22 104.39 50.88 207.86 -7.09 661.39 -86.65 672.44 -39.53 675.38 -55.23 674.36 39.02 679.84 -55.13 674.46 -87.87 152.43 -191.14 36.08 -599.57 12.16 -610.51 -67.19 -597.75 -19.26 -1209.27 -70.74 -1191.74 -101.14 -610.51 -67.29 -596.83 -34.96 -597.64 -19.26 -598.66 -3.45 -615.18 11.25zm-10163.79 -6109.91l12.87 -110.57 -18.34 -93.85 -167.63 -389.07 -183.74 -404.17 -151.51 -373.77 -136.21 -389.78 -81.48 -108.04 -142.39 -27.67 -141.58 3.75 -124.96 34.76 -75.71 112.19 -115.84 380.66 -131.14 396.98 -162.56 397.69 -163.47 366.27 -28.07 126.58 35.17 140.77 97.7 123.34 112.09 75.71 110.57 12.77 582.24 0.3 566.94 16.52 125.06 -34.76 122.93 -113.41 59.09 -143.2zm2189.91 6047.99l-15.71 0.41 -598.45 -15.61 -597.95 0 -79.05 -13.58 -79.46 -29.39 -80.67 -76.52 -49.36 -77.43 -34.26 -109.25 10.64 -787.06 -10.84 -408.94 4.86 -409.34 43.48 -142.7 76.11 -96.48 93.14 -49.66 172.19 -35.98 125.77 -3.34 124.56 -50.47 76.11 -96.48 29.39 -79.46 28.88 -95.16 13.78 -79.05 -2.13 -78.65 -84.12 -202.39 -67.8 -186.99 -49.66 -93.14 -64.96 -76.92 -80.27 -60.91 -142.39 -27.67 -596.83 47.23 -580.62 62.63 -1291.97 -60.3 -15.71 0.41 -550.01 30.3 -534.71 14.09 -155.57 67.09 -74.49 159.32 -72.77 222.25 -73.17 206.55 2.84 109.96 33.95 93.64 81.48 107.93 80.77 76.52 110.87 28.58 298.77 -7.91 110.98 28.48 111.68 60.1 82.09 123.74 50.77 140.26 11.25 424.54 26.55 408.53 -4.97 409.24 10.44 393.13 -11.55 157.7 -91.42 112.6 -108.44 65.77 -125.47 19.05 -1225.69 63.85 -1289.54 34.05 -1306.97 -28.28 -1209.98 63.44 -94.76 -13.28 -111.38 -44.29 -96.79 -91.82 -35.98 -172.19 -12.06 -456.06 3.65 -456.47 -43.98 -470.86 -43.48 -455.35 11.55 -157.59 91.11 -128.31 124.05 -66.28 125.37 -19.05 785.54 -52.19 109.25 -34.36 76.11 -96.38 354.92 -859.22 239.18 -478.46 238.27 -509.88 207.25 -493.26 223.06 -493.66 206.85 -509.17 207.36 -493.26 222.96 -493.76 222.66 -509.37 191.14 -508.76 189.72 -555.69 12.97 -110.57 -65.47 -92.63 -158.91 -58.78 -597.64 15.81 -158.41 -43.07 -113.1 -107.12 -50.37 -124.56 -17.94 -78.24 -27.77 -455.66 -28.17 -471.26 -24.12 -912.12 26.86 -173.91 106.41 -144.42 155.97 -51.28 550.01 -30.4 533.8 -45.5 567.34 32.23 1102.55 33.85 550.82 1.11 1114.92 -92.43 31.42 -0.81 1038.81 3.95 110.37 12.97 79.46 29.29 64.56 61.21 49.76 93.14 435.49 995.63 281.74 543.32 265.83 528.12 296.74 511.4 297.25 527.21 265.73 528.02 250.02 528.52 250.43 544.13 250.02 528.42 235.13 560.25 218.91 545.04 234.82 544.64 234.31 528.83 264.01 465.08 263.3 433.66 96.79 91.82 110.98 28.68 361.71 -9.63 376.91 -25.64 95.16 28.88 80.37 60.81 64.46 61.31 65.06 76.92 48.85 61.72 2.03 78.54 28.17 471.47 27.77 455.56 -2.74 487.88 -3.65 456.47 -13.68 79.05 -28.99 95.27 -61.31 64.56 -61.52 48.75 -77.94 33.55 -93.85 18.24 -1194.38 63.04 -630.28 -30.51 -661.29 -14.09 -628.25 48.14 -644.26 32.74zm-19426.92 1606.15l-715.92 106.62 -485.86 45.61 -351.17 -18.85 -126.89 0.1 -80.06 -5.68 -70.33 -54.52 -42.97 -89.69 -84.42 -290.56 -22.09 -425.35 -61.52 -610.62 -35.78 -407.82 9.22 -302.42 1.82 -111.28 36.89 -83.92 38.92 -68.41 89.69 -42.97 232.08 -45.3 339.72 52.09 216.48 -43.17 89.59 -43.17 56.55 -54.63 21.38 -81.99 17.33 -113.31 3.34 -349.24 -43.68 -470.15 -102.56 -684.7 -106.11 -462.35 -102.56 -684.7 -146.35 -1154.85 -28.07 -472.18 -71.35 -688.55 -28.07 -472.18 -74.79 -339.41 -45 -105.4 -54.73 -56.35 -83.92 -36.99 -97.6 -19.46 -222.46 -3.45 -308.2 70.64 -222.46 -3.45 -95.57 -3.75 -68.41 -38.92 -37.09 -42.87 -27.57 -91.62 -84.22 -290.66 -98.31 -399.81 -75.1 -592.98 -20.17 -409.75 9.22 -302.52 1.72 -111.18 19.46 -97.6 38.82 -68.41 105.4 -45.1 339.41 -74.59 495.59 32.33 347.32 -12.26 827.09 -104.69 361 -29.9 573.52 -104.39 230.06 -60.91 934.42 -134.18 593.08 -75.1 595.01 -59.49 234.21 -29.69 688.55 -71.35 251.75 -15.91 579.4 -57.57 591.16 -90.71 592.98 -75.1 339.41 -74.79 475.93 -123.74 347.32 -12.16 97.5 19.26 54.83 56.55 41.05 74.08 176.55 643.55 110.77 874.02 70.94 434.98 110.77 874.02 -8.92 556.09 -17.43 113.2 -3.65 95.57 -54.52 70.44 -89.69 43.07 -274.95 82.29 -409.75 20.27 -298.47 21.99 -280.93 35.57 -392.21 33.75 -397.99 -13.07 -68.41 -38.82 -52.8 -40.94 -42.97 -89.69 -72.56 -196.92 11.25 -286.81 -10.13 -204.92 -19.76 -156.07 -25.44 -76.01 -50.77 -25.34 -409.75 20.27 -569.57 135.5 -401.84 82.6 -987.12 93.34 -403.87 66.99 -107.23 29.39 -54.52 70.33 -38.92 68.41 -3.75 95.57 47.43 374.68 47.73 501.36 92.12 352.99 45.1 105.2 41.15 74.08 66.38 23.41 113.2 17.33 318.03 7.3 234.11 -29.69 216.58 -43.28 327.66 -41.45 325.83 -57.06 216.48 -43.38 220.43 -11.96 444.91 6.99 97.6 19.36 68.41 38.92 43.07 89.69 84.32 290.56 4.56 411.77 23.92 313.97 53.21 294.72 66.99 403.67 6.38 300.6 -17.43 113.1 -108.95 140.67 -105.4 45 -292.49 68.81 -429.31 -9.02 -316.2 8.31 -294.51 53.21 -198.94 56.86 -510.99 96.48 -169.65 37.3 -130.64 95.87 -93.44 138.64 -11.35 160.03 57.06 325.73 45.2 232.19 58.88 214.55 41.45 327.76 25.64 76.01 23.51 60.5 52.7 40.84 64.36 7.6 419.37 -68.92 557.92 -102.36 1123.63 -142.29 298.57 -21.99 405.69 -51.38 80.17 5.68 64.25 7.7 46.92 -5.88 40.84 -52.7 15.2 -255.7 -39.32 -185.26 -54.93 -183.34 13.18 -271.31 19.46 -97.5 23.21 -66.38 74.08 -41.15 107.33 -29.49 278.91 -51.08 388.26 -65.06 296.54 -37.5 477.85 -108.14 200.87 -41.35 300.49 -6.38 113.1 17.43 85.94 52.6 56.75 72.06 45.1 105.3 72.67 323.8 -36.28 464.37 12.26 347.32 57.06 325.83 86.65 432.95 43.48 343.36 72.67 323.8 88.58 448.66 10.24 331.71 -17.33 113.1 -36.99 84.12 -72.06 56.55 -105.2 45.1 -337.49 90.3 -249.72 31.62 -251.64 16.01 -361 29.9 -2746.81 347.92 -505.32 16.42 -345.29 27.87 -356.94 61.01 -477.95 108.14 -358.87 45.5 -844.73 91.11 -717.94 90.91 -485.76 45.61zm-3830.31 -2049.85l-541.5 100.64 -538.25 116.04 -182.42 -24.93 -98 -155.87 -184.25 -555.69 -122.63 -568.96 -153.14 -1157.99 -138.14 -565.62 -368.19 -1706.89 -168.74 -559.03 -73.38 -563.59 9.73 -178.98 155.77 -98 541.6 -100.74 553.56 -119.39 57.06 -108.85 -70.54 -177.97 -136.92 -485.45 -152.22 -482.11 -212.32 -984.18 21.79 -197.83 -50.77 -85.54 -582.14 61.11 -562.37 153.44 -565.62 138.14 -562.48 153.54 -1137.82 245.36 -562.37 153.44 -559.03 168.84 -579 76.62 -558.93 168.84 -20.78 52.8 75.91 128.51 243.03 977.49 44.59 505.32 60 502.07 24.42 187.9 88.07 109.76 608.49 -163.47 611.83 -148.07 108.85 56.96 45.2 135.1 108.54 652.47 77.83 659.16 98 155.87 -7.6 114.32 -635.95 185.36 -671.22 96.58 -1298.26 247.79 -639.3 170.06 -655.82 93.14 -62.73 -66.89 12.97 -163.68 -278.6 -1291.77 -60.5 -131.75 44.9 -90.2 593.08 -160.13 589.74 -175.43 51.59 -59.49 -60.61 -131.75 -136.82 -485.45 -152.32 -482.11 -17.13 -527.31 -75.4 -498.83 -137.63 -115.13 -206.44 12.36 -520.72 47.94 -1045.7 225.5 -504.1 124.86 -526.19 97.39 -529.44 82.09 -1039.01 256.21 -532.88 66.59 -500.76 140.26 -168.03 116.65 -55.74 189.01 106.11 492.24 170.97 494.17 47.94 520.62 106.11 492.14 122.12 118.47 206.55 -12.26 409.75 -40.23 421.91 -58.68 182.32 25.03 94.76 140.47 160.13 593.08 95.16 590.95 258.74 1199.44 156.89 577.78 175.43 589.84 64.46 597.54 83.31 609.7 190.84 586.39 110.57 587.81 -73.58 31.92 -182.32 -25.03 -408.63 120.2 -411.77 105 -148.37 -16.32 -51.59 59.49 27.16 573.42 361.5 1676.18 17.74 157.09 78.04 63.65 582.24 -61.21 559.13 -168.95 572.31 -107.23 575.55 -92.02 555.69 -184.15 543.63 -165.5 568.96 -122.73 572.41 -107.33 582.24 -61.21 565.62 -138.24 56.96 -108.75 -48.55 -150.5 -269.48 -1100.53 -88.68 -560.25 -165.6 -543.63 -108.85 -56.96 -150.4 48.44 -485.45 136.92 -471.26 53.41 -102.26 -26.25 -169.15 -784.22 -52.19 -391.1 -18.04 -382.38 -63.85 -147.05 48.14 -74.79 613.96 -212.93 1267.55 -241.21 630.48 -136.01 623.89 -166.72 628.35 -71.15 62.73 66.99 -12.97 163.68 179.99 685.41 168.03 703.96 29.8 138.44 -44.9 90.1 -984.28 212.32 -152.53 113.41 -21.69 197.83 59.9 501.97 140.26 500.76 121.52 488.9 124.86 504.1 -25.13 182.42 50.77 85.64 575.55 -91.92 571.19 -187.59 1131.24 -276.17 1706.99 -368.09 565.62 -138.14 578.89 -76.62 546.97 -150.1 32.94 -71.45 -91.42 -125.16 -109.45 -507.44 -121.52 -488.9 -109.45 -507.44 -60 -501.97 12.97 -163.68 -78.14 -63.65z"/>
   <path class="fil1" d="M51919.9 25806.92c-188.71,-5.88 -336.98,-163.88 -331.1,-352.59 5.88,-188.71 163.88,-336.98 352.59,-331.1 6426.42,214.25 12644.36,763.75 18757.32,1698.78 6116.09,935.53 12138.34,2258.82 18171.73,4020.44 181.31,52.5 285.8,242.32 233.3,423.63 -52.5,181.31 -242.32,285.8 -423.63,233.3 -5994.58,-1750.26 -11987.84,-3066.56 -18083.36,-3998.95 -6098.36,-932.8 -12289.14,-1480.58 -18676.85,-1693.51zm37884.55 6025.89c-181.31,-54.02 -284.58,-245.06 -230.56,-426.37 54.02,-181.31 245.06,-284.58 426.37,-230.56 1114.21,334.55 2001.2,1072.25 2543,2009.1 541.9,937.16 738.92,2073.56 473.49,3205.41l-397.99 1696.85c-42.87,184.35 -227.22,298.97 -411.57,256.1 -184.35,-42.87 -298.97,-227.22 -256.1,-411.57l397.99 -1696.85c224.38,-956.82 58.48,-1916.57 -398.5,-2706.78 -457.18,-790.51 -1205.73,-1412.98 -2146.13,-1695.33zm1877.86 7244.39c42.87,-184.35 227.22,-298.97 411.57,-256.1 184.35,42.87 298.97,227.22 256.1,411.57l-2391.79 10197.34c-142.8,609.4 -390.9,1152.21 -739.83,1622.77 -348.63,469.95 -796.18,864.79 -1338.19,1178.46 -542.81,314.28 -1108.13,506.03 -1689.15,574.23 -580.21,68.11 -1173.7,12.67 -1773.98,-167.02 -4295.9,-1285.99 -8646.22,-2344.36 -13035.46,-3175 -4409.61,-834.59 -8865.84,-1440.95 -13352.37,-1819.18 -188.71,-15.51 -329.18,-181.31 -313.67,-370.02 15.51,-188.71 181.31,-329.18 370.02,-313.67 4502.24,379.54 8981.58,989.55 13422.1,1829.92 4418.53,836.21 8792.16,1899.85 13105.19,3191.01 510.28,152.73 1012.36,200.16 1500.34,142.9 487.07,-57.16 963.61,-219.42 1423.82,-485.86 461.13,-266.85 839.56,-599.67 1131.64,-993.4 291.78,-393.43 500.25,-851.82 621.87,-1370.62l2391.79 -10197.34zm-47701.63 -13327.95c-188.71,2.94 -344.28,-147.76 -347.22,-336.47 -2.94,-188.71 147.76,-344.28 336.47,-347.22 477.04,-8.92 957.43,-15.81 1440.34,-20.37 577.17,-5.47 1054.52,-8.21 1435.58,-8.21 375.9,0 851.72,2.74 1426.87,8.11 478.86,4.46 955.5,11.15 1428.69,19.97 188.71,2.94 339.41,158.51 336.47,347.22 -2.94,188.71 -158.51,339.41 -347.22,336.47 -476.84,-8.92 -951.45,-15.61 -1423.22,-19.97 -373.77,-3.45 -847.97,-5.27 -1421.6,-5.27 -574.13,0 -1052.69,1.82 -1430.31,5.37 -475.52,4.46 -954.08,11.35 -1434.87,20.37zm12623.08 21095.09c188.71,13.28 331,177.26 317.72,365.96 -13.28,188.71 -177.26,331 -365.96,317.72 -1624.8,-118.58 -3240.98,-207.15 -4847.43,-265.63 -1596.42,-58.07 -3217.67,-87.16 -4862.23,-87.16 -1602.2,0 -3178.65,27.26 -4728.45,81.58 -1557.7,54.63 -3125.85,137.73 -4703.62,249.11 -188.71,13.28 -352.69,-129.01 -365.96,-317.72 -13.28,-188.71 129.01,-352.69 317.72,-365.96 1560.04,-110.06 3137.2,-193.17 4730.37,-249.11 1603.72,-56.25 3187.37,-84.42 4749.93,-84.42 1608.78,0 3237.94,30 4886.35,90 1638.48,59.59 3262.87,148.17 4871.55,265.63zm-20790.44 96.28c188.71,-15.51 354.51,124.96 370.02,313.67 15.51,188.71 -124.96,354.51 -313.67,370.02 -4603.59,379.04 -9171.5,997.86 -13690.98,1857.69 -4500.92,856.38 -8955.94,1951.64 -13352.37,3286.89 -599.16,181.92 -1190.93,240.09 -1768.91,175.33 -579.6,-65.06 -1144.01,-253.16 -1686.92,-562.98 -544.13,-310.53 -993.3,-700.92 -1343.56,-1166.1l0 -1.32c-350.66,-465.79 -601.9,-1005.06 -749.56,-1612.33l-2549.49 -10480.91c-44.39,-183.64 68.41,-368.6 252.05,-412.99 183.64,-44.39 368.6,68.41 412.99,252.05l2549.49 10480.91c125.37,515.65 336.88,971.31 630.99,1362.21 295.53,391.1 674.87,720.58 1134.99,983.17 461.13,263.2 937.66,422.62 1424.03,477.24 488.09,54.73 988.34,5.37 1495.48,-148.57 4425.12,-1343.96 8904.35,-2445.4 13424.74,-3305.54 4550.38,-865.71 9141.61,-1488.08 13760.7,-1868.43zm-34746.34 -9320.99c44.39,183.64 -68.41,368.6 -252.05,412.99 -183.64,44.39 -368.6,-68.41 -412.99,-252.05l-276.17 -1135.19c-274.55,-1129.01 -87.67,-2265.82 445.12,-3206.52 532.98,-940.7 1411.76,-1685.5 2521.21,-2030.39l1.32 0c630.38,-195.9 1229.64,-378.63 1790.09,-545.55 569.57,-169.55 1140.05,-335.56 1706.38,-496.2 182.12,-51.08 371.23,55.13 422.31,237.25 51.08,182.12 -55.13,371.23 -237.25,422.31 -539.47,153.03 -1106.81,318.23 -1695.64,493.56 -612.03,182.32 -1207.96,363.73 -1783.61,542.51 -937.36,291.88 -1679.83,920.54 -2129.5,1714.39 -449.68,793.95 -607.27,1754.01 -375.39,2707.69l276.17 1135.19zm7084.97 -6944.2c-182.83,48.85 -370.73,-59.79 -419.58,-242.62 -48.85,-182.83 59.79,-370.73 242.62,-419.58 5494.33,-1471.56 11013.59,-2595.8 16621.12,-3401.41 5601.86,-804.59 11295.84,-1291.16 17145.19,-1487.77 188.71,-5.88 346.71,142.39 352.59,331.1 5.88,188.71 -142.39,346.71 -331.1,352.59 -5816.31,195.5 -11485.16,680.34 -17070.19,1482.5 -5579.05,801.45 -11071.66,1920.43 -16540.65,3385.19z"/>
   <path class="fil1" d="M77184.51 25190.52l14.09 16.52 9.93 15.61 24.93 27.77 38.21 8.51 34.36 -14.49 20.27 -31.11 6.28 -87.56 0.61 -62.23 11.05 -148.78 14.7 -85.74 18.04 -80.47 74.9 -294.72 14.19 -23.61 3.75 -16.92 -157.7 -30.81 -85.74 -14.7 -60.71 -27.06 -9.32 -37.7 19.76 -48.95 34.66 -134.59 39.73 -137.93 27.06 -140.87 47.43 -131.75 9.83 -24.53 12.26 -15.1 46.21 -7.4 173.3 20.98 176.04 48.34 349.44 69.22 171.88 47.43 172.8 43.17 174.72 34.66 170.77 51.59 39.63 22.2 7.4 46.21 -21.79 137.53 -39.83 137.93 -27.06 140.77 -42.97 132.76 -21.38 35.27 -18.75 4.76 -27.36 2.74 -109.76 -6.79 -112.09 -16.22 -49.86 -15.51 -26.35 -1.52 -7.2 11.76 -35.98 161.04 -15.81 169.96 -49.76 162.56 -44.49 159.11 -23.31 163.78 -24.32 168.13 -89.08 318.33 -72.97 326.24 -28.58 167.22 -23.31 163.88 -101.75 315.39 -22.3 39.63 -45.2 3.14 -162.46 -9.53 -162.05 -31.92 -159.11 -44.49 -153.03 -52.09 -39.02 -4.26 -23.51 -14.19 -70.03 -144.72 -65.67 -143.81 -61.42 -142.8 -64.86 -147.97 -65.67 -143.81 -66.69 -139.45 -69.93 -144.72 -66.69 -139.55 -59.59 -151.31 -56.35 -146.14 -76.01 -137.22 -75.1 -141.38 -11.86 -47.13 -7.4 -46.21 -18.34 -17.43 -30.61 -2.33 -38.61 13.58 -2.84 12.77 -54.12 281.54 -22.9 141.78 -27.06 140.77 -70.03 233.4 -7.6 33.95 21.59 22.7 259.04 75.71 20.67 26.86 -9.53 42.46 -26.15 136.51 -31.21 139.86 -18.65 142.7 -34.66 134.69 -36.79 45.1 -54.63 5.68 -174.72 -34.66 -174.22 -56.86 -355.53 -61.72 -351.78 -78.85 -175.63 -30.4 -175.13 -52.5 -46.01 -32.53 -15.1 -52.4 26.15 -136.51 48.24 -136.11 22.8 -141.78 38.92 -133.68 27.36 -42.87 51.38 -10.74 43.28 5.27 73.48 29.8 113.51 29.9 31.42 -1.82 25.13 -12.16 36.79 -45.3 38.41 -151.51 22.3 -159.72 35.17 -156.78 39.32 -155.87 30.81 -157.7 35.17 -156.78 29.9 -153.54 26.65 -158.71 47.73 -153.95 21.59 -155.47 -1.42 -53.61 -13.18 -20.78 -24.42 -9.93 -114.42 -25.64 -53.82 1.42 -65.77 -23.72 -33.44 -29.69 -2.23 -49.46 9.12 -140.37 27.06 -140.87 22.9 -141.68 43.88 -137.02 30.81 -37.6 54.63 -5.57 169.96 15.81 169.55 38.01 497.21 124.56 162.36 49.76 29.69 6.69 17.43 21.59 75.1 141.48 70.03 144.72 110.67 300.7 300.49 565.72 54.42 154.55 55.34 150.3 75.2 141.48 70.84 140.47zm5082.76 2348.31l-5.98 -72.56 -11.25 -69.22 -25.84 -63.54 -40.34 -58.07 -49.86 -55.64 -47.53 -46.21 -52.7 -42.97 -67.19 -37.3 -74.39 -25.54 -99.42 -13.38 -91.42 10.74 -81.48 26.15 -74.9 36.59 -73.58 50.37 -63.65 65.77 -51.99 73.07 -27.47 82.8 -11.45 90.81 6.49 90.5 29.49 86.75 44.19 80.98 54.02 56.65 68.71 51.08 85.23 36.79 96.48 26.05 80.57 18.04 73.88 7.6 70.64 2.53 65.06 -12.06 68.81 -29.19 59.9 -48.95 47.23 -51.69 40.54 -62.02 32.13 -64.05 19.46 -66.99 7.6 -73.88zm-3067.88 -316.2l206.55 119.59 84.62 38.82 105.1 36.99 110.37 27.97 114.22 25.54 109.25 17.84 113.61 -1.22 111.89 -8.31 107.93 -5.88 116.45 -13.88 103.27 -30.1 109.45 -42.26 93.54 -45.71 101.65 -67.19 81.28 -65.06 153.03 -162.46 75.71 -99.73 38.51 -97.9 38.92 -114.62 41.15 -94.05 38.92 -114.62 20.98 -108.64 9.02 -114.62 6.18 -101.85 -2.33 -123.85 -23.82 -101.96 -37.5 -115.03 -28.48 -96.38 -47.84 -114.02 -50.98 -84.73 -73.48 -103.07 -72.26 -79.56 -92.53 -77.43 -101.14 -69.22 -92.73 -47.43 -99.83 -45.61 -106.72 -43.98 -124.86 -37.9 -91.31 -23.82 -106.82 -13.88 -113.91 -12.16 -98.81 -5.47 -126.28 -1.52 -98.41 7.91 -121.72 22.7 -100.23 30.91 -109.45 42.16 -95.27 38.71 -109.05 55.54 -69.63 57.77 -95.37 98.51 -55.84 70.84 -68.92 114.52 -56.96 90.5 -50.27 105.4 -36.79 105.1 -28.17 110.37 -20.17 105.4 -9.73 117.77 -3.75 105.81 6.89 118.17 9.73 105.5 20.27 117.87 45 96.69 64.05 101.14 54.52 98.81 63.04 90.71 79.86 74.49 90.91 70.44 95.47 64.66zm178.37 -1213.12l32.53 -86.04 37.19 -61.72 44.8 -66.59 41.35 -50.67 87.26 -77.13 105.91 -56.25 138.03 -35.78 141.08 -5.07 116.45 16.01 150.1 43.58 95.16 51.38 104.29 99.93 60.81 100.33 54.83 112.19 28.48 126.38 -6.59 148.47 -20.98 108.64 -34.76 125.57 -54.83 110.98 -84.22 107.73 -92.83 72.56 -100.94 64.05 -129.93 44.19 -120.6 3.04 -137.93 -24.22 -126.58 -45 -103.27 -59.69 -90.1 -73.58 -82.4 -108.44 -42.16 -79.35 -31.92 -80.57 -16.11 -76.92 -4.26 -70.84 2.03 -82.9 13.07 -103.68 27.06 -90.6zm5478.82 2060.39l71.45 -243.44 9.12 -116.45 -27.36 -28.58 -37.6 -8.51 -407.01 -96.69 -40.54 -20.37 -19.66 -38.31 0.71 -27.97 72.26 -423.73 124.86 -406.4 72.26 -423.63 108.64 -410.05 187.59 -837.84 87.56 -290.56 4.26 -44.19 1.93 -84.22 -5.27 -51.79 -31.52 -35.37 -68.71 -20.98 -61.42 -2.53 -109.25 9.43 -221.54 57.57 -395.86 29.9 -391.1 58.98 -246.58 18.14 -147.56 29.09 -30.4 10.03 -31.72 15.51 -25.64 39.32 -27.06 95.47 -35.07 257.22 -73.07 226.11 -10.34 121.82 8.82 35.88 22.7 50.07 63.14 19.86 160.53 13.48 231.68 -27.16 44.19 4.26 44.8 26.96 15.51 31.62 -1.93 33.44 -51.59 180.2 -61.31 223.17 -33.14 223.77 -27.16 197.02 -123.64 400.93 -91.31 408.23 -13.78 36.38 -34.15 26.25 -38.71 -3.14 -213.13 -30.71 -294.72 -94.25 -39.42 25.03 -43.78 119.89 -21.89 248.91 -71.45 243.44 -15.61 120.6 -8.41 37.6 11.25 25.13 28.58 23.31 173.71 55.74 226.71 45.2 406.4 74.08 808.65 192.15 314.48 81.79 85.84 19.15 49.56 5.57 37.09 -14.39 50.07 -22.5 34.15 -26.25 28.17 -100.84 42.77 -266.85z"/>
   <path class="fil0" d="M48024.93 437.62c-171.48,5152.69 -160.03,10264.13 -275.97,15449.75 -172.9,-5167.28 -168.64,-10321.29 -434.07,-15451.37 -1.42,-279.82 158.81,-436 355.12,-436 197.12,0 356.23,157.59 354.92,437.62z"/>
   <path class="fil0" d="M34801.06 2794.24c1639.29,4887.97 3435.56,9673.38 5138.4,14572.8 -1967.05,-4781.35 -3763.52,-9612.16 -5804.25,-14326.32 -99.12,-261.68 -3.55,-463.97 180.4,-532.58 184.76,-68.81 388.87,23.21 485.45,286.1z"/>
   <path class="fil0" d="M23611.54 9300.11c3190.71,4049.52 6494.62,7949.66 9748.98,11988.65 -3463.33,-3838.72 -6782.75,-7781.53 -10292.81,-11532.18 -181.51,-213.03 -159.72,-435.69 -9.63,-562.27 150.7,-127.09 373.97,-109.15 553.46,105.81z"/>
   <path class="fil0" d="M13661.58 22263.11c4600.75,2326.62 2649.11,1453.32 7303.07,3743.46 -4759.06,-2020.46 -2839.44,-1179.27 -7603.67,-3100.21 -254.38,-116.55 -328.47,-327.76 -245.77,-505.72 83,-178.78 292.99,-256.71 546.36,-137.53z"/>
   <path class="fil0" d="M14973.52 56845.87c4569.03,-2388.24 9012.09,-4915.33 13582.33,-7368.13 -4412.04,2695.12 -8899.89,5229.61 -13234.1,7986.96 -242.83,139.05 -457.58,76.52 -554.27,-94.35 -97.09,-171.58 -38.31,-387.65 206.04,-524.47z"/>
   <path class="fil0" d="M23102.88 66822.68c3504.38,-3781.46 6843.56,-7651.4 10327.57,-11494.08 -3253.75,4017.9 -6632.66,7909.83 -9792.05,11960.27 -182.22,212.42 -405.59,225.5 -553.86,96.89 -148.98,-129.12 -166.01,-352.38 18.34,-563.08z"/>
   <path class="fil0" d="M34184.26 73528.72c2023.9,-4741.62 3862.34,-9511.02 5846.31,-14303.52 -1708.1,4879.86 -3576.54,9683.21 -5184.92,14561.85 -99.93,261.48 -305.87,349.04 -488.8,278.1 -183.84,-71.35 -275.16,-275.87 -172.59,-536.43z"/>
   <path class="fil0" d="M46970.31 76107.49c293.7,-5147.21 403.56,-10257.44 642.54,-15438.91 50.17,5169.92 -76.42,10322.4 67.19,15457.35 -5.17,279.72 -169.05,432.04 -365.36,427.38 -197.02,-4.66 -352.38,-166.01 -344.38,-445.83z"/>
   <path class="fil0" d="M59873.72 74191.22c-1471.56,-4941.07 -3103.55,-9784.96 -4638.15,-14739.71 1802.76,4845.71 3433.33,9734.99 5312.11,14516.04 90.1,264.92 -12.36,463.87 -198.54,526.09 -186.99,62.53 -387.86,-36.38 -475.42,-302.42z"/>
   <path class="fil0" d="M71692.51 67742.2c-3108.42,-4113.07 -6333.08,-8079.08 -9505.34,-12182.83 3385.3,3907.84 6624.45,7916.73 10058.29,11737.41 177.15,216.58 150.8,438.73 -1.72,562.27 -153.24,124.05 -376.1,101.65 -551.23,-116.85z"/>
   <path class="fil0" d="M80279.24 57939.92c-4319.31,-2814.71 -8698.11,-5451.66 -13074.38,-8235.97 4510.15,2527.7 8917.22,5200.12 13443.38,7629.41 240.19,143.61 290.76,361.61 189.11,529.54 -102.06,168.64 -319.24,223.17 -558.12,77.02z"/>
   <path class="fil0" d="M72325.02 9336.5c-3442.76,3837.61 -6718.8,7761.26 -10140.18,11659.78 3188.28,-4070.1 6503.75,-8016.25 9597.16,-12117.26 178.78,-215.36 401.84,-231.98 552.24,-105.91 151.11,126.68 171.68,349.75 -9.22,563.39z"/>
   <path class="fil0" d="M80829.66 19552.89c-4557.37,2410.24 -5000.16,2765.56 -9558.65,5240.35 4399.07,-2716.41 4886.65,-3079.23 9207.48,-5857.46 242.12,-140.26 457.28,-78.75 554.77,91.62 97.9,171.18 40.13,387.55 -203.61,525.48z"/>
   <path class="fil0" d="M61145.32 2814c-1947.99,4773.35 -3710.21,9571.42 -5617.57,14394.83 1630.07,-4906.41 3421.78,-9738.95 4952.22,-14642.62 95.67,-263 300.19,-353.9 484.24,-285.8 184.96,68.41 279.52,271.41 181.11,533.59z"/>
   <path class="fil0" d="M50795.96 5716.99c-603.02,5120.16 -729.9,6281.69 -1280.32,11439.35 261.07,-5163.63 407.21,-6366.22 572.91,-11500.46 22.09,-279.01 194.79,-421.1 390.39,-404.68 196.41,16.52 341.84,186.88 317.01,465.79z"/>
   <path class="fil0" d="M39241.79 6773.02c1223.56,5008.17 1510.38,6140.92 2796.37,11165.91 -1559.22,-4929.62 -1842.29,-6107.48 -3480.56,-10976.19 -76.82,-269.08 35.47,-462.55 224.38,-515.45 189.82,-53.21 385.63,55.64 459.81,325.73z"/>
   <path class="fil0" d="M29133.33 11549.51c2839.85,4302.99 3491.61,5272.78 6395.81,9570.41 -3129.29,-4115.7 -3792.81,-5129.28 -6976.02,-9161.07 -162.97,-227.52 -122.53,-447.45 37.6,-560.96 160.74,-114.02 381.77,-77.53 542.61,151.62z"/>
   <path class="fil0" d="M14811.98 19061.86c4389.34,2704.24 4688.82,2899.34 9134.31,5571.76 -4572.88,-2412.47 -4901.45,-2642.32 -9487.81,-4955.97 -243.74,-137.53 -299.68,-354.11 -202.49,-524.47 97.8,-171.18 313.47,-231.38 555.99,-91.31z"/>
   <path class="fil0" d="M24466.7 61018.33c3809.13,-3474.18 4665.92,-4268.84 8459.85,-7805.75 -3579.27,3730.99 -4477.31,4544 -7965.37,8315.22 -199.35,196.41 -422.92,190.63 -559.94,50.07 -137.63,-141.08 -135.91,-365.05 65.47,-559.54z"/>
   <path class="fil0" d="M33510.71 67604.47c2414.39,-4555.25 2952.95,-5592.23 5331.87,-10201.39 -2111.36,4719.43 -2682.66,5787.73 -4694.5,10514.35 -121.52,252.05 -333.94,321.98 -510.28,235.94 -177.15,-86.35 -251.14,-297.86 -127.09,-548.9z"/>
   <path class="fil0" d="M44325.26 70763.77c724.33,-5104.35 878.88,-6262.64 1551.52,-11405.7 -383.6,5156.03 -558.22,6354.77 -845.74,11483.64 -28.68,278.4 -204.72,416.33 -399.81,395.25 -196.01,-21.08 -337.28,-194.89 -305.97,-473.19z"/>
   <path class="fil0" d="M55571.33 70063.26c-1051.98,-5047.08 -1299.98,-6188.96 -2413.78,-11254.9 1390.18,4979.89 1632.9,6166.77 3104.06,11088.59 67.6,271.51 -51.18,461.03 -241.81,507.44 -191.55,46.72 -383.5,-68.71 -448.46,-341.13z"/>
   <path class="fil0" d="M66217.13 65381.83c-2752.49,-4359.24 -3384.59,-5342 -6201.53,-9697.39 3045.68,4178.03 3688.63,5204.78 6789.95,9299.91 158.3,230.67 113.41,449.78 -48.95,560.04 -162.97,110.77 -383.19,69.83 -539.47,-162.56z"/>
   <path class="fil0" d="M74327.84 57576.89c-4068.07,-3167.1 -4996.01,-3877.13 -9123.36,-7018.59 4282.32,2897.11 5235.49,3644.74 9542.03,6445.07 227.22,163.37 259.35,384.71 144.01,543.42 -115.74,159.52 -336.88,195.8 -562.68,30.1z"/>
   <path class="fil0" d="M72418.46 14022.68c-3752.48,3535.29 -5959.31,5483.28 -9695.57,9081.2 3518.47,-3788.56 5766.34,-5755.6 9192.89,-9582.67 196.11,-199.65 419.78,-197.42 559.03,-59.29 139.86,138.85 141.89,362.82 -56.35,560.75z"/>
   <path class="fil0" d="M62610.39 7274.39c-2341.52,4593.15 -3560.63,7090.95 -5865.77,11737.51 2035.86,-4752.57 3287.19,-7282.09 5223.53,-12040.34 117.36,-253.98 328.67,-327.15 506.33,-244.04 178.47,83.51 255.9,293.81 135.91,546.87z"/>
   <path class="fil0" d="M56489.03 6728.53c-1495.78,4933.78 -2428.88,8289.48 -3879.46,13269.27 1166.91,-5036.75 2126.06,-8429.34 3193.75,-13454.13 71.04,-270.7 266.24,-380.05 455.66,-329.48 190.43,50.77 303.64,244.15 230.06,514.34z"/>
   <path class="fil0" d="M44929.49 5732.09c321.98,5145.49 619.94,8615.72 1000.3,13788.57 -666.05,-5127.15 -952.46,-8641.05 -1707.29,-13722.29 -28.07,-278.4 116.65,-449.07 311.84,-467.82 196.21,-18.95 369.71,122.63 395.15,401.54z"/>
   <path class="fil0" d="M34137.54 8652.81c2037.28,4735.95 3487.15,7902.74 5588.58,12644.77 -2354.9,-4602.68 -3808.83,-7814.57 -6231.83,-12344.17 -120.3,-252.66 -41.65,-462.04 135.91,-545.55 178.27,-83.92 389.48,-9.02 507.34,244.96z"/>
   <path class="fil0" d="M22933.22 17237.82c3844.2,3435.36 3719.13,3499.82 7624.14,6913.69 -4076.08,-3180.58 -3973.62,-3284.25 -8080.71,-6369.76 -215.57,-178.37 -232.49,-401.54 -106.82,-552.04 126.38,-151.31 349.34,-172.39 563.39,8.11z"/>
   <path class="fil0" d="M23111.59 13739.22c3564.07,3725.21 5020.23,5409.5 8646.63,9117.89 -3815.11,-3489.18 -5290.93,-5214.31 -9144.34,-8611.26 -200.97,-194.69 -200.36,-418.46 -63.44,-558.63 137.83,-140.97 361.81,-144.72 561.16,51.99z"/>
   <path class="fil0" d="M20827.23 56525.21c4361.78,-2748.63 5509.83,-3537.92 9867.66,-6351.02 -4180.77,3041.83 -5372.71,3842.07 -9470.58,6939.74 -230.97,158.1 -450.08,112.9 -560.15,-49.46 -110.57,-162.97 -69.42,-383.29 163.07,-539.27z"/>
   <path class="fil0" d="M28569.23 64601.86c3179.26,-4058.44 3070.11,-3678.39 6224.03,-7796.22 -2909.98,4273.5 -2838.53,3918.48 -5651.72,8216.71 -164.08,226.61 -385.63,258.03 -543.93,142.29 -159.22,-116.25 -194.69,-337.49 -28.38,-562.78z"/>
   <path class="fil0" d="M38657.83 69617.43c1612.43,-4896.89 2624.99,-8229.48 4193.34,-13173.5 -1286.2,5007.66 -2325.51,8376.54 -3512.18,13374.57 -77.43,268.98 -275.16,373.67 -463.36,318.53 -189.21,-55.23 -297.66,-251.24 -217.79,-519.61z"/>
   <path class="fil0" d="M49851.41 70909.5c-146.24,-5153.5 -325.53,-8631.83 -529.23,-13814.72 490.82,5146.91 657.13,8668.62 1238.16,13772.56 18.55,279.21 -131.85,444.91 -327.66,456.97 -196.71,12.16 -365.36,-135.3 -381.27,-414.81z"/>
   <path class="fil0" d="M61155.56 68177.19c-1941.3,-4776.08 -3327.12,-7971.45 -5332.58,-12754.93 2261.76,4649.2 3650.62,7889.77 5981.81,12467.31 115.13,254.99 32.23,462.85 -146.85,542.71 -179.99,80.27 -389.58,1.22 -502.38,-255.09z"/>
   <path class="fil0" d="M70514.66 61923.57c-3446.41,-3834.36 -5834.04,-6370.17 -9343.19,-10189.74 3704.74,3606.33 6110.52,6183.59 9856.31,9698.81 194.89,200.87 187.39,424.54 46.01,560.35 -142.09,136.72 -366.07,133.37 -559.13,-69.42z"/>
   <path class="fil0" d="M76308.97 18612.59c-4316.68,2818.87 -4573.79,2823.83 -8885.3,5706.95 4130.91,-3109.02 4431.6,-3125.64 8478.8,-6289.3 228.23,-161.75 448.16,-119.89 560.85,40.44 113,161.24 75.6,382.08 -154.35,541.9z"/>
   <path class="fil0" d="M67818.11 10264.74c-3114.09,4108.71 -6069.47,8317.76 -9157.21,12485.35 2841.47,-4319.31 5833.94,-8554.1 8578.32,-12896.52 160.43,-229.25 381.47,-264.21 541.6,-151.01 160.94,113.61 200.06,334.24 37.3,562.17z"/>
   <path class="fil0" d="M53117.11 9156c-1051.68,5047.19 -744.29,3131.62 -1746.92,8220.67 714.9,-5120.56 430.22,-3244.22 1047.62,-8343.9 46.52,-275.97 231.27,-402.25 424.44,-368.7 194.18,33.65 324.11,216.27 274.85,491.94z"/>
   <path class="fil0" d="M42618.06 9184.48c777.64,5096.54 396.47,3194.36 1234.81,8313.09 -1118.87,-5047.79 -730.21,-3190.2 -1933.2,-8184.28 -52.8,-274.75 76.31,-457.68 268.98,-493.76 193.67,-36.28 379.14,89.49 429.41,364.95z"/>
   <path class="fil0" d="M33124.78 12682.17c2449.76,4536.4 1449.87,2873.8 3964.19,7410.6 -2754.61,-4375.36 -1762.63,-2757.45 -4578.25,-7053.96 -142.29,-240.9 -82.5,-456.57 86.75,-555.48 170.16,-99.52 387.25,-43.58 527.31,198.84z"/>
   <path class="fil0" d="M19447.18 18500.91c4134.15,3080.44 2526.38,1994.51 6719.21,5048.1 -4342.62,-2805.89 -2760.9,-1757.05 -7125.61,-4465.76 -230.67,-158.51 -267.35,-379.24 -155.57,-540.28 112.39,-161.95 332.72,-202.8 561.97,-42.06z"/>
   <path class="fil0" d="M24965.13 56899.28c4100.4,-3125.14 2613.54,-1878.97 6704.31,-5067.86 -3894.06,3401.21 -2449.96,2169.74 -6256.56,5619.09 -215.87,177.97 -438.22,152.43 -562.27,0.61 -124.76,-152.63 -103.17,-375.69 114.52,-551.83z"/>
   <path class="fil0" d="M32590.89 63558.7c2806.2,-4324.88 1826.78,-2650.23 4602.47,-7031.97 -2518.98,4515.11 -1574.73,2868.83 -3995.1,7399.86 -143.2,240.4 -361.2,291.27 -529.13,190.23 -168.84,-101.65 -223.88,-318.94 -78.24,-558.12z"/>
   <path class="fil0" d="M42086.4 67270.64c1171.17,-5020.73 818.38,-3112.98 1941.51,-8176.88 -836.21,5102.22 -507.04,3233.07 -1245.25,8316.74 -53.11,274.75 -240.8,396.57 -433.16,358.57 -193.37,-38.31 -318.84,-223.98 -263.1,-498.42z"/>
   <path class="fil0" d="M52279.38 67537.99c-603.32,-5120.16 -287.32,-3206.01 -950.53,-8350.39 946.07,5083.06 620.95,3213.21 1652.87,8245.39 43.38,276.47 -91.82,454.85 -285.6,484.34 -194.89,29.69 -376,-102.36 -416.74,-379.34z"/>
   <path class="fil0" d="M62249.3 64169.01c-2357.74,-4584.84 -1391.6,-2902.48 -3813.89,-7489.04 2665.83,4430.08 1706.58,2792.42 4435.15,7144.87 137.33,243.74 73.17,458.19 -98,553.66 -172.19,95.98 -387.96,35.67 -523.25,-209.48z"/>
   <path class="fil0" d="M70183.86 57781.92c-3773.25,-3513.09 -2293.69,-2258.22 -6128.25,-5751.14 4010.51,3263.07 2552.73,2047.92 6595.87,5216.74 211.92,182.63 224.28,406.1 95.67,554.06 -129.42,148.68 -352.89,165.2 -563.29,-19.66z"/>
   <path class="fil0" d="M70623.7 19288.78c-4049.32,3191.01 -2582.83,1920.93 -6621.41,5175.69 3838.42,-3463.74 2414.39,-2209.16 6164.74,-5719.62 213.03,-181.51 435.69,-159.52 562.17,-9.73 127.19,150.6 109.25,373.97 -105.5,553.66z"/>
   <path class="fil0" d="M63500.83 11550.73c-2736.98,4369.07 -2387.64,3885.65 -5093.2,8311.07 2446.62,-4554.74 2132.04,-4100.3 4479.95,-8669.23 139.35,-242.62 356.54,-296.95 525.99,-198.64 170.36,98.91 228.94,315.29 87.26,556.8z"/>
  </g>
 </g>
</svg>
