<svg width="255" height="17" viewBox="0 0 255 17" fill="none" xmlns="http://www.w3.org/2000/svg">
<path d="M0.88 16H7.59C11.55 16 14.608 14.702 14.608 10.742C14.608 9.18 13.992 8.3 13.178 7.838C14.366 7.244 15.422 6.012 15.422 4.406C15.422 1.898 14.146 0.599999 10.758 0.599999H3.872L0.88 16ZM8.646 9.686C10.076 9.686 11.066 9.928 11.066 10.918C11.066 12.238 10.032 12.81 7.854 12.81H4.906L5.522 9.686H8.646ZM9.79 3.79C11.374 3.79 11.88 4.186 11.88 4.956C11.88 6.012 11.044 6.606 9.526 6.606H6.116L6.666 3.79H9.79ZM16.3622 9.444C16.3622 13.338 19.1122 16.264 23.3802 16.264C28.4622 16.264 32.5322 12.524 32.5322 7.134C32.5322 3.13 29.8702 0.336 25.5582 0.336C19.5522 0.336 16.3622 5.528 16.3622 9.444ZM19.9042 9.158C19.9042 6.122 22.1922 3.636 25.1842 3.636C27.6262 3.636 28.9902 5.396 28.9902 7.464C28.9902 10.412 26.7682 12.964 23.7542 12.964C21.5102 12.964 19.9042 11.49 19.9042 9.158ZM32.9777 16H37.5317C44.1757 16 48.4437 13.03 48.4437 6.848C48.4437 3.328 46.4417 0.599999 40.8537 0.599999H35.9697L32.9777 16ZM40.1937 3.79C43.2077 3.79 44.9237 4.648 44.9237 7.178C44.9237 10.874 42.6577 12.81 38.4337 12.81H37.0037L38.7637 3.79H40.1937ZM65.2847 0.599999H60.9507L55.9127 6.672L53.2727 0.599999H49.4447L53.7127 10.478L52.6347 16H56.0447L57.1227 10.478L65.2847 0.599999ZM68.7062 16H75.4162C79.3762 16 82.4342 14.702 82.4342 10.742C82.4342 9.18 81.8182 8.3 81.0042 7.838C82.1922 7.244 83.2482 6.012 83.2482 4.406C83.2482 1.898 81.9722 0.599999 78.5842 0.599999H71.6982L68.7062 16ZM76.4722 9.686C77.9022 9.686 78.8922 9.928 78.8922 10.918C78.8922 12.238 77.8582 12.81 75.6802 12.81H72.7322L73.3482 9.686H76.4722ZM77.6162 3.79C79.2002 3.79 79.7062 4.186 79.7062 4.956C79.7062 6.012 78.8702 6.606 77.3522 6.606H73.9422L74.4922 3.79H77.6162ZM82.0983 16H85.8823L87.6863 13.14H94.0223L94.7263 16H98.1363L94.3743 0.599999H91.8443L82.0983 16ZM92.2623 5.77L93.3403 10.258H89.4463L92.2623 5.77ZM99.4718 16H111.198L111.814 12.81H103.498L105.874 0.599999H102.464L99.4718 16ZM111.553 16H115.337L117.141 13.14H123.477L124.181 16H127.591L123.829 0.599999H121.299L111.553 16ZM121.717 5.77L122.795 10.258H118.901L121.717 5.77ZM142.347 16L145.339 0.599999H142.017L140.191 10.06L134.537 0.599999H131.919L128.927 16H132.249L134.097 6.54L139.707 16H142.347ZM157.994 11.028C156.938 12.26 155.376 12.964 153.55 12.964C150.998 12.964 149.304 11.292 149.304 8.916C149.304 6.034 151.504 3.636 154.826 3.636C156.608 3.636 157.708 4.296 158.5 5.286L160.964 3.328C159.908 1.568 158.126 0.336 155.046 0.336C149.502 0.336 145.762 4.274 145.762 9.18C145.762 14.24 149.546 16.264 153.396 16.264C156.388 16.264 158.698 15.098 160.018 13.162L157.994 11.028ZM160.745 16H172.713L173.329 12.81H164.771L165.365 9.73H173.175L173.791 6.65H165.981L166.531 3.79H174.891L175.507 0.599999H163.737L160.745 16ZM193.014 11.028C191.958 12.26 190.396 12.964 188.57 12.964C186.018 12.964 184.324 11.292 184.324 8.916C184.324 6.034 186.524 3.636 189.846 3.636C191.628 3.636 192.728 4.296 193.52 5.286L195.984 3.328C194.928 1.568 193.146 0.336 190.066 0.336C184.522 0.336 180.782 4.274 180.782 9.18C180.782 14.24 184.566 16.264 188.416 16.264C191.408 16.264 193.718 15.098 195.038 13.162L193.014 11.028ZM195.765 16H207.491L208.107 12.81H199.791L202.167 0.599999H198.757L195.765 16ZM209.474 16H212.884L215.876 0.599999H212.466L209.474 16ZM229.273 16L232.265 0.599999H228.943L227.117 10.06L221.463 0.599999H218.845L215.853 16H219.175L221.023 6.54L226.633 16H229.273ZM232.248 16H235.658L238.65 0.599999H235.24L232.248 16ZM251.408 11.028C250.352 12.26 248.79 12.964 246.964 12.964C244.412 12.964 242.718 11.292 242.718 8.916C242.718 6.034 244.918 3.636 248.24 3.636C250.022 3.636 251.122 4.296 251.914 5.286L254.378 3.328C253.322 1.568 251.54 0.336 248.46 0.336C242.916 0.336 239.176 4.274 239.176 9.18C239.176 14.24 242.96 16.264 246.81 16.264C249.802 16.264 252.112 15.098 253.432 13.162L251.408 11.028Z" fill="white"/>
</svg>
