<svg width="13" height="15" viewBox="0 0 13 15" fill="none" xmlns="http://www.w3.org/2000/svg">
<path d="M8.65211 7.503L3.0736 1.9245L3.07359 1.92449C2.83925 1.69011 2.83925 1.31013 3.07359 1.07575L3.07362 1.07573C3.30802 0.841428 3.68796 0.84142 3.92234 1.07573L3.92235 1.07574L9.92524 7.07863L9.92525 7.07864C10.1596 7.31302 10.1596 7.69299 9.92525 7.92737L9.92524 7.92738L3.92235 13.9303L3.92236 13.9303L3.92111 13.9315C3.68266 14.1618 3.30267 14.1552 3.07238 13.9167L3.14431 13.8472L3.07238 13.9167C2.84775 13.6841 2.84774 13.3153 3.07238 13.0828L3.0736 13.0815L8.65211 7.503Z" fill="white" stroke="white" stroke-width="0.2"/>
</svg>
