<svg width="59" height="59" viewBox="0 0 59 59" fill="none" xmlns="http://www.w3.org/2000/svg">
<circle cx="29.5" cy="29.5" r="29.5" fill="#61B6A9"/>
<g clip-path="url(#clip0)">
<path d="M45.1604 37.6863L38.6835 33.3669C37.8616 32.8232 36.7598 33.0021 36.1521 33.778L34.2655 36.2038C34.023 36.5235 33.5823 36.6162 33.2315 36.4214L32.8726 36.2235C31.6829 35.5751 30.2026 34.7677 27.2201 31.7842C24.2376 28.8006 23.4287 27.3192 22.7802 26.1317L22.5835 25.7728C22.3859 25.4221 22.4769 24.9795 22.7967 24.7351L25.2209 22.849C25.9965 22.2413 26.1757 21.1398 25.6326 20.3176L21.3132 13.8407C20.7566 13.0035 19.6399 12.7521 18.7782 13.2701L16.0698 14.8971C15.2188 15.3974 14.5945 16.2076 14.3277 17.158C13.3524 20.7116 14.0861 26.8446 23.1205 35.8801C30.3072 43.0662 35.6573 44.9987 39.3347 44.9987C40.181 45.0024 41.024 44.8922 41.841 44.6713C42.7916 44.4049 43.602 43.7805 44.1019 42.9292L45.7305 40.2224C46.2493 39.3606 45.998 38.2432 45.1604 37.6863ZM44.8117 39.6753L43.1868 42.3837C42.8278 42.9981 42.245 43.4498 41.5604 43.6443C38.2798 44.545 32.5484 43.799 23.875 35.1256C15.2016 26.4522 14.4557 20.7213 15.3563 17.4402C15.5511 16.7548 16.0034 16.1712 16.6185 15.8116L19.3269 14.1868C19.7008 13.9618 20.1855 14.0709 20.427 14.4342L22.7734 17.9569L24.7427 20.9106C24.9785 21.2672 24.901 21.7452 24.5646 22.0091L22.1399 23.8952C21.402 24.4594 21.1913 25.4803 21.6456 26.2906L21.8381 26.6404C22.5197 27.8903 23.367 29.4453 26.4604 32.5382C29.5538 35.6311 31.1083 36.4784 32.3576 37.1599L32.708 37.3529C33.5181 37.8072 34.5391 37.5965 35.1033 36.8586L36.9894 34.4339C37.2534 34.0977 37.7312 34.0202 38.088 34.2558L44.5643 38.5752C44.9279 38.8165 45.0369 39.3014 44.8117 39.6753Z" fill="white"/>
<path d="M32.1325 18.3361C37.1368 18.3417 41.1922 22.3971 41.1978 27.4015C41.1978 27.696 41.4365 27.9347 41.7311 27.9347C42.0256 27.9347 42.2643 27.696 42.2643 27.4015C42.2581 21.8084 37.7256 17.2758 32.1325 17.2697C31.838 17.2697 31.5992 17.5084 31.5992 17.8029C31.5992 18.0974 31.838 18.3361 32.1325 18.3361Z" fill="white"/>
<path d="M32.1325 21.5356C35.3705 21.5394 37.9945 24.1634 37.9983 27.4014C37.9983 27.6959 38.2371 27.9346 38.5315 27.9346C38.826 27.9346 39.0648 27.6959 39.0648 27.4014C39.0603 23.5746 35.9592 20.4735 32.1325 20.4691C31.838 20.4691 31.5992 20.7078 31.5992 21.0023C31.5992 21.2969 31.838 21.5356 32.1325 21.5356Z" fill="white"/>
<path d="M32.1325 24.7351C33.6043 24.7369 34.797 25.9296 34.7988 27.4014C34.7988 27.6959 35.0375 27.9346 35.332 27.9346C35.6265 27.9346 35.8652 27.6959 35.8652 27.4014C35.8629 25.3408 34.193 23.671 32.1325 23.6686C31.838 23.6686 31.5992 23.9074 31.5992 24.2019C31.5992 24.4964 31.838 24.7351 32.1325 24.7351Z" fill="white"/>
</g>
<defs>
<clipPath id="clip0">
<rect x="14" y="13" width="32" height="32" fill="white"/>
</clipPath>
</defs>
</svg>
