<svg width="92" height="26" viewBox="0 0 92 26" fill="none" xmlns="http://www.w3.org/2000/svg">
<g clip-path="url(#clip0)">
<path fill-rule="evenodd" clip-rule="evenodd" d="M6.03073 22.781H3.33629V20.4633C5.98197 20.4633 7.05713 20.0799 7.05713 21.7506C7.05713 22.3737 6.65163 22.7806 6.03073 22.7806V22.781ZM5.51731 17.5016H3.33584V15.699H5.51731C6.11653 15.699 6.41546 15.9994 6.41546 16.6003C6.41546 17.2012 6.11608 17.5016 5.51731 17.5016ZM0.128418 25.871H6.03073C11.0661 25.871 11.258 19.5366 8.4687 18.7894L8.77305 18.3222C8.79066 18.3023 8.81911 18.2769 8.83672 18.2574C10.7035 16.2183 9.1081 12.7378 5.77425 12.7378H0.128418V25.871Z" fill="#00A29D"/>
<path fill-rule="evenodd" clip-rule="evenodd" d="M47.8607 13.1241V25.8712H51.0686V19.6909C51.4434 19.9429 52.3894 21.4341 52.7606 21.9842C53.666 23.2675 54.6129 24.5431 55.4483 25.8712C55.7779 25.8712 56.2051 25.8712 57.9973 25.8712V12.738C54.3185 12.738 54.7659 12.4435 54.7872 14.0231L54.7894 19.047C54.5876 18.8984 50.5502 13.2007 50.4269 12.738C49.955 12.738 49.4827 12.7412 49.0108 12.7335C48.5895 12.7267 48.0499 12.7385 47.8607 12.7385C47.8607 13.0752 47.8607 12.9818 47.8607 13.1241Z" fill="#00A29D"/>
<path fill-rule="evenodd" clip-rule="evenodd" d="M59.2802 18.6607V19.8193C59.2802 23.0678 62.334 25.9996 65.5676 25.9996C67.5893 25.9996 69.1521 25.6996 70.6057 24.231C71.6127 23.2137 72.4927 21.9232 72.6246 20.3341H69.2885C69.1815 21.6255 67.8155 22.9092 66.4653 22.9092H65.439C63.9321 22.9092 62.488 21.3482 62.488 19.8189V19.0463C62.488 14.5811 69.0076 14.887 69.2885 18.2737H72.6246C72.3821 15.3501 69.5174 12.6082 66.3371 12.6082C65.0831 12.6082 64.2459 12.6417 63.0836 13.2063C62.2695 13.6019 61.9249 13.8629 61.2399 14.4465C60.3549 15.2001 59.2802 17.3049 59.2802 18.6602V18.6607Z" fill="#00A29D"/>
<path fill-rule="evenodd" clip-rule="evenodd" d="M74.0363 25.8714H82.633C82.633 24.1867 82.633 23.2147 82.633 22.6868C82.4303 22.6868 77.8253 22.6528 77.2441 22.6528V20.8503H82.5048V17.7599H77.2441V15.9573H82.633V12.7383H74.0363V25.8714Z" fill="#00A29D"/>
<path fill-rule="evenodd" clip-rule="evenodd" d="M40.675 18.1458L41.5732 20.8496H39.6486C39.6843 20.4187 40.2962 18.424 40.675 18.1458ZM34.2593 25.8712H37.7236C37.7738 25.2668 38.2271 24.534 38.3653 23.94H42.7278C43.038 24.5281 43.2065 25.2627 43.4977 25.8712H47.0903C46.9444 25.2446 46.6749 24.7692 46.4486 24.1978L41.7014 12.6094H39.3917L36.8255 19.1762C36.3834 20.2836 35.9711 21.3829 35.5241 22.5054C35.287 23.1008 34.3049 25.3216 34.2593 25.8717V25.8712Z" fill="#00A29D"/>
<path fill-rule="evenodd" clip-rule="evenodd" d="M16.8089 18.146C17.1327 18.3839 17.8033 20.4615 17.8353 20.8498H15.9108C16.0652 20.5267 16.7805 18.4863 16.8089 18.146ZM10.5214 25.8714H13.9858C14.1438 25.5407 14.5936 24.3457 14.6275 23.9402H19.1182C19.2817 24.6444 19.5883 25.1328 19.7599 25.8714H23.3525C23.3005 25.2452 22.9727 24.7305 22.7474 24.1613L19.3946 15.9374C19.1598 15.3519 18.1293 13.0618 18.0918 12.6091H15.7821C15.5279 13.0913 15.3287 13.6817 15.1034 14.2463L10.521 25.8714H10.5214Z" fill="#00A29D"/>
<path fill-rule="evenodd" clip-rule="evenodd" d="M53.2495 8.23138C55.4545 8.23138 54.9939 6.76368 59.6644 6.81398C63.6846 6.85748 67.9103 6.55705 71.9833 6.55705V4.36797L57.2788 3.93024C55.0824 3.61622 55.1551 2.69409 52.9931 2.69409C52.1739 2.69409 50.6034 3.7866 50.6364 5.50941C50.6644 6.983 51.8145 8.23093 53.2495 8.23093V8.23138Z" fill="#00A29D"/>
<path fill-rule="evenodd" clip-rule="evenodd" d="M24.6361 25.8714H33.3074C33.3074 24.7848 33.3011 24.3974 33.3011 22.6619C32.9768 22.6619 33.2726 22.6524 32.9768 22.6524H27.8444V12.7378H24.6366V25.871L24.6361 25.8714Z" fill="#00A29D"/>
<path fill-rule="evenodd" clip-rule="evenodd" d="M44.1395 7.71611C44.1395 9.57576 41.7521 10.1186 40.1608 9.13351C39.0567 8.45018 40.1061 7.8448 38.7506 7.8448C38.308 7.8448 38.2539 7.93995 37.8524 7.97349C37.8524 10.1494 39.8235 11.2614 41.8117 11.2342C46.2103 11.1744 47.4309 6.05628 43.2467 5.00682C42.5179 4.82375 41.6365 4.79838 40.9131 4.64477C37.7468 3.97186 40.5568 0.394828 43.244 2.04786C43.7457 2.35644 43.7462 2.57712 44.0117 3.08055C44.6032 2.94234 44.806 2.95186 45.5515 2.95186C45.3393 2.0388 45.0218 1.32103 44.3481 0.81171C41.5579 -1.29672 36.612 0.952182 38.1929 4.67105C39.3141 7.30874 44.1404 5.6693 44.1404 7.71611H44.1395Z" fill="#00A29D"/>
<path fill-rule="evenodd" clip-rule="evenodd" d="M4.87601 2.82358C5.21739 3.07461 5.17178 3.28486 5.35195 3.76247C5.49194 4.13404 5.6405 4.46301 5.75519 4.77431C5.99904 5.43589 6.24649 6.25062 6.54452 6.81523H3.46489C3.50056 6.38611 3.97199 5.30448 4.16074 4.80966C4.40594 4.16757 4.72925 3.45706 4.87601 2.82358ZM8.53472e-05 11.0643H1.79638L2.82278 8.36041H7.18528C7.3808 9.09222 7.84817 10.182 8.08343 11.0643H9.87973L5.76648 0.64219C5.52084 0.047226 5.60573 0.119727 4.61862 0.119727C4.50664 0.1519 3.613 1.93407 3.31723 2.67631C2.9605 3.5726 2.6259 4.48386 2.2362 5.45447L-0.000366211 11.0643H8.53472e-05Z" fill="#00A29D"/>
<path fill-rule="evenodd" clip-rule="evenodd" d="M32.463 2.82348C32.5217 3.53218 33.6533 5.86219 33.8746 6.81513H30.795C31.1106 6.15537 31.9324 3.21362 32.463 2.82348ZM27.4589 11.0642H29.1269L30.1533 8.36032H34.5158C34.598 8.71467 34.8382 9.29332 34.9908 9.68618C35.1706 10.1475 35.3507 10.6636 35.5427 11.0642H37.2107C37.0174 10.2322 34.556 4.20961 34.0399 2.91546L32.9764 0.119629H31.6936C31.4619 1.11698 27.5167 10.37 27.4593 11.0642H27.4589Z" fill="#00A29D"/>
<path fill-rule="evenodd" clip-rule="evenodd" d="M86.9959 18.0173H84.6862V20.5924H86.9959V23.0389H89.6903V20.5924H92V18.0173H89.6903V15.5708H86.9959V18.0173Z" fill="#00A29D"/>
<path fill-rule="evenodd" clip-rule="evenodd" d="M9.75052 1.71895C13.088 1.79372 11.4055 1.79372 13.088 1.79372V11.0644H14.756V1.79372H17.9639V0.248535H9.75188C9.75188 0.373147 9.72794 1.7185 9.75097 1.71895H9.75052Z" fill="#00A29D"/>
<path fill-rule="evenodd" clip-rule="evenodd" d="M19.7603 11.0639H26.4325V9.51874H21.3001V0.248535H19.7603V11.0639Z" fill="#00A29D"/>
<path fill-rule="evenodd" clip-rule="evenodd" d="M75.7042 6.42881H81.4783C82.945 6.42881 82.945 4.49756 81.4783 4.49756H75.7042V6.42881Z" fill="#00A29D"/>
<path fill-rule="evenodd" clip-rule="evenodd" d="M72.4963 6.55729H73.5227V4.36865H72.4963V6.55729Z" fill="#00A29D"/>
<path fill-rule="evenodd" clip-rule="evenodd" d="M74.1644 6.55729H75.0626V4.36865H74.1644V6.55729Z" fill="#00A29D"/>
</g>
<defs>
<clipPath id="clip0">
<rect width="92" height="26" fill="white"/>
</clipPath>
</defs>
</svg>
