<svg width="59" height="59" viewBox="0 0 59 59" fill="none" xmlns="http://www.w3.org/2000/svg">
<circle cx="29.5" cy="29.5" r="29.5" fill="#61B6A9"/>
<g clip-path="url(#clip0)">
<path d="M31.2124 29.5008L44.6451 16.068C45.118 15.5951 45.118 14.8283 44.6451 14.3554C44.1722 13.8826 43.4054 13.8825 42.9325 14.3554L29.4997 27.7882L16.067 14.3554C15.5941 13.8825 14.8273 13.8825 14.3545 14.3554C13.8816 14.8284 13.8815 15.5951 14.3545 16.068L27.7872 29.5007L14.3545 42.9335C13.8815 43.4064 13.8815 44.1732 14.3545 44.6461C14.5909 44.8825 14.9008 45.0007 15.2108 45.0007C15.5207 45.0007 15.8306 44.8825 16.0671 44.6461L29.4997 31.2133L42.9325 44.6461C43.1689 44.8825 43.4788 45.0007 43.7888 45.0007C44.0987 45.0007 44.4086 44.8825 44.6451 44.6461C45.118 44.1731 45.118 43.4064 44.6451 42.9335L31.2124 29.5008Z" fill="white"/>
</g>
<defs>
<clipPath id="clip0">
<rect x="14" y="14" width="31" height="31" fill="white"/>
</clipPath>
</defs>
</svg>
