<svg width="26" height="26" viewBox="0 0 26 26" fill="none" xmlns="http://www.w3.org/2000/svg">
<circle cx="13" cy="13" r="10" fill="#E5F6F5"/>
<path d="M13 0C5.8164 0 0 5.8164 0 13C0 20.1836 5.8164 26 13 26C20.1836 26 26 20.1836 26 13C26 5.8164 20.1836 0 13 0ZM16.5918 7.94831H14.6916C14.3904 7.94831 13.9501 8.11052 13.9501 8.75936V10.5205H16.5686L16.2674 13.5098H13.9501V22.0143H10.4278V13.5098H8.75936V10.5205H10.4278V8.59715C10.4278 7.20677 11.0766 5.05169 13.9733 5.05169H16.5686V7.94831H16.5918Z" fill="#3B5980"/>
</svg>
