<svg width="26" height="26" viewBox="0 0 26 26" fill="none" xmlns="http://www.w3.org/2000/svg">
<circle cx="13" cy="14" r="10" fill="white"/>
<path d="M13 0C5.8214 0 0 5.8214 0 13C0 20.1786 5.8214 26 13 26C20.1786 26 26 20.1786 26 13C26 5.8214 20.1786 0 13 0ZM13.2755 20.569C13.2753 20.569 13.2757 20.569 13.2755 20.569H13.2724C11.9701 20.5684 10.6904 20.2419 9.55402 19.6222L5.42943 20.7039L6.53333 16.6731C5.85234 15.4936 5.49409 14.1555 5.49469 12.7846C5.49648 8.49594 8.98689 5.00691 13.2755 5.00691C15.3568 5.00771 17.3105 5.81783 18.7793 7.2879C20.2484 8.75818 21.057 10.7125 21.0562 12.7907C21.0544 17.0796 17.5636 20.569 13.2755 20.569Z" fill="#34C456"/>
<path d="M13.2781 6.32068C9.7109 6.32068 6.80981 9.22057 6.80823 12.7852C6.80783 14.0067 7.14981 15.1963 7.79708 16.2256L7.95081 16.4702L7.29739 18.8559L9.74502 18.214L9.98127 18.354C10.9741 18.9432 12.1123 19.2548 13.2727 19.2552H13.2753C16.8397 19.2552 19.7408 16.3551 19.7424 12.7903C19.743 11.0628 19.0709 9.43857 17.85 8.21664C16.6291 6.99472 15.0052 6.32127 13.2781 6.32068ZM17.0819 15.5647C16.9199 16.0185 16.1433 16.4329 15.7697 16.4888C15.4347 16.5388 15.011 16.5596 14.5452 16.4119C14.2628 16.3222 13.9008 16.2026 13.4368 16.0024C11.4867 15.1606 10.213 13.1976 10.1158 13.0678C10.0186 12.9381 9.3219 12.0139 9.3219 11.0572C9.3219 10.1007 9.82416 9.63039 10.0023 9.43599C10.1806 9.24139 10.3913 9.19279 10.5208 9.19279C10.6504 9.19279 10.7801 9.19398 10.8933 9.19954C11.0128 9.20549 11.173 9.15411 11.3307 9.53319C11.4928 9.92238 11.8816 10.8789 11.9302 10.9761C11.9788 11.0735 12.0111 11.187 11.9465 11.3167C11.8816 11.4464 11.6662 11.7263 11.4605 11.9814C11.3742 12.0883 11.2617 12.1835 11.3752 12.3781C11.4884 12.5725 11.8788 13.2091 12.4567 13.7244C13.1993 14.3866 13.8258 14.5917 14.0202 14.6891C14.2144 14.7863 14.3278 14.77 14.4413 14.6405C14.5546 14.5107 14.9273 14.073 15.0568 13.8784C15.1864 13.6838 15.3161 13.7163 15.4942 13.7812C15.6725 13.8458 16.6283 14.3161 16.8227 14.4133C17.0171 14.5107 17.1466 14.5593 17.1952 14.6405C17.244 14.7216 17.244 15.1106 17.0819 15.5647Z" fill="#34C456"/>
</svg>
