<svg width="26" height="26" viewBox="0 0 26 26" fill="none" xmlns="http://www.w3.org/2000/svg">
<path d="M13 26C20.1797 26 26 20.1797 26 13C26 5.8203 20.1797 0 13 0C5.8203 0 0 5.8203 0 13C0 20.1797 5.8203 26 13 26Z" fill="#7B59E9"/>
<path d="M18.6398 7.13185C15.4755 6.3676 12.3056 5.47364 9.06055 6.60942C6.95952 7.39729 6.95952 9.6734 7.04707 11.5993C7.04707 12.1246 6.43429 12.8249 6.69688 13.4377C7.22211 15.1886 7.65985 16.9394 9.49823 17.8148C9.76087 17.9899 9.49823 18.34 9.67333 18.6027C9.58578 18.6027 9.41068 18.6902 9.41068 18.7778C9.41068 19.1974 9.59898 19.8392 9.47391 20.253L15.0602 25.8369C20.803 24.9223 25.2915 20.2475 25.923 14.4151L18.6398 7.13185Z" fill="#7B59E9"/>
<path d="M19.8774 9.13678L19.8731 9.11961C19.5257 7.71536 17.9598 6.20858 16.5216 5.89511L16.5054 5.89175C14.1793 5.44803 11.8208 5.44803 9.49523 5.89175L9.47852 5.89511C8.04091 6.20858 6.47486 7.71546 6.12706 9.11961L6.1232 9.13678C5.6938 11.0978 5.6938 13.0866 6.1232 15.0476L6.12706 15.0648C6.46009 16.4091 7.90943 17.8467 9.29388 18.242V19.8095C9.29388 20.3769 9.98527 20.6555 10.3784 20.2461L11.9666 18.5952C12.3111 18.6145 12.6558 18.6253 13.0003 18.6253C14.1712 18.6253 15.3426 18.5145 16.5054 18.2927L16.5216 18.2893C17.9597 17.9759 19.5257 16.469 19.873 15.0648L19.8773 15.0477C20.3067 13.0866 20.3067 11.0979 19.8774 9.13678ZM18.6205 14.7633C18.3886 15.6794 17.1996 16.8184 16.2548 17.0288C15.018 17.264 13.7714 17.3645 12.5261 17.33C12.5013 17.3293 12.4775 17.339 12.4602 17.3567C12.2835 17.5381 11.3007 18.5472 11.3007 18.5472L10.0673 19.813C9.97709 19.9071 9.81866 19.843 9.81866 19.7133V17.1165C9.81866 17.0736 9.78803 17.0372 9.74589 17.0289C9.74563 17.0288 9.74543 17.0288 9.74518 17.0287C8.80044 16.8183 7.61185 15.6794 7.37953 14.7632C6.99303 12.9907 6.99303 11.1937 7.37953 9.42115C7.61185 8.50501 8.80044 7.36609 9.74518 7.15565C11.9052 6.74483 14.0953 6.74483 16.2549 7.15565C17.2001 7.36609 18.3886 8.50501 18.6205 9.42115C19.0074 11.1938 19.0074 12.9907 18.6205 14.7633Z" fill="white"/>
<path d="M15.0552 15.9619C14.91 15.9178 14.7716 15.8882 14.643 15.8349C13.3109 15.2822 12.0851 14.5693 11.1141 13.4764C10.5619 12.855 10.1297 12.1533 9.76439 11.4108C9.59112 11.0587 9.44512 10.6928 9.29628 10.3292C9.1606 9.9977 9.36047 9.65523 9.57091 9.40538C9.7684 9.17093 10.0226 8.99157 10.2978 8.85928C10.5126 8.75609 10.7245 8.81561 10.8814 8.99766C11.2205 9.39132 11.5321 9.80508 11.7843 10.2614C11.9394 10.5421 11.8968 10.8851 11.6157 11.0761C11.5473 11.1226 11.4851 11.1771 11.4214 11.2295C11.3656 11.2755 11.3131 11.3219 11.2748 11.3841C11.2048 11.4979 11.2015 11.6322 11.2465 11.7559C11.5932 12.7087 12.1775 13.4496 13.1365 13.8486C13.29 13.9125 13.444 13.9868 13.6209 13.9662C13.9169 13.9316 14.0128 13.6068 14.2203 13.4372C14.4231 13.2714 14.6822 13.2692 14.9007 13.4074C15.1192 13.5457 15.3309 13.6941 15.5415 13.8442C15.7481 13.9914 15.9539 14.1354 16.1444 14.3033C16.3278 14.4648 16.3909 14.6765 16.2876 14.8955C16.0987 15.2968 15.8238 15.6305 15.4272 15.8435C15.3152 15.9036 15.1815 15.923 15.0552 15.9619C14.91 15.9178 15.1815 15.923 15.0552 15.9619Z" fill="white"/>
<path d="M13.0039 8.40047C14.7462 8.44932 16.1773 9.60556 16.4839 11.3281C16.5362 11.6216 16.5548 11.9216 16.578 12.2195C16.5878 12.3448 16.5168 12.4638 16.3817 12.4655C16.242 12.4672 16.1792 12.3503 16.17 12.2251C16.1521 11.9772 16.1397 11.7281 16.1055 11.4823C15.9252 10.1844 14.8903 9.11064 13.5984 8.88025C13.4039 8.84557 13.2051 8.83648 13.0081 8.81581C12.8836 8.80276 12.7206 8.79524 12.693 8.64046C12.6699 8.51071 12.7794 8.40743 12.903 8.40077C12.9364 8.39879 12.9702 8.40037 13.0039 8.40047C14.7463 8.44932 12.9702 8.40037 13.0039 8.40047Z" fill="white"/>
<path d="M15.6517 11.8331C15.6488 11.8549 15.6474 11.906 15.6346 11.9542C15.5884 12.1291 15.3231 12.1509 15.2621 11.9745C15.244 11.9221 15.2413 11.8625 15.2412 11.8061C15.2406 11.4372 15.1604 11.0685 14.9743 10.7474C14.783 10.4174 14.4907 10.1401 14.148 9.97212C13.9407 9.87066 13.7166 9.80754 13.4894 9.77001C13.3901 9.75356 13.2897 9.74366 13.19 9.72974C13.0691 9.71293 13.0045 9.6359 13.0102 9.51676C13.0156 9.40515 13.0972 9.32476 13.2189 9.33172C13.6187 9.35437 14.0049 9.4409 14.3604 9.62909C15.0832 10.0119 15.4962 10.6161 15.6168 11.423C15.6222 11.4596 15.6309 11.4958 15.6337 11.5324C15.6405 11.6229 15.6448 11.7136 15.6517 11.8331C15.6488 11.8548 15.6448 11.7136 15.6517 11.8331Z" fill="white"/>
<path d="M14.568 11.7908C14.4223 11.7935 14.3443 11.7127 14.3292 11.5792C14.3188 11.4861 14.3104 11.3916 14.2882 11.3009C14.2444 11.1223 14.1495 10.9569 13.9993 10.8474C13.9284 10.7958 13.848 10.7582 13.7639 10.7338C13.657 10.7029 13.5459 10.7114 13.4393 10.6853C13.3235 10.6569 13.2594 10.5631 13.2776 10.4544C13.2942 10.3555 13.3903 10.2783 13.4985 10.2862C14.1739 10.3349 14.6567 10.6842 14.7256 11.4794C14.7306 11.5355 14.7363 11.5948 14.7238 11.6486C14.7024 11.7403 14.6343 11.7864 14.568 11.7908C14.4222 11.7934 14.6343 11.7864 14.568 11.7908Z" fill="white"/>
<path d="M19.8772 9.13667L19.8729 9.1195C19.6782 8.33234 19.1005 7.51304 18.377 6.88965L17.399 7.75638C17.9806 8.21976 18.4788 8.86169 18.6204 9.42099C19.0074 11.1936 19.0074 12.9905 18.6204 14.7632C18.3885 15.6793 17.1995 16.8182 16.2548 17.0287C15.018 17.2639 13.7714 17.3644 12.526 17.3299C12.5012 17.3292 12.4774 17.3389 12.4602 17.3566C12.2834 17.538 11.3006 18.547 11.3006 18.547L10.0672 19.8129C9.97705 19.907 9.81861 19.843 9.81861 19.7132V17.1164C9.81861 17.0735 9.78799 17.0371 9.74584 17.0288C9.74559 17.0288 9.74539 17.0287 9.74513 17.0287C9.20822 16.9091 8.5928 16.4895 8.11871 15.9815L7.15234 16.8378C7.75588 17.4944 8.5343 18.0252 9.29369 18.242V19.8095C9.29369 20.3769 9.98507 20.6555 10.3782 20.2461L11.9664 18.5952C12.3109 18.6145 12.6555 18.6252 13.0001 18.6252C14.171 18.6252 15.3424 18.5145 16.5052 18.2927L16.5214 18.2894C17.9595 17.9759 19.5255 16.4691 19.8728 15.0649L19.8771 15.0477C20.3066 13.0865 20.3066 11.0978 19.8772 9.13667Z" fill="white"/>
<path d="M15.0551 15.962C15.1814 15.9231 14.9099 15.9178 15.0551 15.962V15.962Z" fill="white"/>
<path d="M16.1445 14.3033C15.9539 14.1354 15.7481 13.9914 15.5415 13.8441C15.3309 13.6941 15.1192 13.5457 14.9007 13.4073C14.6823 13.2691 14.4231 13.2713 14.2203 13.4371C14.0128 13.6068 13.917 13.9316 13.6209 13.9661C13.4441 13.9867 13.29 13.9124 13.1365 13.8486C12.5465 13.6031 12.0988 13.2277 11.7604 12.7538L11.0414 13.3911C11.0658 13.4194 11.0891 13.4484 11.1139 13.4764C12.085 14.5692 13.3109 15.2822 14.6428 15.8348C14.7714 15.8882 14.9099 15.9178 15.0551 15.9618C14.9099 15.9177 15.1814 15.923 15.0551 15.9618C15.1814 15.923 15.3151 15.9034 15.4272 15.8434C15.8238 15.6303 16.0987 15.2966 16.2876 14.8954C16.3909 14.6765 16.3278 14.4647 16.1445 14.3033Z" fill="white"/>
<path d="M13.0083 8.40071C13.0068 8.40071 13.0054 8.40055 13.0039 8.40055C13.0025 8.40045 13.0043 8.40055 13.0083 8.40071Z" fill="white"/>
<path d="M13.0039 8.40051C13.0054 8.40051 13.0068 8.40067 13.0083 8.40067C13.105 8.40412 14.6776 8.44743 13.0039 8.40051Z" fill="white"/>
<path d="M15.5027 9.43701L15.1962 9.70874C15.6779 10.1775 16.0101 10.7987 16.1051 11.4823C16.1392 11.7282 16.1518 11.9771 16.1697 12.2251C16.1788 12.3503 16.2416 12.4672 16.3813 12.4656C16.5165 12.4639 16.5875 12.3449 16.5777 12.2196C16.5544 11.9217 16.5358 11.6216 16.4836 11.3281C16.3494 10.5741 15.9996 9.92862 15.5027 9.43701Z" fill="white"/>
<path d="M15.6164 11.4225C15.5286 10.8346 15.2847 10.3548 14.8796 9.98926L14.5739 10.2602C14.7319 10.4005 14.8687 10.5653 14.974 10.747C15.1601 11.0681 15.2403 11.4368 15.2409 11.8058C15.241 11.8621 15.2437 11.9217 15.2618 11.9742C15.3229 12.1508 15.5881 12.1289 15.6343 11.9539C15.6471 11.9056 15.6486 11.8545 15.6515 11.8328C15.6486 11.8546 15.6445 11.7133 15.6515 11.8328C15.6445 11.7133 15.6402 11.6226 15.6334 11.532C15.6307 11.4952 15.6219 11.4591 15.6164 11.4225Z" fill="white"/>
<path d="M15.6512 11.8331C15.6443 11.7135 15.6483 11.8547 15.6512 11.8331V11.8331Z" fill="white"/>
<path d="M14.5676 11.7909C14.5699 11.7907 14.5721 11.7896 14.5742 11.7893C14.5681 11.7893 14.5586 11.7895 14.549 11.7898C14.5552 11.79 14.561 11.7909 14.5676 11.7909Z" fill="white"/>
<path d="M14.5676 11.7909C14.561 11.791 14.5553 11.79 14.549 11.7898C14.5174 11.7907 14.4848 11.7923 14.5676 11.7909Z" fill="white"/>
<path d="M14.5743 11.7893C14.572 11.7896 14.5698 11.7907 14.5676 11.7909C14.5847 11.7897 14.5832 11.7893 14.5743 11.7893Z" fill="white"/>
<path d="M14.26 10.5383L13.9489 10.8142C13.966 10.8246 13.9828 10.8355 13.9991 10.8473C14.1493 10.9567 14.2443 11.1222 14.288 11.3008C14.3103 11.3915 14.3185 11.4858 14.329 11.579C14.3434 11.7067 14.4158 11.7851 14.5492 11.7897C14.5589 11.7894 14.5684 11.7892 14.5745 11.7892C14.6387 11.7821 14.703 11.7371 14.7236 11.6483C14.736 11.5946 14.7303 11.5353 14.7254 11.4792C14.6867 11.0346 14.5186 10.7295 14.26 10.5383Z" fill="white"/>
</svg>
