<svg width="26" height="26" viewBox="0 0 26 26" fill="none" xmlns="http://www.w3.org/2000/svg">
<circle cx="13" cy="13" r="10" fill="#FAFAFA"/>
<path d="M13 0C5.8164 0 0 5.8164 0 13C0 20.1836 5.8164 26 13 26C20.1836 26 26 20.1836 26 13C26 5.8164 20.1836 0 13 0ZM20.4385 18.7005L18.1676 18.7237C18.1676 18.7237 17.6809 18.8164 17.0321 18.3761C16.1747 17.7968 15.3636 16.2674 14.738 16.4759C14.1123 16.6845 14.1355 18.0517 14.1355 18.0517C14.1355 18.0517 14.1355 18.3529 13.9964 18.492C13.8342 18.6542 13.533 18.7005 13.533 18.7005H12.5134C12.5134 18.7005 10.2656 18.8396 8.27273 16.7772C6.11765 14.5294 4.1943 10.057 4.1943 10.057C4.1943 10.057 4.07843 9.75579 4.1943 9.61676C4.33333 9.45455 4.7041 9.45455 4.7041 9.45455L7.13725 9.43137C7.13725 9.43137 7.36898 9.47772 7.53119 9.59358C7.67023 9.68628 7.73975 9.87166 7.73975 9.87166C7.73975 9.87166 8.13369 10.8681 8.66667 11.7718C9.68628 13.533 10.1497 13.9269 10.4973 13.7184C11.0071 13.4403 10.8449 11.2389 10.8449 11.2389C10.8449 11.2389 10.8449 10.4278 10.59 10.0802C10.3815 9.80214 10.0107 9.73262 9.82531 9.70945C9.68628 9.68628 9.918 9.36185 10.1961 9.22282C10.6364 9.01426 11.4011 8.99109 12.328 9.01426C13.0463 9.01426 13.2549 9.06061 13.533 9.13013C14.3672 9.33868 14.0891 10.1266 14.0891 12.0036C14.0891 12.6061 13.9733 13.4635 14.4135 13.7415C14.5989 13.8574 15.0624 13.7647 16.1979 11.8182C16.7308 10.8913 17.148 9.82531 17.148 9.82531C17.148 9.82531 17.2406 9.63993 17.3797 9.54724C17.5187 9.45455 17.7041 9.47772 17.7041 9.47772L20.2763 9.45455C20.2763 9.45455 21.041 9.36185 21.18 9.70945C21.3191 10.0802 20.902 10.9376 19.836 12.328C18.1212 14.6221 17.9127 14.4135 19.3494 15.7344C20.7166 17.0089 20.9947 17.6114 21.041 17.7041C21.6435 18.631 20.4385 18.7005 20.4385 18.7005Z" fill="#4C75A3"/>
</svg>
