<svg width="891" height="91" viewBox="0 0 891 91" fill="none" xmlns="http://www.w3.org/2000/svg">
<g clip-path="url(#clip0)">
<path d="M28.46 11.5195L34.49 18.4795L34.42 22.9695L28.38 16.0195L28.46 11.5195Z" fill="#005D72"/>
<path d="M54.77 11.5195L60.8 18.4795H34.49L28.46 11.5195H54.77Z" fill="#004651"/>
<path d="M28.38 16L34.38 23C34 45.1 31.48 58.46 26.86 66.83L20.86 59.83C25.44 51.5 28 38.15 28.38 16Z" fill="#005D72"/>
<path d="M28.38 16L34.38 23C34.38 25.14 34.28 27.19 34.21 29.17L28.21 22.17C28.29 20.17 28.3467 18.1167 28.38 16.01" fill="#005D72"/>
<path d="M28.21 22.1797L34.21 29.1797C34.0004 36.8975 33.1913 44.5873 31.79 52.1797L25.79 45.1797C27.2013 37.5887 28.0105 29.8981 28.21 22.1797Z" fill="#005D72"/>
<path d="M25.79 45.22L31.79 52.22C31.2139 55.1644 30.432 58.0649 29.45 60.9L23.45 53.9C24.4316 51.0622 25.2103 48.1582 25.78 45.21" fill="#005D72"/>
<path d="M23.46 53.9104L29.46 60.9104C28.8628 62.6536 28.1478 64.3541 27.32 66.0004L21.32 59.0004C22.1529 57.3491 22.8778 55.6456 23.49 53.9004" fill="#005D72"/>
<path d="M21.29 59L27.29 66L26.83 66.86L20.83 59.86C20.99 59.58 21.14 59.29 21.3 59" fill="#005D72"/>
<path d="M11.88 83.9502L17.91 90.9102H6.03L0 83.9502H11.88Z" fill="#004651"/>
<path d="M12.1 71.4004L18.13 78.3604L17.91 90.9104L11.88 83.9504L12.1 71.4004Z" fill="#005D72"/>
<path d="M67.26 0L73.29 6.96L72.26 66.83L66.23 59.87L67.26 0Z" fill="#005D72"/>
<path d="M62.78 71.4004L68.81 78.3604H18.13L12.1 71.4004H62.78Z" fill="#004651"/>
<path d="M74.87 59.8701L80.9 66.8301L80.49 90.9101L74.46 83.9501L74.87 59.8701Z" fill="#005D72"/>
<path d="M74.46 83.9502L80.49 90.9102H68.6L62.57 83.9502H74.46Z" fill="#004651"/>
<path d="M111.5 31.05L117.5 38.05C115.74 36.05 112.89 34.96 108.63 34.96C102.84 34.96 98.54 36.69 93.4 40.56L87.4 33.61C92.55 29.68 96.85 28 102.63 28C106.9 28 109.75 29 111.5 31.05Z" fill="#004651"/>
<path d="M111.5 31.05L117.5 38.05C115.74 36.05 112.89 34.96 108.63 34.96C102.84 34.96 98.54 36.69 93.4 40.56L87.4 33.61C92.55 29.68 96.85 28 102.63 28C106.9 28 109.75 29.07 111.5 31.1" fill="#004651"/>
<path d="M120.69 23.5098L126.69 30.5098C129.89 34.1998 131.52 39.4298 131.41 45.9598L125.41 38.9598C125.51 32.4298 123.89 27.2098 120.69 23.5098Z" fill="#005D72"/>
<path d="M120.69 23.5098L126.69 30.5098C127.082 30.9597 127.449 31.4304 127.79 31.9198L121.79 24.9698C121.455 24.4755 121.091 24.0013 120.7 23.5498" fill="#005D72"/>
<path d="M121.78 24.9297L127.78 31.9297C129.32 34.2211 130.371 36.8046 130.87 39.5197L124.87 32.5197C124.382 29.8045 123.329 27.2221 121.78 24.9397" fill="#005D72"/>
<path d="M124.87 32.51L130.87 39.51C131.274 41.6353 131.452 43.7973 131.4 45.96L125.4 38.96C125.452 36.794 125.274 34.6286 124.87 32.5" fill="#005D72"/>
<path d="M97.38 65.9997L91.38 58.9997C90.4599 57.9429 89.9677 56.5805 90 55.1797C90.09 49.8697 95.71 48.1797 104 48.1797C107.263 48.1808 110.508 48.6627 113.63 49.6097L119.63 56.6097C116.508 55.6627 113.263 55.1808 110 55.1797C101.67 55.1797 96.06 56.9097 96 62.1797C95.9578 63.5821 96.4512 64.948 97.38 65.9997Z" fill="#004651"/>
<path d="M113.64 49.5696L119.64 56.5696C116.518 55.6226 113.273 55.1408 110.01 55.1396C104.29 55.1396 99.85 55.9596 97.61 58.1396L91.61 51.1396C93.86 48.9096 98.3 48.1396 104.01 48.1396C107.273 48.1408 110.518 48.6226 113.64 49.5696Z" fill="#004651"/>
<path d="M91.61 51.1895L97.61 58.1895C97.3819 58.4137 97.1743 58.658 96.99 58.9195L90.99 51.9195C91.1749 51.6615 91.3824 51.4206 91.61 51.1995" fill="#004651"/>
<path d="M91 51.9092L97 58.9092C96.8491 59.109 96.7184 59.3234 96.61 59.5492L90.61 52.5492C90.7282 52.3289 90.8584 52.1152 91 51.9092Z" fill="#004651"/>
<path d="M90.6 52.5498L96.6 59.5498C96.4872 59.7624 96.3903 59.983 96.31 60.2098L90.31 53.2098C90.3869 52.9832 90.4805 52.7626 90.59 52.5498" fill="#004651"/>
<path d="M90.32 53.21L96.32 60.21C96.2291 60.4639 96.1589 60.7247 96.11 60.99L90.11 53.99C90.1589 53.7247 90.2291 53.4639 90.32 53.21Z" fill="#004651"/>
<path d="M90.11 54L96.11 61C96.0439 61.3294 96.0071 61.6641 96 62L90 55C90.011 54.6638 90.0511 54.3292 90.12 54" fill="#004651"/>
<path d="M90 55L96 62V62.15C95.9906 62.5893 96.0275 63.0284 96.11 63.46L90.11 56.46C90.024 56.039 89.9871 55.6095 90 55.18C89.9929 55.1202 89.9929 55.0598 90 55Z" fill="#004651"/>
<path d="M90.1 56.4892L96.1 63.4892C96.2596 64.2167 96.5659 64.904 97 65.5092L91 58.5092C90.5676 57.8918 90.2711 57.1897 90.13 56.4492" fill="#004651"/>
<path d="M91 58.5498L97 65.5498C97.1155 65.7183 97.2425 65.8787 97.38 66.0298L91.38 59.0298C91.2457 58.8786 91.1221 58.7182 91.01 58.5498" fill="#004651"/>
<path d="M87.68 73.0001L81.68 66.0001C84.93 69.8501 90.24 72.0001 96.9 72.0001C104.73 72.0001 110.16 69.0001 113.37 65.5801L119.37 72.5801C116.19 76.0001 110.76 79.0001 102.94 79.0001C96.27 79.0001 91 76.8101 87.68 73.0001Z" fill="#004651"/>
<path d="M113.37 65.5898L119.37 72.5898L118.9 73.0798L112.9 66.0798L113.37 65.5898Z" fill="#004651"/>
<path d="M112.9 66.08L118.9 73.08C115.64 76.33 110.36 79.01 102.9 79.01C96.27 79 91 76.81 87.68 73L81.68 66C84.93 69.85 90.24 72 96.9 72C104.36 72 109.63 69.32 112.9 66.07" fill="#004651"/>
<path d="M124.85 71.4004L130.88 78.3604H119.3L113.27 71.4004H124.85Z" fill="#004651"/>
<path d="M125.4 38.9697L131.44 45.9197L130.88 78.3597L124.85 71.3997L125.4 38.9697Z" fill="#005D72"/>
<path d="M147.8 18.3604L153.84 25.3204L153.48 46.1304L147.44 39.1703L147.8 18.3604Z" fill="#005D72"/>
<path d="M147.26 49.8701L153.3 56.8301L152.93 78.3601L146.89 71.4001L147.26 49.8701Z" fill="#005D72"/>
<path d="M146.89 71.4004L152.93 78.3604H141.34L135.31 71.4004H146.89Z" fill="#004651"/>
<path d="M172.65 49.8701L178.68 56.8301H153.3L147.26 49.8701H172.65Z" fill="#004651"/>
<path d="M183.87 71.4004L189.9 78.3604H178.31L172.28 71.4004H183.87Z" fill="#004651"/>
<path d="M184.78 18.3604L190.81 25.3204L189.9 78.3604L183.87 71.4004L184.78 18.3604Z" fill="#005D72"/>
<path d="M207.22 18.3604L213.25 25.3204L212.89 46.1304L206.86 39.1703L207.22 18.3604Z" fill="#005D72"/>
<path d="M206.68 49.8701L212.71 56.8301L212.34 78.3601L206.31 71.4001L206.68 49.8701Z" fill="#005D72"/>
<path d="M206.31 71.4004L212.34 78.3604H200.76L194.73 71.4004H206.31Z" fill="#004651"/>
<path d="M232.07 49.8701L238.1 56.8301H212.71L206.68 49.8701H232.07Z" fill="#004651"/>
<path d="M243.29 71.4004L249.32 78.3604H237.74L231.7 71.4004H243.29Z" fill="#004651"/>
<path d="M244.2 18.3604L250.23 25.3204L249.32 78.3604L243.29 71.4004L244.2 18.3604Z" fill="#005D72"/>
<path d="M266.64 18.3604L272.67 25.3204L272.41 40.7204L266.37 33.7603L266.64 18.3604Z" fill="#005D72"/>
<path d="M274.42 44.5703L280.46 51.5303H272.22L266.19 44.5703H274.42Z" fill="#004651"/>
<path d="M266.19 44.5703L272.22 51.5303L271.95 67.5503L265.91 60.5903L266.19 44.5703Z" fill="#005D72"/>
<path d="M284 47.4703L290 54.4703C288.35 52.5603 285.28 51.5703 280.42 51.5703L274.42 44.5703C279.29 44.5703 282.35 45.5603 284 47.4703Z" fill="#004651"/>
<path d="M284 47.4703L290 54.4703C288.35 52.5603 285.28 51.5703 280.42 51.5703L274.42 44.5703C279.29 44.5703 282.35 45.5703 284.01 47.4703" fill="#004651"/>
<path d="M274.06 71.4004L280.1 78.3604H260.19L254.15 71.4004H274.06Z" fill="#004651"/>
<path d="M293.66 40.0596L299.66 47.0596C302.56 50.3996 303.66 54.7696 303.55 59.4296C303.39 69.2196 297.24 78.4296 280.07 78.4296L274.07 71.4296C291.24 71.4296 297.39 62.2496 297.56 52.4296C297.63 47.7696 296.56 43.3996 293.66 40.0596Z" fill="#004651"/>
<path d="M293.66 40.0596L299.66 47.0596C299.999 47.4481 300.316 47.8554 300.61 48.2796L294.61 41.2796C294.31 40.8596 294 40.4496 293.66 40.0596Z" fill="#004651"/>
<path d="M294.61 41.2793L300.61 48.2793C301.874 50.1373 302.736 52.2389 303.14 54.4493L297.14 47.4493C296.731 45.2402 295.87 43.1395 294.61 41.2793Z" fill="#004651"/>
<path d="M297.14 47.4492L303.14 54.4492C303.456 56.0963 303.594 57.7727 303.55 59.4492C303.55 59.6092 303.55 59.7792 303.55 59.9392L297.55 52.9392C297.55 52.7792 297.55 52.6192 297.55 52.4492C297.588 50.7728 297.451 49.097 297.14 47.4492Z" fill="#004651"/>
<path d="M297.54 52.9199L303.54 59.9199C303.497 61.0853 303.364 62.2455 303.14 63.3899L297.14 56.3899C297.368 55.2459 297.505 54.0856 297.55 52.9199" fill="#004651"/>
<path d="M297.13 56.3896L303.13 63.3896C302.95 64.2675 302.713 65.1327 302.42 65.9797L296.42 59.0296C296.721 58.1817 296.958 57.3127 297.13 56.4296" fill="#004651"/>
<path d="M296.42 59L302.42 65.95C302.153 66.7038 301.836 67.4388 301.47 68.15L295.47 61.15C295.837 60.444 296.151 59.712 296.41 58.96" fill="#004651"/>
<path d="M295.48 61.1797L301.48 68.1797C301.121 68.8764 300.71 69.545 300.25 70.1797L294.25 63.1797C294.706 62.5426 295.117 61.8743 295.48 61.1797Z" fill="#004651"/>
<path d="M294.25 63.1992L300.25 70.1992C299.715 70.9557 299.116 71.665 298.46 72.3192L292.46 65.3192C293.122 64.6673 293.724 63.9579 294.26 63.1992" fill="#004651"/>
<path d="M292.45 65.3193L298.45 72.3193C294.76 75.9893 288.85 78.3993 280.06 78.3993L274.06 71.3993C282.86 71.3993 288.76 68.9893 292.45 65.3193Z" fill="#004651"/>
<path d="M314.99 18.3604L321.02 25.3204L320.12 78.3604L314.08 71.4004L314.99 18.3604Z" fill="#005D72"/>
<path d="M314.08 71.4004L320.12 78.3604H308.54L302.5 71.4004H314.08Z" fill="#004651"/>
<path d="M360 31.6396L366 38.6396C363.7 35.9896 360.16 34.6396 355.73 34.6396C347.91 34.6396 342.73 38.9096 341.11 45.7496L335.11 38.7496C336.75 31.9096 341.9 27.6396 349.73 27.6396C354.21 27.6496 357.74 28.9996 360 31.6396Z" fill="#004651"/>
<path d="M360 31.6396L366 38.6396C363.7 35.9896 360.16 34.6396 355.73 34.6396C351.3 34.6396 347.52 36.0896 344.94 38.6396L338.94 31.6396C341.52 29.0796 345.17 27.6396 349.73 27.6396C354.29 27.6396 357.73 28.9796 359.99 31.6396" fill="#004651"/>
<path d="M339 31.6592L345 38.6592C344.475 39.1864 343.994 39.7549 343.56 40.3592L337.56 33.3592C337.994 32.7549 338.475 32.1864 339 31.6592Z" fill="#004651"/>
<path d="M337.55 33.3594L343.55 40.3594C343.179 40.9097 342.844 41.4843 342.55 42.0794L336.55 35.0794C336.844 34.4843 337.179 33.9097 337.55 33.3594Z" fill="#004651"/>
<path d="M336.51 35.0801L342.51 42.0801C342.184 42.7263 341.903 43.3946 341.67 44.0801L335.67 37.0801C335.901 36.394 336.182 35.7256 336.51 35.0801Z" fill="#004651"/>
<path d="M335.67 37L341.67 44C341.48 44.56 341.31 45.13 341.16 45.73L335.16 38.73C335.297 38.1473 335.467 37.5731 335.67 37.01" fill="#004651"/>
<path d="M344 63.3803L338 56.3803C336.197 54.2521 335.121 51.6032 334.93 48.8203L340.93 55.8203C341.128 58.6016 342.203 61.2485 344 63.3803Z" fill="#005D72"/>
<path d="M334.89 48.8604L340.89 55.8604C340.938 56.4046 341.018 56.9456 341.13 57.4804L335.13 50.4804C335.026 49.9446 334.949 49.4039 334.9 48.8604" fill="#005D72"/>
<path d="M335.12 50.4805L341.12 57.4805C341.437 59.2448 342.118 60.9238 343.12 62.4105L337.12 55.4105C336.095 53.9296 335.394 52.25 335.06 50.4805" fill="#005D72"/>
<path d="M337.18 55.4102L343.18 62.4102C343.43 62.7602 343.69 63.1002 343.97 63.4102L337.97 56.4102C337.691 56.0923 337.43 55.7584 337.19 55.4102" fill="#005D72"/>
<path d="M369.31 25.0703L375.31 32.0703C379.131 36.6338 381.101 42.4646 380.83 48.4103L374.83 41.4603C375.101 35.4993 373.132 29.6525 369.31 25.0703Z" fill="#005D72"/>
<path d="M369.31 25.0703L375.31 32.0703C375.81 32.6469 376.278 33.2512 376.71 33.8803L370.71 26.8803C370.27 26.2503 369.8 25.6503 369.31 25.0703Z" fill="#005D72"/>
<path d="M370.71 26.8799L376.71 33.8799C378.511 36.4881 379.744 39.4451 380.33 42.5599L374.33 35.5599C373.734 32.4481 372.502 29.493 370.71 26.8799Z" fill="#005D72"/>
<path d="M374.33 35.5605L380.33 42.5605C380.709 44.4866 380.876 46.4482 380.83 48.4105L374.83 41.4605C374.872 39.495 374.704 37.5306 374.33 35.6005" fill="#005D72"/>
<path d="M374.1 48.8604L380.13 55.8204H340.92L334.89 48.8604H374.1Z" fill="#004651"/>
<path d="M374.83 41.4199L380.83 48.3699C380.733 50.8654 380.489 53.3531 380.1 55.8199L374.1 48.8199C374.488 46.3696 374.731 43.8987 374.83 41.4199Z" fill="#005D72"/>
<path d="M374.83 41.4199L380.83 48.3699C380.83 48.5599 380.83 48.7499 380.83 48.9499L374.83 41.9499C374.83 41.7499 374.83 41.5599 374.83 41.3799" fill="#005D72"/>
<path d="M374.81 42L380.81 49C380.687 51.3007 380.446 53.5937 380.09 55.87L374.09 48.87C374.444 46.5936 374.681 44.3006 374.8 42" fill="#005D72"/>
<path d="M335.09 70.42L329.09 63.42C333.98 69.06 341.51 72.28 350.77 72.28C354.968 72.346 359.12 71.401 362.876 69.5247C366.632 67.6485 369.881 64.8961 372.35 61.5L378.35 68.5C375.88 71.9066 372.626 74.6678 368.862 76.5495C365.099 78.4313 360.937 79.3782 356.73 79.31C347.52 79.27 340 76.06 335.09 70.42Z" fill="#004651"/>
<path d="M372.35 61.5L378.35 68.5C377.501 69.6166 376.579 70.6756 375.59 71.67L369.59 64.67C370.576 63.6754 371.495 62.6164 372.34 61.5" fill="#004651"/>
<path d="M369.6 64.67L375.6 71.67C373.134 74.1494 370.192 76.1044 366.951 77.4173C363.71 78.7303 360.236 79.374 356.74 79.31C347.49 79.31 339.95 76.1 335.06 70.46L329.06 63.46C333.95 69.1 341.48 72.32 350.74 72.32C354.237 72.3822 357.711 71.7365 360.952 70.4219C364.193 69.1072 367.134 67.1507 369.6 64.67Z" fill="#004651"/>
<path d="M443.71 29.1699L449.74 36.1299H424.95L418.92 29.1699H443.71Z" fill="#004651"/>
<path d="M418.92 29.1699L424.95 36.1299L424.23 78.3599L418.19 71.3999L418.92 29.1699Z" fill="#005D72"/>
<path d="M418.19 71.4004L424.23 78.3604H412.65L406.62 71.4004H418.19Z" fill="#004651"/>
<path d="M454.56 71.4004L460.6 78.3604H449.02L442.98 71.4004H454.56Z" fill="#004651"/>
<path d="M455.47 18.3604L461.5 25.3204L460.6 78.3604L454.56 71.4004L455.47 18.3604Z" fill="#005D72"/>
<path d="M504.17 33.2196L510.17 40.2196C508.647 38.5061 506.77 37.1438 504.669 36.227C502.567 35.3101 500.292 34.8607 498 34.9096C488.75 34.9096 481.64 41.3296 481.46 51.7296C481.286 55.9253 482.679 60.0355 485.37 63.2596L479.37 56.2596C476.688 53.0353 475.298 48.9301 475.47 44.7396C475.62 34.3796 482.73 27.9996 492 27.9996C494.285 27.9394 496.556 28.3748 498.657 29.2759C500.758 30.177 502.639 31.5224 504.17 33.2196Z" fill="#004651"/>
<path d="M504.17 33.2203L510.17 40.2203C508.647 38.5067 506.77 37.1444 504.669 36.2276C502.567 35.3108 500.292 34.8613 498 34.9103C495.837 34.8586 493.686 35.2368 491.671 36.023C489.655 36.8092 487.816 37.9877 486.26 39.4903L480.26 32.4903C481.824 31.0039 483.666 29.8419 485.681 29.0713C487.696 28.3006 489.844 27.9366 492 28.0003C494.294 27.9419 496.573 28.383 498.68 29.293C500.786 30.203 502.67 31.5601 504.2 33.2703" fill="#004651"/>
<path d="M480.24 32.5303L486.24 39.5303C485.637 40.1336 485.085 40.7859 484.59 41.4803L478.59 34.4803C479.085 33.7859 479.637 33.1336 480.24 32.5303Z" fill="#004651"/>
<path d="M478.59 34.4805L484.59 41.4805C484.154 42.091 483.763 42.7327 483.42 43.4005L477.42 36.4005C477.763 35.7327 478.154 35.091 478.59 34.4805Z" fill="#004651"/>
<path d="M477.42 36.4004L483.42 43.4004C483.072 44.0789 482.771 44.7805 482.52 45.5004L476.52 38.5004C476.775 37.782 477.076 37.0805 477.42 36.4004Z" fill="#004651"/>
<path d="M476.52 38.5L482.52 45.5C482.234 46.3091 482.006 47.1379 481.84 47.98L475.84 40.98C476.006 40.1379 476.234 39.3091 476.52 38.5Z" fill="#004651"/>
<path d="M475.84 41L481.84 48C481.625 49.095 481.494 50.205 481.45 51.32L475.45 44.32C475.49 43.2046 475.621 42.0943 475.84 41Z" fill="#004651"/>
<path d="M475.45 44.2998L481.45 51.2998C481.45 51.4598 481.45 51.6198 481.45 51.7698C481.427 53.1316 481.544 54.4921 481.8 55.8298L475.8 48.8298C475.538 47.5132 475.421 46.1719 475.45 44.8298C475.45 44.6698 475.45 44.5098 475.45 44.3498" fill="#004651"/>
<path d="M475.79 48.83L481.79 55.83C482.22 58.0464 483.109 60.1481 484.4 62L478.4 55C477.114 53.1337 476.235 51.018 475.82 48.79" fill="#004651"/>
<path d="M478.37 55L484.37 62C484.681 62.4374 485.015 62.858 485.37 63.26L479.37 56.26C479.014 55.8582 478.681 55.4376 478.37 55Z" fill="#004651"/>
<path d="M513.67 26.2598L519.67 33.2598C524.024 38.4211 526.292 45.0226 526.03 51.7698C525.76 67.6898 513.88 79.3098 497.22 79.3098C488.27 79.3098 480.76 75.8698 475.81 70.1698L469.81 63.1698C474.75 68.8698 482.26 72.3198 491.21 72.3198C507.87 72.3198 519.76 60.6898 520.03 44.7798C520.293 38.0294 518.025 31.4241 513.67 26.2598Z" fill="#004651"/>
<path d="M513.67 26.2598L519.67 33.2598C520.246 33.9209 520.787 34.6118 521.29 35.3298L515.29 28.3798C514.79 27.6587 514.253 26.9644 513.68 26.2998" fill="#004651"/>
<path d="M515.28 28.3398L521.28 35.3398C523.351 38.3489 524.777 41.7534 525.47 45.3398L519.47 38.3398C518.789 34.7498 517.362 31.3428 515.28 28.3398Z" fill="#004651"/>
<path d="M519.47 38.3301L525.47 45.3301C525.879 47.4514 526.064 49.61 526.02 51.7701C526.02 52.0001 526.02 52.2201 526.02 52.4501L520.02 45.4501C520.02 45.2301 520.02 45.0001 520.02 44.7801C520.065 42.6162 519.878 40.4537 519.46 38.3301" fill="#004651"/>
<path d="M520 45.4502L526 52.4502C525.936 54.0863 525.742 55.7148 525.42 57.3202L519.42 50.3202C519.744 48.7153 519.934 47.0865 519.99 45.4502" fill="#004651"/>
<path d="M519.44 50.3193L525.44 57.3193C525.182 58.6336 524.828 59.9272 524.38 61.1893L518.38 54.1893C518.825 52.9261 519.179 51.6329 519.44 50.3193Z" fill="#004651"/>
<path d="M518.38 54.1894L524.38 61.1894C523.998 62.3431 523.537 63.469 523 64.5594L517 57.5594C517.565 56.4565 518.056 55.3174 518.47 54.1494" fill="#004651"/>
<path d="M516.91 57.5996L522.91 64.5996C522.318 65.7237 521.649 66.8062 520.91 67.8396L514.91 60.8396C515.653 59.8087 516.321 58.7259 516.91 57.5996Z" fill="#004651"/>
<path d="M514.94 60.8398L520.94 67.8398C520.083 69.0416 519.126 70.1689 518.08 71.2098L512.08 64.2098C513.124 63.1663 514.08 62.0392 514.94 60.8398Z" fill="#004651"/>
<path d="M512.08 64.2099L518.08 71.2099C512.98 76.2899 505.72 79.3099 497.22 79.3099C488.27 79.3099 480.76 75.8699 475.81 70.1699L469.81 63.1699C474.75 68.8699 482.26 72.3199 491.21 72.3199C499.72 72.3199 506.97 69.3199 512.08 64.2099Z" fill="#004651"/>
<path d="M590.61 33.2202L596.61 40.2202C595.081 38.5113 593.199 37.155 591.094 36.245C588.99 35.3351 586.712 34.8933 584.42 34.9502C575.18 34.9502 568.05 41.3702 567.88 51.7702C567.7 55.9618 569.091 60.0696 571.78 63.2902L565.78 56.2902C563.089 53.0741 561.695 48.9698 561.87 44.7802C562.05 34.3802 569.17 27.9502 578.42 27.9502C580.712 27.8933 582.99 28.3351 585.094 29.245C587.199 30.155 589.081 31.5113 590.61 33.2202Z" fill="#004651"/>
<path d="M590.61 33.2197L596.61 40.2197C595.081 38.5108 593.199 37.1545 591.094 36.2445C588.99 35.3346 586.712 34.8928 584.42 34.9497C582.257 34.898 580.106 35.2762 578.091 36.0624C576.075 36.8486 574.236 38.0271 572.68 39.5297L566.68 32.5297C568.242 31.038 570.083 29.8698 572.098 29.0923C574.112 28.3149 576.261 27.9435 578.42 27.9997C580.712 27.9428 582.99 28.3846 585.094 29.2945C587.199 30.2045 589.081 31.5608 590.61 33.2697" fill="#004651"/>
<path d="M566.67 32.5293L572.67 39.5293C572.064 40.1301 571.512 40.7826 571.02 41.4793L565.02 34.4793C565.515 33.7849 566.067 33.1327 566.67 32.5293Z" fill="#004651"/>
<path d="M565 34.4795L571 41.4795C570.566 42.0949 570.175 42.7398 569.83 43.4095L563.83 36.4095C564.175 35.7398 564.566 35.0949 565 34.4795Z" fill="#004651"/>
<path d="M563.85 36.4102L569.85 43.4102C569.496 44.0821 569.195 44.7809 568.95 45.5002L562.95 38.5002C563.203 37.7843 563.504 37.086 563.85 36.4102Z" fill="#004651"/>
<path d="M563 38.5L569 45.5C568.712 46.3121 568.485 47.1444 568.32 47.99L562.32 40.99C562.485 40.1444 562.712 39.3121 563 38.5Z" fill="#004651"/>
<path d="M562.27 41L568.27 48C568.045 49.0901 567.915 50.1975 567.88 51.31L561.88 44.31C561.916 43.1982 562.043 42.0911 562.26 41" fill="#004651"/>
<path d="M561.89 44.2998L567.89 51.2998C567.89 51.4598 567.89 51.6198 567.89 51.7698C567.859 53.1314 567.973 54.4924 568.23 55.8298L562.23 48.8298C561.978 47.5118 561.861 46.1716 561.88 44.8298C561.88 44.6698 561.88 44.5098 561.88 44.3498" fill="#004651"/>
<path d="M562.22 48.83L568.22 55.83C568.658 58.0457 569.55 60.1465 570.84 62L564.84 55C563.559 53.1314 562.68 51.0166 562.26 48.79" fill="#004651"/>
<path d="M564.8 55L570.8 62C571.107 62.4368 571.441 62.8543 571.8 63.25L565.8 56.25C565.442 55.8535 565.108 55.4361 564.8 55Z" fill="#004651"/>
<path d="M600.1 26.2598L606.1 33.2598C610.452 38.422 612.72 45.0229 612.46 51.7698C612.19 67.6898 600.31 79.3098 583.65 79.3098C574.65 79.3098 567.19 75.8698 562.25 70.1698L556.25 63.1698C561.19 68.8698 568.71 72.3198 577.66 72.3198C594.32 72.3198 606.19 60.6898 606.47 44.7798C606.727 38.0286 604.455 31.4246 600.1 26.2598Z" fill="#004651"/>
<path d="M600.1 26.2598L606.1 33.2598C606.673 33.921 607.21 34.612 607.71 35.3298L601.71 28.3298C601.207 27.6118 600.666 26.9209 600.09 26.2598" fill="#004651"/>
<path d="M601.72 28.3301L607.72 35.3301C609.8 38.3338 611.228 41.7405 611.91 45.3301L605.91 38.3301C605.217 34.7437 603.791 31.3392 601.72 28.3301Z" fill="#004651"/>
<path d="M605.91 38.3301L611.91 45.3301C612.328 47.4503 612.516 49.6095 612.47 51.7701C612.47 52.0001 612.47 52.2201 612.47 52.4501L606.47 45.4501C606.47 45.2301 606.47 45.0001 606.47 44.7801C606.506 42.6165 606.318 40.4551 605.91 38.3301Z" fill="#004651"/>
<path d="M606.45 45.4502L612.45 52.4502C612.39 54.0861 612.199 55.7146 611.88 57.3202L605.88 50.3202C606.203 48.7149 606.397 47.0864 606.46 45.4502" fill="#004651"/>
<path d="M605.87 50.3193L611.87 57.3193C611.603 58.6347 611.249 59.9309 610.81 61.1993L604.81 54.1993C605.258 52.9338 605.612 51.6369 605.87 50.3193Z" fill="#004651"/>
<path d="M604.81 54.2002L610.81 61.2002C610.396 62.3649 609.905 63.5007 609.34 64.6002L603.34 57.6002C603.913 56.5046 604.404 55.3682 604.81 54.2002Z" fill="#004651"/>
<path d="M603.34 57.5996L609.34 64.5996C608.754 65.7272 608.085 66.8101 607.34 67.8396L601.34 60.8396C602.087 59.8116 602.756 58.7285 603.34 57.5996Z" fill="#004651"/>
<path d="M601.37 60.8398L607.37 67.8398C606.513 69.0412 605.556 70.1685 604.51 71.2098L598.51 64.2098C599.562 63.1737 600.519 62.0459 601.37 60.8398Z" fill="#004651"/>
<path d="M598.51 64.2099L604.51 71.2099C599.4 76.2899 592.15 79.3099 583.65 79.3099C574.65 79.3099 567.19 75.8699 562.25 70.1699L556.25 63.1699C561.19 68.8699 568.71 72.3199 577.66 72.3199C586.16 72.3199 593.41 69.3199 598.51 64.2099Z" fill="#004651"/>
<path d="M651.42 29.1699L657.46 36.1299H632.68L626.64 29.1699H651.42Z" fill="#004651"/>
<path d="M626.64 29.1699L632.68 36.1299L631.96 78.3599L625.92 71.3999L626.64 29.1699Z" fill="#005D72"/>
<path d="M625.92 71.4004L631.96 78.3604H620.38L614.34 71.4004H625.92Z" fill="#004651"/>
<path d="M662.29 71.4004L668.32 78.3604H656.74L650.7 71.4004H662.29Z" fill="#004651"/>
<path d="M663.2 18.3604L669.23 25.3204L668.32 78.3604L662.29 71.4004L663.2 18.3604Z" fill="#005D72"/>
<path d="M691.76 29.1699L697.79 36.1299L697.65 44.3899L691.62 37.4299L691.76 29.1699Z" fill="#004651"/>
<path d="M710.44 29.1699L716.48 36.1299H697.79L691.76 29.1699H710.44Z" fill="#004651"/>
<path d="M691.61 37.4297L697.61 44.4297C697.16 70.7997 688.99 78.9097 677.21 78.9097C676.41 78.9097 675.6 78.9097 674.77 78.8097L668.77 71.8097C669.6 71.8797 670.42 71.9197 671.22 71.9197C683 71.9197 691.16 63.7997 691.61 37.4297Z" fill="#005D72"/>
<path d="M691.61 37.4297L697.61 44.4297C697.61 45.3197 697.61 46.1897 697.54 47.0397L691.54 40.0397C691.54 39.1897 691.6 38.3197 691.61 37.4297Z" fill="#005D72"/>
<path d="M691.54 40L697.54 47C697.412 51.233 696.95 55.4494 696.16 59.61L690.16 52.61C690.955 48.4501 691.416 44.2334 691.54 40Z" fill="#005D72"/>
<path d="M690.17 52.6494L696.17 59.6494C695.781 61.6851 695.246 63.6902 694.57 65.6494L688.57 58.6494C689.241 56.6888 689.776 54.684 690.17 52.6494Z" fill="#005D72"/>
<path d="M688.57 58.6093L694.57 65.6093C694.13 66.8567 693.605 68.0729 693 69.2493L687 62.2493C687.602 61.0579 688.127 59.8287 688.57 58.5693" fill="#005D72"/>
<path d="M687 62.29L693 69.29C692.527 70.2315 691.985 71.1372 691.38 72L685.38 65C685.98 64.1341 686.521 63.2287 687 62.29Z" fill="#005D72"/>
<path d="M685.35 65L691.35 72C690.773 72.817 690.127 73.5831 689.42 74.29L683.42 67.29C684.125 66.5805 684.77 65.8146 685.35 65Z" fill="#005D72"/>
<path d="M683.42 67.3096L689.42 74.3096C686.12 77.5996 681.96 78.9096 677.22 78.9096C676.42 78.9096 675.61 78.9096 674.78 78.8096L668.78 71.8096C669.61 71.8796 670.43 71.9196 671.23 71.9196C675.97 71.9196 680.13 70.5996 683.43 67.3096" fill="#005D72"/>
<path d="M721.3 71.4004L727.33 78.3604H715.75L709.72 71.4004H721.3Z" fill="#004651"/>
<path d="M722.21 18.3604L728.24 25.3204L727.33 78.3604L721.3 71.4004L722.21 18.3604Z" fill="#005D72"/>
<path d="M762.5 31.0002L768.5 38.0002C766.75 36.0002 763.9 34.9102 759.64 34.9102C753.84 34.9102 749.55 36.6402 744.4 40.5102L738.4 33.5602C743.55 29.6802 747.84 27.9502 753.64 27.9502C757.9 28.0002 760.75 29.0002 762.5 31.0002Z" fill="#004651"/>
<path d="M762.5 31.0002L768.5 38.0002C766.75 36.0002 763.9 34.9102 759.64 34.9102C753.84 34.9102 749.55 36.6402 744.4 40.5102L738.4 33.5602C743.55 29.6802 747.84 27.9502 753.64 27.9502C757.9 27.9502 760.75 29.0202 762.5 31.0402" fill="#004651"/>
<path d="M771.68 23.5098L777.68 30.5098C780.88 34.1998 782.5 39.4298 782.39 45.9598L776.39 38.9598C776.51 32.4298 774.89 27.2098 771.68 23.5098Z" fill="#005D72"/>
<path d="M771.68 23.5098L777.68 30.5098C778.068 30.9598 778.432 31.4305 778.77 31.9198L772.77 24.9698C772.431 24.4754 772.064 24.0012 771.67 23.5498" fill="#005D72"/>
<path d="M772.78 24.9297L778.78 31.9297C780.328 34.2167 781.38 36.802 781.87 39.5197L775.87 32.5197C775.378 29.8059 774.325 27.2244 772.78 24.9397" fill="#005D72"/>
<path d="M775.87 32.51L781.87 39.51C782.274 41.6353 782.452 43.7973 782.4 45.96L776.4 38.96C776.452 36.794 776.274 34.6286 775.87 32.5" fill="#005D72"/>
<path d="M748.37 65.9997L742.37 58.9997C741.445 57.9465 740.955 56.5808 741 55.1797C741.09 49.8697 746.71 48.1797 755 48.1797C758.26 48.1807 761.501 48.6625 764.62 49.6097L770.62 56.6097C767.501 55.6625 764.26 55.1807 761 55.1797C752.67 55.1797 747.05 56.9097 747 62.1797C746.965 63.5792 747.453 64.9414 748.37 65.9997Z" fill="#004651"/>
<path d="M764.64 49.5696L770.64 56.5696C767.521 55.6225 764.28 55.1406 761.02 55.1396C755.3 55.1396 750.86 55.9596 748.61 58.1396L742.61 51.1396C744.86 48.9096 749.3 48.1396 755.02 48.1396C758.28 48.1406 761.521 48.6225 764.64 49.5696Z" fill="#004651"/>
<path d="M742.61 51.1895L748.61 58.1895C748.38 58.4079 748.172 58.6492 747.99 58.9095L741.99 51.9095C742.174 51.6512 742.382 51.4102 742.61 51.1895Z" fill="#004651"/>
<path d="M742 51.9092L748 58.9092C747.858 59.1152 747.728 59.3289 747.61 59.5492L741.61 52.5492C741.723 52.3259 741.853 52.1119 742 51.9092Z" fill="#004651"/>
<path d="M741.6 52.55L747.6 59.55C747.49 59.7628 747.397 59.9834 747.32 60.21L741.32 53.21C741.398 52.9792 741.495 52.7552 741.61 52.54" fill="#004651"/>
<path d="M741.31 53.2197L747.31 60.2197C747.219 60.4736 747.149 60.7345 747.1 60.9997L741.1 53.9997C741.147 53.7374 741.218 53.4798 741.31 53.2297" fill="#004651"/>
<path d="M741.1 54L747.1 61C747.031 61.3292 746.991 61.6638 746.98 62L740.98 55C741 54.6646 741.04 54.3307 741.1 54Z" fill="#004651"/>
<path d="M741 55L747 62C746.995 62.0499 746.995 62.1001 747 62.15C746.989 62.5898 747.029 63.0295 747.12 63.46L741.12 56.46C741.037 56.0285 741 55.5893 741.01 55.15V55" fill="#004651"/>
<path d="M741.09 56.4893L747.09 63.4893C747.231 64.2297 747.528 64.9318 747.96 65.5493L741.96 58.5493C741.532 57.9297 741.235 57.2284 741.09 56.4893Z" fill="#004651"/>
<path d="M742 58.5498L748 65.5498C748.112 65.7182 748.236 65.8786 748.37 66.0298L742.37 59.0298C742.232 58.8787 742.105 58.7183 741.99 58.5498" fill="#004651"/>
<path d="M738.68 72.9995L732.68 65.9995C735.96 69.7795 741.28 71.9395 747.94 71.9395C755.76 71.9395 761.2 68.9395 764.4 65.5195L770.4 72.5195C767.19 75.9995 761.76 78.9995 753.93 78.9995C747.27 78.9995 742 76.8095 738.68 72.9995Z" fill="#004651"/>
<path d="M764.36 65.5898L770.36 72.5898L769.87 73.0898L763.87 66.0898C764.04 65.9198 764.2 65.7598 764.35 65.5898" fill="#004651"/>
<path d="M763.88 66.0903L769.88 73.0903C766.63 76.3303 761.35 79.0103 753.88 79.0103C747.22 79.0103 741.88 76.8503 738.63 73.0703L732.63 66.0703C735.91 69.8503 741.23 72.0103 747.89 72.0103C755.33 72.0103 760.61 69.3403 763.89 66.0903" fill="#004651"/>
<path d="M775.84 71.4004L781.88 78.3604H770.3L764.26 71.4004H775.84Z" fill="#004651"/>
<path d="M776.4 38.9697L782.43 45.9197L781.88 78.3597L775.84 71.3997L776.4 38.9697Z" fill="#005D72"/>
<path d="M801.05 29.1699L807.09 36.1299H787.99L781.95 29.1699H801.05Z" fill="#004651"/>
<path d="M831.73 29.1699L837.76 36.1299H818.66L812.63 29.1699H831.73Z" fill="#004651"/>
<path d="M831.91 18.3604L837.95 25.3204L837.76 36.1304L831.73 29.1704L831.91 18.3604Z" fill="#2D655C"/>
<path d="M811.9 71.4004L817.94 78.3604H806.36L800.33 71.4004H811.9Z" fill="#004651"/>
<path d="M812.63 29.1699L818.66 36.1299L817.94 78.3599L811.9 71.3999L812.63 29.1699Z" fill="#005D72"/>
<path d="M870 31.6396L876 38.6396C873.7 35.9896 870.17 34.6396 865.74 34.6396C857.91 34.6396 852.74 38.9096 851.12 45.7496L845.12 38.7496C846.76 31.9096 851.91 27.6396 859.74 27.6396C864.11 27.6496 867.65 28.9996 870 31.6396Z" fill="#004651"/>
<path d="M870 31.6396L876 38.6396C873.7 35.9896 870.17 34.6396 865.74 34.6396C861.31 34.6396 857.53 36.0896 854.95 38.6396L848.95 31.6396C851.53 29.0796 855.18 27.6396 859.74 27.6396C864.3 27.6396 867.74 28.9796 870 31.6396Z" fill="#004651"/>
<path d="M848.9 31.6592L854.9 38.6592C854.375 39.1864 853.894 39.7549 853.46 40.3592L847.46 33.3592C847.888 32.7502 848.37 32.1812 848.9 31.6592Z" fill="#004651"/>
<path d="M847.46 33.3594L853.46 40.3594C853.089 40.9097 852.754 41.4843 852.46 42.0794L846.46 35.0794C846.771 34.483 847.122 33.9083 847.51 33.3594" fill="#004651"/>
<path d="M846.41 35.0801L852.41 42.0801C852.084 42.7263 851.803 43.3946 851.57 44.0801L845.57 37.0801C845.803 36.3959 846.08 35.7278 846.4 35.0801" fill="#004651"/>
<path d="M845.58 37L851.58 44C851.39 44.56 851.22 45.13 851.07 45.73L845.07 38.73C845.207 38.1473 845.377 37.5731 845.58 37.01" fill="#004651"/>
<path d="M853.91 63.3803L847.91 56.3803C846.107 54.2521 845.031 51.6032 844.84 48.8203L850.84 55.8203C851.033 58.6027 852.109 61.251 853.91 63.3803Z" fill="#005D72"/>
<path d="M844.8 48.8604L850.8 55.8604C850.849 56.4039 850.926 56.9446 851.03 57.4804L845.03 50.4804C844.926 49.9446 844.849 49.4039 844.8 48.8604Z" fill="#005D72"/>
<path d="M845 50.4805L851 57.4805C851.34 59.248 852.041 60.9264 853.06 62.4105L847.06 55.4105C846.039 53.9275 845.338 52.2487 845 50.4805Z" fill="#005D72"/>
<path d="M847.08 55.4102L853.08 62.4102C853.324 62.7585 853.588 63.0924 853.87 63.4102L847.87 56.4102C847.59 56.0902 847.33 55.7502 847.08 55.4102Z" fill="#005D72"/>
<path d="M879.21 25.0703L885.21 32.0703C889.031 36.6338 891.001 42.4646 890.73 48.4103L884.73 41.4603C885.005 35.4988 883.036 29.6506 879.21 25.0703Z" fill="#005D72"/>
<path d="M879.21 25.0703L885.21 32.0703C885.707 32.6494 886.174 33.2535 886.61 33.8803L880.61 26.8803C880.171 26.2534 879.701 25.6493 879.2 25.0703" fill="#005D72"/>
<path d="M880.62 26.8799L886.62 33.8799C888.421 36.4881 889.654 39.4451 890.24 42.5599L884.24 35.5599C883.644 32.4481 882.412 29.493 880.62 26.8799Z" fill="#005D72"/>
<path d="M884.24 35.5605L890.24 42.5605C890.614 44.4873 890.781 46.4483 890.74 48.4105L884.74 41.4605C884.777 39.4952 884.609 37.5313 884.24 35.6005" fill="#005D72"/>
<path d="M884 48.8604L890.04 55.8204H850.83L844.8 48.8604H884Z" fill="#004651"/>
<path d="M884.74 41.4199L890.74 48.3699C890.643 50.8654 890.399 53.3531 890.01 55.8199L884.01 48.8199C884.402 46.3702 884.645 43.899 884.74 41.4199Z" fill="#005D72"/>
<path d="M884.74 41.4199L890.74 48.3699C890.74 48.5599 890.74 48.7499 890.74 48.9499L884.74 41.9499C884.74 41.7499 884.74 41.5599 884.74 41.3799" fill="#005D72"/>
<path d="M884.72 42L890.72 49C890.65 50.7 890.41 53 890 55.87L884 48.87C884.361 46.5943 884.602 44.3011 884.72 42Z" fill="#005D72"/>
<path d="M845 70.42L839 63.42C843.9 69.06 851.43 72.28 860.68 72.28C864.879 72.3451 869.033 71.3997 872.79 69.5237C876.547 67.6476 879.799 64.8957 882.27 61.5L888.27 68.5C885.8 71.9066 882.546 74.6678 878.782 76.5495C875.019 78.4313 870.857 79.3782 866.65 79.31C857.42 79.27 849.89 76.06 845 70.42Z" fill="#004651"/>
<path d="M882.27 61.5L888.27 68.5C887.43 69.6177 886.511 70.6737 885.52 71.66L879.52 64.66C880.508 63.6712 881.427 62.6153 882.27 61.5Z" fill="#004651"/>
<path d="M879.52 64.66L885.52 71.66C883.051 74.1391 880.107 76.0945 876.865 77.409C873.623 78.7235 870.148 79.3701 866.65 79.31C857.39 79.31 849.86 76.1 844.97 70.46L838.97 63.46C843.87 69.1 851.4 72.32 860.65 72.32C864.151 72.3801 867.627 71.7327 870.872 70.4164C874.116 69.1001 877.061 67.1422 879.53 64.66" fill="#004651"/>
<path fill-rule="evenodd" clip-rule="evenodd" d="M66.23 59.87H74.87L74.46 84H62.57L62.78 71.45H12.1L11.88 84H0L0.41 59.87H8C12.79 52.87 16.22 42.13 16.76 10.41L17 0H67.26L66.23 59.87ZM53.94 59.87L54.77 11.52H28.46L28.38 16C28 38.15 25.44 51.5 20.82 59.87H53.94ZM104.14 17.1401C118.06 17.1401 125.64 25.1401 125.4 38.9701L124.85 71.4001H113.27L113.37 65.5901C110.16 69.0501 104.73 72.0001 96.9002 72.0001C85.3302 72.0001 77.8202 65.4801 78.0002 55.2801C78.2102 43.4501 89.0002 38.4601 103 38.4601C106.665 38.4385 110.315 38.9162 113.85 39.8801C114 32.2401 111.16 28.0001 102.63 28.0001C96.8502 28.0001 92.5502 29.7301 87.4102 33.6101L81.8602 25.0001C86.9202 20.1001 95.5002 17.1401 104.14 17.1401ZM113.56 54.6701L113.64 49.5701C110.515 48.6222 107.266 48.1403 104 48.1401C95.6802 48.1401 90.0602 49.8701 90.0002 55.1401C89.9302 59.3301 93.7502 61.8701 99.6302 61.8701C102.385 61.9399 105.112 61.3129 107.56 60.0472C110.007 58.7815 112.095 56.9182 113.63 54.6301L113.56 54.6701ZM183.87 71.3999L184.78 18.3599H173.19L172.83 39.1699H147.44L147.8 18.3599H136.22L135.31 71.3999H146.89L147.26 49.8699H172.65L172.28 71.3999H183.87ZM244.2 18.3599L243.29 71.3999H231.7L232.07 49.8699H206.68L206.31 71.3999H194.73L195.64 18.3599H207.22L206.86 39.1699H232.25L232.61 18.3599H244.2ZM297.52 52.4302C297.72 42.4302 292.58 33.7602 275.52 33.7602L266.37 33.8302L266.64 18.4302H255.06L254.15 71.4302H274.03C291.2 71.4302 297.35 62.2202 297.52 52.4302ZM285.52 52.5302C285.43 57.7302 282.43 60.5902 274 60.5902V60.5302H265.87L266.15 44.5302H274.38C282.52 44.5302 285.61 47.3302 285.52 52.5302ZM303.41 18.3599H314.99L314.08 71.3999H302.5L303.41 18.3599ZM374.1 48.8601C374.489 46.3966 374.733 43.9123 374.83 41.4201C375.08 26.7301 364.69 17.1401 350.48 17.1401C332.8 17.1401 323.15 29.2801 322.88 44.7801C322.6 61.5001 333.75 72.3201 350.75 72.3201C354.957 72.3864 359.117 71.4376 362.879 69.554C366.641 67.6705 369.893 64.9078 372.36 61.5001L365.36 54.5001C363.684 56.68 361.529 58.4451 359.061 59.6589C356.594 60.8727 353.88 61.5027 351.13 61.5001C342.39 61.5001 335.66 57.2201 334.89 48.8601H374.1ZM362.9 38.7601H335.16C336.78 31.9201 341.95 27.6501 349.78 27.6501C357.19 27.6501 362.1 31.4201 362.9 38.7601ZM455.47 18.3599L454.56 71.3999H442.98L443.71 29.1699H418.92L418.19 71.3999H406.62L407.53 18.3599H455.47ZM520.03 44.7801C520.3 28.7601 508.82 17.1401 492.16 17.1401C475.4 17.1401 463.69 28.8701 463.45 44.7801C463.21 60.6901 474.76 72.3201 491.21 72.3201C507.87 72.3201 519.76 60.8001 520.03 44.7801ZM508.04 44.7801C507.87 54.9801 501.05 61.5001 491.4 61.5001L491.47 61.5501C481.78 61.5501 475.3 54.4201 475.47 44.8301C475.65 34.4301 482.88 28.0001 492 28.0001C501.12 28.0001 508.21 34.5801 508.04 44.7801ZM578.6 17.1401C595.26 17.1401 606.74 28.7601 606.47 44.7801C606.2 60.8001 594.32 72.3201 577.66 72.3201C561.2 72.3201 549.66 60.6901 549.89 44.7801C550.12 28.8701 561.84 17.1401 578.6 17.1401ZM577.84 61.5001C587.49 61.5001 594.3 54.9801 594.48 44.7801C594.66 34.5801 587.56 28.0001 578.42 28.0001C569.28 28.0001 562.05 34.4301 561.87 44.8301C561.71 54.4201 568.19 61.5501 577.87 61.5501L577.84 61.5001ZM662.29 71.3999L663.2 18.3599H615.25L614.34 71.3999H625.92L626.64 29.1699H651.42L650.7 71.3999H662.29ZM722.21 18.3598L721.3 71.3598H709.72L710.44 29.1298H691.76L691.61 37.3898C691.16 63.7598 683 71.8798 671.22 71.8798C670.42 71.8798 669.6 71.8798 668.77 71.7698L668.05 60.9998H669.05C674.36 60.9998 679.95 56.5998 680.34 33.4198L680.6 18.3198L722.21 18.3598ZM776.4 38.9701C776.64 25.1401 769.05 17.1401 755.14 17.1401C746.51 17.1401 737.93 20.1001 732.86 25.0001L738.4 33.6101C743.55 29.7301 747.84 28.0001 753.64 28.0001C762.17 28.0001 765 32.2401 764.83 39.8801C761.298 38.9162 757.651 38.4385 753.99 38.4601C739.99 38.4601 729.19 43.4501 728.99 55.2801C728.81 65.4801 736.32 72.0101 747.9 72.0101C755.72 72.0101 761.16 69.0501 764.36 65.5901L764.27 71.4001H775.84L776.4 38.9701ZM764.55 54.6597L764.64 49.5701C761.515 48.621 758.266 48.1391 755 48.1401C746.67 48.1401 741.05 49.8701 741 55.1401C740.93 59.3301 744.74 61.8701 750.64 61.8701C753.383 61.9308 756.097 61.2993 758.532 60.0339C760.956 58.774 763.025 56.9261 764.55 54.6597ZM831.91 18.3599L831.73 29.1699H812.63L811.9 71.3999H800.33L801.05 29.1699H781.95L782.14 18.3599H831.91ZM884 48.8601C884.396 46.3974 884.643 43.9128 884.74 41.4201C885 26.7301 874.6 17.1401 860.38 17.1401C842.71 17.1401 833.06 29.2801 832.79 44.7801C832.5 61.5001 843.65 72.3201 860.65 72.3201C864.859 72.3871 869.023 71.4387 872.788 69.5553C876.553 67.6718 879.809 64.9088 882.28 61.5001L875.28 54.5001C873.599 56.6774 871.441 58.4405 868.973 59.6539C866.504 60.8674 863.79 61.4989 861.04 61.5001C852.3 61.5001 845.57 57.2201 844.8 48.8601H884ZM872.8 38.7601H845.07C846.69 31.9201 851.86 27.6501 859.69 27.6501C867.1 27.6501 872.01 31.4201 872.8 38.7601Z" fill="url(#paint0_linear)"/>
</g>
<defs>
<linearGradient id="paint0_linear" x1="533" y1="-9.08448e-07" x2="521.924" y2="123.328" gradientUnits="userSpaceOnUse">
<stop offset="0.239583" stop-color="#00B4AA"/>
<stop offset="0.911458" stop-color="#82DCCE"/>
</linearGradient>
<clipPath id="clip0">
<rect width="890.78" height="90.9" fill="white"/>
</clipPath>
</defs>
</svg>
