<svg width="510" height="203" viewBox="0 0 510 203" fill="none" xmlns="http://www.w3.org/2000/svg">
<g clip-path="url(#clip0)">
<path d="M125.11 14.6904L131.14 21.6504H94.1599L88.1299 14.6904H125.11Z" fill="#8F282F"/>
<path d="M88.1301 14.6904L94.1601 21.6504L93.1401 81.4204L87.1001 74.4604L88.1301 14.6904Z" fill="#A83038"/>
<path d="M87.1001 74.46L93.1401 81.42H80.8501L74.8201 74.46H87.1001Z" fill="#8F282F"/>
<path d="M136.38 74.46L142.41 81.42H130.12L124.08 74.46H136.38Z" fill="#8F282F"/>
<path d="M137.6 3.07031L143.63 10.0303L142.41 81.4203L136.38 74.4603L137.6 3.07031Z" fill="#A83038"/>
<path d="M167.46 32.2402L173.5 39.2002L173.35 47.4602L167.32 40.5002L167.46 32.2402Z" fill="#8F282F"/>
<path d="M186.16 32.2402L192.19 39.2002H173.5L167.46 32.2402H186.16Z" fill="#8F282F"/>
<path d="M167.32 40.5L173.32 47.5C172.87 73.86 164.72 81.97 152.93 81.97C152.14 81.97 151.32 81.97 150.49 81.86L144.49 74.86C145.32 74.94 146.13 74.97 146.93 74.97C158.71 75 166.87 66.86 167.32 40.5Z" fill="#A83038"/>
<path d="M167.32 40.5002L173.32 47.5002C173.32 48.3902 173.32 49.2602 173.25 50.1002L167.25 43.1002C167.25 42.2502 167.31 41.3802 167.32 40.4902" fill="#A83038"/>
<path d="M167.25 43.1104L173.25 50.1104C173.131 54.3435 172.673 58.5603 171.88 62.7204L165.88 55.7204C166.667 51.5629 167.125 47.3498 167.25 43.1203" fill="#A83038"/>
<path d="M165.88 55.71L171.88 62.71C171.489 64.7451 170.954 66.7501 170.28 68.71L164.28 61.71C164.957 59.7504 165.495 57.7454 165.89 55.71" fill="#A83038"/>
<path d="M164.27 61.6699L170.27 68.6699C169.825 69.9318 169.301 71.1643 168.7 72.3599L162.7 65.3599C163.307 64.167 163.831 62.9342 164.27 61.6699Z" fill="#A83038"/>
<path d="M162.7 65.3603L168.7 72.3603C168.227 73.2777 167.689 74.1599 167.09 75.0003L161.09 68.0003C161.699 67.1329 162.247 66.224 162.73 65.2803" fill="#A83038"/>
<path d="M161.06 68.0801L167.06 75.0801C166.483 75.897 165.837 76.6632 165.13 77.3701L159.13 70.3701C159.835 69.6606 160.48 68.8947 161.06 68.0801Z" fill="#A83038"/>
<path d="M159.13 70.3701L165.13 77.3701C161.83 80.6601 157.68 81.9701 152.93 81.9701C152.14 81.9701 151.32 81.9701 150.49 81.8601L144.49 74.8601C145.32 74.9401 146.13 74.9701 146.93 74.9701C151.67 74.9701 155.83 73.6601 159.13 70.3701Z" fill="#A83038"/>
<path d="M197.01 74.46L203.05 81.42H191.47L185.44 74.46H197.01Z" fill="#8F282F"/>
<path d="M197.92 21.4307L203.96 28.3807L203.05 81.4207L197.01 74.4607L197.92 21.4307Z" fill="#A83038"/>
<path d="M238.21 34.1008L244.21 41.1008C242.45 39.1008 239.6 38.0008 235.34 38.0008C229.55 38.0008 225.25 39.7408 220.11 43.6208L214.11 36.6208C219.25 32.7408 223.54 31.0108 229.33 31.0108C233.61 31.0008 236.46 32.0808 238.21 34.1008Z" fill="#8F282F"/>
<path d="M238.21 34.1007L244.21 41.1007C242.45 39.1007 239.6 38.0007 235.34 38.0007C229.55 38.0007 225.25 39.7407 220.11 43.6207L214.11 36.6207C219.25 32.7407 223.54 31.0107 229.33 31.0107C233.6 31.0107 236.45 32.0807 238.2 34.1007" fill="#8F282F"/>
<path d="M247.4 26.5703L253.4 33.5703C256.6 37.2603 258.23 42.4903 258.12 49.0203L252.12 42.0203C252.22 35.4903 250.6 30.2703 247.4 26.5703Z" fill="#A83038"/>
<path d="M247.4 26.5703L253.4 33.5703C253.792 34.0203 254.159 34.491 254.5 34.9803L248.5 28.0303C248.161 27.5384 247.798 27.0644 247.41 26.6103" fill="#A83038"/>
<path d="M248.49 28L254.49 35C256.03 37.2914 257.081 39.8749 257.58 42.59L251.58 35.59C251.093 32.8714 250.041 30.2854 248.49 28Z" fill="#A83038"/>
<path d="M251.58 35.5703L257.58 42.5703C257.984 44.6956 258.161 46.8576 258.11 49.0203L252.11 42.0203C252.161 39.8576 251.984 37.6956 251.58 35.5703Z" fill="#A83038"/>
<path d="M224.08 69.0503L218.08 62.0503C217.16 60.9828 216.675 59.6087 216.72 58.2003C216.81 52.9003 222.43 51.2003 230.72 51.2003C233.984 51.1941 237.23 51.6795 240.35 52.6403L246.35 59.6403C243.23 58.6795 239.984 58.1941 236.72 58.2003C228.39 58.2003 222.78 59.9402 222.72 65.2002C222.669 66.6096 223.155 67.9858 224.08 69.0503Z" fill="#8F282F"/>
<path d="M240.35 52.6403L246.35 59.6403C243.231 58.6795 239.984 58.1941 236.72 58.2003C231 58.2003 226.57 59.0203 224.32 61.2003L218.32 54.2003C220.57 51.9703 225.01 51.2003 230.72 51.2003C233.984 51.1941 237.231 51.6795 240.35 52.6403Z" fill="#8F282F"/>
<path d="M218.32 54.25L224.32 61.25C224.092 61.4742 223.884 61.7186 223.7 61.98L217.7 54.98C217.887 54.724 218.095 54.4832 218.32 54.26" fill="#8F282F"/>
<path d="M217.7 55L223.7 62C223.551 62.2013 223.421 62.4155 223.31 62.64L217.31 55.64C217.43 55.42 217.56 55.21 217.7 55Z" fill="#8F282F"/>
<path d="M217.31 55.6104L223.31 62.6104C223.197 62.8263 223.1 63.0502 223.02 63.2803L217.02 56.2803C217.099 56.0512 217.192 55.8274 217.3 55.6104" fill="#8F282F"/>
<path d="M217 56.2803L223 63.2803C222.908 63.5303 222.837 63.788 222.79 64.0503L216.79 57.0503C216.839 56.7883 216.909 56.5307 217 56.2803Z" fill="#8F282F"/>
<path d="M216.82 57.05L222.82 64.05C222.751 64.3792 222.711 64.7138 222.7 65.05L216.7 58.05C216.708 57.6971 216.748 57.3456 216.82 57" fill="#8F282F"/>
<path d="M216.7 58.1006L222.7 65.1006V65.2406C222.69 65.6799 222.727 66.1191 222.81 66.5506L216.81 59.5506C216.718 59.1202 216.678 58.6805 216.69 58.2406C216.685 58.1941 216.685 58.1471 216.69 58.1006" fill="#8F282F"/>
<path d="M216.81 59.5498L222.81 66.5498C222.955 67.289 223.252 67.9902 223.68 68.6098L217.68 61.6098C217.248 60.9924 216.951 60.2903 216.81 59.5498Z" fill="#8F282F"/>
<path d="M217.68 61.6104L223.68 68.6104C223.8 68.7804 223.92 68.9303 224.05 69.0903L218.05 62.0904C217.916 61.9391 217.792 61.7787 217.68 61.6104Z" fill="#8F282F"/>
<path d="M214.39 76.0906L208.39 69.0906C211.66 72.8706 216.98 75.0306 223.64 75.0306C231.47 75.0306 236.9 72.0306 240.11 68.6006L246.11 75.6006C242.9 79.0706 237.47 82.0006 229.65 82.0006C223 82.0006 217.67 79.8706 214.39 76.0906Z" fill="#8F282F"/>
<path d="M240.08 68.6406L246.08 75.6406C245.93 75.8106 245.77 75.9706 245.61 76.1306L239.61 69.1306C239.77 68.9706 239.93 68.8106 240.08 68.6406Z" fill="#8F282F"/>
<path d="M239.61 69.1309L245.61 76.1309C242.35 79.3809 237.07 82.0709 229.61 82.0709C222.94 82.0709 217.61 79.9109 214.35 76.1309L208.35 69.1309C211.62 72.9109 216.94 75.0709 223.6 75.0709C231.06 75.0709 236.33 72.3909 239.6 69.1309" fill="#8F282F"/>
<path d="M251.56 74.46L257.59 81.42H246.01L239.98 74.46H251.56Z" fill="#8F282F"/>
<path d="M252.11 42.0205L258.15 48.9805L257.59 81.4205L251.56 74.4605L252.11 42.0205Z" fill="#A83038"/>
<path d="M276.76 32.2402L282.79 39.2002H263.7L257.67 32.2402H276.76Z" fill="#8F282F"/>
<path d="M307.44 32.2402L313.48 39.2002H294.38L288.34 32.2402H307.44Z" fill="#8F282F"/>
<path d="M307.63 21.4307L313.66 28.3807L313.48 39.2007L307.44 32.2407L307.63 21.4307Z" fill="#A83038"/>
<path d="M287.62 74.46L293.65 81.42H282.07L276.03 74.46H287.62Z" fill="#8F282F"/>
<path d="M288.34 32.2402L294.38 39.2002L293.65 81.4202L287.62 74.4602L288.34 32.2402Z" fill="#A83038"/>
<path d="M345.66 34.7002L351.66 41.7002C349.37 39.0502 345.83 37.7002 341.4 37.7002C333.58 37.7002 328.4 41.9902 326.79 48.8202L320.79 41.8202C322.43 34.9902 327.59 30.7002 335.41 30.7002C339.83 30.7002 343.36 32.0502 345.66 34.7002Z" fill="#8F282F"/>
<path d="M345.66 34.7005L351.66 41.7005C349.37 39.0505 345.83 37.7005 341.4 37.7005C339.426 37.6158 337.455 37.926 335.602 38.6129C333.749 39.2997 332.052 40.3494 330.61 41.7005L324.61 34.7005C326.051 33.3485 327.748 32.2982 329.601 31.6113C331.454 30.9244 333.426 30.6147 335.4 30.7005C339.83 30.7005 343.4 32.0505 345.66 34.7005Z" fill="#8F282F"/>
<path d="M324.61 34.7207L330.61 41.7207C330.085 42.2479 329.604 42.8164 329.17 43.4207L323.17 36.4207C323.601 35.8141 324.082 35.2454 324.61 34.7207Z" fill="#8F282F"/>
<path d="M323.17 36.4209L329.17 43.4209C328.796 43.9698 328.462 44.5446 328.17 45.1409L322.17 38.1409C322.464 37.5458 322.798 36.9712 323.17 36.4209Z" fill="#8F282F"/>
<path d="M322.13 38.1409L328.13 45.1409C327.813 45.7696 327.536 46.4175 327.3 47.0809L321.3 40.1309C321.533 39.4454 321.814 38.7771 322.14 38.1309" fill="#8F282F"/>
<path d="M321.29 40.0908L327.29 47.0408C327.087 47.6106 326.917 48.1916 326.78 48.7808L320.78 41.7808C320.93 41.1808 321.1 40.6008 321.29 40.0508" fill="#8F282F"/>
<path d="M329.62 66.4501L323.62 59.4501C321.81 57.3165 320.727 54.6612 320.53 51.8701L326.53 58.8701C326.729 61.6609 327.811 64.3158 329.62 66.4501Z" fill="#A83038"/>
<path d="M320.5 51.9102L326.5 58.9102C326.549 59.4537 326.626 59.9944 326.73 60.5302L320.73 53.5302C320.618 52.9954 320.538 52.4545 320.49 51.9102" fill="#A83038"/>
<path d="M320.74 53.5303L326.74 60.5303C327.077 62.302 327.778 63.9843 328.8 65.4703L322.8 58.4703C321.782 56.9835 321.084 55.3012 320.75 53.5303" fill="#A83038"/>
<path d="M322.79 58.4697L328.79 65.4697C329.04 65.8197 329.3 66.1597 329.58 66.4697L323.58 59.4697C323.3 59.1397 323.03 58.8097 322.78 58.4697" fill="#A83038"/>
<path d="M354.93 28.1406L360.93 35.1406C364.75 39.7051 366.723 45.5343 366.46 51.4806L360.46 44.4806C360.731 38.5332 358.757 32.7012 354.93 28.1406Z" fill="#A83038"/>
<path d="M354.93 28.1406L360.93 35.1406C361.43 35.7196 361.901 36.3237 362.34 36.9506L356.34 29.9506C355.91 29.3229 355.443 28.7218 354.94 28.1506" fill="#A83038"/>
<path d="M356.33 29.9404L362.33 36.9404C364.134 39.5375 365.383 42.4787 366 45.5804L360 38.5804C359.414 35.4657 358.181 32.5086 356.38 29.9004" fill="#A83038"/>
<path d="M360 38.6211L366 45.6211C366.369 47.5485 366.536 49.509 366.5 51.4711L360.5 44.4711C360.546 42.5087 360.379 40.5471 360 38.6211Z" fill="#A83038"/>
<path d="M359.72 51.9102L365.75 58.8702H326.54L320.5 51.9102H359.72Z" fill="#8F282F"/>
<path d="M360.45 44.4707L366.45 51.4707C366.35 53.9631 366.103 56.4474 365.71 58.9107L359.71 51.9107C360.099 49.4469 360.346 46.9628 360.45 44.4707Z" fill="#A83038"/>
<path d="M360.45 44.4707L366.45 51.4707C366.45 51.6507 366.45 51.8307 366.45 52.0307L360.45 45.0307C360.45 44.8307 360.45 44.6507 360.45 44.4707Z" fill="#A83038"/>
<path d="M360.44 45.001L366.44 52.001C366.317 54.305 366.076 56.6013 365.72 58.881L359.72 51.881C360.13 49.051 360.37 46.711 360.44 45.001Z" fill="#A83038"/>
<path d="M320.7 73.4803L314.7 66.4803C319.59 72.1203 327.13 75.3403 336.39 75.3403C340.592 75.4114 344.749 74.4699 348.511 72.5953C352.272 70.7207 355.527 67.9682 358 64.5703L364 71.5703C361.529 74.9757 358.274 77.736 354.511 79.6176C350.748 81.4992 346.587 82.4468 342.38 82.3803C333.14 82.3403 325.6 79.1203 320.7 73.4803Z" fill="#8F282F"/>
<path d="M358 64.5703L364 71.5703C363.155 72.6804 362.236 73.7327 361.25 74.7203L355.25 67.7203C356.239 66.7356 357.158 65.683 358 64.5703Z" fill="#8F282F"/>
<path d="M355.23 67.7205L361.23 74.7205C358.762 77.2015 355.819 79.1587 352.576 80.475C349.334 81.7912 345.859 82.4393 342.36 82.3805C333.11 82.3805 325.57 79.1605 320.67 73.5205L314.67 66.5205C319.56 72.1605 327.1 75.3805 336.36 75.3805C339.859 75.4393 343.334 74.7912 346.576 73.475C349.819 72.1587 352.762 70.2015 355.23 67.7205Z" fill="#8F282F"/>
<path d="M326.11 17L320.11 10C320.724 10.6866 321.478 11.2331 322.322 11.6023C323.166 11.9715 324.079 12.1549 325 12.14L331 19.14C330.079 19.1556 329.165 18.9725 328.322 18.6032C327.478 18.2339 326.723 17.6871 326.11 17Z" fill="#8F282F"/>
<path d="M325 12.14L331 19.14C330.079 19.1556 329.165 18.9725 328.322 18.6032C327.478 18.2339 326.723 17.6871 326.11 17L320.11 10C320.724 10.6866 321.478 11.2331 322.322 11.6023C323.166 11.9715 324.079 12.1549 325 12.14Z" fill="#8F282F"/>
<path d="M330.21 2.30078L336.21 9.30078C337.097 10.2961 337.579 11.5877 337.56 12.9208C337.48 14.5999 336.751 16.1824 335.528 17.3351C334.304 18.4879 332.681 19.1208 331 19.1008L325 12.1008C326.695 12.1335 328.336 11.5006 329.569 10.3378C330.803 9.17497 331.532 7.57488 331.6 5.88078C331.598 4.55619 331.102 3.27994 330.21 2.30078Z" fill="#8F282F"/>
<path d="M330.21 2.30078L336.21 9.30078C336.349 9.4606 336.479 9.62749 336.6 9.80078L330.6 2.80078C330.48 2.63078 330.35 2.46078 330.22 2.30078" fill="#8F282F"/>
<path d="M330.59 2.80078L336.59 9.80078C337.009 10.4021 337.302 11.0826 337.45 11.8008L331.45 4.80078C331.301 4.08127 331.005 3.40035 330.58 2.80078" fill="#8F282F"/>
<path d="M331.46 4.81055L337.46 11.8105C337.535 12.1757 337.568 12.548 337.56 12.9205V13.0005L331.56 6.05055V5.92055C331.571 5.54835 331.541 5.17604 331.47 4.81055" fill="#8F282F"/>
<path d="M331.55 6.06055L337.55 13.0605C337.531 13.396 337.491 13.73 337.43 14.0605L331.43 7.06055C331.5 6.73151 331.54 6.39682 331.55 6.06055Z" fill="#8F282F"/>
<path d="M331.43 7.07031L337.43 14.0703C337.37 14.3447 337.293 14.6153 337.2 14.8803L331.2 7.88031C331.294 7.61648 331.368 7.34565 331.42 7.07031" fill="#8F282F"/>
<path d="M331.21 7.88086L337.21 14.8809C337.12 15.1343 337.013 15.3815 336.89 15.6209L330.89 8.62086C331.015 8.38235 331.121 8.13502 331.21 7.88086Z" fill="#8F282F"/>
<path d="M330.89 8.62109L336.89 15.6211C336.761 15.8747 336.614 16.1187 336.45 16.3511L330.45 9.35109C330.621 9.12129 330.771 8.87704 330.9 8.62109" fill="#8F282F"/>
<path d="M330.44 9.35059L336.44 16.3506C336.235 16.6351 336.008 16.9026 335.76 17.1506L329.76 10.1506C330.005 9.90245 330.229 9.63491 330.43 9.35059" fill="#8F282F"/>
<path d="M329.77 10.1504L335.77 17.1504C334.485 18.4187 332.756 19.1362 330.95 19.1504L324.95 12.1504C326.754 12.1299 328.481 11.4134 329.77 10.1504Z" fill="#8F282F"/>
<path d="M348.12 16.8906L342.12 9.89062C342.78 10.6099 343.587 11.1794 344.485 11.5606C345.384 11.9419 346.354 12.126 347.33 12.1006L353.33 19.1006C352.354 19.1247 351.385 18.94 350.486 18.5588C349.588 18.1777 348.781 17.6089 348.12 16.8906Z" fill="#8F282F"/>
<path d="M347.3 12.1407L353.3 19.1407C352.324 19.1647 351.355 18.98 350.456 18.5989C349.558 18.2177 348.751 17.649 348.09 16.9307L342.09 9.93066C342.75 10.65 343.557 11.2194 344.455 11.6007C345.354 11.9819 346.324 12.166 347.3 12.1407Z" fill="#8F282F"/>
<path d="M352.56 2.27051L358.56 9.27051C359.449 10.2766 359.93 11.5782 359.91 12.9205C359.899 13.7674 359.717 14.6034 359.376 15.3787C359.035 16.1539 358.542 16.8526 357.925 17.433C357.308 18.0134 356.581 18.4638 355.786 18.7571C354.992 19.0505 354.146 19.1808 353.3 19.1405L347.3 12.1405C348.146 12.1809 348.991 12.0504 349.785 11.757C350.579 11.4635 351.305 11.013 351.921 10.4325C352.537 9.85192 353.03 9.15316 353.37 8.37794C353.71 7.60272 353.89 6.76694 353.9 5.92051C353.928 4.57868 353.45 3.27555 352.56 2.27051Z" fill="#8F282F"/>
<path d="M352.56 2.27051L358.56 9.27051C358.69 9.42051 358.82 9.58051 358.94 9.75051L352.94 2.75051C352.826 2.58392 352.702 2.42369 352.57 2.27051" fill="#8F282F"/>
<path d="M352.93 2.75098L358.93 9.75098C359.354 10.3508 359.651 11.0316 359.8 11.751L353.8 4.75098C353.655 4.0303 353.358 3.34865 352.93 2.75098Z" fill="#8F282F"/>
<path d="M353.8 4.78027L359.8 11.7803C359.875 12.1555 359.908 12.5378 359.9 12.9203C359.905 12.9702 359.905 13.0204 359.9 13.0703L353.9 6.07027V5.92027C353.913 5.53762 353.88 5.15478 353.8 4.78027Z" fill="#8F282F"/>
<path d="M353.9 6.07031L359.9 13.0703C359.891 13.4331 359.851 13.7945 359.78 14.1503L353.78 7.20031C353.855 6.8414 353.898 6.47671 353.91 6.11031" fill="#8F282F"/>
<path d="M353.77 7.16016L359.77 14.1602C359.713 14.4494 359.632 14.7336 359.53 15.0102L353.53 8.01016C353.628 7.73635 353.705 7.45555 353.76 7.17016" fill="#8F282F"/>
<path d="M353.54 8.00098L359.54 15.001C359.454 15.2593 359.347 15.5101 359.22 15.751L353.22 8.75098C353.343 8.5082 353.45 8.25767 353.54 8.00098Z" fill="#8F282F"/>
<path d="M353.22 8.75098L359.22 15.751C359.092 16 358.949 16.2405 358.79 16.471L352.79 9.47098C352.952 9.24062 353.099 9.00013 353.23 8.75098" fill="#8F282F"/>
<path d="M352.78 9.4707L358.78 16.4707C358.579 16.7433 358.359 17.0006 358.12 17.2407L352.12 10.2407C352.361 10.0053 352.578 9.74743 352.77 9.4707" fill="#8F282F"/>
<path d="M352.13 10.2402L358.13 17.2402C356.832 18.4835 355.097 19.1661 353.3 19.1402L347.3 12.1402C349.097 12.1661 350.832 11.4835 352.13 10.2402Z" fill="#8F282F"/>
<path d="M382.68 45.6007L388.71 52.5507L367.39 28.3807L361.36 21.4307L382.68 45.6007Z" fill="#404040"/>
<path d="M405.84 21.4307L411.88 28.3807L411.52 49.1907L405.49 42.2307L405.84 21.4307Z" fill="#A83038"/>
<path d="M393.7 54.4702L399.73 61.4302L397.34 58.8702L391.31 51.9102L393.7 54.4702Z" fill="#404040"/>
<path d="M374.05 74.46L380.09 81.42H366.28L360.24 74.46H374.05Z" fill="#8F282F"/>
<path d="M391.31 51.9102L397.34 58.8702L380.09 81.4202L374.05 74.4602L391.31 51.9102Z" fill="#A83038"/>
<path d="M407.55 52.0205L413.59 58.9805L411.31 61.3205L405.28 54.3705L407.55 52.0205Z" fill="#8F282F"/>
<path d="M438.75 21.4307L444.79 28.3807L422.44 52.4507L416.4 45.4907L438.75 21.4307Z" fill="#8F282F"/>
<path d="M404.94 74.46L410.97 81.42H399.39L393.36 74.46H404.94Z" fill="#8F282F"/>
<path d="M405.28 54.3701L411.31 61.3201L410.97 81.4201L404.94 74.4601L405.28 54.3701Z" fill="#A83038"/>
<path d="M416.4 45.4902L422.44 52.4502L444.39 81.4202L438.35 74.4602L416.4 45.4902Z" fill="#A83038"/>
<path d="M438.35 74.46L444.39 81.42H430.27L424.24 74.46H438.35Z" fill="#8F282F"/>
<path d="M12.4799 122.431L18.5199 129.391L18.1599 150.201L12.1299 143.241L12.4799 122.431Z" fill="#A83038"/>
<path d="M11.9501 153.94L17.9801 160.9L17.6101 182.43L11.5801 175.47L11.9501 153.94Z" fill="#A83038"/>
<path d="M11.58 175.471L17.61 182.431H6.03L0 175.471H11.58Z" fill="#8F282F"/>
<path d="M37.34 153.94L43.38 160.9H17.98L11.95 153.94H37.34Z" fill="#8F282F"/>
<path d="M48.56 175.471L54.59 182.431H43.01L36.97 175.471H48.56Z" fill="#8F282F"/>
<path d="M49.4701 122.431L55.5001 129.391L54.5901 182.431L48.5601 175.471L49.4701 122.431Z" fill="#A83038"/>
<path d="M94.61 135.7L100.61 142.7C98.32 140.05 94.78 138.7 90.36 138.7C82.53 138.7 77.36 142.98 75.74 149.82L69.74 142.82C71.37 135.98 76.53 131.7 84.35 131.7C88.78 131.71 92.31 133.05 94.61 135.7Z" fill="#8F282F"/>
<path d="M94.6101 135.7L100.61 142.7C98.3201 140.05 94.7801 138.7 90.3601 138.7C85.9401 138.7 82.1501 140.15 79.5701 142.7L73.5701 135.7C76.1401 133.13 79.8001 131.7 84.3501 131.7C88.9001 131.7 92.3501 133.04 94.6101 135.7Z" fill="#8F282F"/>
<path d="M73.5699 135.73L79.5699 142.73C79.0394 143.256 78.5575 143.828 78.1299 144.44L72.1299 137.44C72.5576 136.832 73.0396 136.263 73.5699 135.74" fill="#8F282F"/>
<path d="M72.1299 137.431L78.1299 144.431C77.7563 144.976 77.4221 145.548 77.1299 146.141L71.1299 139.141C71.4209 138.547 71.7551 137.975 72.1299 137.431Z" fill="#8F282F"/>
<path d="M71.08 139.141L77.08 146.141C76.7536 146.787 76.4729 147.455 76.24 148.141L70.24 141.141C70.4739 140.457 70.7511 139.789 71.07 139.141" fill="#8F282F"/>
<path d="M70.25 141.09L76.25 148.09C76.0471 148.66 75.8768 149.241 75.74 149.83L69.74 142.83C69.8768 142.241 70.0471 141.66 70.25 141.09Z" fill="#8F282F"/>
<path d="M78.57 167.451L72.57 160.451C70.7582 158.327 69.6783 155.676 69.49 152.891L75.49 159.891C75.6907 162.673 76.7691 165.32 78.57 167.451Z" fill="#A83038"/>
<path d="M69.46 152.93L75.46 159.93C75.5093 160.467 75.586 161.001 75.69 161.53L69.69 154.53C69.5819 153.998 69.505 153.461 69.46 152.92" fill="#A83038"/>
<path d="M69.6899 154.54L75.6899 161.54C76.0217 163.313 76.7236 164.997 77.7499 166.48L71.7499 159.48C70.7493 157.989 70.0683 156.307 69.7499 154.54" fill="#A83038"/>
<path d="M71.74 159.479L77.74 166.479C77.9847 166.827 78.2484 167.161 78.53 167.479L72.53 160.479C72.2443 160.162 71.9771 159.828 71.73 159.479" fill="#A83038"/>
<path d="M103.89 129.15L109.89 136.15C113.704 140.714 115.673 146.539 115.41 152.48L109.41 145.48C109.673 139.539 107.704 133.714 103.89 129.15Z" fill="#A83038"/>
<path d="M103.89 129.15L109.89 136.15C110.389 136.724 110.857 137.325 111.29 137.95L105.29 130.95C104.854 130.327 104.386 129.727 103.89 129.15Z" fill="#A83038"/>
<path d="M105.29 131L111.29 138C113.08 140.61 114.313 143.562 114.91 146.67L108.91 139.67C108.321 136.561 107.091 133.608 105.3 131" fill="#A83038"/>
<path d="M108.9 139.62L114.9 146.62C115.274 148.55 115.441 150.515 115.4 152.48L109.4 145.48C109.438 143.514 109.267 141.55 108.89 139.62" fill="#A83038"/>
<path d="M108.67 152.931L114.7 159.891H75.49L69.45 152.931H108.67Z" fill="#8F282F"/>
<path d="M109.41 145.48L115.41 152.48C115.308 154.976 115.064 157.463 114.68 159.93L108.68 152.93C109.069 150.464 109.313 147.976 109.41 145.48Z" fill="#A83038"/>
<path d="M109.41 145.48L115.41 152.48C115.41 152.65 115.41 152.84 115.41 153.03L109.41 146.03C109.41 145.84 109.41 145.65 109.41 145.48Z" fill="#A83038"/>
<path d="M109.39 146L115.39 153C115.33 154.71 115.08 157 114.68 159.9L108.68 152.9C109.09 150.06 109.33 147.71 109.4 146" fill="#A83038"/>
<path d="M69.6599 174.48L63.6599 167.48C68.5599 173.13 76.0999 176.35 85.3499 176.35C89.5572 176.413 93.718 175.463 97.4808 173.58C101.244 171.697 104.498 168.936 106.97 165.53L112.97 172.53C110.499 175.934 107.246 178.693 103.485 180.574C99.7237 182.456 95.565 183.404 91.3599 183.34C82.0899 183.34 74.5499 180.13 69.6599 174.48Z" fill="#8F282F"/>
<path d="M106.93 165.57L112.93 172.57C112.088 173.68 111.173 174.733 110.19 175.72L104.19 168.72C105.179 167.735 106.098 166.683 106.94 165.57" fill="#8F282F"/>
<path d="M104.18 168.721L110.18 175.721C107.712 178.201 104.769 180.159 101.526 181.475C98.2839 182.791 94.8091 183.439 91.3101 183.381C82.0501 183.381 74.5101 180.171 69.6201 174.521L63.6201 167.521C68.5201 173.171 76.0601 176.391 85.3101 176.391C88.8102 176.451 92.2865 175.803 95.5295 174.485C98.7724 173.167 101.715 171.206 104.18 168.721Z" fill="#8F282F"/>
<path d="M178.28 133.24L184.32 140.2H159.53L153.49 133.24H178.28Z" fill="#8F282F"/>
<path d="M153.49 133.24L159.53 140.2L158.81 182.43L152.77 175.47L153.49 133.24Z" fill="#A83038"/>
<path d="M152.77 175.471L158.81 182.431H147.23L141.19 175.471H152.77Z" fill="#8F282F"/>
<path d="M189.14 175.471L195.17 182.431H183.59L177.56 175.471H189.14Z" fill="#8F282F"/>
<path d="M190.04 122.431L196.08 129.391L195.17 182.431L189.14 175.471L190.04 122.431Z" fill="#A83038"/>
<path d="M212.49 122.431L218.53 129.391L218.44 134.181L212.41 127.221L212.49 122.431Z" fill="#535353"/>
<path d="M236.51 136.48L242.51 143.48C239.99 140.58 236.31 139.02 231.73 139.02C228.877 139.012 226.083 139.824 223.679 141.359C221.274 142.895 219.362 145.089 218.17 147.68L212.17 140.68C213.359 138.083 215.271 135.883 217.678 134.343C220.084 132.804 222.883 131.991 225.74 132C230.31 132 234 133.58 236.51 136.48Z" fill="#8F282F"/>
<path d="M236.51 136.48L242.51 143.48C239.99 140.58 236.31 139.02 231.73 139.02C229.793 138.998 227.871 139.364 226.077 140.097C224.284 140.831 222.656 141.916 221.29 143.29L215.29 136.29C216.655 134.911 218.284 133.82 220.079 133.083C221.874 132.346 223.8 131.978 225.74 132C230.31 132 234 133.56 236.51 136.46" fill="#8F282F"/>
<path d="M215.3 136.29L221.3 143.29C220.672 143.907 220.096 144.576 219.58 145.29L213.58 138.29C214.1 137.576 214.678 136.907 215.31 136.29" fill="#8F282F"/>
<path d="M213.57 138.33L219.57 145.33C219.118 145.966 218.713 146.634 218.36 147.33L212.36 140.33C212.717 139.636 213.121 138.968 213.57 138.33Z" fill="#8F282F"/>
<path d="M212.36 140.32L218.36 147.32C218.29 147.44 218.23 147.56 218.17 147.68L212.17 140.68L212.35 140.32" fill="#8F282F"/>
<path d="M212.18 140.681L218.22 147.641L217.9 166.001L211.87 159.041L212.18 140.681Z" fill="#A83038"/>
<path d="M211.87 159L217.87 166C218.05 166.31 218.24 166.61 218.44 166.89L212.44 159.89C212.236 159.605 212.049 159.307 211.88 159" fill="#545454"/>
<path d="M212.43 159.93L218.43 166.93C218.668 167.28 218.929 167.614 219.21 167.93L213.21 160.93C212.928 160.611 212.665 160.278 212.42 159.93" fill="#525252"/>
<path d="M211.24 195.87L217.27 202.83H205.68L199.65 195.87H211.24Z" fill="#8F282F"/>
<path d="M211.64 172L217.68 178.96L217.27 202.83L211.24 195.87L211.64 172Z" fill="#A83038"/>
<path d="M246.14 129.17L252.14 136.17C256.22 140.88 258.4 147.41 258.27 155.02C258 171.25 247.22 183.38 231.37 183.38C225.61 183.38 220.16 181.92 217.79 179.18L211.79 172.18C214.16 174.92 219.61 176.39 225.37 176.39C241.22 176.39 251.99 164.25 252.27 148.03C252.41 140.41 250.23 133.88 246.14 129.17Z" fill="#8F282F"/>
<path d="M246.14 129.17L252.14 136.17C252.673 136.781 253.17 137.422 253.63 138.09L247.63 131.09C247.164 130.424 246.663 129.784 246.13 129.17" fill="#8F282F"/>
<path d="M247.64 131.09L253.64 138.09C255.634 141.054 256.996 144.397 257.64 147.91L251.64 140.91C250.996 137.397 249.634 134.054 247.64 131.09Z" fill="#8F282F"/>
<path d="M251.68 140.91L257.68 147.91C258.133 150.252 258.335 152.636 258.28 155.02C258.28 155.28 258.28 155.54 258.28 155.8L252.28 148.8C252.28 148.55 252.28 148.29 252.28 148.03C252.33 145.642 252.129 143.256 251.68 140.91Z" fill="#8F282F"/>
<path d="M252.26 148.8L258.26 155.8C258.194 157.661 257.977 159.514 257.61 161.34L251.61 154.34C251.977 152.514 252.194 150.661 252.26 148.8Z" fill="#8F282F"/>
<path d="M251.61 154.34L257.61 161.34C257.322 162.796 256.931 164.229 256.44 165.63L250.44 158.63C250.935 157.23 251.329 155.796 251.62 154.34" fill="#8F282F"/>
<path d="M250.43 158.63L256.43 165.63C255.987 166.884 255.459 168.107 254.85 169.29L248.85 162.29C249.456 161.107 249.981 159.884 250.42 158.63" fill="#8F282F"/>
<path d="M248.86 162.29L254.86 169.29C254.272 170.455 253.603 171.577 252.86 172.65L246.86 165.65C247.603 164.577 248.272 163.455 248.86 162.29Z" fill="#8F282F"/>
<path d="M246.82 165.65L252.82 172.65C251.972 173.841 251.029 174.961 250 176L244 169C245.045 167.964 245.999 166.84 246.85 165.64" fill="#8F282F"/>
<path d="M244 169L250 176C247.546 178.404 244.636 180.293 241.443 181.559C238.249 182.824 234.835 183.44 231.4 183.37C225.64 183.37 220.19 181.91 217.82 179.17L211.82 172.17C214.19 174.91 219.64 176.38 225.4 176.38C228.835 176.449 232.25 175.832 235.444 174.564C238.638 173.297 241.546 171.405 244 169Z" fill="#8F282F"/>
<path d="M298.88 137.29L304.88 144.29C303.35 142.58 301.466 141.223 299.36 140.313C297.253 139.403 294.974 138.962 292.68 139.02C283.45 139.02 276.32 145.44 276.14 155.84C275.975 160.035 277.368 164.142 280.05 167.37L274.05 160.37C271.361 157.149 269.967 153.043 270.14 148.85C270.32 138.45 277.44 132.02 286.68 132.02C288.974 131.964 291.252 132.406 293.359 133.316C295.465 134.226 297.349 135.582 298.88 137.29Z" fill="#8F282F"/>
<path d="M298.88 137.29L304.88 144.29C303.35 142.58 301.466 141.223 299.36 140.313C297.253 139.403 294.974 138.962 292.68 139.02C290.53 138.971 288.392 139.347 286.387 140.126C284.383 140.905 282.552 142.072 281 143.56L275 136.56C276.551 135.068 278.381 133.898 280.385 133.115C282.39 132.332 284.529 131.954 286.68 132C288.974 131.944 291.252 132.386 293.359 133.295C295.465 134.205 297.349 135.561 298.88 137.27" fill="#8F282F"/>
<path d="M274.94 136.6L280.94 143.6C280.334 144.203 279.779 144.855 279.28 145.55L273.28 138.55C273.773 137.838 274.325 137.169 274.93 136.55" fill="#8F282F"/>
<path d="M273.29 138.55L279.29 145.55C278.857 146.161 278.47 146.803 278.13 147.47L272.13 140.47C272.475 139.8 272.866 139.155 273.3 138.54" fill="#8F282F"/>
<path d="M272.12 140.479L278.12 147.479C277.768 148.157 277.464 148.859 277.21 149.579L271.21 142.579C271.463 141.864 271.764 141.165 272.11 140.49" fill="#8F282F"/>
<path d="M271.22 142.57L277.22 149.57C276.942 150.385 276.714 151.217 276.54 152.06L270.54 145.06C270.705 144.215 270.932 143.382 271.22 142.57Z" fill="#8F282F"/>
<path d="M270.54 145.06L276.54 152.06C276.323 153.151 276.196 154.258 276.16 155.37L270.16 148.37C270.204 147.258 270.335 146.151 270.55 145.06" fill="#8F282F"/>
<path d="M270.15 148.37L276.15 155.37C276.15 155.53 276.15 155.69 276.15 155.84C276.127 157.202 276.244 158.562 276.5 159.9L270.5 152.9C270.244 151.566 270.127 150.209 270.15 148.85C270.15 148.69 270.15 148.53 270.15 148.37Z" fill="#8F282F"/>
<path d="M270.49 152.899L276.49 159.899C276.914 162.125 277.793 164.239 279.07 166.109L273.07 159.109C271.784 157.243 270.905 155.127 270.49 152.899Z" fill="#8F282F"/>
<path d="M273.07 159.11L279.07 166.11C279.381 166.548 279.715 166.968 280.07 167.37L274.07 160.37C273.712 159.971 273.378 159.55 273.07 159.11Z" fill="#8F282F"/>
<path d="M308.37 130.33L314.37 137.33C318.715 142.496 320.982 149.094 320.73 155.84C320.46 171.75 308.57 183.38 291.91 183.38C282.96 183.38 275.45 179.94 270.51 174.24L264.51 167.24C269.46 172.94 276.97 176.39 285.92 176.39C302.58 176.39 314.46 164.75 314.73 148.85C314.993 142.1 312.725 135.494 308.37 130.33Z" fill="#8F282F"/>
<path d="M308.37 130.33L314.37 137.33C314.945 137.993 315.483 138.687 315.98 139.41L309.98 132.41C309.477 131.689 308.936 130.995 308.36 130.33" fill="#8F282F"/>
<path d="M310 132.41L316 139.41C318.078 142.415 319.505 145.821 320.19 149.41L314.19 142.41C313.501 138.823 312.074 135.418 310 132.41Z" fill="#8F282F"/>
<path d="M314.18 142.4L320.18 149.4C320.593 151.521 320.78 153.68 320.74 155.84C320.74 156.07 320.74 156.29 320.74 156.52L314.74 149.52C314.74 149.29 314.74 149.07 314.74 148.85C314.784 146.687 314.599 144.525 314.19 142.4" fill="#8F282F"/>
<path d="M314.72 149.52L320.72 156.52C320.66 158.152 320.469 159.778 320.15 161.38L314.15 154.38C314.472 152.774 314.666 151.146 314.73 149.51" fill="#8F282F"/>
<path d="M314.14 154.39L320.14 161.39C319.874 162.706 319.517 164.003 319.07 165.27L313.07 158.27C313.517 157.007 313.871 155.714 314.13 154.4" fill="#8F282F"/>
<path d="M313.08 158.26L319.08 165.26C318.674 166.426 318.186 167.562 317.62 168.66L311.62 161.66C312.185 160.56 312.676 159.424 313.09 158.26" fill="#8F282F"/>
<path d="M311.61 161.66L317.61 168.66C317.026 169.789 316.358 170.872 315.61 171.9L309.61 164.9C310.355 163.868 311.024 162.781 311.61 161.65" fill="#8F282F"/>
<path d="M309.64 164.91L315.64 171.91C314.782 173.117 313.822 174.248 312.77 175.29L306.77 168.29C307.816 167.249 308.773 166.122 309.63 164.92" fill="#8F282F"/>
<path d="M306.78 168.28L312.78 175.28C307.68 180.36 300.42 183.38 291.92 183.38C282.97 183.38 275.46 179.94 270.52 174.24L264.52 167.24C269.47 172.94 276.98 176.39 285.93 176.39C294.43 176.39 301.68 173.39 306.79 168.28" fill="#8F282F"/>
<path d="M335.1 122.431L341.13 129.391L340.41 171.621L334.37 164.661L335.1 122.431Z" fill="#A83038"/>
<path d="M361.91 122.431L367.95 129.391L367.23 171.621L361.19 164.661L361.91 122.431Z" fill="#A83038"/>
<path d="M387.82 175.471L393.86 182.431H328.64L322.6 175.471H387.82Z" fill="#8F282F"/>
<path d="M388.73 122.431L394.76 129.391L393.86 182.431L387.82 175.471L388.73 122.431Z" fill="#A83038"/>
<path d="M433.77 135.71L439.77 142.71C437.47 140.05 433.93 138.71 429.5 138.71C421.68 138.71 416.5 142.99 414.89 149.83L408.89 142.83C410.54 135.99 415.68 131.71 423.51 131.71C427.94 131.71 431.47 133.06 433.77 135.71Z" fill="#8F282F"/>
<path d="M433.77 135.71L439.77 142.71C437.47 140.05 433.93 138.71 429.5 138.71C427.527 138.625 425.557 138.935 423.706 139.622C421.855 140.309 420.16 141.359 418.72 142.71L412.72 135.71C415.29 133.15 418.94 131.71 423.5 131.71C428.06 131.71 431.5 133.06 433.76 135.71" fill="#8F282F"/>
<path d="M412.73 135.72L418.73 142.72C418.202 143.248 417.721 143.82 417.29 144.43L411.29 137.43C411.727 136.822 412.212 136.25 412.74 135.72" fill="#8F282F"/>
<path d="M411.28 137.43L417.28 144.43C416.889 144.977 416.538 145.552 416.23 146.15L410.23 139.15C410.522 138.553 410.856 137.979 411.23 137.43" fill="#8F282F"/>
<path d="M410.24 139.15L416.24 146.15C415.92 146.782 415.639 147.434 415.4 148.1L409.4 141.1C409.635 140.432 409.916 139.78 410.24 139.15Z" fill="#8F282F"/>
<path d="M409.4 141.1L415.4 148.1C415.21 148.66 415.04 149.23 414.9 149.83L408.9 142.83C409.038 142.244 409.208 141.667 409.41 141.1" fill="#8F282F"/>
<path d="M417.73 167.451L411.73 160.451C409.918 158.327 408.838 155.676 408.65 152.891L414.65 159.891C414.851 162.673 415.929 165.32 417.73 167.451Z" fill="#A83038"/>
<path d="M408.62 152.931L414.62 159.931C414.673 160.474 414.753 161.015 414.86 161.551L408.86 154.551C408.756 154.015 408.679 153.474 408.63 152.931" fill="#A83038"/>
<path d="M408.85 154.551L414.85 161.551C415.182 163.319 415.881 164.998 416.9 166.481L410.9 159.481C409.879 157.998 409.178 156.319 408.84 154.551" fill="#A83038"/>
<path d="M410.91 159.48L416.91 166.48C417.16 166.83 417.42 167.17 417.7 167.48L411.7 160.48C411.418 160.163 411.154 159.829 410.91 159.48Z" fill="#A83038"/>
<path d="M443.05 129.15L449.05 136.15C452.873 140.709 454.843 146.537 454.57 152.48L448.57 145.48C448.838 139.538 446.868 133.711 443.05 129.15Z" fill="#A83038"/>
<path d="M443.05 129.15L449.05 136.15C449.553 136.724 450.024 137.325 450.46 137.95L444.46 130.95C444.03 130.323 443.563 129.722 443.06 129.15" fill="#A83038"/>
<path d="M444.45 131L450.45 138C452.242 140.608 453.471 143.561 454.06 146.67L448.06 139.67C447.472 136.559 446.239 133.606 444.44 131" fill="#A83038"/>
<path d="M448.07 139.62L454.07 146.62C454.449 148.55 454.616 150.514 454.57 152.48L448.57 145.48C448.611 143.515 448.444 141.55 448.07 139.62Z" fill="#A83038"/>
<path d="M447.83 152.931L453.86 159.891H414.65L408.62 152.931H447.83Z" fill="#8F282F"/>
<path d="M448.57 145.48L454.57 152.48C454.479 154.977 454.232 157.465 453.83 159.93L447.83 152.93C448.222 150.464 448.469 147.976 448.57 145.48Z" fill="#A83038"/>
<path d="M448.57 145.48L454.57 152.48C454.57 152.65 454.57 152.84 454.57 153.03L448.57 146.03C448.57 145.84 448.57 145.65 448.57 145.48Z" fill="#A83038"/>
<path d="M448.55 146L454.55 153C454.422 155.311 454.179 157.614 453.82 159.9L447.82 152.9C448.177 150.614 448.417 148.311 448.54 146" fill="#A83038"/>
<path d="M408.82 174.49L402.82 167.49C407.71 173.13 415.24 176.35 424.5 176.35C428.708 176.415 432.869 175.465 436.632 173.582C440.395 171.699 443.65 168.937 446.12 165.53L452.12 172.53C449.647 175.936 446.39 178.696 442.626 180.578C438.861 182.459 434.698 183.407 430.49 183.34C421.25 183.34 413.71 180.13 408.82 174.49Z" fill="#8F282F"/>
<path d="M446.09 165.57L452.09 172.57C451.245 173.68 450.326 174.733 449.34 175.72L443.34 168.72C444.325 167.735 445.241 166.683 446.08 165.57" fill="#8F282F"/>
<path d="M443.35 168.72L449.35 175.72C446.883 178.205 443.938 180.165 440.694 181.482C437.449 182.798 433.971 183.444 430.47 183.38C421.22 183.38 413.68 180.17 408.79 174.53L402.79 167.53C407.68 173.17 415.21 176.39 424.47 176.39C427.971 176.449 431.448 175.8 434.693 174.482C437.937 173.164 440.882 171.204 443.35 168.72Z" fill="#8F282F"/>
<path d="M472.54 133.24L478.58 140.2L478.44 148.46L472.4 141.5L472.54 133.24Z" fill="#8F282F"/>
<path d="M491.24 133.24L497.27 140.2H478.58L472.54 133.24H491.24Z" fill="#8F282F"/>
<path d="M472.4 141.5L478.4 148.5C477.95 174.87 469.8 182.98 458.01 182.98C457.22 182.98 456.4 182.98 455.57 182.88L449.57 175.88C450.4 175.95 451.21 175.99 452.01 175.99C463.79 176 472 167.87 472.4 141.5Z" fill="#A83038"/>
<path d="M472.4 141.5L478.4 148.5C478.4 149.39 478.4 150.26 478.33 151.11L472.33 144.11C472.33 143.26 472.39 142.39 472.4 141.5Z" fill="#A83038"/>
<path d="M472.33 144.11L478.33 151.11C478.222 155.328 477.777 159.532 477 163.68L471 156.68C471.782 152.515 472.24 148.295 472.37 144.06" fill="#A83038"/>
<path d="M471 156.73L477 163.73C476.609 165.766 476.074 167.771 475.4 169.73L469.4 162.73C470.077 160.771 470.615 158.766 471.01 156.73" fill="#A83038"/>
<path d="M469.35 162.68L475.35 169.68C474.907 170.942 474.382 172.175 473.78 173.37L467.78 166.37C468.388 165.178 468.913 163.945 469.35 162.68Z" fill="#A83038"/>
<path d="M467.78 166.37L473.78 173.37C473.294 174.314 472.743 175.223 472.13 176.09L466.13 169.09C466.742 168.224 467.29 167.315 467.77 166.37" fill="#A83038"/>
<path d="M466.14 169.09L472.14 176.09C471.56 176.904 470.915 177.67 470.21 178.38L464.21 171.38C464.917 170.673 465.563 169.906 466.14 169.09Z" fill="#A83038"/>
<path d="M464.21 171.38L470.21 178.38C466.91 181.67 462.76 182.98 458.01 182.98C457.22 182.98 456.4 182.98 455.57 182.88L449.57 175.88C450.4 175.95 451.21 175.99 452.01 175.99C456.75 175.99 460.91 174.67 464.21 171.38Z" fill="#A83038"/>
<path d="M502.09 175.471L508.13 182.431H496.55L490.51 175.471H502.09Z" fill="#8F282F"/>
<path d="M503 122.431L509.04 129.391L508.13 182.431L502.09 175.471L503 122.431Z" fill="#A83038"/>
<path fill-rule="evenodd" clip-rule="evenodd" d="M322.562 11.7515C323.339 12.0487 324.169 12.1812 325 12.1404C326.686 12.1599 328.314 11.5211 329.537 10.3597C330.76 9.19824 331.482 7.60567 331.55 5.92036C331.61 2.45036 328.31 0.000356041 325.15 0.000356041C323.517 -0.0439019 321.932 0.549492 320.73 1.65469C319.527 2.75988 318.803 4.28994 318.71 5.92036C318.678 6.75161 318.82 7.58033 319.126 8.3539C319.432 9.12747 319.895 9.82898 320.487 10.4139C321.078 10.9988 321.785 11.4543 322.562 11.7515ZM136.38 74.4603L137.6 3.07031H76.0401L74.8201 74.4603H87.1001L88.1301 14.6903H125.11L124.08 74.4603H136.38ZM197.01 74.4302L197.92 21.4302L156.31 21.4102L156.05 36.4902C155.65 59.6602 150.07 64.0802 144.76 64.0802H143.76L144.49 74.8902C145.32 75.0002 146.13 75.0002 146.93 75.0002C158.71 75.0002 166.87 66.8602 167.32 40.4702L167.46 32.2102H186.16L185.44 74.4302H197.01ZM230.85 20.2002C244.77 20.2002 252.35 28.2002 252.11 42.0202L251.56 74.4602H240L240.1 68.6402C236.89 72.1102 231.46 75.0702 223.63 75.0702C212.06 75.0702 204.55 68.5502 204.72 58.3402C204.93 46.5102 215.72 41.5102 229.72 41.5102C233.385 41.4971 237.034 41.9781 240.57 42.9402C240.8 35.2902 237.92 31.0102 229.39 31.0102C223.6 31.0102 219.31 32.7402 214.17 36.6202L208.62 28.0602C213.63 23.1502 222.21 20.2002 230.85 20.2002ZM240.27 57.7302L240.35 52.6402C237.231 51.6795 233.984 51.194 230.72 51.2002C222.4 51.2002 216.78 52.9402 216.72 58.2002C216.65 62.3802 220.47 64.9302 226.35 64.9302C229.105 65 231.832 64.3729 234.279 63.1073C236.727 61.8416 238.815 59.9783 240.35 57.6902L240.27 57.7302ZM307.44 32.2402L307.63 21.4302H257.85L257.67 32.2402H276.76L276.03 74.4602H287.62L288.34 32.2402H307.44ZM360.45 44.4702C360.349 46.9621 360.105 49.4462 359.72 51.9102H320.5C321.28 60.2802 328.01 64.5702 336.75 64.5702C339.5 64.5727 342.213 63.9428 344.681 62.729C347.148 61.5152 349.304 59.7501 350.98 57.5702L357.98 64.5702C355.511 67.9754 352.258 70.7357 348.497 72.6174C344.735 74.4991 340.575 75.4468 336.37 75.3802C319.37 75.3802 308.21 64.5702 308.5 47.8402C308.76 32.3302 318.42 20.2002 336.09 20.2002C350.3 20.2002 360.71 29.7902 360.45 44.4702ZM320.78 41.8202H348.51C347.73 34.4802 342.81 30.7002 335.4 30.7002C327.58 30.7002 322.4 34.9902 320.78 41.8202ZM347.3 12.1405C343.74 12.1405 340.63 9.79049 340.69 5.92049C340.75 2.45049 344 0.000488281 347.5 0.000488281C350.75 0.000488281 353.96 2.45049 353.9 5.92049C353.89 6.76692 353.71 7.6027 353.37 8.37792C353.03 9.15314 352.537 9.8519 351.921 10.4325C351.305 11.013 350.579 11.4635 349.785 11.7569C348.991 12.0504 348.146 12.1809 347.3 12.1405ZM416.4 45.4902L438.75 21.4302H424.74L405.49 42.2302L405.84 21.4302H394.27L393.91 42.1302L375.77 21.4302H361.36L382.68 45.6002L360.24 74.4602H374.05L391.31 51.9102L393.7 54.4702L393.36 74.4602H404.94L405.28 54.3702L407.55 52.0202L424.24 74.4602H438.35L416.4 45.4902ZM49.47 122.43L48.56 175.47H36.97L37.34 153.94H11.95L11.58 175.47H0L0.91 122.43H12.48L12.13 143.24H37.52L37.88 122.43H49.47ZM108.67 152.93C109.062 150.464 109.309 147.976 109.41 145.48C109.66 130.79 99.2501 121.21 85.0401 121.21C67.3701 121.21 57.7101 133.35 57.4501 148.85C57.1601 165.57 68.3201 176.39 85.3201 176.39C89.5274 176.453 93.6881 175.503 97.451 173.62C101.214 171.737 104.469 168.976 106.94 165.57L99.9401 158.57C98.2591 160.748 96.1016 162.511 93.633 163.724C91.1645 164.938 88.4507 165.569 85.7001 165.57C76.9701 165.57 70.2301 161.29 69.4601 152.93H108.67ZM97.4601 142.83H69.7401C71.3501 135.99 76.5301 131.71 84.3501 131.71C91.7701 131.71 96.6801 135.49 97.4601 142.83ZM190.04 122.43L189.14 175.47H177.56L178.28 133.24H153.49L152.77 175.47H141.19L142.1 122.43H190.04ZM252.28 148.03C252.55 132.32 242.98 121.21 227.14 121.21C221.86 121.21 215.83 123 212.41 127.22L212.49 122.43H200.91L199.65 195.87H211.24L211.64 172C213.93 174.85 219.49 176.39 225.38 176.39C241.23 176.39 252 164.25 252.28 148.03ZM240.24 148.94C240.11 158.85 233.69 165.57 224.24 165.57V165.53C219.07 165.53 214.33 163.29 211.87 159L212.14 140.68C213.331 138.088 215.243 135.894 217.647 134.358C220.052 132.823 222.847 132.011 225.7 132.02C234.84 132.02 240.42 138.24 240.24 148.94ZM286.86 121.21C303.52 121.21 315.01 132.83 314.73 148.85C314.45 164.87 302.58 176.39 285.92 176.39C269.46 176.39 257.92 164.75 258.15 148.85C258.38 132.95 270.1 121.21 286.86 121.21ZM286.1 165.57C295.76 165.57 302.57 159.04 302.75 148.85C302.93 138.66 295.83 132 286.68 132C277.53 132 270.32 138.43 270.14 148.83C269.98 158.42 276.46 165.55 286.14 165.55L286.1 165.57ZM387.82 175.47L388.73 122.43H377.14L376.42 164.66H361.19L361.91 122.43H350.33L349.61 164.66H334.37L335.1 122.43H323.51L322.6 175.47H387.82ZM448.57 145.48C448.469 147.976 448.222 150.464 447.83 152.93H408.62C409.39 161.29 416.12 165.57 424.86 165.57C427.611 165.569 430.324 164.938 432.793 163.724C435.261 162.511 437.419 160.748 439.1 158.57L446.1 165.57C443.629 168.977 440.375 171.739 436.612 173.622C432.849 175.505 428.688 176.455 424.48 176.39C407.48 176.39 396.33 165.57 396.61 148.85C396.88 133.35 406.53 121.21 424.21 121.21C438.42 121.21 448.82 130.79 448.57 145.48ZM408.89 142.83H436.63C435.83 135.49 430.92 131.71 423.51 131.71C415.68 131.71 410.51 135.99 408.89 142.83ZM502.09 175.43L503 122.43L461.39 122.4L461.13 137.5C460.73 160.68 455.14 165.08 449.83 165.08H448.83L449.56 175.89C450.39 176 451.2 176 452 176C463.79 176 472 167.87 472.4 141.46L472.54 133.2H491.24L490.52 175.43H502.09Z" fill="url(#paint0_linear)"/>
</g>
<defs>
<linearGradient id="paint0_linear" x1="338" y1="-25.9995" x2="205" y2="248" gradientUnits="userSpaceOnUse">
<stop offset="0.178761" stop-color="#D43C46"/>
<stop offset="1" stop-color="#F37078"/>
</linearGradient>
<clipPath id="clip0">
<rect width="509.03" height="202.83" fill="white"/>
</clipPath>
</defs>
</svg>
