<svg width="839" height="207" viewBox="0 0 839 207" fill="none" xmlns="http://www.w3.org/2000/svg">
<g clip-path="url(#clip0)">
<path d="M56.6398 20.52L62.6398 27.52C60.3854 24.9221 57.5989 22.8392 54.4692 21.4124C51.3394 19.9855 47.9395 19.2481 44.4998 19.25C31.2198 19.25 19.6898 29.43 19.4198 44.89C19.1766 51.254 21.3161 57.4798 25.4198 62.35L19.4198 55.35C15.3144 50.4808 13.1747 44.2543 13.4198 37.89C13.6798 22.43 25.2198 12.25 38.4898 12.25C41.9312 12.2466 45.333 12.9834 48.4646 14.4103C51.5962 15.8372 54.3843 17.9209 56.6398 20.52Z" fill="#004651"/>
<path d="M56.6402 20.5203L62.6402 27.5203C60.3858 24.9224 57.5993 22.8395 54.4695 21.4127C51.3397 19.9858 47.9398 19.2484 44.5002 19.2503C37.9246 19.2165 31.6047 21.7955 26.9302 26.4203L20.9302 19.4203C25.6053 14.7964 31.9248 12.2176 38.5002 12.2503C41.9435 12.2376 45.3492 12.9661 48.4861 14.3861C51.623 15.8062 54.4176 17.8846 56.6802 20.4803" fill="#004651"/>
<path d="M20.89 19.46L26.89 26.46C25.9097 27.4364 25.0133 28.4935 24.21 29.62L18.21 22.62C19.0098 21.4936 19.903 20.4366 20.88 19.46" fill="#004651"/>
<path d="M18.2204 22.6201L24.2204 29.6201C23.5271 30.5937 22.9054 31.6164 22.3604 32.6801L16.3604 25.6801C16.9017 24.6143 17.5235 23.5914 18.2204 22.6201Z" fill="#004651"/>
<path d="M16.36 25.6806L22.36 32.6806C21.8362 33.7125 21.3818 34.7782 21 35.8706L15 28.8706C15.3855 27.7621 15.8501 26.6827 16.39 25.6406" fill="#004651"/>
<path d="M15 28.9102L21 35.9102C20.5846 37.113 20.2505 38.3425 20 39.5902L14 32.6002C14.2457 31.3481 14.5799 30.115 15 28.9102Z" fill="#004651"/>
<path d="M14.0002 32.6006L20.0002 39.5506C19.6912 41.0966 19.5073 42.665 19.4502 44.2406L13.4502 37.2406C13.5095 35.6817 13.6934 34.1301 14.0002 32.6006Z" fill="#004651"/>
<path d="M13.4102 37.2803L19.4102 44.2803C19.4102 44.4903 19.4102 44.7103 19.4102 44.9303C19.3772 46.9433 19.5548 48.9542 19.9402 50.9303L13.9402 43.9303C13.5534 41.9545 13.379 39.9431 13.4202 37.9303C13.4202 37.7103 13.4202 37.5003 13.4202 37.2803" fill="#004651"/>
<path d="M13.9102 44L19.9102 51C20.5704 54.3943 21.9328 57.6132 23.9102 60.45L17.9102 53.45C15.9352 50.6119 14.5729 47.3936 13.9102 44Z" fill="#004651"/>
<path d="M17.8801 53.4307L23.8801 60.4307C24.3488 61.1254 24.8563 61.7931 25.4001 62.4307L19.4001 55.4307C18.8537 54.7927 18.3429 54.125 17.8701 53.4307" fill="#004651"/>
<path d="M67.1699 12.5801L73.1699 19.5801C79.1793 26.6312 82.3422 35.6705 82.0399 44.9301C81.6999 66.7201 64.5399 82.8201 43.4099 82.8201C38.0339 82.8954 32.705 81.8086 27.7878 79.6339C22.8706 77.4593 18.4812 74.2481 14.9199 70.2201L8.91992 63.2201C12.4823 67.2494 16.8733 70.4613 21.7923 72.636C26.7113 74.8108 32.0422 75.8969 37.4199 75.8201C58.5399 75.8201 75.7099 59.7201 76.0799 37.8901C76.3659 28.6382 73.1886 19.6126 67.1699 12.5801Z" fill="#004651"/>
<path d="M67.1702 12.5801L73.1702 19.5801C73.9873 20.5404 74.755 21.5417 75.4702 22.5801L69.4702 15.5801C68.7548 14.5391 67.9837 13.5377 67.1602 12.5801" fill="#004651"/>
<path d="M69.48 15.54L75.48 22.54C78.3512 26.6893 80.3328 31.3878 81.3 36.34L75.3 29.34C74.3409 24.387 72.3623 19.6876 69.49 15.54" fill="#004651"/>
<path d="M75.29 29.3398L81.29 36.3398C81.8431 39.1686 82.0945 42.048 82.04 44.9298V45.8098L76.04 38.8098C76.04 38.5198 76.04 38.2198 76.04 37.9298C76.094 35.0481 75.8426 32.1687 75.29 29.3398Z" fill="#004651"/>
<path d="M75.9997 38.8105L81.9997 45.8105C81.9222 47.9809 81.668 50.1414 81.2397 52.2705L75.2397 45.2705C75.663 43.1406 75.9171 40.9805 75.9997 38.8105Z" fill="#004651"/>
<path d="M75.2601 45.2705L81.2601 52.2705C80.903 54.0595 80.4184 55.8207 79.8101 57.5405L73.8101 50.5405C74.4138 48.8192 74.8983 47.0584 75.2601 45.2705Z" fill="#004651"/>
<path d="M73.8101 50.54L79.8101 57.54C79.25 59.1629 78.5818 60.7465 77.8101 62.28L71.8101 55.28C72.5835 53.7472 73.2517 52.1636 73.8101 50.54Z" fill="#004651"/>
<path d="M71.76 55.2805L77.76 62.2805C76.9363 63.878 76.0006 65.4151 74.96 66.8805L68.96 59.8805C70.0021 58.4126 70.9378 56.872 71.76 55.2705" fill="#004651"/>
<path d="M68.9999 59.8896L74.9999 66.8896C73.7701 68.611 72.3986 70.2266 70.8999 71.7197L64.8999 64.7197C66.3994 63.2273 67.7708 61.6116 68.9999 59.8896Z" fill="#004651"/>
<path d="M64.8599 64.7197L70.8599 71.7197C63.5418 78.9103 53.6691 82.9025 43.4099 82.8197C38.0339 82.8951 32.705 81.8083 27.7878 79.6336C22.8706 77.4589 18.4812 74.2477 14.9199 70.2197L8.91992 63.2197C12.4823 67.249 16.8733 70.461 21.7923 72.6357C26.7113 74.8104 32.0422 75.8965 37.4199 75.8197C47.6755 75.8988 57.5437 71.9069 64.8599 64.7197Z" fill="#004651"/>
<path d="M123.31 31.1504L129.34 38.1104H103.44L97.3999 31.1504H123.31Z" fill="#004651"/>
<path d="M97.3999 31.1504L103.44 38.1104L102.69 81.9704L96.6499 75.0204L97.3999 31.1504Z" fill="#005D72"/>
<path d="M96.65 75.0205L102.69 81.9705H90.57L84.54 75.0205H96.65Z" fill="#004651"/>
<path d="M134.67 75.0205L140.7 81.9705H128.59L122.56 75.0205H134.67Z" fill="#004651"/>
<path d="M135.61 19.9209L141.65 26.8809L140.7 81.9709L134.67 75.0209L135.61 19.9209Z" fill="#005D72"/>
<path d="M165.47 31.1504L171.5 38.1104L171.36 46.6904L165.32 39.7304L165.47 31.1504Z" fill="#004651"/>
<path d="M185.02 31.1504L191.05 38.1104H171.5L165.47 31.1504H185.02Z" fill="#004651"/>
<path d="M165.32 39.7305L171.32 46.7305C170.85 74.1205 162.32 82.5505 150.01 82.5505C149.17 82.5505 148.32 82.5505 147.45 82.4405L141.45 75.4405C142.323 75.5205 143.173 75.5605 144 75.5605C156.33 75.5605 164.85 67.1305 165.32 39.7305Z" fill="#005D72"/>
<path d="M165.32 39.7305L171.32 46.7305C171.32 47.6505 171.32 48.5505 171.24 49.4205L165.24 42.4205C165.24 41.5505 165.3 40.6505 165.31 39.7305" fill="#005D72"/>
<path d="M165.25 42.4209L171.25 49.4209C171.125 53.8051 170.65 58.1723 169.83 62.4809L163.83 55.4809C164.646 51.1717 165.12 46.8048 165.25 42.4209Z" fill="#005D72"/>
<path d="M163.83 55.4805L169.83 62.4805C169.421 64.5799 168.866 66.6482 168.17 68.6705L162.17 61.6705C162.871 59.6489 163.429 57.5805 163.84 55.4805" fill="#005D72"/>
<path d="M162.16 61.6709L168.16 68.6709C167.697 69.9854 167.15 71.2681 166.52 72.5109L160.52 65.5109C161.148 64.2687 161.692 62.9858 162.15 61.6709" fill="#005D72"/>
<path d="M160.53 65.5107L166.53 72.5107C166.027 73.4965 165.456 74.4456 164.82 75.3507L158.82 68.3507C159.456 67.4435 160.03 66.4947 160.54 65.5107" fill="#005D72"/>
<path d="M158.81 68.3506L164.81 75.3506C164.209 76.2 163.54 76.9993 162.81 77.7406L156.81 70.7406C157.545 70.0043 158.215 69.2046 158.81 68.3506Z" fill="#005D72"/>
<path d="M156.79 70.7402L162.79 77.7402C159.33 81.1802 154.98 82.5502 150.01 82.5502C149.17 82.5502 148.32 82.5502 147.45 82.4402L141.45 75.4402C142.323 75.5202 143.173 75.5602 144 75.5602C149 75.5602 153.33 74.1802 156.78 70.7402" fill="#005D72"/>
<path d="M196.37 75.0205L202.4 81.9705H190.3L184.26 75.0205H196.37Z" fill="#004651"/>
<path d="M197.31 19.9209L203.35 26.8809L202.4 81.9709L196.37 75.0209L197.31 19.9209Z" fill="#005D72"/>
<path d="M239.46 33.1209L245.46 40.1209C243.62 38.0009 240.63 36.8809 236.16 36.8809C230.16 36.8809 225.62 38.6809 220.24 42.7109L214.24 35.7109C219.62 31.7109 224.11 29.8809 230.16 29.8809C234.64 29.8809 237.63 31.0009 239.46 33.1209Z" fill="#004651"/>
<path d="M239.46 33.1209L245.46 40.1209C243.62 38.0009 240.63 36.8809 236.16 36.8809C230.16 36.8809 225.62 38.6809 220.24 42.7109L214.24 35.7109C219.62 31.7109 224.11 29.8809 230.16 29.8809C234.63 29.8809 237.62 31.0009 239.45 33.1209" fill="#004651"/>
<path d="M249.08 25.3105L255.08 32.3105C258.41 36.1505 260.08 41.5605 259.98 48.3105L253.98 41.3105C254.09 34.5605 252.4 29.1505 249.08 25.3105Z" fill="#005D72"/>
<path d="M249.08 25.3105L255.08 32.3105C255.488 32.7781 255.869 33.2689 256.22 33.7805L250.22 26.7805C249.86 26.2672 249.48 25.7772 249.08 25.3105Z" fill="#005D72"/>
<path d="M250.22 26.7803L256.22 33.7803C257.826 36.1556 258.919 38.8393 259.43 41.6603L253.43 34.6603C252.914 31.8406 251.822 29.1578 250.22 26.7803Z" fill="#005D72"/>
<path d="M253.43 34.6602L259.43 41.6602C259.847 43.8581 260.031 46.0937 259.98 48.3302L253.98 41.3302C254.034 39.0941 253.853 36.8585 253.44 34.6602" fill="#005D72"/>
<path d="M224.39 69.1108L218.39 62.1108C217.436 61.0008 216.933 59.5735 216.98 58.1108C217.08 52.6008 222.98 50.8008 231.66 50.8008C235.068 50.8003 238.457 51.299 241.72 52.2808L247.72 59.2808C244.457 58.2981 241.068 57.7995 237.66 57.8008C228.96 57.8008 223.08 59.6008 222.99 65.1108C222.928 66.574 223.429 68.0054 224.39 69.1108Z" fill="#004651"/>
<path d="M241.68 52.3404L247.68 59.3404C244.417 58.3577 241.028 57.8591 237.62 57.8604C231.62 57.8604 226.98 58.7104 224.62 61.0404L218.62 54.0404C220.97 51.7204 225.62 50.8604 231.62 50.8604C235.028 50.8599 238.417 51.3585 241.68 52.3404Z" fill="#004651"/>
<path d="M218.63 54L224.63 61C224.39 61.2284 224.172 61.4796 223.98 61.75L217.98 54.75C218.174 54.4838 218.388 54.2331 218.62 54" fill="#004651"/>
<path d="M218 54.79L224 61.79C223.852 62.0004 223.718 62.221 223.6 62.45L217.6 55.45C217.714 55.2189 217.848 54.9981 218 54.79Z" fill="#004651"/>
<path d="M217.59 55.4502L223.59 62.4502C223.478 62.6748 223.378 62.9051 223.29 63.1402L217.29 56.1402C217.369 55.9017 217.47 55.6708 217.59 55.4502Z" fill="#004651"/>
<path d="M217.29 56.1406L223.29 63.1406C223.199 63.4013 223.129 63.6688 223.08 63.9406L217.08 56.9406C217.138 56.67 217.212 56.4029 217.3 56.1406" fill="#004651"/>
<path d="M217.07 56.9399L223.07 63.9399C223.021 64.2911 222.997 64.6454 223 64.9999L217 57.9999C217.009 57.6371 217.049 57.2758 217.12 56.9199" fill="#004651"/>
<path d="M217 58L223 65V65.15C222.989 65.6031 223.029 66.056 223.12 66.5L217.12 59.5C217.039 59.0546 216.998 58.6027 217 58.15C217 58.1 217 58.05 217 58Z" fill="#004651"/>
<path d="M217.06 59.5205L223.06 66.5205C223.206 67.289 223.513 68.0182 223.96 68.6605L217.96 61.6605C217.51 61.0187 217.2 60.2897 217.05 59.5205" fill="#004651"/>
<path d="M218 61.6604L224 68.6604C224.121 68.8304 224.252 68.994 224.39 69.1504L218.39 62.1504C218.255 61.9905 218.128 61.8236 218.01 61.6504" fill="#004651"/>
<path d="M214.23 76.4007L208.23 69.4007C211.65 73.4007 217.23 75.6107 224.23 75.6107C232.41 75.6107 238.09 72.5307 241.45 68.9307L247.45 75.9307C244.09 79.5307 238.45 82.6107 230.24 82.6107C223.23 82.6207 217.66 80.3607 214.23 76.4007Z" fill="#004651"/>
<path d="M241.4 69L247.4 76C247.25 76.16 247.1 76.32 246.94 76.47L240.94 69.47C241.1 69.32 241.25 69.16 241.4 69Z" fill="#004651"/>
<path d="M240.94 69.4504L246.94 76.4504C243.54 79.8504 238 82.6604 230.19 82.6604C223.19 82.6604 217.63 80.4004 214.19 76.4404L208.19 69.4404C211.61 73.4404 217.19 75.6504 224.19 75.6504C232.01 75.6504 237.54 72.8404 240.95 69.4404" fill="#004651"/>
<path d="M253.4 75.0205L259.43 81.9705H247.33L241.29 75.0205H253.4Z" fill="#004651"/>
<path d="M253.97 41.3301L260.01 48.2901L259.43 81.9701L253.4 75.0201L253.97 41.3301Z" fill="#005D72"/>
<path d="M279.75 31.1504L285.78 38.1104H265.82L259.78 31.1504H279.75Z" fill="#004651"/>
<path d="M311.82 31.1504L317.85 38.1104H297.89L291.85 31.1504H311.82Z" fill="#004651"/>
<path d="M312.01 19.9209L318.05 26.8809L317.85 38.1109L311.82 31.1509L312.01 19.9209Z" fill="#005D72"/>
<path d="M291.1 75.0205L297.14 81.9705H285.03L279 75.0205H291.1Z" fill="#004651"/>
<path d="M291.85 31.1504L297.89 38.1104L297.14 81.9704L291.1 75.0204L291.85 31.1504Z" fill="#005D72"/>
<path d="M348.85 33.1109L354.85 40.1109C353.02 38.0009 350.03 36.8809 345.56 36.8809C339.56 36.8809 335.02 38.6809 329.64 42.7109L323.64 35.7109C329.01 31.7109 333.5 29.8809 339.56 29.8809C344 29.8809 347 31.0009 348.85 33.1109Z" fill="#004651"/>
<path d="M348.85 33.1109L354.85 40.1109C353.02 38.0009 350.03 36.8809 345.56 36.8809C339.56 36.8809 335.02 38.6809 329.64 42.7109L323.64 35.7109C329.01 31.7109 333.5 29.8809 339.56 29.8809C344.03 29.8809 347.01 31.0009 348.85 33.1109Z" fill="#004651"/>
<path d="M358.47 25.3203L364.47 32.3203C367.8 36.1503 369.47 41.5603 369.37 48.3203L363.37 41.3203C363.48 34.5603 361.8 29.1503 358.47 25.3203Z" fill="#005D72"/>
<path d="M358.47 25.3203L364.47 32.3203C364.883 32.784 365.263 33.2751 365.61 33.7903L359.61 26.7903C359.257 26.2797 358.876 25.789 358.47 25.3203Z" fill="#005D72"/>
<path d="M359.61 26.79L365.61 33.79C367.219 36.1596 368.313 38.8408 368.82 41.66L362.82 34.71C362.306 31.8898 361.213 29.2066 359.61 26.83" fill="#005D72"/>
<path d="M362.82 34.6699L368.82 41.6199C369.241 43.8172 369.425 46.0533 369.37 48.2899L363.37 41.2899C363.421 39.0567 363.236 36.8244 362.82 34.6299" fill="#005D72"/>
<path d="M333.77 69.1108L327.77 62.1108C326.806 61.0069 326.301 59.5754 326.36 58.1108C326.45 52.6008 332.36 50.8008 341.03 50.8008C344.438 50.7986 347.827 51.2973 351.09 52.2808L357.09 59.2808C353.817 58.3011 350.417 57.8092 347 57.8208C338.29 57.8208 332.42 59.6208 332.32 65.1308C332.277 66.594 332.796 68.018 333.77 69.1108Z" fill="#004651"/>
<path d="M351.06 52.3403L357.06 59.3403C353.799 58.3433 350.41 57.8311 347 57.8203C341 57.8203 336.36 58.6703 334 61.0003L328 54.0003C330.35 51.6803 335 50.8203 341 50.8203C344.408 50.8182 347.797 51.3168 351.06 52.3003" fill="#004651"/>
<path d="M328 54L334 61C333.763 61.2287 333.548 61.4798 333.36 61.75L327.36 54.75C327.556 54.4862 327.77 54.2356 328 54Z" fill="#004651"/>
<path d="M327.37 54.79L333.37 61.79C333.218 62.0003 333.081 62.2208 332.96 62.45L326.96 55.45C327.078 55.221 327.211 55.0004 327.36 54.79" fill="#004651"/>
<path d="M327 55.4502L333 62.4502C332.887 62.673 332.79 62.9036 332.71 63.1402L326.71 56.1402C326.798 55.9051 326.898 55.6748 327.01 55.4502" fill="#004651"/>
<path d="M326.67 56.1406L332.67 63.1406C332.576 63.4011 332.502 63.6686 332.45 63.9406L326.45 56.9406C326.508 56.67 326.582 56.4029 326.67 56.1406Z" fill="#004651"/>
<path d="M326.45 56.9404L332.45 63.9404C332.378 64.2962 332.338 64.6576 332.33 65.0204L326.33 58.0204C326.349 57.6584 326.389 57.2977 326.45 56.9404Z" fill="#004651"/>
<path d="M326.33 58L332.33 65C332.325 65.0499 332.325 65.1001 332.33 65.15C332.319 65.6031 332.359 66.056 332.45 66.5L326.45 59.5C326.367 59.055 326.33 58.6026 326.34 58.15V58" fill="#004651"/>
<path d="M326.44 59.5205L332.44 66.5205C332.587 67.289 332.893 68.0182 333.34 68.6605L327.34 61.6605C326.895 61.0165 326.585 60.2883 326.43 59.5205" fill="#004651"/>
<path d="M327.35 61.6602L333.35 68.6602C333.471 68.8302 333.602 68.9937 333.74 69.1502L327.74 62.1502C327.602 61.9937 327.471 61.8302 327.35 61.6602Z" fill="#004651"/>
<path d="M323.63 76.4104L317.63 69.4104C321.05 73.4104 326.63 75.6204 333.63 75.6204C341.81 75.6204 347.49 72.5404 350.84 68.9404L356.84 75.9404C353.49 79.5404 347.84 82.6204 339.63 82.6204C332.62 82.6204 327.05 80.3604 323.63 76.4104Z" fill="#004651"/>
<path d="M350.78 69L356.78 76L356.32 76.49L350.32 69.49L350.79 69" fill="#004651"/>
<path d="M350.31 69.4702L356.31 76.4702C352.91 79.8502 347.37 82.6602 339.56 82.6602C332.56 82.6602 327.01 80.4002 323.56 76.4502L317.56 69.4502C320.98 73.4502 326.56 75.6602 333.56 75.6602C341.37 75.6602 346.9 72.8502 350.3 69.4702" fill="#004651"/>
<path d="M362.79 75.0205L368.82 81.9705H356.71L350.68 75.0205H362.79Z" fill="#004651"/>
<path d="M363.37 41.3301L369.4 48.2901L368.82 81.9701L362.79 75.0201L363.37 41.3301Z" fill="#005D72"/>
<path d="M406.75 19.9209L412.78 26.8809L431.15 64.0709L425.12 57.1109L406.75 19.9209Z" fill="#005D72"/>
<path d="M453.37 19.9209L459.4 26.8809L436.81 80.3909L430.78 73.4309L453.37 19.9209Z" fill="#004651"/>
<path d="M430.78 73.4307L436.78 80.4307C429.04 98.6507 423.32 104.161 414.4 104.161C411.772 104.233 409.163 103.692 406.78 102.581L400.78 95.5807C403.162 96.6933 405.771 97.2343 408.4 97.1607C417.31 97.1607 423 91.6607 430.78 73.4307Z" fill="#004651"/>
<path d="M430.78 73.4307L436.78 80.4307C435.43 83.6107 434.14 86.4307 432.88 88.8507L426.88 81.8507C428.14 79.4007 429.43 76.6107 430.78 73.4307Z" fill="#004651"/>
<path d="M426.88 81.8506L432.88 88.8506C431.671 91.2788 430.291 93.6181 428.75 95.8506L422.75 88.8506C424.291 86.6185 425.672 84.2792 426.88 81.8506Z" fill="#004651"/>
<path d="M422.75 88.8008L428.75 95.8008C427.836 97.1121 426.813 98.3432 425.69 99.4808L419.69 92.4808C420.81 91.3405 421.833 90.1097 422.75 88.8008Z" fill="#004651"/>
<path d="M419.69 92.4805L425.69 99.4805C424.242 101.009 422.488 102.216 420.543 103.022C418.598 103.829 416.505 104.217 414.4 104.16C411.772 104.233 409.163 103.692 406.78 102.58L400.78 95.5805C403.162 96.6931 405.771 97.2341 408.4 97.1605C410.505 97.2165 412.598 96.8288 414.543 96.0224C416.488 95.2161 418.242 94.0093 419.69 92.4805Z" fill="#004651"/>
<path d="M495.31 35.4509L501.31 42.4509C497.98 38.6109 494.13 36.8809 488.61 36.8809C478.61 36.8809 471.39 43.9809 471.21 54.3609C471.055 58.5721 472.482 62.6888 475.21 65.9009L469.21 58.9009C466.493 55.6825 465.068 51.5702 465.21 47.3609C465.39 36.9809 472.62 29.8809 482.61 29.8809C488.14 29.8809 492 31.6109 495.31 35.4509Z" fill="#004651"/>
<path d="M495.31 35.4504L501.31 42.4504C497.98 38.6104 494.13 36.8804 488.61 36.8804C486.329 36.8256 484.059 37.2252 481.934 38.0562C479.808 38.8871 477.869 40.1327 476.23 41.7204L470.23 34.7204C471.869 33.1353 473.806 31.8913 475.93 31.0605C478.053 30.2297 480.32 29.8286 482.6 29.8804C488.13 29.8804 491.98 31.6104 495.3 35.4504" fill="#004651"/>
<path d="M470.24 34.7207L476.24 41.7207C475.604 42.3618 475.022 43.0541 474.5 43.7907L468.5 36.7907C469.026 36.0539 469.611 35.3616 470.25 34.7207" fill="#004651"/>
<path d="M468.49 36.79L474.49 43.79C474.03 44.4264 473.615 45.0948 473.25 45.79L467.25 38.79C467.616 38.0971 468.026 37.4289 468.48 36.79" fill="#004651"/>
<path d="M467.26 38.8105L473.26 45.8105C472.896 46.5213 472.582 47.2564 472.32 48.0105L466.32 41.0105C466.582 40.2564 466.896 39.5213 467.26 38.8105Z" fill="#004651"/>
<path d="M466.32 41.0002L472.32 48.0002C472.027 48.8327 471.793 49.6848 471.62 50.5502L465.62 43.5502C465.787 42.6801 466.021 41.8242 466.32 40.9902" fill="#004651"/>
<path d="M465.62 43.5703L471.62 50.5703C471.402 51.6682 471.271 52.7817 471.23 53.9003L465.23 46.9003C465.266 45.7846 465.396 44.6739 465.62 43.5803" fill="#004651"/>
<path d="M465.23 46.8906L471.23 53.8906C471.23 54.0506 471.23 54.2006 471.23 54.3606C471.2 55.7028 471.317 57.0441 471.58 58.3606L465.58 51.3606C465.326 50.0428 465.209 48.7024 465.23 47.3606C465.23 47.2006 465.23 47.0506 465.23 46.8906Z" fill="#004651"/>
<path d="M465.56 51.3906L471.56 58.3906C471.981 60.6203 472.867 62.7363 474.16 64.6006L468.16 57.6006C466.875 55.7319 465.99 53.6176 465.56 51.3906Z" fill="#004651"/>
<path d="M468.16 57.6006L474.16 64.6006C474.47 65.0511 474.804 65.4851 475.16 65.9006L469.16 58.9006C468.804 58.4845 468.471 58.0506 468.16 57.6006Z" fill="#004651"/>
<path d="M505.74 31.1504L511.78 38.1104L502.64 44.0404L496.61 37.0904L505.74 31.1504Z" fill="#005D72"/>
<path d="M503 27L509 34C510.098 35.2651 511.023 36.6708 511.75 38.18L505.75 31.18C505.03 29.667 504.104 28.2605 503 27Z" fill="#B3B3B3"/>
<path d="M503 27L509 34C509.448 34.5176 509.869 35.0583 510.26 35.62L504.26 28.62C503.872 28.0558 503.451 27.5149 503 27Z" fill="#B3B3B3"/>
<path d="M504.25 28.5898L510.25 35.5898C510.813 36.4025 511.312 37.2586 511.74 38.1498L505.74 31.1498C505.315 30.2565 504.817 29.4002 504.25 28.5898Z" fill="#B3B3B3"/>
<path d="M465.13 73.6101L459.13 66.6101C464.27 72.5401 472.22 75.9301 481.96 75.9301C491.52 75.9301 501.16 71.2701 505.87 62.3701L511.87 69.3701C507.15 78.2701 497.51 82.9301 487.95 82.9301C478.23 82.9301 470.27 79.5401 465.13 73.6101Z" fill="#004651"/>
<path d="M505.84 62.4108L511.84 69.4108C511.357 70.3043 510.823 71.1691 510.24 72.0008L504.24 65.0008C504.848 64.1536 505.396 63.2647 505.88 62.3408" fill="#004651"/>
<path d="M504.2 65.0713L510.2 72.0713C509.41 73.1754 508.531 74.2123 507.57 75.1713L501.57 68.1713C502.536 67.2176 503.416 66.1802 504.2 65.0713Z" fill="#004651"/>
<path d="M501.57 68.1703L507.57 75.1703C502.308 80.2097 495.286 82.9942 488 82.9304C478.27 82.9304 470.31 79.5404 465.17 73.6104L459.17 66.6104C464.31 72.5404 472.26 75.9304 482 75.9304C489.316 76.0061 496.369 73.205 501.64 68.1303" fill="#004651"/>
<path d="M550.67 31.1504L556.7 38.1104H530.79L524.75 31.1504H550.67Z" fill="#004651"/>
<path d="M524.75 31.1504L530.79 38.1104L530.03 81.9704L524 75.0204L524.75 31.1504Z" fill="#005D72"/>
<path d="M524 75.0205L530.03 81.9705H517.93L511.9 75.0205H524Z" fill="#004651"/>
<path d="M562.02 75.0205L568.05 81.9705H555.95L549.92 75.0205H562.02Z" fill="#004651"/>
<path d="M562.96 19.9209L569 26.8809L568.05 81.9709L562.02 75.0209L562.96 19.9209Z" fill="#005D72"/>
<path d="M610.19 33.7405L616.19 40.7405C613.78 37.9705 610.08 36.5605 605.44 36.5605C597.25 36.5605 591.87 41.0205 590.16 48.1105L584.16 41.1105C585.88 34.0205 591.26 29.5605 599.44 29.5605C604.08 29.5605 607.79 31.0005 610.19 33.7405Z" fill="#004651"/>
<path d="M610.19 33.7406L616.19 40.7406C613.78 37.9706 610.08 36.5606 605.44 36.5606C600.8 36.5606 596.83 38.0806 594.13 40.7606L588.13 33.8106C590.82 31.1206 594.65 29.6006 599.43 29.6006C604.21 29.6006 607.78 31.0106 610.18 33.7806" fill="#004651"/>
<path d="M588.14 33.7707L594.14 40.7207C593.598 41.2735 593.096 41.865 592.64 42.4907L586.64 35.4907C587.085 34.8564 587.587 34.2639 588.14 33.7207" fill="#004651"/>
<path d="M586.64 35.541L592.64 42.541C592.238 43.1112 591.877 43.7094 591.56 44.331L585.56 37.331C585.882 36.7133 586.246 36.1185 586.65 35.551" fill="#004651"/>
<path d="M585.55 37.3203L591.55 44.3203C591.216 44.9672 590.926 45.6353 590.68 46.3203L584.68 39.3203C584.922 38.6355 585.209 37.9674 585.54 37.3203" fill="#004651"/>
<path d="M584.69 39.3408L590.69 46.3408C590.49 46.9108 590.32 47.5008 590.17 48.1108L584.17 41.1108C584.32 40.5008 584.5 39.9108 584.7 39.3408" fill="#004651"/>
<path d="M593.1 66.3905L587.1 59.3905C585.225 57.1898 584.107 54.4449 583.91 51.5605L589.91 58.5605C590.118 61.4424 591.235 64.1839 593.1 66.3905Z" fill="#005D72"/>
<path d="M583.88 51.6006L589.88 58.6006C589.93 59.1706 590.02 59.7306 590.12 60.2606L584.12 53.3106C584.008 52.759 583.928 52.2014 583.88 51.6406" fill="#005D72"/>
<path d="M584.12 53.2705L590.12 60.2205C590.469 62.0558 591.194 63.799 592.25 65.3405L586.25 58.3405C585.186 56.8071 584.46 55.0654 584.12 53.2305" fill="#005D72"/>
<path d="M586.25 58.3809L592.25 65.3809C592.506 65.7284 592.779 66.0622 593.07 66.3809L587.07 59.3809C586.779 59.0622 586.506 58.7284 586.25 58.3809Z" fill="#005D72"/>
<path d="M619.91 27L625.91 34C629.869 38.7247 631.914 44.7618 631.64 50.92L625.64 43.92C625.907 37.7628 623.863 31.7281 619.91 27Z" fill="#005D72"/>
<path d="M619.91 27L625.91 34C626.433 34.6037 626.924 35.2346 627.38 35.89L621.38 28.89C620.927 28.2321 620.436 27.6011 619.91 27Z" fill="#005D72"/>
<path d="M621.37 28.8398L627.37 35.8398C629.23 38.5468 630.504 41.6122 631.11 44.8398L625.11 37.8398C624.5 34.6116 623.223 31.5463 621.36 28.8398" fill="#005D72"/>
<path d="M625.12 37.8203L631.12 44.8203C631.508 46.7959 631.682 48.8075 631.64 50.8203L625.64 43.8203C625.672 41.8078 625.498 39.7973 625.12 37.8203Z" fill="#005D72"/>
<path d="M624.87 51.6006L630.9 58.5606H589.91L583.88 51.6006H624.87Z" fill="#004651"/>
<path d="M625.64 43.8701L631.64 50.8701C631.536 53.4597 631.279 56.0409 630.87 58.6001L624.87 51.6001C625.279 49.0409 625.536 46.4597 625.64 43.8701Z" fill="#005D72"/>
<path d="M625.64 43.8701L631.64 50.8701C631.64 51.0501 631.64 51.2401 631.64 51.4401L625.64 44.4401C625.64 44.2401 625.64 44.0501 625.64 43.8701Z" fill="#005D72"/>
<path d="M625.62 44.4404L631.62 51.4404C631.55 53.2104 631.29 55.6404 630.86 58.6004L624.86 51.6004C625.29 48.6004 625.54 46.2104 625.61 44.4404" fill="#005D72"/>
<path d="M583.76 73.6702L577.76 66.6702C582.87 72.5602 590.76 75.9302 600.48 75.9302C604.87 76.0008 609.213 75.018 613.146 73.0641C617.078 71.1101 620.484 68.242 623.08 64.7002L629.08 71.7002C626.486 75.2433 623.079 78.1123 619.147 80.0663C615.214 82.0204 610.87 83.0025 606.48 82.9302C596.77 82.9302 588.87 79.5602 583.76 73.6702Z" fill="#004651"/>
<path d="M623.05 64.7402L629.05 71.7402C628.188 72.8671 627.252 73.9361 626.25 74.9402L620.25 67.9402C621.258 66.9385 622.197 65.8694 623.06 64.7402" fill="#004651"/>
<path d="M620.24 67.9407L626.24 74.9407C623.649 77.5395 620.559 79.5879 617.157 80.9626C613.754 82.3374 610.109 83.0102 606.44 82.9407C596.73 82.9407 588.83 79.5707 583.72 73.6807L577.72 66.6807C582.83 72.5707 590.72 75.9407 600.44 75.9407C604.108 76.0118 607.752 75.3396 611.153 73.9647C614.554 72.5898 617.642 70.5407 620.23 67.9407" fill="#004651"/>
<path d="M646.86 19.9209L652.89 26.8809L652.14 70.7509L646.11 63.7909L646.86 19.9209Z" fill="#005D72"/>
<path d="M674.9 19.9209L680.94 26.8809L680.18 70.7509L674.15 63.7909L674.9 19.9209Z" fill="#005D72"/>
<path d="M701.99 75.0205L708.02 81.9705H639.85L633.81 75.0205H701.99Z" fill="#004651"/>
<path d="M702.93 19.9209L708.97 26.8809L708.02 81.9709L701.99 75.0209L702.93 19.9209Z" fill="#005D72"/>
<path d="M726.3 19.9209L732.34 26.8809L731.97 48.5009L725.93 41.5409L726.3 19.9209Z" fill="#005D72"/>
<path d="M725.74 52.6602L731.77 59.6202L731.39 81.9702L725.36 75.0202L725.74 52.6602Z" fill="#005D72"/>
<path d="M725.36 75.0205L731.39 81.9705H719.29L713.25 75.0205H725.36Z" fill="#004651"/>
<path d="M752.29 52.6602L758.32 59.6202H731.77L725.74 52.6602H752.29Z" fill="#004651"/>
<path d="M764.01 75.0205L770.04 81.9705H757.94L751.91 75.0205H764.01Z" fill="#004651"/>
<path d="M764.95 19.9209L770.99 26.8809L770.04 81.9709L764.01 75.0209L764.95 19.9209Z" fill="#005D72"/>
<path d="M815.91 35.4008L821.91 42.4008C820.305 40.6127 818.331 39.194 816.125 38.2427C813.919 37.2915 811.532 36.8302 809.13 36.8908C799.46 36.8908 792.02 43.5708 791.84 54.3708C791.65 58.7056 793.076 62.9566 795.84 66.3008L789.84 59.3008C787.051 55.9672 785.603 51.7139 785.78 47.3708C785.97 36.5708 793.41 29.8908 803.07 29.8908C805.482 29.8208 807.881 30.2775 810.098 31.2291C812.316 32.1807 814.299 33.6043 815.91 35.4008Z" fill="#004651"/>
<path d="M815.91 35.4004L821.91 42.4004C820.305 40.6123 818.331 39.1937 816.125 38.2424C813.918 37.2911 811.532 36.8298 809.13 36.8904C806.863 36.8366 804.609 37.2321 802.496 38.0543C800.383 38.8764 798.454 40.1088 796.82 41.6804L790.82 34.6804C792.451 33.1064 794.377 31.8717 796.489 31.0477C798.6 30.2238 800.854 29.827 803.12 29.8804C805.524 29.819 807.913 30.2808 810.122 31.2339C812.33 32.187 814.305 33.6087 815.91 35.4004Z" fill="#004651"/>
<path d="M790.82 34.6807L796.82 41.6807C796.193 42.2993 795.617 42.9682 795.1 43.6807L789.1 36.6807C789.614 35.9656 790.19 35.2964 790.82 34.6807Z" fill="#004651"/>
<path d="M789.1 36.71L795.1 43.71C794.649 44.3471 794.245 45.0155 793.89 45.71L787.89 38.71C788.249 38.0153 788.656 37.3469 789.11 36.71" fill="#004651"/>
<path d="M787.88 38.7002L793.88 45.7002C793.516 46.4007 793.202 47.1258 792.94 47.8702L786.94 40.9202C787.203 40.1744 787.514 39.4463 787.87 38.7402" fill="#004651"/>
<path d="M787 40.8808L793 47.8308C792.71 48.6745 792.476 49.5364 792.3 50.4108L786.3 43.4108C786.47 42.5382 786.704 41.6793 787 40.8408" fill="#004651"/>
<path d="M786.25 43.4502L792.25 50.4502C792.026 51.5778 791.892 52.7214 791.85 53.8702L785.85 46.8702C785.888 45.721 786.021 44.5771 786.25 43.4502Z" fill="#004651"/>
<path d="M785.85 46.8701L791.85 53.8701C791.85 54.0301 791.85 54.1901 791.85 54.3601C791.82 55.7656 791.941 57.1703 792.21 58.5501L786.21 51.5501C785.946 50.1696 785.825 48.7655 785.85 47.3601C785.85 47.2001 785.85 47.0301 785.85 46.8701Z" fill="#004651"/>
<path d="M786.19 51.5508L792.19 58.5508C792.635 60.8677 793.561 63.0652 794.91 65.0008L788.91 58.0008C787.579 56.0636 786.666 53.8703 786.23 51.5608" fill="#004651"/>
<path d="M788.87 58L794.87 65C795.178 65.4523 795.512 65.8864 795.87 66.3L789.87 59.3C789.515 58.8838 789.181 58.4499 788.87 58Z" fill="#004651"/>
<path d="M825.86 28.2002L831.86 35.2002C836.37 40.5458 838.723 47.3814 838.46 54.3702C838.18 70.9002 825.76 82.9802 808.34 82.9802C798.94 82.9802 791.07 79.3802 785.9 73.4202L779.9 66.4202C785.06 72.4202 792.9 75.9802 802.33 75.9802C819.75 75.9802 832.17 63.9002 832.46 47.3702C832.723 40.3814 830.37 33.5458 825.86 28.2002Z" fill="#004651"/>
<path d="M825.859 28.2002L831.859 35.2002C832.459 35.8948 833.023 36.619 833.549 37.3702L827.549 30.3702C827.029 29.6201 826.468 28.899 825.869 28.2102" fill="#004651"/>
<path d="M827.54 30.3604L833.54 37.3604C835.682 40.4711 837.156 43.9917 837.87 47.7004L831.87 40.7004C831.157 36.9897 829.679 33.4683 827.53 30.3604" fill="#004651"/>
<path d="M831.88 40.7002L837.88 47.7002C838.309 49.8933 838.504 52.1259 838.46 54.3602C838.46 54.5902 838.46 54.8202 838.46 55.0502L832.46 48.0502C832.46 47.8202 832.46 47.5902 832.46 47.3602C832.499 45.1261 832.304 42.894 831.88 40.7002Z" fill="#004651"/>
<path d="M832.44 48.0498L838.44 55.0498C838.37 56.729 838.173 58.4006 837.85 60.0498L831.85 53.0498C832.174 51.4007 832.371 49.7291 832.44 48.0498Z" fill="#004651"/>
<path d="M831.849 53.0898L837.849 60.0898C837.574 61.4465 837.206 62.7829 836.75 64.0898L830.75 57.0898C831.206 55.7829 831.574 54.4465 831.849 53.0898Z" fill="#004651"/>
<path d="M830.75 57.0898L836.75 64.0898C836.323 65.2994 835.815 66.4788 835.229 67.6198L829.229 60.6198C829.811 59.4769 830.319 58.2978 830.75 57.0898Z" fill="#004651"/>
<path d="M829.229 60.6201L835.229 67.6201C834.646 68.7875 833.977 69.9106 833.229 70.9801L827.229 63.9801C827.993 62.9112 828.678 61.7883 829.28 60.6201" fill="#004651"/>
<path d="M827.18 64L833.18 71C832.282 72.2535 831.278 73.4278 830.18 74.51L824.18 67.51C825.281 66.4301 826.284 65.2556 827.18 64Z" fill="#004651"/>
<path d="M824.2 67.4902L830.2 74.4902C824.86 79.8001 817.2 82.9702 808.33 82.9702C798.93 82.9702 791.06 79.3702 785.89 73.4102L779.89 66.4102C785.05 72.4102 792.89 75.9702 802.32 75.9702C811.24 75.9702 818.85 72.8002 824.19 67.4902" fill="#004651"/>
<path d="M276.91 134.141L282.95 141.101H257.04L251.01 134.141H276.91Z" fill="#004651"/>
<path d="M251.01 134.141L257.04 141.101L256.29 184.971L250.26 178.011L251.01 134.141Z" fill="#005D72"/>
<path d="M250.26 178.011L256.29 184.971H244.18L238.14 178.011H250.26Z" fill="#004651"/>
<path d="M288.27 178.011L294.31 184.971H282.2L276.16 178.011H288.27Z" fill="#004651"/>
<path d="M289.22 122.91L295.25 129.87L294.31 184.97L288.27 178.01L289.22 122.91Z" fill="#005D72"/>
<path d="M312.69 122.91L318.72 129.87L318.63 134.85L312.6 127.89L312.69 122.91Z" fill="#B3B3B3"/>
<path d="M337.83 137.531L343.83 144.531C341.2 141.531 337.34 139.861 332.54 139.861C329.563 139.848 326.645 140.69 324.132 142.285C321.619 143.88 319.616 146.162 318.36 148.861L312.36 141.861C313.615 139.161 315.618 136.878 318.131 135.283C320.645 133.688 323.563 132.847 326.54 132.861C331.34 132.871 335.2 134.501 337.83 137.531Z" fill="#004651"/>
<path d="M337.83 137.53L343.83 144.53C341.2 141.53 337.34 139.86 332.54 139.86C330.508 139.838 328.492 140.222 326.611 140.992C324.731 141.761 323.023 142.9 321.59 144.34L315.59 137.34C317.029 135.894 318.744 134.752 320.634 133.984C322.524 133.216 324.55 132.837 326.59 132.87C331.39 132.87 335.25 134.5 337.88 137.53" fill="#004651"/>
<path d="M315.59 137.34L321.59 144.34C320.934 144.997 320.332 145.706 319.79 146.46L313.79 139.51C314.328 138.75 314.931 138.037 315.59 137.38" fill="#004651"/>
<path d="M313.79 139.47L319.79 146.42C319.325 147.079 318.907 147.771 318.54 148.49L312.54 141.49C312.905 140.773 313.323 140.084 313.79 139.43" fill="#004651"/>
<path d="M312.54 141.53L318.54 148.53L318.36 148.88L312.36 141.88L312.54 141.53Z" fill="#004651"/>
<path d="M312.36 141.881L318.39 148.841L318.07 167.911L312.03 160.951L312.36 141.881Z" fill="#004651"/>
<path d="M319.45 169.84L313.45 162.84C312.912 162.272 312.427 161.656 312 161L318 168C318.426 168.657 318.911 169.272 319.45 169.84Z" fill="#B3B3B3"/>
<path d="M312 161L318 168C318.17 168.3 318.36 168.59 318.56 168.88L312.56 161.88C312.37 161.59 312.18 161.3 312 161Z" fill="#B3B3B3"/>
<path d="M312.59 161.83L318.59 168.83C318.843 169.195 319.117 169.546 319.41 169.88L313.41 162.88C313.119 162.561 312.845 162.228 312.59 161.88" fill="#B3B3B3"/>
<path d="M311.38 199.19L317.41 206.15H305.31L299.27 199.19H311.38Z" fill="#004651"/>
<path d="M311.8 174.41L317.84 181.37L317.41 206.15L311.38 199.19L311.8 174.41Z" fill="#005D72"/>
<path d="M347.92 130L353.92 137C358.16 141.89 360.43 148.66 360.29 156.54C360 173.39 348.74 186 332.17 186C326.17 186 320.42 184.46 317.94 181.61L311.94 174.61C314.42 177.46 320.13 179 326.17 179C342.74 179 354 166.39 354.29 149.55C354.42 141.62 352.16 134.85 347.92 130Z" fill="#004651"/>
<path d="M347.92 130L353.92 137C354.475 137.636 354.992 138.304 355.47 139L349.47 132C348.989 131.306 348.472 130.639 347.92 130Z" fill="#004651"/>
<path d="M349.47 132L355.47 139C357.558 142.071 358.987 145.54 359.67 149.19L353.67 142.19C352.992 138.539 351.562 135.068 349.47 132Z" fill="#004651"/>
<path d="M353.66 142.15L359.66 149.15C360.121 151.572 360.329 154.036 360.28 156.5C360.28 156.77 360.28 157.04 360.28 157.31L354.28 150.31V149.51C354.33 147.042 354.119 144.575 353.65 142.15" fill="#004651"/>
<path d="M354.26 150.31L360.26 157.31C360.188 159.228 359.964 161.137 359.59 163.02L353.59 156.07C353.968 154.184 354.192 152.271 354.26 150.35" fill="#004651"/>
<path d="M353.59 156L359.59 162.95C359.288 164.457 358.88 165.94 358.37 167.39L352.37 160.39C352.88 158.944 353.284 157.464 353.58 155.96" fill="#004651"/>
<path d="M352.38 160.46L358.38 167.46C357.925 168.763 357.38 170.032 356.75 171.26L350.75 164.26C351.383 163.033 351.931 161.763 352.39 160.46" fill="#004651"/>
<path d="M350.74 164.26L356.74 171.26C356.116 172.471 355.407 173.637 354.62 174.75L348.62 167.75C349.411 166.64 350.119 165.473 350.74 164.26Z" fill="#004651"/>
<path d="M348.62 167.75L354.62 174.75C353.722 175.997 352.718 177.165 351.62 178.24L345.62 171.24C346.699 170.161 347.685 168.993 348.57 167.75" fill="#004651"/>
<path d="M345.67 171.24L351.67 178.24C349.095 180.758 346.045 182.737 342.697 184.062C339.349 185.388 335.77 186.033 332.17 185.96C326.17 185.96 320.42 184.42 317.94 181.57L311.94 174.57C314.42 177.42 320.13 178.96 326.17 178.96C329.77 179.033 333.349 178.388 336.697 177.062C340.045 175.737 343.095 173.758 345.67 171.24Z" fill="#004651"/>
<path d="M403 138.381L409 145.381C407.397 143.588 405.424 142.167 403.217 141.213C401.011 140.26 398.623 139.799 396.22 139.861C386.56 139.861 379.12 146.541 378.93 157.351C378.754 161.692 380.197 165.944 382.98 169.281L376.98 162.281C374.215 158.936 372.79 154.685 372.98 150.351C373.16 139.541 380.6 132.871 390.27 132.871C392.663 132.816 395.041 133.28 397.238 134.231C399.436 135.182 401.401 136.598 403 138.381Z" fill="#004651"/>
<path d="M403 138.381L409 145.381C407.398 143.588 405.425 142.166 403.218 141.213C401.011 140.26 398.623 139.798 396.22 139.861C393.954 139.807 391.7 140.204 389.589 141.028C387.478 141.852 385.551 143.087 383.92 144.661L377.92 137.661C379.553 136.087 381.482 134.853 383.595 134.031C385.708 133.209 387.963 132.814 390.23 132.87C392.63 132.81 395.015 133.271 397.22 134.223C399.425 135.174 401.397 136.593 403 138.381Z" fill="#004651"/>
<path d="M378 137.66L384 144.66C383.37 145.276 382.794 145.945 382.28 146.66L376.28 139.66C376.797 138.947 377.372 138.278 378 137.66Z" fill="#004651"/>
<path d="M376.23 139.69L382.23 146.69C381.776 147.327 381.369 147.996 381.01 148.69L375.01 141.74C375.366 141.046 375.77 140.378 376.22 139.74" fill="#004651"/>
<path d="M375 141.69L381 148.64C380.644 149.346 380.333 150.075 380.07 150.82L374.07 143.82C374.327 143.076 374.638 142.35 375 141.65" fill="#004651"/>
<path d="M374.09 143.86L380.09 150.86C379.791 151.698 379.557 152.557 379.39 153.43L373.39 146.43C373.566 145.558 373.804 144.699 374.1 143.86" fill="#004651"/>
<path d="M373.38 146.431L379.38 153.431C379.152 154.561 379.018 155.708 378.98 156.861L372.98 149.861C373.023 148.709 373.157 147.562 373.38 146.431Z" fill="#004651"/>
<path d="M373 149.86L379 156.86C379 157.02 379 157.19 379 157.35C378.975 158.756 379.096 160.16 379.36 161.54L373.36 154.59C373.091 153.207 372.971 151.799 373 150.39C373 150.23 373 150.06 373 149.9" fill="#004651"/>
<path d="M373.33 154.551L379.33 161.501C379.766 163.81 380.679 166.004 382.01 167.941L376.01 160.941C374.677 159.008 373.764 156.818 373.33 154.511" fill="#004651"/>
<path d="M376 161.001L382 168.001C382.32 168.451 382.66 168.891 383 169.301L377 162.301C376.639 161.889 376.305 161.455 376 161.001Z" fill="#004651"/>
<path d="M413 131.181L419 138.181C423.517 143.522 425.872 150.361 425.6 157.351C425.32 173.881 412.9 185.961 395.48 185.961C386.09 185.961 378.21 182.361 373.04 176.401L367.04 169.401C372.21 175.401 380.04 178.961 389.48 178.961C406.9 178.961 419.32 166.881 419.6 150.351C419.865 143.362 417.511 136.525 413 131.181Z" fill="#004651"/>
<path d="M413 131.181L419 138.181C419.599 138.872 420.163 139.593 420.69 140.341L414.69 133.341C414.172 132.586 413.611 131.861 413.01 131.171" fill="#004651"/>
<path d="M414.67 133.351L420.67 140.351C422.813 143.465 424.291 146.989 425.01 150.701L419.01 143.701C418.297 139.99 416.819 136.469 414.67 133.361" fill="#004651"/>
<path d="M419 143.69L425 150.69C425.421 152.885 425.612 155.117 425.57 157.35C425.57 157.58 425.57 157.81 425.57 158.05L419.57 151.05C419.57 150.82 419.57 150.58 419.57 150.35C419.614 148.116 419.419 145.884 418.99 143.69" fill="#004651"/>
<path d="M419.57 151.051L425.57 158.051C425.512 159.731 425.314 161.403 424.98 163.051L418.98 156.051C419.304 154.402 419.502 152.73 419.57 151.051Z" fill="#004651"/>
<path d="M419 156.081L425 163.081C424.735 164.44 424.367 165.777 423.9 167.081L417.9 160.131C418.356 158.824 418.724 157.488 419 156.131" fill="#004651"/>
<path d="M417.88 160.091L423.88 167.041C423.457 168.25 422.952 169.43 422.37 170.571L416.37 163.571C416.955 162.433 417.463 161.257 417.89 160.051" fill="#004651"/>
<path d="M416.36 163.611L422.36 170.611C421.775 171.777 421.106 172.9 420.36 173.971L414.36 166.971C415.125 165.899 415.81 164.773 416.41 163.601" fill="#004651"/>
<path d="M414.31 167.001L420.31 174.001C419.411 175.254 418.408 176.428 417.31 177.511L411.31 170.561C412.403 169.474 413.406 168.3 414.31 167.051" fill="#004651"/>
<path d="M411.34 170.491L417.34 177.441C412 182.751 404.39 185.921 395.47 185.921C386.08 185.921 378.2 182.321 373.03 176.361L367.03 169.361C372.2 175.361 380.03 178.921 389.47 178.921C398.39 178.921 406 175.761 411.34 170.451" fill="#004651"/>
<path d="M440.87 122.91L446.91 129.87L446.16 173.74L440.12 166.78L440.87 122.91Z" fill="#005D72"/>
<path d="M468.91 122.91L474.95 129.87L474.2 173.74L468.16 166.78L468.91 122.91Z" fill="#005D72"/>
<path d="M496 178.011L502.04 184.971H433.86L427.82 178.011H496Z" fill="#004651"/>
<path d="M496.94 122.91L502.98 129.87L502.04 184.97L496 178.01L496.94 122.91Z" fill="#005D72"/>
<path d="M526.71 134.141L532.74 141.101L532.59 149.681L526.56 142.721L526.71 134.141Z" fill="#004651"/>
<path d="M546.24 134.141L552.27 141.101H532.74L526.71 134.141H546.24Z" fill="#004651"/>
<path d="M526.56 142.721L532.56 149.721C532.09 177.111 523.56 185.541 511.24 185.541C510.41 185.541 509.56 185.541 508.69 185.431L502.69 178.431C503.56 178.501 504.41 178.541 505.25 178.541C517.56 178.541 526.09 170.111 526.56 142.721Z" fill="#005D72"/>
<path d="M526.56 142.721L532.56 149.721C532.56 150.641 532.56 151.541 532.49 152.411L526.49 145.411C526.49 144.541 526.55 143.641 526.57 142.721" fill="#005D72"/>
<path d="M526.48 145.41L532.48 152.41C532.343 156.774 531.869 161.12 531.06 165.41L525.06 158.46C525.88 154.152 526.355 149.785 526.48 145.4" fill="#005D72"/>
<path d="M525.06 158.471L531.06 165.421C530.65 167.521 530.092 169.589 529.39 171.611L523.39 164.611C524.087 162.592 524.641 160.527 525.05 158.431" fill="#005D72"/>
<path d="M523.4 164.65L529.4 171.65C528.943 172.965 528.398 174.248 527.77 175.49L521.77 168.49C522.406 167.25 522.954 165.967 523.41 164.65" fill="#005D72"/>
<path d="M521.76 168.49L527.76 175.49C527.251 176.474 526.676 177.423 526.04 178.33L520.04 171.33C520.678 170.426 521.25 169.477 521.75 168.49" fill="#005D72"/>
<path d="M520.05 171.331L526.05 178.331C525.452 179.183 524.783 179.982 524.05 180.721L518.05 173.721C518.78 172.98 519.449 172.18 520.05 171.331Z" fill="#005D72"/>
<path d="M518 173.721L524 180.721C520.55 184.161 516.19 185.541 511.21 185.541C510.38 185.541 509.53 185.541 508.66 185.431L502.66 178.431C503.53 178.501 504.38 178.541 505.22 178.541C510.22 178.541 514.55 177.161 518.01 173.721" fill="#005D72"/>
<path d="M557.6 178.011L563.64 184.971H551.52L545.49 178.011H557.6Z" fill="#004651"/>
<path d="M558.55 122.91L564.58 129.87L563.64 184.97L557.6 178.01L558.55 122.91Z" fill="#005D72"/>
<path d="M600.69 136.1L606.69 143.1C604.86 140.98 601.88 139.86 597.4 139.86C591.4 139.86 586.86 141.67 581.48 145.69L575.48 138.69C580.86 134.69 585.34 132.86 591.4 132.86C595.87 132.87 598.85 134 600.69 136.1Z" fill="#004651"/>
<path d="M600.69 136.1L606.69 143.1C604.86 140.98 601.88 139.86 597.4 139.86C591.4 139.86 586.86 141.67 581.48 145.69L575.48 138.69C580.86 134.69 585.34 132.86 591.4 132.86C595.87 132.86 598.85 133.97 600.69 136.09" fill="#004651"/>
<path d="M610.31 128.301L616.31 135.301C619.64 139.141 621.31 144.551 621.21 151.301L615.21 144.301C615.32 137.551 613.64 132.141 610.31 128.301Z" fill="#005D72"/>
<path d="M610.31 128.301L616.31 135.301C616.718 135.768 617.099 136.259 617.45 136.771L611.45 129.771C611.09 129.257 610.71 128.767 610.31 128.301Z" fill="#005D72"/>
<path d="M611.45 129.771L617.45 136.771C619.059 139.145 620.155 141.829 620.67 144.65L614.67 137.65C614.159 134.829 613.066 132.146 611.46 129.771" fill="#005D72"/>
<path d="M614.66 137.65L620.66 144.65C621.072 146.845 621.253 149.078 621.2 151.31L615.2 144.31C615.249 142.077 615.065 139.845 614.65 137.65" fill="#005D72"/>
<path d="M585.61 172.1L579.61 165.1C578.653 163.993 578.152 162.563 578.21 161.1C578.3 155.59 584.21 153.79 592.89 153.79C596.298 153.789 599.687 154.287 602.95 155.27L608.95 162.27C605.689 161.278 602.299 160.776 598.89 160.78C590.18 160.78 584.31 162.59 584.21 168.1C584.153 169.563 584.654 170.992 585.61 172.1Z" fill="#004651"/>
<path d="M602.91 155.331L608.91 162.331C605.649 161.338 602.259 160.836 598.85 160.841C592.85 160.841 588.21 161.701 585.85 164.021L579.85 157.021C582.2 154.701 586.85 153.851 592.85 153.851C596.258 153.849 599.647 154.348 602.91 155.331Z" fill="#004651"/>
<path d="M579.86 157.001L585.86 164.001C585.63 164.237 585.416 164.487 585.22 164.751L579.22 157.801C579.411 157.53 579.625 157.275 579.86 157.041" fill="#004651"/>
<path d="M579.22 157.78L585.22 164.73C585.073 164.945 584.94 165.169 584.82 165.4L578.82 158.4C578.941 158.171 579.078 157.95 579.23 157.74" fill="#004651"/>
<path d="M578.81 158.44L584.81 165.44C584.689 165.661 584.589 165.892 584.51 166.13L578.51 159.13C578.59 158.894 578.687 158.663 578.8 158.44" fill="#004651"/>
<path d="M578.52 159.131L584.52 166.131C584.429 166.392 584.355 166.66 584.3 166.931L578.3 159.931C578.347 159.658 578.421 159.39 578.52 159.131Z" fill="#004651"/>
<path d="M578.3 159.931L584.3 166.931C584.228 167.286 584.188 167.648 584.18 168.011L578.18 161.011C578.196 160.648 578.24 160.287 578.31 159.931" fill="#004651"/>
<path d="M578.17 161.001L584.17 168.001C584.17 168.051 584.17 168.101 584.17 168.151C584.159 168.604 584.199 169.057 584.29 169.501L578.29 162.551C578.198 162.104 578.158 161.647 578.17 161.191V161.001Z" fill="#004651"/>
<path d="M578.29 162.521L584.29 169.471C584.439 170.235 584.746 170.96 585.19 171.601L579.19 164.65C578.745 164.011 578.439 163.285 578.29 162.521Z" fill="#004651"/>
<path d="M579.19 164.65L585.19 171.6C585.309 171.775 585.439 171.943 585.58 172.1L579.58 165.1C579.45 164.94 579.32 164.78 579.2 164.61" fill="#004651"/>
<path d="M575.47 179.391L569.47 172.391C572.9 176.341 578.47 178.601 585.47 178.601C593.65 178.601 599.33 175.531 602.68 171.931L608.68 178.881C605.33 182.481 599.68 185.561 591.46 185.561C584.46 185.601 578.89 183.341 575.47 179.391Z" fill="#004651"/>
<path d="M602.62 172.001L608.62 178.951L608.15 179.441L602.15 172.441L602.62 171.961" fill="#004651"/>
<path d="M602.15 172.451L608.15 179.451C604.75 182.841 599.22 185.641 591.4 185.641C584.4 185.641 578.85 183.381 575.4 179.431L569.4 172.431C572.83 176.381 578.4 178.641 585.4 178.641C593.21 178.641 598.74 175.841 602.14 172.451" fill="#004651"/>
<path d="M614.63 178.011L620.66 184.971H608.55L602.52 178.011H614.63Z" fill="#004651"/>
<path d="M615.21 144.311L621.24 151.271L620.66 184.971L614.63 178.011L615.21 144.311Z" fill="#005D72"/>
<path fill-rule="evenodd" clip-rule="evenodd" d="M38.6702 0.000478697C59.8002 0.000478697 76.4202 15.9005 76.0002 37.9305C75.6702 59.7605 58.5002 75.8605 37.3802 75.8605C16.2602 75.8605 -0.369803 60.0005 0.000196551 37.9305C0.0406707 32.8985 1.07392 27.924 3.04072 23.2921C5.00752 18.6602 7.86919 14.4621 11.4617 10.9383C15.0541 7.41461 19.3068 4.63458 23.9758 2.75763C28.6448 0.880687 33.6384 -0.0562695 38.6702 0.000478697ZM37.5902 63.5705C51.3902 63.5705 62.4002 53.3005 62.6602 37.9305C62.9202 22.5605 51.4202 12.2905 38.4602 12.2905C25.1902 12.2905 13.6502 22.4705 13.3902 37.9305C13.1302 53.3905 24.3902 63.5705 37.5902 63.5705ZM135.61 19.9204L134.67 75.0204H122.56L123.31 31.1504H97.4L96.65 75.0204H84.54L85.48 19.9204H135.61ZM196.37 75.0004L197.31 19.9204H153.77L153.5 35.6104C153.09 59.6904 147.25 64.2604 141.7 64.2604C141.529 64.2604 141.36 64.2477 141.193 64.2351C141.028 64.2227 140.864 64.2104 140.7 64.2104L141.46 75.4404C142.334 75.5204 143.184 75.5604 144.01 75.5604C156.32 75.5604 164.85 67.1304 165.32 39.7304L165.47 31.1504H185L184.26 75.0004H196.37ZM231.74 18.6504C246.3 18.6504 254.22 26.9204 253.97 41.3304L253.4 75.0004H241.29L241.4 69.0004C238.04 72.6004 232.4 75.6804 224.18 75.6804C212.08 75.6804 204.18 68.9004 204.41 58.3004C204.62 46.0104 215.86 40.8104 230.52 40.8104C234.347 40.7929 238.158 41.2941 241.85 42.3004C242.1 34.3004 239.09 29.9004 230.17 29.9004C224.17 29.9004 219.63 31.7004 214.25 35.7304L208.45 26.8304C213.74 21.7204 222.72 18.6504 231.74 18.6504ZM241.59 57.6504L241.68 52.3404C238.417 51.3586 235.028 50.86 231.62 50.8604C222.91 50.8604 217.04 52.6604 216.94 58.1704C216.87 62.5104 220.86 65.1704 227.02 65.1704C229.884 65.235 232.718 64.5806 235.263 63.2668C237.809 61.9531 239.984 60.0221 241.59 57.6504ZM311.82 31.1504L312.01 19.9204H259.98L259.78 31.1504H279.75L279 75.0204H291.1L291.85 31.1504H311.82ZM341.13 18.6504C355.68 18.6504 363.61 26.9204 363.37 41.3304L362.79 75.0004H350.68L350.78 69.0004C347.43 72.6004 341.78 75.6804 333.57 75.6804C321.46 75.6804 313.62 68.9004 313.8 58.3004C314 46.0004 325.25 40.7904 339.9 40.7904C343.73 40.773 347.545 41.2742 351.24 42.2804C351.48 34.2804 348.48 29.8804 339.56 29.8804C333.5 29.8804 329.01 31.6804 323.64 35.7104L317.84 26.8104C323.13 21.7204 332.1 18.6504 341.13 18.6504ZM350.97 57.6504L351.06 52.3404C347.798 51.3569 344.408 50.8582 341 50.8604C332.29 50.8604 326.42 52.6604 326.33 58.1704C326.25 62.5104 330.25 65.1704 336.41 65.1704C339.278 65.2402 342.117 64.5882 344.666 63.2741C347.215 61.9601 349.394 60.0263 351 57.6504H350.97ZM430.78 73.4306L453.37 19.9206H440.4L425.16 57.0806L406.78 19.8906H392.78L419.08 71.7106L417.08 76.7106C414.21 83.4906 411.29 85.9306 408.21 85.9306C407.356 85.9496 406.514 85.7278 405.78 85.2906L400.78 95.5806C403.163 96.6932 405.772 97.2343 408.4 97.1606C417.31 97.1606 423 91.6606 430.78 73.4306ZM482.28 18.6504C493.64 18.6504 502.28 23.8404 505.74 31.1504L496.61 37.0804C492.98 32.0804 488.87 29.8804 482.61 29.8804C472.61 29.8804 465.39 36.9804 465.21 47.3604C465.04 57.3604 472.13 64.7404 483.29 64.7404C489.55 64.7404 494.17 61.5604 497.29 56.9004L505.8 62.4104C501.13 71.3104 491.49 76.0004 481.93 76.0004C464.2 76.0004 452.38 64.7704 452.68 47.3904C453 31.0504 464.86 18.6504 482.28 18.6504ZM562.02 75.0204L562.96 19.9204H512.84L511.9 75.0204H524L524.75 31.1504H550.67L549.92 75.0204H562.02ZM625.64 43.8704C625.536 46.46 625.279 49.0412 624.87 51.6004H583.87C584.67 60.2904 591.71 64.7404 600.87 64.7404C603.744 64.7381 606.579 64.0782 609.158 62.8111C611.737 61.544 613.992 59.7035 615.75 57.4304L623.06 64.7404C620.467 68.2891 617.06 71.1639 613.126 73.1232C609.192 75.0825 604.845 76.0692 600.45 76.0004C582.71 76.0004 571 64.7404 571.31 47.3604C571.59 31.2604 581.68 18.6504 600.15 18.6504C615 18.6504 625.9 28.6104 625.64 43.8704ZM584.17 41.1104H613.16C612.34 33.4804 607.16 29.5604 599.45 29.5604C591.27 29.5604 585.89 34.0204 584.17 41.1104ZM701.99 75.0204L702.93 19.9204H690.83L690.08 63.7904H674.15L674.9 19.9204H662.79L662.04 63.7904H646.11L646.86 19.9204H634.76L633.81 75.0204H701.99ZM764.95 19.9204L764.01 75.0204H751.91L752.29 52.6604H725.74L725.36 75.0204H713.25L714.2 19.9204H726.3L725.93 41.5404H752.48L752.85 19.9204H764.95ZM832.46 47.3604C832.74 30.7304 820.74 18.6504 803.32 18.6504C785.8 18.6504 773.64 30.8604 773.33 47.3904C773.02 63.9204 785.13 76.0004 802.33 76.0004C819.75 76.0004 832.18 63.9904 832.46 47.3604ZM819.92 47.3604C819.74 57.9604 812.61 64.7404 802.53 64.7404C792.44 64.7404 785.66 57.3604 785.83 47.3604C786 36.5604 793.56 29.8804 803.12 29.8804C812.68 29.8804 820.1 36.7604 819.92 47.3604ZM289.22 122.911L288.27 178.011H276.16L276.91 134.141H251.01L250.26 178.011H238.14L239.09 122.911H289.22ZM354.29 149.511C354.57 133.191 344.57 121.641 328 121.641C322.48 121.641 316.19 123.541 312.6 127.951L312.69 122.951H300.58L299.28 199.231H311.38L311.8 174.451C314.17 177.411 320.02 179.001 326.17 179.001C342.74 179.001 354 166.351 354.29 149.511ZM341.75 150.461C341.57 160.731 334.87 167.731 325 167.731V167.781C319.53 167.781 314.59 165.451 312 161.001L312.37 141.871C313.625 139.171 315.628 136.888 318.142 135.293C320.655 133.698 323.573 132.857 326.55 132.871C336.11 132.871 341.94 139.341 341.75 150.461ZM390.45 121.641C407.87 121.641 419.87 133.721 419.59 150.351C419.31 166.981 406.89 179.001 389.47 179.001C372.26 179.001 360.15 166.921 360.47 150.391C360.79 133.861 372.92 121.641 390.45 121.641ZM389.66 167.731C399.75 167.731 406.87 160.951 407.06 150.351C407.25 139.751 399.82 132.871 390.26 132.871C380.7 132.871 373.15 139.541 372.97 150.351C372.8 160.351 379.57 167.731 389.66 167.731ZM427.82 178.011H496L496.94 122.911H484.84L484.09 166.781H468.16L468.91 122.911H456.8L456.05 166.781H440.12L440.87 122.911H428.77L427.82 178.011ZM558.55 122.91L557.6 178H545.49L546.24 134.13H526.7L526.56 142.71C526.09 170.1 517.56 178.53 505.24 178.53C504.4 178.53 503.55 178.53 502.68 178.42L501.92 167.19H502.92C508.48 167.19 514.31 162.61 514.72 138.54L514.99 122.86L558.55 122.91ZM615.23 144.311C615.47 129.911 607.54 121.641 593 121.641C584 121.641 575 124.711 569.68 129.841L575.48 138.741C580.86 134.721 585.34 132.911 591.4 132.911C600.32 132.911 603.32 137.361 603.08 145.301C599.383 144.303 595.569 143.805 591.74 143.821C577.09 143.821 565.85 149.011 565.64 161.301C565.46 171.901 573.3 178.681 585.41 178.681C593.62 178.681 599.27 175.611 602.62 172.011L602.52 178.011H614.65L615.23 144.311ZM602.93 155.341L602.84 160.641V160.651C601.236 163.024 599.061 164.957 596.515 166.271C593.969 167.585 591.134 168.238 588.27 168.171C582.11 168.171 578.11 165.511 578.19 161.171C578.28 155.661 584.16 153.861 592.87 153.861C596.278 153.859 599.667 154.358 602.93 155.341Z" fill="url(#paint0_linear)"/>
</g>
<defs>
<linearGradient id="paint0_linear" x1="611.994" y1="-36.9995" x2="590.436" y2="178.681" gradientUnits="userSpaceOnUse">
<stop offset="0.239583" stop-color="#00B4AA"/>
<stop offset="0.911458" stop-color="#82DCCE"/>
</linearGradient>
<clipPath id="clip0">
<rect width="838.49" height="206.15" fill="white"/>
</clipPath>
</defs>
</svg>
