<svg width="246" height="88" viewBox="0 0 246 88" fill="none" xmlns="http://www.w3.org/2000/svg">
<g clip-path="url(#clip0)">
<path d="M40.8949 5.86035L43.9597 9.4007L43.9242 11.6846L40.8542 8.14937L40.8949 5.86035Z" fill="#005D72"/>
<path d="M54.2673 5.86035L57.3322 9.4007H43.9597L40.8949 5.86035H54.2673Z" fill="#004651"/>
<path d="M40.8543 8.13867L43.9038 11.6994C43.7107 22.941 42.4299 29.7368 40.0817 33.9944L37.0321 30.4337C39.36 26.1965 40.6611 19.4057 40.8543 8.13867Z" fill="#005D72"/>
<path d="M40.8542 8.13867L43.9038 11.6994C43.9038 12.7879 43.853 13.8307 43.8174 14.8379L40.7678 11.2772C40.8085 10.2598 40.8373 9.21536 40.8542 8.14376" fill="#005D72"/>
<path d="M40.7678 11.2822L43.8174 14.8429C43.7109 18.7687 43.2997 22.6803 42.5874 26.5423L39.5378 22.9816C40.2551 19.1204 40.6664 15.2084 40.7678 11.2822Z" fill="#005D72"/>
<path d="M39.5378 23.0022L42.5874 26.5629C42.2946 28.0606 41.8972 29.536 41.3981 30.9781L38.3485 27.4174C38.8474 25.9739 39.2432 24.4967 39.5328 22.9971" fill="#005D72"/>
<path d="M38.3536 27.4221L41.4031 30.9828C41.0996 31.8695 40.7362 32.7345 40.3155 33.5719L37.2659 30.0112C37.6892 29.1713 38.0576 28.3047 38.3688 27.417" fill="#005D72"/>
<path d="M37.2506 30.0117L40.3002 33.5724L40.0664 34.0099L37.0168 30.4492C37.0982 30.3067 37.1744 30.1592 37.2557 30.0117" fill="#005D72"/>
<path d="M32.4679 42.7031L35.5327 46.2435H29.4945L26.4297 42.7031H32.4679Z" fill="#004651"/>
<path d="M32.5797 36.3193L35.6445 39.8597L35.5327 46.2435L32.4679 42.7031L32.5797 36.3193Z" fill="#005D72"/>
<path d="M60.6156 0L63.6804 3.54035L63.1569 33.9944L60.092 30.4541L60.6156 0Z" fill="#005D72"/>
<path d="M58.3386 36.3193L61.4034 39.8597H35.6445L32.5797 36.3193H58.3386Z" fill="#004651"/>
<path d="M64.4834 30.4541L67.5483 33.9944L67.3399 46.2432L64.275 42.7029L64.4834 30.4541Z" fill="#005D72"/>
<path d="M64.2751 42.7031L67.3399 46.2435H61.2966L58.2318 42.7031H64.2751Z" fill="#004651"/>
<path d="M83.1011 15.7946L86.1507 19.3553C85.2561 18.338 83.8076 17.7835 81.6424 17.7835C78.6995 17.7835 76.514 18.6635 73.9015 20.6321L70.8519 17.0968C73.4695 15.0977 75.655 14.2432 78.5928 14.2432C80.7631 14.2432 82.2116 14.7518 83.1011 15.7946Z" fill="#004651"/>
<path d="M83.1011 15.7946L86.1507 19.3553C85.2561 18.338 83.8076 17.7835 81.6424 17.7835C78.6995 17.7835 76.514 18.6635 73.9015 20.6321L70.8519 17.0968C73.4695 15.0977 75.655 14.2432 78.5928 14.2432C80.7631 14.2432 82.2116 14.7874 83.1011 15.82" fill="#004651"/>
<path d="M87.7721 11.959L90.8217 15.5197C92.4481 17.3967 93.2766 20.057 93.2207 23.3786L90.1711 19.8179C90.2219 16.4963 89.3985 13.8411 87.7721 11.959Z" fill="#005D72"/>
<path d="M87.7721 11.959L90.8217 15.5197C91.0208 15.7486 91.2074 15.988 91.3808 16.2369L88.3312 12.7016C88.1608 12.4502 87.9758 12.209 87.7772 11.9793" fill="#005D72"/>
<path d="M88.3262 12.6816L91.3758 16.2423C92.1583 17.4079 92.6928 18.722 92.9463 20.1031L89.8967 16.5425C89.6487 15.1613 89.1137 13.8477 88.3262 12.6867" fill="#005D72"/>
<path d="M89.8966 16.5373L92.9462 20.098C93.1515 21.1791 93.2417 22.2788 93.2156 23.3789L90.166 19.8182C90.1922 18.7165 90.1019 17.615 89.8966 16.5322" fill="#005D72"/>
<path d="M75.9245 33.5723L72.8749 30.0116C72.4072 29.4741 72.1571 28.7811 72.1735 28.0685C72.2192 25.3675 75.0757 24.5078 79.2892 24.5078C80.9476 24.5084 82.5968 24.7535 84.1838 25.2352L87.2334 28.7959C85.6464 28.3142 83.9972 28.0691 82.3388 28.0685C78.1049 28.0685 75.2536 28.9485 75.2231 31.6292C75.2016 32.3426 75.4524 33.0374 75.9245 33.5723Z" fill="#004651"/>
<path d="M84.1889 25.2147L87.2385 28.7754C85.6515 28.2937 84.0023 28.0486 82.3439 28.048C79.4366 28.048 77.1799 28.4651 76.0414 29.574L72.9918 26.0133C74.1354 24.879 76.3921 24.4873 79.2943 24.4873C80.9527 24.4879 82.6019 24.733 84.1889 25.2147Z" fill="#004651"/>
<path d="M72.9918 26.0391L76.0413 29.5998C75.9254 29.7138 75.8199 29.8381 75.7262 29.9711L72.6766 26.4104C72.7706 26.2792 72.8761 26.1566 72.9918 26.0442" fill="#004651"/>
<path d="M72.6817 26.4053L75.7313 29.966C75.6546 30.0676 75.5882 30.1767 75.5331 30.2915L72.4835 26.7308C72.5436 26.6188 72.6098 26.5101 72.6817 26.4053Z" fill="#004651"/>
<path d="M72.4785 26.7305L75.528 30.2912C75.4707 30.3993 75.4214 30.5115 75.3806 30.6269L72.3311 27.0662C72.3701 26.9509 72.4177 26.8387 72.4734 26.7305" fill="#004651"/>
<path d="M72.3361 27.0664L75.3857 30.6271C75.3395 30.7563 75.3038 30.8889 75.279 31.0239L72.2294 27.4632C72.2542 27.3283 72.2899 27.1956 72.3361 27.0664Z" fill="#004651"/>
<path d="M72.2294 27.4678L75.279 31.0285C75.2454 31.196 75.2267 31.3663 75.223 31.5371L72.1735 27.9764C72.179 27.8054 72.1995 27.6352 72.2345 27.4678" fill="#004651"/>
<path d="M72.1735 27.9766L75.2231 31.5373V31.6136C75.2183 31.837 75.237 32.0604 75.279 32.2799L72.2294 28.7192C72.1857 28.5051 72.1669 28.2866 72.1735 28.0681C72.1699 28.0377 72.1699 28.007 72.1735 27.9766Z" fill="#004651"/>
<path d="M72.2244 28.7352L75.2739 32.2959C75.3551 32.6659 75.5107 33.0156 75.7314 33.3234L72.6818 29.7627C72.462 29.4486 72.3113 29.0915 72.2396 28.7148" fill="#004651"/>
<path d="M72.6818 29.7822L75.7314 33.3429C75.7901 33.4286 75.8546 33.5102 75.9245 33.5871L72.8749 30.0264C72.8066 29.9495 72.7438 29.8679 72.6868 29.7822" fill="#004651"/>
<path d="M70.9943 37.1327L67.9447 33.572C69.5966 35.5304 72.2954 36.6241 75.6805 36.6241C79.6602 36.6241 82.4201 35.0981 84.0516 33.3584L87.1012 36.9191C85.4849 38.6587 82.725 40.1848 78.7504 40.1848C75.3603 40.1848 72.6817 39.0708 70.9943 37.1327Z" fill="#004651"/>
<path d="M84.0516 33.3633L87.1012 36.924L86.8623 37.1732L83.8127 33.6125L84.0516 33.3633Z" fill="#004651"/>
<path d="M83.8127 33.613L86.8623 37.1737C85.2054 38.8268 82.5217 40.1901 78.7301 40.1901C75.3603 40.185 72.6817 39.071 70.9943 37.133L67.9447 33.5723C69.5966 35.5306 72.2954 36.6243 75.6805 36.6243C79.4721 36.6243 82.1507 35.2611 83.8127 33.6079" fill="#004651"/>
<path d="M89.8864 36.3193L92.9513 39.8597H87.0656L84.0007 36.3193H89.8864Z" fill="#004651"/>
<path d="M90.166 19.8232L93.2359 23.3585L92.9513 39.8598L89.8865 36.3194L90.166 19.8232Z" fill="#005D72"/>
<path d="M101.551 9.33887L104.621 12.8792L104.438 23.4646L101.368 19.9243L101.551 9.33887Z" fill="#005D72"/>
<path d="M101.277 25.3672L104.347 28.9075L104.159 39.8592L101.089 36.3189L101.277 25.3672Z" fill="#005D72"/>
<path d="M101.089 36.3193L104.159 39.8597H98.2677L95.2029 36.3193H101.089Z" fill="#004651"/>
<path d="M114.182 25.3672L117.246 28.9075H104.347L101.277 25.3672H114.182Z" fill="#004651"/>
<path d="M119.884 36.3193L122.949 39.8597H117.058L113.994 36.3193H119.884Z" fill="#004651"/>
<path d="M120.347 9.33887L123.412 12.8792L122.949 39.8591L119.884 36.3188L120.347 9.33887Z" fill="#005D72"/>
<path d="M131.752 9.33887L134.817 12.8792L134.634 23.4646L131.569 19.9243L131.752 9.33887Z" fill="#005D72"/>
<path d="M131.478 25.3672L134.543 28.9075L134.355 39.8592L131.29 36.3189L131.478 25.3672Z" fill="#005D72"/>
<path d="M131.29 36.3193L134.355 39.8597H128.469L125.404 36.3193H131.29Z" fill="#004651"/>
<path d="M144.383 25.3672L147.447 28.9075H134.543L131.478 25.3672H144.383Z" fill="#004651"/>
<path d="M150.085 36.3193L153.15 39.8597H147.265L144.195 36.3193H150.085Z" fill="#004651"/>
<path d="M150.548 9.33887L153.613 12.8792L153.15 39.8591L150.085 36.3188L150.548 9.33887Z" fill="#005D72"/>
<path d="M161.953 9.33887L165.018 12.8792L164.886 20.7127L161.816 17.1724L161.953 9.33887Z" fill="#005D72"/>
<path d="M165.908 22.6709L168.978 26.2112H164.789L161.725 22.6709H165.908Z" fill="#004651"/>
<path d="M161.725 22.6709L164.789 26.2112L164.652 34.3601L161.582 30.8198L161.725 22.6709Z" fill="#005D72"/>
<path d="M170.777 24.146L173.826 27.7067C172.988 26.7352 171.427 26.2316 168.957 26.2316L165.908 22.6709C168.383 22.6709 169.938 23.1745 170.777 24.146Z" fill="#004651"/>
<path d="M170.777 24.146L173.826 27.7067C172.988 26.7352 171.427 26.2316 168.957 26.2316L165.908 22.6709C168.383 22.6709 169.938 23.1796 170.782 24.146" fill="#004651"/>
<path d="M165.725 36.3193L168.795 39.8597H158.675L155.605 36.3193H165.725Z" fill="#004651"/>
<path d="M175.687 20.3779L178.736 23.9386C180.21 25.6376 180.769 27.8605 180.713 30.2309C180.632 35.2108 177.506 39.8956 168.779 39.8956L165.73 36.3349C174.457 36.3349 177.582 31.6653 177.669 26.6702C177.704 24.2998 177.161 22.0769 175.687 20.3779Z" fill="#004651"/>
<path d="M175.687 20.3779L178.736 23.9386C178.909 24.1363 179.07 24.3435 179.219 24.5592L176.169 20.9985C176.017 20.7849 175.859 20.5763 175.687 20.3779Z" fill="#004651"/>
<path d="M176.169 20.998L179.219 24.5587C179.861 25.5038 180.299 26.5728 180.505 27.6972L177.455 24.1365C177.248 23.0128 176.81 21.9443 176.169 20.998Z" fill="#004651"/>
<path d="M177.455 24.1367L180.505 27.6974C180.666 28.5352 180.735 29.3879 180.713 30.2408C180.713 30.3222 180.713 30.4086 180.713 30.49L177.664 26.9293C177.664 26.8479 177.664 26.7665 177.664 26.6801C177.683 25.8273 177.613 24.9749 177.455 24.1367Z" fill="#004651"/>
<path d="M177.659 26.9189L180.708 30.4796C180.687 31.0724 180.619 31.6626 180.505 32.2447L177.455 28.684C177.571 28.1021 177.641 27.5119 177.664 26.9189" fill="#004651"/>
<path d="M177.45 28.6846L180.5 32.2453C180.408 32.6918 180.288 33.1319 180.139 33.5627L177.089 30.0275C177.242 29.5961 177.363 29.1541 177.45 28.7049" fill="#004651"/>
<path d="M177.089 30.0125L180.139 33.5478C180.003 33.9313 179.842 34.3051 179.656 34.6669L176.607 31.1062C176.793 30.7471 176.953 30.3747 177.084 29.9922" fill="#004651"/>
<path d="M176.612 31.1211L179.661 34.6818C179.479 35.0362 179.27 35.3763 179.036 35.6991L175.986 32.1384C176.218 31.8144 176.427 31.4744 176.612 31.1211Z" fill="#004651"/>
<path d="M175.986 32.1484L179.036 35.7091C178.764 36.0939 178.46 36.4547 178.126 36.7875L175.077 33.2268C175.413 32.8952 175.719 32.5343 175.992 32.1484" fill="#004651"/>
<path d="M175.072 33.2275L178.121 36.7882C176.246 38.6551 173.242 39.881 168.774 39.881L165.725 36.3203C170.197 36.3203 173.196 35.0944 175.072 33.2275Z" fill="#004651"/>
<path d="M186.528 9.33887L189.593 12.8792L189.135 39.8591L186.065 36.3188L186.528 9.33887Z" fill="#005D72"/>
<path d="M186.065 36.3193L189.135 39.8597H183.25L180.18 36.3193H186.065Z" fill="#004651"/>
<path d="M209.405 16.0943L212.454 19.6549C211.285 18.307 209.486 17.6203 207.235 17.6203C203.26 17.6203 200.627 19.7923 199.804 23.2716L196.754 19.7109C197.588 16.2316 200.205 14.0596 204.185 14.0596C206.462 14.0647 208.256 14.7514 209.405 16.0943Z" fill="#004651"/>
<path d="M209.405 16.0943L212.454 19.6549C211.285 18.307 209.486 17.6203 207.235 17.6203C204.983 17.6203 203.062 18.3578 201.75 19.6549L198.701 16.0943C200.012 14.7921 201.867 14.0596 204.185 14.0596C206.503 14.0596 208.251 14.7412 209.4 16.0943" fill="#004651"/>
<path d="M198.731 16.1045L201.781 19.6652C201.514 19.9334 201.269 20.2225 201.049 20.5299L197.999 16.9692C198.22 16.6619 198.465 16.3727 198.731 16.1045Z" fill="#004651"/>
<path d="M197.994 16.9697L201.044 20.5304C200.855 20.8103 200.685 21.1026 200.536 21.4053L197.486 17.8446C197.636 17.5419 197.805 17.2496 197.994 16.9697Z" fill="#004651"/>
<path d="M197.466 17.8438L200.515 21.4044C200.349 21.7332 200.207 22.0731 200.088 22.4218L197.039 18.8611C197.156 18.5121 197.299 18.1721 197.466 17.8438Z" fill="#004651"/>
<path d="M197.039 18.8203L200.088 22.381C199.992 22.6659 199.905 22.9558 199.829 23.261L196.78 19.7003C196.849 19.4039 196.936 19.1118 197.039 18.8254" fill="#004651"/>
<path d="M201.273 32.2393L198.223 28.6786C197.307 27.596 196.76 26.2486 196.663 24.833L199.712 28.3937C199.813 29.8085 200.359 31.1549 201.273 32.2393Z" fill="#005D72"/>
<path d="M196.642 24.8535L199.692 28.4142C199.716 28.6911 199.757 28.9662 199.814 29.2383L196.764 25.6776C196.712 25.405 196.672 25.13 196.647 24.8535" fill="#005D72"/>
<path d="M196.759 25.6777L199.809 29.2384C199.97 30.1359 200.316 30.99 200.825 31.7462L197.776 28.1855C197.255 27.4322 196.898 26.5778 196.729 25.6777" fill="#005D72"/>
<path d="M197.806 28.1855L200.856 31.7462C200.983 31.9243 201.115 32.0972 201.257 32.2549L198.208 28.6942C198.066 28.5325 197.934 28.3627 197.811 28.1855" fill="#005D72"/>
<path d="M214.137 12.752L217.186 16.3126C219.128 18.634 220.13 21.5999 219.992 24.6243L216.942 21.0891C217.08 18.0569 216.08 15.0828 214.137 12.752Z" fill="#005D72"/>
<path d="M214.137 12.752L217.186 16.3126C217.441 16.6059 217.678 16.9133 217.898 17.2333L214.848 13.6726C214.625 13.3522 214.386 13.047 214.137 12.752Z" fill="#005D72"/>
<path d="M214.848 13.6729L217.898 17.2335C218.813 18.5603 219.44 20.0644 219.738 21.6488L216.688 18.0881C216.385 16.5052 215.759 15.0021 214.848 13.6729Z" fill="#005D72"/>
<path d="M216.688 18.0879L219.738 21.6486C219.93 22.6283 220.016 23.6261 219.992 24.6243L216.942 21.089C216.964 20.0892 216.879 19.09 216.688 18.1082" fill="#005D72"/>
<path d="M216.571 24.8535L219.636 28.3939H199.707L196.642 24.8535H216.571Z" fill="#004651"/>
<path d="M216.942 21.0693L219.992 24.6046C219.943 25.874 219.819 27.1394 219.621 28.3942L216.571 24.8335C216.768 23.5871 216.892 22.3302 216.942 21.0693Z" fill="#005D72"/>
<path d="M216.943 21.0692L219.992 24.6044C219.992 24.7011 219.992 24.7977 219.992 24.8995L216.943 21.3388C216.943 21.237 216.943 21.1404 216.943 21.0488" fill="#005D72"/>
<path d="M216.932 21.3643L219.982 24.925C219.919 26.0953 219.797 27.2616 219.616 28.4195L216.566 24.8588C216.746 23.7009 216.867 22.5345 216.927 21.3643" fill="#005D72"/>
<path d="M196.744 35.8205L193.694 32.2598C196.18 35.1288 200.007 36.7667 204.714 36.7667C206.847 36.8002 208.958 36.3195 210.867 35.3651C212.776 34.4108 214.427 33.0107 215.682 31.2832L218.732 34.8439C217.476 36.5768 215.822 37.9813 213.909 38.9385C211.996 39.8956 209.881 40.3773 207.743 40.3426C203.062 40.3223 199.24 38.6894 196.744 35.8205Z" fill="#004651"/>
<path d="M215.682 31.2832L218.732 34.8439C218.3 35.4119 217.832 35.9506 217.329 36.4564L214.279 32.8957C214.78 32.3898 215.247 31.8511 215.677 31.2832" fill="#004651"/>
<path d="M214.284 32.8958L217.334 36.4565C216.08 37.7177 214.585 38.7121 212.938 39.38C211.29 40.0478 209.525 40.3753 207.748 40.3427C203.047 40.3427 199.214 38.7099 196.729 35.841L193.679 32.2803C196.165 35.1492 199.992 36.7871 204.698 36.7871C206.476 36.8187 208.241 36.4903 209.889 35.8216C211.536 35.1529 213.031 34.1576 214.284 32.8958Z" fill="#004651"/>
<path d="M18.8516 62.5811L21.9164 66.1214H9.31654L6.25171 62.5811H18.8516Z" fill="#004651"/>
<path d="M6.25165 62.5811L9.31649 66.1214L8.95054 87.6026L5.88062 84.0622L6.25165 62.5811Z" fill="#005D72"/>
<path d="M5.88062 84.0625L8.95055 87.6029H3.06483L0 84.0625H5.88062Z" fill="#004651"/>
<path d="M24.3662 84.0625L27.4361 87.6029H21.5504L18.4805 84.0625H24.3662Z" fill="#004651"/>
<path d="M24.8287 57.083L27.8936 60.6234L27.4361 87.6032L24.3662 84.0629L24.8287 57.083Z" fill="#005D72"/>
<path d="M49.5812 64.6415L52.6308 68.2022C51.8567 67.3305 50.9027 66.6376 49.8347 66.1712C48.7667 65.7048 47.6102 65.4762 46.4452 65.5011C41.7438 65.5011 38.13 68.7668 38.0385 74.057C37.9499 76.1911 38.6584 78.2819 40.0259 79.9219L36.9763 76.3612C35.6131 74.7211 34.9067 72.6329 34.994 70.5013C35.0703 65.2315 38.684 61.9862 43.3957 61.9862C44.5571 61.9556 45.7114 62.177 46.7792 62.6354C47.847 63.0938 48.8029 63.7781 49.5812 64.6415Z" fill="#004651"/>
<path d="M49.5813 64.6413L52.6309 68.202C51.8568 67.3304 50.9027 66.6374 49.8347 66.171C48.7668 65.7047 47.6103 65.476 46.4453 65.501C45.3461 65.4746 44.2527 65.667 43.2284 66.067C42.2041 66.4669 41.2693 67.0664 40.4783 67.8307L37.4287 64.27C38.2234 63.5139 39.1599 62.9228 40.184 62.5308C41.2082 62.1388 42.2997 61.9537 43.3957 61.986C44.5617 61.9564 45.7201 62.1807 46.7908 62.6436C47.8615 63.1065 48.8189 63.7968 49.5966 64.6667" fill="#004651"/>
<path d="M37.4185 64.29L40.4681 67.8507C40.1616 68.1577 39.8811 68.4894 39.6294 68.8426L36.5798 65.2819C36.8316 64.9287 37.1121 64.597 37.4185 64.29Z" fill="#004651"/>
<path d="M36.5798 65.2822L39.6294 68.8429C39.4075 69.1535 39.2088 69.4799 39.0347 69.8196L35.9851 66.2589C36.1592 65.9192 36.358 65.5928 36.5798 65.2822Z" fill="#004651"/>
<path d="M35.9852 66.2588L39.0347 69.8195C38.8579 70.1646 38.7051 70.5215 38.5773 70.8877L35.5277 67.327C35.6573 66.9616 35.8101 66.6048 35.9852 66.2588Z" fill="#004651"/>
<path d="M35.5277 67.3271L38.5773 70.8878C38.4317 71.2994 38.3162 71.721 38.2317 72.1493L35.1821 68.5887C35.2666 68.1603 35.3821 67.7387 35.5277 67.3271Z" fill="#004651"/>
<path d="M35.1821 68.5986L38.2317 72.1593C38.1223 72.7163 38.0561 73.2809 38.0335 73.8481L34.9839 70.2874C35.0043 69.7201 35.0706 69.1553 35.1821 68.5986Z" fill="#004651"/>
<path d="M34.9839 70.2773L38.0335 73.838C38.0335 73.9194 38.0335 74.0008 38.0335 74.0771C38.0217 74.7698 38.0813 75.4619 38.2114 76.1423L35.1618 72.5816C35.0287 71.9119 34.9691 71.2296 34.9839 70.5469C34.9839 70.4656 34.9839 70.3842 34.9839 70.3028" fill="#004651"/>
<path d="M35.1567 72.5819L38.2063 76.1426C38.4247 77.2699 38.8766 78.339 39.5329 79.2811L36.4833 75.7204C35.8298 74.771 35.3831 73.6948 35.172 72.5615" fill="#004651"/>
<path d="M36.468 75.7207L39.5176 79.2814C39.6756 79.5039 39.8452 79.7178 40.0259 79.9223L36.9763 76.3616C36.7955 76.1572 36.6259 75.9433 36.468 75.7207Z" fill="#004651"/>
<path d="M54.4098 61.1016L57.4594 64.6623C59.6721 67.2877 60.825 70.6457 60.692 74.0778C60.5547 82.1758 54.5165 88.0865 46.0488 88.0865C41.4999 88.0865 37.6828 86.3367 35.1669 83.4373L32.1173 79.8766C34.6281 82.776 38.4452 84.5309 42.9942 84.5309C51.4619 84.5309 57.5051 78.6151 57.6424 70.5221C57.7762 67.0884 56.6233 63.7285 54.4098 61.1016Z" fill="#004651"/>
<path d="M54.4098 61.1016L57.4594 64.6623C57.7521 64.9985 58.0269 65.35 58.2828 65.7152L55.2332 62.1799C54.9791 61.8132 54.706 61.46 54.4149 61.1219" fill="#004651"/>
<path d="M55.2281 62.1592L58.2777 65.7199C59.3302 67.2505 60.0552 68.9823 60.4073 70.8066L57.3577 67.2459C57.0118 65.4197 56.2862 63.6867 55.2281 62.1592Z" fill="#004651"/>
<path d="M57.3577 67.2412L60.4073 70.8019C60.6154 71.881 60.7091 72.979 60.6869 74.0777C60.6869 74.1947 60.6869 74.3067 60.6869 74.4236L57.6373 70.8629C57.6373 70.751 57.6373 70.634 57.6373 70.5221C57.6604 69.4214 57.565 68.3215 57.3527 67.2412" fill="#004651"/>
<path d="M57.6271 70.8633L60.6767 74.424C60.6442 75.2562 60.5456 76.0846 60.3819 76.9012L57.3323 73.3405C57.4968 72.5242 57.5937 71.6956 57.622 70.8633" fill="#004651"/>
<path d="M57.3425 73.3398L60.3921 76.9005C60.2611 77.5691 60.081 78.2271 59.8533 78.8691L56.8037 75.3084C57.0297 74.6658 57.2098 74.008 57.3425 73.3398Z" fill="#004651"/>
<path d="M56.8037 75.3084L59.8533 78.8691C59.659 79.456 59.4247 80.0287 59.1519 80.5834L56.1023 77.0227C56.3894 76.4616 56.639 75.8822 56.8494 75.2881" fill="#004651"/>
<path d="M56.0566 77.043L59.1062 80.6037C58.8051 81.1755 58.4654 81.7261 58.0896 82.2518L55.04 78.6911C55.4177 78.1667 55.7574 77.6159 56.0566 77.043Z" fill="#004651"/>
<path d="M55.0553 78.6914L58.1049 82.2521C57.6694 82.8634 57.1831 83.4368 56.6513 83.9663L53.6017 80.4056C54.1321 79.8748 54.6182 79.3015 55.0553 78.6914Z" fill="#004651"/>
<path d="M53.6017 80.406L56.6512 83.9667C54.0591 86.5507 50.3691 88.0869 46.0488 88.0869C41.4999 88.0869 37.6828 86.3371 35.1669 83.4376L32.1173 79.877C34.6281 82.7764 38.4452 84.5313 42.9942 84.5313C47.3195 84.5313 51.0044 83.0053 53.6017 80.406Z" fill="#004651"/>
<path d="M93.5155 64.6412L96.5651 68.2019C95.788 67.3326 94.8315 66.6427 93.7617 66.1798C92.6919 65.717 91.5344 65.4922 90.3693 65.5212C85.673 65.5212 82.0491 68.7868 81.9627 74.077C81.8714 76.2092 82.5783 78.2987 83.9449 79.9369L80.8953 76.3762C79.5276 74.7403 78.819 72.6526 78.908 70.5214C78.9995 65.2312 82.6183 61.9605 87.3198 61.9605C88.4849 61.9316 89.6423 62.1563 90.7121 62.6191C91.7819 63.082 92.7384 63.7719 93.5155 64.6412Z" fill="#004651"/>
<path d="M93.5155 64.6415L96.5651 68.2022C95.788 67.3329 94.8315 66.643 93.7617 66.1801C92.692 65.7173 91.5345 65.4925 90.3694 65.5215C89.2702 65.4952 88.1767 65.6876 87.1524 66.0875C86.1281 66.4874 85.1934 67.0869 84.4024 67.8512L81.3528 64.2905C82.1465 63.5317 83.0823 62.9375 84.1064 62.542C85.1304 62.1466 86.2225 61.9577 87.3198 61.9862C88.4849 61.9573 89.6424 62.182 90.7121 62.6449C91.7819 63.1077 92.7384 63.7976 93.5155 64.6669" fill="#004651"/>
<path d="M81.3478 64.291L84.3974 67.8517C84.0895 68.1573 83.8089 68.4892 83.5587 68.8436L80.5092 65.2829C80.7609 64.9297 81.0414 64.5979 81.3478 64.291Z" fill="#004651"/>
<path d="M80.499 65.2822L83.5485 68.8429C83.3278 69.156 83.1291 69.484 82.9539 69.8247L79.9043 66.264C80.0795 65.9233 80.2782 65.5953 80.499 65.2822Z" fill="#004651"/>
<path d="M79.9144 66.2637L82.964 69.8244C82.7839 70.1662 82.6309 70.5216 82.5066 70.8875L79.457 67.3268C79.5857 66.9626 79.7385 66.6075 79.9144 66.2637Z" fill="#004651"/>
<path d="M79.4825 67.3271L82.532 70.8878C82.3858 71.3009 82.2703 71.7243 82.1864 72.1544L79.1368 68.5937C79.2207 68.1636 79.3362 67.7402 79.4825 67.3271Z" fill="#004651"/>
<path d="M79.1114 68.5986L82.161 72.1593C82.0467 72.7138 81.9804 73.2771 81.9628 73.843L78.9132 70.2823C78.9317 69.7168 78.9963 69.1537 79.1064 68.5986" fill="#004651"/>
<path d="M78.9182 70.2773L81.9678 73.838C81.9678 73.9194 81.9678 74.0008 81.9678 74.0771C81.9519 74.7697 82.0098 75.462 82.1406 76.1423L79.091 72.5816C78.9629 71.9112 78.9033 71.2295 78.9132 70.5469C78.9132 70.4656 78.9132 70.3842 78.9132 70.3028" fill="#004651"/>
<path d="M79.0859 72.5819L82.1355 76.1426C82.3579 77.2696 82.8114 78.3382 83.4672 79.2811L80.4176 75.7204C79.7663 74.7699 79.3197 73.6941 79.1063 72.5615" fill="#004651"/>
<path d="M80.3973 75.7207L83.4469 79.2814C83.6031 79.5036 83.7729 79.7159 83.9552 79.9172L80.9056 76.3565C80.7238 76.1548 80.554 75.9425 80.3973 75.7207Z" fill="#004651"/>
<path d="M98.339 61.1016L101.389 64.6623C103.6 67.2882 104.753 70.6458 104.621 74.0778C104.484 82.1758 98.4458 88.0865 89.9781 88.0865C85.4037 88.0865 81.612 86.3367 79.1012 83.4373L76.0516 79.8766C78.5625 82.776 82.3846 84.5309 86.9336 84.5309C95.4012 84.5309 101.434 78.6151 101.577 70.5221C101.707 67.088 100.553 63.7288 98.339 61.1016Z" fill="#004651"/>
<path d="M98.339 61.1016L101.389 64.6623C101.68 64.9986 101.953 65.3501 102.207 65.7152L99.1574 62.1545C98.9015 61.7893 98.6267 61.4379 98.334 61.1016" fill="#004651"/>
<path d="M99.1624 62.1543L102.212 65.715C103.269 67.2429 103.995 68.9758 104.342 70.8017L101.292 67.241C100.94 65.4167 100.215 63.6849 99.1624 62.1543Z" fill="#004651"/>
<path d="M101.292 67.2412L104.342 70.8019C104.554 71.8804 104.649 72.9787 104.626 74.0777C104.626 74.1947 104.626 74.3067 104.626 74.4236L101.577 70.8629C101.577 70.751 101.577 70.634 101.577 70.5221C101.595 69.4216 101.5 68.3221 101.292 67.2412Z" fill="#004651"/>
<path d="M101.567 70.8633L104.616 74.424C104.586 75.2561 104.489 76.0845 104.326 76.9012L101.277 73.3405C101.441 72.5239 101.539 71.6956 101.572 70.8633" fill="#004651"/>
<path d="M101.272 73.3398L104.321 76.9005C104.186 77.5696 104.006 78.229 103.782 78.8742L100.733 75.3135C100.961 74.6697 101.141 74.0101 101.272 73.3398Z" fill="#004651"/>
<path d="M100.733 75.3135L103.783 78.8742C103.572 79.4666 103.323 80.0444 103.035 80.6036L99.9858 77.043C100.277 76.4857 100.527 75.9076 100.733 75.3135Z" fill="#004651"/>
<path d="M99.9859 77.043L103.035 80.6037C102.738 81.1772 102.398 81.7281 102.019 82.2518L98.9694 78.6911C99.3493 78.1682 99.6891 77.6172 99.9859 77.043Z" fill="#004651"/>
<path d="M98.9845 78.6914L102.034 82.2521C101.598 82.8632 101.112 83.4366 100.58 83.9663L97.5309 80.4056C98.0653 79.8785 98.5518 79.3049 98.9845 78.6914Z" fill="#004651"/>
<path d="M97.5309 80.406L100.58 83.9667C97.9832 86.5507 94.2983 88.0869 89.9781 88.0869C85.4037 88.0869 81.612 86.3371 79.1012 83.4376L76.0516 79.877C78.5625 82.7764 82.3846 84.5313 86.9336 84.5313C91.2538 84.5313 94.9387 83.0053 97.5309 80.406Z" fill="#004651"/>
<path d="M124.423 62.5811L127.493 66.1214H114.898L111.828 62.5811H124.423Z" fill="#004651"/>
<path d="M111.828 62.5811L114.898 66.1214L114.532 87.6026L111.462 84.0622L111.828 62.5811Z" fill="#005D72"/>
<path d="M111.462 84.0625L114.532 87.6029H108.647L105.577 84.0625H111.462Z" fill="#004651"/>
<path d="M129.948 84.0625L133.013 87.6029H127.127L124.057 84.0625H129.948Z" fill="#004651"/>
<path d="M130.411 57.083L133.475 60.6234L133.013 87.6032L129.948 84.0629L130.411 57.083Z" fill="#005D72"/>
<path d="M144.927 62.5811L147.991 66.1214L147.92 70.323L144.855 66.7827L144.927 62.5811Z" fill="#004651"/>
<path d="M154.421 62.5811L157.491 66.1214H147.991L144.927 62.5811H154.421Z" fill="#004651"/>
<path d="M144.85 66.7832L147.9 70.3439C147.671 83.7576 143.519 87.8829 137.531 87.8829C137.125 87.8829 136.713 87.8829 136.291 87.832L133.242 84.2713C133.663 84.3069 134.08 84.3273 134.487 84.3273C140.474 84.3273 144.622 80.1969 144.85 66.7832Z" fill="#005D72"/>
<path d="M144.85 66.7832L147.9 70.3439C147.9 70.7966 147.9 71.2392 147.864 71.6715L144.815 68.1108C144.815 67.6785 144.845 67.2359 144.85 66.7832Z" fill="#005D72"/>
<path d="M144.815 68.0908L147.864 71.6515C147.799 73.8047 147.565 75.9495 147.163 78.0658L144.113 74.5052C144.517 72.3891 144.752 70.2442 144.815 68.0908Z" fill="#005D72"/>
<path d="M144.118 74.5254L147.168 78.0861C146.97 79.1216 146.698 80.1415 146.355 81.1381L143.305 77.5774C143.646 76.5801 143.918 75.5603 144.118 74.5254Z" fill="#005D72"/>
<path d="M143.305 77.5575L146.355 81.1182C146.131 81.7527 145.864 82.3713 145.557 82.9697L142.507 79.409C142.813 78.803 143.08 78.1777 143.305 77.5371" fill="#005D72"/>
<path d="M142.507 79.4287L145.557 82.9894C145.316 83.4683 145.041 83.929 144.733 84.3679L141.684 80.8072C141.989 80.3667 142.264 79.9062 142.507 79.4287Z" fill="#005D72"/>
<path d="M141.668 80.8076L144.718 84.3683C144.425 84.7839 144.097 85.1736 143.737 85.5332L140.688 81.9725C141.046 81.6116 141.374 81.222 141.668 80.8076Z" fill="#005D72"/>
<path d="M140.688 81.9824L143.737 85.5431C142.06 87.2166 139.945 87.883 137.536 87.883C137.13 87.883 136.718 87.883 136.296 87.8321L133.247 84.2714C133.668 84.307 134.085 84.3274 134.492 84.3274C136.901 84.3274 139.015 83.6559 140.693 81.9824" fill="#005D72"/>
<path d="M159.941 84.0625L163.005 87.6029H157.12L154.055 84.0625H159.941Z" fill="#004651"/>
<path d="M160.403 57.083L163.468 60.6234L163.006 87.6032L159.941 84.0629L160.403 57.083Z" fill="#005D72"/>
<path d="M180.881 63.5124L183.931 67.0731C183.041 66.0557 181.593 65.5013 179.427 65.5013C176.48 65.5013 174.299 66.3813 171.682 68.3498L168.632 64.8146C171.25 62.8409 173.43 61.9609 176.378 61.9609C178.543 61.9864 179.992 62.495 180.881 63.5124Z" fill="#004651"/>
<path d="M180.881 63.5124L183.931 67.0731C183.041 66.0557 181.593 65.5013 179.427 65.5013C176.48 65.5013 174.299 66.3813 171.682 68.3498L168.632 64.8146C171.25 62.8409 173.43 61.9609 176.378 61.9609C178.543 61.9609 179.992 62.5052 180.881 63.5327" fill="#004651"/>
<path d="M185.547 59.7021L188.597 63.2628C190.223 65.1398 191.046 67.8002 190.991 71.1218L187.941 67.5611C188.002 64.2395 187.179 61.5842 185.547 59.7021Z" fill="#005D72"/>
<path d="M185.547 59.7021L188.597 63.2628C188.794 63.4918 188.979 63.7312 189.151 63.9801L186.101 60.4448C185.929 60.1933 185.742 59.9521 185.542 59.7225" fill="#005D72"/>
<path d="M186.106 60.4248L189.156 63.9855C189.942 65.1488 190.477 66.4639 190.726 67.8463L187.677 64.2856C187.426 62.9052 186.891 61.592 186.106 60.4299" fill="#005D72"/>
<path d="M187.677 64.2805L190.726 67.8412C190.931 68.9222 191.022 70.022 190.996 71.1221L187.946 67.5614C187.972 66.4596 187.882 65.3582 187.677 64.2754" fill="#005D72"/>
<path d="M173.699 81.3165L170.65 77.7558C170.18 77.22 169.931 76.5253 169.953 75.8126C169.999 73.1116 172.856 72.252 177.069 72.252C178.726 72.2525 180.373 72.4976 181.959 72.9794L185.008 76.54C183.423 76.0583 181.775 75.8131 180.119 75.8126C175.885 75.8126 173.028 76.6926 173.003 79.3733C172.985 80.0852 173.234 80.7782 173.699 81.3165Z" fill="#004651"/>
<path d="M181.969 72.9588L185.018 76.5195C183.433 76.0377 181.786 75.7926 180.129 75.7921C177.222 75.7921 174.965 76.2092 173.821 77.3181L170.772 73.7575C171.915 72.6231 174.172 72.2314 177.079 72.2314C178.736 72.2319 180.384 72.477 181.969 72.9588Z" fill="#004651"/>
<path d="M170.772 73.7832L173.821 77.3439C173.704 77.455 173.599 77.5777 173.506 77.7101L170.457 74.1494C170.55 74.0181 170.656 73.8955 170.772 73.7832Z" fill="#004651"/>
<path d="M170.462 74.1494L173.511 77.7101C173.439 77.8149 173.373 77.9236 173.313 78.0357L170.263 74.475C170.321 74.3614 170.387 74.2525 170.462 74.1494Z" fill="#004651"/>
<path d="M170.258 74.4748L173.308 78.0355C173.252 78.1437 173.205 78.256 173.166 78.3712L170.116 74.8105C170.156 74.6931 170.205 74.5792 170.263 74.4697" fill="#004651"/>
<path d="M170.111 74.8154L173.161 78.3761C173.114 78.5053 173.079 78.638 173.054 78.7729L170.004 75.2122C170.028 75.0788 170.064 74.9477 170.111 74.8205" fill="#004651"/>
<path d="M170.004 75.2119L173.054 78.7726C173.019 78.9401 172.998 79.1103 172.993 79.2813L169.943 75.7206C169.953 75.55 169.974 75.3801 170.004 75.2119Z" fill="#004651"/>
<path d="M169.953 75.7207L173.003 79.2814C173 79.3068 173 79.3323 173.003 79.3577C172.997 79.5814 173.018 79.8051 173.064 80.024L170.014 76.4634C169.972 76.2439 169.953 76.0205 169.958 75.797V75.7207" fill="#004651"/>
<path d="M169.999 76.4785L173.049 80.0392C173.12 80.4159 173.271 80.773 173.491 81.0871L170.441 77.5264C170.224 77.2112 170.073 76.8545 169.999 76.4785Z" fill="#004651"/>
<path d="M170.462 77.5264L173.511 81.0871C173.568 81.1727 173.631 81.2543 173.699 81.3312L170.65 77.7705C170.58 77.6937 170.515 77.6121 170.457 77.5264" fill="#004651"/>
<path d="M168.774 84.8771L165.725 81.3164C167.392 83.2392 170.096 84.3379 173.481 84.3379C177.455 84.3379 180.22 82.8119 181.847 81.0723L184.896 84.633C183.265 86.4031 180.505 87.9292 176.525 87.9292C173.14 87.9292 170.462 86.8152 168.774 84.8771Z" fill="#004651"/>
<path d="M181.827 81.1074L184.876 84.6681L184.627 84.9224L181.578 81.3618C181.664 81.2753 181.745 81.1939 181.821 81.1074" fill="#004651"/>
<path d="M181.583 81.3617L184.632 84.9224C182.98 86.5705 180.297 87.9338 176.5 87.9338C173.115 87.9338 170.401 86.835 168.749 84.9123L165.699 81.3516C167.366 83.2743 170.07 84.3731 173.455 84.3731C177.237 84.3731 179.921 83.0149 181.588 81.3617" fill="#004651"/>
<path d="M187.661 84.0625L190.731 87.6029H184.846L181.776 84.0625H187.661Z" fill="#004651"/>
<path d="M187.946 67.5664L191.011 71.1017L190.731 87.6029L187.661 84.0626L187.946 67.5664Z" fill="#005D72"/>
<path d="M200.475 62.5811L203.545 66.1214H193.837L190.767 62.5811H200.475Z" fill="#004651"/>
<path d="M216.068 62.5811L219.133 66.1214H209.425L206.36 62.5811H216.068Z" fill="#004651"/>
<path d="M216.16 57.083L219.23 60.6234L219.133 66.1221L216.068 62.5817L216.16 57.083Z" fill="#2D655C"/>
<path d="M205.99 84.0625L209.059 87.6029H203.174L200.109 84.0625H205.99Z" fill="#004651"/>
<path d="M206.36 62.5811L209.425 66.1214L209.059 87.6026L205.989 84.0622L206.36 62.5811Z" fill="#005D72"/>
<path d="M235.52 63.8384L238.569 67.3991C237.4 66.0511 235.606 65.3644 233.354 65.3644C229.375 65.3644 226.747 67.5364 225.924 71.0157L222.874 67.455C223.708 63.9757 226.325 61.8037 230.305 61.8037C232.526 61.8088 234.325 62.4955 235.52 63.8384Z" fill="#004651"/>
<path d="M235.52 63.8384L238.569 67.3991C237.4 66.0511 235.606 65.3644 233.355 65.3644C231.103 65.3644 229.182 66.102 227.87 67.3991L224.821 63.8384C226.132 62.5362 227.987 61.8037 230.305 61.8037C232.623 61.8037 234.371 62.4853 235.52 63.8384Z" fill="#004651"/>
<path d="M224.795 63.8486L227.845 67.4093C227.578 67.6775 227.334 67.9667 227.113 68.2741L224.063 64.7134C224.281 64.4036 224.526 64.1142 224.795 63.8486Z" fill="#004651"/>
<path d="M224.063 64.7139L227.113 68.2746C226.924 68.5545 226.754 68.8468 226.605 69.1495L223.555 65.5888C223.713 65.2854 223.891 64.9931 224.089 64.7139" fill="#004651"/>
<path d="M223.53 65.5879L226.579 69.1486C226.413 69.4773 226.271 69.8172 226.152 70.1659L223.103 66.6052C223.221 66.2572 223.362 65.9174 223.525 65.5879" fill="#004651"/>
<path d="M223.108 66.5645L226.157 70.1251C226.061 70.41 225.974 70.6999 225.898 71.0051L222.849 67.4445C222.918 67.1481 223.005 66.856 223.108 66.5695" fill="#004651"/>
<path d="M227.342 79.9834L224.292 76.4227C223.375 75.3402 222.829 73.9927 222.732 72.5771L225.781 76.1378C225.879 77.5532 226.426 78.9003 227.342 79.9834Z" fill="#005D72"/>
<path d="M222.711 72.5977L225.761 76.1584C225.786 76.4348 225.825 76.7099 225.878 76.9824L222.828 73.4217C222.775 73.1492 222.736 72.8741 222.711 72.5977Z" fill="#005D72"/>
<path d="M222.813 73.4219L225.863 76.9826C226.035 77.8817 226.392 78.7354 226.91 79.4903L223.86 75.9296C223.341 75.1753 222.985 74.3213 222.813 73.4219Z" fill="#005D72"/>
<path d="M223.87 75.9297L226.92 79.4904C227.044 79.6676 227.178 79.8374 227.321 79.9991L224.272 76.4384C224.129 76.2756 223.997 76.1026 223.87 75.9297Z" fill="#005D72"/>
<path d="M240.201 60.4961L243.25 64.0568C245.192 66.3781 246.193 69.3441 246.056 72.3685L243.006 68.8332C243.146 65.8007 242.145 62.826 240.201 60.4961Z" fill="#005D72"/>
<path d="M240.201 60.4961L243.25 64.0568C243.503 64.3513 243.74 64.6586 243.962 64.9775L240.912 61.4168C240.689 61.0979 240.45 60.7906 240.196 60.4961" fill="#005D72"/>
<path d="M240.917 61.417L243.967 64.9777C244.882 66.3044 245.509 67.8086 245.807 69.3929L242.757 65.8323C242.454 64.2494 241.828 62.7462 240.917 61.417Z" fill="#005D72"/>
<path d="M242.757 65.832L245.807 69.3927C245.997 70.3728 246.082 71.3703 246.061 72.3685L243.011 68.8332C243.03 67.8335 242.945 66.8345 242.757 65.8524" fill="#005D72"/>
<path d="M242.635 72.5977L245.705 76.138H225.776L222.711 72.5977H242.635Z" fill="#004651"/>
<path d="M243.011 68.8125L246.061 72.3478C246.012 73.6172 245.888 74.8825 245.69 76.1374L242.64 72.5767C242.839 71.3305 242.963 70.0735 243.011 68.8125Z" fill="#005D72"/>
<path d="M243.011 68.8133L246.061 72.3486C246.061 72.4452 246.061 72.5419 246.061 72.6436L243.011 69.0829C243.011 68.9812 243.011 68.8845 243.011 68.793" fill="#005D72"/>
<path d="M243.001 69.1084L246.051 72.6691C246.015 73.5338 245.893 74.7038 245.685 76.1637L242.635 72.603C242.819 71.4454 242.941 70.2789 243.001 69.1084Z" fill="#005D72"/>
<path d="M222.813 83.5637L219.763 80.003C222.254 82.8719 226.081 84.5098 230.783 84.5098C232.917 84.5429 235.028 84.0621 236.938 83.1078C238.847 82.1534 240.5 80.7537 241.756 79.0264L244.806 82.5871C243.55 84.3199 241.896 85.7244 239.983 86.6816C238.07 87.6388 235.955 88.1205 233.817 88.0858C229.126 88.0654 225.298 86.4326 222.813 83.5637Z" fill="#004651"/>
<path d="M241.756 79.0264L244.806 82.5871C244.379 83.1556 243.912 83.6928 243.408 84.1945L240.358 80.6338C240.861 80.1308 241.328 79.5937 241.756 79.0264Z" fill="#004651"/>
<path d="M240.358 80.6338L243.408 84.1945C242.153 85.4556 240.657 86.4503 239.009 87.1189C237.361 87.7876 235.595 88.1164 233.817 88.0859C229.11 88.0859 225.283 86.453 222.798 83.5841L219.748 80.0234C222.239 82.8923 226.066 84.5303 230.767 84.5303C232.547 84.5609 234.314 84.2315 235.963 83.562C237.612 82.8924 239.108 81.8965 240.363 80.6338" fill="#004651"/>
<path fill-rule="evenodd" clip-rule="evenodd" d="M60.0922 30.4541H64.4836L64.2752 42.7283H58.2319L58.3387 36.3445H32.5798L32.468 42.7283H26.4298L26.6382 30.4541H30.4959C32.9305 26.8934 34.6739 21.4303 34.9483 5.29526L35.0703 0H60.6157L60.0922 30.4541ZM53.8456 30.4541L54.2675 5.85988H40.895L40.8544 8.13873C40.6612 19.4058 39.3601 26.1965 37.0119 30.4541H53.8456ZM79.3606 8.71858C86.4356 8.71858 90.2883 12.7879 90.1663 19.8229L89.8868 36.319H84.0011L84.0519 33.3637C82.4204 35.1237 79.6605 36.6242 75.6808 36.6242C69.8001 36.6242 65.9831 33.3077 66.0746 28.1193C66.1813 22.1017 71.6655 19.5634 78.7812 19.5634C80.6437 19.5524 82.4989 19.7954 84.2959 20.2858C84.3721 16.3995 82.9286 14.2427 78.5931 14.2427C75.6554 14.2427 73.4698 15.1227 70.8573 17.0964L68.0365 12.7167C70.6083 10.2242 74.9692 8.71858 79.3606 8.71858ZM84.1485 27.809L84.1891 25.2148C82.6005 24.7326 80.9495 24.4875 79.2895 24.4874C75.0607 24.4874 72.2042 25.3674 72.1737 28.0481C72.1382 30.1794 74.0797 31.4714 77.0683 31.4714C78.4683 31.5069 79.8546 31.188 81.0985 30.5441C82.3425 29.9003 83.4038 28.9525 84.184 27.7886L84.1485 27.809ZM119.884 36.3191L120.347 9.33924H114.456L114.273 19.9247H101.368L101.551 9.33924H95.6656L95.2031 36.3191H101.089L101.277 25.3675H114.182L113.994 36.3191H119.884ZM150.548 9.33924L150.085 36.3191H144.195L144.383 25.3675H131.478L131.29 36.3191H125.404L125.867 9.33924H131.752L131.569 19.9247H144.474L144.657 9.33924H150.548ZM177.649 26.6698C177.75 21.5831 175.138 17.173 166.467 17.173L161.816 17.2086L161.953 9.37505H156.068L155.605 36.3346H165.71C174.436 36.3346 177.562 31.6497 177.649 26.6698ZM171.549 26.7207C171.504 29.3658 169.979 30.8206 165.694 30.8206V30.7901H161.562L161.704 22.6514H165.887C170.025 22.6514 171.595 24.0756 171.549 26.7207ZM180.642 9.33924H186.528L186.066 36.3191H180.18L180.642 9.33924ZM216.572 24.8536C216.77 23.6005 216.893 22.3368 216.943 21.0691C217.07 13.5967 211.789 8.71858 204.566 8.71858C195.58 8.71858 190.676 14.8938 190.538 22.7782C190.396 31.2832 196.063 36.787 204.704 36.787C206.842 36.8207 208.956 36.3381 210.868 35.38C212.78 34.4219 214.433 33.0166 215.687 31.2832L212.129 27.7225C211.277 28.8313 210.182 29.7292 208.928 30.3466C207.674 30.964 206.294 31.2845 204.897 31.2832C200.455 31.2832 197.034 29.1061 196.643 24.8536H216.572ZM210.879 19.716H196.78C197.603 16.2367 200.231 14.0647 204.211 14.0647C207.977 14.0647 210.472 15.9824 210.879 19.716ZM24.8288 57.0829L24.3663 84.0628H18.4806L18.8517 62.5817H6.25178L5.88075 84.0628H0.00012207L0.462645 57.0829H24.8288ZM57.6423 70.5221C57.7796 62.3732 51.9447 56.4624 43.477 56.4624C34.9585 56.4624 29.0067 62.4291 28.8847 70.5221C28.7627 78.615 34.6332 84.5309 42.9941 84.5309C51.4618 84.5309 57.5051 78.671 57.6423 70.5221ZM51.5482 70.5221C51.4618 75.7105 47.9955 79.027 43.0907 79.027L43.1263 79.0525C38.2012 79.0525 34.9077 75.4257 34.9941 70.5475C35.0855 65.2573 38.7603 61.9866 43.3957 61.9866C48.031 61.9866 51.6346 65.3336 51.5482 70.5221ZM87.4114 56.4624C95.8791 56.4624 101.714 62.3732 101.577 70.5221C101.44 78.671 95.4013 84.5309 86.9337 84.5309C78.5676 84.5309 72.7023 78.615 72.8192 70.5221C72.9361 62.4291 78.8929 56.4624 87.4114 56.4624ZM87.0252 79.027C91.9299 79.027 95.3912 75.7105 95.4827 70.5221C95.5742 65.3336 91.9655 61.9866 87.3199 61.9866C82.6744 61.9866 78.9997 65.2573 78.9082 70.5475C78.8269 75.4257 82.1204 79.0525 87.0404 79.0525L87.0252 79.027ZM129.948 84.0628L130.41 57.0829H106.039L105.577 84.0628H111.462L111.828 62.5817H124.423L124.057 84.0628H129.948ZM160.403 57.0828L159.941 84.0424H154.055L154.421 62.5612H144.927L144.85 66.7628C144.622 80.1765 140.474 84.3069 134.487 84.3069C134.08 84.3069 133.663 84.3069 133.242 84.2509L132.876 78.7726H133.384C136.083 78.7726 138.924 76.5344 139.122 64.7434L139.254 57.0625L160.403 57.0828ZM187.946 67.5667C188.068 60.5318 184.21 56.4624 177.14 56.4624C172.754 56.4624 168.393 57.9681 165.816 60.4606L168.632 64.8402C171.25 62.8666 173.43 61.9866 176.378 61.9866C180.714 61.9866 182.152 64.1433 182.065 68.0296C180.27 67.5393 178.417 67.2963 176.556 67.3073C169.44 67.3073 163.951 69.8455 163.849 75.8631C163.758 81.0515 167.575 84.3732 173.461 84.3732C177.435 84.3732 180.2 82.8675 181.827 81.1075L181.781 84.0629H187.661L187.946 67.5667ZM181.923 75.5475L181.969 72.9586C180.38 72.4758 178.729 72.2307 177.069 72.2312C172.835 72.2312 169.979 73.1112 169.954 75.7919C169.918 77.9232 171.854 79.2152 174.853 79.2152C176.247 79.2461 177.627 78.9249 178.864 78.2812C180.097 77.6403 181.148 76.7004 181.923 75.5475ZM216.16 57.0829L216.068 62.5817H206.361L205.99 84.0628H200.109L200.475 62.5817H190.767L190.864 57.0829H216.16ZM242.635 72.5974C242.837 71.3447 242.962 70.0809 243.011 68.8129C243.143 61.3406 237.858 56.4624 230.63 56.4624C221.649 56.4624 216.744 62.6377 216.607 70.5221C216.46 79.027 222.127 84.5309 230.767 84.5309C232.907 84.5649 235.023 84.0825 236.937 83.1245C238.85 82.1664 240.505 80.7609 241.761 79.027L238.203 75.4663C237.349 76.5739 236.252 77.4707 234.998 78.0879C233.743 78.7052 232.364 79.0264 230.965 79.027C226.523 79.027 223.103 76.8499 222.711 72.5974H242.635ZM236.943 67.4599H222.848C223.672 63.9806 226.3 61.8085 230.279 61.8085C234.046 61.8085 236.541 63.7262 236.943 67.4599Z" fill="url(#paint0_linear)"/>
</g>
<defs>
<linearGradient id="paint0_linear" x1="122" y1="6.77051e-06" x2="76.7205" y2="64.8931" gradientUnits="userSpaceOnUse">
<stop offset="0.284633" stop-color="#00B4AA"/>
<stop offset="1" stop-color="#82DCCE"/>
</linearGradient>
<clipPath id="clip0">
<rect width="246" height="88" fill="white"/>
</clipPath>
</defs>
</svg>
