<svg width="20" height="21" viewBox="0 0 20 21" fill="none" xmlns="http://www.w3.org/2000/svg">
<g clip-path="url(#clip0)">
<path d="M14.2857 4.2627H2.14286C0.959388 4.2627 0 5.22398 0 6.40978V18.5765C0 19.7623 0.959388 20.7236 2.14286 20.7236H14.2857C15.4692 20.7236 16.4285 19.7623 16.4285 18.5765V6.40978C16.4285 5.22398 15.4692 4.2627 14.2857 4.2627ZM15 18.5766C15 18.9719 14.6802 19.2923 14.2857 19.2923H2.14286C1.74835 19.2923 1.42856 18.9719 1.42856 18.5766V6.40978C1.42856 6.01449 1.74835 5.69407 2.14286 5.69407H14.2857C14.6802 5.69407 15 6.01449 15 6.40978V18.5766Z" fill="black"/>
<path d="M17.8574 0.684082H5.00028C3.81681 0.684082 2.85742 1.64536 2.85742 2.83116C2.85742 3.22644 3.17722 3.54687 3.57172 3.54687C3.96622 3.54687 4.28598 3.22644 4.28598 2.83116C4.28598 2.43588 4.60577 2.11545 5.00028 2.11545H17.8574C18.2519 2.11545 18.5717 2.43588 18.5717 2.83116V15.7136C18.5717 16.1089 18.2519 16.4293 17.8574 16.4293C17.4629 16.4293 17.1431 16.7498 17.1431 17.1451C17.1431 17.5403 17.4629 17.8608 17.8574 17.8608C19.0409 17.8608 20.0003 16.8995 20.0003 15.7137V2.83116C20.0003 1.64536 19.0409 0.684082 17.8574 0.684082Z" fill="black"/>
</g>
<defs>
<clipPath id="clip0">
<rect width="20" height="20.0394" fill="white" transform="translate(0 0.684082)"/>
</clipPath>
</defs>
</svg>
