<svg width="26" height="26" viewBox="0 0 26 26" fill="none" xmlns="http://www.w3.org/2000/svg">
<g clip-path="url(#clip0)">
<path d="M2.97923 25.9998H23.0208C24.6642 25.9998 26 24.664 26 23.0205V5.14554C26 3.50209 24.6642 2.1665 23.0208 2.1665H2.97923C1.33578 2.1665 0 3.50209 0 5.14554V23.0205C0 24.664 1.33578 25.9998 2.97923 25.9998ZM23.0208 3.7915C23.7672 3.7915 24.375 4.39909 24.375 5.14554V23.0205C24.375 23.767 23.7672 24.3748 23.0208 24.3748H2.97923C2.23279 24.3748 1.625 23.767 1.625 23.0205V5.14554C1.625 4.39909 2.23279 3.7915 2.97923 3.7915H23.0208Z" fill="#00A29D"/>
<path d="M0.8125 10.2915H25.1875C25.636 10.2915 26 9.92751 26 9.479C26 9.0305 25.636 8.6665 25.1875 8.6665H0.8125C0.363998 8.6665 0 9.0305 0 9.479C0 9.92751 0.363998 10.2915 0.8125 10.2915Z" fill="#00A29D"/>
<path d="M19.771 6.5C20.2195 6.5 20.5835 6.136 20.5835 5.6875V0.8125C20.5835 0.363998 20.2195 0 19.771 0C19.3225 0 18.9585 0.363998 18.9585 0.8125V5.6875C18.9585 6.136 19.3225 6.5 19.771 6.5Z" fill="#00A29D"/>
<path d="M6.229 6.5C6.67751 6.5 7.0415 6.136 7.0415 5.6875V0.8125C7.0415 0.363998 6.67751 0 6.229 0C5.7805 0 5.4165 0.363998 5.4165 0.8125V5.6875C5.4165 6.136 5.7805 6.5 6.229 6.5Z" fill="#00A29D"/>
</g>
<defs>
<clipPath id="clip0">
<rect width="26" height="26" fill="white" transform="matrix(-1 0 0 1 26 0)"/>
</clipPath>
</defs>
</svg>
