<?xml version="1.0" encoding="utf-8"?><svg width="66" height="60" viewBox="0 0 66 60" fill="none" xmlns="http://www.w3.org/2000/svg">
<g clip-path="url(#clip0)">
<path fill-rule="evenodd" clip-rule="evenodd" d="M32.4922 18.9097C30.0901 18.9097 27.6691 16.7845 27.6691 14.3722C27.3644 12.358 28.092 9.07836 32.9999 9.07836C39.0536 9.07836 38.9631 18.9097 32.4922 18.9097ZM18.2769 13.6159C18.2769 24.1252 25.2539 25.68 29.9614 36.2962C30.3337 37.4393 32.2167 42.9907 32.5205 44.6227C32.9999 39.9283 36.3793 33.0768 39.092 29.4973C39.8677 28.4737 40.5881 27.5287 41.4101 26.5055C42.2766 25.4269 43.0103 24.5514 43.8169 23.3497C46.894 18.7654 47.8397 12.9605 45.3117 7.94375C44.4066 6.14756 43.1646 4.54102 41.5983 3.31247C35.718 -1.29977 27.9073 -1.14841 22.6551 4.09903C21.4079 5.34506 20.5425 6.28513 19.7071 7.97774C19.023 9.3634 18.2769 11.6721 18.2769 13.6159L18.2769 13.6159Z" fill="white"/>
<path fill-rule="evenodd" clip-rule="evenodd" d="M21.5769 40.8414C20.862 41.7671 18.3447 46.4038 17.7339 47.3605C16.8772 48.7023 12.1051 50.2801 10.4077 50.6728C10.5249 50.1734 14.0094 42.694 14.7803 42.1586L22.9191 38.6451C23.7367 38.2945 24.6349 37.9216 25.3847 37.5643C23.2065 33.4375 25.3847 37.5643 23.1001 33.2788C14.3022 36.8942 15.6824 36.2851 14.3022 36.8942C9.9088 38.8327 11.2548 37.6466 8.37696 43.3623L5.32375 49.4053C4.98423 50.152 4.63923 50.7861 4.23079 51.5972C3.42006 53.2073 0.222745 59.0508 0 60.0001L16.7498 53.673C17.8353 53.2823 17.8371 53.338 18.8763 53.8516L30.7887 59.1726C32.9474 60.114 32.1864 60.2556 36.7224 58.1507C38.1392 57.4934 39.2881 56.9723 40.7619 56.3643L46.7101 53.6796C47.7356 53.2722 48.1993 53.5799 49.0351 53.9039L66 60.0001L55.4348 38.9811C42.1384 33.0267 55.4348 38.9811 42.1384 33.0267C41.5128 33.9544 42.1384 33.0267 39.8158 37.3122L45.0012 39.5111C46.8104 40.281 48.3001 40.9569 50.1594 41.6991C52.0401 42.4497 51.9959 43.2779 53.3077 45.8832C54.1475 47.551 54.9707 49.2818 55.8461 50.9249C55.3426 50.8833 48.4334 48.7848 47.7183 47.6526L43.6615 40.3373C43.6615 43.0581 45.1846 46.1874 45.1846 48.9082C43.4371 49.8264 41.3827 50.5445 39.5972 51.4263C37.8063 52.3109 35.5846 53.2244 33.844 54.139C33.2164 52.0275 32.8702 49.2424 32.5207 47.4208C32.1187 48.8216 31.579 52.4881 31.2232 53.95C30.3072 53.4686 29.5031 53.0711 28.4664 52.6542C27.4973 52.2644 26.7449 51.8257 25.6742 51.3937L20.0539 48.9082C20.2679 46.3551 21.2002 43.6427 21.577 40.8414L21.5769 40.8414Z" fill="white"/>
</g>
<defs>
<clipPath id="clip0">
<rect width="66" height="60" fill="white"/>
</clipPath>
</defs>
</svg>
