<?xml version="1.0" encoding="utf-8"?><svg width="63" height="60" viewBox="0 0 63 60" fill="none" xmlns="http://www.w3.org/2000/svg">
<g clip-path="url(#clip0)">
<path fill-rule="evenodd" clip-rule="evenodd" d="M26.704 59.9772L36.1989 60C36.0943 45.5972 36.0629 34.7289 35.9785 19.0435L43.0357 19.0358C31.572 0.16008 41.4025 16.1286 31.4733 -0.00012207C27.5354 6.3849 23.6025 12.6822 19.5684 19.0018C27.0413 19.0398 25.8123 19.0393 27.0413 19.0398C26.704 59.977 26.8958 47.8533 26.704 59.977V59.9772Z" fill="white"/>
<path fill-rule="evenodd" clip-rule="evenodd" d="M45.2044 50.5111C47.0925 50.5272 49.0053 50.4954 50.9274 50.4954L50.3806 28.2029C51.7849 28.1922 51.9594 28.1922 53.8954 28.1922C53.4757 27.1252 47.6983 18.2385 47.684 18.2274C46.5266 20.1945 42.3036 26.6905 41.8391 28.1922L45.1712 28.1513C45.1712 30.8768 45.2033 49.8412 45.2042 50.5109L45.2044 50.5111Z" fill="white"/>
<path fill-rule="evenodd" clip-rule="evenodd" d="M56.3082 47.0598C58.1074 47.0608 58.9397 47.0608 60.6216 47.0608L60.615 31.8039C61.5259 31.7899 62.0598 31.8071 62.9274 31.8071C58.6689 24.8026 62.9274 31.8071 58.6107 24.7389C54.2942 31.7941 58.6107 24.7389 54.2942 31.7941L56.3602 31.7992L56.3082 47.0598Z" fill="white"/>
<path fill-rule="evenodd" clip-rule="evenodd" d="M17.7233 50.5111C15.8351 50.5272 13.9223 50.4954 12.0002 50.4954L12.5471 28.2029C11.1427 28.1922 10.9683 28.1922 9.03223 28.1922C9.45198 27.1252 15.2293 18.2385 15.2436 18.2274C16.401 20.1945 20.624 26.6905 21.0885 28.1922L17.7564 28.1513C17.7564 30.8768 17.7243 49.8412 17.7234 50.5109L17.7233 50.5111Z" fill="white"/>
<path fill-rule="evenodd" clip-rule="evenodd" d="M6.61919 47.0598C4.81999 47.0608 3.98772 47.0608 2.30586 47.0608L2.31241 31.8039C1.40147 31.7899 0.867575 31.8071 0 31.8071C4.25853 24.8026 0 31.8071 4.31669 24.7389C8.63322 31.7941 4.31669 24.7389 8.63322 31.7941L6.56724 31.7992L6.61919 47.0598Z" fill="white"/>
</g>
<defs>
<clipPath id="clip0">
<rect width="62.9273" height="60" fill="white"/>
</clipPath>
</defs>
</svg>
