<svg width="20" height="20" viewBox="0 0 20 20" fill="none" xmlns="http://www.w3.org/2000/svg">
<g clip-path="url(#clip0)">
<path d="M7.13718 11.6201C7.13718 12.2981 7.42267 12.8691 7.74384 13.4757C8.10068 14.1181 8.6003 14.6177 9.24264 15.0103C9.88497 15.4028 10.563 15.5812 11.3481 15.5812C12.0975 15.5812 12.8112 15.4028 13.4535 15.0103C14.0959 14.6177 14.5598 14.0467 14.9523 13.4044H19.9484C19.306 15.2244 18.1997 16.7945 16.5939 17.9365C14.988 19.0784 13.2037 19.6851 11.241 19.6851C9.77786 19.6851 8.35041 19.3639 7.06571 18.7216C4.13947 20.149 2.03398 20.2204 0.749319 18.9357C0.214097 18.5074 0 17.7937 0 16.8302C0 15.8667 0.178421 14.7604 0.570978 13.5828C0.963535 12.3695 1.57019 11.0848 2.46233 9.62168C3.14038 8.47972 3.63996 7.58758 5.567 5.7319C6.28072 5.01818 6.60188 4.66134 6.7803 4.48288C5.06737 5.30367 2.85485 6.83814 1.07056 8.40833C2.14113 5.76758 3.63996 4.41148 5.45993 3.26957C7.42267 2.09194 9.02854 1.30682 11.1697 1.30682C11.3838 1.30682 11.5979 1.30682 11.8477 1.3425C13.4179 0.628775 14.8453 0.271934 16.13 0.164866C17.4147 0.0935135 18.3069 0.30761 18.8422 0.807196C19.9128 1.87776 19.9841 3.59069 19.1277 5.91028C19.9485 7.33773 19.9841 8.94359 19.9841 10.5851C19.9841 10.9777 20.0198 11.3345 19.9841 11.6557H15.345H7.13718V11.6201Z" fill="#00C8F6"/>
<path d="M5.70996 17.6867C3.85428 16.5447 3.21195 15.6169 2.46255 13.5828C1.21352 16.0095 0.856678 17.1157 1.7845 18.0436C2.60529 18.8643 3.56883 18.6502 5.70996 17.6867Z" fill="white"/>
<path d="M14.988 9.12208C14.9167 8.12287 14.5598 7.23072 13.8104 6.55268C13.061 5.83896 12.1689 5.55347 11.1697 5.55347C10.1348 5.55347 9.2783 5.83896 8.5289 6.55268C7.77951 7.2664 7.2442 8.12287 7.17285 9.12208H14.988Z" fill="white"/>
<path d="M14.5605 1.94915C16.2735 2.80561 16.559 2.94836 17.8437 4.48283C18.2719 3.3052 18.3433 2.98403 18.1648 2.62715C17.9864 2.19892 17.6295 1.87775 17.237 1.66362C16.5946 1.30682 16.1664 1.30682 14.5605 1.94915Z" fill="white"/>
</g>
<defs>
<clipPath id="clip0">
<rect width="20" height="20" fill="white"/>
</clipPath>
</defs>
</svg>
