<svg width="19" height="19" viewBox="0 0 19 19" fill="none" xmlns="http://www.w3.org/2000/svg">
<path d="M13.0625 0.296875H5.9375C5.54395 0.297317 5.16666 0.453848 4.88838 0.732127C4.6101 1.01041 4.45357 1.3877 4.45312 1.78125V17.2188C4.45357 17.6123 4.6101 17.9896 4.88838 18.2679C5.16666 18.5462 5.54395 18.7027 5.9375 18.7031H13.0625C13.456 18.7027 13.8333 18.5462 14.1116 18.2679C14.3899 17.9896 14.5464 17.6123 14.5469 17.2188V1.78125C14.5464 1.3877 14.3899 1.01041 14.1116 0.732127C13.8333 0.453848 13.456 0.297317 13.0625 0.296875ZM11.5129 0.890625L11.3348 1.78125H7.66528L7.48715 0.890625H11.5129ZM13.9531 17.2188C13.9529 17.4549 13.8589 17.6813 13.692 17.8482C13.525 18.0152 13.2986 18.1091 13.0625 18.1094H5.9375C5.70137 18.1091 5.47499 18.0152 5.30803 17.8482C5.14106 17.6813 5.04714 17.4549 5.04688 17.2188V1.78125C5.04714 1.54512 5.14106 1.31874 5.30803 1.15178C5.47499 0.984809 5.70137 0.89089 5.9375 0.890625H6.8816L7.13075 2.13635C7.14421 2.20365 7.18057 2.26421 7.23365 2.30772C7.28673 2.35123 7.35324 2.375 7.42188 2.375H11.5781C11.6468 2.375 11.7133 2.35123 11.7663 2.30772C11.8194 2.26421 11.8558 2.20365 11.8692 2.13635L12.1184 0.890625H13.0625C13.2986 0.89089 13.525 0.984809 13.692 1.15178C13.8589 1.31874 13.9529 1.54512 13.9531 1.78125V17.2188Z" fill="black"/>
<path d="M7.71875 16.9219H5.9375C5.85876 16.9219 5.78325 16.9532 5.72758 17.0088C5.6719 17.0645 5.64062 17.14 5.64062 17.2188C5.64062 17.2975 5.6719 17.373 5.72758 17.4287C5.78325 17.4843 5.85876 17.5156 5.9375 17.5156H7.71875C7.79749 17.5156 7.873 17.4843 7.92867 17.4287C7.98435 17.373 8.01562 17.2975 8.01562 17.2188C8.01562 17.14 7.98435 17.0645 7.92867 17.0088C7.873 16.9532 7.79749 16.9219 7.71875 16.9219Z" fill="black"/>
<path d="M8.90625 16.9219H8.60938C8.53064 16.9219 8.45513 16.9532 8.39945 17.0088C8.34378 17.0645 8.3125 17.14 8.3125 17.2188C8.3125 17.2975 8.34378 17.373 8.39945 17.4287C8.45513 17.4843 8.53064 17.5156 8.60938 17.5156H8.90625C8.98499 17.5156 9.0605 17.4843 9.11617 17.4287C9.17185 17.373 9.20312 17.2975 9.20312 17.2188C9.20312 17.14 9.17185 17.0645 9.11617 17.0088C9.0605 16.9532 8.98499 16.9219 8.90625 16.9219Z" fill="black"/>
</svg>
