<svg width="20" height="20" viewBox="0 0 20 20" fill="none" xmlns="http://www.w3.org/2000/svg">
<g clip-path="url(#clip0)">
<path d="M9.98848 0.293274C15.1696 0.293274 19.352 4.47563 19.352 9.65675C19.352 14.8379 15.1695 19.0202 9.98848 19.0202C4.80742 19.0202 0.625 14.8379 0.625 9.65675C0.625 4.47563 4.80735 0.293274 9.98848 0.293274Z" fill="#2394BC"/>
<path d="M11.6107 19.5195C16.3548 18.708 19.9754 14.6505 19.9754 9.65666L19.913 9.78152C20.0378 8.84515 20.0378 7.97124 19.8506 7.28459C19.7882 7.84637 19.7257 8.1585 19.6009 8.28336C19.6009 8.22097 19.6009 7.65911 19.4136 6.91007C19.3512 6.34828 19.2263 5.78643 19.0391 5.28705C19.1015 5.53671 19.1015 5.72403 19.1015 5.9113C18.3524 3.97615 16.6045 1.54168 12.1725 1.60408C12.1725 1.60408 13.7331 1.79134 14.4197 2.85251C14.4197 2.85251 13.6707 2.66525 13.1088 2.97738C13.7955 3.22703 14.4197 3.53916 14.9191 3.85128H14.9815C15.1064 3.91368 15.2312 4.03855 15.356 4.10094C16.2924 4.78759 17.1663 5.72397 17.1039 6.91C16.8542 6.53548 16.6045 6.28575 16.2299 6.22335C16.6669 7.90877 16.6669 9.28207 16.3548 10.3433C16.1052 9.59426 15.9178 9.21967 15.7306 9.03241C15.9802 11.2796 15.6682 12.9026 14.6694 13.9638C14.8567 13.3396 14.9191 12.7778 14.9191 12.3408C13.733 14.0886 12.4221 15.025 10.924 15.0874C10.3622 15.0874 9.80033 15.025 9.23854 14.8377C8.4895 14.5881 7.80278 14.1511 7.1786 13.5268C8.11498 13.5892 9.05128 13.4644 9.8004 13.0274L11.0488 12.2159C11.2361 12.1535 11.361 12.1535 11.5482 12.2159C11.8603 12.1535 11.9852 12.0287 11.8603 11.7165C11.7355 11.5293 11.4858 11.342 11.1737 11.1547C10.5494 10.8426 9.86279 10.9051 9.17615 11.342C8.4895 11.7165 7.86525 11.7165 7.241 11.2796C6.86648 11.03 6.42949 10.6554 6.05496 10.156L5.9301 9.90632C5.8677 10.4681 5.9301 11.0924 6.17976 11.9663C5.9301 11.1547 5.86763 10.4681 5.9301 9.90632C5.9301 9.46933 6.11736 9.15727 6.49188 9.15727H6.36702H6.55428C6.99127 9.21967 7.42819 9.28214 7.99004 9.4694C8.05244 8.97001 7.99004 8.40823 7.61552 7.84637C8.11491 7.34699 8.5519 7.03486 8.92642 6.8476C9.11368 6.7852 9.17608 6.59794 9.23854 6.41061C9.36341 6.16095 9.30094 6.03609 9.17615 5.91123C8.80162 5.91123 8.4895 5.91123 8.11497 5.84883C7.99011 5.78643 7.80285 5.66157 7.55319 5.47431L6.99141 4.91252L6.80415 4.78766L6.74175 4.72526L6.80415 4.66286C6.86654 4.22588 6.99141 3.85135 7.17867 3.53923L7.24107 3.47683C7.42833 3.16471 7.80285 2.85258 8.30224 2.47806C7.30346 2.60292 6.42956 3.03984 5.61804 3.78896C4.99379 3.60169 4.18228 3.66409 3.30837 4.03861L3.18351 4.10101L3.30837 4.03861C2.74659 3.78896 2.372 3.03984 2.18474 1.79141C1.43576 2.47806 1.12364 3.78896 1.12364 5.59924L0.936375 5.91136L0.873977 5.97376C0.749114 6.16102 0.624319 6.41075 0.436989 6.72281C0.18733 7.22219 0.0624661 7.59672 0.0624661 7.97124V8.0961C0.0624661 8.1585 0.0624661 8.28336 0.0624661 8.34576L0.62425 7.90877C0.436989 8.47056 0.249727 9.03241 0.187261 9.59419V9.84385L0 9.65673C0 11.7791 0.686648 13.7767 1.81028 15.3996L1.87268 15.462L1.93508 15.5244C2.74659 16.6481 3.80776 17.5844 5.05626 18.3335C5.93017 18.8329 6.86654 19.2074 7.86532 19.4571L8.05258 19.5195C8.23984 19.5819 8.48957 19.5819 8.67683 19.6444C8.86409 19.6444 8.98895 19.7068 9.17621 19.7068H9.36348H9.6756H9.98773H10.2374H10.6744C10.924 19.7068 11.1738 19.6444 11.4234 19.6444C11.4234 19.5195 11.6107 19.5195 11.6107 19.5195ZM17.9154 7.34706V7.40945V7.34706Z" fill="#EC8840"/>
</g>
<defs>
<clipPath id="clip0">
<rect width="20" height="20" fill="white"/>
</clipPath>
</defs>
</svg>
