<svg width="18" height="18" viewBox="0 0 18 18" fill="none" xmlns="http://www.w3.org/2000/svg">
<path d="M10.0547 16.9453C10.2003 16.9453 10.3184 16.8273 10.3184 16.6816C10.3184 16.536 10.2003 16.418 10.0547 16.418C9.90907 16.418 9.79102 16.536 9.79102 16.6816C9.79102 16.8273 9.90907 16.9453 10.0547 16.9453Z" fill="black"/>
<path d="M11.1094 16.9453C11.255 16.9453 11.373 16.8273 11.373 16.6816C11.373 16.536 11.255 16.418 11.1094 16.418C10.9638 16.418 10.8457 16.536 10.8457 16.6816C10.8457 16.8273 10.9638 16.9453 11.1094 16.9453Z" fill="black"/>
<path d="M9 16.418H6.89062C6.74501 16.418 6.62695 16.536 6.62695 16.6816C6.62695 16.8273 6.74501 16.9453 6.89062 16.9453H9C9.14562 16.9453 9.26367 16.8273 9.26367 16.6816C9.26367 16.536 9.14562 16.418 9 16.418Z" fill="black"/>
<path d="M14.8008 0H3.19922C2.47226 0 1.88086 0.591398 1.88086 1.31836V16.6816C1.88086 17.4086 2.47226 18 3.19922 18H14.8008C15.5277 18 16.1191 17.4086 16.1191 16.6816V1.31836C16.1191 0.591398 15.5277 0 14.8008 0ZM15.5918 16.6816C15.5918 17.1178 15.237 17.4727 14.8008 17.4727H3.19922C2.76304 17.4727 2.4082 17.1178 2.4082 16.6816V1.31836C2.4082 0.882211 2.76304 0.527344 3.19922 0.527344H14.8008C15.237 0.527344 15.5918 0.882211 15.5918 1.31836V16.6816Z" fill="black"/>
<path d="M9 2.63672C9.43618 2.63672 9.79102 2.28185 9.79102 1.8457C9.79102 1.40955 9.43618 1.05469 9 1.05469C8.56382 1.05469 8.20898 1.40955 8.20898 1.8457C8.20898 2.28185 8.56382 2.63672 9 2.63672ZM9 1.58203C9.14541 1.58203 9.26367 1.7003 9.26367 1.8457C9.26367 1.99111 9.14541 2.10938 9 2.10938C8.85459 2.10938 8.73633 1.99111 8.73633 1.8457C8.73633 1.7003 8.85459 1.58203 9 1.58203Z" fill="black"/>
<path d="M14.8008 2.10938H10.7098C10.6399 2.10938 10.5728 2.13715 10.5234 2.18654C10.1537 2.55607 9.93122 2.7778 9.93122 2.7778C9.68193 3.02692 9.35121 3.16406 9 3.16406C8.64903 3.16406 8.31779 3.02678 8.06776 2.77791L7.47643 2.18661C7.427 2.13715 7.35996 2.10938 7.29 2.10938H3.19922C3.0536 2.10938 2.93555 2.22739 2.93555 2.37305V8.47266C2.93555 8.61831 3.0536 8.73633 3.19922 8.73633C3.34484 8.73633 3.46289 8.61831 3.46289 8.47266V2.63672H7.1808L7.69532 3.15123C8.0453 3.49956 8.50862 3.69141 9 3.69141C9.49198 3.69141 9.95509 3.49945 10.3039 3.15088C10.3189 3.13615 10.8189 2.63672 10.8189 2.63672H14.5371V15.3633H3.46289V8C3.46289 7.85435 3.34484 8 3.19922 8C3.0536 8 2.93555 7.85435 2.93555 8C2.93555 8.14565 2.93555 15.627 2.93555 15.627C2.93555 15.7726 3.0536 15.8906 3.19922 15.8906H14.8008C14.9464 15.8906 15.0645 15.7726 15.0645 15.627V2.37305C15.0645 2.22739 14.9464 2.10938 14.8008 2.10938Z" fill="black"/>
</svg>
