<svg width="45" height="45" viewBox="0 0 45 45" fill="none" xmlns="http://www.w3.org/2000/svg">
<path d="M22.5 0C10.0644 0 0 10.0632 0 22.5C0 34.9356 10.0632 45 22.5 45C34.9356 45 45 34.9368 45 22.5C45 10.0644 34.9368 0 22.5 0ZM22.5 42C11.7477 42 2.99997 33.2524 2.99997 22.5C2.99997 11.7476 11.7477 2.99997 22.5 2.99997C33.2523 2.99997 42 11.7477 42 22.5C42 33.2523 33.2523 42 22.5 42Z" fill="#00A29D"/>
<path d="M22.5 18.4373C21.6717 18.4373 21 19.1088 21 19.9373V32.5908C21 33.4192 21.6716 34.0908 22.5 34.0908C23.3285 34.0908 24.0001 33.4193 24.0001 32.5908V19.9372C24 19.1087 23.3284 18.4373 22.5 18.4373Z" fill="#00A29D"/>
<path d="M22.5 10.9092C20.8458 10.9092 19.5 12.255 19.5 13.9092C19.5 15.5633 20.8458 16.9091 22.5 16.9091C24.1542 16.9091 25.4999 15.5633 25.4999 13.9092C25.4999 12.255 24.1542 10.9092 22.5 10.9092Z" fill="#00A29D"/>
</svg>
