<?xml version="1.0" encoding="utf-8"?>
<!-- Generator: Adobe Illustrator 22.0.1, SVG Export Plug-In . SVG Version: 6.00 Build 0)  -->
<svg version="1.1" id="Слой_1" xmlns="http://www.w3.org/2000/svg" xmlns:xlink="http://www.w3.org/1999/xlink" x="0px" y="0px"
	 viewBox="0 0 71.8 71.8" style="enable-background:new 0 0 71.8 71.8;" xml:space="preserve">
<style type="text/css">
	.st0{fill:#FFFFFF;}
</style>
<title>Ресурс 1logo</title>
<g>
	<path class="st0" d="M35.9,29.6c-3.5,0-6.4,2.9-6.4,6.4c0,3.5,2.9,6.4,6.4,6.4c3.5,0,6.4-2.9,6.4-6.4
		C42.3,32.5,39.5,29.6,35.9,29.6z"/>
	<path class="st0" d="M46.6,19.1H25.2c-3.4,0-6.2,2.8-6.2,6.2v21.4c0,3.4,2.8,6.2,6.2,6.2h21.4c3.4,0,6.2-2.8,6.2-6.2V25.3
		C52.8,21.9,50,19.1,46.6,19.1z M47,36c0,6.1-5,11.1-11.1,11.1c-6.1,0-11.1-5-11.1-11.1c0-6.1,5-11.1,11.1-11.1
		C42,24.9,47,29.9,47,36C47,36,47,36,47,36z M50,24.6c0,1.5-1.2,2.6-2.6,2.6c-1.5,0-2.6-1.2-2.6-2.6s1.2-2.6,2.6-2.6
		C48.8,21.9,50,23.1,50,24.6C50,24.5,50,24.6,50,24.6z"/>
	<path class="st0" d="M35.9,0C16.1,0,0,16.1,0,35.9s16.1,35.9,35.9,35.9s35.9-16.1,35.9-35.9S55.7,0,35.9,0z M57.5,46.7
		c0,6-4.9,10.9-10.9,10.9H25.2c-6,0-10.9-4.9-10.9-10.9V25.3c0-6,4.9-10.9,10.9-10.9h21.4c6,0,10.9,4.9,10.9,10.9V46.7z"/>
</g>
</svg>
