<?xml version="1.0" encoding="utf-8"?>
<!-- Generator: Adobe Illustrator 22.0.1, SVG Export Plug-In . SVG Version: 6.00 Build 0)  -->
<svg version="1.1" id="Слой_1" xmlns="http://www.w3.org/2000/svg" xmlns:xlink="http://www.w3.org/1999/xlink" x="0px" y="0px"
	 viewBox="0 0 227.3 227.3" style="enable-background:new 0 0 227.3 227.3;" xml:space="preserve">
<style type="text/css">
	.st0{fill:#FFFFFF;}
</style>
<title>Ресурс 1img</title>
<g>
	<path class="st0" d="M117.9,138.3c-1.2,1.1-2.7,1.6-4.2,1.7c0,0,0,0,0,0c-1.6,0-3.2-0.6-4.3-1.7l-17.7-16.1l-38.1,34.6h120.2
		l-38.2-34.6L117.9,138.3z"/>
	<polygon class="st0" points="173.7,70.4 53.5,70.4 113.6,125 	"/>
	<polygon class="st0" points="43.4,78.4 43.4,148.9 82.2,113.6 	"/>
	<polygon class="st0" points="183.8,148.9 183.8,78.4 145,113.6 	"/>
	<path class="st0" d="M113.6,0C50.9,0,0,50.9,0,113.6s50.9,113.6,113.6,113.6s113.6-50.9,113.6-113.6S176.4,0,113.6,0z M190.2,169.5
		H37.1c-3.5,0-6.3-2.8-6.3-6.3V64.1c0-3.5,2.8-6.3,6.3-6.3l153.1,0c3.5,0,6.3,2.8,6.3,6.3v99.1C196.5,166.6,193.7,169.5,190.2,169.5
		z"/>
</g>
</svg>
