<?xml version="1.0" encoding="utf-8"?><svg width="29" height="29" viewBox="0 0 29 29" fill="none" xmlns="http://www.w3.org/2000/svg">
<path d="M28.1735 15.2227C28.1735 16.0358 27.5538 16.6908 26.7896 16.6908H25.4057V9.26013C25.4057 9.01168 25.2198 8.80841 24.972 8.80841C24.7447 8.80841 24.5382 9.01168 24.5382 9.26013V18.5654C24.5382 19.3785 23.9185 20.0335 23.1543 20.0335H21.7498V9.01168C21.7498 7.7243 20.7583 6.66277 19.519 6.66277H4.5028V5.669C4.5028 4.85592 5.12245 4.22352 5.88669 4.22352H23.1336C23.8979 4.22352 24.5175 4.8785 24.5175 5.69159V7.15966C24.5175 7.4081 24.7034 7.61137 24.9513 7.61137C25.1785 7.61137 25.385 7.4081 25.385 7.15966V5.69159C25.385 4.38162 24.373 3.34268 23.1336 3.34268H8.13809V2.3715C8.13809 1.55841 8.75774 0.903427 9.52198 0.903427H26.7896C27.5538 0.903427 28.1735 1.55841 28.1735 2.3715V15.2227ZM20.9029 21.8855C20.9029 22.6986 20.2833 23.3536 19.519 23.3536H10.4308C10.3275 23.3536 10.2449 23.3988 10.1623 23.4665L5.41162 27.6223V23.8053C5.41162 23.5569 5.22573 23.3536 4.97787 23.3536H2.27205C1.50782 23.3536 0.888167 22.6986 0.888167 21.8855V9.01168C0.888167 8.1986 1.50782 7.54361 2.27205 7.54361H19.519C20.2833 7.54361 20.9029 8.1986 20.9029 9.01168C20.9029 9.03427 20.9029 21.8855 20.9029 21.8855ZM26.7896 0H9.52198C8.28267 0 7.29123 1.06153 7.29123 2.34891V3.32009H5.88669C4.64739 3.32009 3.65594 4.38162 3.63529 5.669V6.66277H2.2514C1.0121 6.66277 0.020655 7.7243 0 9.01168V21.8855C0 23.1955 1.0121 24.2344 2.2514 24.2344H4.54411V28.5483C4.54411 28.7967 4.75066 29 4.97787 29C5.08114 29 5.16376 28.9548 5.24638 28.9097L10.5754 24.2344H19.519C20.7583 24.2344 21.7498 23.1729 21.7498 21.8855V20.9143H23.1336C24.373 20.9143 25.3644 19.8528 25.385 18.5654V17.5942H26.7689C28.0082 17.5942 28.9997 16.5327 28.9997 15.2453V2.3715C29.0203 1.06153 28.0289 0 26.7896 0Z" fill="white"/>
<path d="M5.43229 11.8563H9.06758C9.29479 11.8563 9.50134 11.653 9.50134 11.4046C9.50134 11.1562 9.31544 10.9529 9.06758 10.9529H5.43229C5.20509 10.9529 4.99854 11.1562 4.99854 11.4046C5.01919 11.653 5.20509 11.8563 5.43229 11.8563Z" fill="white"/>
<path d="M10.884 11.8563H13.6104C13.8376 11.8563 14.0442 11.653 14.0442 11.4046C14.0442 11.1562 13.8583 10.9529 13.6104 10.9529H10.884C10.6567 10.9529 10.4502 11.1562 10.4502 11.4046C10.4709 11.653 10.6567 11.8563 10.884 11.8563Z" fill="white"/>
<path d="M5.43229 15.676H11.3396C11.5668 15.676 11.7734 15.4727 11.7734 15.2243C11.7734 14.9759 11.5875 14.7726 11.3396 14.7726H5.43229C5.20509 14.7726 4.99854 14.9759 4.99854 15.2243C5.01919 15.4727 5.20509 15.676 5.43229 15.676Z" fill="white"/>
<path d="M18.612 14.7726H13.6134C13.3862 14.7726 13.1797 14.9759 13.1797 15.2243C13.1797 15.4727 13.3656 15.676 13.6134 15.676H18.612C18.8392 15.676 19.0457 15.4727 19.0457 15.2243C19.0457 14.9759 18.8392 14.7726 18.612 14.7726Z" fill="white"/>
<path d="M5.43229 18.0478H9.06758C9.29479 18.0478 9.50134 17.8446 9.50134 17.5961C9.50134 17.3477 9.31544 17.1444 9.06758 17.1444H5.43229C5.20509 17.1444 4.99854 17.3477 4.99854 17.5961C5.01919 17.8446 5.20509 18.0478 5.43229 18.0478Z" fill="white"/>
<path d="M18.6089 17.1656H10.884C10.6567 17.1656 10.4502 17.3689 10.4502 17.6174C10.4502 17.8658 10.6361 18.0691 10.884 18.0691H18.6089C18.8361 18.0691 19.0427 17.8658 19.0427 17.6174C19.0427 17.3689 18.8361 17.1656 18.6089 17.1656Z" fill="white"/>
<path d="M13.6133 19.5357H5.45452C5.22731 19.5131 5.02076 19.7163 5.00011 19.9422C4.97945 20.1906 5.16535 20.3939 5.39255 20.4165C5.41321 20.4165 5.43386 20.4165 5.45452 20.4165H13.6133C13.8405 20.4391 14.047 20.2358 14.0677 20.01C14.0883 19.7615 13.9024 19.5582 13.6752 19.5357C13.6546 19.5357 13.6339 19.5357 13.6133 19.5357Z" fill="white"/>
</svg>
