<svg width="20" height="20" viewBox="0 0 20 20" fill="none" xmlns="http://www.w3.org/2000/svg">
<path d="M10 0C8.89542 0 8 0.895417 8 2C8 3.10458 8.89542 4 10 4C11.1041 3.99892 11.9989 3.10413 12 2C12 0.895417 11.1046 0 10 0ZM10 3.33333C9.26363 3.33333 8.66667 2.73638 8.66667 2C8.66667 1.26363 9.26363 0.666667 10 0.666667C10.7364 0.666667 11.3333 1.26363 11.3333 2C11.3333 2.73638 10.7364 3.33333 10 3.33333Z" fill="#00A29D"/>
<path d="M11.3333 4.33334H11.2547L11.1843 4.36834C10.4385 4.73972 9.56154 4.73972 8.81567 4.36834L8.74533 4.33334H8.66667C7.74667 4.33443 7.00108 5.08001 7 6.00001V8.00001C7 8.5523 7.44771 9.00001 8 9.00001H12C12.5523 9.00001 13 8.5523 13 8.00001V6.00001C12.9989 5.08001 12.2533 4.33443 11.3333 4.33334ZM12.3333 8.00001C12.3333 8.18409 12.1841 8.33334 12 8.33334H8C7.81592 8.33334 7.66667 8.18409 7.66667 8.00001V6.00001C7.66675 5.47534 8.07229 5.03993 8.59567 5.00268C9.48629 5.41601 10.5138 5.41601 11.4043 5.00268C11.9277 5.03993 12.3333 5.47534 12.3333 6.00001V8.00001Z" fill="#00A29D"/>
<path d="M17 11C15.8954 11 15 11.8954 15 13C15 14.1046 15.8954 15 17 15C18.1046 15 19 14.1046 19 13C18.9989 11.8959 18.1041 11.0011 17 11ZM17 14.3333C16.2636 14.3333 15.6667 13.7364 15.6667 13C15.6667 12.2636 16.2636 11.6667 17 11.6667C17.7364 11.6667 18.3333 12.2636 18.3333 13C18.3333 13.7364 17.7364 14.3333 17 14.3333Z" fill="#00A29D"/>
<path d="M18.3333 15.3333H18.2547L18.1843 15.3667C17.4385 15.738 16.5615 15.738 15.8157 15.3667L15.7453 15.3333H15.6667C14.7467 15.3344 14.0011 16.08 14 17V19C14 19.5523 14.4477 20 15 20H19C19.5523 20 20 19.5523 20 19V17C19.9989 16.08 19.2533 15.3344 18.3333 15.3333ZM19.3333 19C19.3333 19.1841 19.1841 19.3333 19 19.3333H15C14.8159 19.3333 14.6667 19.1841 14.6667 19V17C14.6668 16.4753 15.0723 16.0399 15.5957 16.0027C16.4863 16.416 17.5137 16.416 18.4043 16.0027C18.9277 16.0399 19.3333 16.4753 19.3333 17V19Z" fill="#00A29D"/>
<path d="M3 11C1.89542 11 1 11.8954 1 13C1 14.1046 1.89542 15 3 15C4.10458 15 5 14.1046 5 13C4.99892 11.8959 4.10413 11.0011 3 11ZM3 14.3333C2.26363 14.3333 1.66667 13.7364 1.66667 13C1.66667 12.2636 2.26363 11.6667 3 11.6667C3.73638 11.6667 4.33333 12.2636 4.33333 13C4.33333 13.7364 3.73638 14.3333 3 14.3333Z" fill="#00A29D"/>
<path d="M4.33333 15.3333H4.25467L4.18433 15.3667C3.43846 15.738 2.56154 15.738 1.81567 15.3667L1.74533 15.3333H1.66667C0.746667 15.3344 0.00108333 16.08 0 17V19C0 19.5523 0.447708 20 1 20H5C5.55229 20 6 19.5523 6 19V17C5.99892 16.08 5.25333 15.3344 4.33333 15.3333ZM5.33333 19C5.33333 19.1841 5.18408 19.3333 5 19.3333H1C0.815917 19.3333 0.666667 19.1841 0.666667 19V17C0.66675 16.4753 1.07229 16.0399 1.59567 16.0027C2.48629 16.416 3.51371 16.416 4.40433 16.0027C4.92771 16.0399 5.33325 16.4753 5.33333 17V19Z" fill="#00A29D"/>
<path d="M13.3072 16.9282C13.3071 16.9278 13.3069 16.9274 13.3067 16.927C13.2346 16.7576 13.0388 16.6788 12.8694 16.751C11.3642 17.3818 9.69256 17.4969 8.1151 17.0783L8.4271 16.9867C8.60385 16.9349 8.70518 16.7497 8.65343 16.573C8.60168 16.3962 8.41652 16.2949 8.23977 16.3467L6.90643 16.7377C6.90143 16.7377 6.89777 16.7433 6.8931 16.745C6.86223 16.7565 6.83323 16.7726 6.8071 16.7927C6.79552 16.7989 6.78439 16.8059 6.77377 16.8137C6.7386 16.845 6.71073 16.8837 6.6921 16.927C6.67402 16.9706 6.66539 17.0175 6.66677 17.0647C6.67489 17.1098 6.68602 17.1543 6.7001 17.198C6.7021 17.2027 6.7001 17.208 6.70377 17.2127L7.37043 18.4883C7.45568 18.6516 7.65714 18.7149 7.82043 18.6297C7.98373 18.5444 8.04702 18.3429 7.96177 18.1797L7.69043 17.661C9.48268 18.1997 11.4069 18.095 13.1301 17.365C13.2996 17.2933 13.3789 17.0977 13.3072 16.9282Z" fill="#00A29D"/>
<path d="M18.9023 8.76432C18.7721 8.6342 18.5611 8.6342 18.4309 8.76432L17.9593 9.23599C17.6833 6.3164 15.8296 3.78282 13.1306 2.63599C12.9612 2.56382 12.7654 2.64261 12.6933 2.81199C12.6211 2.98136 12.6999 3.17715 12.8693 3.24932C15.2905 4.27836 16.9736 6.5272 17.2783 9.14032L16.9023 8.76432C16.7699 8.6364 16.5589 8.64007 16.4309 8.77249C16.3062 8.90165 16.3062 9.10645 16.4309 9.23565L17.4309 10.2357C17.5609 10.366 17.772 10.3663 17.9024 10.2362C17.9026 10.236 17.9028 10.2358 17.9029 10.2357L18.9029 9.23565C19.0329 9.10532 19.0326 8.89432 18.9023 8.76432Z" fill="#00A29D"/>
<path d="M7.32367 2.88635C7.32259 2.86689 7.31971 2.8476 7.315 2.82868C7.315 2.82568 7.31134 2.82368 7.31 2.82035C7.30867 2.81701 7.31 2.81468 7.31 2.81201C7.30092 2.7958 7.29042 2.78039 7.27867 2.76601C7.26788 2.74647 7.25513 2.72805 7.24067 2.71101C7.22096 2.69355 7.19913 2.67868 7.17567 2.66668C7.16396 2.65672 7.15146 2.64768 7.13834 2.63968L5.805 2.03068C5.63471 1.96076 5.43996 2.04214 5.37004 2.21243C5.30392 2.37347 5.37288 2.5583 5.52833 2.63668L6.21867 2.95235C3.61979 4.34322 1.99813 7.05235 2 10C2 10.1841 2.14925 10.3333 2.33333 10.3333C2.51742 10.3333 2.66667 10.1841 2.66667 10C2.665 7.40447 4.03754 5.00201 6.27433 3.68535L6.03334 4.18901C5.95388 4.35472 6.0235 4.55347 6.189 4.63335C6.23396 4.6553 6.28329 4.66672 6.33333 4.66668C6.46134 4.66651 6.57792 4.59305 6.63334 4.47768L7.3 3.08668C7.3 3.08335 7.3 3.07968 7.30267 3.07635C7.31134 3.05355 7.31738 3.02985 7.32067 3.00568C7.32638 2.98772 7.33063 2.96935 7.33334 2.95068C7.33221 2.92897 7.329 2.90743 7.32367 2.88635Z" fill="#00A29D"/>
</svg>
