<?xml version="1.0" encoding="utf-8"?><svg width="29" height="29" viewBox="0 0 29 29" fill="none" xmlns="http://www.w3.org/2000/svg">
<g clip-path="url(#clip0)">
<path d="M28.4336 5.94842H25.9414V3.11401H28.4336C28.7464 3.11401 29 2.86043 29 2.54761C29 2.23478 28.7464 1.9812 28.4336 1.9812H2.26483C1.95201 1.9812 1.69843 2.23478 1.69843 2.54761C1.69843 2.86043 1.95201 3.11401 2.26483 3.11401H3.05859V5.94842H0.566406C0.25358 5.94842 0 6.202 0 6.51483V22.3742C0 22.687 0.25358 22.9406 0.566406 22.9406H3.05859V25.8859H0.566406C0.25358 25.8859 0 26.1395 0 26.4523C0 26.7652 0.25358 27.0187 0.566406 27.0187H26.7352C27.048 27.0187 27.3016 26.7652 27.3016 26.4523C27.3016 26.1395 27.048 25.8859 26.7352 25.8859H25.9414V22.9406H28.4336C28.7464 22.9406 29 22.687 29 22.3742V6.51483C29 6.202 28.7464 5.94842 28.4336 5.94842ZM21.5914 3.11401H24.8086V5.94842H21.5914V3.11401ZM17.2414 3.11401H20.4586V5.94842H17.2414V3.11401ZM12.8914 3.11401H16.1086V5.94842H12.8914V3.11401ZM8.54141 3.11401H11.7586V5.94842H8.54141V3.11401ZM4.19141 3.11401H7.40859V5.94842H4.19141V3.11401ZM7.40859 25.8859H4.19141V22.9406H7.40859V25.8859ZM11.7586 25.8859H8.54141V22.9406H11.7586V25.8859ZM16.1086 25.8859H12.8914V22.9406H16.1086V25.8859ZM20.4586 25.8859H17.2414V22.9406H20.4586V25.8859ZM24.8086 25.8859H21.5914V22.9406H24.8086V25.8859ZM27.8672 21.8078H1.13281V7.08124H27.8672V21.8078Z" fill="white"/>
<path d="M19.0497 13.2217L12.6713 9.13342C12.2215 8.84506 11.6508 8.82523 11.1819 9.08153C10.7131 9.33795 10.4219 9.82913 10.4219 10.3634V18.5401C10.4219 19.0744 10.7131 19.5655 11.1819 19.822C11.4009 19.9417 11.6421 20.0012 11.8829 20.0012C12.1575 20.0012 12.4316 19.9237 12.6713 19.7701L19.0497 15.6818C19.4708 15.4118 19.7223 14.952 19.7223 14.4517C19.7223 13.9515 19.4708 13.4917 19.0497 13.2217ZM18.4383 14.7281L12.06 18.8164C11.9121 18.9112 11.7768 18.8562 11.7254 18.8281C11.6741 18.8 11.5547 18.7158 11.5547 18.5402V10.3635C11.5547 10.1879 11.6741 10.1037 11.7254 10.0756C11.7551 10.0594 11.8131 10.0341 11.8853 10.0341C11.9377 10.0341 11.9977 10.0474 12.0599 10.0873L18.4383 14.1756C18.5747 14.263 18.5893 14.398 18.5893 14.4519C18.5893 14.5058 18.5747 14.6406 18.4383 14.7281Z" fill="white"/>
<path d="M0.574166 1.98132H0.566406C0.25358 1.98132 0 2.2349 0 2.54773C0 2.86055 0.25358 3.11413 0.566406 3.11413H0.574166C1.17927 3.11413 1.8405 3.12334 2.2373 3.11532C4.91829 3.06118 3.11523 2.82022 3.11523 2.54773C3.11523 2.16085 6.02971 2.00608 2.29395 1.98252C1.93924 1.98028 1.04747 1.98132 0.574166 1.98132Z" fill="white"/>
<path d="M28.4322 27.0221H28.4399C28.7528 27.0221 29.0063 26.7685 29.0063 26.4557C29.0063 26.1429 28.7528 25.8893 28.4399 25.8893H28.4322C27.8271 25.8893 27.1659 25.8801 26.769 25.8881C24.0881 25.9422 25.8911 26.1832 25.8911 26.4557C25.8911 26.8426 22.9767 26.9973 26.7124 27.0209C27.0671 27.0231 27.9589 27.0221 28.4322 27.0221Z" fill="white"/>
</g>
<defs>
<clipPath id="clip0">
<rect width="29" height="29" fill="white"/>
</clipPath>
</defs>
</svg>
