<svg width="43" height="43" viewBox="0 0 43 43" fill="none" xmlns="http://www.w3.org/2000/svg">
<g clip-path="url(#clip0)">
<path d="M37.3356 16.0529H17.3474C16.9995 16.0529 16.7175 16.3349 16.7175 16.6828C16.7175 17.0307 16.9995 17.3127 17.3474 17.3127H37.3356C37.6835 17.3127 37.9655 17.0307 37.9655 16.6828C37.9655 16.3349 37.6835 16.0529 37.3356 16.0529Z" fill="white"/>
<path d="M37.3356 20.868H17.3474C16.9995 20.868 16.7175 21.15 16.7175 21.4979C16.7175 21.8457 16.9995 22.1277 17.3474 22.1277H37.3356C37.6835 22.1277 37.9655 21.8457 37.9655 21.4979C37.9655 21.15 37.6835 20.868 37.3356 20.868Z" fill="white"/>
<path d="M37.3356 25.683H17.3474C16.9995 25.683 16.7175 25.9651 16.7175 26.3129C16.7175 26.6608 16.9995 26.9428 17.3474 26.9428H37.3356C37.6835 26.9428 37.9655 26.6608 37.9655 26.3129C37.9655 25.9651 37.6835 25.683 37.3356 25.683Z" fill="white"/>
<path d="M39.3365 10.5442H15.3467C13.3266 10.5442 11.6831 12.1876 11.6831 14.2078V29.2928C11.6831 31.3129 13.3265 32.9563 15.3467 32.9563H32.1613C32.3411 32.9563 32.5081 33.0372 32.6197 33.1784L38.0497 40.0528C38.2637 40.3237 38.5759 40.4713 38.9029 40.4713C39.0244 40.4713 39.148 40.4509 39.2693 40.4088C39.7167 40.2534 40.0057 39.847 40.0057 39.3734V32.8938C41.7043 32.5765 43 31.0748 43 29.2928V14.2077C43 12.1876 41.3566 10.5442 39.3365 10.5442ZM41.7403 29.2928C41.7403 30.601 40.6759 31.6789 39.3677 31.6956C39.023 31.7 38.7459 31.9807 38.7459 32.3255V38.9018L33.6082 32.3975C33.2564 31.952 32.729 31.6965 32.1613 31.6965H15.3467C14.0212 31.6965 12.9429 30.6181 12.9429 29.2927V14.2077C12.9429 12.8822 14.0211 11.8039 15.3467 11.8039H39.3365C40.6619 11.8039 41.7403 12.8822 41.7403 14.2077V29.2928Z" fill="white"/>
<path d="M9.27977 20.9593C8.84893 21.0204 8.46311 21.2422 8.19335 21.5837L3.86639 27.0616V21.5715C3.86639 21.2268 3.58924 20.9461 3.24457 20.9416C2.15017 20.9277 1.25977 20.0259 1.25977 18.9315V5.79958C1.25977 4.69073 2.16193 3.78857 3.27077 3.78857H24.1546C25.2634 3.78857 26.1656 4.69073 26.1656 5.79958V8.22942C26.1656 8.57728 26.4476 8.8593 26.7955 8.8593C27.1433 8.8593 27.4254 8.57728 27.4254 8.22942V5.79958C27.4254 3.9961 25.9581 2.52881 24.1546 2.52881H3.27077C1.46729 2.52881 0 3.9961 0 5.79958V18.9315C0 20.4992 1.12296 21.8237 2.60671 22.1333V27.707C2.60671 28.1545 2.87982 28.5385 3.3026 28.6853C3.41724 28.7251 3.53398 28.7444 3.64887 28.7444C3.95768 28.7444 4.25288 28.6049 4.45504 28.349L9.18201 22.3646C9.25021 22.2782 9.34788 22.222 9.45689 22.2065C9.80131 22.1576 10.0409 21.8387 9.99196 21.4943C9.94308 21.1499 9.62469 20.9101 9.27977 20.9593Z" fill="white"/>
</g>
<defs>
<clipPath id="clip0">
<rect width="43" height="43" fill="white"/>
</clipPath>
</defs>
</svg>
