<svg width="65" height="29" viewBox="0 0 65 29" fill="none" xmlns="http://www.w3.org/2000/svg">
<rect width="65" height="29" rx="3" fill="#3B5980"/>
<path d="M51 15C51 24.9411 41.9411 27 32 27C22.0589 27 15 24.9411 15 15C15 5.05887 23.5589 1.5 33.5 1.5C43.4411 1.5 51 5.05887 51 15Z" fill="#3B5980"/>
<circle cx="33.0001" cy="15.0001" r="13.7647" fill="white"/>
<path d="M33 1C24.1586 1 17 5.55242 17 14.2073C17 22.8622 24.1586 29 33 29C41.8414 29 49 22.8622 49 14.2073C49 5.55242 41.8414 1 33 1ZM37.4207 8.12098H35.082C34.7112 8.12098 34.1693 8.31641 34.1693 9.09815V11.22H37.3922L37.0214 14.8216H34.1693V25.0679H29.8342V14.8216H27.7807V11.22H29.8342V8.90271C29.8342 7.22757 30.6328 4.63109 34.1979 4.63109H37.3922V8.12098H37.4207Z" fill="#3B5980"/>
</svg>
