<svg width="65" height="29" viewBox="0 0 65 29" fill="none" xmlns="http://www.w3.org/2000/svg">
<rect width="65" height="29" rx="3" fill="#E20226"/>
<path d="M32.5 6C27.8104 6 24 9.80381 24 14.4854C24 17.9673 26.081 20.9519 29.1 22.2686C29.0707 21.6834 29.1 20.9519 29.2466 20.3081C29.4224 19.6059 30.331 15.6851 30.331 15.6851C30.331 15.6851 30.0672 15.1291 30.0672 14.3391C30.0672 13.0809 30.8 12.1446 31.7086 12.1446C32.4707 12.1446 32.8517 12.7298 32.8517 13.432C32.8517 14.1928 32.3534 15.3632 32.0896 16.4458C31.8845 17.3529 32.5293 18.0843 33.4379 18.0843C35.05 18.0843 36.1345 16.0069 36.1345 13.5783C36.1345 11.7056 34.8741 10.3304 32.5879 10.3304C30.0086 10.3304 28.3966 12.2616 28.3966 14.3976C28.3966 15.1291 28.6017 15.6558 28.9534 16.0654C29.1 16.2409 29.1293 16.3287 29.0707 16.5335C29.0414 16.6798 28.9241 17.0602 28.8948 17.2065C28.8362 17.4113 28.6603 17.4991 28.4552 17.4113C27.2534 16.9139 26.7258 15.6265 26.7258 14.1635C26.7258 11.7641 28.7482 8.8674 32.7931 8.8674C36.0465 8.8674 38.1862 11.2082 38.1862 13.7246C38.1862 17.0602 36.3396 19.5473 33.6138 19.5473C32.7052 19.5473 31.8259 19.0499 31.5328 18.494C31.5328 18.494 31.0345 20.4544 30.9466 20.8348C30.7707 21.4785 30.419 22.1515 30.0966 22.6489C30.8586 22.883 31.6793 23 32.5 23C37.1896 23 41 19.1962 41 14.5146C41 9.83301 37.1897 6 32.5 6Z" fill="white"/>
</svg>
