<svg width="65" height="29" viewBox="0 0 65 29" fill="none" xmlns="http://www.w3.org/2000/svg">
<rect width="65" height="29" rx="3" fill="#4C75A3"/>
<g clip-path="url(#clip0)">
<path d="M51.8004 13.5001C51.8004 22.6765 41.3466 26.4601 32.0002 26.4601C22.6539 26.4601 15.0771 22.1363 15.0771 12.9599C15.0771 3.78349 22.6539 1.08008 32.0002 1.08008C41.3466 1.08008 51.8004 4.32366 51.8004 13.5001Z" fill="white"/>
<path d="M32 0C19.8431 0 10 1.02418 10 12.96C10 24.8958 20.7451 27 32.902 27C45.0588 27 54 24.8958 54 12.96C54 1.02418 44.1569 0 32 0ZM44.5882 22.4317L40.7451 22.4702C40.7451 22.4702 39.9216 22.6242 38.8235 21.8926C37.3726 20.9301 36 18.3889 34.9412 18.7354C33.8824 19.0819 33.9216 21.3536 33.9216 21.3536C33.9216 21.3536 33.9216 21.8541 33.6863 22.0851C33.4118 22.3547 32.902 22.4317 32.902 22.4317H31.1765C31.1765 22.4317 27.3726 22.6627 24 19.2359C20.3529 15.5012 17.098 8.07017 17.098 8.07017C17.098 8.07017 16.902 7.56963 17.098 7.33862C17.3333 7.0691 17.9608 7.0691 17.9608 7.0691L22.0784 7.03059C22.0784 7.03059 22.4706 7.1076 22.7451 7.30011C22.9804 7.45412 23.098 7.76214 23.098 7.76214C23.098 7.76214 23.7647 9.41776 24.6667 10.9194C26.3922 13.8456 27.1765 14.5001 27.7647 14.1536C28.6275 13.6916 28.3529 10.0338 28.3529 10.0338C28.3529 10.0338 28.3529 8.68621 27.9216 8.10867C27.5686 7.64664 26.9412 7.53113 26.6275 7.49263C26.3922 7.45412 26.7843 6.91509 27.2549 6.68407C28 6.33755 29.2941 6.29904 30.8627 6.33755C32.0784 6.33755 32.4314 6.41455 32.902 6.53006C34.3137 6.87658 33.8431 8.18567 33.8431 11.3044C33.8431 12.3055 33.6471 13.7301 34.3922 14.1921C34.7059 14.3846 35.4902 14.2306 37.4118 10.9964C38.3137 9.45626 39.0196 7.68514 39.0196 7.68514C39.0196 7.68514 39.1765 7.37712 39.4118 7.22311C39.6471 7.0691 39.9608 7.1076 39.9608 7.1076L44.3137 7.0691C44.3137 7.0691 45.6078 6.91509 45.8431 7.49263C46.0784 8.10867 45.3726 9.53327 43.5686 11.8434C40.6667 15.6552 40.3137 15.3087 42.7451 17.5033C45.0588 19.621 45.5294 20.622 45.6078 20.7761C46.6275 22.3162 44.5882 22.4317 44.5882 22.4317Z" fill="#4C75A3"/>
</g>
<defs>
<clipPath id="clip0">
<rect width="44" height="27" fill="white" transform="translate(10)"/>
</clipPath>
</defs>
</svg>
