<svg width="65" height="29" viewBox="0 0 65 29" fill="none" xmlns="http://www.w3.org/2000/svg">
<rect width="65" height="29" rx="3" fill="#FF9800"/>
<ellipse cx="32.0003" cy="14.4998" rx="10.5882" ry="11.9412" fill="white"/>
<path d="M32.0145 12.0172C33.4468 12.0122 34.5876 10.9 34.5824 9.51241C34.5772 8.12426 33.4339 7.01974 32.001 7.01856C30.5561 7.01707 29.4021 8.14206 29.4132 9.54267C29.4239 10.9252 30.5776 12.0223 32.0145 12.0172Z" fill="#FF9800"/>
<path d="M32 0C23.7157 0 17 6.49214 17 14.5C17 22.5079 23.7157 29 32 29C40.2843 29 47 22.5079 47 14.5C47 6.49214 40.2843 0 32 0ZM32.0215 4.40948C34.9432 4.4172 37.2883 6.72741 37.2732 9.58291C37.2585 12.3725 34.8751 14.6335 31.9583 14.624C29.0712 14.6145 26.7034 12.3007 26.7206 9.50547C26.7369 6.67964 29.1059 4.40177 32.0215 4.40948ZM37.9392 16.6307C37.2932 17.2718 36.5155 17.7358 35.6519 18.0595C34.8355 18.3654 33.9409 18.5194 33.0551 18.622C33.1893 18.7626 33.2522 18.8318 33.3357 18.9125C34.5375 20.0805 35.7452 21.2425 36.943 22.4138C37.3512 22.8131 37.4362 23.308 37.2116 23.7717C36.9663 24.279 36.4161 24.6125 35.8762 24.5766C35.5343 24.5537 35.2676 24.3897 35.031 24.1592C34.1238 23.2768 33.1994 22.4103 32.3112 21.5113C32.0519 21.2497 31.9279 21.2995 31.6992 21.5268C30.7868 22.4352 29.8593 23.3291 28.9266 24.2182C28.5077 24.6175 28.0093 24.6899 27.5232 24.4615C27.0066 24.22 26.6783 23.71 26.7034 23.197C26.7212 22.8511 26.8974 22.5859 27.1435 22.3491C28.3334 21.2013 29.5196 20.0499 30.7061 18.8994C30.785 18.8232 30.858 18.7422 30.9725 18.6235C29.3542 18.46 27.8948 18.0749 26.6454 17.1306C26.4901 17.0131 26.3302 16.8998 26.1891 16.7681C25.6418 16.2605 25.5869 15.6787 26.0193 15.08C26.3898 14.5673 27.0109 14.4303 27.657 14.7249C27.7822 14.7815 27.9013 14.8533 28.0154 14.9293C30.3436 16.4759 33.5422 16.5183 35.8796 14.9984C36.111 14.8275 36.3587 14.6869 36.6456 14.616C37.203 14.4772 37.7235 14.6756 38.0224 15.1473C38.3646 15.6864 38.3606 16.2121 37.9392 16.6307Z" fill="#FF9800"/>
</svg>
