<svg width="53" height="53" viewBox="0 0 53 53" fill="none" xmlns="http://www.w3.org/2000/svg">
<path d="M40.3208 11.594C40.5408 11.3562 40.73 11.1055 40.8885 10.8403C41.453 9.8989 41.8783 8.31219 40.6976 6.10437C39.1206 3.15092 37.2298 1.65479 35.0786 1.65479C32.6006 1.65479 30.0289 3.67824 27.4312 7.67172C27.0988 8.18445 26.7875 8.69396 26.5004 9.18732C26.2134 8.69396 25.902 8.18445 25.5688 7.67172C22.9719 3.67824 20.3993 1.65479 17.9231 1.65479C15.7719 1.65479 13.8802 3.15092 12.3024 6.10437C11.1225 8.31219 11.5479 9.8989 12.1123 10.8403C12.2708 11.1055 12.4601 11.3562 12.68 11.594H0V27.052H3.31255V51.3446H20.9792H32.0216H49.6874V27.052H53V11.594H40.3208ZM20.9792 49.1351H5.5212V27.052H20.9792V49.1351ZM20.9792 24.8442H2.20864V13.8018H20.9792V24.8442ZM17.0917 11.594C15.5203 11.0958 14.4519 10.4488 14.0064 9.7048C13.8592 9.45895 13.412 8.71331 14.2506 7.14441C15.4143 4.96734 16.6501 3.8626 17.9231 3.8626C19.5526 3.8626 21.6052 5.63533 23.7022 8.85244C24.2958 9.76308 24.8215 10.6786 25.2558 11.4905C25.2388 11.5261 25.2219 11.56 25.2049 11.594H20.9793H17.0917ZM29.8121 49.1351H23.1879V13.8018H29.8121V49.1351ZM27.7969 11.594C27.7791 11.56 27.7613 11.5261 27.7451 11.4905C28.1785 10.6786 28.7042 9.76308 29.2978 8.85244C31.3956 5.63533 33.4482 3.8626 35.0786 3.8626C36.3499 3.8626 37.5857 4.96734 38.7502 7.14441C39.5881 8.71331 39.1416 9.46061 38.9944 9.7048C38.5496 10.4489 37.4805 11.0959 35.9099 11.594H32.0216H27.7969ZM47.4796 49.1351H32.0216V27.052H47.4796V49.1351ZM50.7922 24.8442H32.0216V13.8018H50.7922V24.8442Z" fill="#00A29D"/>
</svg>
