<svg width="53" height="53" viewBox="0 0 53 53" fill="none" xmlns="http://www.w3.org/2000/svg">
<g clip-path="url(#clip0)">
<path d="M49.4122 13.8287C49.4115 13.7901 49.409 13.7516 49.4046 13.7134C49.4032 13.7015 49.4022 13.6893 49.4004 13.6775C49.3935 13.631 49.3847 13.5848 49.3726 13.5395C49.371 13.5335 49.3687 13.5278 49.367 13.522C49.3558 13.4824 49.3423 13.4435 49.3271 13.4053C49.3222 13.3931 49.3169 13.3809 49.3116 13.3688C49.2965 13.3342 49.2797 13.3004 49.2613 13.2671C49.2566 13.2589 49.2525 13.2502 49.2477 13.2421C49.2234 13.2006 49.1966 13.1603 49.1671 13.1217C49.1649 13.1187 49.1621 13.1158 49.1598 13.1128C49.1332 13.0786 49.1043 13.0459 49.0737 13.0145C49.0653 13.0059 49.0566 12.9975 49.048 12.9891C49.021 12.9631 48.9927 12.9382 48.9629 12.9145C48.9537 12.9071 48.945 12.8994 48.9355 12.8923C48.8982 12.8642 48.8595 12.8375 48.8181 12.8135L27.1036 0.162955C26.7305 -0.0544405 26.2695 -0.0544405 25.8964 0.162955L4.18177 12.8134C4.1404 12.8375 4.10167 12.8641 4.06438 12.8922C4.05491 12.8993 4.04615 12.9071 4.03692 12.9144C4.00718 12.9381 3.97889 12.9629 3.95191 12.989C3.94315 12.9973 3.93452 13.0057 3.92612 13.0144C3.89555 13.0458 3.86665 13.0785 3.84003 13.1127C3.83763 13.1157 3.83499 13.1186 3.83272 13.1216C3.80322 13.1602 3.7766 13.2005 3.75214 13.242C3.74734 13.2501 3.74314 13.2588 3.73859 13.267C3.72012 13.3002 3.70333 13.3341 3.68822 13.3687C3.68295 13.3808 3.67767 13.3929 3.67276 13.4052C3.65753 13.4434 3.6441 13.4823 3.63283 13.5218C3.63115 13.5277 3.62887 13.5335 3.62731 13.5393C3.6152 13.5847 3.60633 13.6308 3.59949 13.6774C3.59781 13.6892 3.59673 13.7013 3.59529 13.7133C3.59086 13.7516 3.58834 13.79 3.58762 13.8286C3.5875 13.8355 3.58618 13.8424 3.58618 13.8494V39.1503C3.58618 39.5771 3.81293 39.9716 4.18165 40.1865L25.8963 52.8369C25.8998 52.839 25.9034 52.8402 25.9069 52.8421C25.9497 52.8665 25.9938 52.889 26.0397 52.908C26.0402 52.9083 26.0408 52.9084 26.0414 52.9086C26.0848 52.9266 26.1297 52.9414 26.1755 52.9542C26.1871 52.9574 26.1986 52.9603 26.2103 52.9632C26.2462 52.9721 26.2827 52.9793 26.3197 52.9849C26.3321 52.9868 26.3443 52.9891 26.3566 52.9905C26.4038 52.9962 26.4514 52.9999 26.4999 52.9999C26.5485 52.9999 26.5962 52.9962 26.6432 52.9905C26.6556 52.9891 26.6678 52.9868 26.6802 52.9849C26.7172 52.9793 26.7537 52.9721 26.7895 52.9632C26.8011 52.9603 26.8128 52.9576 26.8244 52.9542C26.8702 52.9414 26.9151 52.9266 26.9585 52.9086C26.9589 52.9084 26.9595 52.9083 26.9601 52.908C27.0061 52.889 27.0502 52.8665 27.093 52.8421C27.0965 52.8402 27.1001 52.8388 27.1036 52.8369L48.8182 40.1865C49.1869 39.9716 49.4137 39.5771 49.4137 39.1503V13.8494C49.4137 13.8425 49.4124 13.8358 49.4122 13.8287ZM26.4999 25.1123L18.0247 20.1748L37.3573 8.91203L45.8326 13.8495L26.4999 25.1123ZM26.4999 2.58681L34.9751 7.52432L15.6426 18.7871L7.1674 13.8495L26.4999 2.58681ZM47.0155 38.4612L27.699 49.7146V44.8462C27.699 44.1839 27.1622 43.6471 26.4999 43.6471C25.8377 43.6471 25.3008 44.1839 25.3008 44.8462V49.7146L5.98437 38.4612V15.9359L15.0526 21.2188C15.0532 21.2192 15.054 21.2195 15.0546 21.22L25.3008 27.1891V40.0498C25.3008 40.712 25.8377 41.2489 26.4999 41.2489C27.1622 41.2489 27.699 40.712 27.699 40.0498V27.1891L47.0155 15.9359V38.4612Z" fill="#00A29D"/>
<path d="M34.128 29.7231C34.3508 30.1055 34.7525 30.3189 35.1652 30.3189C35.3702 30.3189 35.5779 30.2663 35.7677 30.1557L40.1545 27.6C40.7267 27.2667 40.9203 26.5326 40.587 25.9604C40.2536 25.3882 39.5194 25.1946 38.9473 25.5279L34.5605 28.0835C33.9883 28.4169 33.7947 29.1509 34.128 29.7231Z" fill="#00A29D"/>
</g>
<defs>
<clipPath id="clip0">
<rect width="53" height="53" fill="white"/>
</clipPath>
</defs>
</svg>
