<svg width="15" height="15" viewBox="0 0 15 15" fill="none" xmlns="http://www.w3.org/2000/svg">
<path d="M1.5666 2.37095L6.69564 7.5L1.56659 12.6291C1.34447 12.8512 1.34447 13.2113 1.56659 13.4334C1.67763 13.5445 1.82338 13.6 1.96878 13.6C2.11419 13.6 2.2599 13.5445 2.37096 13.4334L2.37096 13.4334L7.49999 8.30438L12.629 13.4334C12.7401 13.5445 12.8858 13.6 13.0312 13.6C13.1766 13.6 13.3223 13.5445 13.4334 13.4334L13.4334 13.4334C13.6555 13.2113 13.6555 12.8512 13.4334 12.6291L8.30436 7.50003L13.4334 2.37094C13.6555 2.14882 13.6555 1.78869 13.4334 1.56659C13.2113 1.3445 12.8512 1.34446 12.6291 1.56659C12.6291 1.56659 12.6291 1.5666 12.6291 1.5666L7.49999 6.69567L2.37094 1.56659C2.14882 1.34447 1.78869 1.34447 1.56659 1.5666C1.3445 1.78871 1.34446 2.14883 1.56659 2.37094C1.56659 2.37094 1.56659 2.37095 1.5666 2.37095Z" fill="#3A706B" stroke="#3A706B" stroke-width="0.2"/>
<rect x="0.5" y="0.5" width="14" height="14" stroke="white"/>
</svg>
