<svg width="13" height="15" viewBox="0 0 13 15" fill="none" xmlns="http://www.w3.org/2000/svg">
<path d="M4.12135 4.63728L5.9456 2.85621V10.7453C5.9456 11.0438 6.19378 11.2861 6.49958 11.2861C6.80537 11.2861 7.05355 11.0438 7.05355 10.7453V2.85621L8.8778 4.63728C8.98583 4.74302 9.12764 4.79576 9.26946 4.79576C9.41128 4.79576 9.5531 4.74302 9.66112 4.63728C9.87745 4.42607 9.87745 4.08371 9.66112 3.8725L6.89124 1.16817C6.67519 0.956964 6.32396 0.956964 6.10791 1.16817L3.33803 3.8725C3.1217 4.08371 3.1217 4.42607 3.33803 4.63728C3.55408 4.84849 3.9053 4.84849 4.12135 4.63728Z" fill="#3A706B"/>
<path d="M11.4855 9.66357C11.1797 9.66357 10.9316 9.90588 10.9316 10.2044V12.3679C10.9316 12.6662 10.6831 12.9088 10.3776 12.9088H2.62189C2.31637 12.9088 2.06792 12.6662 2.06792 12.3679V10.2044C2.06792 9.90588 1.81973 9.66357 1.51394 9.66357C1.20814 9.66357 0.959961 9.90588 0.959961 10.2044V12.3679C0.959961 13.2628 1.70534 13.9905 2.62189 13.9905H10.3776C11.2941 13.9905 12.0395 13.2628 12.0395 12.3679V10.2044C12.0395 9.90588 11.7913 9.66357 11.4855 9.66357Z" fill="#3A706B"/>
</svg>
