<svg width="27" height="27" viewBox="0 0 27 27" fill="none" xmlns="http://www.w3.org/2000/svg">
<g clip-path="url(#clip0)">
<path d="M21.8053 8.06361C20.8934 3.48808 16.4449 0.518265 11.8694 1.4302C8.52282 2.09721 5.90609 4.7123 5.23702 8.05846C1.99282 8.43233 -0.334286 11.3653 0.0393869 14.6097C0.383396 17.5955 2.91238 19.8483 5.91803 19.8462H10.1417C10.6083 19.8462 10.9865 19.468 10.9865 19.0015C10.9865 18.5349 10.6083 18.1567 10.1417 18.1567H5.91803C3.58516 18.1429 1.70546 16.2407 1.71906 13.9081C1.73286 11.5754 3.63501 9.69549 5.96788 9.70908C6.39841 9.70929 6.76014 9.38526 6.80751 8.95741C7.23639 5.24973 10.5898 2.5918 14.2974 3.02068C17.4145 3.38137 19.8735 5.84011 20.234 8.95741C20.3048 9.39288 20.6822 9.71197 21.1235 9.70908C23.4563 9.70908 25.3474 11.6001 25.3474 13.933C25.3474 16.2657 23.4563 18.1567 21.1235 18.1567H16.8998C16.4332 18.1567 16.055 18.5349 16.055 19.0015C16.055 19.468 16.4332 19.8462 16.8998 19.8462H21.1237C24.3893 19.8258 27.0202 17.1621 27 13.8963C26.9815 10.9224 24.7572 8.42492 21.8053 8.06361Z" fill="#3A706B"/>
<path d="M16.5078 16.425C16.832 16.7608 17.3668 16.77 17.7024 16.4458C18.0379 16.1218 18.0472 15.587 17.7232 15.2514C17.7164 15.2442 17.7094 15.2374 17.7024 15.2306L14.1197 11.6472C13.7903 11.3168 13.2554 11.3161 12.925 11.6455C12.9246 11.6461 12.9239 11.6466 12.9235 11.6472L9.34089 15.2306C9.00532 15.5547 8.99605 16.0894 9.32008 16.425C9.64431 16.7606 10.1791 16.7698 10.5146 16.4458C10.5216 16.439 10.5286 16.432 10.5354 16.425L12.677 14.2827V24.9148C12.677 25.3814 13.0552 25.7596 13.5217 25.7596C13.9881 25.7596 14.3663 25.3814 14.3663 24.9148V14.2827L16.5078 16.425Z" fill="#3A706B"/>
</g>
<defs>
<clipPath id="clip0">
<rect width="27" height="27" fill="white"/>
</clipPath>
</defs>
</svg>
