<svg width="27" height="27" viewBox="0 0 26 26" fill="none" xmlns="http://www.w3.org/2000/svg">
<g clip-path="url(#clip0)">
<path d="M21.9202 12.1841C21.9202 11.7634 21.5791 11.4224 21.1585 11.4224C20.7378 11.4224 20.3967 11.7634 20.3967 12.1841C20.3967 16.2628 17.0784 19.5812 12.9996 19.5812C8.92089 19.5812 5.60254 16.2628 5.60254 12.1841C5.60254 11.7634 5.26149 11.4224 4.84082 11.4224C4.42015 11.4224 4.0791 11.7634 4.0791 12.1841C4.0791 16.8463 7.67441 20.684 12.2379 21.0717V24.4765H10.552C10.1314 24.4765 9.79032 24.8175 9.79032 25.2382C9.79032 25.6589 10.1314 25.9999 10.552 25.9999H15.4473C15.868 25.9999 16.2091 25.6589 16.2091 25.2382C16.2091 24.8175 15.868 24.4765 15.4473 24.4765H13.7614V21.0717C18.3249 20.6839 21.9202 16.8462 21.9202 12.1841Z" fill="white"/>
<path d="M12.9998 0C10.7803 0 8.97461 1.80573 8.97461 4.02528V12.1841C8.97461 14.4037 10.7803 16.2094 12.9998 16.2094C15.2194 16.2094 17.0252 14.4036 17.0252 12.1841V4.02528C17.0252 1.80573 15.2194 0 12.9998 0ZM15.5017 12.1841C15.5017 13.5637 14.3794 14.686 12.9998 14.686C11.6204 14.686 10.498 13.5637 10.498 12.1841V4.02528C10.498 2.64575 11.6204 1.52344 12.9998 1.52344C14.3794 1.52344 15.5017 2.64575 15.5017 4.02528V12.1841Z" fill="white"/>
</g>
<defs>
<clipPath id="clip0">
<rect width="26" height="26" fill="white"/>
</clipPath>
</defs>
</svg>
