<svg width="23" height="23" viewBox="0 0 23 23" fill="none" xmlns="http://www.w3.org/2000/svg">
<path d="M14.2785 0H19.2724C19.5831 0 19.8351 0.251947 19.8351 0.562691V22.4373C19.8351 22.7481 19.5831 23 19.2724 23H14.2785C13.9678 23 13.7158 22.7481 13.7158 22.4373V0.562691C13.7158 0.251947 13.9678 0 14.2785 0Z" fill="#3A706B"/>
<path d="M3.72773 0H8.72161C9.03236 0 9.28431 0.251947 9.28431 0.562691V22.4373C9.28431 22.7481 9.03236 23 8.72161 23H3.72773C3.41699 23 3.16504 22.7481 3.16504 22.4373V0.562691C3.16504 0.251947 3.41699 0 3.72773 0Z" fill="#3A706B"/>
</svg>
