<?xml version="1.0" encoding="utf-8"?>
<!-- Generator: Adobe Illustrator 22.0.1, SVG Export Plug-In . SVG Version: 6.00 Build 0)  -->
<svg version="1.1" id="Слой_1" xmlns="http://www.w3.org/2000/svg" xmlns:xlink="http://www.w3.org/1999/xlink" x="0px" y="0px"
	 viewBox="0 0 227.3 227.3" style="enable-background:new 0 0 227.3 227.3;" xml:space="preserve">
<style type="text/css">
	.st0{fill:#0052B3;}
	.st1{fill:#FFFFFF;}
	.st2{fill:#D70027;}
</style>
<g>
	<path class="st0" d="M227.3,104.7c0,6.1,0,12.1,0,18.2c-0.2,0.4-0.4,0.9-0.5,1.3c-1,9.9-3.2,19.6-6.7,28.9c-0.8,0-1.6,0-2.4,0
		c-65.7,0-131.4,0-197.1,0c-4.4,0-8.9,0-13.3,0c-1.9-7.4-4-14.7-5.8-22.1c-0.7-2.6-0.9-5.4-1.4-8.1c0-6.2,0-12.4,0-18.6
		c0.2-0.4,0.4-0.9,0.5-1.3C1.6,96.5,2.6,90.1,4,83.8c0.8-3.4,2.3-6.6,3.5-9.9c0.7,0,1.3,0.1,2,0.1c69.4,0,138.8,0,208.2,0
		c0.7,0,1.3-0.1,2-0.1c0.3,0.3,0.7,0.6,0.8,1c1.8,7.2,3.7,14.4,5.4,21.6C226.6,99.2,226.8,101.9,227.3,104.7z"/>
	<path class="st1" d="M219.7,73.9c-0.7,0-1.3,0.1-2,0.1c-69.4,0-138.8,0-208.2,0c-0.7,0-1.3-0.1-2-0.1c0.3-1.2,0.5-2.5,1-3.6
		c2.3-4.8,4.6-9.6,7.1-14.2c4.7-8.8,11-16.4,18-23.4c4.5-4.4,9.6-8.3,14.6-12.1c7.1-5.4,15-9.4,23.2-12.7
		c10.9-4.3,22.1-7.7,33.9-7.7c22.1,0,31.1,2,38,3.6c7.6,1.8,14.9,4.6,21.8,8.5c5.5,3.1,11.2,6.1,16.2,9.9
		c5.8,4.5,11.1,9.7,16.3,14.8c2.9,2.9,5.6,6.1,7.9,9.5c3.7,5.6,7.1,11.3,10.3,17.2C217.5,67,218.5,70.6,219.7,73.9z"/>
	<path class="st2" d="M7.2,153.1c4.4,0,8.9,0,13.3,0c65.7,0,131.4,0,197.1,0c0.8,0,1.6,0,2.4,0c-0.2,0.6-0.4,1.1-0.6,1.7
		c-7,17.9-17.8,33.1-32.5,45.5c-16.5,14-35.5,22.6-57,25.7c-11.9,1.7-26.6,0.8-27,0.8c-5-0.8-10-1.3-14.9-2.5
		c-20.4-4.7-38.2-14.3-53.3-28.9C22.4,183.4,13.1,169.3,7.2,153.1z"/>
</g>
</svg>
