<svg width="50" height="50" viewBox="0 0 50 50" fill="none" xmlns="http://www.w3.org/2000/svg">
<path d="M47.6562 12.5C47.4491 12.5 47.2503 12.5823 47.1038 12.7288C46.9573 12.8753 46.875 13.074 46.875 13.2813V41.4063H42.6328C37.6053 41.4067 32.5941 41.9776 27.6953 43.1078C27.388 43.1781 27.0666 43.1535 26.7737 43.0372C26.4807 42.9208 26.23 42.7182 26.0547 42.4563C28.844 40.7488 32.0507 39.8448 35.3211 39.8438H44.5312C44.7384 39.8438 44.9372 39.7614 45.0837 39.6149C45.2302 39.4684 45.3125 39.2697 45.3125 39.0625V33.5938C45.3125 33.3866 45.2302 33.1878 45.0837 33.0413C44.9372 32.8948 44.7384 32.8125 44.5312 32.8125C44.3241 32.8125 44.1253 32.8948 43.9788 33.0413C43.8323 33.1878 43.75 33.3866 43.75 33.5938V38.2813H35.3211C31.9776 38.2781 28.6905 39.1427 25.7812 40.7906V19.5313C25.7812 19.3241 25.6989 19.1253 25.5524 18.9788C25.4059 18.8323 25.2072 18.75 25 18.75C24.7928 18.75 24.5941 18.8323 24.4476 18.9788C24.3011 19.1253 24.2188 19.3241 24.2188 19.5313V40.7898C21.3095 39.1421 18.0224 38.2777 14.6789 38.2813H6.25V10.1563H18.2812C19.8563 10.1573 21.3665 10.7837 22.4799 11.8978C23.5933 13.0119 24.2188 14.5226 24.2188 16.0977C24.2188 16.3049 24.3011 16.5036 24.4476 16.6501C24.5941 16.7966 24.7928 16.8789 25 16.8789C25.2072 16.8789 25.4059 16.7966 25.5524 16.6501C25.6989 16.5036 25.7812 16.3049 25.7812 16.0977C25.7812 14.5226 26.4067 13.0119 27.5201 11.8978C28.6335 10.7837 30.1437 10.1573 31.7187 10.1563H43.75V30.4688C43.75 30.676 43.8323 30.8747 43.9788 31.0212C44.1253 31.1677 44.3241 31.25 44.5312 31.25C44.7384 31.25 44.9372 31.1677 45.0837 31.0212C45.2302 30.8747 45.3125 30.676 45.3125 30.4688V9.375C45.3125 9.1678 45.2302 8.96909 45.0837 8.82257C44.9372 8.67606 44.7384 8.59375 44.5312 8.59375H31.7187C30.3223 8.59479 28.9538 8.98515 27.7669 9.721C26.5801 10.4569 25.6219 11.509 25 12.7594C24.3781 11.509 23.4199 10.4569 22.2331 9.721C21.0462 8.98515 19.6777 8.59479 18.2812 8.59375H5.46875C5.26155 8.59375 5.06284 8.67606 4.91632 8.82257C4.76981 8.96909 4.6875 9.1678 4.6875 9.375V39.0625C4.6875 39.2697 4.76981 39.4684 4.91632 39.6149C5.06284 39.7614 5.26155 39.8438 5.46875 39.8438H14.6789C17.9499 39.8445 21.1571 40.7485 23.9469 42.4563C23.771 42.7176 23.5202 42.9196 23.2274 43.0359C22.9346 43.1522 22.6135 43.1773 22.3062 43.1078C17.407 41.9773 12.3952 41.4065 7.36719 41.4063H3.125V13.2813C3.125 13.074 3.04269 12.8753 2.89618 12.7288C2.74966 12.5823 2.55095 12.5 2.34375 12.5C2.13655 12.5 1.93784 12.5823 1.79132 12.7288C1.64481 12.8753 1.5625 13.074 1.5625 13.2813V42.1875C1.5625 42.3947 1.64481 42.5934 1.79132 42.7399C1.93784 42.8864 2.13655 42.9688 2.34375 42.9688H7.36719C12.2764 42.9695 17.1696 43.527 21.9531 44.6305C22.5031 44.7574 23.0772 44.7323 23.614 44.5578C24.1507 44.3833 24.6299 44.066 25 43.6398C25.37 44.0661 25.8492 44.3835 26.3859 44.558C26.9227 44.7326 27.4969 44.7576 28.0469 44.6305C32.8304 43.5272 37.7237 42.9697 42.6328 42.9688H47.6562C47.8634 42.9688 48.0622 42.8864 48.2087 42.7399C48.3552 42.5934 48.4375 42.3947 48.4375 42.1875V13.2813C48.4375 13.074 48.3552 12.8753 48.2087 12.7288C48.0622 12.5823 47.8634 12.5 47.6562 12.5Z" fill="white"/>
<path d="M22.4398 15.3227C21.2088 14.5005 19.7616 14.062 18.2812 14.0625H9.375C9.1678 14.0625 8.96909 14.1448 8.82257 14.2913C8.67606 14.4378 8.59375 14.6365 8.59375 14.8437C8.59375 15.0509 8.67606 15.2497 8.82257 15.3962C8.96909 15.5427 9.1678 15.625 9.375 15.625H18.2812C19.4543 15.6237 20.6013 15.9709 21.5766 16.6227C21.749 16.7376 21.96 16.7795 22.1632 16.7389C22.3664 16.6983 22.5452 16.5786 22.6602 16.4062C22.7752 16.2339 22.817 16.0228 22.7764 15.8196C22.7358 15.6164 22.6161 15.4377 22.4438 15.3227H22.4398Z" fill="white"/>
<path d="M40.6255 14.0625H31.7192C30.2376 14.0613 28.7889 14.4999 27.5567 15.3227C27.4714 15.3796 27.3981 15.4528 27.341 15.5381C27.2839 15.6233 27.2442 15.719 27.2241 15.8196C27.204 15.9203 27.2039 16.0239 27.2239 16.1245C27.2438 16.2252 27.2834 16.3209 27.3403 16.4063C27.3973 16.4916 27.4705 16.5649 27.5557 16.622C27.641 16.6791 27.7367 16.7188 27.8373 16.7389C27.9379 16.759 28.0415 16.7591 28.1422 16.7391C28.2428 16.7192 28.3386 16.6796 28.4239 16.6227C29.3993 15.9711 30.5462 15.6239 31.7192 15.625H40.6255C40.8327 15.625 41.0314 15.5427 41.1779 15.3962C41.3244 15.2497 41.4067 15.051 41.4067 14.8438C41.4067 14.6366 41.3244 14.4378 41.1779 14.2913C41.0314 14.1448 40.8327 14.0625 40.6255 14.0625Z" fill="white"/>
<path d="M22.4398 19.2289C21.2088 18.4068 19.7616 17.9683 18.2812 17.9688H9.375C9.1678 17.9688 8.96909 18.0511 8.82257 18.1976C8.67606 18.3441 8.59375 18.5428 8.59375 18.75C8.59375 18.9572 8.67606 19.1559 8.82257 19.3024C8.96909 19.4489 9.1678 19.5312 9.375 19.5312H18.2812C19.4543 19.5299 20.6013 19.8772 21.5766 20.5289C21.749 20.6439 21.96 20.6857 22.1632 20.6451C22.3664 20.6045 22.5452 20.4849 22.6602 20.3125C22.7752 20.1401 22.817 19.9291 22.7764 19.7259C22.7358 19.5227 22.6161 19.3439 22.4438 19.2289H22.4398Z" fill="white"/>
<path d="M40.6255 17.9688H31.7192C30.2376 17.9676 28.7889 18.4061 27.5567 19.2289C27.4714 19.2858 27.3981 19.359 27.341 19.4443C27.2839 19.5296 27.2442 19.6253 27.2241 19.7259C27.204 19.8265 27.2039 19.9301 27.2239 20.0308C27.2438 20.1314 27.2834 20.2271 27.3403 20.3125C27.3973 20.3979 27.4705 20.4712 27.5557 20.5282C27.641 20.5853 27.7367 20.625 27.8373 20.6451C27.9379 20.6652 28.0415 20.6653 28.1422 20.6454C28.2428 20.6254 28.3386 20.5858 28.4239 20.5289C29.3993 19.8774 30.5462 19.5301 31.7192 19.5313H40.6255C40.8327 19.5313 41.0314 19.4489 41.1779 19.3024C41.3244 19.1559 41.4067 18.9572 41.4067 18.75C41.4067 18.5428 41.3244 18.3441 41.1779 18.1976C41.0314 18.0511 40.8327 17.9688 40.6255 17.9688Z" fill="white"/>
<path d="M22.4398 23.1352C21.2088 22.313 19.7616 21.8745 18.2812 21.875H9.375C9.1678 21.875 8.96909 21.9573 8.82257 22.1038C8.67606 22.2503 8.59375 22.449 8.59375 22.6562C8.59375 22.8634 8.67606 23.0622 8.82257 23.2087C8.96909 23.3552 9.1678 23.4375 9.375 23.4375H18.2812C19.4543 23.4362 20.6013 23.7834 21.5766 24.4352C21.749 24.5501 21.96 24.592 22.1632 24.5514C22.3664 24.5108 22.5452 24.3911 22.6602 24.2187C22.7752 24.0464 22.817 23.8353 22.7764 23.6321C22.7358 23.4289 22.6161 23.2502 22.4438 23.1352H22.4398Z" fill="white"/>
<path d="M40.6255 21.875H31.7192C30.2376 21.8738 28.7889 22.3124 27.5567 23.1352C27.4714 23.1921 27.3981 23.2653 27.341 23.3506C27.2839 23.4358 27.2442 23.5315 27.2241 23.6321C27.204 23.7328 27.2039 23.8364 27.2239 23.937C27.2438 24.0377 27.2834 24.1334 27.3403 24.2188C27.3973 24.3041 27.4705 24.3774 27.5557 24.4345C27.641 24.4916 27.7367 24.5313 27.8373 24.5514C27.9379 24.5715 28.0415 24.5716 28.1422 24.5516C28.2428 24.5317 28.3386 24.4921 28.4239 24.4352C29.3993 23.7836 30.5462 23.4364 31.7192 23.4375H40.6255C40.8327 23.4375 41.0314 23.3552 41.1779 23.2087C41.3244 23.0622 41.4067 22.8635 41.4067 22.6563C41.4067 22.4491 41.3244 22.2503 41.1779 22.1038C41.0314 21.9573 40.8327 21.875 40.6255 21.875Z" fill="white"/>
<path d="M22.4398 27.0414C21.2088 26.2193 19.7616 25.7808 18.2812 25.7813H9.375C9.1678 25.7813 8.96909 25.8636 8.82257 26.0101C8.67606 26.1566 8.59375 26.3553 8.59375 26.5625C8.59375 26.7697 8.67606 26.9684 8.82257 27.1149C8.96909 27.2614 9.1678 27.3437 9.375 27.3437H18.2812C19.4543 27.3424 20.6013 27.6897 21.5766 28.3414C21.6619 28.3983 21.7577 28.4379 21.8583 28.4579C21.959 28.4778 22.0626 28.4777 22.1632 28.4576C22.2638 28.4375 22.3595 28.3978 22.4447 28.3407C22.53 28.2837 22.6032 28.2104 22.6602 28.125C22.7171 28.0396 22.7567 27.9439 22.7766 27.8433C22.7965 27.7426 22.7965 27.639 22.7764 27.5384C22.7563 27.4378 22.7166 27.3421 22.6595 27.2568C22.6024 27.1715 22.5291 27.0983 22.4438 27.0414H22.4398Z" fill="white"/>
<path d="M40.6255 25.7813H31.7192C30.2376 25.7801 28.7889 26.2186 27.5567 27.0414C27.3843 27.1564 27.2647 27.3352 27.2241 27.5384C27.1835 27.7416 27.2253 27.9526 27.3403 28.125C27.4553 28.2974 27.6341 28.417 27.8373 28.4576C28.0405 28.4982 28.2515 28.4564 28.4239 28.3414C29.3993 27.6899 30.5462 27.3426 31.7192 27.3438H40.6255C40.8327 27.3438 41.0314 27.2614 41.1779 27.1149C41.3244 26.9684 41.4067 26.7697 41.4067 26.5625C41.4067 26.3553 41.3244 26.1566 41.1779 26.0101C41.0314 25.8636 40.8327 25.7813 40.6255 25.7813Z" fill="white"/>
<path d="M22.4398 30.9477C21.2088 30.1255 19.7616 29.687 18.2812 29.6875H9.375C9.1678 29.6875 8.96909 29.7698 8.82257 29.9163C8.67606 30.0628 8.59375 30.2616 8.59375 30.4688C8.59375 30.676 8.67606 30.8747 8.82257 31.0212C8.96909 31.1677 9.1678 31.25 9.375 31.25H18.2812C19.4543 31.2487 20.6013 31.5959 21.5766 32.2477C21.749 32.3627 21.96 32.4045 22.1632 32.3639C22.3664 32.3233 22.5452 32.2036 22.6602 32.0313C22.7752 31.8589 22.817 31.6479 22.7764 31.4446C22.7358 31.2414 22.6161 31.0627 22.4438 30.9477H22.4398Z" fill="white"/>
<path d="M40.6255 29.6875H31.7192C30.2376 29.6863 28.7889 30.1249 27.5567 30.9477C27.4714 31.0046 27.3981 31.0778 27.341 31.1631C27.2839 31.2483 27.2442 31.344 27.2241 31.4446C27.204 31.5453 27.2039 31.6488 27.2239 31.7495C27.2438 31.8501 27.2834 31.9459 27.3403 32.0312C27.4553 32.2036 27.6341 32.3233 27.8373 32.3639C27.9379 32.384 28.0415 32.384 28.1422 32.3641C28.2428 32.3442 28.3386 32.3046 28.4239 32.2477C29.3993 31.5961 30.5462 31.2489 31.7192 31.25H40.6255C40.8327 31.25 41.0314 31.1677 41.1779 31.0212C41.3244 30.8747 41.4067 30.6759 41.4067 30.4688C41.4067 30.2616 41.3244 30.0628 41.1779 29.9163C41.0314 29.7698 40.8327 29.6875 40.6255 29.6875Z" fill="white"/>
<path d="M18.2812 33.5938H9.375C9.1678 33.5938 8.96909 33.6761 8.82257 33.8226C8.67606 33.9691 8.59375 34.1678 8.59375 34.375C8.59375 34.5822 8.67606 34.7809 8.82257 34.9274C8.96909 35.0739 9.1678 35.1563 9.375 35.1563H18.2812C19.4543 35.1549 20.6013 35.5022 21.5766 36.1539C21.6619 36.2108 21.7577 36.2504 21.8583 36.2704C21.959 36.2903 22.0626 36.2902 22.1632 36.2701C22.2638 36.25 22.3595 36.2103 22.4447 36.1532C22.53 36.0962 22.6032 36.0229 22.6602 35.9375C22.7171 35.8521 22.7567 35.7564 22.7766 35.6558C22.7965 35.5551 22.7965 35.4515 22.7764 35.3509C22.7563 35.2503 22.7166 35.1546 22.6595 35.0693C22.6024 34.984 22.5291 34.9108 22.4438 34.8539C21.2116 34.0311 19.7629 33.5925 18.2812 33.5938Z" fill="white"/>
<path d="M40.6255 33.5938H31.7192C30.2376 33.5926 28.7889 34.0311 27.5567 34.8539C27.4714 34.9108 27.3981 34.984 27.341 35.0693C27.2839 35.1546 27.2442 35.2503 27.2241 35.3509C27.204 35.4515 27.2039 35.5551 27.2239 35.6557C27.2438 35.7564 27.2834 35.8521 27.3403 35.9375C27.3973 36.0229 27.4705 36.0962 27.5557 36.1532C27.641 36.2103 27.7367 36.25 27.8373 36.2701C27.9379 36.2902 28.0415 36.2903 28.1422 36.2704C28.2428 36.2504 28.3386 36.2108 28.4239 36.1539C29.3993 35.5024 30.5462 35.1551 31.7192 35.1562H40.6255C40.8327 35.1562 41.0314 35.0739 41.1779 34.9274C41.3244 34.7809 41.4067 34.5822 41.4067 34.375C41.4067 34.1678 41.3244 33.9691 41.1779 33.8226C41.0314 33.6761 40.8327 33.5938 40.6255 33.5938Z" fill="white"/>
</svg>
