<?xml version="1.0" encoding="utf-8"?>
<!-- Generator: Adobe Illustrator 22.0.1, SVG Export Plug-In . SVG Version: 6.00 Build 0)  -->
<svg version="1.1" id="Слой_1" xmlns="http://www.w3.org/2000/svg" xmlns:xlink="http://www.w3.org/1999/xlink" x="0px" y="0px"
	 viewBox="0 0 227.3 227.3" style="enable-background:new 0 0 227.3 227.3;" xml:space="preserve">
<style type="text/css">
	.st0{fill:#FFFFFF;}
</style>
<path class="st0" d="M142.5,159.2c-6.4,3.2-12.4,6.4-18.5,9.3c-7.2,3.3-15,4.8-22.8,5.8c-17.5,2.1-34.1-1-49.8-8.8
	c-7-3.4-13.2-7.9-19-13.1c-7.2-6.4-13.1-13.9-17.8-22.3c-5-9-8-18.7-9.5-28.9C3.2,87.8,4.6,74.8,8.9,62c3.4-10.1,8.8-19.2,15.7-27.3
	c5.2-6.1,11.2-11.2,17.8-15.7c9.1-6.3,19.3-10.3,30.1-12.5c22.1-4.7,43-1.4,62.5,9.7c16.3,9.3,28.4,22.6,35.9,39.7
	c6.8,15.5,8.8,31.7,5.7,48.5c-2.5,14.1-8.2,26.8-17.2,37.9c-0.5,0.6-0.9,1.2-0.4,1c6.9,7.3,13.7,14.8,20.8,22
	c9.1,9.2,18.4,18.2,27.7,27.2c4,4,8.1,7.9,12.2,11.8c4.4,4.4,4.5,9.4,0,13.6c-1.9,1.8-4,3.5-6.3,4.5c-3.3,1.4-6.3,0-8.8-2.4
	c-10.3-10.2-20.7-20.3-31-30.4c-8-7.9-16.1-15.7-24.2-23.5C147,163.6,144.6,161.3,142.5,159.2z M156.7,89.6c-0.6-4.7-0.9-9.5-2-14.1
	c-3-12.8-9.5-23.6-19.2-32.5c-7.8-7.2-16.9-12.2-27-14.8c-13.4-3.4-26.9-3.1-40,1.8c-11.4,4.2-21,10.9-28.5,20.4
	C28.7,64.6,24.3,80.7,26.8,98.7c1.9,14,8.2,25.8,18.1,35.7c7.2,7.2,15.8,12.2,25.5,15.5c11.3,3.9,22.9,4.3,34.3,1.9
	c18.2-3.9,32.5-13.7,42.3-29.8C153.2,112,156.4,101.3,156.7,89.6z"/>
</svg>
