<svg width="228" height="228" viewBox="0 0 228 228" fill="none" xmlns="http://www.w3.org/2000/svg">
<path d="M142.5 159.2C136.1 162.4 130.1 165.6 124 168.5C116.8 171.8 109 173.3 101.2 174.3C83.7 176.4 67.1 173.3 51.4 165.5C44.4 162.1 38.2 157.6 32.4 152.4C25.2 146 19.3 138.5 14.6 130.1C9.60003 121.1 6.60003 111.4 5.10003 101.2C3.20003 87.7999 4.60003 74.7999 8.90003 61.9999C12.3 51.8999 17.7 42.7999 24.6 34.6999C29.8 28.5999 35.8 23.4999 42.4 18.9999C51.5 12.6999 61.7 8.69986 72.5 6.49986C94.6 1.79986 115.5 5.09986 135 16.1999C151.3 25.4999 163.4 38.7999 170.9 55.8999C177.7 71.3999 179.7 87.5999 176.6 104.4C174.1 118.5 168.4 131.2 159.4 142.3C158.9 142.9 158.5 143.5 159 143.3C165.9 150.6 172.7 158.1 179.8 165.3C188.9 174.5 198.2 183.5 207.5 192.5C211.5 196.5 215.6 200.4 219.7 204.3C224.1 208.7 224.2 213.7 219.7 217.9C217.8 219.7 215.7 221.4 213.4 222.4C210.1 223.8 207.1 222.4 204.6 220C194.3 209.8 183.9 199.7 173.6 189.6C165.6 181.7 157.5 173.9 149.4 166.1C147 163.6 144.6 161.3 142.5 159.2ZM156.7 89.5999C156.1 84.8999 155.8 80.0999 154.7 75.4999C151.7 62.6999 145.2 51.8999 135.5 42.9999C127.7 35.7999 118.6 30.7999 108.5 28.1999C95.1 24.7999 81.6 25.0999 68.5 29.9999C57.1 34.1999 47.5 40.8999 40 50.3999C28.7 64.5999 24.3 80.6999 26.8 98.6999C28.7 112.7 35 124.5 44.9 134.4C52.1 141.6 60.7 146.6 70.4 149.9C81.7 153.8 93.3 154.2 104.7 151.8C122.9 147.9 137.2 138.1 147 122C153.2 112 156.4 101.3 156.7 89.5999Z" fill="#469C8F"/>
</svg>
