<svg width="33" height="38" viewBox="0 0 33 38" fill="none" xmlns="http://www.w3.org/2000/svg">
<path d="M30.4333 10.2767H26.9333V3.2194C26.9333 2.54601 26.4408 2 25.8333 2H7.16674C6.55927 2 6.06671 2.54593 6.06671 3.2194V10.2767H2.56665C1.15139 10.2767 0 11.5531 0 13.122V25.3897C0 26.9586 1.15139 28.235 2.56665 28.235H6.06684V34.7806C6.06684 35.454 6.55933 36 7.16687 36H25.8331C26.4406 36 26.9332 35.4541 26.9332 34.7806V28.235H30.4333C31.8486 28.235 33 26.9586 33 25.3897V13.122C33 11.5532 31.8486 10.2767 30.4333 10.2767ZM8.26669 4.43881H24.7333V10.2767H8.26669V4.43881ZM24.7331 33.5612H8.26689C8.26689 33.3229 8.26689 23.8798 8.26689 23.585H24.7332C24.7331 23.8872 24.7331 33.3321 24.7331 33.5612ZM25.8333 17.4369H23.0332C22.4258 17.4369 21.9332 16.8909 21.9332 16.2175C21.9332 15.544 22.4257 14.9981 23.0332 14.9981H25.8333C26.4407 14.9981 26.9333 15.544 26.9333 16.2175C26.9333 16.8909 26.4409 17.4369 25.8333 17.4369Z" fill="#6D6D6D"/>
</svg>
