<svg xmlns="http://www.w3.org/2000/svg" viewBox="0 0 23 23"><defs><style>.cls-1{fill:none;}.cls-2{fill:#fff;}</style></defs><title>Ресурс 5</title><g id="Слой_2" data-name="Слой 2"><g id="Слой_1-2" data-name="Слой 1"><path class="cls-1" d="M11.5,0A11.5,11.5,0,1,0,23,11.5,11.5,11.5,0,0,0,11.5,0Z"/><path class="cls-2" d="M14.3,14.32a7.88,7.88,0,0,1-2,.45l.21.23,2.77,2.78a.91.91,0,0,1,.21,1.07,1.08,1.08,0,0,1-1,.64,1,1,0,0,1-.65-.33c-.69-.7-1.4-1.39-2.08-2.1-.2-.21-.3-.17-.47,0-.7.72-1.41,1.43-2.13,2.14a.89.89,0,0,1-1.07.19,1.08,1.08,0,0,1-.63-1,1,1,0,0,1,.34-.67L10.51,15l.2-.22a6.23,6.23,0,0,1-3.32-1.18L7,13.3a1,1,0,0,1,1.13-1.62,1.56,1.56,0,0,1,.28.16,5.43,5.43,0,0,0,6,.06,1.67,1.67,0,0,1,.59-.31.93.93,0,0,1,1.06.42.89.89,0,0,1-.07,1.18A4.71,4.71,0,0,1,14.3,14.32Z"/><path class="cls-2" d="M11.52,3.5a4.05,4.05,0,1,0,4,4.1A4.05,4.05,0,0,0,11.52,3.5Zm0,6a2,2,0,1,1,2-2A2,2,0,0,1,11.51,9.53Z"/></g></g></svg>