<svg width="34" height="34" viewBox="0 0 34 34" fill="none" xmlns="http://www.w3.org/2000/svg">
<ellipse cx="17.0008" cy="17" rx="13.0769" ry="13.0769" fill="#fff"/>
<path d="M17 0C7.60606 0 0 7.60606 0 17C0 26.3939 7.60606 34 17 34C26.3939 34 34 26.3939 34 17C34 7.60606 26.3939 0 17 0ZM26.7273 24.4545L23.7576 24.4848C23.7576 24.4848 23.1212 24.6061 22.2727 24.0303C21.1515 23.2727 20.0909 21.2727 19.2727 21.5455C18.4545 21.8182 18.4848 23.6061 18.4848 23.6061C18.4848 23.6061 18.4848 24 18.303 24.1818C18.0909 24.3939 17.697 24.4545 17.697 24.4545H16.3636C16.3636 24.4545 13.4242 24.6364 10.8182 21.9394C8 19 5.48485 13.1515 5.48485 13.1515C5.48485 13.1515 5.33333 12.7576 5.48485 12.5758C5.66667 12.3636 6.15152 12.3636 6.15152 12.3636L9.33333 12.3333C9.33333 12.3333 9.63636 12.3939 9.84848 12.5455C10.0303 12.6667 10.1212 12.9091 10.1212 12.9091C10.1212 12.9091 10.6364 14.2121 11.3333 15.3939C12.6667 17.697 13.2727 18.2121 13.7273 17.9394C14.3939 17.5758 14.1818 14.697 14.1818 14.697C14.1818 14.697 14.1818 13.6364 13.8485 13.1818C13.5758 12.8182 13.0909 12.7273 12.8485 12.697C12.6667 12.6667 12.9697 12.2424 13.3333 12.0606C13.9091 11.7879 14.9091 11.7576 16.1212 11.7879C17.0606 11.7879 17.3333 11.8485 17.697 11.9394C18.7879 12.2121 18.4242 13.2424 18.4242 15.697C18.4242 16.4848 18.2727 17.6061 18.8485 17.9697C19.0909 18.1212 19.697 18 21.1818 15.4545C21.8788 14.2424 22.4242 12.8485 22.4242 12.8485C22.4242 12.8485 22.5455 12.6061 22.7273 12.4848C22.9091 12.3636 23.1515 12.3939 23.1515 12.3939L26.5152 12.3636C26.5152 12.3636 27.5152 12.2424 27.697 12.697C27.8788 13.1818 27.3333 14.303 25.9394 16.1212C23.697 19.1212 23.4242 18.8485 25.303 20.5758C27.0909 22.2424 27.4545 23.0303 27.5152 23.1515C28.303 24.3636 26.7273 24.4545 26.7273 24.4545Z" fill="#4C75A3"/>
</svg>
