<svg width="15" height="15" viewBox="0 0 15 15" fill="none" xmlns="http://www.w3.org/2000/svg">
<path d="M12.0215 10.3125C10.7297 10.3125 9.67773 11.3638 9.67773 12.6562C9.67773 13.9487 10.7297 15 12.0215 15C13.3134 15 14.3652 13.9487 14.3652 12.6562C14.3652 11.3638 13.3134 10.3125 12.0215 10.3125ZM12.0215 14.0625C11.2465 14.0625 10.6152 13.4319 10.6152 12.6562C10.6152 11.8806 11.2465 11.25 12.0215 11.25C12.7965 11.25 13.4277 11.8806 13.4277 12.6562C13.4277 13.4319 12.7965 14.0625 12.0215 14.0625Z" fill="white"/>
<path d="M12.0215 0C10.7297 0 9.67773 1.05125 9.67773 2.34375C9.67773 3.63625 10.7297 4.6875 12.0215 4.6875C13.3134 4.6875 14.3652 3.63625 14.3652 2.34375C14.3652 1.05125 13.3134 0 12.0215 0ZM12.0215 3.75C11.2465 3.75 10.6152 3.11943 10.6152 2.34375C10.6152 1.56807 11.2465 0.9375 12.0215 0.9375C12.7965 0.9375 13.4277 1.56807 13.4277 2.34375C13.4277 3.11943 12.7965 3.75 12.0215 3.75Z" fill="white"/>
<path d="M2.95898 5.15625C1.66706 5.15625 0.615234 6.2075 0.615234 7.5C0.615234 8.7925 1.66706 9.84375 2.95898 9.84375C4.25091 9.84375 5.30273 8.7925 5.30273 7.5C5.30273 6.2075 4.25091 5.15625 2.95898 5.15625ZM2.95898 8.90625C2.18399 8.90625 1.55273 8.27568 1.55273 7.5C1.55273 6.72432 2.18399 6.09375 2.95898 6.09375C3.73398 6.09375 4.36523 6.72432 4.36523 7.5C4.36523 8.27568 3.73398 8.90625 2.95898 8.90625Z" fill="white"/>
<path d="M4.59074 7.9563C4.42754 7.9563 4.26881 8.04133 4.18321 8.1925C4.05504 8.41749 4.1332 8.70383 4.35819 8.83189L10.1576 12.1382C10.3819 12.2675 10.6688 12.1888 10.7963 11.9631C10.9245 11.7381 10.8463 11.4519 10.6213 11.3237L4.82191 8.01752C4.74878 7.97633 4.66947 7.9563 4.59074 7.9563Z" fill="white"/>
<path d="M10.3898 2.80009C10.3111 2.80009 10.2317 2.82011 10.1585 2.86188L4.35912 6.16819C4.13413 6.29625 4.05608 6.58258 4.18414 6.80757C4.31162 7.03313 4.59796 7.11129 4.82295 6.98255L10.6222 3.67636C10.8472 3.54818 10.9254 3.26197 10.7973 3.03698C10.711 2.88511 10.5523 2.80009 10.3898 2.80009Z" fill="white"/>
</svg>
