<svg width="34" height="34" viewBox="0 0 34 34" fill="none" xmlns="http://www.w3.org/2000/svg">
<circle cx="17" cy="17" r="17" fill="#3B5980"/>
<circle cx="17" cy="17" r="13" fill="#fff"/>
<path d="M17 3C9.26381 3 3 9.26381 3 17C3 24.7362 9.26381 31 17 31C24.7362 31 31 24.7362 31 17C31 9.26381 24.7362 3 17 3ZM20.8681 11.5597H18.8217C18.4973 11.5597 18.0232 11.7344 18.0232 12.4332V14.3298H20.8431L20.5187 17.549H18.0232V26.7077H14.2299V17.549H12.4332V14.3298H14.2299V12.2585C14.2299 10.7611 14.9287 8.44029 18.0481 8.44029H20.8431V11.5597H20.8681Z" fill="#3B5980"/>
</svg>
