<svg xmlns="http://www.w3.org/2000/svg" viewBox="0 0 23 23"><defs><style>.cls-1{fill:none;}.cls-2{fill:#fff;}</style></defs><title>Ресурс 6</title><g id="Слой_2" data-name="Слой 2"><g id="Слой_1-2" data-name="Слой 1"><path class="cls-1" d="M11.5,0A11.5,11.5,0,1,0,23,11.5,11.5,11.5,0,0,0,11.5,0Z"/><path class="cls-2" d="M18.08,16.54l-2,0a1.41,1.41,0,0,1-1-.3c-.76-.52-1.48-1.87-2-1.69S12.5,16,12.5,16a.66.66,0,0,1-.12.39.86.86,0,0,1-.41.18h-.9a5.15,5.15,0,0,1-3.75-1.7A24.76,24.76,0,0,1,3.71,8.9s-.1-.27,0-.39.45-.15.45-.15l2.15,0a.94.94,0,0,1,.35.15.54.54,0,0,1,.19.24,14.07,14.07,0,0,0,.82,1.68C8.57,12,9,12.32,9.29,12.14s.3-2.2.3-2.2a2.28,2.28,0,0,0-.22-1,1,1,0,0,0-.68-.33c-.12,0,.08-.31.33-.43A4.7,4.7,0,0,1,10.91,8,3.54,3.54,0,0,1,12,8.08c.74.18.49.88.49,2.54,0,.53-.1,1.29.29,1.54.16.1.57,0,1.58-1.71a15.53,15.53,0,0,0,.84-1.76.72.72,0,0,1,.2-.24.46.46,0,0,1,.29-.07l2.28,0s.67-.08.8.23-.25,1.09-1.19,2.32c-1.52,2-1.7,1.84-.43,3a6.35,6.35,0,0,1,1.49,1.74C19.15,16.48,18.08,16.54,18.08,16.54Z"/></g></g></svg>