<svg width="34" height="34" viewBox="0 0 34 34" fill="none" xmlns="http://www.w3.org/2000/svg">
<mask id="path-1-inside-1" fill="white">
<rect x="4" y="8" width="26" height="18" rx="1"/>
</mask>
<rect x="4" y="8" width="26" height="18" rx="1" stroke="#6D6D6D" stroke-width="4" mask="url(#path-1-inside-1)"/>
<path d="M27.5858 9.5C28.0312 9.5 28.2543 10.0386 27.9393 10.3536L17.3536 20.9393C17.1583 21.1346 16.8417 21.1346 16.6464 20.9393L6.06066 10.3536C5.74568 10.0386 5.96876 9.5 6.41421 9.5H27.5858Z" fill="white" stroke="#6D6D6D"/>
<path d="M17 0C7.61708 0 0 7.61708 0 17C0 26.3829 7.61708 34 17 34C26.3829 34 34 26.3829 34 17C34 7.61708 26.3979 0 17 0ZM28.463 25.3653H5.55194C5.02817 25.3653 4.60916 24.9463 4.60916 24.4225V9.59243C4.60916 9.06866 5.02817 8.64965 5.55194 8.64965H28.463C28.9868 8.64965 29.4058 9.06866 29.4058 9.59243V24.4225C29.4058 24.9313 28.9868 25.3653 28.463 25.3653Z" fill="#6D6D6D"/>
</svg>
