<svg width="47" height="47" viewBox="0 0 47 47" fill="none" xmlns="http://www.w3.org/2000/svg">
<g clip-path="url(#clip0)">
<path d="M4.32298 33.3326H6.63216V35.3053C6.63216 38.7174 9.40805 41.4933 12.8201 41.4933C13.6334 41.4933 14.295 42.1549 14.295 42.9678V44.7306C14.295 45.4594 14.8879 46.0526 15.617 46.0526H18.846C19.2166 46.0526 19.5167 45.7521 19.5167 45.3818C19.5167 45.0112 19.2166 44.7111 18.846 44.7111H15.6365V42.9678C15.6365 41.415 14.3729 40.1518 12.8201 40.1518C10.148 40.1518 7.97399 37.9774 7.97399 35.3053V33.2746C7.97399 32.5668 7.39792 31.9907 6.69015 31.9907H4.32298C3.93381 31.9907 3.73958 31.5226 4.01521 31.2473L5.66098 29.6015C7.15233 28.1098 7.97399 26.1266 7.97399 24.0169V22.2401C7.97399 17.147 11.2998 12.7998 16.0638 11.4136L15.9272 11.6613C15.6093 12.2373 16.0281 12.9444 16.6846 12.9444H19.5799V20.6897C19.5799 21.575 20.7733 21.8852 21.2023 21.1079C21.654 20.289 25.24 13.7905 25.6924 12.971C27.2184 14.0309 28.4526 15.4408 29.3008 17.096L25.1485 21.8583C24.4921 22.6111 25.2739 23.6511 26.1403 23.234L30.4868 21.1411C30.5221 21.5058 30.5399 21.8733 30.5399 22.2405V26.4162L26.7069 26.9011C25.8514 27.0091 25.7225 28.187 26.504 28.4976L30.2528 29.9883C29.8343 31.8084 28.9651 33.5009 27.7204 34.9116C26.475 36.3226 25.7892 38.201 25.7892 40.2007V44.7111H21.9764C21.6058 44.7111 21.3057 45.0115 21.3057 45.3818C21.3057 45.7525 21.6058 46.0526 21.9764 46.0526H25.799C26.5333 46.0526 27.1307 45.4552 27.1307 44.7209V40.2007C27.1307 38.528 27.6973 36.965 28.7261 35.7993C30.0732 34.2726 31.0269 32.4501 31.5118 30.4889L36.0959 32.3114C36.6849 32.5458 37.3064 32.0585 37.2275 31.4349L36.9424 29.1806L43.167 28.3935C44.0163 28.2863 44.1637 27.1125 43.3696 26.7967L33.778 22.9828C33.1922 22.7498 32.5672 23.2323 32.6465 23.8594L32.9316 26.1133L31.8818 26.2464V22.2401C31.8818 21.6669 31.8423 21.0918 31.7654 20.5252L39.9621 16.5783C40.5553 16.2925 40.709 15.4964 40.2276 15.0768L38.0453 13.1739L44.7255 5.51279C45.3819 4.75996 44.6 3.71995 43.7337 4.13707L29.9118 10.7928C29.319 11.0786 29.1653 11.8744 29.6467 12.2939L31.8287 14.1972L30.242 16.0169C29.2844 14.3268 27.9558 12.8868 26.3429 11.7926L27.2463 10.1556C27.5635 9.57952 27.1447 8.8728 26.4886 8.8728H23.5932V7.49009C23.5932 7.11978 23.2931 6.81935 22.9225 6.81935C22.5518 6.81935 22.2517 7.11978 22.2517 7.49009V9.3493C22.2517 9.82616 22.6395 10.2143 23.1167 10.2143H25.6813L24.8662 11.6917L20.9218 18.8396V12.4679C20.9218 11.9907 20.5336 11.6026 20.0564 11.6026H17.4919L22.2517 2.97725V4.35996C22.2517 4.73026 22.5518 5.0307 22.9225 5.0307C23.2931 5.0307 23.5932 4.73026 23.5932 4.35996V1.12711C23.5932 0.23838 22.4016 -0.0711394 21.9709 0.709298L16.9378 9.82965C14.1315 10.3519 11.5684 11.8244 9.69102 14.0015C7.71862 16.289 6.6325 19.2148 6.6325 22.2401V24.0169C6.6325 25.7682 5.95058 27.4143 4.71215 28.6527L3.06674 30.2985C1.93521 31.4293 2.75757 33.3326 4.32298 33.3326V33.3326ZM33.6061 27.3804C34.061 27.3231 34.3838 26.9063 34.3265 26.4518L34.0858 24.5493L41.0325 27.3112L36.2675 27.9139C35.813 27.9715 35.4902 28.3879 35.5475 28.8428L35.7882 30.7453L28.8414 27.9834C29.5869 27.8887 32.9225 27.467 33.6061 27.3804ZM39.3459 16.0882C39.3455 16.0882 39.3455 16.0878 39.3452 16.0878L39.3459 16.0882ZM33.1164 14.7614C33.4514 14.3771 33.4322 13.815 33.0696 13.4992L31.0468 11.7353L42.2046 6.3624L36.7576 12.6094C36.424 12.9919 36.4449 13.5582 36.8044 13.8719L38.8271 15.6358L27.6694 21.0087C28.3066 20.2775 32.4924 15.4772 33.1164 14.7614V14.7614Z" fill="white"/>
</g>
<defs>
<clipPath id="clip0">
<rect x="0.841797" y="0.263184" width="45.7895" height="45.7895" fill="white"/>
</clipPath>
</defs>
</svg>
