<svg width="46" height="46" viewBox="0 0 46 46" fill="none" xmlns="http://www.w3.org/2000/svg">
<g clip-path="url(#clip0)">
<path d="M11.293 11.3193C10.797 11.3193 10.3945 11.7218 10.3945 12.2178C10.3945 12.7137 10.797 13.1162 11.293 13.1162C11.7889 13.1162 12.1914 12.7137 12.1914 12.2178C12.1914 11.7218 11.7889 11.3193 11.293 11.3193Z" fill="white"/>
<path d="M19.3785 28.1194H16.6833V25.4243C16.6833 24.9282 16.281 24.5259 15.7849 24.5259C15.2888 24.5259 14.8865 24.9282 14.8865 25.4243V28.1194H12.1914C11.6953 28.1194 11.293 28.5218 11.293 29.0178C11.293 29.5138 11.6953 29.9162 12.1914 29.9162H14.8865V32.6114C14.8865 33.1075 15.2889 33.5098 15.7849 33.5098C16.2809 33.5098 16.6833 33.1075 16.6833 32.6114V29.9162H19.3785C19.8746 29.9162 20.2769 29.5139 20.2769 29.0178C20.2769 28.5217 19.8747 28.1194 19.3785 28.1194Z" fill="white"/>
<path d="M43.6257 28.9283C41.6397 25.4885 37.2485 24.3113 33.8081 26.2977L30.1588 28.4046V20.6029C30.1588 19.6384 29.8399 18.6813 29.2605 17.9077L24.7685 11.9187V9.36837C25.8141 8.99749 26.5653 7.99897 26.5653 6.82768V2.69513C26.5651 1.20903 25.3561 0 23.87 0H7.69895C6.21284 0 5.00373 1.20903 5.00373 2.69513V6.82777C5.00373 7.99888 5.75491 8.99758 6.80051 9.36846V11.9188L2.30823 17.9082C1.7291 18.6814 1.41016 19.6384 1.41016 20.6029V38.002C1.41016 40.4789 3.42526 42.4939 5.90207 42.4939H20.3401C22.3545 45.8705 26.6981 47.0006 30.1029 45.0346L40.9952 38.7458C44.4052 36.7766 45.6216 32.3868 43.6257 28.9283ZM6.80051 2.69513C6.80051 2.19973 7.20355 1.7967 7.69886 1.7967H23.8699C24.3653 1.7967 24.7684 2.19973 24.7684 2.69513V6.82777C24.7684 7.32316 24.3653 7.72611 23.8699 7.72611H7.69895C7.20355 7.72611 6.8006 7.32307 6.8006 6.82777V2.69513H6.80051ZM3.74609 18.9857L8.41761 12.7572C8.53423 12.6018 8.5973 12.4125 8.5973 12.2181V9.52299H22.9716V11.3198H14.8861C14.39 11.3198 13.9877 11.7221 13.9877 12.2182C13.9877 12.7143 14.39 13.1166 14.8861 13.1166H23.4208L27.8225 18.9854C28.1102 19.3695 28.2889 19.8291 28.3429 20.3038H3.22608C3.27998 19.829 3.45868 19.3694 3.74609 18.9857ZM5.90216 40.6972C4.41606 40.6972 3.20703 39.4881 3.20703 38.002V37.0947H19.5294C19.2445 38.2595 19.2464 39.5037 19.5726 40.6972H5.90216V40.6972ZM20.234 35.3068H3.20694V22.1004H28.3619V29.4418L22.9157 32.5865C21.7802 33.2425 20.8623 34.1762 20.234 35.3068ZM29.2047 43.4785C26.6264 44.9673 23.3319 44.0869 21.8421 41.5068C20.3452 38.9019 21.2523 35.6222 23.8143 34.1424L28.6908 31.3269L34.0811 40.663L29.2047 43.4785ZM40.0968 37.1898L35.6372 39.7647L30.2468 30.4284L34.7064 27.8538C37.2864 26.3644 40.5798 27.2464 42.0696 29.8265C43.5659 32.4196 42.656 35.712 40.0968 37.1898Z" fill="white"/>
</g>
<defs>
<clipPath id="clip0">
<rect width="46" height="46" fill="white"/>
</clipPath>
</defs>
</svg>
