<svg width="47" height="47" viewBox="0 0 47 47" fill="none" xmlns="http://www.w3.org/2000/svg">
<g clip-path="url(#clip0)">
<path d="M38.1829 15.2876C34.2379 15.2876 31.0283 18.4972 31.0283 22.4422V38.1823C31.0283 42.1274 34.2379 45.3369 38.1829 45.3369C42.128 45.3369 45.3375 42.1274 45.3375 38.1823V22.4422C45.3375 18.4972 42.128 15.2876 38.1829 15.2876ZM38.1829 16.7185C41.3388 16.7185 43.9066 19.2863 43.9066 22.4422V29.5968H32.4592V22.4422C32.4592 19.2863 35.027 16.7185 38.1829 16.7185ZM38.1829 43.906C35.027 43.906 32.4592 41.3382 32.4592 38.1823V31.0277H43.9066V38.1823C43.9066 41.3382 41.3388 43.906 38.1829 43.906Z" fill="white"/>
<path d="M41.0445 38.1824C41.0445 39.7607 39.7609 41.0442 38.1826 41.0442V42.4752C40.5501 42.4752 42.4754 40.5498 42.4754 38.1824V36.7515H41.0445V38.1824Z" fill="white"/>
<path d="M38.1824 19.5803V18.1494C35.815 18.1494 33.8896 20.0747 33.8896 22.4422H35.3206C35.3206 20.8639 36.6041 19.5803 38.1824 19.5803Z" fill="white"/>
<path d="M41.0439 33.8896H42.4749V35.3206H41.0439V33.8896Z" fill="white"/>
<path d="M33.8896 23.873H35.3206V25.304H33.8896V23.873Z" fill="white"/>
<path d="M25.4186 13.9405L23.8733 13.361V9.56404H25.3042V0.978516H5.27128V9.56404H6.7022V13.361L5.15681 13.9405C2.6577 14.8778 0.978516 17.3003 0.978516 19.9697V38.8979C0.978516 42.448 3.86755 45.3371 7.41766 45.3371H23.1578C26.7079 45.3371 29.5969 42.448 29.5969 38.8979V19.9697C29.5969 17.3003 27.9178 14.8778 25.4186 13.9405ZM6.7022 2.40944H23.8733V8.13312H6.7022V2.40944ZM2.40944 21.7269H6.98624L7.1787 21.5788C9.46173 19.8288 12.3415 18.865 15.2877 18.865C18.234 18.865 21.1137 19.8288 23.3968 21.5788L23.5892 21.7269H28.166V36.0361H2.40944V21.7269ZM23.1578 43.9061H7.41766C4.65598 43.9061 2.40944 41.6596 2.40944 38.8979V37.467H28.166V38.8979C28.166 41.6596 25.9195 43.9061 23.1578 43.9061V43.9061ZM28.166 20.2959H24.0714C21.5723 18.4486 18.4637 17.4341 15.2877 17.4341C12.1118 17.4341 9.00312 18.4486 6.50402 20.2959H2.40944V19.9697C2.40944 17.8934 3.71515 16.0089 5.65906 15.2806L8.13312 14.3526V9.56404H22.4423V14.3526L24.9164 15.2806C26.8603 16.0089 28.166 17.8934 28.166 19.9697V20.2959Z" fill="white"/>
<path d="M15.2874 20.2959C11.3424 20.2959 8.13281 23.5055 8.13281 27.4505C8.13281 31.3956 11.3424 34.6051 15.2874 34.6051C19.2325 34.6051 22.442 31.3956 22.442 27.4505C22.442 23.5055 19.2325 20.2959 15.2874 20.2959ZM15.2874 33.1742C12.1315 33.1742 9.56373 30.6064 9.56373 27.4505C9.56373 24.2946 12.1315 21.7268 15.2874 21.7268C18.4433 21.7268 21.0111 24.2946 21.0111 27.4505C21.0111 30.6064 18.4433 33.1742 15.2874 33.1742Z" fill="white"/>
</g>
<defs>
<clipPath id="clip0">
<rect x="0.262695" y="0.263184" width="45.7895" height="45.7895" fill="white"/>
</clipPath>
</defs>
</svg>
