<svg width="47" height="47" viewBox="0 0 47 47" fill="none" xmlns="http://www.w3.org/2000/svg">
<g clip-path="url(#clip0)">
<path d="M24.3037 16.8774L26.0504 15.4612L26.9516 16.5727L25.2049 17.9889L24.3037 16.8774Z" fill="#2E80A6"/>
<path d="M26.9453 14.7334L34.8838 8.29683L35.7852 9.40865L27.8468 15.8452L26.9453 14.7334Z" fill="#2E80A6"/>
<path d="M21.1927 30.8521L20.8014 29.4756C20.5188 29.5564 20.2226 29.5972 19.9242 29.5972H19.5801V31.0281H19.9242C20.3556 31.0281 20.7821 30.9688 21.1927 30.8521Z" fill="#2E80A6"/>
<path d="M23.5268 29.3112L23.8158 28.9542L22.7047 28.0527L22.4142 28.4105C22.2482 28.6165 22.0565 28.8011 21.8447 28.9599L22.7026 30.1054C23.0095 29.8764 23.2871 29.6081 23.5268 29.3112V29.3112Z" fill="#2E80A6"/>
<path d="M45.3371 6.7022C45.3371 3.5463 42.7693 0.978516 39.6134 0.978516H39.3601L22.4423 14.6953V13.1413H21.7269C16.5984 13.1413 12.4259 17.3139 12.4259 22.4423V23.9477C10.7782 21.3291 7.87055 19.5805 4.55582 19.5805H3.84036V24.5887C3.84036 24.7375 3.84823 24.8849 3.85538 25.033C1.95369 25.9259 0.978516 26.9769 0.978516 28.166C0.978516 33.8668 4.3376 38.7849 9.1734 41.0837C7.3869 41.2811 5.98674 42.7829 5.98674 44.6216V45.3371H34.6052V44.6216C34.6052 42.7829 33.205 41.2811 31.4185 41.0837C36.2543 38.7849 39.6134 33.8668 39.6134 28.166C39.6134 25.629 35.2133 24.2224 31.9043 23.5227L45.3371 6.95547V6.7022ZM13.8568 22.4423C13.8568 18.3435 17.0055 14.9672 21.0114 14.6045V18.1496C21.0114 22.2484 17.8627 25.6247 13.8568 25.9874V22.4423ZM22.4423 18.1496V16.5376L38.0315 3.89759C38.8314 5.88371 40.4312 7.4842 42.4173 8.28408L24.6381 30.2122C23.4962 31.6203 21.8091 32.4323 19.9997 32.4545C17.7654 32.4452 15.7156 32.3329 13.8568 32.1468V28.8815C13.8568 28.3835 13.806 27.8977 13.7302 27.4205C18.5839 27.1143 22.4423 23.0798 22.4423 18.1496ZM5.27128 21.0436C9.27714 21.4063 12.4259 24.7826 12.4259 28.8815V31.9859C11.3226 31.8449 10.3017 31.6775 9.36514 31.4893C6.83957 30.1042 5.27128 27.4706 5.27128 24.5887V21.0436ZM4.04641 26.5333C4.37266 28.0644 5.08097 29.4767 6.09191 30.6515C3.70728 29.8659 2.40944 28.9487 2.40944 28.166C2.40944 27.6695 3.01185 27.0835 4.04641 26.5333ZM31.0279 42.4752C31.9608 42.4752 32.7564 43.0733 33.0519 43.9061H7.54C7.83549 43.0733 8.63108 42.4752 9.56404 42.4752H15.2877H25.3042H31.0279ZM25.3042 41.0443H15.2877C9.03746 41.0443 3.81675 36.5662 2.65484 30.6508C5.78713 32.7493 12.8537 33.8503 19.9246 33.8876V33.8897C19.9375 33.8897 19.9504 33.8876 19.9633 33.8876C20.0742 33.8883 20.1851 33.8897 20.2959 33.8897C27.4899 33.8897 34.7497 32.7857 37.9371 30.6508C36.7752 36.5662 31.5544 41.0443 25.3042 41.0443ZM38.1825 28.166C38.1825 29.7186 33.0705 31.7991 24.5021 32.3293C24.9579 31.9773 25.3779 31.5723 25.7492 31.1137L30.8855 24.779C35.8894 25.7327 38.1825 27.1901 38.1825 28.166V28.166ZM43.3796 7.09785C41.4142 6.4661 39.8495 4.90067 39.2177 2.93602L39.8588 2.41659C42.0309 2.53893 43.7766 4.28466 43.899 6.4568L43.3796 7.09785Z" fill="#2E80A6"/>
<path d="M33.7584 33.5312C31.9047 36.4439 28.7438 38.1825 25.3038 38.1825H22.4463V39.6134H25.3038C29.2353 39.6134 32.8469 37.6273 34.9661 34.2997L33.7584 33.5312Z" fill="#2E80A6"/>
<path d="M19.5801 38.1826H21.011V39.6135H19.5801V38.1826Z" fill="#2E80A6"/>
<path d="M16.7188 38.1826H18.1497V39.6135H16.7188V38.1826Z" fill="#2E80A6"/>
<path d="M16.7188 29.5972H18.1497V31.0281H16.7188V29.5972Z" fill="#2E80A6"/>
</g>
<defs>
<clipPath id="clip0">
<rect x="0.262695" y="0.263184" width="45.7895" height="45.7895" fill="white"/>
</clipPath>
</defs>
</svg>
