<svg width="43" height="43" viewBox="0 0 43 43" fill="none" xmlns="http://www.w3.org/2000/svg">
<circle cx="21.5004" cy="21.4999" r="16.5385" fill="white"/>
<path d="M21.5 0C9.61943 0 0 9.61943 0 21.5C0 33.3806 9.61943 43 21.5 43C33.3806 43 43 33.3806 43 21.5C43 9.61943 33.3806 0 21.5 0ZM27.4403 13.1453H24.2977C23.7995 13.1453 23.0713 13.4135 23.0713 14.4866V17.3993H27.402L26.9037 22.3431H23.0713V36.4082H17.246V22.3431H14.4866V17.3993H17.246V14.2184C17.246 11.9189 18.3191 8.35472 23.1096 8.35472H27.402V13.1453H27.4403Z" fill="#3B5980"/>
</svg>
