<svg width="43" height="43" viewBox="0 0 43 43" fill="none" xmlns="http://www.w3.org/2000/svg">
<path d="M21.4999 17.7271C19.4038 17.7271 17.667 19.4638 17.667 21.5599C17.667 23.656 19.4038 25.3928 21.4999 25.3928C23.596 25.3928 25.3327 23.656 25.3327 21.5599C25.3327 19.4638 23.6558 17.7271 21.4999 17.7271Z" fill="url(#paint0_linear)"/>
<path d="M27.9082 11.4387H15.092C13.0558 11.4387 11.3789 13.1156 11.3789 15.1518V27.968C11.3789 30.0042 13.0558 31.6811 15.092 31.6811H27.9082C29.9444 31.6811 31.6212 30.0042 31.6212 27.968V15.1518C31.6212 13.1156 29.9444 11.4387 27.9082 11.4387ZM28.1477 21.5599C28.1477 25.2131 25.1533 28.2075 21.5001 28.2075C17.8469 28.2075 14.8524 25.2131 14.8524 21.5599C14.8524 17.9067 17.8469 14.9123 21.5001 14.9123C25.1533 14.9123 28.1477 17.9067 28.1477 21.5599ZM29.9444 14.7326C29.9444 15.6309 29.2257 16.2897 28.3873 16.2897C27.4889 16.2897 26.8302 15.571 26.8302 14.7326C26.8302 13.8942 27.5488 13.1755 28.3873 13.1755C29.2257 13.1156 29.9444 13.8343 29.9444 14.7326C29.9444 14.6727 29.9444 14.7326 29.9444 14.7326Z" fill="url(#paint1_linear)"/>
<path d="M21.5 0C9.64206 0 0 9.64206 0 21.5C0 33.3579 9.64206 43 21.5 43C33.3579 43 43 33.3579 43 21.5C43 9.64206 33.3579 0 21.5 0ZM34.4359 27.968C34.4359 31.5613 31.5014 34.4958 27.9081 34.4958H15.0919C11.4986 34.4958 8.56407 31.5613 8.56407 27.968V15.1518C8.56407 11.5585 11.4986 8.62395 15.0919 8.62395H27.9081C31.5014 8.62395 34.4359 11.5585 34.4359 15.1518V27.968Z" fill="url(#paint2_linear)"/>
<defs>
<linearGradient id="paint0_linear" x1="18.1817" y1="24.8934" x2="25.2845" y2="18.7447" gradientUnits="userSpaceOnUse">
<stop stop-color="#FFDD55"/>
<stop offset="0.5" stop-color="#FF543E"/>
<stop offset="1" stop-color="#C837AB"/>
</linearGradient>
<linearGradient id="paint1_linear" x1="12.738" y1="30.3623" x2="31.4939" y2="14.1261" gradientUnits="userSpaceOnUse">
<stop stop-color="#FFDD55"/>
<stop offset="0.5" stop-color="#FF543E"/>
<stop offset="1" stop-color="#C837AB"/>
</linearGradient>
<linearGradient id="paint2_linear" x1="2.88709" y1="40.1986" x2="42.7295" y2="5.70863" gradientUnits="userSpaceOnUse">
<stop stop-color="#FFDD55"/>
<stop offset="0.5" stop-color="#FF543E"/>
<stop offset="1" stop-color="#C837AB"/>
</linearGradient>
</defs>
</svg>
