<svg width="19" height="19" viewBox="0 0 19 19" fill="none" xmlns="http://www.w3.org/2000/svg">
<path d="M9.49998 0C4.25329 0 0 4.25329 0 9.49998C0 14.7467 4.25329 19 9.49998 19C14.7467 19 19 14.7467 19 9.49998C18.9944 4.25563 14.7444 0.00560616 9.49998 0ZM9.49998 17.6428C5.0028 17.6428 1.35713 13.9972 1.35713 9.49998C1.35713 5.0028 5.0028 1.35713 9.49998 1.35713C13.9972 1.35713 17.6428 5.0028 17.6428 9.49998C17.638 13.9952 13.9952 17.638 9.49998 17.6428Z" fill="#00A29D"/>
<path d="M14.7125 5.62738C14.4495 5.37339 14.0326 5.37339 13.7697 5.62738L7.46369 11.9333L5.22914 9.69877C4.96879 9.42919 4.53919 9.42176 4.26965 9.68211C4.00008 9.94246 3.99264 10.3721 4.25299 10.6416C4.25844 10.6472 4.26401 10.6528 4.26965 10.6583L6.98395 13.3726C7.24891 13.6375 7.67848 13.6375 7.94344 13.3726L14.7292 6.58683C14.9895 6.3173 14.982 5.88773 14.7125 5.62738Z" fill="#00A29D"/>
</svg>
