<svg width="21" height="20" viewBox="0 0 21 20" fill="none" xmlns="http://www.w3.org/2000/svg">
<circle cx="10.5" cy="10" r="9.5" fill="white" stroke="#00A29D"/>
<path d="M12.076 8.288C12.076 7.61333 11.5333 7.276 10.448 7.276C10.03 7.276 9.667 7.386 9.359 7.606C9.05833 7.826 8.83833 8.13033 8.699 8.519L7.5 8.178C7.64667 7.48133 7.98767 6.946 8.523 6.572C9.05833 6.19067 9.69267 6 10.426 6C10.8 6 11.152 6.033 11.482 6.099C11.812 6.165 12.131 6.27133 12.439 6.418C12.747 6.56467 12.989 6.781 13.165 7.067C13.3483 7.34567 13.44 7.67933 13.44 8.068C13.44 8.56667 13.3153 8.981 13.066 9.311C12.824 9.63367 12.4647 9.90133 11.988 10.114C11.6213 10.29 11.3793 10.411 11.262 10.477C11.13 10.5577 11.0347 10.6347 10.976 10.708C10.888 10.818 10.844 10.9353 10.844 11.06C10.844 11.0893 10.8513 11.1553 10.866 11.258C10.8807 11.3607 10.888 11.4193 10.888 11.434L9.689 11.445C9.63767 11.2837 9.612 11.0857 9.612 10.851C9.612 10.389 9.843 10.0113 10.305 9.718C10.525 9.586 10.8183 9.432 11.185 9.256C11.361 9.168 11.5003 9.091 11.603 9.025C11.7057 8.959 11.8083 8.86 11.911 8.728C12.021 8.58867 12.076 8.442 12.076 8.288ZM9.348 12.985C9.348 12.7577 9.43967 12.567 9.623 12.413C9.80633 12.259 10.0117 12.182 10.239 12.182C10.459 12.182 10.6607 12.2627 10.844 12.424C11.0273 12.578 11.119 12.765 11.119 12.985C11.119 13.2123 11.031 13.4067 10.855 13.568C10.679 13.7293 10.4737 13.81 10.239 13.81C10.0043 13.81 9.79533 13.733 9.612 13.579C9.436 13.4177 9.348 13.2197 9.348 12.985Z" fill="#00A29D"/>
</svg>
