<svg width="39" height="40" viewBox="0 0 39 40" fill="none" xmlns="http://www.w3.org/2000/svg">
<g clip-path="url(#clip0)">
<path d="M38.1965 10.3979C37.7469 8.68438 36.4296 7.33367 34.7592 6.87225C31.7073 6.01562 19.4996 6.01562 19.4996 6.01562C19.4996 6.01562 7.29224 6.01562 4.24032 6.8396C2.60203 7.30071 1.25266 8.68468 0.803074 10.3979C0 13.5278 0 20.0189 0 20.0189C0 20.0189 0 26.5426 0.803074 29.6398C1.25296 31.353 2.5699 32.704 4.24061 33.1655C7.32437 34.0221 19.4999 34.0221 19.4999 34.0221C19.4999 34.0221 31.7073 34.0221 34.7592 33.1981C36.4299 32.737 37.7469 31.386 38.1968 29.6727C38.9998 26.5426 38.9998 20.0518 38.9998 20.0518C38.9998 20.0518 39.032 13.5278 38.1965 10.3979Z" fill="#C50815"/>
<path d="M15.6123 26.0159L25.7637 20.0192L15.6123 14.0225V26.0159Z" fill="white"/>
</g>
<defs>
<clipPath id="clip0">
<rect width="39" height="40" fill="white"/>
</clipPath>
</defs>
</svg>
