<?xml version="1.0" encoding="utf-8"?>
<!-- Generator: Adobe Illustrator 22.0.1, SVG Export Plug-In . SVG Version: 6.00 Build 0)  -->
<svg version="1.1" id="Слой_1" xmlns="http://www.w3.org/2000/svg" xmlns:xlink="http://www.w3.org/1999/xlink" x="0px" y="0px"
	 viewBox="0 0 227.3 227.3" style="enable-background:new 0 0 227.3 227.3;" xml:space="preserve">
<style type="text/css">
	.st0{fill:#FFFFFF;}
</style>
<g>
	<path class="st0" d="M120.7,227.3c-4.7,0-9.5,0-14.2,0c-0.6-0.1-1.2-0.3-1.8-0.4c-13.2-0.9-25.8-4.1-37.8-9.7
		c-34.6-16.4-56.3-43.4-64.6-80.8c-1.1-5.1-1.6-10.4-2.3-15.6c0-4.9,0-9.8,0-14.7c0.5-3.3,0.9-6.5,1.4-9.8
		C8.2,50,44.5,11.7,90.4,2.4c5.3-1.1,10.7-1.6,16.1-2.4c4.7,0,9.5,0,14.2,0c0.7,0.1,1.4,0.3,2.1,0.4c9.1,0.7,18,2.3,26.5,5.4
		c41.7,15.2,67.1,44.5,76.1,87.9c0.9,4.2,1.2,8.5,1.8,12.8c0,4.7,0,9.5,0,14.2c-0.1,0.7-0.3,1.4-0.4,2c-1.5,19.2-7.5,37-18.2,53
		c-17.4,26.1-41.6,42.6-72.3,49.1C131.2,226,125.9,226.5,120.7,227.3z M113.4,63.5c0,0.1,0,0.3,0,0.4c-3.5,0-7.1-0.2-10.6,0
		c-13.9,0.7-27.9,1.3-41.8,2.4c-8.1,0.6-14.1,6.1-15.5,14c-1.4,7.9-2.1,15.9-2.6,23.9c-0.8,13.6-0.3,27.3,2.1,40.8
		c1.5,8.8,6.7,14,15.4,15.7c2.9,0.5,5.8,1,8.7,1.1c18.4,0.5,36.9,1.4,55.3,1.3c13.9-0.1,27.9-1.1,41.8-2.2
		c8.4-0.7,14.3-6.1,15.7-14.4c1.3-7.8,2.1-15.8,2.5-23.7c0.7-13.7,0.3-27.4-2.1-41c-1.6-8.6-6.9-13.8-15.5-15.4
		c-2.8-0.5-5.6-0.9-8.4-1C143.4,64.7,128.4,64.1,113.4,63.5z"/>
	<path class="st0" d="M136.5,113.6c-12.5,7.2-24.5,14.1-36.8,21.2c0-14.2,0-28.1,0-42.4C111.9,99.5,123.9,106.4,136.5,113.6z"/>
</g>
</svg>
