<svg width="19" height="19" viewBox="0 0 19 19" fill="none" xmlns="http://www.w3.org/2000/svg">
<g clip-path="url(#clip0)">
<path d="M18.6085 4.93905C18.3895 4.12511 17.7478 3.48353 16.934 3.26435C15.4471 2.85745 9.49981 2.85745 9.49981 2.85745C9.49981 2.85745 3.55263 2.85745 2.06579 3.24884C1.26766 3.46787 0.610273 4.12525 0.391241 4.93905C0 6.42574 0 9.50899 0 9.50899C0 9.50899 0 12.6078 0.391241 14.0789C0.610418 14.8927 1.252 15.5345 2.06594 15.7536C3.56828 16.1605 9.49996 16.1605 9.49996 16.1605C9.49996 16.1605 15.4471 16.1605 16.934 15.7691C17.7479 15.5501 18.3895 14.9084 18.6087 14.0946C18.9999 12.6078 18.9999 9.52465 18.9999 9.52465C18.9999 9.52465 19.0156 6.42574 18.6085 4.93905Z" fill="#C50815"/>
<path d="M7.60645 12.3574L12.552 9.50898L7.60645 6.66055V12.3574Z" fill="white"/>
</g>
<defs>
<clipPath id="clip0">
<rect width="19" height="19" fill="white"/>
</clipPath>
</defs>
</svg>
