<svg width="230" height="89" viewBox="0 0 230 89" fill="none" xmlns="http://www.w3.org/2000/svg">
<g clip-path="url(#clip0_2561_12749)">
<path d="M0 3C0 1.34315 1.34315 0 3 0H230V89H3C1.34314 89 0 87.6569 0 86V3Z" fill="#039BE5"/>
<circle cx="114.923" cy="30.9992" r="26.9231" fill="white"/>
<path d="M115 66C134.335 66 150 50.3346 150 31C150 11.6654 133.868 2.5 114.533 2.5C95.1987 2.5 80 11.6654 80 31C80 50.3346 95.6654 66 115 66ZM96.0154 30.2417L129.761 17.2304C131.328 16.6646 132.695 17.6125 132.188 19.9808L132.191 19.9779L126.445 47.0475C126.019 48.9667 124.879 49.4333 123.283 48.5292L114.533 42.0804L110.313 46.1463C109.846 46.6129 109.453 47.0067 108.548 47.0067L109.17 38.1021L125.386 23.4517C126.092 22.8304 125.229 22.4804 124.298 23.0988L104.258 35.7163L95.6188 33.0213C93.7433 32.4263 93.7025 31.1458 96.0154 30.2417Z" fill="#039BE5"/>
<path d="M86 61.8563H82V60.8003H91.136V61.8563H87.136V72.0003H86V61.8563Z" fill="white"/>
<path d="M96.645 69.7923L97.349 70.4163C96.9863 70.971 96.5117 71.403 95.925 71.7123C95.3383 72.011 94.709 72.1603 94.037 72.1603C92.7143 72.1603 91.6477 71.7603 90.837 70.9603C90.0263 70.1603 89.621 69.115 89.621 67.8243C89.621 66.523 90.005 65.4723 90.773 64.6723C91.541 63.8723 92.5597 63.4723 93.829 63.4723C94.0423 63.4723 94.3357 63.499 94.709 63.5523C95.6263 63.7336 96.3463 64.1656 96.869 64.8483C97.3917 65.5203 97.653 66.3203 97.653 67.2483C97.653 67.5043 97.6317 67.803 97.589 68.1443H90.725C90.757 69.0936 91.0823 69.835 91.701 70.3683C92.3303 70.9016 93.125 71.1683 94.085 71.1683C94.5757 71.1683 95.0557 71.0403 95.525 70.7843C95.9943 70.5283 96.3677 70.1976 96.645 69.7923ZM93.749 64.4483C92.917 64.4483 92.2237 64.699 91.669 65.2003C91.1143 65.7016 90.7943 66.363 90.709 67.1843H96.533C96.5117 66.3203 96.2503 65.6483 95.749 65.1683C95.2583 64.6883 94.5917 64.4483 93.749 64.4483Z" fill="white"/>
<path d="M100.298 72.0003H99.258V60.3203H100.298V72.0003Z" fill="white"/>
<path d="M108.926 69.7923L109.63 70.4163C109.268 70.971 108.793 71.403 108.206 71.7123C107.62 72.011 106.99 72.1603 106.318 72.1603C104.996 72.1603 103.929 71.7603 103.118 70.9603C102.308 70.1603 101.902 69.115 101.902 67.8243C101.902 66.523 102.286 65.4723 103.054 64.6723C103.822 63.8723 104.841 63.4723 106.11 63.4723C106.324 63.4723 106.617 63.499 106.99 63.5523C107.908 63.7336 108.628 64.1656 109.15 64.8483C109.673 65.5203 109.934 66.3203 109.934 67.2483C109.934 67.5043 109.913 67.803 109.87 68.1443H103.006C103.038 69.0936 103.364 69.835 103.982 70.3683C104.612 70.9016 105.406 71.1683 106.366 71.1683C106.857 71.1683 107.337 71.0403 107.806 70.7843C108.276 70.5283 108.649 70.1976 108.926 69.7923ZM106.03 64.4483C105.198 64.4483 104.505 64.699 103.95 65.2003C103.396 65.7016 103.076 66.363 102.99 67.1843H108.814C108.793 66.3203 108.532 65.6483 108.03 65.1683C107.54 64.6883 106.873 64.4483 106.03 64.4483Z" fill="white"/>
<path d="M117.767 63.6803H118.807V71.3923C118.807 72.6616 118.482 73.6376 117.831 74.3203C117.18 75.003 116.242 75.3443 115.015 75.3443C114.268 75.3443 113.554 75.179 112.871 74.8483C112.199 74.5176 111.746 74.0376 111.511 73.4083L112.439 72.9763C112.652 73.4243 113.01 73.7656 113.511 74.0003C114.012 74.235 114.535 74.3523 115.079 74.3523C115.954 74.3523 116.62 74.107 117.079 73.6163C117.538 73.1256 117.767 72.4376 117.767 71.5523V70.9603C117.415 71.4083 117.026 71.723 116.599 71.9043C116.172 72.075 115.655 72.1603 115.047 72.1603C113.756 72.1603 112.738 71.755 111.991 70.9443C111.244 70.1336 110.871 69.0936 110.871 67.8243C110.871 66.5656 111.26 65.531 112.039 64.7203C112.828 63.899 113.842 63.4883 115.079 63.4883C115.602 63.4883 116.114 63.5736 116.615 63.7443C117.116 63.915 117.5 64.1763 117.767 64.5283V63.6803ZM115.207 71.1683C115.762 71.1683 116.284 71.003 116.775 70.6723C117.266 70.3416 117.596 69.915 117.767 69.3923V65.8563C117.511 65.4083 117.154 65.067 116.695 64.8323C116.236 64.5976 115.735 64.4803 115.191 64.4803C114.22 64.4803 113.442 64.8056 112.855 65.4563C112.279 66.0963 111.991 66.8963 111.991 67.8563C111.991 68.8483 112.279 69.6483 112.855 70.2563C113.431 70.8643 114.215 71.1683 115.207 71.1683Z" fill="white"/>
<path d="M121.939 72.0003H120.899V63.6803H121.939V64.4803C122.077 64.1603 122.328 63.915 122.691 63.7443C123.053 63.5736 123.421 63.4883 123.795 63.4883C124.509 63.4883 125.075 63.7443 125.491 64.2563L124.787 64.9443C124.531 64.635 124.163 64.4803 123.683 64.4803C123.256 64.4803 122.883 64.6403 122.563 64.9603C122.253 65.2803 122.045 65.6643 121.939 66.1123V72.0003Z" fill="white"/>
<path d="M126.957 65.4403L126.397 64.6403C126.791 64.2776 127.282 63.995 127.869 63.7923C128.466 63.579 129.047 63.4723 129.613 63.4723C130.722 63.4723 131.57 63.7603 132.157 64.3363C132.743 64.9016 133.037 65.7336 133.037 66.8323V72.0003H131.997V70.6243C131.666 71.1043 131.213 71.4723 130.637 71.7283C130.071 71.9843 129.479 72.1123 128.861 72.1123C128.029 72.1123 127.319 71.899 126.733 71.4723C126.146 71.0456 125.853 70.4323 125.853 69.6323C125.853 67.947 127.202 67.1043 129.901 67.1043C130.711 67.1043 131.41 67.1896 131.997 67.3603C131.997 66.4003 131.805 65.6803 131.421 65.2003C131.047 64.7096 130.402 64.4643 129.485 64.4643C128.621 64.4643 127.778 64.7896 126.957 65.4403ZM127.613 70.7683C128.061 71.0243 128.573 71.1523 129.149 71.1523C129.725 71.1523 130.285 70.9763 130.829 70.6243C131.383 70.2723 131.773 69.8296 131.997 69.2963V68.3043C131.495 68.1336 130.845 68.0483 130.045 68.0483C127.975 68.0483 126.941 68.555 126.941 69.5683C126.941 70.1016 127.165 70.5016 127.613 70.7683Z" fill="white"/>
<path d="M147.12 66.4963V72.0003H146.08V66.8163C146.08 65.259 145.44 64.4803 144.16 64.4803C143.584 64.4803 143.072 64.635 142.624 64.9443C142.187 65.243 141.84 65.6536 141.584 66.1763V72.0003H140.544V66.3843C140.544 65.7976 140.363 65.3336 140 64.9923C139.648 64.651 139.179 64.4803 138.592 64.4803C138.069 64.4803 137.568 64.667 137.088 65.0403C136.608 65.403 136.261 65.8403 136.048 66.3523V72.0003H135.008V63.6803H136.048V64.8323C136.731 63.9363 137.632 63.4883 138.752 63.4883C140.032 63.4883 140.885 63.9683 141.312 64.9283C141.632 64.4696 142.048 64.1176 142.56 63.8723C143.083 63.6163 143.627 63.4883 144.192 63.4883C146.144 63.4883 147.12 64.491 147.12 66.4963Z" fill="white"/>
</g>
<defs>
<clipPath id="clip0_2561_12749">
<rect width="230" height="89" fill="white"/>
</clipPath>
</defs>
</svg>
