<svg width="230" height="89" viewBox="0 0 230 89" fill="none" xmlns="http://www.w3.org/2000/svg">
<g clip-path="url(#clip0_2561_12704)">
<rect width="230" height="89" fill="#7B59E9"/>
<path d="M115 66C133.778 66 149 50.7777 149 32C149 13.2223 133.778 3 115 3C96.2223 3 81 13.2223 81 32C81 50.7777 96.2223 66 115 66Z" fill="#7B59E9"/>
<path d="M129.75 16.6523C121.474 14.6535 113.184 12.3154 104.697 15.2859C99.2017 17.3465 99.2017 23.2994 99.4307 28.3365C99.4307 29.7102 97.8281 31.5419 98.5148 33.1446C99.8885 37.7237 101.033 42.3028 105.841 44.5923C106.528 45.0503 105.841 45.966 106.299 46.6529C106.07 46.6529 105.612 46.8819 105.612 47.1109C105.612 48.2083 106.105 49.8869 105.778 50.9691L120.388 65.5731C135.408 63.1812 147.147 50.9547 148.798 35.7008L129.75 16.6523Z" fill="#7B59E9"/>
<path d="M132.987 21.8964L132.975 21.8515C132.067 18.1789 127.971 14.2381 124.21 13.4182L124.168 13.4094C118.084 12.2489 111.916 12.2489 105.833 13.4094L105.79 13.4182C102.03 14.2381 97.9339 18.1791 97.0243 21.8515L97.0142 21.8964C95.8911 27.0253 95.8911 32.2267 97.0142 37.3555L97.0243 37.4004C97.8953 40.9162 101.686 44.6762 105.307 45.7101V49.8098C105.307 51.2937 107.115 52.0224 108.143 50.9516L112.297 46.634C113.198 46.6843 114.099 46.7124 115 46.7124C118.063 46.7124 121.126 46.4228 124.168 45.8427L124.21 45.8339C127.971 45.014 132.067 41.073 132.975 37.4006L132.986 37.3557C134.11 32.2267 134.11 27.0255 132.987 21.8964ZM129.699 36.6119C129.093 39.008 125.983 41.9867 123.512 42.5371C120.278 43.1523 117.017 43.4151 113.76 43.3249C113.695 43.3231 113.633 43.3483 113.588 43.3948C113.126 43.8692 110.555 46.5082 110.555 46.5082L107.329 49.8189C107.094 50.0649 106.679 49.8974 106.679 49.5581V42.7666C106.679 42.6544 106.599 42.5591 106.489 42.5374C106.488 42.5371 106.488 42.5371 106.487 42.537C104.016 41.9866 100.908 39.0079 100.3 36.6118C99.2891 31.9758 99.2891 27.2761 100.3 22.6402C100.908 20.2441 104.016 17.2654 106.487 16.715C112.136 15.6406 117.864 15.6406 123.512 16.715C125.984 17.2654 129.093 20.2441 129.699 22.6402C130.711 27.2763 130.711 31.976 129.699 36.6119Z" fill="white"/>
<path d="M120.377 39.7471C119.997 39.6317 119.635 39.5542 119.299 39.4149C115.815 37.9695 112.609 36.1048 110.069 33.2466C108.625 31.6212 107.495 29.7861 106.539 27.8442C106.086 26.9232 105.704 25.9663 105.315 25.0154C104.96 24.1484 105.483 23.2527 106.033 22.5993C106.55 21.9861 107.215 21.517 107.934 21.171C108.496 20.9011 109.05 21.0568 109.461 21.5329C110.348 22.5625 111.163 23.6446 111.822 24.8381C112.228 25.5721 112.117 26.4694 111.381 26.9689C111.202 27.0903 111.04 27.233 110.873 27.37C110.727 27.4902 110.59 27.6116 110.49 27.7743C110.307 28.0719 110.298 28.4232 110.416 28.7469C111.322 31.2386 112.851 33.1763 115.359 34.2201C115.76 34.387 116.163 34.5813 116.626 34.5276C117.4 34.4371 117.651 33.5876 118.193 33.1439C118.724 32.7103 119.402 32.7046 119.973 33.0661C120.544 33.4279 121.098 33.8159 121.649 34.2084C122.189 34.5936 122.727 34.9701 123.226 35.4093C123.705 35.8315 123.87 36.3853 123.6 36.9582C123.106 38.0075 122.387 38.8802 121.35 39.4375C121.057 39.5945 120.707 39.6453 120.377 39.7471C120.707 39.6453 119.997 39.6317 120.377 39.7471Z" fill="white"/>
<path d="M115.009 19.9725C119.565 20.1003 123.308 23.1243 124.11 27.6293C124.247 28.3969 124.295 29.1816 124.356 29.9608C124.382 30.2885 124.196 30.5998 123.843 30.6041C123.478 30.6085 123.313 30.3028 123.289 29.9754C123.242 29.327 123.21 28.6756 123.121 28.0328C122.649 24.6382 119.942 21.8299 116.563 21.2273C116.055 21.1366 115.535 21.1128 115.02 21.0588C114.694 21.0246 114.268 21.005 114.196 20.6002C114.135 20.2608 114.422 19.9907 114.745 19.9733C114.832 19.9681 114.921 19.9722 115.009 19.9725C114.921 19.9722 119.566 20.1003 115.009 19.9725Z" fill="white"/>
<path d="M121.937 28.9475C121.929 29.0044 121.925 29.1382 121.892 29.2641C121.771 29.7215 121.077 29.7787 120.918 29.3172C120.87 29.1803 120.863 29.0244 120.863 28.8769C120.861 27.9119 120.652 26.9477 120.165 26.1079C119.665 25.2448 118.9 24.5195 118.004 24.0803C117.462 23.8149 116.876 23.6498 116.281 23.5517C116.022 23.5087 115.759 23.4828 115.498 23.4464C115.182 23.4024 115.013 23.2009 115.028 22.8894C115.042 22.5974 115.256 22.3872 115.574 22.4054C116.62 22.4646 117.63 22.6909 118.56 23.1831C120.45 24.1844 121.53 25.7646 121.845 27.8749C121.86 27.9706 121.882 28.0652 121.89 28.1611C121.907 28.3978 121.919 28.6348 121.937 28.9475C121.919 28.6348 121.929 29.0042 121.937 28.9475Z" fill="white"/>
<path d="M119.098 28.8371C118.717 28.844 118.513 28.6328 118.473 28.2835C118.446 28.0399 118.424 27.7929 118.366 27.5557C118.251 27.0886 118.003 26.6559 117.61 26.3697C117.425 26.2346 117.215 26.1362 116.995 26.0724C116.715 25.9916 116.425 26.0139 116.146 25.9456C115.843 25.8714 115.675 25.6259 115.723 25.3418C115.766 25.0831 116.018 24.8813 116.3 24.9018C118.067 25.0293 119.33 25.9427 119.51 28.0225C119.523 28.1693 119.538 28.3243 119.505 28.4649C119.449 28.7049 119.271 28.8254 119.098 28.8371C119.271 28.8254 118.716 28.8438 119.098 28.8371Z" fill="white"/>
<path d="M132.987 21.8983L132.976 21.8534C132.467 19.7947 130.956 17.6519 129.064 16.0215L126.506 18.2883C128.027 19.5002 129.33 21.1791 129.7 22.6419C130.713 27.278 130.713 31.9776 129.7 36.6138C129.094 39.0099 125.984 41.9886 123.513 42.539C120.279 43.1541 117.018 43.417 113.761 43.3268C113.696 43.3249 113.634 43.3502 113.589 43.3967C113.127 43.8711 110.556 46.51 110.556 46.51L107.331 49.8208C107.095 50.0668 106.68 49.8996 106.68 49.56V42.7685C106.68 42.6562 106.6 42.561 106.49 42.5392C106.489 42.5392 106.489 42.539 106.488 42.539C105.084 42.2262 103.474 41.1288 102.234 39.8002L99.707 42.0398C101.286 43.757 103.321 45.1451 105.307 45.7122V49.8119C105.307 51.2958 107.116 52.0246 108.144 50.9537L112.298 46.6361C113.199 46.6864 114.1 46.7146 115.001 46.7146C118.063 46.7146 121.127 46.4249 124.168 45.8448L124.211 45.8362C127.972 45.0163 132.068 41.0755 132.976 37.4028L132.987 37.3579C134.11 32.2286 134.11 27.0274 132.987 21.8983Z" fill="white"/>
<path d="M120.377 39.7475C120.707 39.6458 119.997 39.6321 120.377 39.7475V39.7475Z" fill="white"/>
<path d="M123.221 35.408C122.723 34.969 122.185 34.5922 121.644 34.2071C121.094 33.8146 120.54 33.4265 119.969 33.0648C119.397 32.7032 118.72 32.709 118.189 33.1426C117.646 33.5863 117.396 34.4358 116.621 34.5262C116.159 34.58 115.756 34.3856 115.355 34.2188C113.811 33.5768 112.641 32.595 111.756 31.3555L109.875 33.0223C109.939 33.0962 110 33.1722 110.065 33.2453C112.604 36.1035 115.811 37.9682 119.294 39.4136C119.63 39.5531 119.993 39.6306 120.372 39.7458C119.993 39.6304 120.703 39.6442 120.372 39.7458C120.703 39.6442 121.052 39.593 121.346 39.436C122.383 38.8788 123.102 38.0059 123.596 36.9567C123.866 36.384 123.701 35.8302 123.221 35.408Z" fill="white"/>
<path d="M115.021 19.9712C115.017 19.9712 115.013 19.9708 115.009 19.9708C115.005 19.9705 115.01 19.9708 115.021 19.9712Z" fill="white"/>
<path d="M115.008 19.9707C115.012 19.9707 115.016 19.9711 115.02 19.9711C115.273 19.9801 119.386 20.0934 115.008 19.9707Z" fill="white"/>
<path d="M121.548 22.6816L120.746 23.3923C122.006 24.6182 122.875 26.2429 123.123 28.0308C123.213 28.6739 123.245 29.3251 123.292 29.9734C123.316 30.3011 123.48 30.6067 123.846 30.6024C124.199 30.5981 124.385 30.2869 124.359 29.9591C124.298 29.18 124.25 28.3951 124.113 27.6276C123.762 25.6556 122.847 23.9674 121.548 22.6816Z" fill="white"/>
<path d="M121.844 27.8755C121.614 26.3377 120.976 25.0829 119.917 24.127L119.117 24.8355C119.531 25.2025 119.888 25.6334 120.164 26.1088C120.651 26.9486 120.86 27.9128 120.862 28.8778C120.862 29.0252 120.869 29.1811 120.917 29.3183C121.076 29.7801 121.77 29.7229 121.891 29.2652C121.924 29.139 121.928 29.0053 121.936 28.9486C121.928 29.0056 121.917 28.6361 121.936 28.9486C121.917 28.6361 121.906 28.3989 121.888 28.1619C121.881 28.0656 121.858 27.9711 121.844 27.8755Z" fill="white"/>
<path d="M121.932 28.9494C121.914 28.6368 121.924 29.0062 121.932 28.9494V28.9494Z" fill="white"/>
<path d="M119.096 28.8381C119.102 28.8377 119.107 28.8346 119.113 28.834C119.097 28.834 119.072 28.8344 119.047 28.8353C119.063 28.8357 119.078 28.8382 119.096 28.8381Z" fill="white"/>
<path d="M119.098 28.8407C119.081 28.8409 119.066 28.8384 119.049 28.8379C118.967 28.8401 118.881 28.8445 119.098 28.8407Z" fill="white"/>
<path d="M119.116 28.833C119.11 28.8337 119.104 28.8367 119.099 28.8371C119.143 28.8341 119.139 28.833 119.116 28.833Z" fill="white"/>
<path d="M118.298 25.5625L117.484 26.2839C117.529 26.3112 117.573 26.3396 117.616 26.3705C118.009 26.6567 118.257 27.0894 118.371 27.5566C118.43 27.7938 118.451 28.0405 118.479 28.2844C118.516 28.6181 118.706 28.8233 119.055 28.8353C119.08 28.8346 119.105 28.8341 119.121 28.8339C119.289 28.8153 119.457 28.6977 119.511 28.4655C119.543 28.3251 119.528 28.1699 119.515 28.0231C119.414 26.8603 118.975 26.0625 118.298 25.5625Z" fill="white"/>
<path d="M105.208 60.8H106.376L101.224 72H100.376L94.968 60.8H96.168L100.84 70.448L105.208 60.8ZM108.616 72H107.576V63.68H108.616V72ZM107.4 61.024C107.4 60.8533 107.474 60.6933 107.624 60.544C107.762 60.416 107.928 60.352 108.12 60.352C108.301 60.352 108.461 60.416 108.6 60.544C108.738 60.6827 108.808 60.8427 108.808 61.024C108.808 61.216 108.738 61.3867 108.6 61.536C108.472 61.6747 108.312 61.744 108.12 61.744C107.917 61.744 107.746 61.68 107.608 61.552C107.469 61.4133 107.4 61.2373 107.4 61.024ZM110.915 70.528V60.32H111.955V64.864C112.67 63.936 113.662 63.472 114.931 63.472C116.137 63.472 117.081 63.872 117.763 64.672C118.457 65.472 118.803 66.4747 118.803 67.68C118.803 69.0347 118.419 70.1227 117.651 70.944C116.883 71.7547 115.843 72.16 114.531 72.16C113.881 72.16 113.209 72.0107 112.515 71.712C111.822 71.4133 111.289 71.0187 110.915 70.528ZM114.803 64.464C114.227 64.464 113.678 64.6347 113.155 64.976C112.633 65.3173 112.233 65.7547 111.955 66.288V70.048C112.265 70.3893 112.67 70.6613 113.171 70.864C113.673 71.0667 114.169 71.168 114.659 71.168C115.609 71.168 116.35 70.848 116.883 70.208C117.427 69.5573 117.699 68.7467 117.699 67.776C117.699 66.8267 117.443 66.0373 116.931 65.408C116.419 64.7787 115.71 64.464 114.803 64.464ZM126.912 69.792L127.616 70.416C127.253 70.9707 126.778 71.4027 126.192 71.712C125.605 72.0107 124.976 72.16 124.304 72.16C122.981 72.16 121.914 71.76 121.104 70.96C120.293 70.16 119.888 69.1147 119.888 67.824C119.888 66.5227 120.272 65.472 121.04 64.672C121.808 63.872 122.826 63.472 124.096 63.472C124.309 63.472 124.602 63.4987 124.976 63.552C125.893 63.7333 126.613 64.1653 127.136 64.848C127.658 65.52 127.92 66.32 127.92 67.248C127.92 67.504 127.898 67.8027 127.856 68.144H120.992C121.024 69.0933 121.349 69.8347 121.968 70.368C122.597 70.9013 123.392 71.168 124.352 71.168C124.842 71.168 125.322 71.04 125.792 70.784C126.261 70.528 126.634 70.1973 126.912 69.792ZM124.016 64.448C123.184 64.448 122.49 64.6987 121.936 65.2C121.381 65.7013 121.061 66.3627 120.976 67.184H126.8C126.778 66.32 126.517 65.648 126.016 65.168C125.525 64.688 124.858 64.448 124.016 64.448ZM130.565 72H129.525V63.68H130.565V64.48C130.703 64.16 130.954 63.9147 131.317 63.744C131.679 63.5733 132.047 63.488 132.421 63.488C133.135 63.488 133.701 63.744 134.117 64.256L133.413 64.944C133.157 64.6347 132.789 64.48 132.309 64.48C131.882 64.48 131.509 64.64 131.189 64.96C130.879 65.28 130.671 65.664 130.565 66.112V72Z" fill="white"/>
</g>
<defs>
<clipPath id="clip0_2561_12704">
<rect width="230" height="89" fill="white"/>
</clipPath>
</defs>
</svg>
