<svg width="230" height="89" viewBox="0 0 230 89" fill="none" xmlns="http://www.w3.org/2000/svg">
<g clip-path="url(#clip0_2561_12869)">
<path d="M0 0H227C228.657 0 230 1.34315 230 3V86C230 87.6569 228.657 89 227 89H0V0Z" fill="#34C456"/>
<path d="M90.224 60.8H91.344L88.016 72H87.008L83.76 62.672L80.56 72H79.536L76.048 60.8H77.248L80.112 70.048L83.28 60.8H84.256L87.488 70.048L90.224 60.8ZM93.4866 72H92.4466V60.32H93.4866V64.848C94.148 63.9413 95.124 63.488 96.4146 63.488C98.7506 63.488 99.9186 64.7467 99.9186 67.264V72H98.8786V67.392C98.8786 65.4507 97.9826 64.48 96.1906 64.48C95.5826 64.48 95.0333 64.6667 94.5426 65.04C94.0626 65.4027 93.7106 65.872 93.4866 66.448V72ZM102.38 65.44L101.82 64.64C102.214 64.2773 102.705 63.9947 103.292 63.792C103.889 63.5787 104.47 63.472 105.036 63.472C106.145 63.472 106.993 63.76 107.58 64.336C108.166 64.9013 108.46 65.7333 108.46 66.832V72H107.42V70.624C107.089 71.104 106.636 71.472 106.06 71.728C105.494 71.984 104.902 72.112 104.284 72.112C103.452 72.112 102.742 71.8987 102.156 71.472C101.569 71.0453 101.276 70.432 101.276 69.632C101.276 67.9467 102.625 67.104 105.324 67.104C106.134 67.104 106.833 67.1893 107.42 67.36C107.42 66.4 107.228 65.68 106.844 65.2C106.47 64.7093 105.825 64.464 104.908 64.464C104.044 64.464 103.201 64.7893 102.38 65.44ZM103.036 70.768C103.484 71.024 103.996 71.152 104.572 71.152C105.148 71.152 105.708 70.976 106.252 70.624C106.806 70.272 107.196 69.8293 107.42 69.296V68.304C106.918 68.1333 106.268 68.048 105.468 68.048C103.398 68.048 102.364 68.5547 102.364 69.568C102.364 70.1013 102.588 70.5013 103.036 70.768ZM111.055 64.672H109.391V63.68H111.055V61.808H112.095V63.68H115.071V64.672H112.095V68.656C112.095 69.008 112.111 69.312 112.143 69.568C112.186 69.8133 112.26 70.0693 112.367 70.336C112.474 70.592 112.639 70.7893 112.863 70.928C113.098 71.056 113.391 71.12 113.743 71.12C114.244 71.12 114.703 70.8853 115.119 70.416L115.759 71.04C115.546 71.36 115.226 71.6213 114.799 71.824C114.372 72.016 113.956 72.112 113.551 72.112C112.666 72.112 112.026 71.8133 111.631 71.216C111.247 70.6187 111.055 69.8453 111.055 68.896V64.672ZM121.992 69.792C121.992 69.568 121.928 69.3867 121.8 69.248C121.683 69.1093 121.501 68.9653 121.256 68.816C121 68.688 120.387 68.4853 119.416 68.208C118.392 67.92 117.72 67.6587 117.4 67.424C116.76 66.976 116.44 66.4373 116.44 65.808C116.44 65.2533 116.605 64.7947 116.936 64.432C117.277 64.0693 117.677 63.8187 118.136 63.68C118.595 63.5413 119.096 63.472 119.64 63.472C120.248 63.472 120.851 63.6 121.448 63.856C122.056 64.1013 122.525 64.448 122.856 64.896L122.104 65.568C121.88 65.2267 121.517 64.96 121.016 64.768C120.515 64.5653 120.029 64.464 119.56 64.464C118.216 64.464 117.544 64.8853 117.544 65.728C117.544 66.0053 117.677 66.2453 117.944 66.448C118.221 66.672 118.883 66.9333 119.928 67.232C120.973 67.5307 121.693 67.808 122.088 68.064C122.76 68.5333 123.096 69.104 123.096 69.776C123.096 70.2027 122.995 70.5813 122.792 70.912C122.6 71.232 122.339 71.4827 122.008 71.664C121.677 71.8347 121.331 71.9573 120.968 72.032C120.605 72.1173 120.221 72.16 119.816 72.16C119.08 72.16 118.355 71.9893 117.64 71.648C116.936 71.296 116.435 70.816 116.136 70.208L116.968 69.6C117.235 70.0907 117.635 70.4747 118.168 70.752C118.712 71.0293 119.283 71.168 119.88 71.168C120.2 71.168 120.509 71.1307 120.808 71.056C121.107 70.9813 121.379 70.8373 121.624 70.624C121.869 70.4 121.992 70.1227 121.992 69.792ZM124.825 72H123.673L128.585 60.768H129.513L134.425 72H133.241L131.881 68.928H126.137L124.825 72ZM131.465 67.904L129.017 62.272L126.601 67.904H131.465ZM136.565 75.2H135.525V63.68H136.565V64.912C136.842 64.4533 137.258 64.1013 137.813 63.856C138.367 63.6 138.938 63.472 139.525 63.472C140.751 63.472 141.711 63.872 142.405 64.672C143.109 65.4613 143.461 66.464 143.461 67.68C143.461 68.9493 143.077 70.016 142.309 70.88C141.541 71.7333 140.543 72.16 139.317 72.16C138.143 72.16 137.226 71.8293 136.565 71.168V75.2ZM139.429 64.464C138.799 64.464 138.218 64.6507 137.685 65.024C137.151 65.3867 136.778 65.8613 136.565 66.448V69.68C137.173 70.672 138.079 71.168 139.285 71.168C140.213 71.168 140.954 70.8373 141.509 70.176C142.074 69.504 142.357 68.6987 142.357 67.76C142.357 66.8 142.095 66.0107 141.573 65.392C141.061 64.7733 140.346 64.464 139.429 64.464ZM146.112 75.2H145.072V63.68H146.112V64.912C146.389 64.4533 146.805 64.1013 147.36 63.856C147.914 63.6 148.485 63.472 149.072 63.472C150.298 63.472 151.258 63.872 151.952 64.672C152.656 65.4613 153.008 66.464 153.008 67.68C153.008 68.9493 152.624 70.016 151.856 70.88C151.088 71.7333 150.09 72.16 148.864 72.16C147.69 72.16 146.773 71.8293 146.112 71.168V75.2ZM148.976 64.464C148.346 64.464 147.765 64.6507 147.232 65.024C146.698 65.3867 146.325 65.8613 146.112 66.448V69.68C146.72 70.672 147.626 71.168 148.832 71.168C149.76 71.168 150.501 70.8373 151.056 70.176C151.621 69.504 151.904 68.6987 151.904 67.76C151.904 66.8 151.642 66.0107 151.12 65.392C150.608 64.7733 149.893 64.464 148.976 64.464Z" fill="white"/>
<circle cx="114.5" cy="33.7695" r="22.6923" fill="white"/>
<path d="M114.5 2C98.2101 2 85 15.2101 85 31.5C85 47.7899 98.2101 61 114.5 61C130.79 61 144 47.7899 144 31.5C144 15.2101 130.79 2 114.5 2ZM115.125 48.6758C115.125 48.6758 115.126 48.6758 115.125 48.6758H115.118C112.163 48.6744 109.259 47.9335 106.68 46.5273L97.3206 48.9819L99.8256 39.8351C98.2803 37.1586 97.4674 34.122 97.4687 31.0112C97.4728 21.2793 105.393 13.3618 115.125 13.3618C119.848 13.3636 124.281 15.202 127.615 18.5379C130.948 21.8743 132.783 26.3091 132.781 31.0251C132.777 40.7575 124.856 48.6758 115.125 48.6758V48.6758Z" fill="#34C456"/>
<path d="M115.131 16.3428C107.037 16.3428 100.453 22.9233 100.45 31.0122C100.449 33.7841 101.225 36.4836 102.694 38.8193L103.042 39.3743L101.56 44.7881L107.114 43.3315L107.65 43.6493C109.903 44.9862 112.486 45.6933 115.119 45.6942H115.125C123.213 45.6942 129.797 39.1133 129.8 31.0239C129.802 27.1037 128.277 23.418 125.506 20.6452C122.735 17.8723 119.051 16.3441 115.131 16.3428V16.3428ZM123.763 37.3195C123.395 38.3494 121.633 39.2897 120.785 39.4167C120.025 39.5301 119.064 39.5774 118.007 39.242C117.366 39.0385 116.544 38.7671 115.491 38.3129C111.066 36.4026 108.176 31.948 107.955 31.6536C107.735 31.3593 106.154 29.2621 106.154 27.0911C106.154 24.9205 107.294 23.8533 107.698 23.4121C108.102 22.9706 108.58 22.8603 108.874 22.8603C109.168 22.8603 109.463 22.863 109.72 22.8756C109.991 22.8891 110.354 22.7725 110.712 23.6327C111.08 24.5159 111.962 26.6864 112.073 26.907C112.183 27.128 112.256 27.3855 112.11 27.6799C111.962 27.9742 111.474 28.6094 111.007 29.1883C110.811 29.4309 110.556 29.6469 110.813 30.0885C111.07 30.5297 111.956 31.9741 113.267 33.1436C114.953 34.6461 116.374 35.1116 116.815 35.3326C117.256 35.5532 117.513 35.5162 117.771 35.2223C118.028 34.9279 118.874 33.9345 119.168 33.4929C119.462 33.0513 119.756 33.1251 120.16 33.2723C120.565 33.4191 122.734 34.4863 123.175 34.7069C123.616 34.9279 123.91 35.0382 124.02 35.2223C124.131 35.4064 124.131 36.2891 123.763 37.3195V37.3195Z" fill="#34C456"/>
</g>
<defs>
<clipPath id="clip0_2561_12869">
<rect width="230" height="89" fill="white"/>
</clipPath>
</defs>
</svg>
